<svg xmlns="http://www.w3.org/2000/svg" width="72.128" height="72.13" viewBox="0 0 72.128 72.13">
  <g id="Grupo_107600" data-name="Grupo 107600" transform="translate(-42.279 -339.299)">
    <g id="Grupo_107589" data-name="Grupo 107589" transform="translate(42.279 339.299)">
      <g id="Grupo_107588" data-name="Grupo 107588">
        <path id="Trazado_152664" data-name="Trazado 152664" d="M112.862,378.42h-4.6a.755.755,0,0,1-.756-.756V366.35a6.376,6.376,0,0,0-4.962-6.177.761.761,0,0,1-.464-.32L88.835,339.989a1.543,1.543,0,0,0-2.082-.469l-10.18,6.108a.756.756,0,0,1-.843-.043l-7.965-5.975a1.55,1.55,0,0,0-2.147.285L50.2,359.72a.757.757,0,0,1-.6.292h-.982a6.348,6.348,0,0,0-6.342,6.339v38.74a6.349,6.349,0,0,0,6.342,6.339h52.544a6.347,6.347,0,0,0,6.339-6.339v-9.014a.756.756,0,0,1,.756-.756h4.6a1.548,1.548,0,0,0,1.546-1.546V379.966A1.548,1.548,0,0,0,112.862,378.42ZM79.771,347.315l6.692-4.016a.759.759,0,0,1,1.018.229l10.2,15.309a.757.757,0,0,1-.629,1.174H95.218a.767.767,0,0,1-.454-.151L79.707,348.566a.754.754,0,0,1,.064-1.251ZM54.838,358.792,66.67,343.579a.757.757,0,0,1,.6-.29.747.747,0,0,1,.452.151L88,358.651a.756.756,0,0,1-.454,1.361H83.643a.752.752,0,0,1-.42-.128l-13.229-8.819a1.538,1.538,0,0,0-2.092.361l-6.213,8.283a.753.753,0,0,1-.6.3H55.434a.756.756,0,0,1-.6-1.22Zm21.23.684a.752.752,0,0,1-.721.536h-8.51a.755.755,0,0,1-.6-1.208l2.838-3.783a.753.753,0,0,1,1.023-.174l5.672,3.782A.751.751,0,0,1,76.068,359.475Zm28.345,45.615a3.25,3.25,0,0,1-3.247,3.246H48.621a3.251,3.251,0,0,1-3.249-3.246V366.35a3.251,3.251,0,0,1,3.249-3.247h52.544a3.251,3.251,0,0,1,3.247,3.247v11.314a.755.755,0,0,1-.756.756h-6.9a8.45,8.45,0,1,0,0,16.9h6.9a.756.756,0,0,1,.756.756Zm6.9-13.617a.755.755,0,0,1-.756.756H96.754a5.358,5.358,0,1,1,0-10.716H110.56a.756.756,0,0,1,.756.756Z" transform="translate(-42.279 -339.299)" fill="#ef6c00"/>
        <path id="Trazado_152665" data-name="Trazado 152665" d="M76.189,367.375a1.547,1.547,0,1,0,1.546,1.547A1.549,1.549,0,0,0,76.189,367.375Z" transform="translate(-21.589 -321.351)" fill="#ef6c00"/>
      </g>
    </g>
    <g id="Grupo_107599" data-name="Grupo 107599" transform="translate(49.184 370.367)">
      <g id="Grupo_107592" data-name="Grupo 107592" transform="translate(6.904 2.302)">
        <g id="Grupo_107591" data-name="Grupo 107591">
          <g id="Grupo_107590" data-name="Grupo 107590">
            <path id="Trazado_152666" data-name="Trazado 152666" d="M52.246,385.759a1.529,1.529,0,0,1-.964-.339,1.55,1.55,0,0,1-.241-2.174L69.45,360.234a1.554,1.554,0,0,1,1.215-.579,1.522,1.522,0,0,1,.961.338,1.551,1.551,0,0,1,.241,2.174L53.455,385.179A1.548,1.548,0,0,1,52.246,385.759Z" transform="translate(-50.703 -359.655)" fill="#ef6c00"/>
          </g>
        </g>
      </g>
      <g id="Grupo_107595" data-name="Grupo 107595">
        <g id="Grupo_107594" data-name="Grupo 107594">
          <g id="Grupo_107593" data-name="Grupo 107593">
            <path id="Trazado_152667" data-name="Trazado 152667" d="M53.791,372.849a7.3,7.3,0,1,1,7.3-7.3A7.309,7.309,0,0,1,53.791,372.849Zm0-11.506A4.207,4.207,0,1,0,58,365.549,4.212,4.212,0,0,0,53.791,361.343Z" transform="translate(-46.491 -358.251)" fill="#ef6c00"/>
          </g>
        </g>
      </g>
      <g id="Grupo_107598" data-name="Grupo 107598" transform="translate(20.711 16.108)">
        <g id="Grupo_107597" data-name="Grupo 107597">
          <g id="Grupo_107596" data-name="Grupo 107596">
            <path id="Trazado_152668" data-name="Trazado 152668" d="M66.425,382.675a7.3,7.3,0,1,1,7.3-7.3A7.307,7.307,0,0,1,66.425,382.675Zm0-11.506a4.207,4.207,0,1,0,4.206,4.208A4.214,4.214,0,0,0,66.425,371.169Z" transform="translate(-59.125 -368.077)" fill="#ef6c00"/>
          </g>
        </g>
      </g>
    </g>
  </g>
</svg>
