<svg xmlns="http://www.w3.org/2000/svg" width="610" height="315.031" viewBox="0 0 610 315.031">
  <g id="Grupo_107423" data-name="Grupo 107423" transform="translate(6984.725 1638.356)">
    <g id="Grupo_88436" data-name="Grupo 88436" transform="translate(-6793.667 -1638.356)">
      <g id="Grupo_88429" data-name="Grupo 88429" transform="translate(40.479 0)">
        <circle id="Elipse_4729" data-name="Elipse 4729" cx="53.855" cy="53.855" r="53.855" transform="translate(5.68 5.68)" fill="#1b1b25"/>
        <circle id="Elipse_4730" data-name="Elipse 4730" cx="53.855" cy="53.855" r="53.855" fill="#ffb54a"/>
        <path id="Trazado_145279" data-name="Trazado 145279" d="M-6683.092-1540.311a43.423,43.423,0,0,1-43.372-43.375,43.423,43.423,0,0,1,43.372-43.374,43.424,43.424,0,0,1,43.375,43.374A43.424,43.424,0,0,1-6683.092-1540.311Zm0-83.938a40.609,40.609,0,0,0-40.562,40.562,40.61,40.61,0,0,0,40.562,40.564,40.611,40.611,0,0,0,40.566-40.564A40.611,40.611,0,0,0-6683.092-1624.249Z" transform="translate(6736.944 1637.646)" fill="#fcf0e3"/>
        <g id="Grupo_88428" data-name="Grupo 88428" transform="translate(35.952 26.274)">
          <g id="Grupo_88427" data-name="Grupo 88427">
            <path id="Trazado_145280" data-name="Trazado 145280" d="M-6684.548-1563.188a30.764,30.764,0,0,1-7.835-2.029,29.829,29.829,0,0,1-6.9-3.9l4.87-7.115a37.45,37.45,0,0,0,4.963,3.214,18.847,18.847,0,0,0,5.213,1.842v-9.925a42.887,42.887,0,0,1-5.9-2.059,14.765,14.765,0,0,1-4.184-2.685,10.225,10.225,0,0,1-2.5-3.651,12.866,12.866,0,0,1-.843-4.838v-.125a11.628,11.628,0,0,1,.937-4.745,10.853,10.853,0,0,1,2.651-3.682,13.585,13.585,0,0,1,4.15-2.527,20.358,20.358,0,0,1,5.372-1.281v-3.621h6.491v3.746a27.009,27.009,0,0,1,6.211,1.654,26.923,26.923,0,0,1,5.4,2.965l-4.184,7.3a35.5,35.5,0,0,0-3.807-2.215,19.273,19.273,0,0,0-3.932-1.467v9.426q7.115,1.936,10.331,5.057a11.118,11.118,0,0,1,3.215,8.365v.125a11.3,11.3,0,0,1-.968,4.745,11.17,11.17,0,0,1-2.686,3.683,13.927,13.927,0,0,1-4.149,2.559,19.54,19.54,0,0,1-5.431,1.311v6.18h-6.491Zm.312-35.708a5.637,5.637,0,0,0-3.277,1.343,3.437,3.437,0,0,0-1.032,2.528v.125a3.68,3.68,0,0,0,.875,2.465,8.353,8.353,0,0,0,3.434,1.967Zm5.868,28.029q4.432-.686,4.432-4v-.124a3.787,3.787,0,0,0-.937-2.653,9.014,9.014,0,0,0-3.5-1.967Z" transform="translate(6699.283 1610.319)" fill="#1b1b25"/>
          </g>
        </g>
      </g>
      <g id="Grupo_88432" data-name="Grupo 88432" transform="translate(40.479 0)">
        <circle id="Elipse_4731" data-name="Elipse 4731" cx="53.855" cy="53.855" r="53.855" transform="translate(5.68 5.68)" fill="#0f0140"/>
        <circle id="Elipse_4732" data-name="Elipse 4732" cx="53.855" cy="53.855" r="53.855" fill="#ffb54a"/>
        <path id="Trazado_145281" data-name="Trazado 145281" d="M-6683.092-1540.311a43.423,43.423,0,0,1-43.372-43.375,43.423,43.423,0,0,1,43.372-43.374,43.424,43.424,0,0,1,43.375,43.374A43.424,43.424,0,0,1-6683.092-1540.311Zm0-83.938a40.609,40.609,0,0,0-40.562,40.562,40.61,40.61,0,0,0,40.562,40.564,40.611,40.611,0,0,0,40.566-40.564A40.611,40.611,0,0,0-6683.092-1624.249Z" transform="translate(6736.944 1637.646)" fill="#fcf0e3"/>
        <g id="Grupo_88431" data-name="Grupo 88431" transform="translate(35.952 26.274)">
          <g id="Grupo_88430" data-name="Grupo 88430">
            <path id="Trazado_145282" data-name="Trazado 145282" d="M-6684.548-1563.188a30.764,30.764,0,0,1-7.835-2.029,29.829,29.829,0,0,1-6.9-3.9l4.87-7.115a37.45,37.45,0,0,0,4.963,3.214,18.847,18.847,0,0,0,5.213,1.842v-9.925a42.887,42.887,0,0,1-5.9-2.059,14.765,14.765,0,0,1-4.184-2.685,10.225,10.225,0,0,1-2.5-3.651,12.866,12.866,0,0,1-.843-4.838v-.125a11.628,11.628,0,0,1,.937-4.745,10.853,10.853,0,0,1,2.651-3.682,13.585,13.585,0,0,1,4.15-2.527,20.358,20.358,0,0,1,5.372-1.281v-3.621h6.491v3.746a27.009,27.009,0,0,1,6.211,1.654,26.923,26.923,0,0,1,5.4,2.965l-4.184,7.3a35.5,35.5,0,0,0-3.807-2.215,19.273,19.273,0,0,0-3.932-1.467v9.426q7.115,1.936,10.331,5.057a11.118,11.118,0,0,1,3.215,8.365v.125a11.3,11.3,0,0,1-.968,4.745,11.17,11.17,0,0,1-2.686,3.683,13.927,13.927,0,0,1-4.149,2.559,19.54,19.54,0,0,1-5.431,1.311v6.18h-6.491Zm.312-35.708a5.637,5.637,0,0,0-3.277,1.343,3.437,3.437,0,0,0-1.032,2.528v.125a3.68,3.68,0,0,0,.875,2.465,8.353,8.353,0,0,0,3.434,1.967Zm5.868,28.029q4.432-.686,4.432-4v-.124a3.787,3.787,0,0,0-.937-2.653,9.014,9.014,0,0,0-3.5-1.967Z" transform="translate(6699.283 1610.319)" fill="#1b1b25"/>
          </g>
        </g>
      </g>
      <g id="Grupo_88435" data-name="Grupo 88435" transform="translate(13.736 1.992)">
        <circle id="Elipse_4733" data-name="Elipse 4733" cx="24.368" cy="24.368" r="24.368" transform="translate(2.57 2.57)" fill="#1b1b25"/>
        <circle id="Elipse_4734" data-name="Elipse 4734" cx="24.368" cy="24.368" r="24.368" fill="#ffb54a"/>
        <path id="Trazado_145283" data-name="Trazado 145283" d="M-6741.5-1591.867a19.65,19.65,0,0,1-19.626-19.627,19.649,19.649,0,0,1,19.626-19.626,19.647,19.647,0,0,1,19.625,19.626A19.648,19.648,0,0,1-6741.5-1591.867Zm0-37.98a18.374,18.374,0,0,0-18.354,18.353,18.375,18.375,0,0,0,18.354,18.355,18.375,18.375,0,0,0,18.353-18.355A18.374,18.374,0,0,0-6741.5-1629.847Z" transform="translate(6765.868 1635.91)" fill="#fcf0e3"/>
        <g id="Grupo_88434" data-name="Grupo 88434" transform="translate(16.268 11.888)">
          <g id="Grupo_88433" data-name="Grupo 88433">
            <path id="Trazado_145284" data-name="Trazado 145284" d="M-6742.159-1602.22a13.893,13.893,0,0,1-3.546-.917,13.5,13.5,0,0,1-3.121-1.765l2.2-3.22a16.938,16.938,0,0,0,2.247,1.454,8.542,8.542,0,0,0,2.358.833v-4.491a19.431,19.431,0,0,1-2.67-.932,6.707,6.707,0,0,1-1.893-1.215,4.645,4.645,0,0,1-1.129-1.652,5.827,5.827,0,0,1-.381-2.19v-.057a5.249,5.249,0,0,1,.425-2.146,4.927,4.927,0,0,1,1.2-1.667,6.137,6.137,0,0,1,1.878-1.143,9.193,9.193,0,0,1,2.431-.579v-1.639h2.936v1.7a12.187,12.187,0,0,1,2.811.749,12.126,12.126,0,0,1,2.442,1.341l-1.892,3.3a16.27,16.27,0,0,0-1.722-1,8.734,8.734,0,0,0-1.78-.663v4.265a10.748,10.748,0,0,1,4.674,2.287,5.036,5.036,0,0,1,1.456,3.785v.057a5.14,5.14,0,0,1-.437,2.146,5.053,5.053,0,0,1-1.217,1.667,6.316,6.316,0,0,1-1.878,1.159,8.846,8.846,0,0,1-2.457.592v2.8h-2.936Zm.141-16.156a2.548,2.548,0,0,0-1.483.607,1.552,1.552,0,0,0-.467,1.144v.056a1.673,1.673,0,0,0,.395,1.116,3.794,3.794,0,0,0,1.556.889Zm2.654,12.682q2.006-.311,2-1.808v-.057a1.715,1.715,0,0,0-.422-1.2,4.067,4.067,0,0,0-1.582-.889Z" transform="translate(6748.827 1623.545)" fill="#1b1b25"/>
          </g>
        </g>
      </g>
      <path id="Trazado_145285" data-name="Trazado 145285" d="M-6770.262-1564.954h0a10.581,10.581,0,0,0-10.583-10.582h0a10.582,10.582,0,0,0,10.583-10.583h0a10.582,10.582,0,0,0,10.583,10.583h0A10.581,10.581,0,0,0-6770.262-1564.954Z" transform="translate(6780.845 1635.07)" fill="#fff"/>
      <path id="Trazado_145286" data-name="Trazado 145286" d="M-6637.414-1507.8h0a7.773,7.773,0,0,0-7.773-7.771h0a7.773,7.773,0,0,0,7.773-7.771h0a7.771,7.771,0,0,0,7.77,7.771h0A7.771,7.771,0,0,0-6637.414-1507.8Z" transform="translate(6772.31 1631.122)" fill="#fff"/>
      <path id="Trazado_145287" data-name="Trazado 145287" d="M-6692.058-1468.739h0a14.29,14.29,0,0,0-14.292-14.29h0a14.291,14.291,0,0,0,14.292-14.291h0a14.291,14.291,0,0,0,14.291,14.291h0A14.29,14.29,0,0,0-6692.058-1468.739Z" transform="translate(6776.159 1629.486)" fill="#fff"/>
      <path id="Trazado_145288" data-name="Trazado 145288" d="M-6639.351-1586.276h0a13.393,13.393,0,0,0-13.393-13.392h0a13.392,13.392,0,0,0,13.393-13.391h0a13.391,13.391,0,0,0,13.391,13.391h0A13.392,13.392,0,0,0-6639.351-1586.276Z" transform="translate(6772.788 1636.765)" fill="#fcf0e3"/>
      <path id="Trazado_145289" data-name="Trazado 145289" d="M-6591.178-1575.817h0a7.386,7.386,0,0,0-7.386-7.387h0a7.386,7.386,0,0,0,7.386-7.387h0a7.387,7.387,0,0,0,7.388,7.387h0A7.387,7.387,0,0,0-6591.178-1575.817Z" transform="translate(6769.38 1635.352)" fill="#fff"/>
    </g>
    <g id="Grupo_88448" data-name="Grupo 88448" transform="translate(-6984.725 -1614.298)">
      <path id="Trazado_145290" data-name="Trazado 145290" d="M-6838.782-1601.127h-82.278a15.322,15.322,0,0,0-15.322,15.323,15.322,15.322,0,0,0,15.322,15.322h67.808l9.327,8.5v-8.5h5.144a15.321,15.321,0,0,0,15.322-15.322A15.322,15.322,0,0,0-6838.782-1601.127Z" transform="translate(6981.686 1611.956)" fill="#3e2ea6"/>
      <path id="Trazado_145291" data-name="Trazado 145291" d="M-6912.927-1587.607a4.844,4.844,0,0,0,1.754-3.738,4.856,4.856,0,0,0-4.854-4.859,4.858,4.858,0,0,0-4.858,4.859,4.849,4.849,0,0,0,1.756,3.738,9,9,0,0,0-5.907,8.448c0,4.975,18.017,4.975,18.017,0A9,9,0,0,0-6912.927-1587.607Z" transform="translate(6980.971 1611.646)" fill="#ffb54a"/>
      <g id="Grupo_88437" data-name="Grupo 88437" transform="translate(84.507 18.129)">
        <path id="Trazado_145292" data-name="Trazado 145292" d="M-6835.122-1592.4h-58.956a.469.469,0,0,1-.469-.469.469.469,0,0,1,.469-.468h58.956a.469.469,0,0,1,.469.468A.47.47,0,0,1-6835.122-1592.4Z" transform="translate(6894.546 1593.337)" fill="#fff"/>
        <path id="Trazado_145293" data-name="Trazado 145293" d="M-6844.267-1577.638h-49.811a.468.468,0,0,1-.469-.468.469.469,0,0,1,.469-.469h49.811a.468.468,0,0,1,.468.469A.467.467,0,0,1-6844.267-1577.638Z" transform="translate(6894.546 1592.409)" fill="#fff"/>
        <path id="Trazado_145294" data-name="Trazado 145294" d="M-6857.833-1584.552h-36.245a.469.469,0,0,1-.469-.469.469.469,0,0,1,.469-.469h36.245a.468.468,0,0,1,.469.469A.468.468,0,0,1-6857.833-1584.552Z" transform="translate(6894.546 1592.844)" fill="#fff"/>
        <path id="Trazado_145295" data-name="Trazado 145295" d="M-6832.384-1584.552h-18.192a.469.469,0,0,1-.468-.469.47.47,0,0,1,.468-.469h18.192a.47.47,0,0,1,.469.469A.469.469,0,0,1-6832.384-1584.552Z" transform="translate(6891.81 1592.844)" fill="#fff"/>
      </g>
      <path id="Trazado_145296" data-name="Trazado 145296" d="M-6909.535-1580.219a1.4,1.4,0,0,1-.993-.412l-3.531-3.531a1.407,1.407,0,0,1,0-1.988,1.407,1.407,0,0,1,1.989,0l2.535,2.537,6.817-6.816a1.4,1.4,0,0,1,1.986,0,1.4,1.4,0,0,1,0,1.987l-7.808,7.811A1.409,1.409,0,0,1-6909.535-1580.219Z" transform="translate(6980.306 1611.309)" fill="#fff"/>
      <g id="Grupo_88443" data-name="Grupo 88443" transform="translate(494.144 90.625)">
        <path id="Trazado_145297" data-name="Trazado 145297" d="M-6441.695-1515.976h84.415a15.72,15.72,0,0,1,15.721,15.721,15.72,15.72,0,0,1-15.721,15.72h-69.569l-9.569,8.722v-8.722h-5.277a15.722,15.722,0,0,1-15.721-15.72A15.723,15.723,0,0,1-6441.695-1515.976Z" transform="translate(6457.416 1515.976)" fill="#ffb54a"/>
        <g id="Grupo_88441" data-name="Grupo 88441" transform="translate(86.138 4.814)">
          <g id="Grupo_88440" data-name="Grupo 88440">
            <g id="Grupo_88439" data-name="Grupo 88439">
              <path id="Trazado_145298" data-name="Trazado 145298" d="M-6353.389-1502.244a4.846,4.846,0,0,0,1.758-3.737,4.859,4.859,0,0,0-4.858-4.858,4.858,4.858,0,0,0-4.859,4.858,4.847,4.847,0,0,0,1.759,3.737,9,9,0,0,0-5.909,8.448c0,4.975,18.017,4.975,18.017,0A9,9,0,0,0-6353.389-1502.244Z" transform="translate(6365.498 1510.839)" fill="#4e69ff"/>
              <g id="Grupo_88438" data-name="Grupo 88438" transform="translate(11.36 8.514)">
                <path id="Trazado_145299" data-name="Trazado 145299" d="M-6345.228-1498.97h-2.326v-2.327a.458.458,0,0,0-.458-.456h-2.123a.457.457,0,0,0-.457.456v2.327h-2.327a.457.457,0,0,0-.457.457v2.122a.456.456,0,0,0,.457.457h2.327v2.328a.457.457,0,0,0,.457.456h2.123a.458.458,0,0,0,.458-.456v-2.328h2.326a.456.456,0,0,0,.457-.457v-2.122A.457.457,0,0,0-6345.228-1498.97Z" transform="translate(6353.375 1501.753)" fill="#fff"/>
              </g>
            </g>
          </g>
        </g>
        <g id="Grupo_88442" data-name="Grupo 88442" transform="translate(19.34 8.437)">
          <path id="Trazado_145300" data-name="Trazado 145300" d="M-6377.354-1506.036h-58.956a.469.469,0,0,1-.468-.469.468.468,0,0,1,.468-.469h58.956a.468.468,0,0,1,.469.469A.468.468,0,0,1-6377.354-1506.036Z" transform="translate(6436.777 1506.973)" fill="#fff"/>
          <path id="Trazado_145301" data-name="Trazado 145301" d="M-6386.5-1491.274h-49.81a.468.468,0,0,1-.468-.469.469.469,0,0,1,.468-.469h49.81a.469.469,0,0,1,.468.469A.468.468,0,0,1-6386.5-1491.274Z" transform="translate(6436.777 1506.045)" fill="#fff"/>
          <path id="Trazado_145302" data-name="Trazado 145302" d="M-6400.063-1498.188h-36.246a.468.468,0,0,1-.468-.468.468.468,0,0,1,.468-.469h36.246a.469.469,0,0,1,.468.469A.468.468,0,0,1-6400.063-1498.188Z" transform="translate(6436.777 1506.479)" fill="#fff"/>
          <path id="Trazado_145303" data-name="Trazado 145303" d="M-6374.618-1498.188h-18.19a.467.467,0,0,1-.468-.468.468.468,0,0,1,.468-.469h18.19a.468.468,0,0,1,.469.469A.468.468,0,0,1-6374.618-1498.188Z" transform="translate(6434.041 1506.479)" fill="#fff"/>
        </g>
      </g>
      <g id="Grupo_88445" data-name="Grupo 88445" transform="translate(392.926 0)">
        <path id="Trazado_145304" data-name="Trazado 145304" d="M-6554.6-1612.683h58.151a10.829,10.829,0,0,1,10.83,10.829,10.829,10.829,0,0,1-10.83,10.829H-6554.6a10.829,10.829,0,0,1-10.83-10.829A10.829,10.829,0,0,1-6554.6-1612.683Z" transform="translate(6565.426 1612.683)" fill="#3e2ea6"/>
        <g id="Grupo_88444" data-name="Grupo 88444" transform="translate(16.861 6.33)">
          <path id="Trazado_145305" data-name="Trazado 145305" d="M-6501.88-1604.991h-45.086a.469.469,0,0,1-.469-.469.468.468,0,0,1,.469-.468h45.086a.468.468,0,0,1,.469.468A.469.469,0,0,1-6501.88-1604.991Z" transform="translate(6547.435 1605.928)" fill="#3e2ea6"/>
          <path id="Trazado_145306" data-name="Trazado 145306" d="M-6508.874-1596.249h-38.092a.469.469,0,0,1-.469-.468.469.469,0,0,1,.469-.469h38.092a.468.468,0,0,1,.469.469A.468.468,0,0,1-6508.874-1596.249Z" transform="translate(6547.435 1605.378)" fill="#3e2ea6"/>
          <path id="Trazado_145307" data-name="Trazado 145307" d="M-6519.247-1600.344h-27.719a.469.469,0,0,1-.469-.469.469.469,0,0,1,.469-.469h27.719a.469.469,0,0,1,.469.469A.469.469,0,0,1-6519.247-1600.344Z" transform="translate(6547.435 1605.636)" fill="#3e2ea6"/>
          <path id="Trazado_145308" data-name="Trazado 145308" d="M-6499.787-1600.344h-13.91a.469.469,0,0,1-.47-.469.47.47,0,0,1,.47-.469h13.91a.468.468,0,0,1,.468.469A.467.467,0,0,1-6499.787-1600.344Z" transform="translate(6545.342 1605.636)" fill="#3e2ea6"/>
        </g>
      </g>
      <g id="Grupo_88447" data-name="Grupo 88447" transform="translate(0 153.527)">
        <path id="Trazado_145309" data-name="Trazado 145309" d="M-6975.094-1448.852h51.705a9.628,9.628,0,0,1,9.629,9.629,9.629,9.629,0,0,1-9.629,9.63h-51.705a9.629,9.629,0,0,1-9.63-9.63A9.629,9.629,0,0,1-6975.094-1448.852Z" transform="translate(6984.725 1448.852)" fill="#ffb54a"/>
        <g id="Grupo_88446" data-name="Grupo 88446" transform="translate(14.942 5.577)">
          <path id="Trazado_145310" data-name="Trazado 145310" d="M-6928.222-1441.963h-40.09a.468.468,0,0,1-.468-.469.468.468,0,0,1,.468-.469h40.09a.469.469,0,0,1,.467.469A.469.469,0,0,1-6928.222-1441.963Z" transform="translate(6968.781 1442.901)" fill="#fff"/>
          <path id="Trazado_145311" data-name="Trazado 145311" d="M-6934.443-1434.191h-33.87a.468.468,0,0,1-.468-.469.468.468,0,0,1,.468-.469h33.87a.469.469,0,0,1,.469.469A.469.469,0,0,1-6934.443-1434.191Z" transform="translate(6968.781 1442.412)" fill="#fff"/>
          <path id="Trazado_145312" data-name="Trazado 145312" d="M-6943.667-1437.832h-24.646a.468.468,0,0,1-.468-.468.468.468,0,0,1,.468-.469h24.646a.468.468,0,0,1,.468.469A.468.468,0,0,1-6943.667-1437.832Z" transform="translate(6968.781 1442.641)" fill="#fff"/>
          <path id="Trazado_145313" data-name="Trazado 145313" d="M-6926.364-1437.832h-12.368a.469.469,0,0,1-.469-.468.469.469,0,0,1,.469-.469h12.368a.468.468,0,0,1,.469.469A.468.468,0,0,1-6926.364-1437.832Z" transform="translate(6966.92 1442.641)" fill="#fff"/>
        </g>
      </g>
    </g>
    <g id="Grupo_88470" data-name="Grupo 88470" transform="translate(-6673.663 -1576.265)">
      <g id="Grupo_88454" data-name="Grupo 88454" transform="translate(0 14.713)">
        <g id="Grupo_88453" data-name="Grupo 88453">
          <g id="Grupo_88452" data-name="Grupo 88452">
            <g id="Grupo_88450" data-name="Grupo 88450">
              <path id="Trazado_145314" data-name="Trazado 145314" d="M-6606.69-1456.42l.031-.107,13.566-47.2-.058-.044a16.958,16.958,0,0,1,5.428-6.014,15.7,15.7,0,0,0,6.26-10.364c2.987-2.89,6.353-5.356,9.4-8.181a2.167,2.167,0,0,0,.743-1.042,1.81,1.81,0,0,0-.386-1.356c-1.573-2.332-4.467-2.669-6.872-1.592a16.829,16.829,0,0,0-3.851,2.515,19.158,19.158,0,0,0-3.053,2.61l10.792-23.043c.959-2.046.332-4.381-1.394-5.189h0a3.207,3.207,0,0,0-2.725.055,4.357,4.357,0,0,0-1.5,1.2l.054-.269c-12.642-10.629-28.238,25.548-28.238,25.548l-4.426,10.444-37.541,69.606a20.223,20.223,0,0,0,9.039,27.587h0c.148.072.3.135.445.2a20.385,20.385,0,0,0,10.225,2.736h73.882l15.921-37.838Zm21.049-70.425Z" transform="translate(6652.786 1556.397)" fill="#fec29e"/>
              <g id="Grupo_88449" data-name="Grupo 88449" transform="translate(32.132 99.87)">
                <path id="Trazado_145315" data-name="Trazado 145315" d="M-6605.984-1441.844l-1.892,6.579C-6607.188-1437.54-6606.542-1439.769-6605.984-1441.844Z" transform="translate(6617.828 1449.322)" fill="none"/>
                <path id="Trazado_145316" data-name="Trazado 145316" d="M-6617.187-1409.072Z" transform="translate(6618.497 1447.264)" fill="#ff887c" opacity="0.17"/>
                <path id="Trazado_145317" data-name="Trazado 145317" d="M-6617.085-1409.069l.6.019Z" transform="translate(6618.409 1447.261)" fill="#ff887c" opacity="0.17"/>
                <path id="Trazado_145318" data-name="Trazado 145318" d="M-6604.374-1449.824l-2.149,7.478c-.56,2.075-1.2,4.3-1.892,6.579l-2.6,9.038a20.334,20.334,0,0,1-1.348,3.3c-2.236,6.69-4.08,11.82-4.08,11.82l26.57-38.045C-6596.48-1449.658-6598-1449.816-6604.374-1449.824Z" transform="translate(6618.369 1449.824)" fill="#ff887c" opacity="0.17"/>
                <path id="Trazado_145319" data-name="Trazado 145319" d="M-6617.1-1409.069h0Z" transform="translate(6618.409 1447.261)" fill="#ff887c" opacity="0.17"/>
              </g>
              <path id="Trazado_145320" data-name="Trazado 145320" d="M-6592.181-1523.029a.47.47,0,0,1-.277-.091.469.469,0,0,1-.1-.656,8.586,8.586,0,0,1,11.116-2.9.467.467,0,0,1,.178.636.466.466,0,0,1-.636.181c-.23-.127-5.687-3.074-9.906,2.644A.464.464,0,0,1-6592.181-1523.029Z" transform="translate(6649.004 1554.589)" fill="#fb8e77"/>
              <path id="Trazado_145321" data-name="Trazado 145321" d="M-6575.791-1554.151a71.554,71.554,0,0,0-5.366,7.721,34.891,34.891,0,0,0-2.132,4.152,10.23,10.23,0,0,0-1,4.362v.029a.467.467,0,0,1-.442.493.469.469,0,0,1-.494-.442v-.011a10.986,10.986,0,0,1,1.165-4.762,35.622,35.622,0,0,1,2.266-4.208,72.2,72.2,0,0,1,5.576-7.689.278.278,0,0,1,.393-.038.282.282,0,0,1,.042.389Z" transform="translate(6648.536 1556.285)" fill="#fb8e77"/>
              <path id="Trazado_145322" data-name="Trazado 145322" d="M-6579.332-1555.583a17.7,17.7,0,0,0-3.341,3.15,28.048,28.048,0,0,0-2.651,3.8,33.446,33.446,0,0,0-2.027,4.174c-.307.711-.537,1.455-.806,2.179l-.673,2.225-.008.027a.469.469,0,0,1-.584.314.467.467,0,0,1-.312-.584l0-.009.729-2.262c.292-.738.541-1.491.868-2.215a34.389,34.389,0,0,1,2.158-4.237,28.611,28.611,0,0,1,2.8-3.847,18.046,18.046,0,0,1,3.547-3.209.29.29,0,0,1,.4.081.292.292,0,0,1-.078.4Z" transform="translate(6648.82 1556.38)" fill="#fb8e77"/>
              <path id="Trazado_145323" data-name="Trazado 145323" d="M-6584.687-1555.194a45.729,45.729,0,0,0-4.908,6.063,26.1,26.1,0,0,0-1.934,3.356,13.663,13.663,0,0,0-1.181,3.6l0,.011a.468.468,0,0,1-.536.39.469.469,0,0,1-.391-.536l0-.011a14.536,14.536,0,0,1,1.354-3.822,26.917,26.917,0,0,1,2.076-3.407,46.27,46.27,0,0,1,5.135-6.032.274.274,0,0,1,.387,0,.275.275,0,0,1,.005.381Z" transform="translate(6649.065 1556.351)" fill="#fb8e77"/>
            </g>
            <g id="Grupo_88451" data-name="Grupo 88451" transform="translate(65.954 99.84)">
              <path id="Trazado_145324" data-name="Trazado 145324" d="M-6431.747-1380.994l-18.123-49.4c-2.158-10.841-12.47-19.058-24.876-19.058l-50.625-.4-57.036.217v38.023h17.7l-9.136,99.17,125.592.71-.7-67.153Z" transform="translate(6582.405 1449.856)" fill="#0f0140"/>
              <path id="Trazado_145325" data-name="Trazado 145325" d="M-6554.767-1379.024" transform="translate(6580.667 1445.401)" fill="#0f0140"/>
            </g>
            <path id="Trazado_145326" data-name="Trazado 145326" d="M-6525.47-1449.433l.1-.423-57.036.217v38.023h17.7l.094-1C-6564.612-1432.686-6547.166-1448.993-6525.47-1449.433Z" transform="translate(6648.358 1549.696)" fill="#1b1b25" opacity="0.05"/>
            <path id="Trazado_145327" data-name="Trazado 145327" d="M-6598.564-1508.118s3.2,27.189,3.389,26.535l5.492-19.107Z" transform="translate(6649.375 1553.36)" fill="#ff887c" opacity="0.18"/>
          </g>
        </g>
      </g>
      <g id="Grupo_88457" data-name="Grupo 88457" transform="translate(90.517 151.54)">
        <g id="Grupo_88455" data-name="Grupo 88455">
          <path id="Trazado_145328" data-name="Trazado 145328" d="M-6521.14-1364.318l-4.792-24.158-3.7-18.638a4.075,4.075,0,0,0-4.778-3.195l-18.511,3.673a4.074,4.074,0,0,0-3.2,4.777l3.719,18.759,2.955,14.878,1.816,9.157a4.076,4.076,0,0,0,4.777,3.2l10.934-2.169,7.579-1.5A4.076,4.076,0,0,0-6521.14-1364.318Z" transform="translate(6556.193 1410.386)" fill="#1b1b25"/>
        </g>
        <g id="Grupo_88456" data-name="Grupo 88456" transform="translate(0.791 21.91)">
          <path id="Trazado_145329" data-name="Trazado 145329" d="M-6422.542-1340.585l-8.35-36.352-37.958,4.643,2.085,9.247-.193-.048-41.262-10.215-.035.05a13.819,13.819,0,0,1-5.159-4.742,12.353,12.353,0,0,0-9.272-5.312c-1.119-1.173-2.163-2.427-3.194-3.692l.968,4.873-.242.127a15.63,15.63,0,0,1-8.542,1.775l-18.144-1.416a2.761,2.761,0,0,0-2.713,1.544c-5.31,11.163,17.49,21.376,22.693,23.535h0l.183.075.213.088c.077.03.135.055.2.08l.166.067c.065.027.113.044.157.062l.059.024.078.03,8.924,3.345,70.644,34.772a20.39,20.39,0,0,0,1.989.827,17.627,17.627,0,0,0,11.324,1.17h0A20.492,20.492,0,0,0-6422.542-1340.585Z" transform="translate(6555.349 1387.005)" fill="#fec29e"/>
          <path id="Trazado_145330" data-name="Trazado 145330" d="M-6419.43-1351.317l-43.612-19.989c1.455,6.343.607,3.544,1.89,9.2l2.969.735C-6445.625-1360.525-6419.43-1351.317-6419.43-1351.317Z" transform="translate(6549.542 1386.017)" fill="#ff887c" opacity="0.17"/>
        </g>
        <path id="Trazado_145331" data-name="Trazado 145331" d="M-6467.2-1372.64a.469.469,0,0,1-.458-.374l-5.449-26.4a.468.468,0,0,1,.364-.553.47.47,0,0,1,.555.363l5.36,25.972,18.354-2.335a.468.468,0,0,1,.525.405.47.47,0,0,1-.406.525l-18.785,2.39A.423.423,0,0,1-6467.2-1372.64Z" transform="translate(6550.969 1409.731)" fill="#1b1b25" opacity="0.35"/>
      </g>
      <g id="Grupo_88458" data-name="Grupo 88458" transform="translate(221.422 208.152)">
        <path id="Trazado_145332" data-name="Trazado 145332" d="M-6416.186-1348.372l.075.374Z" transform="translate(6416.483 1349.874)" fill="#ff887c" opacity="0.17"/>
        <path id="Trazado_145333" data-name="Trazado 145333" d="M-6416.106-1347.973c0,.023.007.026,0,0Z" transform="translate(6416.477 1349.849)" fill="#ff887c" opacity="0.17"/>
        <path id="Trazado_145334" data-name="Trazado 145334" d="M-6416.5-1349.975l.2,1C-6416.357-1349.24-6416.421-1349.557-6416.5-1349.975Z" transform="translate(6416.502 1349.975)" fill="#ff887c" opacity="0.17"/>
        <path id="Trazado_145335" data-name="Trazado 145335" d="M-6416.292-1348.906l.1.5C-6416.221-1348.555-6416.255-1348.727-6416.292-1348.906Z" transform="translate(6416.489 1349.908)" fill="#ff887c" opacity="0.17"/>
      </g>
      <g id="Grupo_88469" data-name="Grupo 88469" transform="translate(102.149)">
        <g id="Grupo_88460" data-name="Grupo 88460">
          <path id="Trazado_145336" data-name="Trazado 145336" d="M-6475.944-1555.012a14.946,14.946,0,0,0-16.464-12.711,14.905,14.905,0,0,0-5.854,1.949,13.172,13.172,0,0,0-12.724-6.238,13.111,13.111,0,0,0-7.669,3.628,17.263,17.263,0,0,0-9.712-1.731,17.364,17.364,0,0,0-15.3,19.206,17.275,17.275,0,0,0,5.778,11.07l-3.529,18.853a9.969,9.969,0,0,0,7.964,11.633l41.818,7.828a9.969,9.969,0,0,0,11.632-7.965l6.853-36.6A9.959,9.959,0,0,0-6475.944-1555.012Z" transform="translate(6543.78 1572.097)" fill="#1b1b25"/>
          <g id="Grupo_88459" data-name="Grupo 88459" transform="translate(3.774 7.612)">
            <path id="Trazado_145337" data-name="Trazado 145337" d="M-6536.639-1544.192a.471.471,0,0,1-.4-.218c-7.47-11.821,2.819-19.4,2.925-19.476a.466.466,0,0,1,.652.107.469.469,0,0,1-.106.653c-.4.287-9.668,7.15-2.677,18.215a.468.468,0,0,1-.147.646A.464.464,0,0,1-6536.639-1544.192Z" transform="translate(6539.753 1563.974)" fill="#fcf0e3"/>
          </g>
        </g>
        <g id="Grupo_88462" data-name="Grupo 88462" transform="translate(1.097 31.617)">
          <g id="Grupo_88461" data-name="Grupo 88461">
            <path id="Trazado_145338" data-name="Trazado 145338" d="M-6482.633-1515.931l-.915-.172-9.231-19.841a14.931,14.931,0,0,1-6.245-2.414,11.227,11.227,0,0,1-7.006,3.555,11.239,11.239,0,0,1-8.865-2.888,17.271,17.271,0,0,1-9.494,4.207,17.293,17.293,0,0,1-11.465-2.731l-6.431,34.35a18.92,18.92,0,0,0,2.385,13.238,19.212,19.212,0,0,0,13.521,11.547v22.683a14.368,14.368,0,0,0,14.326,14.327h4.521a14.369,14.369,0,0,0,14.326-14.327v-25.755a19.135,19.135,0,0,0,4.687-9.391l1.173-6.272.916.172a10.068,10.068,0,0,0,11.714-8.022l.1-.55A10.068,10.068,0,0,0-6482.633-1515.931Z" transform="translate(6542.609 1538.358)" fill="#fec29e"/>
          </g>
          <path id="Trazado_145339" data-name="Trazado 145339" d="M-6489.291-1493.809l-.837,4.475a19.017,19.017,0,0,1-22.19,15.191l-14.593-2.732a18.953,18.953,0,0,1-12.809-8.95,19.229,19.229,0,0,0,14.3,11.734l.582.109a14.357,14.357,0,0,0,12.9,8.148h4.576a14.373,14.373,0,0,0,13.938-11.076,19.147,19.147,0,0,0,5.082-9.832l1.174-6.272Z" transform="translate(6542.428 1535.556)" fill="#ff887c" opacity="0.32"/>
        </g>
        <g id="Grupo_88468" data-name="Grupo 88468" transform="translate(3.854 43.933)">
          <path id="Trazado_145340" data-name="Trazado 145340" d="M-6478.029-1500.606a.473.473,0,0,1-.286-.1l-3.646-2.83a.476.476,0,0,1-.18-.349.476.476,0,0,1,.146-.363l4.5-4.244a.47.47,0,0,1,.663.019.471.471,0,0,1-.02.664l-4.1,3.867,3.215,2.5a.469.469,0,0,1,.083.657A.469.469,0,0,1-6478.029-1500.606Z" transform="translate(6536.05 1524.172)" fill="#fb8e77"/>
          <g id="Grupo_88467" data-name="Grupo 88467" transform="translate(0)">
            <g id="Grupo_88466" data-name="Grupo 88466" transform="translate(4.514)">
              <g id="Grupo_88465" data-name="Grupo 88465">
                <g id="Grupo_88463" data-name="Grupo 88463" transform="translate(21.631)">
                  <path id="Trazado_145341" data-name="Trazado 145341" d="M-6503.079-1519.087a5.557,5.557,0,0,1-2.152-.819c-.72-.39-1.454-.764-2.1-1.066s-1.41-.626-2.17-.928a5.5,5.5,0,0,1-2.007-1.121c-.448-.5-.359-1.277.688-1.8a6.353,6.353,0,0,1,5.186.355,6.155,6.155,0,0,1,3.551,3.718C-6501.841-1519.621-6502.4-1519.06-6503.079-1519.087Z" transform="translate(6511.768 1525.215)" fill="#1b1b25"/>
                </g>
                <g id="Grupo_88464" data-name="Grupo 88464" transform="translate(0 0.774)">
                  <path id="Trazado_145342" data-name="Trazado 145342" d="M-6534.347-1521.6a6.243,6.243,0,0,0,2.255.466c.815.07,1.635.159,2.343.258s1.525.239,2.328.4a6.208,6.208,0,0,0,2.29.17c.642-.143.978-.765.366-1.671a6.8,6.8,0,0,0-4.579-2.314,6.539,6.539,0,0,0-4.966.978C-6535.113-1522.613-6534.932-1521.92-6534.347-1521.6Z" transform="translate(6534.85 1524.39)" fill="#1b1b25"/>
                </g>
              </g>
            </g>
            <rect id="Rectángulo_34290" data-name="Rectángulo 34290" width="2.384" height="3.829" rx="1.192" transform="matrix(-0.983, -0.184, 0.184, -0.983, 29.145, 14.364)" fill="#1b1b25"/>
            <rect id="Rectángulo_34291" data-name="Rectángulo 34291" width="2.384" height="3.829" rx="1.192" transform="matrix(-0.983, -0.184, 0.184, -0.983, 8.947, 11.082)" fill="#1b1b25"/>
            <rect id="Rectángulo_34292" data-name="Rectángulo 34292" width="7.045" height="2.952" rx="1.476" transform="translate(34.35 20.136) rotate(-173.583)" fill="#ff887c" opacity="0.17"/>
            <rect id="Rectángulo_34293" data-name="Rectángulo 34293" width="7.045" height="2.952" rx="1.476" transform="matrix(-0.994, -0.112, 0.112, -0.994, 7.001, 15.828)" fill="#ff887c" opacity="0.17"/>
            <path id="Trazado_145343" data-name="Trazado 145343" d="M-6525.279-1486.466a.464.464,0,0,1-.378-.192.469.469,0,0,1,.1-.654,4.431,4.431,0,0,1,5.053-.006.468.468,0,0,1,.115.651.471.471,0,0,1-.652.117,3.514,3.514,0,0,0-3.963-.007A.461.461,0,0,1-6525.279-1486.466Z" transform="translate(6538.791 1522.882)" fill="#fb8e77"/>
            <path id="Trazado_145344" data-name="Trazado 145344" d="M-6521.867-1500.675l10.96-1.565-1.2,3.806a5.854,5.854,0,0,1-5.583,4.094h0a3.891,3.891,0,0,1-3.869-3.475Z" transform="translate(6538.548 1523.771)" fill="#fff"/>
            <path id="Trazado_145345" data-name="Trazado 145345" d="M-6519.321-1505.883a.466.466,0,0,1-.118-.016l-3.4-.883a4.751,4.751,0,0,1-3.19-2.745,4.744,4.744,0,0,1,.215-4.2l5.175-9.314a.467.467,0,0,1,.637-.183.468.468,0,0,1,.181.637l-5.173,9.313a3.809,3.809,0,0,0-.173,3.378,3.813,3.813,0,0,0,2.565,2.207l3.4.885a.468.468,0,0,1,.334.572A.467.467,0,0,1-6519.321-1505.883Z" transform="translate(6538.835 1525.094)" fill="#fb8e77"/>
          </g>
        </g>
      </g>
    </g>
    <g id="Grupo_88489" data-name="Grupo 88489" transform="translate(-6919.784 -1553.378)">
      <g id="Grupo_88474" data-name="Grupo 88474" transform="translate(7.263 0)">
        <g id="Grupo_88473" data-name="Grupo 88473">
          <g id="Grupo_88471" data-name="Grupo 88471" transform="translate(126.068)">
            <path id="Trazado_145346" data-name="Trazado 145346" d="M-6693.978-1440.038l-37.541-69.605-4.427-10.444s-15.6-36.177-28.236-25.548l.052.268a4.337,4.337,0,0,0-1.5-1.195,3.214,3.214,0,0,0-2.729-.056h0c-1.723.808-2.351,3.143-1.392,5.188l10.792,23.045a18.98,18.98,0,0,0-3.053-2.611,16.668,16.668,0,0,0-3.851-2.515c-2.4-1.078-5.3-.74-6.871,1.592a1.814,1.814,0,0,0-.387,1.356,2.156,2.156,0,0,0,.742,1.041c3.05,2.824,6.415,5.29,9.4,8.181a15.706,15.706,0,0,0,6.261,10.364,16.956,16.956,0,0,1,5.428,6.013l-.059.044,13.6,47.306-19.857.266v37.837h43.917a20.4,20.4,0,0,0,10.238-2.743c.145-.066.29-.126.432-.2h0A20.224,20.224,0,0,0-6693.978-1440.038Z" transform="translate(6773.146 1547.669)" fill="#fec29e"/>
            <path id="Trazado_145347" data-name="Trazado 145347" d="M-6724.306-1402.808h0s-10.207-27.456-11.96-38.21c-6.76,0-7.789.3-14.552.3Z" transform="translate(6771.742 1540.966)" fill="#ff887c" opacity="0.17"/>
            <path id="Trazado_145348" data-name="Trazado 145348" d="M-6747.553-1514.223a.462.462,0,0,1-.378-.19c-4.217-5.718-9.675-2.771-9.905-2.643a.47.47,0,0,1-.637-.181.468.468,0,0,1,.18-.637,8.589,8.589,0,0,1,11.117,2.9.471.471,0,0,1-.1.656A.46.46,0,0,1-6747.553-1514.223Z" transform="translate(6772.226 1545.861)" fill="#fb8e77"/>
            <path id="Trazado_145349" data-name="Trazado 145349" d="M-6763.4-1545.722a39.376,39.376,0,0,1,3.157,3.6,38.743,38.743,0,0,1,2.716,3.945,28.838,28.838,0,0,1,2.1,4.332,18.447,18.447,0,0,1,1.054,4.747.467.467,0,0,1-.431.5.468.468,0,0,1-.5-.43v-.006l0-.02a17.67,17.67,0,0,0-.911-4.51,28.271,28.271,0,0,0-1.954-4.241,38.236,38.236,0,0,0-2.587-3.924,39.224,39.224,0,0,0-3.032-3.6l0-.007a.277.277,0,0,1,.008-.394A.278.278,0,0,1-6763.4-1545.722Z" transform="translate(6772.562 1547.557)" fill="#fb8e77"/>
            <path id="Trazado_145350" data-name="Trazado 145350" d="M-6760.018-1547.642a12.352,12.352,0,0,1,3.7,3.2,25.4,25.4,0,0,1,2.694,4.015,41.872,41.872,0,0,1,2.076,4.353l.851,2.252.758,2.285a.469.469,0,0,1-.3.593.47.47,0,0,1-.593-.3l0-.006,0-.021-.7-2.262-.8-2.23a40.524,40.524,0,0,0-1.955-4.3,24.749,24.749,0,0,0-2.549-3.955,11.907,11.907,0,0,0-3.4-3.09l-.042-.024a.287.287,0,0,1-.118-.392A.289.289,0,0,1-6760.018-1547.642Z" transform="translate(6772.346 1547.674)" fill="#fb8e77"/>
            <path id="Trazado_145351" data-name="Trazado 145351" d="M-6754.525-1546.8a23.442,23.442,0,0,1,2.861,2.789,26.983,26.983,0,0,1,2.408,3.181,25.461,25.461,0,0,1,1.929,3.5,26.669,26.669,0,0,1,1.383,3.764.469.469,0,0,1-.314.583.468.468,0,0,1-.585-.314l0-.008-.008-.023a25.357,25.357,0,0,0-1.242-3.662,24.553,24.553,0,0,0-1.789-3.445,26.349,26.349,0,0,0-2.27-3.158,22.725,22.725,0,0,0-2.71-2.777l-.009-.01a.272.272,0,0,1-.032-.386A.274.274,0,0,1-6754.525-1546.8Z" transform="translate(6772.002 1547.623)" fill="#fb8e77"/>
            <path id="Trazado_145352" data-name="Trazado 145352" d="M-6751.685-1494.359l14.508-1.791-8.971,17.844S-6748.818-1491.575-6751.685-1494.359Z" transform="translate(6771.795 1544.434)" fill="#ff887c" opacity="0.18"/>
          </g>
          <g id="Grupo_88472" data-name="Grupo 88472" transform="translate(0 100.136)">
            <path id="Trazado_145353" data-name="Trazado 145353" d="M-6819.794-1440.632l0,.017c-.223-.006-.445-.017-.671-.017h-45.84a23.276,23.276,0,0,0-21.768,15.036l-.006,0-.069.191-.033.091-19.5,53.144,18.1,2.214v59.018h98.5l7.365-91.855h17.135v-38.023Z" transform="translate(6907.674 1440.818)" fill="#fff"/>
            <path id="Trazado_145354" data-name="Trazado 145354" d="M-6760.073-1440.818l-52.331.218,0,.006a36.829,36.829,0,0,1,35.274,36.794l-.082,1h17.137Z" transform="translate(6901.681 1440.818)" fill="#1b1b25" opacity="0.05"/>
            <path id="Trazado_145355" data-name="Trazado 145355" d="M-6774-1370.217" transform="translate(6899.266 1436.377)" fill="none" stroke="#fb8e77" stroke-linecap="round" stroke-miterlimit="10" stroke-width="1"/>
          </g>
        </g>
      </g>
      <g id="Grupo_88477" data-name="Grupo 88477" transform="translate(0 136.906)">
        <path id="Trazado_145356" data-name="Trazado 145356" d="M-6778.2-1397.829l-18.513-3.673a4.074,4.074,0,0,0-4.777,3.2l-3.7,18.638-4.794,24.156a4.077,4.077,0,0,0,3.2,4.777l7.578,1.5,10.935,2.169a4.076,4.076,0,0,0,4.777-3.194l1.817-9.157,2.953-14.879,3.721-18.759A4.075,4.075,0,0,0-6778.2-1397.829Z" transform="translate(6908.799 1401.58)" fill="#1b1b25"/>
        <g id="Grupo_88476" data-name="Grupo 88476" transform="translate(0 7.835)">
          <path id="Trazado_145357" data-name="Trazado 145357" d="M-6782.889-1371.484a2.7,2.7,0,0,0-1.038-1.139c-.08-.116-.142-.232-.228-.349l-.443.056a2.788,2.788,0,0,0-1.007-.112l-18.141,1.416a15.639,15.639,0,0,1-8.543-1.775l-.438-.232.909-4.579c-.98,1.2-1.973,2.386-3.029,3.507a12.679,12.679,0,0,0-6.446,2.43,11.639,11.639,0,0,0-2.991,3.067,14.789,14.789,0,0,1-3.354,3.6,11.8,11.8,0,0,1-1.549.951l-.038-.051-41.265,10.215-.19.047,2.095-9.291-37.967-4.6-8.349,36.352a20.49,20.49,0,0,0,15.384,24.556h0a17.621,17.621,0,0,0,11.324-1.169,20.4,20.4,0,0,0,1.99-.827l69.845-34.38,9.467-3.549s.383-.147,1.054-.425l-.139-.027C-6801.655-1349.548-6777.434-1360.016-6782.889-1371.484Z" transform="translate(6915.425 1392.273)" fill="#fec29e"/>
          <g id="Grupo_88475" data-name="Grupo 88475" transform="translate(2.588 28.743)">
            <path id="Trazado_145358" data-name="Trazado 145358" d="M-6912.581-1339.6c-.039.2-.061.32-.074.376Z" transform="translate(6912.664 1361.103)" fill="#ff887c" opacity="0.17"/>
            <path id="Trazado_145359" data-name="Trazado 145359" d="M-6870.545-1353.3c.856-3.934.605-3.594,1.906-9.243l-43.625,20.033s4.323-1.3,10.288-2.885c.556-.2,1.119-.389,1.7-.545Z" transform="translate(6912.638 1362.546)" fill="#ff887c" opacity="0.17"/>
            <path id="Trazado_145360" data-name="Trazado 145360" d="M-6912.468-1340.172l-.108.536C-6912.548-1339.773-6912.511-1339.953-6912.468-1340.172Z" transform="translate(6912.658 1361.139)" fill="#ff887c" opacity="0.17"/>
            <path id="Trazado_145361" data-name="Trazado 145361" d="M-6912.655-1339.2c-.01.055-.01.058,0,0Z" transform="translate(6912.663 1361.077)" fill="#ff887c" opacity="0.17"/>
            <path id="Trazado_145362" data-name="Trazado 145362" d="M-6912.276-1341.168c-.076.384-.135.678-.186.933Z" transform="translate(6912.65 1361.202)" fill="#ff887c" opacity="0.17"/>
          </g>
          <path id="Trazado_145363" data-name="Trazado 145363" d="M-6862.55-1364.007a.319.319,0,0,1-.057,0l-8.281-1.022a.466.466,0,0,1-.408-.523.468.468,0,0,1,.522-.407l7.831.967,4.361-27.827a.471.471,0,0,1,.537-.391.467.467,0,0,1,.39.535l-4.432,28.276A.468.468,0,0,1-6862.55-1364.007Z" transform="translate(6912.65 1393.218)" fill="#1b1b25" opacity="0.35"/>
        </g>
        <path id="Trazado_145364" data-name="Trazado 145364" d="M-6851.638-1357.28l18.7-.469c3.489.458,9.041-2.69,8.4-6.149h0Z" transform="translate(6911.413 1399.21)" fill="#ff887c" opacity="0.08"/>
      </g>
      <g id="Grupo_88488" data-name="Grupo 88488" transform="translate(28.177 3.132)">
        <g id="Grupo_88478" data-name="Grupo 88478">
          <path id="Trazado_145365" data-name="Trazado 145365" d="M-6794.761-1459.114l-6.358-43.283a47.888,47.888,0,0,0-4.007-13.343l3.453-.555s-2.423-35.131-41.825-26.743a47.932,47.932,0,0,0-11.913.259h0a35.033,35.033,0,0,0-29.567,39.752l3.708,25.232a35.031,35.031,0,0,0,39.75,29.567l43.408-6.378A3.971,3.971,0,0,0-6794.761-1459.114Z" transform="translate(6885.356 1544.332)" fill="#1b1b25"/>
          <path id="Trazado_145366" data-name="Trazado 145366" d="M-6816.606-1517.273a.467.467,0,0,1-.463-.4.469.469,0,0,1,.4-.529l12.671-1.73a.377.377,0,0,0,.254-.153.348.348,0,0,0,.063-.268c-2.047-11.422-12.569-16.69-12.675-16.742a.468.468,0,0,1-.215-.626.469.469,0,0,1,.626-.215c.11.053,11.054,5.52,13.189,17.418a1.277,1.277,0,0,1-.229.985,1.32,1.32,0,0,1-.885.531l-12.671,1.731A.54.54,0,0,1-6816.606-1517.273Z" transform="translate(6881.062 1543.933)" fill="#fcf0e3"/>
        </g>
        <g id="Grupo_88480" data-name="Grupo 88480" transform="translate(16.204 22.288)">
          <g id="Grupo_88479" data-name="Grupo 88479">
            <path id="Trazado_145367" data-name="Trazado 145367" d="M-6807.607-1513.67l-34.684,5.572-8.418-12.45c1.655,13.891-8.589,22.864-8.589,22.864s-.105-.143-.288-.406l-.287.053a10.07,10.07,0,0,0-8.021,11.717h0a10.067,10.067,0,0,0,11.715,8.021l.663-.124a25.828,25.828,0,0,0,7.507,13.138v22.229a14.368,14.368,0,0,0,14.326,14.327h0a14.37,14.37,0,0,0,14.328-14.327v-17.555a26.006,26.006,0,0,0,12.724-12.761l.017-.026a25.622,25.622,0,0,0,3.2-17.9Z" transform="translate(6868.065 1520.548)" fill="#fec29e"/>
          </g>
          <path id="Trazado_145368" data-name="Trazado 145368" d="M-6823.123-1458.481h0a25.727,25.727,0,0,1-29.19-17.308c-.129-.4-2.393.122-2.336.365a25.82,25.82,0,0,0,7.552,13.007,14.37,14.37,0,0,0,14.258,13.006h0a14.352,14.352,0,0,0,12.689-7.719,25.977,25.977,0,0,0,14.379-13.464A25.664,25.664,0,0,1-6823.123-1458.481Z" transform="translate(6867.222 1517.742)" fill="#ff887c" opacity="0.32"/>
        </g>
        <g id="Grupo_88487" data-name="Grupo 88487" transform="translate(22.051 33.836)">
          <path id="Trazado_145369" data-name="Trazado 145369" d="M-6860.53-1483.017a.465.465,0,0,1-.37-.182.466.466,0,0,1,.081-.656l3.117-2.418-3.976-3.753a.467.467,0,0,1-.02-.662.469.469,0,0,1,.662-.019l4.375,4.129a.47.47,0,0,1,.146.363.47.47,0,0,1-.181.348l-3.549,2.753A.46.46,0,0,1-6860.53-1483.017Z" transform="translate(6861.826 1507.132)" fill="#fb8e77"/>
          <g id="Grupo_88486" data-name="Grupo 88486" transform="translate(24.156)">
            <g id="Grupo_88485" data-name="Grupo 88485">
              <g id="Grupo_88484" data-name="Grupo 88484" transform="translate(1.472)">
                <g id="Grupo_88483" data-name="Grupo 88483">
                  <g id="Grupo_88481" data-name="Grupo 88481" transform="translate(0 3.393)">
                    <path id="Trazado_145370" data-name="Trazado 145370" d="M-6833.855-1500.966a3.3,3.3,0,0,0,1.278-.486c.428-.232.864-.454,1.248-.633s.836-.372,1.29-.551a3.283,3.283,0,0,0,1.192-.665c.265-.294.213-.759-.408-1.069a3.771,3.771,0,0,0-3.079.21,3.665,3.665,0,0,0-2.108,2.208C-6834.589-1501.283-6834.255-1500.95-6833.855-1500.966Z" transform="translate(6834.478 1504.605)" fill="#1b1b25"/>
                  </g>
                  <g id="Grupo_88482" data-name="Grupo 88482" transform="translate(19.754)">
                    <path id="Trazado_145371" data-name="Trazado 145371" d="M-6807.67-1505.518a3.308,3.308,0,0,1-1.362-.113c-.476-.1-.957-.2-1.377-.263s-.9-.126-1.389-.172a3.277,3.277,0,0,1-1.33-.309c-.337-.21-.415-.67.1-1.141a3.77,3.77,0,0,1,3.016-.649,3.654,3.654,0,0,1,2.636,1.539C-6807.053-1506.025-6807.282-1505.614-6807.67-1505.518Z" transform="translate(6813.398 1508.226)" fill="#1b1b25"/>
                  </g>
                </g>
              </g>
              <path id="Trazado_145372" data-name="Trazado 145372" d="M-6822.711-1480.289a9.231,9.231,0,0,1-6.442-3.056.468.468,0,0,1,.062-.659.468.468,0,0,1,.659.059c.15.178,3.7,4.331,8.674,2.038a.466.466,0,0,1,.62.23.468.468,0,0,1-.228.621A7.912,7.912,0,0,1-6822.711-1480.289Z" transform="translate(6835.623 1506.709)" fill="#fb8e77"/>
              <path id="Trazado_145373" data-name="Trazado 145373" d="M-6819.317-1487.967a.468.468,0,0,1-.459-.379.467.467,0,0,1,.368-.55l3.3-.648a3.79,3.79,0,0,0,2.983-4.445,1.37,1.37,0,0,0-1.605-1.078,3.2,3.2,0,0,1-3.758-2.522l-.8-4.042a.47.47,0,0,1,.37-.551.471.471,0,0,1,.55.37l.8,4.043a2.268,2.268,0,0,0,2.658,1.783,2.292,2.292,0,0,1,1.729.347,2.289,2.289,0,0,1,.976,1.469,4.727,4.727,0,0,1-3.721,5.546l-3.3.648A.429.429,0,0,1-6819.317-1487.967Z" transform="translate(6835.026 1507.846)" fill="#fb8e77"/>
              <path id="Trazado_145374" data-name="Trazado 145374" d="M-6829.36-1492.532h0a1.163,1.163,0,0,1-1.351-.926l-.26-1.383a1.164,1.164,0,0,1,.927-1.354h0a1.164,1.164,0,0,1,1.354.927l.258,1.382A1.164,1.164,0,0,1-6829.36-1492.532Z" transform="translate(6835.733 1507.47)" fill="#1b1b25"/>
              <path id="Trazado_145375" data-name="Trazado 145375" d="M-6808.389-1495.939h0a1.162,1.162,0,0,1-1.352-.926l-.259-1.383a1.163,1.163,0,0,1,.927-1.353h0a1.164,1.164,0,0,1,1.354.925l.257,1.383A1.162,1.162,0,0,1-6808.389-1495.939Z" transform="translate(6834.411 1507.684)" fill="#1b1b25"/>
              <path id="Trazado_145376" data-name="Trazado 145376" d="M-6830.5-1486.9l-3.958.445a1.441,1.441,0,0,1-1.586-1.266h0a1.441,1.441,0,0,1,1.267-1.588l3.956-.445a1.44,1.44,0,0,1,1.588,1.267h0A1.44,1.44,0,0,1-6830.5-1486.9Z" transform="translate(6836.049 1507.064)" fill="#ff887c" opacity="0.17"/>
              <path id="Trazado_145377" data-name="Trazado 145377" d="M-6802.1-1491.376l-3.957.445a1.442,1.442,0,0,1-1.588-1.266h0a1.44,1.44,0,0,1,1.268-1.587l3.957-.445a1.442,1.442,0,0,1,1.588,1.266h0A1.442,1.442,0,0,1-6802.1-1491.376Z" transform="translate(6834.264 1507.346)" fill="#ff887c" opacity="0.17"/>
              <path id="Trazado_145378" data-name="Trazado 145378" d="M-6814.561-1469.26a.465.465,0,0,1-.275-.09,3.406,3.406,0,0,0-3.839.005.47.47,0,0,1-.652-.116.467.467,0,0,1,.114-.651,4.321,4.321,0,0,1,4.929,0,.47.47,0,0,1,.1.655A.468.468,0,0,1-6814.561-1469.26Z" transform="translate(6835.002 1505.877)" fill="#fb8e77"/>
            </g>
          </g>
        </g>
      </g>
    </g>
  </g>
</svg>
