<svg xmlns="http://www.w3.org/2000/svg" width="108" height="108" viewBox="0 0 108 108">
  <g id="Grupo_107626" data-name="Grupo 107626" transform="translate(-485 -2160)">
    <circle id="Elipse_5076" data-name="Elipse 5076" cx="54" cy="54" r="54" transform="translate(485 2160)" fill="#3e2ea6"/>
    <g id="Grupo_107436" data-name="Grupo 107436" transform="translate(-408.854 1772.346)">
      <g id="Grupo_107435" data-name="Grupo 107435" transform="translate(901.853 415.655)">
        <path id="Trazado_149904" data-name="Trazado 149904" d="M933.293,422.63c.782,0,1.564,0,2.345,0,.107,0,.233-.025.308.083s-.035.183-.094.237a19.32,19.32,0,0,0-3.407,5.025c-.82,1.451-1.79,2.82-2.488,4.336a5.527,5.527,0,0,0-.516,3.7,4.781,4.781,0,0,0,1.768,2.589,6.087,6.087,0,0,0,4.388,1.41,7.635,7.635,0,0,0,3.8-1.525,20.677,20.677,0,0,0,4.756-4.913c.445-.613.541-.659,1.272-.5.635.138,1.285.164,1.924.323a16.447,16.447,0,0,1,4.355,1.883c2.26,1.327,4.539,2.62,6.811,3.928q3.882,2.234,7.763,4.47c1.375.794,2.757,1.576,4.115,2.4a4.692,4.692,0,0,1,2.35,4.942,4.779,4.779,0,0,1-3.653,4.025,4.581,4.581,0,0,1-2.35.033c-.161-.046-.247-.006-.266.161a4.7,4.7,0,0,1-1.214,2.44,4.337,4.337,0,0,1-2.3,1.365,4.908,4.908,0,0,1-2.5.075c-.317-.078-.266.2-.312.358a4.986,4.986,0,0,1-2.135,3,4.773,4.773,0,0,1-4.944.233c-.268-.137-.326-.146-.426.177a4.859,4.859,0,0,1-3.671,3.577,5.329,5.329,0,0,1-4.257-.912c-.4-.258-.555-.4-.338-.939a6.081,6.081,0,0,0-2.244-7.46,1.718,1.718,0,0,0-.615-.347c-.69-.127-.88-.621-.994-1.2a5.557,5.557,0,0,0-.926-2.026,6.727,6.727,0,0,0-.623-.98,2.978,2.978,0,0,0-1.256-.753,2.2,2.2,0,0,1-1.431-1.651,5.574,5.574,0,0,0-3.946-4,4.5,4.5,0,0,0-2.814-.205c-.444.153-.718.026-.982-.434A6.042,6.042,0,0,0,921.8,442.7a9.239,9.239,0,0,0-2.521,1.22c-.735.446-.71.437-1.053-.318a4.181,4.181,0,0,1,.328-4.05c1.945-3.371,3.86-6.761,5.8-10.134.841-1.457,1.588-2.973,2.546-4.359a5.456,5.456,0,0,1,4.811-2.427C932.24,422.633,932.767,422.629,933.293,422.63Z" transform="translate(-901.165 -415.354)" fill="#dad6f7" fill-rule="evenodd"/>
        <path id="Trazado_149905" data-name="Trazado 149905" d="M953.5,422.631c3,0,6,.047,8.994-.014a6.262,6.262,0,0,1,6.012,3.518c1.917,3.423,3.918,6.8,5.865,10.207a28.75,28.75,0,0,1,1.409,2.538,3.464,3.464,0,0,1-1.184,4.512c-.448.349-.968.608-1.451.913a.549.549,0,0,1-.625-.036q-4.312-2.492-8.626-4.976-4.63-2.655-9.269-5.292c-1.228-.7-2.438-1.435-3.686-2.1a15.966,15.966,0,0,0-3.982-1.41,19.615,19.615,0,0,0-4.087-.3.825.825,0,0,0-.774.437,23.731,23.731,0,0,1-3.612,4.422,8.156,8.156,0,0,1-2.613,1.721,3.534,3.534,0,0,1-2.7.051,2.253,2.253,0,0,1-1.191-3.336c.994-1.845,2.014-3.677,3.108-5.468a12.117,12.117,0,0,1,2.251-2.995,9.01,9.01,0,0,1,3.672-1.935,16.657,16.657,0,0,1,4.3-.458Q949.414,422.636,953.5,422.631Z" transform="translate(-900.57 -415.355)" fill="#dad6f7" fill-rule="evenodd"/>
        <path id="Trazado_149906" data-name="Trazado 149906" d="M936.463,453.374a3.361,3.361,0,0,1,1.211,4.235,1.2,1.2,0,0,0-.149.564,5.844,5.844,0,0,1,1.657-.139,3.3,3.3,0,0,1,1.46,6.045c-.9.534-1.787,1.091-2.734,1.546a4.9,4.9,0,0,1-6.036-1.689c-.243-.371-.311-.975-.693-1.092a9.257,9.257,0,0,0-1.257-.127,4.588,4.588,0,0,1-3.28-2.087c-.026-.039-.071-.068-.088-.109-.308-.813-.913-.953-1.744-1.051a4.916,4.916,0,0,1-4.372-4.817.594.594,0,0,0-.284-.557,4.9,4.9,0,0,1,.192-8.55,13.526,13.526,0,0,1,1.888-1.008,3.783,3.783,0,0,1,4.553,1.643,9,9,0,0,1,.526,2.337c.006.046-.034.087-.047.131,0,.009.015.025.041.067.871-.248.586.007,1.432-.484a3.33,3.33,0,0,1,3.919.258,3.292,3.292,0,0,1,.951,3.767,3.008,3.008,0,0,1-.337.8,5,5,0,0,1,1.766-.19Z" transform="translate(-901.169 -414.42)" fill="#dad6f7" fill-rule="evenodd"/>
        <path id="Trazado_149907" data-name="Trazado 149907" d="M975.7,415.879l-7.236,4.177a1.67,1.67,0,0,0-.612,2.282l13.786,23.878a1.671,1.671,0,0,0,2.282.611l7.236-4.177a1.671,1.671,0,0,0,.611-2.283L977.983,416.49A1.67,1.67,0,0,0,975.7,415.879Zm10.167,25.966a2.089,2.089,0,1,1,.765-2.854A2.088,2.088,0,0,1,985.868,441.845Z" transform="translate(-899.021 -415.655)" fill="#dad6f7" fill-rule="evenodd"/>
        <path id="Trazado_149908" data-name="Trazado 149908" d="M915.863,416.49l-13.786,23.877a1.672,1.672,0,0,0,.612,2.283l7.236,4.177a1.671,1.671,0,0,0,2.282-.611l13.785-23.878a1.67,1.67,0,0,0-.611-2.282l-7.236-4.177A1.67,1.67,0,0,0,915.863,416.49Zm-8.65,22.5a2.089,2.089,0,1,1,.765,2.854A2.089,2.089,0,0,1,907.213,438.991Z" transform="translate(-901.853 -415.655)" fill="#dad6f7" fill-rule="evenodd"/>
      </g>
    </g>
  </g>
</svg>
