<svg xmlns="http://www.w3.org/2000/svg" xmlns:xlink="http://www.w3.org/1999/xlink" width="610" height="351.77" viewBox="0 0 610 351.77">
  <defs>
    <clipPath id="clip-path">
      <circle id="Elipse_5039" data-name="Elipse 5039" cx="27.168" cy="27.168" r="27.168" transform="translate(0 38.421) rotate(-45)" fill="none"/>
    </clipPath>
    <clipPath id="clip-path-2">
      <circle id="Elipse_5042" data-name="Elipse 5042" cx="16.932" cy="16.932" r="16.932" transform="translate(0 13.331) rotate(-23.182)" fill="none"/>
    </clipPath>
    <clipPath id="clip-path-3">
      <circle id="Elipse_5045" data-name="Elipse 5045" cx="10.562" cy="10.562" r="10.562" transform="translate(0 2.54) rotate(-6.907)" fill="none"/>
    </clipPath>
    <clipPath id="clip-path-4">
      <circle id="Elipse_5048" data-name="Elipse 5048" cx="7.891" cy="7.891" r="7.891" transform="translate(0 13.418) rotate(-58.23)" fill="none"/>
    </clipPath>
    <clipPath id="clip-path-5">
      <circle id="Elipse_5050" data-name="Elipse 5050" cx="7.891" cy="7.891" r="7.891" transform="matrix(0.67, -0.742, 0.742, 0.67, 0, 11.71)" fill="none"/>
    </clipPath>
  </defs>
  <g id="Grupo_107241" data-name="Grupo 107241" transform="translate(-170 -582.23)">
    <path id="Trazado_147969" data-name="Trazado 147969" d="M184.987,76.353V11.94a173.058,173.058,0,1,0,0,346.116V293.644a108.636,108.636,0,0,1,0-217.273Z" transform="translate(268.08 575.944)" fill="#d8d5ed"/>
    <path id="Trazado_147970" data-name="Trazado 147970" d="M200,358.055A173.067,173.067,0,0,0,200,11.92V76.333a108.636,108.636,0,0,1,0,217.273Z" transform="translate(253.067 575.945)" fill="#cfccd9"/>
    <g id="Grupo_107240" data-name="Grupo 107240" transform="translate(-599 -9.77)">
      <g id="Grupo_107239" data-name="Grupo 107239" transform="translate(4561.064 1370.097)">
        <g id="Grupo_107202" data-name="Grupo 107202" transform="translate(-3432.642 -752.475)">
          <path id="Trazado_149388" data-name="Trazado 149388" d="M-3264.632-456.7l147.042,5.154a4.336,4.336,0,0,0,4.345-3.75l35.137-287.573a3.517,3.517,0,0,0-3.395-4.022l-147.043-5.154a4.337,4.337,0,0,0-4.344,3.751l-35.137,287.572A3.516,3.516,0,0,0-3264.632-456.7Z" transform="translate(3272.349 752.053)" fill="#4f1a72"/>
          <path id="Trazado_149389" data-name="Trazado 149389" d="M-3271.164-456.611l147.042,5.154a4.336,4.336,0,0,0,4.345-3.75l35.137-287.573a3.518,3.518,0,0,0-3.4-4.022l-147.043-5.154a4.337,4.337,0,0,0-4.344,3.751l-35.137,287.572A3.517,3.517,0,0,0-3271.164-456.611Z" transform="translate(3274.588 752.02)" fill="#5e4d9f"/>
          <path id="Trazado_149390" data-name="Trazado 149390" d="M-3220.406-739.581l22.117.776a4.183,4.183,0,0,0-.764,1.924l-.633,5.181a3.517,3.517,0,0,0,3.395,4.022l76.1,2.667a4.335,4.335,0,0,0,4.344-3.75l.634-5.181a3.674,3.674,0,0,0-.29-1.962l22.117.776a5.566,5.566,0,0,1,5.388,6.383l-31.811,260.353a6.861,6.861,0,0,1-6.9,5.953l-127.021-4.452a5.567,5.567,0,0,1-5.388-6.383l31.812-260.353A6.861,6.861,0,0,1-3220.406-739.581Z" transform="translate(3269.3 747.78)" fill="#dad6f7"/>
          <rect id="Rectángulo_35249" data-name="Rectángulo 35249" width="6.598" height="6.598" rx="3.299" transform="translate(145.321 18.157) rotate(-180)" fill="#4f1a72"/>
          <path id="Trazado_149391" data-name="Trazado 149391" d="M-3155.861-731.892l55.177,2.158a1.683,1.683,0,0,0,1.742-1.611h0a1.683,1.683,0,0,0-1.611-1.742l-55.178-2.158a1.682,1.682,0,0,0-1.741,1.611h0A1.683,1.683,0,0,0-3155.861-731.892Z" transform="translate(3234.449 746.293)" fill="#4f1a72"/>
        </g>
        <g id="Grupo_107220" data-name="Grupo 107220" transform="translate(-3735.756 -753.285)">
          <path id="Trazado_149392" data-name="Trazado 149392" d="M-3549.2-457.937l-147.043,5.154a4.337,4.337,0,0,1-4.344-3.751l-35.137-287.572a3.517,3.517,0,0,1,3.4-4.022l147.043-5.154a4.336,4.336,0,0,1,4.344,3.75l35.137,287.573A3.517,3.517,0,0,1-3549.2-457.937Z" transform="translate(3735.756 753.285)" fill="#4f1a72"/>
          <path id="Trazado_149393" data-name="Trazado 149393" d="M-3542.671-457.844l-147.043,5.154a4.335,4.335,0,0,1-4.344-3.75L-3729.2-744.013a3.517,3.517,0,0,1,3.4-4.022l147.042-5.154a4.336,4.336,0,0,1,4.344,3.75l35.137,287.573A3.516,3.516,0,0,1-3542.671-457.844Z" transform="translate(3733.517 753.252)" fill="#5e4d9f"/>
          <path id="Trazado_149394" data-name="Trazado 149394" d="M-3583.642-740.813l-22.117.775a4.181,4.181,0,0,1,.764,1.925l.633,5.181a3.516,3.516,0,0,1-3.394,4.022l-76.1,2.667a4.335,4.335,0,0,1-4.344-3.75l-.634-5.181a3.679,3.679,0,0,1,.29-1.961l-22.117.775a5.566,5.566,0,0,0-5.387,6.383l31.811,260.352a6.861,6.861,0,0,0,6.9,5.953l127.021-4.452a5.567,5.567,0,0,0,5.388-6.383l-31.811-260.353A6.861,6.861,0,0,0-3583.642-740.813Z" transform="translate(3729.019 749.012)" fill="#dad6f7"/>
          <rect id="Rectángulo_35250" data-name="Rectángulo 35250" width="6.598" height="6.598" rx="3.299" transform="translate(48.949 11.558)" fill="#4f1a72"/>
          <path id="Trazado_149395" data-name="Trazado 149395" d="M-3589.434-733.125l-55.177,2.159a1.684,1.684,0,0,1-1.742-1.612h0a1.683,1.683,0,0,1,1.611-1.742l55.178-2.159a1.682,1.682,0,0,1,1.742,1.611h0A1.683,1.683,0,0,1-3589.434-733.125Z" transform="translate(3705.116 747.525)" fill="#4f1a72"/>
          <g id="Grupo_107213" data-name="Grupo 107213" transform="translate(47.466 51.62)">
            <g id="Grupo_107203" data-name="Grupo 107203" transform="translate(8.065 53.761)">
              <rect id="Rectángulo_35251" data-name="Rectángulo 35251" width="15.328" height="49.125" rx="7.664" transform="matrix(0.993, -0.118, 0.118, 0.993, 0, 33.632)" fill="#8a7cbf"/>
              <rect id="Rectángulo_35252" data-name="Rectángulo 35252" width="14.346" height="65.667" rx="2.88" transform="matrix(0.993, -0.118, 0.118, 0.993, 20.29, 14.558)" fill="#8a7cbf"/>
              <rect id="Rectángulo_35253" data-name="Rectángulo 35253" width="15.132" height="75.859" rx="2.88" transform="translate(41.331 1.789) rotate(-6.789)" fill="#8a7cbf"/>
            </g>
            <g id="Grupo_107212" data-name="Grupo 107212" transform="translate(0 2.96)">
              <g id="Grupo_107207" data-name="Grupo 107207" transform="translate(0.853 1.495)">
                <g id="Grupo_107204" data-name="Grupo 107204" transform="translate(0 70.849)">
                  <path id="Trazado_149396" data-name="Trazado 149396" d="M-3661.793-559.136l-.449-.68.249-.363.449.68Z" transform="translate(3662.242 560.179)" fill="#8a7cbf"/>
                </g>
                <g id="Grupo_107205" data-name="Grupo 107205" transform="translate(0.747 1.093)">
                  <path id="Trazado_149397" data-name="Trazado 149397" d="M-3660.657-596.6l-.449-.68.5-.728.448.68Zm1-1.456-.449-.68.5-.728.449.68Zm1-1.456-.449-.68.5-.728.449.68Zm1-1.456-.448-.68.5-.728.449.68Zm1-1.456-.449-.68.5-.728.449.68Zm1-1.456-.449-.68.5-.728.449.68Zm1-1.455-.449-.68.5-.728.449.68Zm1-1.456-.449-.68.5-.728.449.68Zm1-1.456-.449-.68.5-.728.449.68Zm1-1.456-.449-.68.5-.728.449.68Zm1-1.456-.449-.68.5-.728.449.68Zm1-1.456-.45-.68.5-.728.449.68Zm1-1.455-.449-.681.5-.728.45.68Zm1-1.456-.449-.681.5-.728.449.68Zm1-1.456-.449-.68.5-.728.449.68Zm1-1.456-.449-.68.5-.728.449.68Zm1-1.456-.449-.68.5-.728.449.681Zm1-1.456-.449-.68.5-.728.449.68Zm1-1.456-.449-.68.5-.728.449.68Zm1-1.456-.449-.68.5-.728.449.68Zm1-1.455-.448-.681.5-.728.449.68Zm1-1.456-.449-.68.5-.728.449.68Zm1-1.456-.449-.68.5-.728.449.68Zm1-1.456-.449-.68.5-.728.449.68Zm.938-1.076-.133-.9.717-.132.133.9Zm1.435-.264-.134-.9.718-.132.133.9Zm1.435-.264-.134-.9.718-.132.133.9Zm1.435-.264-.133-.9.718-.131.133.9Zm1.435-.264-.133-.9.717-.132.134.9Zm1.435-.264-.133-.9.717-.131.133.9Zm1.435-.264-.133-.9.718-.132.133.9Zm1.435-.264-.133-.9.717-.131.134.9Zm1.435-.264-.133-.9.717-.132.134.9Zm1.435-.264-.133-.9.717-.132.133.9Zm1.436-.264-.134-.9.717-.132.134.9Zm1.553-.486-.45-.68.5-.729.45.68Zm.995-1.458-.449-.68.5-.729.449.68Zm1-1.458-.45-.68.5-.729.45.68Zm.995-1.458-.449-.68.5-.729.449.68Zm1-1.458-.449-.68.5-.729.449.68Zm1-1.458-.449-.68.5-.729.449.68Zm1-1.458-.449-.68.5-.729.45.68Zm.995-1.458-.449-.68.5-.729.45.68Zm1-1.459-.45-.68.5-.729.449.68Zm1-1.458-.45-.68.5-.729.45.68Zm.995-1.458-.449-.68.5-.729.45.68Zm1-1.458-.449-.68.5-.729.449.68Zm1-1.458-.449-.68.5-.729.449.679Zm1-1.458-.449-.68.5-.729.449.68Zm.995-1.458-.449-.68.5-.729.449.68Zm1-1.458-.45-.68.5-.729.449.68Zm1-1.458-.449-.68.5-.729.45.68Zm1-1.458-.449-.68.5-.729.45.68Zm.995-1.459-.449-.68.5-.729.449.68Zm1-1.458-.45-.68.5-.729.45.68Zm1-1.458-.449-.68.5-.729.449.68Zm.995-1.458-.449-.68.5-.729.45.68Z" transform="translate(3661.106 666.309)" fill="#8a7cbf"/>
                </g>
                <g id="Grupo_107206" data-name="Grupo 107206" transform="translate(62.412)">
                  <path id="Trazado_149398" data-name="Trazado 149398" d="M-3566.837-666.928l-.449-.68.248-.363.449.68Z" transform="translate(3567.286 667.971)" fill="#8a7cbf"/>
                </g>
              </g>
              <g id="Grupo_107208" data-name="Grupo 107208" transform="translate(23.905 35.07)">
                <ellipse id="Elipse_5035" data-name="Elipse 5035" cx="1.592" cy="2.403" rx="1.592" ry="2.403" transform="translate(0 0.376) rotate(-6.789)" fill="#8a7cbf"/>
              </g>
              <g id="Grupo_107209" data-name="Grupo 107209" transform="translate(0 69.923)">
                <path id="Trazado_149399" data-name="Trazado 149399" d="M-3660.35-560.83c-.151,1.274-.981,2.022-1.855,1.669a2.867,2.867,0,0,1-1.31-2.946c.151-1.274.981-2.021,1.855-1.669A2.866,2.866,0,0,1-3660.35-560.83Z" transform="translate(3663.539 563.863)" fill="#8a7cbf"/>
              </g>
              <g id="Grupo_107210" data-name="Grupo 107210" transform="translate(39.802 31.955)">
                <ellipse id="Elipse_5036" data-name="Elipse 5036" cx="1.592" cy="2.403" rx="1.592" ry="2.403" transform="translate(0 0.376) rotate(-6.789)" fill="#8a7cbf"/>
              </g>
              <g id="Grupo_107211" data-name="Grupo 107211" transform="translate(62.135)">
                <path id="Trazado_149400" data-name="Trazado 149400" d="M-3565.816-667.213c-.15,1.274-.981,2.022-1.855,1.669a2.867,2.867,0,0,1-1.31-2.946c.15-1.274.982-2.021,1.856-1.669A2.865,2.865,0,0,1-3565.816-667.213Z" transform="translate(3569.005 670.246)" fill="#8a7cbf"/>
              </g>
            </g>
            <path id="Trazado_149401" data-name="Trazado 149401" d="M-3533-644.322l-19.842-30.427-12.142,34.234,8.716-1.038,11.233,94.358,14.552-1.732-11.233-94.358Z" transform="translate(3629.76 674.749)" fill="#8a7cbf"/>
          </g>
          <g id="Grupo_107215" data-name="Grupo 107215" transform="translate(385.322 95.314)" opacity="0.66">
            <g id="Grupo_107214" data-name="Grupo 107214" transform="translate(0 0)" clip-path="url(#clip-path)">
              <circle id="Elipse_5037" data-name="Elipse 5037" cx="26.756" cy="26.756" r="26.756" transform="translate(0.554 38.831) rotate(-45)" fill="#198eb7"/>
              <circle id="Elipse_5038" data-name="Elipse 5038" cx="19.552" cy="19.552" r="19.552" transform="translate(11.897 45.774) rotate(-59.951)" fill="#29a9e1"/>
              <path id="Trazado_149402" data-name="Trazado 149402" d="M-3088.479-554.589a4.744,4.744,0,0,0-1.447-1.881,15.531,15.531,0,0,0-2.909-1.762,21.084,21.084,0,0,1-2.828-1.537,1.47,1.47,0,0,1-.7-1.337,1.326,1.326,0,0,1,.861-1.161,4.392,4.392,0,0,1,2.117-.28,10.36,10.36,0,0,1,4.743,1.587l.291-4.23a11.141,11.141,0,0,0-2.56-1.053,14.4,14.4,0,0,0-1.933-.37l.3-4.4-3.269-.225-.313,4.567a8.209,8.209,0,0,0-1.693.4,5.967,5.967,0,0,0-2.688,1.817,4.913,4.913,0,0,0-1.114,2.857,4.908,4.908,0,0,0,.97,3.439,10.578,10.578,0,0,0,3.677,2.747q1.458.732,2.144,1.134a3.487,3.487,0,0,1,1.024.851,1.47,1.47,0,0,1,.3,1.021,1.3,1.3,0,0,1-.762,1.127,4,4,0,0,1-2.047.271,13.07,13.07,0,0,1-3.017-.59,13.529,13.529,0,0,1-2.991-1.357l-.3,4.339a10.69,10.69,0,0,0,2.855,1.142,18.9,18.9,0,0,0,2.293.452l-.284,4.123,3.27.224.288-4.2a7.6,7.6,0,0,0,3.83-1.111,4.941,4.941,0,0,0,2.208-4A5.886,5.886,0,0,0-3088.479-554.589Z" transform="translate(3133.443 595.58)" fill="#198eb7"/>
            </g>
          </g>
          <g id="Grupo_107217" data-name="Grupo 107217" transform="translate(367.89 58.903)" opacity="0.66">
            <g id="Grupo_107216" data-name="Grupo 107216" transform="translate(0 0)" clip-path="url(#clip-path-2)">
              <circle id="Elipse_5040" data-name="Elipse 5040" cx="16.675" cy="16.675" r="16.675" transform="matrix(0.842, -0.539, 0.539, 0.842, -0.806, 17.427)" fill="#198eb7"/>
              <circle id="Elipse_5041" data-name="Elipse 5041" cx="12.186" cy="12.186" r="12.186" transform="translate(5.124 22.36) rotate(-45)" fill="#29a9e1"/>
              <path id="Trazado_149403" data-name="Trazado 149403" d="M-3140.354-633.037a2.949,2.949,0,0,0-.968-1.118,9.7,9.7,0,0,0-1.874-.992,13.086,13.086,0,0,1-1.815-.854.915.915,0,0,1-.487-.806.828.828,0,0,1,.494-.754,2.739,2.739,0,0,1,1.307-.25,6.461,6.461,0,0,1,3.009.816l.028-2.642a6.983,6.983,0,0,0-1.631-.563,8.981,8.981,0,0,0-1.216-.16l.029-2.751-2.043-.022-.03,2.853a5.129,5.129,0,0,0-1.039.308,3.72,3.72,0,0,0-1.607,1.227,3.066,3.066,0,0,0-.59,1.818,3.059,3.059,0,0,0,.728,2.1,6.6,6.6,0,0,0,2.387,1.577q.933.4,1.375.628a2.177,2.177,0,0,1,.668.492.924.924,0,0,1,.223.625.81.81,0,0,1-.434.728,2.5,2.5,0,0,1-1.265.243,8.209,8.209,0,0,1-1.9-.258,8.419,8.419,0,0,1-1.91-.736l-.028,2.71a6.681,6.681,0,0,0,1.817.607,11.818,11.818,0,0,0,1.443.2l-.028,2.576,2.043.021.028-2.621a4.75,4.75,0,0,0,2.344-.829,3.08,3.08,0,0,0,1.228-2.57A3.653,3.653,0,0,0-3140.354-633.037Z" transform="translate(3166.749 656.63)" fill="#198eb7"/>
            </g>
          </g>
          <g id="Grupo_107219" data-name="Grupo 107219" transform="translate(430.454 53.668)" opacity="0.66">
            <g id="Grupo_107218" data-name="Grupo 107218" transform="translate(0 0)" clip-path="url(#clip-path-3)">
              <circle id="Elipse_5043" data-name="Elipse 5043" cx="10.402" cy="10.402" r="10.402" transform="matrix(0.552, -0.834, 0.834, 0.552, -2.687, 14.847)" fill="#198eb7"/>
              <circle id="Elipse_5044" data-name="Elipse 5044" cx="7.601" cy="7.601" r="7.601" transform="matrix(0.542, -0.84, 0.84, 0.542, 1.311, 14.111)" fill="#29a9e1"/>
              <path id="Trazado_149404" data-name="Trazado 149404" d="M-3062.253-655.342a1.845,1.845,0,0,0-.483-.787,6,6,0,0,0-1.053-.8,8.306,8.306,0,0,1-1.03-.71.573.573,0,0,1-.218-.546.516.516,0,0,1,.381-.413,1.71,1.71,0,0,1,.83-.021,4.03,4.03,0,0,1,1.769.807l.286-1.623a4.278,4.278,0,0,0-.947-.512,5.541,5.541,0,0,0-.732-.222l.3-1.69-1.255-.221-.308,1.753a3.16,3.16,0,0,0-.67.084,2.312,2.312,0,0,0-1.113.592,1.911,1.911,0,0,0-.548,1.059,1.908,1.908,0,0,0,.234,1.369,4.1,4.1,0,0,0,1.309,1.213q.533.343.782.526a1.362,1.362,0,0,1,.361.371.571.571,0,0,1,.074.407.5.5,0,0,1-.341.4,1.555,1.555,0,0,1-.8.021,5.081,5.081,0,0,1-1.142-.352,5.232,5.232,0,0,1-1.1-.647l-.292,1.666a4.159,4.159,0,0,0,1.057.558,7.377,7.377,0,0,0,.868.269l-.278,1.583,1.255.22.283-1.61a2.955,2.955,0,0,0,1.526-.272,1.922,1.922,0,0,0,1.018-1.457A2.282,2.282,0,0,0-3062.253-655.342Z" transform="translate(3076.433 668.359)" fill="#198eb7"/>
            </g>
          </g>
        </g>
        <g id="Grupo_107238" data-name="Grupo 107238" transform="translate(-3670.366 -750.496)">
          <path id="Trazado_149405" data-name="Trazado 149405" d="M-3421.39-452.129c1.371-.16,17.836.415,17.836.415l21.476,7.771c1.73.765,1.135,4.408-.333,5.6a1.813,1.813,0,0,1-.638.346c-1.613.467-2.5,4.74-4.875,5.851a36.4,36.4,0,0,0-3.579,2.04,7.15,7.15,0,0,1-5.841.8l-23.83-6.734-9.336-1.409Z" transform="translate(3565.751 647.292)" fill="#df8867"/>
          <path id="Trazado_149406" data-name="Trazado 149406" d="M-3277.567-598.67l-42.946,55.818L-3360.1-513.19a4.372,4.372,0,0,0-1.189,5.641,28.767,28.767,0,0,0,6.638,8.2,6.627,6.627,0,0,0,7.832.373l40.849-27.163c3.336.081,39.335-46.6,39.335-46.6Z" transform="translate(3542.218 697.505)" fill="#cdd0d7"/>
          <g id="Grupo_107232" data-name="Grupo 107232" transform="translate(0 0.872)">
            <path id="Trazado_149407" data-name="Trazado 149407" d="M-3499.734-588.024a17.64,17.64,0,0,1,4.706,10.725c1.071,12.982,4.227,53.205,3.06,62.59-1.4,11.233-44.206,51.752-44.206,51.752s-15.568-7.269-14.44-13.468l34.932-47-3.538-53.735a13.653,13.653,0,0,1,7.827-13.359C-3507.915-592.1-3503.748-592.248-3499.734-588.024Z" transform="translate(3606.933 694.19)" fill="#151e39"/>
            <g id="Grupo_107224" data-name="Grupo 107224">
              <path id="Trazado_149408" data-name="Trazado 149408" d="M-3523.086-663.708s-1.09,24.283-3.567,29.163-10.128,7.957-10.128,7.957,15.232,19.565,24.665,16.61,12.739-4.724,12.739-4.724-6.388-2.3-6.552-6.253,7.471-36.2,7.471-36.2Z" transform="translate(3602.172 718.924)" fill="#df8867"/>
              <path id="Trazado_149409" data-name="Trazado 149409" d="M-3473.453-691.559s-.892,15.4-2.142,20.731-12.474,13.9-15.3,15.437-7.179.737-7.179.737-13.775-9.115-15.831-12.885-5.517-19.978-5.517-19.978-4.112-20.989-.462-26.4,14.289-16.843,27.362-13.947,17.211,4.429,18.3,14.718C-3473.745-708.618-3473.453-691.559-3473.453-691.559Z" transform="translate(3596.899 741.071)" fill="#ee9e78"/>
              <path id="Trazado_149410" data-name="Trazado 149410" d="M-3459.036-686.738l-10.206.365a1.3,1.3,0,0,1-.354-1.739c.542-1.188,7.509-2.312,9-1.489S-3458.474-687.342-3459.036-686.738Z" transform="translate(3579.206 727.895)" fill="#676767"/>
              <path id="Trazado_149411" data-name="Trazado 149411" d="M-3507.408-684.571l11.551-.412a1.474,1.474,0,0,0,.26-1.992c-.707-1.3-8.664-2-10.279-.954S-3508.092-685.207-3507.408-684.571Z" transform="translate(3592.201 727.399)" fill="#676767"/>
              <path id="Trazado_149412" data-name="Trazado 149412" d="M-3460.334-672.047c.066,1.855,1.194,3.32,2.518,3.273s2.345-1.589,2.28-3.443-1.194-3.32-2.519-3.273S-3460.4-673.9-3460.334-672.047Z" transform="translate(3575.973 722.963)" fill="#2b203d"/>
              <ellipse id="Elipse_5046" data-name="Elipse 5046" cx="2.4" cy="3.36" rx="2.4" ry="3.36" transform="translate(93.931 48.328) rotate(-2.045)" fill="#2b203d"/>
              <g id="Grupo_107221" data-name="Grupo 107221" transform="translate(106.25 40.157)">
                <path id="Trazado_149413" data-name="Trazado 149413" d="M-3474.4-664.409c1.261-.258,2.766-.685,3.205-1.708.345-.8-.033-1.79-1.156-3.014-1.951-2.128-.7-13.277-.057-17.393l-.952-.095c-.006.037-.592,3.8-.865,7.851-.371,5.515,0,8.923,1.11,10.131.9.979,1.239,1.737,1.017,2.256s-1.018.884-2.519,1.191Z" transform="translate(3474.617 686.619)" fill="#ef7a6d"/>
              </g>
              <path id="Trazado_149414" data-name="Trazado 149414" d="M-3475.988-644.775l-13.9-2.406s-1.557.1.363,2.737,9.932,3.156,9.932,3.156S-3476-642.094-3475.988-644.775Z" transform="translate(3586.304 713.26)" fill="#c0272d"/>
              <path id="Trazado_149415" data-name="Trazado 149415" d="M-3528.776-698.689s5.209-2.107,4.541-7.367.84-16.842,2.228-18.333,29.812.857,38.816-2.587l2.518,16.722.763-19s8.478-8.113,4.949-12.79-7.336-8.633-19.7-2.624c-11.657,5.665-33.308.649-40.366,5.373-8.3,5.553-6.785,11.77-6.785,11.77s2.6,19.121,6.69,25.941Z" transform="translate(3603.934 747.716)" fill="#333"/>
              <path id="Trazado_149416" data-name="Trazado 149416" d="M-3449.243-717.611l-.71,17.675-2.334-15.5Q-3450.736-716.472-3449.243-717.611Z" transform="translate(3573.214 737.398)" fill="#676767"/>
              <path id="Trazado_149417" data-name="Trazado 149417" d="M-3529.327-710.22a38.579,38.579,0,0,0,5.791,2.3,52.964,52.964,0,0,0-.62,12.552c.667,5.26-4.541,7.367-4.541,7.367l-6.348-2.9c-3.786-6.32-6.3-23.194-6.647-25.634A37.668,37.668,0,0,0-3529.327-710.22Z" transform="translate(3603.855 737.027)" fill="#676767"/>
              <path id="Trazado_149418" data-name="Trazado 149418" d="M-3538.777-426.978c-8.891,2.493-21.128,2.3-26.922-.433s-21.688-15.508-21.509-20.872l.123.19" transform="translate(3619.456 645.092)" fill="#262727"/>
              <rect id="Rectángulo_35254" data-name="Rectángulo 35254" width="2.88" height="9.121" transform="translate(49.398 216.948) rotate(-154.859)" fill="#212a4e"/>
              <rect id="Rectángulo_35255" data-name="Rectángulo 35255" width="2.88" height="9.121" transform="matrix(-0.978, 0.207, -0.207, -0.978, 79.633, 219.823)" fill="#212a4e"/>
              <rect id="Rectángulo_35256" data-name="Rectángulo 35256" width="2.88" height="9.121" transform="translate(40.173 211.477) rotate(-142.212)" fill="#212a4e"/>
              <g id="Grupo_107222" data-name="Grupo 107222" transform="translate(0 190.215)">
                <path id="Trazado_149419" data-name="Trazado 149419" d="M-3570.308-336.778l4.428.012,5.967-24.425Z" transform="translate(3613.663 425.028)" fill="none"/>
                <path id="Trazado_149420" data-name="Trazado 149420" d="M-3548.117-439.122l-46.216-19.193s-13.738,7.6-20.081,21.522c-2.5,5.484-10.325,33.911-18.834,66.611l41.369.116,10.4-24.412-5.967,24.425,31.6.089c6.2-17.515,10.805-31.282,11.729-36.033C-3540.729-423.432-3548.117-439.122-3548.117-439.122Z" transform="translate(3635.234 458.315)" fill="#8b6339"/>
                <path id="Trazado_149421" data-name="Trazado 149421" d="M-3592.083-365.877l-23.654-18.275q-3.52-3.543-6.687-7.294c-3.367,11.973-9.511,30.668-13.846,47.328l42.917-1.526,7.07-17.077Q-3589.207-364.214-3592.083-365.877Z" transform="translate(3636.27 435.397)" fill="#6d4725"/>
                <path id="Trazado_149422" data-name="Trazado 149422" d="M-3560.144-346.646l-4.023,16.255,31.9-1.085c.6-1.689,1.273-3.559,1.84-5.173A115.425,115.425,0,0,1-3560.144-346.646Z" transform="translate(3611.558 420.043)" fill="#6d4725"/>
              </g>
              <rect id="Rectángulo_35257" data-name="Rectángulo 35257" width="2.88" height="9.121" transform="matrix(-0.86, 0.509, -0.509, -0.86, 90.673, 216.559)" fill="#212a4e"/>
              <path id="Trazado_149423" data-name="Trazado 149423" d="M-3523.468-680.287s-1.859-4.978-6.091-2.425-3.015,9.714-.531,12.027,6.973,6.957,7.916,6.443a6.738,6.738,0,0,0,1.85-1.988Z" transform="translate(3600.654 725.687)" fill="#ee9e78"/>
              <path id="Trazado_149424" data-name="Trazado 149424" d="M-3519.61-601.488l-12.781,10.083-23.763-18.612-10.78,6.1s-14.545,49.681-16.015,59.18c-.9,5.84-1.842,19.82-4.223,29.5-1.6,6.525-1.128,13.055,4.619,16.534,7.229,4.376,17.151,9.605,24.677,10.606a103.022,103.022,0,0,0,18.7.416c6.763-.39-.1-10.4,1.863-16.886,5.282-17.5,21.014-48.557,21.508-61.431a246.352,246.352,0,0,1,2.783-29.643Z" transform="translate(3619.716 700.523)" fill="#d9dde9"/>
              <path id="Trazado_149425" data-name="Trazado 149425" d="M-3502.977-585.722l8.688-1.555,5.387,4.606-4.065-10.705Z" transform="translate(3590.587 694.819)" fill="#bababe"/>
              <path id="Trazado_149426" data-name="Trazado 149426" d="M-3518.35-595.149l.239-8.283-13.53-19.947-9.851,9.731,12.022,20.127Z" transform="translate(3603.787 705.103)" fill="#d9dde9"/>
              <path id="Trazado_149427" data-name="Trazado 149427" d="M-3492.893-609.182l3.639,4.7c1.008,4.619.866,16.4.866,16.4l-4.1-8.257-8.983,5S-3492.061-598.962-3492.893-609.182Z" transform="translate(3590.072 700.237)" fill="#d9dde9"/>
              <path id="Trazado_149428" data-name="Trazado 149428" d="M-3523.272-587.436l11.479-5.371,1.391,7.178-4.754-3Z" transform="translate(3597.543 694.624)" fill="#bababe"/>
              <g id="Grupo_107223" data-name="Grupo 107223" transform="translate(58.689 212.814)">
                <rect id="Rectángulo_35258" data-name="Rectángulo 35258" width="13.213" height="8.161" rx="4.08" transform="translate(13.14 9.504) rotate(-173.968)" fill="#cdd0d7"/>
                <path id="Rectángulo_35259" data-name="Rectángulo 35259" d="M3.36,0H8.3a3.36,3.36,0,0,1,3.36,3.36v0A3.36,3.36,0,0,1,8.3,6.721H3.36A3.36,3.36,0,0,1,0,3.36v0A3.36,3.36,0,0,1,3.36,0Z" transform="translate(12.448 8.649) rotate(-173.968)" fill="#262727"/>
              </g>
              <path id="Trazado_149429" data-name="Trazado 149429" d="M-3500.312-589.678s-6.405,1.312-10.265-3.305l-5.044,2.507,2.988,9.469-7.542,24.828,6.558,17.083s6.879-9.31,7.1-10.342,1.215-30.519,1.215-30.519l5.288-6.955Z" transform="translate(3596.481 694.685)" fill="#757dba"/>
              <path id="Trazado_149430" data-name="Trazado 149430" d="M-3568.014-608.552s22.184,49.633,21.539,57.594c0,0,15.617-31.1,19.031-45.082.329-1.349-.21-2.99.623-3.526.07-.045,4.964,4.8,4.964,4.8s7.17,10.654-14.1,71.007c-10.087,28.614-2.964,35.509-1.183,43.241,4.451,19.327-5.2,37.005-5.2,37.005s-20.805-10.61-18.559-40.906c-8.534,14.969-22.171,19.962-30.125,19.392-22.335-1.6-24.423-6.915-24.423-6.915l15.607-37.121s7.258-41.523,6.245-51.517-.462-31.439,7.935-37.505Z" transform="translate(3629.134 700.021)" fill="#151e39"/>
            </g>
            <g id="Grupo_107225" data-name="Grupo 107225" transform="translate(53.674 93.766)">
              <path id="Trazado_149431" data-name="Trazado 149431" d="M-3537.464-481.94c12.113-28.826,14.3-45.875,13.218-51.078-2.933-14.123-25.8-35.01-29.179-38.036l14.943-2.47-14.74-10.136,3.014-21.322-.523-.074-3.06,21.645,13.93,9.58-14.749,2.438.422.367c.263.229,26.309,23.108,29.425,38.115,1.071,5.16-1.11,22.023-13.188,50.767Z" transform="translate(3554.609 605.056)" fill="#283460"/>
            </g>
            <g id="Grupo_107226" data-name="Grupo 107226" transform="translate(82.928 102.906)">
              <path id="Trazado_149432" data-name="Trazado 149432" d="M-3509.617-530.822c5.474-12.431,9.941-18.707,13.973-23.171a39.351,39.351,0,0,1,7.513-6.776l.4-.244-10.51-5.468,11.6-3.4-1.374-21.272-.526.034,1.346,20.85-12.458,3.648,10.859,5.65a42.788,42.788,0,0,0-7.224,6.6c-4.064,4.495-8.576,10.825-14.085,23.335Z" transform="translate(3510.1 591.151)" fill="#283460"/>
            </g>
            <g id="Grupo_107231" data-name="Grupo 107231" transform="translate(77.972 37.643)">
              <g id="Grupo_107228" data-name="Grupo 107228" transform="translate(26.894 0.365)" opacity="0.69">
                <g id="Grupo_107227" data-name="Grupo 107227" transform="translate(0 0)" clip-path="url(#clip-path-4)">
                  <circle id="Elipse_5047" data-name="Elipse 5047" cx="7.891" cy="7.891" r="7.891" transform="translate(0 13.418) rotate(-58.23)" fill="#fff" opacity="0.43"/>
                  <rect id="Rectángulo_35260" data-name="Rectángulo 35260" width="23.411" height="2.591" transform="matrix(-0.649, -0.761, 0.761, -0.649, 21.362, 17.863)" fill="#fff" opacity="0.43"/>
                  <rect id="Rectángulo_35261" data-name="Rectángulo 35261" width="23.411" height="1.862" transform="matrix(-0.649, -0.761, 0.761, -0.649, 18.703, 20.269)" fill="#fff" opacity="0.43"/>
                </g>
              </g>
              <g id="Grupo_107230" data-name="Grupo 107230" transform="translate(6.896 0.788)" opacity="0.69">
                <g id="Grupo_107229" data-name="Grupo 107229" transform="translate(0 0)" clip-path="url(#clip-path-5)">
                  <circle id="Elipse_5049" data-name="Elipse 5049" cx="7.891" cy="7.891" r="7.891" transform="matrix(0.67, -0.742, 0.742, 0.67, 0, 11.71)" fill="#fff" opacity="0.43"/>
                  <rect id="Rectángulo_35262" data-name="Rectángulo 35262" width="23.411" height="2.591" transform="matrix(-0.649, -0.761, 0.761, -0.649, 21.644, 18.145)" fill="#fff" opacity="0.43"/>
                  <rect id="Rectángulo_35263" data-name="Rectángulo 35263" width="23.411" height="1.862" transform="matrix(-0.649, -0.761, 0.761, -0.649, 18.985, 20.551)" fill="#fff" opacity="0.43"/>
                </g>
              </g>
              <circle id="Elipse_5051" data-name="Elipse 5051" cx="7.979" cy="7.979" r="7.979" transform="translate(26.533 11.822) rotate(-47.8)" fill="none" stroke="#402312" stroke-miterlimit="10" stroke-width="3"/>
              <rect id="Rectángulo_35264" data-name="Rectángulo 35264" width="3.683" height="3.683" transform="translate(29.811 13.487) rotate(177.952)" fill="#402312"/>
              <path id="Trazado_149433" data-name="Trazado 149433" d="M-3504.265-676.258l-3.681.132.085,2.366s2.394.7,3.239,2.253Z" transform="translate(3514.318 685.582)" fill="#402312"/>
              <path id="Trazado_149434" data-name="Trazado 149434" d="M-3448.752-678.228l2.891-.1.085,2.366a5.036,5.036,0,0,0-2.394,2.454Z" transform="translate(3494.03 686.293)" fill="#402312"/>
              <path id="Trazado_149435" data-name="Trazado 149435" d="M-3511.268-676.854l-6.372-1.527.588,1.734,5.868,2.159Z" transform="translate(3517.64 686.309)" fill="#8b6339"/>
              <circle id="Elipse_5052" data-name="Elipse 5052" cx="7.979" cy="7.979" r="7.979" transform="translate(8.651 5.198) rotate(-9.689)" fill="none" stroke="#402312" stroke-miterlimit="10" stroke-width="3"/>
            </g>
            <path id="Trazado_149436" data-name="Trazado 149436" d="M-3468.436-714.464s8.451,5.325-.937,9.693c0,0,6.572-3.911-1.891-9.627Z" transform="translate(3579.718 736.319)" fill="#333"/>
            <path id="Trazado_149437" data-name="Trazado 149437" d="M-3570.952-567.248a17.638,17.638,0,0,0,1.422,11.625c5.7,11.713,23.5,47.922,29.287,55.4,6.931,8.949,66.76,22.5,66.76,22.5s7.341-14.721,3.211-19.478l-54.015-22.61-24.361-48.026a13.652,13.652,0,0,0-13.545-7.5C-3565.994-574.926-3569.654-572.928-3570.952-567.248Z" transform="translate(3614.028 688.663)" fill="#1a243f"/>
          </g>
          <g id="Grupo_107237" data-name="Grupo 107237" transform="translate(240.189)">
            <g id="Grupo_107236" data-name="Grupo 107236">
              <path id="Trazado_149438" data-name="Trazado 149438" d="M-3199.113-670.14s-1.273,24.385.729,29.506,13.013,8.309,13.013,8.309-20.794,18.713-29.937,14.84-12.277-5.963-12.277-5.963,6.61-1.676,7.16-5.615-3.947-36.922-3.947-36.922Z" transform="translate(3256.014 722)" fill="#df8867"/>
              <path id="Trazado_149439" data-name="Trazado 149439" d="M-3255.633-694.976s3.079,15.19,5.082,20.311,14.382,12.043,17.412,13.174,7.244-.289,7.244-.289,12.4-11.026,13.91-15.067,2.643-20.652,2.643-20.652,1.1-21.457-3.3-26.322-16.607-14.714-29.2-9.973-16.485,6.854-16.1,17.24C-3257.771-711.982-3255.633-694.976-3255.633-694.976Z" transform="translate(3266.426 744.247)" fill="#ee9e78"/>
              <path id="Trazado_149440" data-name="Trazado 149440" d="M-3255.372-696.269l9.846,2.886a1.308,1.308,0,0,0,.776-1.6c-.233-1.29-6.737-4.113-8.39-3.681S-3255.77-697-3255.372-696.269Z" transform="translate(3265.568 731.793)" fill="#31141e"/>
              <g id="Grupo_107233" data-name="Grupo 107233" transform="translate(26.224 190.555)">
                <path id="Trazado_149441" data-name="Trazado 149441" d="M-3157.235-435.65c-4.986-14.542-17.984-23.474-17.984-23.474l-53.09,10.217s-3.9,19.446-2.2,37.208c.49,5.133.406,21.377,15.432,40.513h35.7l-4.7-12.363,6.9,12.363h43.244C-3139.025-403.019-3155.35-430.151-3157.235-435.65Z" transform="translate(3230.94 459.124)" fill="#183753"/>
                <path id="Trazado_149442" data-name="Trazado 149442" d="M-3156.39-387.673A87.606,87.606,0,0,1-3194-363.507a87.993,87.993,0,0,1-18.2,7.14c1.077,1.594,2.8,4.646,4.093,6.288l36.407,1.22-5.958-15.016,8.2,15.22,44.34,1.424c-3.2-19.986-13.21-42.4-18.908-54.487A91.138,91.138,0,0,1-3156.39-387.673Z" transform="translate(3224.517 439.449)" fill="#032a41"/>
                <path id="Trazado_149443" data-name="Trazado 149443" d="M-3171.014-331.416h2.205l-3.914-11.669Z" transform="translate(3210.988 419.354)" fill="none"/>
              </g>
              <path id="Trazado_149444" data-name="Trazado 149444" d="M-3215.855-700.067l-10.322,5.319a1.48,1.48,0,0,1-1.207-1.618c-.019-1.483,6.6-6.015,8.534-5.891S-3215.57-700.96-3215.855-700.067Z" transform="translate(3255.945 733.008)" fill="#31141e"/>
              <path id="Trazado_149445" data-name="Trazado 149445" d="M-3246.15-678c.2,1.854-.714,3.472-2.039,3.613s-2.558-1.246-2.756-3.1.715-3.471,2.039-3.612S-3246.348-679.852-3246.15-678Z" transform="translate(3264.03 725.759)" fill="#2b203d"/>
              <path id="Trazado_149446" data-name="Trazado 149446" d="M-3214.655-680.176c.2,1.854-.715,3.472-2.039,3.613s-2.558-1.247-2.756-3.1.714-3.471,2.038-3.613S-3214.853-682.029-3214.655-680.176Z" transform="translate(3253.235 726.505)" fill="#2b203d"/>
              <g id="Grupo_107234" data-name="Grupo 107234" transform="translate(24.379 37.699)">
                <path id="Trazado_149447" data-name="Trazado 149447" d="M-3228.618-669.747c-1.291-.076-2.847-.287-3.43-1.242-.458-.75-.222-1.784.72-3.162,1.638-2.394-1.19-13.3-2.419-17.3l.934-.23c.011.036,1.13,3.7,1.978,7.685,1.154,5.431,1.268,8.874.338,10.232-.753,1.1-.985,1.9-.69,2.388s1.138.735,2.674.826Z" transform="translate(3233.747 691.685)" fill="#ef7a6d"/>
              </g>
              <path id="Trazado_149448" data-name="Trazado 149448" d="M-3232.967-650.678l17.69-2.376s1.969.275-.549,3.938-12.69,3.782-12.69,3.782S-3233.037-646.791-3232.967-650.678Z" transform="translate(3257.859 716.144)" fill="#c0272d"/>
              <path id="Trazado_149449" data-name="Trazado 149449" d="M-3233.02-650.956l17.72-2.1s1.94,0-.786,1.718-12.839,2.394-12.839,2.394S-3233.327-649.289-3233.02-650.956Z" transform="translate(3257.882 716.144)" fill="#fff"/>
              <path id="Trazado_149450" data-name="Trazado 149450" d="M-3225.266-441.925s.859,7.344,9.506,10.7,20.9,4.352,26.96,2.187,23.195-13.4,23.536-18.776l-.141.178Z" transform="translate(3255.219 645.802)" fill="#262727"/>
              <rect id="Rectángulo_35265" data-name="Rectángulo 35265" width="2.893" height="9.163" transform="translate(67.778 207.824) rotate(-19.582)" fill="#212a4e"/>
              <rect id="Rectángulo_35266" data-name="Rectángulo 35266" width="2.893" height="9.163" transform="matrix(0.954, 0.3, -0.3, 0.954, 43.091, 207.65)" fill="#212a4e"/>
              <rect id="Rectángulo_35267" data-name="Rectángulo 35267" width="2.893" height="9.163" transform="matrix(0.846, -0.533, 0.533, 0.846, 75.718, 204.134)" fill="#212a4e"/>
              <rect id="Rectángulo_35268" data-name="Rectángulo 35268" width="2.893" height="9.163" transform="translate(35.027 204.657) rotate(36.186)" fill="#212a4e"/>
              <path id="Trazado_149451" data-name="Trazado 149451" d="M-3185.9-692.254s1.14-5.214,5.712-3.278,4.382,9.231,2.241,11.885-5.945,7.91-6.955,7.533a6.784,6.784,0,0,1-2.123-1.713Z" transform="translate(3242.114 730.85)" fill="#ee9e78"/>
              <path id="Trazado_149452" data-name="Trazado 149452" d="M-3230.268-609.709l11.8,11.325,21.188-17.3,17.51,6.148a17.8,17.8,0,0,1,11.75,19.158c-2.013,15.043-4.79,37.356-4.437,43.578.335,5.927,2.268,19.932,3.707,29.844a15.459,15.459,0,0,1-8.617,16.162c-7.65,3.668-18.06,7.919-25.671,8.187a103.562,103.562,0,0,1-18.776-1.409,16.182,16.182,0,0,1-13.368-12.84c-3.579-18.006-10.242-53.738-9.483-66.659a94.674,94.674,0,0,1,7.241-30.984Z" transform="translate(3261.889 703.337)" fill="#d9dde9"/>
              <path id="Trazado_149453" data-name="Trazado 149453" d="M-3169.141-513.224a43.763,43.763,0,0,1,.075-4.491,57.248,57.248,0,0,1-21.878,17.585,57.665,57.665,0,0,1-28.535,9.978,78.228,78.228,0,0,1-15.567.237c1.144,6.252,2.262,12.023,3.179,16.632a16.2,16.2,0,0,0,13.4,12.847,103.422,103.422,0,0,0,18.742,1.4c7.623-.268,18.053-4.532,25.706-8.2a15.443,15.443,0,0,0,8.582-16.149C-3166.874-493.295-3168.806-507.3-3169.141-513.224Z" transform="translate(3258.571 669.76)" fill="#cdd0d7"/>
              <path id="Trazado_149454" data-name="Trazado 149454" d="M-3212.7-593.935l-8.535-2.4-5.834,4.081,5.106-10.308Z" transform="translate(3255.837 698.839)" fill="#bababe"/>
              <path id="Trazado_149455" data-name="Trazado 149455" d="M-3202.03-601.857l.567-8.305,15.469-18.628,8.9,10.688-13.979,18.954Z" transform="translate(3247.255 707.828)" fill="#d9dde9"/>
              <path id="Trazado_149456" data-name="Trazado 149456" d="M-3220.514-618.3l-4.095,4.342c-1.457,4.521-2.462,16.31-2.462,16.31l4.907-7.857,9.729,6.078S-3222.34-608.163-3220.514-618.3Z" transform="translate(3255.838 704.233)" fill="#d9dde9"/>
              <path id="Trazado_149457" data-name="Trazado 149457" d="M-3191.435-593.748l-10.955-6.487-2.089,7.042,5.044-2.532Z" transform="translate(3248.095 698.042)" fill="#bababe"/>
              <rect id="Rectángulo_35269" data-name="Rectángulo 35269" width="20.736" height="2.893" transform="translate(49.633 122.595) rotate(-6.673)" fill="#cdd0d7"/>
              <g id="Grupo_107235" data-name="Grupo 107235" transform="translate(47.831 211.336)">
                <rect id="Rectángulo_35270" data-name="Rectángulo 35270" width="13.273" height="8.198" rx="4.099" transform="translate(0 0.11) rotate(-0.474)" fill="#cdd0d7"/>
                <rect id="Rectángulo_35271" data-name="Rectángulo 35271" width="11.712" height="6.751" rx="3.376" transform="matrix(1, -0.008, 0.008, 1, 0.786, 0.769)" fill="#262727"/>
              </g>
              <path id="Trazado_149458" data-name="Trazado 149458" d="M-3245.641-731.108l4.565.527s-1.588,8.61,3.772,11.949,13.5,4.744,13.5,4.744-6.352-3.163-5.955-6.677c0,0,4.962,4.393,8.138,5.271s4.565,8.61,4.565,8.61l3.573-5.623s3.97-2.636,6.551.527c0,0,4.764-7.556,4.565-14.76s2.779-16.517-8.336-18.1-24.615-5.271-29.577-4.217a23.285,23.285,0,0,0-7.146,2.46s-5.757-3.339-9.528-1.406-12.7,3.865-12.7,9.84-2.779,14.409.2,17.748,5.559,3.338,5.559,3.338l-.794-5.271,4.168,3.69s-1.191-7.556,2.977-10.367S-3245.641-731.108-3245.641-731.108Z" transform="translate(3270.838 749.042)" fill="#31141e"/>
              <path id="Trazado_149459" data-name="Trazado 149459" d="M-3241.367-724.908s-2.644-5.8-6.712-5.8c-7.628,0-6.509,11.8-6.509,11.8S-3247.876-725.01-3241.367-724.908Z" transform="translate(3265.289 742.757)" fill="#25131f"/>
              <path id="Trazado_149460" data-name="Trazado 149460" d="M-3228.649-726.572s-1.366-7.527-2.485-9.256c-4.034-6.234-3.412,8.763-3.412,8.763S-3230.727-726.878-3228.649-726.572Z" transform="translate(3258.411 745.033)" fill="#25131f"/>
            </g>
            <path id="Trazado_149461" data-name="Trazado 149461" d="M-3135.972-443.746l-9.33,7s-4.029,2.744-1.23,10.144,15.453,12.282,15.453,12.282l.5-20.512,1.911-4.314Z" transform="translate(3228.574 644.409)" fill="#ee9e78"/>
            <path id="Trazado_149462" data-name="Trazado 149462" d="M-3139.288-599.3s33.645,49.575,36.387,60.617-26.333,51.714-26.333,51.714-13.083-.288-14.294-6.509l17.479-44.77-17.881-20.634S-3156.195-590.956-3139.288-599.3Z" transform="translate(3228.816 697.72)" fill="#d9dde9"/>
          </g>
          <path id="Trazado_149463" data-name="Trazado 149463" d="M-3363.628-464.344a6.219,6.219,0,0,0-5.506-1.183c-4.049,1.071-14.1,3.908-15.4,5.09-.957.867-2.258,2.171-3.307,3.244a6.458,6.458,0,0,0-1.837,4.418l1.141,7.36s2.292,2.974,3.618,1,1.243-4.982,1.2-6.661c-.023-.828,2.689-2.679,2.689-2.679l10.933,5.91s5.029,2.089,7.722-5.322l5.631-2.084a1.935,1.935,0,0,0,.357-3.236Z" transform="translate(3551.758 651.944)" fill="#ee9e78"/>
          <path id="Trazado_149464" data-name="Trazado 149464" d="M-3397.257-427.174l-3.217,5.294a2.219,2.219,0,0,0,.741,3.039h0a2.219,2.219,0,0,0,3.04-.741l3.217-5.294a2.218,2.218,0,0,0-.741-3.039h0A2.219,2.219,0,0,0-3397.257-427.174Z" transform="translate(3555.566 639.093)" fill="#ee9e78"/>
          <path id="Trazado_149465" data-name="Trazado 149465" d="M-3390.577-424.855l-2.73,4.491a1.883,1.883,0,0,0,.629,2.58h0a1.882,1.882,0,0,0,2.579-.63l2.73-4.491a1.884,1.884,0,0,0-.63-2.58h0A1.883,1.883,0,0,0-3390.577-424.855Z" transform="translate(3553.093 638.243)" fill="#ee9e78"/>
          <path id="Trazado_149466" data-name="Trazado 149466" d="M-3384.852-423.645l-2.729,4.492a1.883,1.883,0,0,0,.629,2.579h0a1.883,1.883,0,0,0,2.58-.629l2.73-4.492a1.882,1.882,0,0,0-.629-2.579h0A1.883,1.883,0,0,0-3384.852-423.645Z" transform="translate(3551.131 637.828)" fill="#ee9e78"/>
          <path id="Trazado_149467" data-name="Trazado 149467" d="M-3380.046-420.98l-2.043,3.361a1.408,1.408,0,0,0,.471,1.93h0a1.408,1.408,0,0,0,1.93-.471l2.043-3.361a1.409,1.409,0,0,0-.471-1.93h0A1.409,1.409,0,0,0-3380.046-420.98Z" transform="translate(3549.225 636.837)" fill="#ee9e78"/>
        </g>
      </g>
      <rect id="Rectángulo_35273" data-name="Rectángulo 35273" width="610" height="326" transform="translate(769 592)" fill="none"/>
    </g>
  </g>
</svg>
