<svg xmlns="http://www.w3.org/2000/svg" width="108" height="108" viewBox="0 0 108 108">
  <g id="Grupo_107623" data-name="Grupo 107623" transform="translate(-326 -1569)">
    <circle id="Elipse_5073" data-name="Elipse 5073" cx="54" cy="54" r="54" transform="translate(326 1569)" fill="#3e2ea6"/>
    <g id="Grupo_107425" data-name="Grupo 107425" transform="translate(20.062 1181.125)">
      <path id="Trazado_149890" data-name="Trazado 149890" d="M357.467,408.332v2.991a2.19,2.19,0,0,1-1.032-.635,1.417,1.417,0,0,1-.294-.895,1.322,1.322,0,0,1,.291-.853A2.176,2.176,0,0,1,357.467,408.332Zm1.7,7.726v3.735a2.706,2.706,0,0,0,1.449-.73,1.652,1.652,0,0,0,.459-1.137,1.529,1.529,0,0,0-.388-1.011A3.542,3.542,0,0,0,359.165,416.058Zm12.545-1.61a13.573,13.573,0,1,1-13.573-13.573A13.6,13.6,0,0,1,371.71,414.448Zm-6.25,2.873a4.59,4.59,0,0,0-1.571-3.574,12.6,12.6,0,0,0-4.724-1.992V408.39a2.91,2.91,0,0,1,.868.647,4.672,4.672,0,0,1,.587,1.145l4.327-.686a4.949,4.949,0,0,0-1.8-2.932,7.148,7.148,0,0,0-3.985-1.233v-1.152h-1.7v1.152a6.525,6.525,0,0,0-4.31,1.542,4.608,4.608,0,0,0-1.449,3.464,4.445,4.445,0,0,0,2.426,4.1,21.872,21.872,0,0,0,3.333,1.13v4.111a2.943,2.943,0,0,1-1.169-.908,4.41,4.41,0,0,1-.565-1.664l-4.7.547a7.118,7.118,0,0,0,.628,1.984,5.425,5.425,0,0,0,1.192,1.529,5.613,5.613,0,0,0,1.84,1.112,10.692,10.692,0,0,0,2.774.553v2.2h1.7v-2.2a9.172,9.172,0,0,0,2.42-.379,5.82,5.82,0,0,0,1.867-1.03,5.7,5.7,0,0,0,1.443-1.771A4.882,4.882,0,0,0,365.46,417.321ZM331.254,462.53a3.5,3.5,0,0,1,2.517-.3.862.862,0,0,1,.01,1.347c-1.349,1.475-1.776,1.409-3.662,2.019l-1.077.161h0a28.794,28.794,0,0,0,11.059,8.367,4.52,4.52,0,0,0-.434,1.929v2.307a5.469,5.469,0,0,0,10.891,0V477.1q1.087.154,2.2.253l.057,0q.731.064,1.472.1l.079,0c.2.01.409.019.614.026l.2.007.524.014.2,0c.235,0,.47.006.707.006h.458l.135,0,.33-.006.143,0,.341-.009.113,0,.434-.017h.014a42.414,42.414,0,0,0,5.685-.638v1.521a5.469,5.469,0,0,0,10.891,0v-2.307a4.573,4.573,0,0,0-.769-2.528,29.936,29.936,0,0,0,7.532-5.248l0,0q.427-.415.828-.843l.011-.011c.085-.091.168-.182.251-.273l.016-.017c.259-.285.509-.576.75-.869l.02-.024.216-.268.025-.032q.35-.441.673-.893l.026-.037c.062-.087.124-.174.182-.261l.033-.048c.066-.1.13-.191.192-.287l.008-.011q.2-.306.393-.616c.01-.018.019-.035.03-.051l.154-.256.036-.061c.054-.092.106-.184.156-.274l.019-.031c.117-.209.228-.417.337-.628l.033-.066c.042-.082.083-.166.124-.248.013-.026.025-.051.037-.076.043-.087.083-.174.125-.261l.025-.052c.1-.211.192-.424.281-.638.012-.026.021-.052.032-.077.033-.081.067-.162.1-.243l.036-.088c.033-.085.064-.168.1-.253l.026-.069c.041-.108.08-.217.119-.327v-.006c.037-.1.073-.21.107-.313l.027-.089c.026-.079.051-.157.075-.237.011-.035.021-.067.031-.1.025-.08.049-.162.073-.243.007-.029.017-.056.024-.085.031-.108.062-.219.089-.329l0-.011c.026-.1.054-.21.079-.316.007-.032.014-.064.023-.1l.054-.236c.007-.037.016-.073.024-.108l.05-.241.018-.093c.021-.112.043-.223.061-.334l0-.013c.018-.106.036-.212.052-.319l.014-.1c.012-.079.023-.156.033-.235,0-.038.011-.076.015-.114l.029-.238.011-.1c.012-.112.024-.224.032-.337v-.011c.01-.108.018-.218.025-.327l.007-.108c0-.077.008-.157.012-.237,0-.039,0-.079.006-.118l.007-.238,0-.106c0-.116,0-.229,0-.344s0-.2,0-.306v-.082l-.007-.225c0-.029,0-.058,0-.091,0-.071-.006-.143-.01-.214,0-.03,0-.06-.006-.089,0-.073-.008-.145-.013-.218,0-.029-.006-.056-.007-.085,0-.074-.011-.147-.018-.22,0-.027,0-.056-.008-.083-.006-.073-.013-.147-.02-.219l-.011-.087c-.007-.071-.017-.143-.025-.214l-.012-.093c-.008-.068-.018-.136-.027-.2l0-.033c3.969.588,7.7-.7,8.659-5.02,1.625-7.292-8.908-8.053-8.6-3.2.048.588.036.456.61.98a6.008,6.008,0,0,1,.991-1.307c4.484-3.6,5.034,8.587-3.312,2.7a2.992,2.992,0,0,0-.38-.217l-.118-.213-.027-.049c-.045-.081-.091-.162-.137-.243l-.012-.018c-.1-.168-.2-.334-.3-.5l0,0q-.558-.9-1.208-1.755l-.007-.01c-.181-.238-.367-.472-.559-.7l-.042-.05c-.113-.136-.228-.271-.346-.405l-.037-.043-.163-.186c-.037-.038-.07-.076-.106-.116l-.175-.192c-.069-.075-.139-.15-.211-.224l-.112-.118-.211-.216-.069-.07c-.1-.1-.2-.2-.309-.305l-.023-.023c-5.786-5.619-14.973-9.25-25.317-9.25a41.56,41.56,0,0,0-13.086,2.065c-1.827-1.76-5.28-2.859-8.153-2.859a10.932,10.932,0,0,0-2.941.4c1.457,1.891,2.973,4.26,2.581,6.62a24.769,24.769,0,0,0-7.678,8.084,4.457,4.457,0,0,0-.7-.056h-.61a3.931,3.931,0,0,0-4.089,3.723v11.035a3.931,3.931,0,0,0,4.089,3.723h.61a4.405,4.405,0,0,0,.986-.112A4.051,4.051,0,0,0,331.254,462.53Zm3.788-13.263c-.876,0-1.593-1.08-1.593-2.4s.717-2.4,1.593-2.4,1.577,1.08,1.577,2.4S335.919,449.267,335.043,449.267Zm36.173-9.333a45.381,45.381,0,0,0-14.942-2.848,47.236,47.236,0,0,0-11.473,1.8v-3.482a53.356,53.356,0,0,1,11.473-1.641,51.874,51.874,0,0,1,14.942,2.544Z" transform="translate(0 0)" fill="#dad6f7" fill-rule="evenodd"/>
    </g>
  </g>
</svg>
