<svg xmlns="http://www.w3.org/2000/svg" width="74.5" height="74.5" viewBox="0 0 74.5 74.5">
  <g id="Grupo_107613" data-name="Grupo 107613" transform="translate(-42.279 -192.323)">
    <g id="Grupo_107602" data-name="Grupo 107602" transform="translate(42.279 192.323)">
      <g id="Grupo_107601" data-name="Grupo 107601">
        <path id="Trazado_152669" data-name="Trazado 152669" d="M115.182,199.455h-9.507a.782.782,0,0,1-.781-.781V193.92a1.6,1.6,0,1,0-3.193,0v4.754a.781.781,0,0,1-.781.781H96.168a.781.781,0,0,1-.781-.781V193.92a1.6,1.6,0,1,0-3.193,0v4.754a.781.781,0,0,1-.781.781H86.661a.781.781,0,0,1-.781-.781V193.92a1.6,1.6,0,1,0-3.193,0v4.754a.782.782,0,0,1-.781.781H77.152a.78.78,0,0,1-.779-.781V193.92a1.6,1.6,0,1,0-3.193,0v4.754a.782.782,0,0,1-.781.781H67.644a.78.78,0,0,1-.779-.781V193.92a1.6,1.6,0,0,0-3.2,0v4.754a.78.78,0,0,1-.779.781H58.137a.782.782,0,0,1-.781-.781V193.92a1.6,1.6,0,1,0-3.193,0v4.754a.781.781,0,0,1-.781.781H43.876a1.6,1.6,0,0,0-1.6,1.6v64.175a1.6,1.6,0,0,0,1.6,1.6h71.306a1.6,1.6,0,0,0,1.6-1.6V201.051A1.6,1.6,0,0,0,115.182,199.455Zm-1.6,63.394a.78.78,0,0,1-.781.781H46.253a.781.781,0,0,1-.781-.781v-59.42a.781.781,0,0,1,.781-.781h7.13a.78.78,0,0,1,.781.781v4.753a1.6,1.6,0,1,0,3.193,0v-4.753a.781.781,0,0,1,.781-.781h4.754a.779.779,0,0,1,.779.781v4.753a1.6,1.6,0,0,0,3.2,0v-4.753a.779.779,0,0,1,.779-.781H72.4a.781.781,0,0,1,.781.781v4.753a1.6,1.6,0,1,0,3.193,0v-4.753a.779.779,0,0,1,.779-.781h4.754a.781.781,0,0,1,.781.781v4.753a1.6,1.6,0,1,0,3.193,0v-4.753a.78.78,0,0,1,.781-.781h4.753a.78.78,0,0,1,.781.781v4.753a1.6,1.6,0,1,0,3.193,0v-4.753a.78.78,0,0,1,.781-.781h4.753a.78.78,0,0,1,.781.781v4.753a1.6,1.6,0,1,0,3.193,0v-4.753a.781.781,0,0,1,.781-.781h7.13a.78.78,0,0,1,.781.781Z" transform="translate(-42.279 -192.323)" fill="#ef6c00"/>
      </g>
    </g>
    <g id="Grupo_107612" data-name="Grupo 107612" transform="translate(61.295 220.846)">
      <g id="Grupo_107605" data-name="Grupo 107605" transform="translate(7.13 2.377)">
        <g id="Grupo_107604" data-name="Grupo 107604">
          <g id="Grupo_107603" data-name="Grupo 107603">
            <path id="Trazado_152670" data-name="Trazado 152670" d="M59.316,237.535a1.584,1.584,0,0,1-1-.35,1.6,1.6,0,0,1-.249-2.245l19.014-23.769a1.613,1.613,0,0,1,1.255-.6,1.569,1.569,0,0,1,.992.349,1.6,1.6,0,0,1,.249,2.245L60.565,236.936A1.6,1.6,0,0,1,59.316,237.535Z" transform="translate(-57.721 -210.573)" fill="#ef6c00"/>
          </g>
        </g>
      </g>
      <g id="Grupo_107608" data-name="Grupo 107608">
        <g id="Grupo_107607" data-name="Grupo 107607">
          <g id="Grupo_107606" data-name="Grupo 107606">
            <path id="Trazado_152671" data-name="Trazado 152671" d="M61.048,224.247a7.539,7.539,0,1,1,7.54-7.54A7.548,7.548,0,0,1,61.048,224.247Zm0-11.884a4.346,4.346,0,1,0,4.346,4.345A4.349,4.349,0,0,0,61.048,212.362Z" transform="translate(-53.51 -209.169)" fill="#ef6c00"/>
          </g>
        </g>
      </g>
      <g id="Grupo_107611" data-name="Grupo 107611" transform="translate(21.392 16.637)">
        <g id="Grupo_107610" data-name="Grupo 107610">
          <g id="Grupo_107609" data-name="Grupo 107609">
            <path id="Trazado_152672" data-name="Trazado 152672" d="M73.682,234.073a7.539,7.539,0,1,1,7.54-7.538A7.546,7.546,0,0,1,73.682,234.073Zm0-11.884a4.346,4.346,0,1,0,4.346,4.346A4.351,4.351,0,0,0,73.682,222.188Z" transform="translate(-66.144 -218.995)" fill="#ef6c00"/>
          </g>
        </g>
      </g>
    </g>
  </g>
</svg>
