<svg xmlns="http://www.w3.org/2000/svg" width="399.056" height="325.925" viewBox="0 0 399.056 325.925">
  <g id="Grupo_107545" data-name="Grupo 107545" transform="translate(-3881.555 -431.88)">
    <rect id="Rectángulo_35673" data-name="Rectángulo 35673" width="313.003" height="183.277" rx="12.375" transform="translate(3893.058 503.94)" fill="#8781fd"/>
    <rect id="Rectángulo_35674" data-name="Rectángulo 35674" width="313.003" height="183.277" rx="12.375" transform="translate(3888.959 500.083)" fill="#e3e2ff"/>
    <path id="Trazado_152575" data-name="Trazado 152575" d="M4207.705,563.452h-313v-3.114a7.365,7.365,0,0,1,7.365-7.365h298.271a7.366,7.366,0,0,1,7.366,7.365Z" transform="translate(-5.742 -52.89)" fill="#b4bbd7"/>
    <rect id="Rectángulo_35675" data-name="Rectángulo 35675" width="313.003" height="14.319" transform="translate(3888.959 510.562)" fill="#8781fd"/>
    <path id="Trazado_152576" data-name="Trazado 152576" d="M4264.568,585.3H4062.656a2.922,2.922,0,0,1-2.923-2.923h0a2.922,2.922,0,0,1,2.923-2.923h201.913a2.922,2.922,0,0,1,2.922,2.923h0A2.922,2.922,0,0,1,4264.568,585.3Z" transform="translate(-77.822 -64.455)" fill="#fff"/>
    <path id="Trazado_152577" data-name="Trazado 152577" d="M3978.111,585.3H3918.12a2.923,2.923,0,0,1-2.923-2.923h0a2.923,2.923,0,0,1,2.923-2.923h59.991a2.923,2.923,0,0,1,2.923,2.923h0A2.923,2.923,0,0,1,3978.111,585.3Z" transform="translate(-14.694 -64.455)" fill="#fff"/>
    <g id="Grupo_107515" data-name="Grupo 107515" transform="translate(3900.503 503.437)">
      <g id="Grupo_107512" data-name="Grupo 107512" transform="translate(19.505)">
        <path id="Trazado_152578" data-name="Trazado 152578" d="M3953.6,560.813a1.885,1.885,0,1,1-1.886-1.885A1.886,1.886,0,0,1,3953.6,560.813Z" transform="translate(-3949.828 -558.928)" fill="#ffa368"/>
      </g>
      <g id="Grupo_107513" data-name="Grupo 107513" transform="translate(9.752)">
        <path id="Trazado_152579" data-name="Trazado 152579" d="M3936.283,560.813a1.885,1.885,0,1,1-1.885-1.885A1.885,1.885,0,0,1,3936.283,560.813Z" transform="translate(-3932.512 -558.928)" fill="#00affd"/>
      </g>
      <g id="Grupo_107514" data-name="Grupo 107514">
        <path id="Trazado_152580" data-name="Trazado 152580" d="M3918.968,560.813a1.885,1.885,0,1,1-1.886-1.885A1.886,1.886,0,0,1,3918.968,560.813Z" transform="translate(-3915.197 -558.928)" fill="#fc6473"/>
      </g>
    </g>
    <g id="Grupo_107517" data-name="Grupo 107517" transform="translate(4073.891 534.292)">
      <rect id="Rectángulo_35676" data-name="Rectángulo 35676" width="149.073" height="30.136" rx="7.934" transform="translate(4.457 4.24)" fill="#8781fd"/>
      <g id="Grupo_107516" data-name="Grupo 107516">
        <rect id="Rectángulo_35677" data-name="Rectángulo 35677" width="149.073" height="30.136" rx="7.934" fill="#fff"/>
        <rect id="Rectángulo_35678" data-name="Rectángulo 35678" width="75.387" height="2.618" rx="1.309" transform="translate(64.081 6.066)" fill="#e5e7f4"/>
        <rect id="Rectángulo_35679" data-name="Rectángulo 35679" width="75.387" height="2.618" rx="1.309" transform="translate(64.081 13.576)" fill="#e5e7f4"/>
        <rect id="Rectángulo_35680" data-name="Rectángulo 35680" width="55.62" height="2.414" rx="1.207" transform="translate(83.848 22.21)" fill="#e5e7f4"/>
        <rect id="Rectángulo_35681" data-name="Rectángulo 35681" width="18.992" height="18.992" rx="4.438" transform="translate(10.399 6.066)" fill="#e5e7f4"/>
        <rect id="Rectángulo_35682" data-name="Rectángulo 35682" width="10.369" height="10.369" rx="2.423" transform="translate(33.924 6.066)" fill="#00affd"/>
      </g>
    </g>
    <path id="Rectángulo_35683" data-name="Rectángulo 35683" d="M8.627,0H72.8a8.626,8.626,0,0,1,8.626,8.626V73.039A8.626,8.626,0,0,1,72.8,81.666H8.627A8.627,8.627,0,0,1,0,73.039V8.627A8.627,8.627,0,0,1,8.627,0Z" transform="translate(3900.503 588.34)" fill="#fff"/>
    <path id="Rectángulo_35684" data-name="Rectángulo 35684" d="M8.627,0H72.8a8.627,8.627,0,0,1,8.627,8.627V73.039A8.626,8.626,0,0,1,72.8,81.666H8.627A8.627,8.627,0,0,1,0,73.039V8.627A8.627,8.627,0,0,1,8.627,0Z" transform="translate(4005.69 588.34)" fill="#fff"/>
    <path id="Rectángulo_35685" data-name="Rectángulo 35685" d="M8.627,0H72.8a8.627,8.627,0,0,1,8.627,8.627V73.039A8.626,8.626,0,0,1,72.8,81.666H8.627A8.627,8.627,0,0,1,0,73.039V8.627A8.627,8.627,0,0,1,8.627,0Z" transform="translate(4108.768 588.34)" fill="#fff"/>
    <path id="Trazado_152581" data-name="Trazado 152581" d="M4161.968,727.912c-4.208,9.627-10.334,10.327-12.648,10.215q-.932-.046-1.865,0c-2.315.113-8.44-.587-12.649-10.215L4115,740.01l7.168,13.381,7.922-2.855v22.185h36.594V750.536l7.922,2.855,7.168-13.381Z" transform="translate(-101.961 -129.297)" fill="#cdcbfd"/>
    <path id="Trazado_152582" data-name="Trazado 152582" d="M4357.3,739.366c-.127-4.462.146-11.688.146-11.688h-4.382s-7.01,18.528-12.267,18.528-12.268-18.528-12.268-18.528h-4.381s.272,7.226.146,11.688a52.9,52.9,0,0,1-2.775,14.677l4.381,18.321H4355.7l4.381-18.321A52.925,52.925,0,0,1,4357.3,739.366Z" transform="translate(-192.164 -129.195)" fill="#cdcbfd"/>
    <g id="Grupo_107519" data-name="Grupo 107519" transform="translate(3921.894 599.053)">
      <g id="Grupo_107518" data-name="Grupo 107518" transform="translate(0 0)">
        <path id="Trazado_152583" data-name="Trazado 152583" d="M3973.782,759.963c-10.772-7.16-20.607,0-20.607,0l3.457,25.44h34.3l3.458-25.44S3984.555,752.8,3973.782,759.963Z" transform="translate(-3953.175 -740.96)" fill="#cdcbfd"/>
        <rect id="Rectángulo_35686" data-name="Rectángulo 35686" width="18.969" height="3.723" transform="matrix(0.109, -0.994, 0.994, 0.109, 34.634, 18.855)" fill="#cdcbfd"/>
        <rect id="Rectángulo_35687" data-name="Rectángulo 35687" width="3.723" height="18.969" transform="matrix(0.994, -0.109, 0.109, 0.994, 0.429, 0.407)" fill="#cdcbfd"/>
      </g>
    </g>
    <g id="Grupo_107520" data-name="Grupo 107520" transform="translate(3914.578 652.805)">
      <path id="Trazado_152584" data-name="Trazado 152584" d="M3992.152,826.742h-50.657a1.309,1.309,0,0,1-1.309-1.309h0a1.308,1.308,0,0,1,1.309-1.308h50.657a1.309,1.309,0,0,1,1.309,1.308h0A1.309,1.309,0,0,1,3992.152,826.742Z" transform="translate(-3940.186 -824.125)" fill="#cdcbfd"/>
      <path id="Trazado_152585" data-name="Trazado 152585" d="M3969.051,840.075h-27.556a1.308,1.308,0,0,1-1.309-1.308h0a1.308,1.308,0,0,1,1.309-1.309h27.556a1.308,1.308,0,0,1,1.309,1.309h0A1.308,1.308,0,0,1,3969.051,840.075Z" transform="translate(-3940.186 -829.948)" fill="#cdcbfd"/>
    </g>
    <g id="Grupo_107521" data-name="Grupo 107521" transform="translate(4019.765 652.805)">
      <path id="Trazado_152586" data-name="Trazado 152586" d="M4178.908,826.742h-50.657a1.309,1.309,0,0,1-1.309-1.309h0a1.309,1.309,0,0,1,1.309-1.308h50.657a1.308,1.308,0,0,1,1.309,1.308h0A1.308,1.308,0,0,1,4178.908,826.742Z" transform="translate(-4126.942 -824.125)" fill="#cdcbfd"/>
      <path id="Trazado_152587" data-name="Trazado 152587" d="M4155.808,840.075h-27.557a1.309,1.309,0,0,1-1.309-1.308h0a1.309,1.309,0,0,1,1.309-1.309h27.557a1.309,1.309,0,0,1,1.309,1.309h0A1.309,1.309,0,0,1,4155.808,840.075Z" transform="translate(-4126.942 -829.948)" fill="#cdcbfd"/>
    </g>
    <g id="Grupo_107522" data-name="Grupo 107522" transform="translate(4122.843 652.805)">
      <path id="Trazado_152588" data-name="Trazado 152588" d="M4361.92,826.742h-50.657a1.309,1.309,0,0,1-1.309-1.309h0a1.308,1.308,0,0,1,1.309-1.308h50.657a1.309,1.309,0,0,1,1.309,1.308h0A1.309,1.309,0,0,1,4361.92,826.742Z" transform="translate(-4309.954 -824.125)" fill="#cdcbfd"/>
      <path id="Trazado_152589" data-name="Trazado 152589" d="M4338.819,840.075h-27.557a1.309,1.309,0,0,1-1.309-1.308h0a1.309,1.309,0,0,1,1.309-1.309h27.557a1.309,1.309,0,0,1,1.309,1.309h0A1.309,1.309,0,0,1,4338.819,840.075Z" transform="translate(-4309.954 -829.948)" fill="#cdcbfd"/>
    </g>
    <g id="Grupo_107524" data-name="Grupo 107524" transform="translate(3970.745 579.931)">
      <g id="Grupo_107523" data-name="Grupo 107523" transform="translate(0 0)">
        <circle id="Elipse_5227" data-name="Elipse 5227" cx="10.561" cy="10.561" r="10.561" fill="#8781fd"/>
        <path id="Trazado_152590" data-name="Trazado 152590" d="M4058.982,705.42c-2.692-1.915-5.039,1.518-5.039,1.518s-2.347-3.433-5.039-1.518c-3.069,2.183,1.242,9.871,5.039,11.459C4057.74,715.291,4062.051,707.6,4058.982,705.42Z" transform="translate(-4043.382 -699.15)" fill="#8781fd"/>
      </g>
    </g>
    <g id="Grupo_107525" data-name="Grupo 107525" transform="translate(3967.853 578.966)">
      <circle id="Elipse_5228" data-name="Elipse 5228" cx="10.561" cy="10.561" r="10.561" fill="#fff"/>
      <path id="Trazado_152591" data-name="Trazado 152591" d="M4053.846,703.708c-2.692-1.915-5.039,1.518-5.039,1.518s-2.347-3.433-5.039-1.518c-3.069,2.183,1.242,9.871,5.039,11.459C4052.6,713.579,4056.915,705.891,4053.846,703.708Z" transform="translate(-4038.246 -697.439)" fill="#00affd"/>
    </g>
    <g id="Grupo_107527" data-name="Grupo 107527" transform="translate(4018.578 534.292)">
      <rect id="Rectángulo_35688" data-name="Rectángulo 35688" width="42.069" height="42.068" rx="8.071" fill="#fff"/>
      <g id="Grupo_107526" data-name="Grupo 107526" transform="translate(6.926 7.33)">
        <path id="Trazado_152592" data-name="Trazado 152592" d="M4161.676,646.8H4141.7l-4.57-14.344h24.545Z" transform="translate(-4137.131 -629.227)" fill="#cdcbfd"/>
        <path id="Trazado_152593" data-name="Trazado 152593" d="M4168.471,651.95h-17.139v-1.185h15.955V626.723h5.037v1.185h-3.852Z" transform="translate(-4143.333 -626.723)" fill="#cdcbfd"/>
        <path id="Trazado_152594" data-name="Trazado 152594" d="M4176.7,671.142a1.777,1.777,0,1,0,1.777,1.778A1.777,1.777,0,0,0,4176.7,671.142Zm0,2.511a.734.734,0,1,1,.733-.733A.734.734,0,0,1,4176.7,673.653Z" transform="translate(-4153.638 -646.124)" fill="#cdcbfd"/>
        <path id="Trazado_152595" data-name="Trazado 152595" d="M4155.775,671.142a1.777,1.777,0,1,0,1.777,1.778A1.777,1.777,0,0,0,4155.775,671.142Zm0,2.511a.734.734,0,1,1,.733-.733A.734.734,0,0,1,4155.775,673.653Z" transform="translate(-4144.498 -646.124)" fill="#cdcbfd"/>
      </g>
    </g>
    <g id="Grupo_107528" data-name="Grupo 107528" transform="translate(3900.503 562.737)">
      <rect id="Rectángulo_35689" data-name="Rectángulo 35689" width="8.684" height="8.684" rx="3.024" transform="translate(0 0)" fill="#cdcbfd"/>
    </g>
    <g id="Grupo_107529" data-name="Grupo 107529" transform="translate(3900.503 548.032)">
      <rect id="Rectángulo_35690" data-name="Rectángulo 35690" width="8.684" height="8.684" rx="3.024" transform="translate(0 0)" fill="#cdcbfd"/>
    </g>
    <g id="Grupo_107530" data-name="Grupo 107530" transform="translate(3900.503 534.292)">
      <rect id="Rectángulo_35691" data-name="Rectángulo 35691" width="8.684" height="8.684" rx="3.024" fill="#cdcbfd"/>
    </g>
    <path id="Trazado_152596" data-name="Trazado 152596" d="M4029.031,622.594h-85.216a1.688,1.688,0,0,1-1.687-1.687h0a1.688,1.688,0,0,1,1.688-1.687h85.216a1.687,1.687,0,0,1,1.688,1.687h0A1.687,1.687,0,0,1,4029.031,622.594Z" transform="translate(-26.456 -81.824)" fill="#cdcbfd"/>
    <path id="Trazado_152597" data-name="Trazado 152597" d="M4029.031,672.3h-85.216a1.688,1.688,0,0,1-1.687-1.687h0a1.688,1.688,0,0,1,1.688-1.687h85.216a1.687,1.687,0,0,1,1.688,1.687h0A1.687,1.687,0,0,1,4029.031,672.3Z" transform="translate(-26.456 -103.534)" fill="#cdcbfd"/>
    <path id="Trazado_152598" data-name="Trazado 152598" d="M4029.031,646.193h-85.216a1.688,1.688,0,0,1-1.687-1.687h0a1.688,1.688,0,0,1,1.688-1.687h85.216a1.687,1.687,0,0,1,1.688,1.688h0A1.687,1.687,0,0,1,4029.031,646.193Z" transform="translate(-26.456 -92.131)" fill="#cdcbfd"/>
    <g id="Grupo_107531" data-name="Grupo 107531" transform="translate(4165.317 571.667)">
      <path id="Trazado_152599" data-name="Trazado 152599" d="M4474.1,689.6s-2.39-1.534-1.232-5.224,7.539-7,16.695-1.041,12.09-2.933,22.5,2.46,4.384,11.694,16.684,13.3,11.67,12.126,6.5,14.616c-4.589,2.21-8.439-1.908-18.229-.187-9.345,1.643-10.738-8.092-16.7-8.187s-9.641,2.974-17.589-2.514S4474.1,689.6,4474.1,689.6Z" transform="translate(-4423.448 -680.068)" fill="#ffa368"/>
      <path id="Trazado_152600" data-name="Trazado 152600" d="M4489.959,725.727l-9.326,1.061-.26-5.538-.163-3.411,1.167-3.365.617-1.79,5.446-2.269Z" transform="translate(-4426.791 -693.322)" fill="#ffc8c7"/>
      <path id="Trazado_152601" data-name="Trazado 152601" d="M4463.285,985.787a60.087,60.087,0,0,1,.884,7.074c.081,2.733,0,5.788,0,5.788h-5.145s-.482-1.769-1.206-1.527-1.125,1.527-5.546,1.527h-8.36s-.724-1.447,2.25-3.055,8.521-2.733,8.682-9.244S4463.285,985.787,4463.285,985.787Z" transform="translate(-4410.904 -812.511)" fill="#070157"/>
      <path id="Trazado_152602" data-name="Trazado 152602" d="M4559.96,950.91a60.109,60.109,0,0,1,5.517,4.516c1.942,1.925,3.989,4.193,3.989,4.193l-3.727,3.546s-1.569-.948-1.927-.275.237,1.882-2.965,4.929l-6.057,5.763s-1.522-.55-.476-3.765,4.289-7.853-.083-12.681S4559.96,950.91,4559.96,950.91Z" transform="translate(-4458.642 -798.363)" fill="#070157"/>
      <path id="Trazado_152603" data-name="Trazado 152603" d="M4481.449,840.609c-.7,1.831-2.162,5.048-3.92,8.8-4.432,9.444-10.733,22.262-11.407,24.7a5.978,5.978,0,0,0-.143.938v.005c-.653,6.782.52,40.313.52,40.313l-9.937.657s-6.338-34.536-6.527-42.1,10.407-47.5,10.407-47.5l15.521-5.3S4483.907,834.175,4481.449,840.609Z" transform="translate(-4413.61 -741.673)" fill="#09005d"/>
      <path id="Trazado_152604" data-name="Trazado 152604" d="M4489.273,866.029c-4.432,9.444-10.733,22.262-11.407,24.7a5.978,5.978,0,0,0-.143.938c-2.2-3.446.795-8.663,1.05-14.9s4.446-17.586,4.446-17.586Z" transform="translate(-4425.355 -758.297)" fill="#060042"/>
      <path id="Trazado_152605" data-name="Trazado 152605" d="M4485.843,847.86s6.7,26.625,9.258,30.409,27.725,22.9,27.725,22.9l6.624-6.624s-21.384-23.087-21.573-24.034-1.7-28.386-3.6-35.009-7.57-14.382-7.57-14.382l-16.5,1.586Z" transform="translate(-4426.791 -741.675)" fill="#09005d"/>
      <path id="Trazado_152606" data-name="Trazado 152606" d="M4464.938,789.507s-3.187.6-8.8,1.764c-1.668.342-3.549.734-5.625,1.178a31.1,31.1,0,0,1-15.669-.434s1.433-4.125,3.024-8.515c2.239-6.17.632-16.337-1.637-19.366s-1.387-7.822-1.387-7.822l0,.005c-.235.148-7.3,4.528-12.161,5.129a8.011,8.011,0,0,1-1.423.056c-2.264-.143-12.528-6.2-18.458-13.013S4398,738.4,4398,738.4l4.039-3.406c8.576,3.565,17.28,12.9,18.04,13.406s6.308-1.672,13.625-6.97a26.433,26.433,0,0,1,9.51-4.069,37.873,37.873,0,0,1,8.469-.979,25.246,25.246,0,0,1,4.9.418c5.227,1.03,7.787,4.054,8.281,9.8.362,4.211-.693,9.887-1.7,14.711a81.189,81.189,0,0,0-1.576,8.378C4461.333,773.725,4464.938,789.507,4464.938,789.507Z" transform="translate(-4390.847 -704.057)" fill="#fc6473"/>
      <path id="Trazado_152607" data-name="Trazado 152607" d="M4396.559,724.765s-9.967-13.562-11.007-13.184,2.649,5.512,2.554,6.588-2.649,2.78-1.892,5.145,6.308,4.857,6.308,4.857Z" transform="translate(-4385.366 -693.828)" fill="#ffc8c7"/>
      <path id="Trazado_152608" data-name="Trazado 152608" d="M4491.713,734.885a9.178,9.178,0,0,1-8.943,5.033,4.319,4.319,0,0,1-4.426-4.472c.5-.114.98-.215,1.453-.3,3.96-.748,6.885-4.529,6.885-4.529.818,0,1.726,3.881,2.462,3.935A21.036,21.036,0,0,1,4491.713,734.885Z" transform="translate(-4425.975 -702.144)" fill="#ffc8c7"/>
      <path id="Trazado_152609" data-name="Trazado 152609" d="M4486.9,716.506c-.286,5.512-6.527,6.47-6.527,6.47l-.163-3.411,1.167-3.365C4483.733,714.594,4487.088,712.906,4486.9,716.506Z" transform="translate(-4426.791 -695.049)" fill="#edb1b0"/>
      <path id="Trazado_152610" data-name="Trazado 152610" d="M4475.255,692.758s-2.774,12.227,0,16.748,8.323-.411,9.966-4.11c0,0,1.436.781,3.08-1s1.207-3.574.042-4.122a2.329,2.329,0,0,0-2.762.425s-1.484-1.771-3.6-4.555C4478.107,691.035,4475.255,692.758,4475.255,692.758Z" transform="translate(-4424.088 -685.488)" fill="#ffc8c7"/>
      <path id="Trazado_152611" data-name="Trazado 152611" d="M4499.063,805.983c.825-7.587-3.034-6.771-2.861-11.534s3.825-7.22,4.59-11.9,7.072-13.864,7.072-13.864c-.75,3.564-3.243,14-3.351,15.715-.255,4.038,3.351,19.82,3.351,19.82s-3.187.6-8.8,1.764Z" transform="translate(-4433.773 -718.775)" fill="#ed5665"/>
      <path id="Trazado_152612" data-name="Trazado 152612" d="M4455.055,765.467l-1.01,4.156,0,.005c-.234.148-7.3,4.528-12.161,5.129.714-1.28,4.1-2.05,5.441-4.533C4448.768,767.547,4455.055,765.467,4455.055,765.467Z" transform="translate(-4410.049 -717.368)" fill="#ed5665"/>
      <rect id="Rectángulo_35692" data-name="Rectángulo 35692" width="10.29" height="0.482" transform="translate(42.53 171.874) rotate(-4.141)" fill="#00affd"/>
      <rect id="Rectángulo_35693" data-name="Rectángulo 35693" width="10.29" height="0.482" transform="translate(42.53 173.435) rotate(-4.141)" fill="#00affd"/>
      <rect id="Rectángulo_35694" data-name="Rectángulo 35694" width="9.593" height="0.482" transform="translate(94.877 158.578) rotate(-46.544)" fill="#00affd"/>
      <rect id="Rectángulo_35695" data-name="Rectángulo 35695" width="9.896" height="0.482" transform="translate(93.462 157.492) rotate(-46.344)" fill="#00affd"/>
      <path id="Trazado_152613" data-name="Trazado 152613" d="M4535.973,859.35l-2.4-8.879a5.288,5.288,0,1,1,10.208-2.762l2.4,8.879Zm2.7-15.067a4.807,4.807,0,0,0-4.642,6.062l2.277,8.414,9.276-2.51-2.276-8.414A4.814,4.814,0,0,0,4538.677,844.283Z" transform="translate(-4450.016 -751.581)" fill="#00affd"/>
      <path id="Trazado_152614" data-name="Trazado 152614" d="M4520.367,864.363l5.03,30.907,6.576-1.779-10.206-29.507Z" transform="translate(-4444.331 -760.397)" fill="#8980fd"/>
      <path id="Trazado_152615" data-name="Trazado 152615" d="M4507.774,760.925s6.183,8.957,7.444,12.616,2.9,18.672,6.182,20.69l5.046-1.009s3.785-7.948.757-23.466-16.973-29.167-21.857-30.236S4507.774,760.925,4507.774,760.925Z" transform="translate(-4437.035 -706.019)" fill="#fc6473"/>
      <path id="Trazado_152616" data-name="Trazado 152616" d="M4534.591,835.9a26.884,26.884,0,0,0-.725,4.384c0,1.419.9,5.346,1.324,4.731a11.7,11.7,0,0,0,.852-4.525s-.047,4.478,2.175,4.052a4.9,4.9,0,0,0,3.549-3.123c.52-1.434-2.129-6.528-2.129-6.528Z" transform="translate(-4450.226 -747.692)" fill="#ffc8c7"/>
      <path id="Trazado_152617" data-name="Trazado 152617" d="M4538.5,899.486c-2.132-1.972-20.845-19.308-21.355-20.769s-5.751-44.077-5.975-45.892l.478-.059c1.887,15.346,5.559,44.666,5.952,45.791.357,1.019,12.89,12.863,21.228,20.574Z" transform="translate(-4440.313 -746.762)" fill="#00affd"/>
      <path id="Trazado_152618" data-name="Trazado 152618" d="M4557.049,881.777l-26.73,7.233-8.136-30.067,24.721-6.689Z" transform="translate(-4445.124 -755.273)" fill="#00affd"/>
    </g>
    <g id="Grupo_107535" data-name="Grupo 107535" transform="translate(3881.66 568.823)">
      <g id="Grupo_107534" data-name="Grupo 107534">
        <path id="Trazado_152619" data-name="Trazado 152619" d="M3907.967,794.921s-24.367-9.108-26.055-18.757c-1.491-8.512,7.2-26.625,11.429-31.331.277-.307,1.081.144,1.242.523l4.844,13,1.059,2.847s-8.2,11.822-7.191,13.27,10.327,9.951,10.327,9.951Z" transform="translate(-3881.742 -705.466)" fill="#09005d"/>
        <path id="Trazado_152620" data-name="Trazado 152620" d="M3901.172,782.363c-2.818-2.926-.429-5.631-.858-10.136s2.416-9.438,2.416-9.438l4.574,3.458,1.059,2.847S3900.162,780.915,3901.172,782.363Z" transform="translate(-3889.618 -713.353)" fill="#060042"/>
        <path id="Trazado_152621" data-name="Trazado 152621" d="M3932.95,844.166s-.073.454-.2,1.248c-.76,4.793-3.445,21.985-3.6,26.795-.037,1.156-.288,3.6-.658,6.755-1.437,12.158-4.709,34.86-4.709,34.86h-10.062s-.854-52.832-2.3-62.964,0-25.694,0-25.694h13.207Z" transform="translate(-3894.423 -740.598)" fill="#00affd"/>
        <path id="Trazado_152622" data-name="Trazado 152622" d="M3917.141,982.576a24.909,24.909,0,0,1-.814,5.519c-.724,2.352,0,9.077,0,9.077h6.6s.9-1.387,2.171-.844a11.68,11.68,0,0,0,4.614.844h4.433s-.543-3.468-3.348-4.373-5.337-5.247-5.156-10.223Z" transform="translate(-3896.707 -809.349)" fill="#09005d"/>
        <path id="Trazado_152623" data-name="Trazado 152623" d="M3941.891,856.429c-.76,4.793-3.445,21.985-3.6,26.795-.037,1.156-.288,3.6-.658,6.755-.97-2.371-.952-6.764-2.458-9.469-2.038-3.659-.536-9.423-2.682-15.215s.751-14.909.751-14.909Z" transform="translate(-3903.563 -751.613)" fill="#009fe6"/>
        <path id="Trazado_152624" data-name="Trazado 152624" d="M3939.809,709.989l-1.246,9.653-.189,1.461-11.689-.556.208-1.928.7-6.549v-9.318l2.081-1.266,5.607,5.247Z" transform="translate(-3901.371 -686.578)" fill="#ffc8c7"/>
        <path id="Trazado_152625" data-name="Trazado 152625" d="M3938.563,729.764l-.189,1.461-11.689-.555.208-1.928C3928.163,728.633,3934.941,728.15,3938.563,729.764Z" transform="translate(-3901.372 -698.416)" fill="#00affd"/>
        <path id="Trazado_152626" data-name="Trazado 152626" d="M3940.131,684.3l5.428,12.032-6.242,2.8h-3.167l-6.242-8.956Z" transform="translate(-3902.78 -679.071)" fill="#ffc8c7"/>
        <path id="Trazado_152627" data-name="Trazado 152627" d="M3931.731,693.181s2.888-.181,4.064-1.357,2.533-3.257,3.98-2.262,3.709,6.062,1.176,8.776-9.951,3.89-11.037,1.538-1.809-6.242-3.257-7.508-3.438,0-2.443,3.257a4.4,4.4,0,0,1-1.176,4.885s-6.695-5.247-6.785-10.585,2.442-7.6,5.7-8.414c0,0,2.82-7.69,9.778-6.332s4.425,6.6,2.073,7.961-6.785,3.273-6.695,4.939S3928.941,693.776,3931.731,693.181Z" transform="translate(-3896.815 -675.018)" fill="#ffa368"/>
        <path id="Trazado_152628" data-name="Trazado 152628" d="M3928.3,825.7s1.4,9.231,11.218,21.056c11.365,13.683,16.586,20.118,16.586,20.118s1.688,13.83,3.317,20.163,5.12,22.436,5.12,22.436h10.44s-3.075-41.977-3.618-47.4-23.7-46.862-23.7-46.862Z" transform="translate(-3902.078 -736.249)" fill="#00affd"/>
        <path id="Trazado_152629" data-name="Trazado 152629" d="M3994.04,982.576a26,26,0,0,1-.966,6.755c-.964,3.016,0,7.841,0,7.841h5.911s1.448-1.81,3.2-.965,4.4.965,9.228.965h4.825s-1.99-3.739-4.282-4.463-8.745-2.533-9.771-10.133Z" transform="translate(-3930.181 -809.349)" fill="#09005d"/>
        <path id="Trazado_152630" data-name="Trazado 152630" d="M3918.656,731.318c-6.9.427-15.141,5.845-16.475,7.418-2.169,2.559,3.124,23.973,3.319,28.908.33,8.366-.052,18.678.491,21.573a3.887,3.887,0,0,0,3.076,3.257h24.607s7.78-.542,7.418-16.827,1.588-29.9-1.126-35.51S3928.166,730.729,3918.656,731.318Z" transform="translate(-3890.441 -699.581)" fill="#09005d"/>
        <g id="Grupo_107533" data-name="Grupo 107533" transform="translate(18.731 24.767)">
          <path id="Trazado_152631" data-name="Trazado 152631" d="M3991.349,748.6l-41.582,50.69a6.06,6.06,0,0,1-8.528.841l-24.023-19.707a6.059,6.059,0,0,1-.842-8.527l41.583-50.689a6.059,6.059,0,0,1,8.527-.842l24.024,19.708A6.059,6.059,0,0,1,3991.349,748.6Z" transform="translate(-3914.999 -718.991)" fill="#ffa368"/>
          <rect id="Rectángulo_35696" data-name="Rectángulo 35696" width="77.681" height="10.953" transform="translate(2.757 61.877) rotate(-50.637)" fill="#fc6473"/>
          <g id="Grupo_107532" data-name="Grupo 107532" transform="translate(52.593 21.584)">
            <path id="Trazado_152632" data-name="Trazado 152632" d="M4019.293,768a6.68,6.68,0,1,1-9.4.928A6.681,6.681,0,0,1,4019.293,768Z" transform="translate(-4008.376 -761.318)" fill="#fc6473"/>
            <path id="Trazado_152633" data-name="Trazado 152633" d="M4026.816,758.829a6.681,6.681,0,1,1-9.4.928A6.68,6.68,0,0,1,4026.816,758.829Z" transform="translate(-4011.662 -757.313)" fill="#8095fd"/>
          </g>
          <path id="Trazado_152634" data-name="Trazado 152634" d="M3989.669,807.867,3968.643,833.5a1.077,1.077,0,0,0,.15,1.516h0a1.077,1.077,0,0,0,1.516-.15l21.025-25.631a1.077,1.077,0,0,0-.149-1.516h0A1.078,1.078,0,0,0,3989.669,807.867Z" transform="translate(-3938.322 -757.637)" fill="#fc6473"/>
          <rect id="Rectángulo_35697" data-name="Rectángulo 35697" width="20.857" height="2.155" rx="1.077" transform="matrix(0.634, -0.773, 0.773, 0.634, 26.138, 73.823)" fill="#fc6473"/>
        </g>
        <path id="Trazado_152635" data-name="Trazado 152635" d="M3949.632,736.228c-5.083.686-4.222,8.443-.965,17.611s9.6,17.566,11.245,18.49c8.266,4.639,27.9,3.991,27.9,3.991l1.3-5.775s-20.631-4.536-22.768-7.328S3962.236,734.526,3949.632,736.228Z" transform="translate(-3909.818 -701.717)" fill="#09005d"/>
        <path id="Trazado_152636" data-name="Trazado 152636" d="M4021.515,795.031a40.745,40.745,0,0,1,4.236-2.126c2.243-.95,2.65-.9,2.6,0s-2.85,2.759-2.85,2.759,3.574.362,3.754,1.357-1.628,4.795-3.031,5.111-6.016-1.326-6.016-1.326Z" transform="translate(-3942.222 -726.203)" fill="#ffc8c7"/>
        <path id="Trazado_152637" data-name="Trazado 152637" d="M3990.094,930.51c-.193-1.819-4.72-44.554-4.72-45.627-.067-.862-6.687-13.235-11.121-21.341l.423-.232c1.144,2.092,11.18,20.471,11.18,21.573,0,1.048,4.67,45.131,4.718,45.576Z" transform="translate(-3922.148 -757.258)" fill="#fff"/>
      </g>
    </g>
    <path id="Trazado_152638" data-name="Trazado 152638" d="M3887.357,486.191l-5.8-5.04,5.04-5.8,5.8,5.04Zm-4.781-5.111,4.71,4.091,4.091-4.71-4.71-4.091Z" transform="translate(0 -18.986)" fill="#8781fb"/>
    <g id="Grupo_107544" data-name="Grupo 107544" transform="translate(3932.34 431.88)">
      <g id="Grupo_107539" data-name="Grupo 107539" transform="translate(59.306)">
        <g id="Grupo_107538" data-name="Grupo 107538">
          <path id="Trazado_152639" data-name="Trazado 152639" d="M4077.019,468.168h51.5a4.315,4.315,0,0,0-3.65-4.264l-39.637-6.185Z" transform="translate(-4077.019 -443.166)" fill="#8781ff"/>
          <rect id="Rectángulo_35698" data-name="Rectángulo 35698" width="1.763" height="19.181" transform="translate(39.93 0.597)" fill="#8781ff"/>
          <g id="Grupo_107536" data-name="Grupo 107536" transform="translate(41.693 3.806)">
            <path id="Trazado_152640" data-name="Trazado 152640" d="M4166.791,440.5h-13.882a1.866,1.866,0,0,1-1.866-1.866h17.613A1.865,1.865,0,0,1,4166.791,440.5Z" transform="translate(-4151.043 -438.638)" fill="#3222c3"/>
          </g>
          <g id="Grupo_107537" data-name="Grupo 107537" transform="translate(22.316 3.806)">
            <path id="Trazado_152641" data-name="Trazado 152641" d="M4132.388,440.5h-13.882a1.866,1.866,0,0,1-1.866-1.866h17.614A1.866,1.866,0,0,1,4132.388,440.5Z" transform="translate(-4116.64 -438.638)" fill="#3222c3"/>
          </g>
          <rect id="Rectángulo_35699" data-name="Rectángulo 35699" width="3.219" height="2.314" transform="translate(39.202)" fill="#8781ff"/>
        </g>
      </g>
      <g id="Grupo_107543" data-name="Grupo 107543">
        <g id="Grupo_107542" data-name="Grupo 107542">
          <path id="Trazado_152642" data-name="Trazado 152642" d="M4037.084,468.168h-51.5a4.316,4.316,0,0,1,3.65-4.264l39.638-6.185Z" transform="translate(-3977.778 -443.166)" fill="#8781ff"/>
          <rect id="Rectángulo_35700" data-name="Rectángulo 35700" width="1.763" height="19.181" transform="translate(17.614 0.597)" fill="#8781ff"/>
          <g id="Grupo_107540" data-name="Grupo 107540" transform="translate(0 3.806)">
            <path id="Trazado_152643" data-name="Trazado 152643" d="M3973.589,440.5h13.882a1.866,1.866,0,0,0,1.866-1.866h-17.614A1.866,1.866,0,0,0,3973.589,440.5Z" transform="translate(-3971.723 -438.638)" fill="#3222c3"/>
          </g>
          <g id="Grupo_107541" data-name="Grupo 107541" transform="translate(19.377 3.806)">
            <path id="Trazado_152644" data-name="Trazado 152644" d="M4007.992,440.5h13.882a1.866,1.866,0,0,0,1.865-1.866h-17.613A1.866,1.866,0,0,0,4007.992,440.5Z" transform="translate(-4006.126 -438.638)" fill="#3222c3"/>
          </g>
          <rect id="Rectángulo_35701" data-name="Rectángulo 35701" width="3.219" height="2.314" transform="translate(16.886)" fill="#8781ff"/>
        </g>
      </g>
      <path id="Trazado_152645" data-name="Trazado 152645" d="M4080.906,475.928l-.171.241-1.492,2.112-3.261,4.616H4051.2l-3.264-4.616-1.492-2.112-.171-.241Z" transform="translate(-4004.285 -451.119)" fill="#8781ff"/>
      <path id="Trazado_152646" data-name="Trazado 152646" d="M4063.592,441.951h0a17.315,17.315,0,0,0-17.315,17.315v2.064h34.63v-2.064A17.315,17.315,0,0,0,4063.592,441.951Z" transform="translate(-4004.286 -436.279)" fill="#8781ff"/>
      <rect id="Rectángulo_35702" data-name="Rectángulo 35702" width="74.038" height="25.674" transform="translate(22.288 71.948)" fill="#ffa368"/>
      <rect id="Rectángulo_35703" data-name="Rectángulo 35703" width="10.449" height="3.623" transform="translate(83.637 77.98)" fill="#fc6473"/>
      <rect id="Rectángulo_35704" data-name="Rectángulo 35704" width="6.866" height="25.674" transform="translate(55.873 71.948)" fill="#fc6473"/>
      <rect id="Rectángulo_35705" data-name="Rectángulo 35705" width="78.363" height="0.482" transform="translate(22.208 97.393) rotate(-19.123)"/>
      <rect id="Rectángulo_35706" data-name="Rectángulo 35706" width="0.482" height="78.363" transform="translate(22.209 72.176) rotate(-70.875)"/>
      <rect id="Rectángulo_35707" data-name="Rectángulo 35707" width="46.064" height="0.482" transform="translate(22.492 71.074) rotate(-58.276)"/>
      <rect id="Rectángulo_35708" data-name="Rectángulo 35708" width="0.482" height="46.194" transform="translate(71.491 32.146) rotate(-31.893)"/>
      <rect id="Rectángulo_35709" data-name="Rectángulo 35709" width="0.482" height="39.93" transform="translate(59.065 32.018)"/>
      <path id="Trazado_152647" data-name="Trazado 152647" d="M4080.867,476.356l-1.492,2.112h-31.3l-1.492-2.112Z" transform="translate(-4004.417 -451.306)" fill="#3222c3"/>
      <path id="Trazado_152648" data-name="Trazado 152648" d="M4077.271,483.24a1.125,1.125,0,1,1-1.125-1.125A1.125,1.125,0,0,1,4077.271,483.24Z" transform="translate(-4016.84 -453.821)" fill="#3222c3"/>
      <path id="Trazado_152649" data-name="Trazado 152649" d="M4089.968,483.24a1.125,1.125,0,1,1-1.125-1.125A1.125,1.125,0,0,1,4089.968,483.24Z" transform="translate(-4022.386 -453.821)" fill="#3222c3"/>
      <circle id="Elipse_5229" data-name="Elipse 5229" cx="1.125" cy="1.125" r="1.125" transform="translate(50.788 28.294)" fill="#3222c3"/>
    </g>
  </g>
</svg>
