<svg xmlns="http://www.w3.org/2000/svg" width="817" height="438.548" viewBox="0 0 817 438.548">
  <g id="Grupo_107618" data-name="Grupo 107618" transform="translate(-394 -1066.451)">
    <path id="Trazado_152680" data-name="Trazado 152680" d="M3.359,13.117H8.336V15H1.016V3.625H3.359ZM14.43,15a2.507,2.507,0,0,1-.227-.758,2.732,2.732,0,0,1-2.133.914,3,3,0,0,1-2.059-.719A2.312,2.312,0,0,1,9.2,12.625a2.389,2.389,0,0,1,1-2.062,4.915,4.915,0,0,1,2.879-.727h1.039V9.352a1.393,1.393,0,0,0-.3-.937,1.183,1.183,0,0,0-.949-.352,1.345,1.345,0,0,0-.895.273.929.929,0,0,0-.324.75H9.383a2.268,2.268,0,0,1,.453-1.359,3,3,0,0,1,1.281-.98,4.669,4.669,0,0,1,1.859-.355,3.689,3.689,0,0,1,2.48.785,2.747,2.747,0,0,1,.918,2.207v3.664a4.041,4.041,0,0,0,.336,1.82V15Zm-1.867-1.57a1.945,1.945,0,0,0,.922-.223,1.462,1.462,0,0,0,.625-.6V11.156h-.844q-1.7,0-1.8,1.172l-.008.133a.9.9,0,0,0,.3.7A1.153,1.153,0,0,0,12.563,13.43Zm13.047-.094a1.481,1.481,0,0,0,1.016-.344,1.2,1.2,0,0,0,.406-.914h2.117a2.9,2.9,0,0,1-.469,1.574,3.093,3.093,0,0,1-1.262,1.109,3.949,3.949,0,0,1-1.77.395A3.67,3.67,0,0,1,22.789,14a4.56,4.56,0,0,1-1.047-3.184v-.148a4.508,4.508,0,0,1,1.039-3.117,3.627,3.627,0,0,1,2.852-1.164,3.555,3.555,0,0,1,2.543.9,3.2,3.2,0,0,1,.973,2.4H27.031a1.551,1.551,0,0,0-.406-1.072,1.51,1.51,0,0,0-2.223.163,3.333,3.333,0,0,0-.4,1.866v.235a3.375,3.375,0,0,0,.4,1.878A1.377,1.377,0,0,0,25.609,13.336ZM35.336,15a2.507,2.507,0,0,1-.227-.758,2.732,2.732,0,0,1-2.133.914,3,3,0,0,1-2.059-.719,2.312,2.312,0,0,1-.816-1.812,2.389,2.389,0,0,1,1-2.062,4.915,4.915,0,0,1,2.879-.727h1.039V9.352a1.393,1.393,0,0,0-.3-.937,1.183,1.183,0,0,0-.949-.352,1.345,1.345,0,0,0-.895.273.929.929,0,0,0-.324.75H30.289a2.268,2.268,0,0,1,.453-1.359,3,3,0,0,1,1.281-.98,4.669,4.669,0,0,1,1.859-.355,3.689,3.689,0,0,1,2.48.785,2.747,2.747,0,0,1,.918,2.207v3.664a4.041,4.041,0,0,0,.336,1.82V15Zm-1.867-1.57a1.945,1.945,0,0,0,.922-.223,1.462,1.462,0,0,0,.625-.6V11.156h-.844q-1.7,0-1.8,1.172l-.008.133a.9.9,0,0,0,.3.7A1.153,1.153,0,0,0,33.469,13.43Zm13.156-2.578a5.07,5.07,0,0,1-.887,3.129,2.843,2.843,0,0,1-2.395,1.176,2.633,2.633,0,0,1-2.07-.891V18.25H39.016V6.547h2.094l.078.828a2.654,2.654,0,0,1,2.141-.984,2.862,2.862,0,0,1,2.43,1.156,5.207,5.207,0,0,1,.867,3.188Zm-2.258-.172a3.345,3.345,0,0,0-.418-1.826,1.36,1.36,0,0,0-1.215-.643,1.478,1.478,0,0,0-1.461.815V12.5a1.5,1.5,0,0,0,1.477.839Q44.367,13.336,44.367,10.679ZM52.922,15a2.507,2.507,0,0,1-.227-.758,2.732,2.732,0,0,1-2.133.914,3,3,0,0,1-2.059-.719,2.312,2.312,0,0,1-.816-1.812,2.389,2.389,0,0,1,1-2.062,4.915,4.915,0,0,1,2.879-.727H52.6V9.352a1.393,1.393,0,0,0-.3-.937,1.183,1.183,0,0,0-.949-.352,1.345,1.345,0,0,0-.895.273.929.929,0,0,0-.324.75H47.875a2.268,2.268,0,0,1,.453-1.359,3,3,0,0,1,1.281-.98,4.669,4.669,0,0,1,1.859-.355,3.689,3.689,0,0,1,2.48.785,2.747,2.747,0,0,1,.918,2.207v3.664a4.041,4.041,0,0,0,.336,1.82V15Zm-1.867-1.57a1.945,1.945,0,0,0,.922-.223,1.462,1.462,0,0,0,.625-.6V11.156h-.844q-1.7,0-1.8,1.172l-.008.133a.9.9,0,0,0,.3.7A1.153,1.153,0,0,0,51.055,13.43Zm9.063-.094a1.481,1.481,0,0,0,1.016-.344,1.2,1.2,0,0,0,.406-.914h2.117a2.9,2.9,0,0,1-.469,1.574,3.093,3.093,0,0,1-1.262,1.109,3.949,3.949,0,0,1-1.77.395A3.67,3.67,0,0,1,57.3,14,4.56,4.56,0,0,1,56.25,10.82v-.148a4.508,4.508,0,0,1,1.039-3.117,3.627,3.627,0,0,1,2.852-1.164,3.555,3.555,0,0,1,2.543.9,3.2,3.2,0,0,1,.973,2.4H61.539a1.551,1.551,0,0,0-.406-1.072,1.51,1.51,0,0,0-2.223.163,3.333,3.333,0,0,0-.4,1.866v.235a3.375,3.375,0,0,0,.4,1.878A1.377,1.377,0,0,0,60.117,13.336ZM67.328,15H65.063V6.547h2.266ZM64.93,4.359a1.112,1.112,0,0,1,.34-.836,1.465,1.465,0,0,1,1.848,0,1.105,1.105,0,0,1,.344.836,1.108,1.108,0,0,1-.348.844,1.448,1.448,0,0,1-1.836,0A1.108,1.108,0,0,1,64.93,4.359Zm3.906,6.352a5.094,5.094,0,0,1,.887-3.148,2.877,2.877,0,0,1,2.426-1.172,2.589,2.589,0,0,1,2.039.922V3h2.266V15H74.414l-.109-.9a2.657,2.657,0,0,1-2.172,1.055,2.869,2.869,0,0,1-2.395-1.176A5.258,5.258,0,0,1,68.836,10.711Zm2.258.161a3.355,3.355,0,0,0,.414,1.829,1.348,1.348,0,0,0,1.2.636,1.51,1.51,0,0,0,1.477-.887V9.1a1.489,1.489,0,0,0-1.461-.887Q71.094,8.211,71.094,10.872ZM83.1,15a2.507,2.507,0,0,1-.227-.758,2.732,2.732,0,0,1-2.133.914,3,3,0,0,1-2.059-.719,2.312,2.312,0,0,1-.816-1.812,2.389,2.389,0,0,1,1-2.062,4.915,4.915,0,0,1,2.879-.727h1.039V9.352a1.393,1.393,0,0,0-.3-.937,1.183,1.183,0,0,0-.949-.352,1.345,1.345,0,0,0-.895.273.929.929,0,0,0-.324.75H78.055a2.268,2.268,0,0,1,.453-1.359,3,3,0,0,1,1.281-.98,4.669,4.669,0,0,1,1.859-.355,3.689,3.689,0,0,1,2.48.785,2.747,2.747,0,0,1,.918,2.207v3.664a4.041,4.041,0,0,0,.336,1.82V15Zm-1.867-1.57a1.945,1.945,0,0,0,.922-.223,1.462,1.462,0,0,0,.625-.6V11.156h-.844q-1.7,0-1.8,1.172l-.008.133a.9.9,0,0,0,.3.7A1.153,1.153,0,0,0,81.234,13.43Zm5.2-2.719a5.094,5.094,0,0,1,.887-3.148,2.877,2.877,0,0,1,2.426-1.172,2.589,2.589,0,0,1,2.039.922V3h2.266V15H92.008l-.109-.9a2.657,2.657,0,0,1-2.172,1.055,2.869,2.869,0,0,1-2.395-1.176A5.258,5.258,0,0,1,86.43,10.711Zm2.258.161A3.355,3.355,0,0,0,89.1,12.7a1.348,1.348,0,0,0,1.2.636,1.51,1.51,0,0,0,1.477-.887V9.1a1.489,1.489,0,0,0-1.461-.887Q88.688,8.211,88.688,10.872Zm10.742-.161a5.094,5.094,0,0,1,.887-3.148,2.877,2.877,0,0,1,2.426-1.172,2.589,2.589,0,0,1,2.039.922V3h2.266V15h-2.039l-.109-.9a2.657,2.657,0,0,1-2.172,1.055,2.869,2.869,0,0,1-2.395-1.176A5.258,5.258,0,0,1,99.43,10.711Zm2.258.161A3.355,3.355,0,0,0,102.1,12.7a1.348,1.348,0,0,0,1.2.636,1.51,1.51,0,0,0,1.477-.887V9.1a1.489,1.489,0,0,0-1.461-.887Q101.688,8.211,101.688,10.872Zm11,4.285a4.15,4.15,0,0,1-3.027-1.141,4.054,4.054,0,0,1-1.168-3.039v-.219a5.106,5.106,0,0,1,.492-2.277,3.612,3.612,0,0,1,1.395-1.547,3.914,3.914,0,0,1,2.059-.543,3.508,3.508,0,0,1,2.73,1.094,4.444,4.444,0,0,1,1,3.1v.922h-5.383a2.1,2.1,0,0,0,.66,1.328,2,2,0,0,0,1.395.5,2.437,2.437,0,0,0,2.039-.945l1.109,1.242a3.389,3.389,0,0,1-1.375,1.121A4.511,4.511,0,0,1,112.688,15.156Zm-.258-6.945a1.411,1.411,0,0,0-1.09.455,2.357,2.357,0,0,0-.535,1.3h3.141V9.788a1.681,1.681,0,0,0-.406-1.165A1.456,1.456,0,0,0,112.43,8.211ZM8.477,34.852A5.07,5.07,0,0,1,7.59,37.98,2.843,2.843,0,0,1,5.2,39.156a2.633,2.633,0,0,1-2.07-.891V42.25H.867v-11.7H2.961l.078.828a2.654,2.654,0,0,1,2.141-.984,2.862,2.862,0,0,1,2.43,1.156,5.207,5.207,0,0,1,.867,3.188Zm-2.258-.172A3.345,3.345,0,0,0,5.8,32.854a1.36,1.36,0,0,0-1.215-.643,1.478,1.478,0,0,0-1.461.815V36.5a1.5,1.5,0,0,0,1.477.839Q6.219,37.336,6.219,34.679Zm3.3.016a5.013,5.013,0,0,1,.484-2.242A3.546,3.546,0,0,1,11.4,30.93a4.069,4.069,0,0,1,2.113-.539,3.849,3.849,0,0,1,2.793,1.047,4.2,4.2,0,0,1,1.207,2.844l.016.578a4.418,4.418,0,0,1-1.086,3.121,3.775,3.775,0,0,1-2.914,1.176,3.793,3.793,0,0,1-2.918-1.172A4.5,4.5,0,0,1,9.523,34.8Zm2.258.16a3.16,3.16,0,0,0,.453,1.843,1.628,1.628,0,0,0,2.578.008,3.457,3.457,0,0,0,.461-2.015,3.128,3.128,0,0,0-.461-1.831,1.5,1.5,0,0,0-1.3-.649,1.474,1.474,0,0,0-1.281.646A3.516,3.516,0,0,0,11.781,34.856Zm6.789-.145a5.094,5.094,0,0,1,.887-3.148,2.877,2.877,0,0,1,2.426-1.172,2.589,2.589,0,0,1,2.039.922V27h2.266V39H24.148l-.109-.9a2.657,2.657,0,0,1-2.172,1.055,2.869,2.869,0,0,1-2.395-1.176A5.258,5.258,0,0,1,18.57,34.711Zm2.258.161a3.355,3.355,0,0,0,.414,1.829,1.348,1.348,0,0,0,1.2.636,1.51,1.51,0,0,0,1.477-.887V33.1a1.489,1.489,0,0,0-1.461-.887Q20.828,32.211,20.828,34.872Zm11,4.285A4.15,4.15,0,0,1,28.8,38.016a4.054,4.054,0,0,1-1.168-3.039v-.219a5.106,5.106,0,0,1,.492-2.277,3.612,3.612,0,0,1,1.395-1.547,3.914,3.914,0,0,1,2.059-.543,3.508,3.508,0,0,1,2.73,1.094,4.444,4.444,0,0,1,1,3.1v.922H29.922a2.1,2.1,0,0,0,.66,1.328,2,2,0,0,0,1.395.5,2.437,2.437,0,0,0,2.039-.945l1.109,1.242a3.389,3.389,0,0,1-1.375,1.121A4.511,4.511,0,0,1,31.828,39.156Zm-.258-6.945a1.411,1.411,0,0,0-1.09.455,2.357,2.357,0,0,0-.535,1.3h3.141v-.181a1.681,1.681,0,0,0-.406-1.165A1.456,1.456,0,0,0,31.57,32.211Zm9.766.453a6.134,6.134,0,0,0-.812-.062,1.654,1.654,0,0,0-1.68.867V39H36.586V30.547h2.133l.063,1.008a2.092,2.092,0,0,1,1.883-1.164,2.366,2.366,0,0,1,.7.1Zm12.68,2.188a5.07,5.07,0,0,1-.887,3.129,2.843,2.843,0,0,1-2.395,1.176,2.633,2.633,0,0,1-2.07-.891V42.25H46.406v-11.7H48.5l.078.828a2.654,2.654,0,0,1,2.141-.984,2.862,2.862,0,0,1,2.43,1.156,5.207,5.207,0,0,1,.867,3.188Zm-2.258-.172a3.345,3.345,0,0,0-.418-1.826,1.36,1.36,0,0,0-1.215-.643,1.478,1.478,0,0,0-1.461.815V36.5a1.5,1.5,0,0,0,1.477.839Q51.758,37.336,51.758,34.679ZM60.313,39a2.507,2.507,0,0,1-.227-.758,2.732,2.732,0,0,1-2.133.914,3,3,0,0,1-2.059-.719,2.312,2.312,0,0,1-.816-1.812,2.389,2.389,0,0,1,1-2.062,4.915,4.915,0,0,1,2.879-.727h1.039v-.484a1.393,1.393,0,0,0-.3-.937,1.183,1.183,0,0,0-.949-.352,1.345,1.345,0,0,0-.895.273.929.929,0,0,0-.324.75H55.266a2.268,2.268,0,0,1,.453-1.359A3,3,0,0,1,57,30.746a4.669,4.669,0,0,1,1.859-.355,3.689,3.689,0,0,1,2.48.785,2.747,2.747,0,0,1,.918,2.207v3.664a4.041,4.041,0,0,0,.336,1.82V39Zm-1.867-1.57a1.945,1.945,0,0,0,.922-.223,1.462,1.462,0,0,0,.625-.6V35.156h-.844q-1.7,0-1.8,1.172l-.008.133a.9.9,0,0,0,.3.7A1.153,1.153,0,0,0,58.445,37.43Zm5.219-2.719a4.954,4.954,0,0,1,.926-3.133,3,3,0,0,1,2.5-1.187,2.631,2.631,0,0,1,2.164.953l.094-.8h2.047v8.172a3.613,3.613,0,0,1-.5,1.93,3.236,3.236,0,0,1-1.418,1.25,4.985,4.985,0,0,1-2.141.43,4.635,4.635,0,0,1-1.812-.371A3.217,3.217,0,0,1,64.18,41l1-1.375a2.645,2.645,0,0,0,2.047.945,1.936,1.936,0,0,0,1.4-.48,1.8,1.8,0,0,0,.5-1.363v-.453a2.612,2.612,0,0,1-2.055.883,2.992,2.992,0,0,1-2.465-1.191,4.953,4.953,0,0,1-.941-3.16Zm2.258.161a3.1,3.1,0,0,0,.461,1.809,1.465,1.465,0,0,0,1.266.655,1.567,1.567,0,0,0,1.477-.777V32.988a1.563,1.563,0,0,0-1.461-.777,1.474,1.474,0,0,0-1.277.667A3.5,3.5,0,0,0,65.922,34.872ZM78.023,39a2.507,2.507,0,0,1-.227-.758,2.732,2.732,0,0,1-2.133.914,3,3,0,0,1-2.059-.719,2.312,2.312,0,0,1-.816-1.812,2.389,2.389,0,0,1,1-2.062,4.915,4.915,0,0,1,2.879-.727H77.7v-.484a1.393,1.393,0,0,0-.3-.937,1.183,1.183,0,0,0-.949-.352,1.345,1.345,0,0,0-.895.273.929.929,0,0,0-.324.75H72.977a2.268,2.268,0,0,1,.453-1.359,3,3,0,0,1,1.281-.98,4.669,4.669,0,0,1,1.859-.355,3.689,3.689,0,0,1,2.48.785,2.747,2.747,0,0,1,.918,2.207v3.664a4.041,4.041,0,0,0,.336,1.82V39Zm-1.867-1.57a1.945,1.945,0,0,0,.922-.223,1.462,1.462,0,0,0,.625-.6V35.156h-.844q-1.7,0-1.8,1.172l-.008.133a.9.9,0,0,0,.3.7A1.153,1.153,0,0,0,76.156,37.43Zm10.3-4.766a6.134,6.134,0,0,0-.812-.062,1.654,1.654,0,0,0-1.68.867V39H81.7V30.547h2.133l.063,1.008a2.092,2.092,0,0,1,1.883-1.164,2.366,2.366,0,0,1,.7.1Zm12.68,2.188a5.07,5.07,0,0,1-.887,3.129,2.843,2.843,0,0,1-2.395,1.176,2.633,2.633,0,0,1-2.07-.891V42.25H91.523v-11.7h2.094l.078.828a2.654,2.654,0,0,1,2.141-.984,2.862,2.862,0,0,1,2.43,1.156,5.207,5.207,0,0,1,.867,3.188Zm-2.258-.172a3.345,3.345,0,0,0-.418-1.826,1.36,1.36,0,0,0-1.215-.643,1.478,1.478,0,0,0-1.461.815V36.5a1.5,1.5,0,0,0,1.477.839Q96.875,37.336,96.875,34.679Zm3.3.016a5.013,5.013,0,0,1,.484-2.242,3.546,3.546,0,0,1,1.395-1.523,4.069,4.069,0,0,1,2.113-.539,3.849,3.849,0,0,1,2.793,1.047,4.2,4.2,0,0,1,1.207,2.844l.016.578A4.418,4.418,0,0,1,107.1,37.98a4.209,4.209,0,0,1-5.832,0,4.5,4.5,0,0,1-1.09-3.187Zm2.258.16a3.16,3.16,0,0,0,.453,1.843,1.628,1.628,0,0,0,2.578.008,3.457,3.457,0,0,0,.461-2.015,3.128,3.128,0,0,0-.461-1.831,1.5,1.5,0,0,0-1.3-.649,1.474,1.474,0,0,0-1.281.646A3.516,3.516,0,0,0,102.438,34.856Zm11.891-2.192a6.134,6.134,0,0,0-.812-.062,1.654,1.654,0,0,0-1.68.867V39h-2.258V30.547h2.133l.063,1.008a2.092,2.092,0,0,1,1.883-1.164,2.366,2.366,0,0,1,.7.1Zm8.961,6.492a4.15,4.15,0,0,1-3.027-1.141,4.054,4.054,0,0,1-1.168-3.039v-.219a5.106,5.106,0,0,1,.492-2.277,3.612,3.612,0,0,1,1.395-1.547,3.914,3.914,0,0,1,2.059-.543,3.508,3.508,0,0,1,2.73,1.094,4.444,4.444,0,0,1,1,3.1v.922h-5.383a2.1,2.1,0,0,0,.66,1.328,2,2,0,0,0,1.395.5,2.437,2.437,0,0,0,2.039-.945l1.109,1.242a3.389,3.389,0,0,1-1.375,1.121A4.511,4.511,0,0,1,123.289,39.156Zm-.258-6.945a1.411,1.411,0,0,0-1.09.455,2.357,2.357,0,0,0-.535,1.3h3.141v-.181a1.681,1.681,0,0,0-.406-1.165A1.456,1.456,0,0,0,123.031,32.211ZM130.43,39h-2.266V27h2.266ZM8.477,58.852A5.07,5.07,0,0,1,7.59,61.98,2.843,2.843,0,0,1,5.2,63.156a2.633,2.633,0,0,1-2.07-.891V66.25H.867v-11.7H2.961l.078.828a2.654,2.654,0,0,1,2.141-.984,2.862,2.862,0,0,1,2.43,1.156,5.207,5.207,0,0,1,.867,3.188Zm-2.258-.172A3.345,3.345,0,0,0,5.8,56.854a1.36,1.36,0,0,0-1.215-.643,1.478,1.478,0,0,0-1.461.815V60.5a1.5,1.5,0,0,0,1.477.839Q6.219,61.336,6.219,58.679Zm8.406-2.015a6.134,6.134,0,0,0-.812-.062,1.654,1.654,0,0,0-1.68.867V63H9.875V54.547h2.133l.063,1.008a2.092,2.092,0,0,1,1.883-1.164,2.366,2.366,0,0,1,.7.1Zm.453,2.031a5.013,5.013,0,0,1,.484-2.242,3.546,3.546,0,0,1,1.395-1.523,4.069,4.069,0,0,1,2.113-.539,3.849,3.849,0,0,1,2.793,1.047,4.2,4.2,0,0,1,1.207,2.844l.016.578A4.418,4.418,0,0,1,22,61.98a3.775,3.775,0,0,1-2.914,1.176,3.793,3.793,0,0,1-2.918-1.172,4.5,4.5,0,0,1-1.09-3.187Zm2.258.16a3.16,3.16,0,0,0,.453,1.843,1.628,1.628,0,0,0,2.578.008,3.457,3.457,0,0,0,.461-2.015,3.128,3.128,0,0,0-.461-1.831,1.5,1.5,0,0,0-1.3-.649,1.474,1.474,0,0,0-1.281.646A3.516,3.516,0,0,0,17.336,58.856Zm6.789-.145a5.094,5.094,0,0,1,.887-3.148,2.877,2.877,0,0,1,2.426-1.172,2.589,2.589,0,0,1,2.039.922V51h2.266V63H29.7l-.109-.9a2.657,2.657,0,0,1-2.172,1.055,2.869,2.869,0,0,1-2.395-1.176A5.258,5.258,0,0,1,24.125,58.711Zm2.258.161A3.355,3.355,0,0,0,26.8,60.7a1.348,1.348,0,0,0,1.2.636,1.51,1.51,0,0,0,1.477-.887V57.1a1.489,1.489,0,0,0-1.461-.887Q26.383,56.211,26.383,58.872Zm12.172,3.269a2.831,2.831,0,0,1-2.312,1.016,2.67,2.67,0,0,1-2.074-.781,3.335,3.335,0,0,1-.73-2.289V54.547H35.7v5.467q0,1.322,1.2,1.322a1.63,1.63,0,0,0,1.578-.8V54.547h2.266V63H38.617Zm7.406-.8a1.481,1.481,0,0,0,1.016-.344,1.2,1.2,0,0,0,.406-.914H49.5a2.9,2.9,0,0,1-.469,1.574,3.093,3.093,0,0,1-1.262,1.109,3.949,3.949,0,0,1-1.77.395A3.67,3.67,0,0,1,43.141,62a4.56,4.56,0,0,1-1.047-3.184v-.148a4.508,4.508,0,0,1,1.039-3.117,3.627,3.627,0,0,1,2.852-1.164,3.555,3.555,0,0,1,2.543.9,3.2,3.2,0,0,1,.973,2.4H47.383a1.551,1.551,0,0,0-.406-1.072,1.51,1.51,0,0,0-2.223.163,3.333,3.333,0,0,0-.4,1.866v.235a3.375,3.375,0,0,0,.4,1.878A1.377,1.377,0,0,0,45.961,61.336Zm7.531-8.867v2.078h1.445V56.2H53.492v4.219a1.007,1.007,0,0,0,.18.672.9.9,0,0,0,.688.2,3.6,3.6,0,0,0,.664-.055v1.711a4.648,4.648,0,0,1-1.367.2,2.156,2.156,0,0,1-2.422-2.4V56.2H50V54.547h1.234V52.469ZM55.609,58.7a5.013,5.013,0,0,1,.484-2.242,3.546,3.546,0,0,1,1.395-1.523,4.069,4.069,0,0,1,2.113-.539,3.849,3.849,0,0,1,2.793,1.047A4.2,4.2,0,0,1,63.6,58.281l.016.578a4.418,4.418,0,0,1-1.086,3.121,4.209,4.209,0,0,1-5.832,0,4.5,4.5,0,0,1-1.09-3.187Zm2.258.16A3.16,3.16,0,0,0,58.32,60.7a1.628,1.628,0,0,0,2.578.008,3.457,3.457,0,0,0,.461-2.015A3.128,3.128,0,0,0,60.9,56.86a1.5,1.5,0,0,0-1.3-.649,1.474,1.474,0,0,0-1.281.646A3.516,3.516,0,0,0,57.867,58.856Zm7.258,3.035a1.137,1.137,0,0,1,.363-.875,1.412,1.412,0,0,1,1.828,0,1.137,1.137,0,0,1,.363.875,1.121,1.121,0,0,1-.359.863,1.435,1.435,0,0,1-1.836,0A1.121,1.121,0,0,1,65.125,61.891Z" transform="translate(1063 1281)" fill="#12263f"/>
    <g id="cf5_slide_copia_6" data-name="cf5_slide copia 6" transform="translate(594 1041.726)">
      <g id="Grupo_90195" data-name="Grupo 90195" transform="translate(41.995 41.995)">
        <path id="Trazado_151786" data-name="Trazado 151786" d="M200,368.835v81.61c121.1,0,219.274-98.177,219.274-219.274S321.1,11.92,200,11.92V93.53a137.641,137.641,0,1,1,0,275.282Z" transform="translate(-35.995 -29.189)" fill="#cfccd9" opacity="0.536"/>
        <path id="Trazado_151787" data-name="Trazado 151787" d="M231.194,11.92C110.1,11.92,11.92,110.1,11.92,231.194S110.1,450.468,231.194,450.468v-81.61a137.641,137.641,0,1,1,0-275.282Z" transform="translate(-67.189 -29.189)" fill="#dad6f7" opacity="0.612"/>
      </g>
      <g id="Grupo_90200" data-name="Grupo 90200">
        <g id="Grupo_90198" data-name="Grupo 90198">
          <g id="Grupo_90197" data-name="Grupo 90197">
            <path id="Trazado_151791" data-name="Trazado 151791" d="M195.63,324.5l6.29-47.21,6.28,47.21Z" fill="#3e2ea6"/>
            <path id="Trazado_151792" data-name="Trazado 151792" d="M195.63,324.5l6.29-47.21,6.28,47.21Z" opacity="0.3"/>
          </g>
          <path id="Trazado_151793" data-name="Trazado 151793" d="M171.58,324.5l6.28-47.21h24.06l-6.29,47.21Z" fill="#3e2ea6"/>
          <path id="Trazado_151794" data-name="Trazado 151794" d="M171.58,324.5l6.28-47.21h24.06l-6.29,47.21Z" fill="#fff" opacity="0.7"/>
        </g>
        <g id="Grupo_90199" data-name="Grupo 90199">
          <path id="Trazado_151795" data-name="Trazado 151795" d="M183.25,289.81a1.44,1.44,0,0,1,.39,1.33,2.11,2.11,0,0,1-.43,1,2.26,2.26,0,0,1-.93.71,3.33,3.33,0,0,1-1.4.26,4.4,4.4,0,0,1-1.2-.16,2.44,2.44,0,0,1-.94-.47l.7-1a2,2,0,0,0,.71.39,2.84,2.84,0,0,0,.88.14,1.63,1.63,0,0,0,.84-.2.81.81,0,0,0,.38-.56.54.54,0,0,0-.22-.58,1.9,1.9,0,0,0-1-.19h-1.5l.82-3.31h3.59l-.17,1.09h-2.45l-.27,1.12h.48a2.49,2.49,0,0,1,1.72.43Z" fill="#3e2ea6"/>
          <path id="Trazado_151796" data-name="Trazado 151796" d="M185.16,292.73a1.94,1.94,0,0,1-.73-1,3.66,3.66,0,0,1-.07-1.64,4.32,4.32,0,0,1,.59-1.64,3,3,0,0,1,1.06-1,2.69,2.69,0,0,1,1.36-.36,2.14,2.14,0,0,1,1.25.36,1.93,1.93,0,0,1,.72,1,3.52,3.52,0,0,1,.07,1.64,4.49,4.49,0,0,1-.58,1.64,3.18,3.18,0,0,1-1.06,1,2.72,2.72,0,0,1-1.37.36A2.11,2.11,0,0,1,185.16,292.73Zm2.35-1.25a3,3,0,0,0,.53-1.43,2.53,2.53,0,0,0-.08-1.43.8.8,0,0,0-.77-.46,1.12,1.12,0,0,0-.91.46,3,3,0,0,0-.54,1.43,2.53,2.53,0,0,0,.08,1.43.8.8,0,0,0,.77.46,1.15,1.15,0,0,0,.92-.46Z" fill="#3e2ea6"/>
          <path id="Trazado_151797" data-name="Trazado 151797" d="M190.41,289.84a1.49,1.49,0,0,1-.22-1.18,2,2,0,0,1,.6-1.18,1.61,1.61,0,0,1,1.12-.44,1.16,1.16,0,0,1,1,.44,1.47,1.47,0,0,1,.22,1.18,2,2,0,0,1-.59,1.18,1.58,1.58,0,0,1-1.12.45,1.17,1.17,0,0,1-1.01-.45Zm1.58-.48a1.37,1.37,0,0,0,.28-.7,1.13,1.13,0,0,0-.05-.69.45.45,0,0,0-.42-.24.63.63,0,0,0-.48.24,1.37,1.37,0,0,0-.28.69,1.09,1.09,0,0,0,.06.7.43.43,0,0,0,.41.24.6.6,0,0,0,.49-.24Zm3.42-2.25h1L191.46,293h-1Zm-1.18,5.75a1.11,1.11,0,0,1-.43-.56,1.75,1.75,0,0,1,0-.86,2,2,0,0,1,.32-.86,1.63,1.63,0,0,1,.6-.57,1.68,1.68,0,0,1,.79-.2,1.14,1.14,0,0,1,1,.45,1.45,1.45,0,0,1,.22,1.18,2,2,0,0,1-.59,1.18,1.64,1.64,0,0,1-1.13.44,1.29,1.29,0,0,1-.78-.2Zm1.32-.73a1.37,1.37,0,0,0,.27-.69,1.17,1.17,0,0,0,0-.7.42.42,0,0,0-.41-.24.63.63,0,0,0-.49.24,1.37,1.37,0,0,0-.27.7,1.17,1.17,0,0,0,.05.7.45.45,0,0,0,.41.23.62.62,0,0,0,.44-.24Z" fill="#3e2ea6"/>
          <path id="Trazado_151798" data-name="Trazado 151798" d="M179.26,301.39a2.35,2.35,0,0,1-1-1.09,2.69,2.69,0,0,1-.17-1.56,3.4,3.4,0,0,1,.66-1.56,3.63,3.63,0,0,1,1.33-1.09,3.84,3.84,0,0,1,1.71-.4,3.129,3.129,0,0,1,1.59.4,2.33,2.33,0,0,1,1,1.09,2.69,2.69,0,0,1,.18,1.56,3.41,3.41,0,0,1-.67,1.56,3.791,3.791,0,0,1-1.32,1.09,3.83,3.83,0,0,1-1.71.39A3.07,3.07,0,0,1,179.26,301.39Zm2.75-1a2.12,2.12,0,0,0,.76-.67,2.2,2.2,0,0,0,.4-1,1.76,1.76,0,0,0-.09-1,1.39,1.39,0,0,0-.55-.67,1.68,1.68,0,0,0-.9-.23,2.05,2.05,0,0,0-1,.23,2.19,2.19,0,0,0-1.16,1.67,1.82,1.82,0,0,0,.08,1,1.37,1.37,0,0,0,.56.67,1.63,1.63,0,0,0,.9.24,2.089,2.089,0,0,0,.99-.25Z" fill="#3e2ea6"/>
          <path id="Trazado_151799" data-name="Trazado 151799" d="M187.23,296.89l-.25,1.55h2.73l-.18,1.1h-2.72l-.34,2.14h-1.36l.93-5.88h4.45l-.18,1.09Z" fill="#3e2ea6"/>
          <path id="Trazado_151800" data-name="Trazado 151800" d="M192.6,296.89l-.24,1.55h2.72l-.17,1.1h-2.73l-.34,2.14h-1.36l.93-5.88h4.45l-.17,1.09Z" fill="#3e2ea6"/>
        </g>
      </g>
      <g id="Grupo_90205" data-name="Grupo 90205">
        <path id="Trazado_151801" data-name="Trazado 151801" d="M146.35,366.63l-3.75-27.59,18.75-22.5,25,3,20.75-4.5,20.75,4.5,1.5,10.5-4,38.81-8.5,3.68Z" fill="#3e2ea6"/>
        <path id="Trazado_151802" data-name="Trazado 151802" d="M213.1,318.54l-31.38,26.33-6.45-8.33,25.67-17.17Z" opacity="0.2"/>
        <g id="Grupo_90201" data-name="Grupo 90201">
          <path id="Trazado_151803" data-name="Trazado 151803" d="M236.26,328.29H133.85A3.25,3.25,0,0,1,130.6,325h0a3.24,3.24,0,0,1,3.25-3.25H236.26a3.25,3.25,0,0,1,3.25,3.25h0a3.26,3.26,0,0,1-3.25,3.29Z" fill="#091320"/>
          <path id="Trazado_151804" data-name="Trazado 151804" d="M236.26,328.29H133.85A3.25,3.25,0,0,1,130.6,325h0a3.24,3.24,0,0,1,3.25-3.25H236.26a3.25,3.25,0,0,1,3.25,3.25h0a3.26,3.26,0,0,1-3.25,3.29Z" fill="#fff" opacity="0.5"/>
        </g>
        <g id="Grupo_90202" data-name="Grupo 90202">
          <path id="Trazado_151805" data-name="Trazado 151805" d="M136.45,328.29l3.33,40.61a9,9,0,0,0,8.93,8.23H221.4a9,9,0,0,0,8.92-8.23l3.33-40.61Zm18.25,33.79a3.33,3.33,0,0,1-6.65,0V337.61a3.33,3.33,0,0,1,6.65,0Zm16.83,0a3.32,3.32,0,1,1-6.64,0V337.61a3.32,3.32,0,0,1,6.64,0Zm16.84,0a3.32,3.32,0,1,1-6.64,0V337.61a3.32,3.32,0,0,1,6.64,0Zm16.84,0a3.32,3.32,0,1,1-6.64,0V337.61a3.32,3.32,0,0,1,6.64,0Zm16.84,0a3.32,3.32,0,1,1-6.64,0V337.61a3.32,3.32,0,0,1,6.64,0Z" fill="#091320"/>
          <path id="Trazado_151806" data-name="Trazado 151806" d="M136.45,328.29l3.33,40.61a9,9,0,0,0,8.93,8.23H221.4a9,9,0,0,0,8.92-8.23l3.33-40.61Zm18.25,33.79a3.33,3.33,0,0,1-6.65,0V337.61a3.33,3.33,0,0,1,6.65,0Zm16.83,0a3.32,3.32,0,1,1-6.64,0V337.61a3.32,3.32,0,0,1,6.64,0Zm16.84,0a3.32,3.32,0,1,1-6.64,0V337.61a3.32,3.32,0,0,1,6.64,0Zm16.84,0a3.32,3.32,0,1,1-6.64,0V337.61a3.32,3.32,0,0,1,6.64,0Zm16.84,0a3.32,3.32,0,1,1-6.64,0V337.61a3.32,3.32,0,0,1,6.64,0Z" fill="#fff" opacity="0.7"/>
        </g>
        <path id="Trazado_151807" data-name="Trazado 151807" d="M211.1,319.79l13.26-4.75,19.24,4.75,4.5,23.99-15.75,2.01-5.5-23.75Z" fill="#3e2ea6"/>
        <g id="Grupo_90203" data-name="Grupo 90203">
          <path id="Trazado_151808" data-name="Trazado 151808" d="M230.85,343.21l1.17,4,17.16-2.5-1.08-4.09Z" fill="#3e2ea6"/>
          <path id="Trazado_151809" data-name="Trazado 151809" d="M230.85,343.21l1.17,4,17.16-2.5-1.08-4.09Z" fill="#fff" opacity="0.6"/>
        </g>
        <path id="Trazado_151810" data-name="Trazado 151810" d="M234.77,338.08a1.3,1.3,0,1,1-1.3-1.29,1.3,1.3,0,0,1,1.3,1.29Z" fill="#fff" opacity="0.7"/>
        <path id="Trazado_151811" data-name="Trazado 151811" d="M232.85,331.71a1.29,1.29,0,1,1-.374-.919,1.29,1.29,0,0,1,.374.919Z" fill="#fff" opacity="0.7"/>
        <g id="Grupo_90204" data-name="Grupo 90204">
          <path id="Trazado_151812" data-name="Trazado 151812" d="M171.32,319.54l-6.38-3-22.34,3L138.85,333l3.75,6s-4.34,20.75-1.3,21,6.75-20.25,6.75-20.25l11.3-1.71s.34,22,5.54,22,0-22.43,0-22.43Zm-30,38.62c-2.13-.75,2.62-18.25,2.62-18.25h2.75s-3.22,19-5.34,18.25Zm23.59-.37c-2.84,1.37-4.09-19.5-4.09-19.5h2.62s4.33,18.12,1.5,19.5Z" fill="#3e2ea6"/>
          <path id="Trazado_151813" data-name="Trazado 151813" d="M171.32,319.54l-6.38-3-22.34,3L138.85,333l3.75,6s-4.34,20.75-1.3,21,6.75-20.25,6.75-20.25l11.3-1.71s.34,22,5.54,22,0-22.43,0-22.43Zm-30,38.62c-2.13-.75,2.62-18.25,2.62-18.25h2.75s-3.22,19-5.34,18.25Zm23.59-.37c-2.84,1.37-4.09-19.5-4.09-19.5h2.62s4.33,18.12,1.5,19.5Z" fill="#fff" opacity="0.7"/>
        </g>
      </g>
      <g id="Grupo_90225" data-name="Grupo 90225">
        <path id="Trazado_151814" data-name="Trazado 151814" d="M311.69,338.42H298.38V185.5a14.14,14.14,0,0,0-14.12-14.12H123.64a14.13,14.13,0,0,0-14.11,14.12V338.42H96.22a3.2,3.2,0,0,0-3.2,3.2v.53h35.62v-.53a3.21,3.21,0,0,0-3.21-3.2H112.12V185.5A11.54,11.54,0,0,1,123.64,174H284.26a11.54,11.54,0,0,1,11.52,11.52v152.9H282.47a3.2,3.2,0,0,0-3.2,3.2v.53h35.62v-.53A3.2,3.2,0,0,0,311.69,338.42Z" fill="#091320"/>
        <path id="Trazado_151815" data-name="Trazado 151815" d="M311.69,338.42H298.38V185.5a14.14,14.14,0,0,0-14.12-14.12H123.64a14.13,14.13,0,0,0-14.11,14.12V338.42H96.22a3.2,3.2,0,0,0-3.2,3.2v.53h35.62v-.53a3.21,3.21,0,0,0-3.21-3.2H112.12V185.5A11.54,11.54,0,0,1,123.64,174H284.26a11.54,11.54,0,0,1,11.52,11.52v152.9H282.47a3.2,3.2,0,0,0-3.2,3.2v.53h35.62v-.53A3.2,3.2,0,0,0,311.69,338.42Z" fill="#fff" opacity="0.4"/>
        <g id="Grupo_90210" data-name="Grupo 90210">
          <g id="Grupo_90206" data-name="Grupo 90206">
            <path id="Trazado_151816" data-name="Trazado 151816" d="M162.1,174.77a4,4,0,0,1,.16-.79h-1.32a5,5,0,0,0-.14.79C160.73,175.6,162,175.59,162.1,174.77Z" fill="#091320"/>
            <path id="Trazado_151817" data-name="Trazado 151817" d="M183.69,195l-17.45-10.5v-5c3.61-.77,5.68-5.09,2.72-8.06a4.51,4.51,0,0,0-6.54,0H165a3.06,3.06,0,0,1,2.93,1,3.46,3.46,0,0,1-2.38,5.88.66.66,0,0,0-.65.64v5.55L147.48,195c-.71.43-.06,1.55.65,1.12l8.52-5.13,6.2-3.72c.7-.42,1.46-.81,2.13-1.28.14-.1.5-.26.69-.38.43.36,2,1.24,2.37,1.49l6.11,3.67,8.89,5.35a.65.65,0,0,0,.65-1.12Z" fill="#091320"/>
          </g>
          <path id="Trazado_151818" data-name="Trazado 151818" d="M186.91,219.61l1.62,31.59-45.13-.35,1-29.95-6,42.57-11.44-1.38a229.692,229.692,0,0,1,4.79-43.34c4.78-21.85,16.14-25.57,16.14-25.57a41.28,41.28,0,0,0,35.56,0s12.51,3.38,15.63,22.45,4.85,46.8,4.85,46.8l-11.44,1Z" fill="#3e2ea6"/>
          <g id="Grupo_90207" data-name="Grupo 90207" opacity="0.2">
            <path id="Trazado_151819" data-name="Trazado 151819" d="M135.52,263.14l2.8.33,5.7-40.15c-1.1,1.51-2.45,4.21-3.39,9C139.18,239.67,136.61,256.08,135.52,263.14Z"/>
          </g>
          <g id="Grupo_90208" data-name="Grupo 90208" opacity="0.2">
            <path id="Trazado_151820" data-name="Trazado 151820" d="M196.31,263.12c-1.09-7.07-3.66-23.45-5.1-30.81-1.1-5.57-2.74-8.31-3.91-9.64l5.11,40.8Z"/>
          </g>
          <g id="Grupo_90209" data-name="Grupo 90209" opacity="0.8">
            <path id="Trazado_151821" data-name="Trazado 151821" d="M187.69,234.76H143.91l-.23,7.36h44.38Z" fill="#fff"/>
          </g>
          <path id="Trazado_151822" data-name="Trazado 151822" d="M149.5,201.54l-4.11,14.06S143.67,207.16,149.5,201.54Z" opacity="0.1"/>
          <path id="Trazado_151823" data-name="Trazado 151823" d="M182.5,201.54l4.11,14.06S188.33,207.16,182.5,201.54Z" opacity="0.1"/>
        </g>
        <g id="Grupo_90214" data-name="Grupo 90214">
          <g id="Grupo_90211" data-name="Grupo 90211">
            <path id="Trazado_151824" data-name="Trazado 151824" d="M183.32,174.77a4,4,0,0,1,.16-.79h-1.32a5,5,0,0,0-.14.79C182,175.6,183.24,175.59,183.32,174.77Z" fill="#091320"/>
            <path id="Trazado_151825" data-name="Trazado 151825" d="M204.91,195l-17.45-10.5v-5c3.61-.77,5.68-5.09,2.72-8.06a4.51,4.51,0,0,0-6.54,0h2.62a3.06,3.06,0,0,1,2.93,1,3.46,3.46,0,0,1-2.38,5.88.66.66,0,0,0-.65.64v5.55L168.7,195c-.71.43-.06,1.55.65,1.12l8.52-5.13,6.2-3.72c.7-.42,1.46-.81,2.13-1.28.14-.1.5-.26.69-.38.43.36,2,1.24,2.37,1.49l6.11,3.67,8.89,5.35a.65.65,0,0,0,.65-1.12Z" fill="#091320"/>
          </g>
          <g id="Grupo_90213" data-name="Grupo 90213">
            <g id="Grupo_90212" data-name="Grupo 90212">
              <path id="Trazado_151826" data-name="Trazado 151826" d="M169,193.18a41.28,41.28,0,0,0,35.56,0s12.25,4.76,16.44,23.46l-12.9,3,1.62,31.59-45.13-.35,1-29.95L154.3,217S156.74,197.37,169,193.18Z" fill="#3e2ea6"/>
              <path id="Trazado_151827" data-name="Trazado 151827" d="M169,193.18a41.28,41.28,0,0,0,35.56,0s12.25,4.76,16.44,23.46l-12.9,3,1.62,31.59-45.13-.35,1-29.95L154.3,217S156.74,197.37,169,193.18Z" fill="#fff" opacity="0.5"/>
            </g>
            <path id="Trazado_151828" data-name="Trazado 151828" d="M163.85,220.31l1.59.54.93-11.08Z" opacity="0.2"/>
            <path id="Trazado_151829" data-name="Trazado 151829" d="M206.58,206.85l1.55,12.76,2.51-.58Z" opacity="0.2"/>
            <ellipse id="Elipse_5210" data-name="Elipse 5210" cx="14.12" cy="5.77" rx="14.12" ry="5.77" transform="translate(172.72 205.44)" fill="#3e2ea6"/>
          </g>
        </g>
        <g id="Grupo_90221" data-name="Grupo 90221">
          <g id="Grupo_90215" data-name="Grupo 90215">
            <path id="Trazado_151830" data-name="Trazado 151830" d="M222.23,174.77a4,4,0,0,1,.17-.79h-1.33a5,5,0,0,0-.13.79C220.86,175.6,222.16,175.59,222.23,174.77Z" fill="#091320"/>
            <path id="Trazado_151831" data-name="Trazado 151831" d="M243.83,195l-17.46-10.5v-5c3.62-.77,5.69-5.09,2.72-8.06a4.5,4.5,0,0,0-6.53,0h2.62a3.07,3.07,0,0,1,2.93,1,3.47,3.47,0,0,1-2.39,5.88.66.66,0,0,0-.65.64v5.55L207.61,195a.65.65,0,0,0,.66,1.12l8.52-5.13,6.19-3.72c.71-.42,1.47-.81,2.13-1.28.14-.1.51-.26.69-.38.44.36,2,1.24,2.37,1.49l6.11,3.67,8.89,5.35a.65.65,0,1,0,.66-1.12Z" fill="#091320"/>
          </g>
          <g id="Grupo_90216" data-name="Grupo 90216">
            <path id="Trazado_151832" data-name="Trazado 151832" d="M264,256.78S262.25,229,259.13,210c-1.2-7.33-3.79-12.34-6.52-15.74a18.16,18.16,0,0,0-14.18-6.71h-6.17l-3.59,3.75h-6l-3.17-3.75h-3.57a21.5,21.5,0,0,0-18.78,10.93,53.3,53.3,0,0,0-5.3,14.64A229.69,229.69,0,0,0,187,256.43l11.44,1.39,6.05-42.58-.7,50.89,45.13.35L247.05,214l5.49,43.87Z" fill="#091320"/>
            <path id="Trazado_151833" data-name="Trazado 151833" d="M203.74,207.76c-.43,5.77-8.65,49.32-8.65,49.32l2.15.59,1.21.15,6.05-42.58S204.17,202,203.74,207.76Z" opacity="0.2"/>
            <path id="Trazado_151834" data-name="Trazado 151834" d="M255.29,257.57c-1.13-7.95-4-28.07-5.72-39-2.16-13.83-2.52-12.26-2.52-12.26V214l5.49,43.87Z" opacity="0.2"/>
          </g>
          <g id="Grupo_90217" data-name="Grupo 90217">
            <path id="Trazado_151835" data-name="Trazado 151835" d="M219.34,186.55l6.37,4.14,5.8-4.14,3.64.7-4.2,8.26-5.24-3.08-5.81,3.08-3.21-8.26Z" fill="#091320"/>
            <path id="Trazado_151836" data-name="Trazado 151836" d="M219.34,186.55l6.37,4.14,5.8-4.14,3.64.7-4.2,8.26-5.24-3.08-5.81,3.08-3.21-8.26Z" fill="#fff" opacity="0.2"/>
          </g>
          <g id="Grupo_90218" data-name="Grupo 90218">
            <path id="Trazado_151837" data-name="Trazado 151837" d="M186.26,254.87l12.92,1.65-.44,2.77-12.48-1.56Z" fill="#091320"/>
            <path id="Trazado_151838" data-name="Trazado 151838" d="M186.26,254.87l12.92,1.65-.44,2.77-12.48-1.56Z" fill="#fff" opacity="0.2"/>
          </g>
          <g id="Grupo_90219" data-name="Grupo 90219">
            <path id="Trazado_151839" data-name="Trazado 151839" d="M264.52,255.1l-12.96,1.19.33,2.78,12.83-1.14Z" fill="#091320"/>
            <path id="Trazado_151840" data-name="Trazado 151840" d="M264.52,255.1l-12.96,1.19.33,2.78,12.83-1.14Z" fill="#fff" opacity="0.2"/>
          </g>
          <g id="Grupo_90220" data-name="Grupo 90220">
            <path id="Trazado_151841" data-name="Trazado 151841" d="M226.54,207.76a1.045,1.045,0,1,1-1.045-1.045A1.045,1.045,0,0,1,226.54,207.76Z" fill="#fff" opacity="0.7"/>
            <path id="Trazado_151842" data-name="Trazado 151842" d="M227,223.89a1.05,1.05,0,1,1-1.05-1,1,1,0,0,1,1.05,1Z" fill="#fff" opacity="0.7"/>
            <path id="Trazado_151843" data-name="Trazado 151843" d="M227.59,240.61a1,1,0,1,1-.292-.758,1,1,0,0,1,.292.758Z" fill="#fff" opacity="0.7"/>
            <path id="Trazado_151844" data-name="Trazado 151844" d="M227.59,257.7a1,1,0,1,1-.292-.758,1,1,0,0,1,.292.758Z" fill="#fff" opacity="0.7"/>
          </g>
        </g>
        <g id="Grupo_90224" data-name="Grupo 90224">
          <g id="Grupo_90222" data-name="Grupo 90222">
            <path id="Trazado_151845" data-name="Trazado 151845" d="M247.83,174.77A4,4,0,0,1,248,174h-1.33a5,5,0,0,0-.13.79C246.46,175.6,247.76,175.59,247.83,174.77Z" fill="#091320"/>
            <path id="Trazado_151846" data-name="Trazado 151846" d="M269.43,195,252,184.45v-5c3.62-.77,5.69-5.09,2.72-8.06a4.5,4.5,0,0,0-6.53,0h2.62a3.07,3.07,0,0,1,2.93,1,3.47,3.47,0,0,1-2.39,5.88.66.66,0,0,0-.65.64v5.55L233.21,195a.65.65,0,0,0,.66,1.12l8.52-5.13,6.19-3.72c.71-.42,1.47-.81,2.13-1.28.14-.1.51-.26.69-.38.44.36,2,1.24,2.37,1.49l6.11,3.67,8.89,5.35a.65.65,0,0,0,.66-1.12Z" fill="#091320"/>
          </g>
          <g id="Grupo_90223" data-name="Grupo 90223">
            <path id="Trazado_151847" data-name="Trazado 151847" d="M230.61,195.51l5-4.24s6.95,6,15.7,5a43.59,43.59,0,0,0,15.7-5l4.19,3.11s-6,9.37,1,20.82l-1.05,35.11h-39.1l-1.55-35.89S238.67,204.42,230.61,195.51Z" fill="#3e2ea6"/>
            <path id="Trazado_151848" data-name="Trazado 151848" d="M272.04,221.25l-.08-.09-6.88,6.88-6.88-6.88-6.88,6.88-6.88-6.88-6.88,6.88-6.74-6.74.28,6.38,6.46,6.47,6.88-6.88,6.88,6.88,6.88-6.88,6.88,6.88,6.78-6.78Z" fill="#fff" opacity="0.5"/>
            <path id="Trazado_151849" data-name="Trazado 151849" d="M271.86,227.37l-6.78,6.78-6.88-6.88-6.88,6.88-6.88-6.88-6.88,6.88-6.46-6.47.27,6.38,6.19,6.19,6.88-6.88,6.88,6.88,6.88-6.88,6.88,6.88,6.59-6.59Z" fill="#fff" opacity="0.7"/>
            <path id="Trazado_151850" data-name="Trazado 151850" d="M271.67,233.66l-6.59,6.59-6.88-6.88-6.88,6.88-6.88-6.88-6.88,6.88-6.19-6.19.28,6.38,5.91,5.91,6.88-6.88,6.88,6.88,6.88-6.88,6.88,6.88,6.4-6.4Z" fill="#fff" opacity="0.9"/>
          </g>
        </g>
      </g>
      <g id="Grupo_90243" data-name="Grupo 90243">
        <g id="Grupo_90238" data-name="Grupo 90238">
          <g id="Grupo_90228" data-name="Grupo 90228">
            <path id="Trazado_151851" data-name="Trazado 151851" d="M340.91,207.46s-13,52.84-16,70.73c-2.91,17.63-7.47,71.09-7.47,71.09l13.87,2.13s8.42-52.07,13.86-68.6c4.14-12.57,18.67-34.62,21.68-47.27,1.57-6.57,0-27,0-27Z" fill="#3e2ea6"/>
            <path id="Trazado_151852" data-name="Trazado 151852" d="M320.02,350.61l-1.56,14.1,7.2.85,2.51-14.1Z" fill="#ffb570"/>
            <g id="Grupo_90226" data-name="Grupo 90226">
              <path id="Trazado_151853" data-name="Trazado 151853" d="M314.2,364.52a3.56,3.56,0,0,1-2.36-.89.75.75,0,0,1,.11-.85,1,1,0,0,1,.66-.39c1.42-.23,4.13,1.71,4.25,1.8a.21.21,0,0,1,.07.21.2.2,0,0,1-.18.15,15.529,15.529,0,0,1-2.55-.03Zm-1.14-1.75a1.612,1.612,0,0,0-.38,0,.54.54,0,0,0-.41.23c-.17.23-.13.36-.09.43.33.58,2.41.81,4,.78A8.94,8.94,0,0,0,313.06,362.77Z" fill="#3e2ea6"/>
              <path id="Trazado_151854" data-name="Trazado 151854" d="M316.72,364.54a.09.09,0,0,1-.08,0c-.94-.54-2.73-2.54-2.46-3.45,0-.22.24-.47.78-.47a1.47,1.47,0,0,1,1.06.45c1,1,1,3.22,1,3.33a.25.25,0,0,1-.11.17.23.23,0,0,1-.19-.03ZM315.06,361h-.11c-.36,0-.4.14-.42.18-.11.56,1.05,2.1,2,2.81a4.65,4.65,0,0,0-.83-2.65,1.09,1.09,0,0,0-.65-.32Z" fill="#3e2ea6"/>
              <path id="Trazado_151855" data-name="Trazado 151855" d="M317.72,363.48l9,.94a.74.74,0,0,1,.65.65l.86,7.5a1.21,1.21,0,0,1-1.05,1.35h-.26c-3.25-.4-6.12-.88-10.16-1.3-4.78-.5-3.63.2-9.25-.31-3.38-.31-3.6-4.22-2.14-4.26,6.64-.14,7.53-2.05,10.31-4.13A3,3,0,0,1,317.72,363.48Z" fill="#091320"/>
            </g>
            <path id="Trazado_151856" data-name="Trazado 151856" d="M350.9,235.14c-6.94,15.34-6.16,39.73-5.69,47.58,2.25-6.76,7.46-16.24,12.27-25.52l-.72-8.38S359.25,216.66,350.9,235.14Z" opacity="0.1"/>
            <g id="Grupo_90227" data-name="Grupo 90227">
              <path id="Trazado_151857" data-name="Trazado 151857" d="M315.77,346.26l-.12,5.25,16.82,2.57,1.2-4.93Z" fill="#3e2ea6"/>
              <path id="Trazado_151858" data-name="Trazado 151858" d="M315.77,346.26l-.12,5.25,16.82,2.57,1.2-4.93Z" fill="#fff" opacity="0.3"/>
            </g>
          </g>
          <g id="Grupo_90231" data-name="Grupo 90231">
            <path id="Trazado_151859" data-name="Trazado 151859" d="M350.54,207.85s-1.35,54.09-1.07,72.12c.28,17.88,3.32,71.44,3.32,71.44h14.07s1.6-53.63,3.2-71.44,9-41.59-3.2-71.44Z" fill="#3e2ea6"/>
            <path id="Trazado_151860" data-name="Trazado 151860" d="M355.93,351.95v13.5h7.39l.96-13.5Z" fill="#ffb570"/>
            <g id="Grupo_90229" data-name="Grupo 90229">
              <path id="Trazado_151861" data-name="Trazado 151861" d="M351.82,365.53a3.5,3.5,0,0,1-2.43-.66.72.72,0,0,1,0-.85,1,1,0,0,1,.62-.46c1.39-.37,4.27,1.31,4.4,1.39a.2.2,0,0,1-.07.36A14.443,14.443,0,0,1,351.82,365.53Zm-1.3-1.63a1.2,1.2,0,0,0-.38.05.5.5,0,0,0-.39.27c-.15.24-.1.36,0,.43.38.54,2.47.57,4,.4a9,9,0,0,0-3.23-1.15Z" fill="#3e2ea6"/>
              <path id="Trazado_151862" data-name="Trazado 151862" d="M354.33,365.31a.08.08,0,0,1-.08,0c-1-.45-3-2.26-2.78-3.2,0-.22.19-.49.73-.54a1.47,1.47,0,0,1,1.1.34c1.05.88,1.25,3.12,1.26,3.23a.19.19,0,0,1-.09.17.17.17,0,0,1-.14,0Zm-2-3.38h-.11c-.35,0-.38.17-.39.22-.06.56,1.24,2,2.26,2.6a4.69,4.69,0,0,0-1.08-2.56,1.06,1.06,0,0,0-.68-.25Z" fill="#3e2ea6"/>
              <path id="Trazado_151863" data-name="Trazado 151863" d="M355.22,364.16l9.06.08a.73.73,0,0,1,.71.58l1.57,7.39a1.2,1.2,0,0,1-.92,1.44,1.09,1.09,0,0,1-.26,0c-3.26-.09-6.17-.29-10.23-.32-4.8,0-3.59.54-9.24.57-3.4,0-4-3.86-2.54-4,6.61-.77,7.31-2.76,9.88-5.1a2.87,2.87,0,0,1,1.97-.64Z" fill="#091320"/>
            </g>
            <g id="Grupo_90230" data-name="Grupo 90230">
              <path id="Trazado_151864" data-name="Trazado 151864" d="M350.58,348.59l.6,5.22,17.01.26.52-5.05Z" fill="#3e2ea6"/>
              <path id="Trazado_151865" data-name="Trazado 151865" d="M350.58,348.59l.6,5.22,17.01.26.52-5.05Z" fill="#fff" opacity="0.3"/>
            </g>
          </g>
          <g id="Grupo_90235" data-name="Grupo 90235">
            <path id="Trazado_151866" data-name="Trazado 151866" d="M361,158.34l8,1.82c-.62-3.47,1-8,2.37-11.29l-9.63,5.29C361.84,156,361.79,157.39,361,158.34Z" fill="#ffb570"/>
            <path id="Trazado_151867" data-name="Trazado 151867" d="M367.5,151l-5.68,3.17a13.361,13.361,0,0,1-.08,2.45c1.89.12,5.08-.84,5.88-2.75a5.82,5.82,0,0,0-.12-2.87Z" opacity="0.2"/>
            <path id="Trazado_151868" data-name="Trazado 151868" d="M378.51,142.68c-3.37,6.62-4.65,9.49-9.6,11.48-7.45,3-14.83-2.59-13.51-10.08,1.2-6.74,6.53-16.46,14.34-16.23a10.12,10.12,0,0,1,8.77,14.83Z" fill="#ffb570"/>
            <path id="Trazado_151869" data-name="Trazado 151869" d="M366.91,139.75c-.25.55-.74.87-1.1.72s-.46-.74-.22-1.29.73-.87,1.09-.72S367.11,139.21,366.91,139.75Z" fill="#091320"/>
            <path id="Trazado_151870" data-name="Trazado 151870" d="M360.65,137.05c-.25.56-.73.87-1.09.72s-.46-.74-.23-1.29.74-.88,1.09-.72S360.89,136.49,360.65,137.05Z" fill="#091320"/>
            <path id="Trazado_151871" data-name="Trazado 151871" d="M360.57,135.86l-1.16-1S359.64,136.24,360.57,135.86Z" fill="#091320"/>
            <path id="Trazado_151872" data-name="Trazado 151872" d="M362.14,138.89a16.359,16.359,0,0,1-3.51,2.67,2.66,2.66,0,0,0,1.81,1.23Z" fill="#ff8935"/>
            <path id="Trazado_151873" data-name="Trazado 151873" d="M362.52,146.26a5.33,5.33,0,0,1-.85-.29.19.19,0,0,1-.1-.23h0a.18.18,0,0,1,.24-.09,4.81,4.81,0,0,0,4.31-.16.19.19,0,0,1,.25,0,.18.18,0,0,1-.05.24A4.93,4.93,0,0,1,362.52,146.26Z" fill="#091320"/>
            <path id="Trazado_151874" data-name="Trazado 151874" d="M370,139.59a.36.36,0,0,1-.27-.32,4.19,4.19,0,0,0-1.89-2.77.36.36,0,0,1-.12-.5.34.34,0,0,1,.47-.11h0a4.88,4.88,0,0,1,2.23,3.34.35.35,0,0,1-.33.37H370Z" fill="#091320"/>
            <path id="Trazado_151875" data-name="Trazado 151875" d="M360,133.35a.38.38,0,0,1-.26-.26.37.37,0,0,1,.25-.44,3.47,3.47,0,0,1,3.21.59.33.33,0,0,1,0,.47h0a.36.36,0,0,1-.5,0h0a2.82,2.82,0,0,0-2.53-.41A.38.38,0,0,1,360,133.35Z" fill="#091320"/>
            <path id="Trazado_151876" data-name="Trazado 151876" d="M366.82,138.62l-1.16-1S365.89,139,366.82,138.62Z" fill="#091320"/>
            <g id="Grupo_90232" data-name="Grupo 90232">
              <path id="Trazado_151877" data-name="Trazado 151877" d="M375.69,136.76a11.09,11.09,0,0,1-10.95-4.27l4.28.68-9.61-4.27a19.46,19.46,0,0,1,7.48-3.33l-2.15-1.46S380,121,381.29,135.84c0,0,.65,3.9-1.62,6.39S375.69,136.76,375.69,136.76Z" fill="#091320"/>
              <path id="Trazado_151878" data-name="Trazado 151878" d="M377.25,138.17s-3.52,4.6-2.41,9.33c0,0,6-3.64,6.38-8.61C381.69,132.49,377.25,138.17,377.25,138.17Z" fill="#091320"/>
            </g>
            <path id="Trazado_151879" data-name="Trazado 151879" d="M378.09,148.71a5.31,5.31,0,0,1-3.69,1.71c-1.87.05-2.36-1.73-1.46-3.27.81-1.38,2.76-3.07,4.46-2.42a2.39,2.39,0,0,1,1.29,3.13,2.23,2.23,0,0,1-.6.85Z" fill="#ffb570"/>
            <g id="Grupo_90234" data-name="Grupo 90234">
              <path id="Trazado_151880" data-name="Trazado 151880" d="M376.78,149.74a4.27,4.27,0,0,1,.44,3.15c-.25,1-1.11,2.35-2.27,1.45-1.33-1.05-1.38-5.1.74-5.31.31,0,.31-.51,0-.48-2.65.27-2.76,5-.91,6.28a1.68,1.68,0,0,0,2.45-.7,4.66,4.66,0,0,0,0-4.63.242.242,0,0,0-.42.24Z" fill="#091320"/>
              <g id="Grupo_90233" data-name="Grupo 90233" opacity="0.5">
                <path id="Trazado_151881" data-name="Trazado 151881" d="M376.78,149.74a4.27,4.27,0,0,1,.44,3.15c-.25,1-1.11,2.35-2.27,1.45-1.33-1.05-1.38-5.1.74-5.31.31,0,.31-.51,0-.48-2.65.27-2.76,5-.91,6.28a1.68,1.68,0,0,0,2.45-.7,4.66,4.66,0,0,0,0-4.63.242.242,0,0,0-.42.24Z" fill="#fff"/>
              </g>
            </g>
          </g>
          <g id="Grupo_90236" data-name="Grupo 90236">
            <path id="Trazado_151882" data-name="Trazado 151882" d="M311.94,158.23l-5.68-5.69,1-5.48a2.89,2.89,0,0,0-1-2.69l-2.12-1.78-.24-.67a2.87,2.87,0,0,0-4.49-1.27h0a3,3,0,0,0-.69.81l-2.48,4.31a2.84,2.84,0,0,0-.25,2.28l1.4,4.49,3.91,2.31,5.33,7.64Z" fill="#ffb570"/>
            <path id="Trazado_151883" data-name="Trazado 151883" d="M348.92,161a1.46,1.46,0,0,0-2-1.05c-2.2.92-7.23,3.16-18.63,8.56-3.37,1.6-11.44-5.8-16.88-13L304.12,162s13,17.33,21.33,17.51,25.06-11,25.06-11Z" fill="#091320"/>
          </g>
          <path id="Trazado_151884" data-name="Trazado 151884" d="M336.1,176.58a104.314,104.314,0,0,0,11.42-6.14v-2.88l-3.88-4a67.54,67.54,0,0,0-7.54,13.02Z" opacity="0.5"/>
          <path id="Trazado_151885" data-name="Trazado 151885" d="M339.14,211.19s-1.25-20.79,1.77-36.61,3.56-17.77,21.33-13.33,18.31,3.38,15.64,12.09c-2.29,7.48-6.58,29-8.35,39.09Z" fill="#091320"/>
          <path id="Trazado_151886" data-name="Trazado 151886" d="M358.32,160.32l1-1.73a4.09,4.09,0,0,0,.59-2.13v-.94a.61.61,0,0,1,.86-.56,26.91,26.91,0,0,0,9.11,2.44.85.85,0,0,1,.72,1.18l-.51,1.14a3.359,3.359,0,0,0-.29,1.43v2a12.3,12.3,0,0,1-11.48-2.83Z" fill="#091320"/>
          <path id="Trazado_151887" data-name="Trazado 151887" d="M359.21,161.05s2.16,3.3,9.28,2.35C368.49,163.4,360.05,168.37,359.21,161.05Z" opacity="0.5"/>
          <path id="Trazado_151888" data-name="Trazado 151888" d="M365.79,215.28l-5,4.44h-5.34a5.47,5.47,0,0,0-2.94.85l-1.87,1.16a4.23,4.23,0,0,0-1.26,6l.71,1.06a4.23,4.23,0,0,0,6.27.83l1.52-1.32.93-.23a5.46,5.46,0,0,0,3.69-3.14h0l6.11-4.45Z" fill="#ffb570"/>
          <g id="Grupo_90237" data-name="Grupo 90237">
            <path id="Trazado_151889" data-name="Trazado 151889" d="M373.78,164.63s10.23,1.59,10.57,10,3,22.51,1,29.72S367.89,223,367.89,223l-4.29-7.49s12.51-9.28,12.51-19.6S369.39,163.18,373.78,164.63Z" fill="#091320"/>
            <path id="Trazado_151890" data-name="Trazado 151890" d="M374.94,185.24a71.286,71.286,0,0,1,1.17,10.66,13.428,13.428,0,0,1-.26,2.61c1.62-5.56,1.5-16.16,1.25-22.41C376.45,178.59,375.71,181.76,374.94,185.24Z" opacity="0.5"/>
          </g>
        </g>
        <g id="Grupo_90239" data-name="Grupo 90239">
          <path id="Trazado_151891" data-name="Trazado 151891" d="M326.22,175l-21.53-12.94V155.9c4.46-1,7-6.28,3.36-9.94-3.88-3.87-9.62-.78-10.06,4.16-.09,1,1.51,1,1.6,0,.32-3.52,4.52-5.85,7.24-2.94a4.27,4.27,0,0,1-2.94,7.25.81.81,0,0,0-.8.8v6.84L281.56,175a.8.8,0,1,0,.81,1.38l10.51-6.32,7.63-4.59c.87-.52,1.81-1,2.63-1.58.17-.12.62-.32.85-.47.54.45,2.41,1.53,2.92,1.84l7.54,4.53,11,6.59a.8.8,0,0,0,.77-1.38Z" fill="#091320"/>
          <path id="Trazado_151892" data-name="Trazado 151892" d="M326.22,175l-21.53-12.94V155.9c4.46-1,7-6.28,3.36-9.94-3.88-3.87-9.62-.78-10.06,4.16-.09,1,1.51,1,1.6,0,.32-3.52,4.52-5.85,7.24-2.94a4.27,4.27,0,0,1-2.94,7.25.81.81,0,0,0-.8.8v6.84L281.56,175a.8.8,0,1,0,.81,1.38l10.51-6.32,7.63-4.59c.87-.52,1.81-1,2.63-1.58.17-.12.62-.32.85-.47.54.45,2.41,1.53,2.92,1.84l7.54,4.53,11,6.59a.8.8,0,0,0,.77-1.38Z" fill="#fff" opacity="0.5"/>
        </g>
        <g id="Grupo_90242" data-name="Grupo 90242">
          <path id="Trazado_151893" data-name="Trazado 151893" d="M292.25,167.56s10.15,7.07,25.2,0c0,0,15.32,6.53,16.12,13.73s2.53,34,2.53,34H324.51l.53,37.45H283.31l1.47-37.45H270.12s3.51-34.86,7.22-39.22S292.25,167.56,292.25,167.56Z" fill="#e88033"/>
          <path id="Trazado_151894" data-name="Trazado 151894" d="M292.25,167.56s-1.35.5-3.27,1.33c1.89,1.91,6.36,5.21,14.91,5.47a26.53,26.53,0,0,0,16.74-5.28,34.477,34.477,0,0,0-3.18-1.52C302.4,174.63,292.25,167.56,292.25,167.56Z" fill="#fff" opacity="0.3"/>
          <path id="Trazado_151895" data-name="Trazado 151895" d="M285.02,195.64l-3.84,19.51,3.61.13.69-19.64Z" opacity="0.2"/>
          <g id="Grupo_90240" data-name="Grupo 90240">
            <path id="Trazado_151896" data-name="Trazado 151896" d="M268.52,213.15l-.8,4.13,16.96.66v-4.13Z" fill="#3e2ea6"/>
            <path id="Trazado_151897" data-name="Trazado 151897" d="M268.52,213.15l-.8,4.13,16.96.66v-4.13Z" fill="#fff" opacity="0.3"/>
          </g>
          <path id="Trazado_151898" data-name="Trazado 151898" d="M323.9,195.64l.61,19.64,2.09-.13-2.52-19.51Z" opacity="0.2"/>
          <g id="Grupo_90241" data-name="Grupo 90241">
            <path id="Trazado_151899" data-name="Trazado 151899" d="M324.51,213.15v3.99h13.46l-.53-3.99Z" fill="#3e2ea6"/>
            <path id="Trazado_151900" data-name="Trazado 151900" d="M324.51,213.15v3.99h13.46l-.53-3.99Z" fill="#fff" opacity="0.3"/>
          </g>
          <path id="Trazado_151901" data-name="Trazado 151901" d="M324.93,244.91H283.62l-.12,3.2h41.47Z" fill="#fff" opacity="0.3"/>
        </g>
        <path id="Trazado_151902" data-name="Trazado 151902" d="M304.13,143.32v4.65l-4.05,3.94-2.17-.52-.98-3.78,3.08-3.83Z" fill="#ffb570"/>
      </g>
      <g id="Grupo_90253" data-name="Grupo 90253">
        <g id="Grupo_90245" data-name="Grupo 90245">
          <path id="Trazado_151903" data-name="Trazado 151903" d="M59.59,346.66l-2.87,15.62H48.16l1.65-15.62Z" fill="#e67b62"/>
          <g id="Grupo_90244" data-name="Grupo 90244">
            <path id="Trazado_151904" data-name="Trazado 151904" d="M58.53,362.12a.23.23,0,0,1-.19-.18.25.25,0,0,1,.11-.24c.15-.08,3.48-2,5.09-1.6a1.16,1.16,0,0,1,.72.52.86.86,0,0,1,0,1c-.39.52-1.62.75-2.82.76a17,17,0,0,1-2.91-.26Zm.73-.31c1.79.21,4.22.17,4.66-.46.06-.08.12-.21-.05-.5a.66.66,0,0,0-.45-.31,1.3,1.3,0,0,0-.44-.05,10.55,10.55,0,0,0-3.72,1.32Z" fill="#3e2ea6"/>
            <path id="Trazado_151905" data-name="Trazado 151905" d="M58.41,362.11a.23.23,0,0,1-.11-.2c0-.12.25-2.72,1.46-3.73a1.68,1.68,0,0,1,1.27-.4c.62.05.82.37.85.63.21,1.08-2.08,3.18-3.22,3.7a.11.11,0,0,1-.1,0,.2.2,0,0,1-.15,0Zm2.47-3.9a1.2,1.2,0,0,0-.79.29,5.4,5.4,0,0,0-1.24,3c1.18-.72,2.68-2.36,2.61-3,0-.06,0-.22-.45-.25Z" fill="#3e2ea6"/>
            <path id="Trazado_151906" data-name="Trazado 151906" d="M57.54,360.79l-10.49.09a.85.85,0,0,0-.82.67l-1.82,8.55a1.4,1.4,0,0,0,1.07,1.67,1.54,1.54,0,0,0,.3,0c3.78-.1,7.14-.34,11.84-.38,5.56-.05,4.15.63,10.69.66,3.93,0,4.61-4.46,2.94-4.66-7.64-.9-8.46-3.19-11.43-5.9A3.37,3.37,0,0,0,57.54,360.79Z" fill="#091320"/>
          </g>
          <path id="Trazado_151907" data-name="Trazado 151907" d="M48.86,355.67l8.91.86.9-4.86-8.11-1.92-1.16.81Z" opacity="0.2"/>
        </g>
        <g id="Grupo_90247" data-name="Grupo 90247">
          <path id="Trazado_151908" data-name="Trazado 151908" d="M95.45,346.66l-.78,15.62H86.12l-.45-15.62Z" fill="#e67b62"/>
          <g id="Grupo_90246" data-name="Grupo 90246">
            <path id="Trazado_151909" data-name="Trazado 151909" d="M96.49,362.12a.23.23,0,0,1-.08-.42c.15-.08,3.48-2,5.09-1.6a1.16,1.16,0,0,1,.72.52.86.86,0,0,1,0,1c-.39.52-1.63.75-2.82.76a17,17,0,0,1-2.91-.26Zm.73-.31c1.79.21,4.22.17,4.66-.46.06-.08.12-.21,0-.5a.66.66,0,0,0-.45-.31,1.321,1.321,0,0,0-.44-.05A10.549,10.549,0,0,0,97.22,361.81Z" fill="#3e2ea6"/>
            <path id="Trazado_151910" data-name="Trazado 151910" d="M96.37,362.11a.23.23,0,0,1-.11-.2c0-.12.25-2.72,1.46-3.73a1.68,1.68,0,0,1,1.27-.4c.62.05.82.37.85.63.21,1.08-2.08,3.18-3.22,3.7a.11.11,0,0,1-.1,0,.2.2,0,0,1-.15,0Zm2.47-3.9a1.2,1.2,0,0,0-.79.29,5.4,5.4,0,0,0-1.24,3c1.18-.72,2.68-2.36,2.61-3,0-.06,0-.22-.45-.25Z" fill="#3e2ea6"/>
            <path id="Trazado_151911" data-name="Trazado 151911" d="M95.5,360.79l-10.5.09a.85.85,0,0,0-.82.67l-1.82,8.55a1.39,1.39,0,0,0,1.07,1.67,1.54,1.54,0,0,0,.3,0c3.78-.1,7.14-.34,11.84-.38,5.56-.05,4.15.63,10.68.66,3.94,0,4.62-4.46,2.95-4.66-7.65-.9-8.46-3.19-11.43-5.9a3.37,3.37,0,0,0-2.27-.7Z" fill="#091320"/>
          </g>
          <path id="Trazado_151912" data-name="Trazado 151912" d="M85.96,356.53h9l.3-5.98-2.04-.8-5.65.39-1.78.53Z" opacity="0.2"/>
        </g>
        <g id="Grupo_90248" data-name="Grupo 90248">
          <path id="Trazado_151913" data-name="Trazado 151913" d="M97.82,205.37S101,259.05,101,277c0,18.83-3.67,75.25-3.67,75.25H83s-.18-55.19-1.75-73.5c-1.32-15.51-9.1-61.6-9.1-61.6V205.37Z" fill="#091320"/>
          <path id="Trazado_151914" data-name="Trazado 151914" d="M81.76,348.72l.13,5.77,16.86.19.16-5.67Z" fill="#091320"/>
          <path id="Trazado_151915" data-name="Trazado 151915" d="M79.83,267c3.67-24.2,1.93-54.05,1.93-54.05L74,228.41C75.69,239,78.21,254.91,79.83,267Z" opacity="0.4"/>
          <path id="Trazado_151916" data-name="Trazado 151916" d="M81.76,348.72l.13,5.77,16.86.19.16-5.67Z" fill="#fff" opacity="0.3"/>
        </g>
        <g id="Grupo_90249" data-name="Grupo 90249">
          <path id="Trazado_151917" data-name="Trazado 151917" d="M83.13,205.37S75.48,262,72.64,280.82C69.94,298.7,61,352.22,61,352.22l-14.35-1.05s5.15-54.56,6-72.8c.59-13.29.26-39.38.7-53.2.35-10.85,1.05-19.8,1.05-19.8Z" fill="#091320"/>
          <path id="Trazado_151918" data-name="Trazado 151918" d="M45.68,347.58l-.61,5.78,16.8,1.4.87-5.6Z" fill="#091320"/>
          <path id="Trazado_151919" data-name="Trazado 151919" d="M45.68,347.58l-.61,5.78,16.8,1.4.87-5.6Z" fill="#fff" opacity="0.3"/>
        </g>
        <path id="Trazado_151920" data-name="Trazado 151920" d="M83.87,130.49s6.82-1.56,14,7.88c5.17,6.83,21.38,24.15,18.23,31.67-2.4,5.73-8,4.9-17.68-7.52S78.44,128.62,83.87,130.49Z" fill="#3e2ea6"/>
        <path id="Trazado_151921" data-name="Trazado 151921" d="M83.87,130.49s6.82-1.56,14,7.88c5.17,6.83,21.38,24.15,18.23,31.67-2.4,5.73-8,4.9-17.68-7.52S78.44,128.62,83.87,130.49Z" fill="#fff" opacity="0.7"/>
        <g id="Grupo_90250" data-name="Grupo 90250">
          <path id="Trazado_151922" data-name="Trazado 151922" d="M108,163.6s-12,11.85-3,14.53c8.58,2.53,11-4.47,11.41-9.63C116.7,165,115.53,160.1,108,163.6Z" fill="#3e2ea6"/>
          <path id="Trazado_151923" data-name="Trazado 151923" d="M108,163.6s-12,11.85-3,14.53c8.58,2.53,11-4.47,11.41-9.63C116.7,165,115.53,160.1,108,163.6Z" fill="#fff" opacity="0.7"/>
        </g>
        <path id="Trazado_151924" data-name="Trazado 151924" d="M54.57,208.35a1.89,1.89,0,0,1-1.75-2c.38-7.4,1.64-35.35-.63-49.62-2.62-16.53-4.2-24.67,13.65-27S95,130,97.6,143.09c2.26,11.29,1.41,51.27,1.13,62.28a3.27,3.27,0,0,1-2.93,3.18C90.13,209.15,76.11,210.12,54.57,208.35Z" fill="#3e2ea6"/>
        <path id="Trazado_151925" data-name="Trazado 151925" d="M54.57,208.35a1.89,1.89,0,0,1-1.75-2c.38-7.4,1.64-35.35-.63-49.62-2.62-16.53-4.2-24.67,13.65-27S95,130,97.6,143.09c2.26,11.29,1.41,51.27,1.13,62.28a3.27,3.27,0,0,1-2.93,3.18C90.13,209.15,76.11,210.12,54.57,208.35Z" fill="#fff" opacity="0.5"/>
        <path id="Trazado_151926" data-name="Trazado 151926" d="M82.3,133.06l.89-2-1.39-2.29-2.36.24a8.5,8.5,0,0,1-.07-2.37,21.452,21.452,0,0,1,.4-2.4l-5.92-5-4.34-3.6c1,4.55,2.13,11.94.1,16.13l10.55,6,3.48-4.14A8.342,8.342,0,0,1,82.3,133.06Z" fill="#e67b62"/>
        <path id="Trazado_151927" data-name="Trazado 151927" d="M62,130.37s8.35-9.15,17.8,6.42a58.93,58.93,0,0,0-.4-7.86s3.23-2.53,5.75,1.26c1.41,2.12.34,6.08-5,8.18a178.613,178.613,0,0,0-18.15-8Z" fill="#3e2ea6"/>
        <path id="Trazado_151928" data-name="Trazado 151928" d="M79.77,124a22,22,0,0,0-.4,2.41c-2.22-.44-5.56-2.42-5.86-4.93a9.88,9.88,0,0,1,.34-2.42Z" opacity="0.2"/>
        <path id="Trazado_151929" data-name="Trazado 151929" d="M87.68,101.14s6.46,3.21,4.75,5.91-4.89-1.11-4.89-1.11Z" fill="#091320"/>
        <path id="Trazado_151930" data-name="Trazado 151930" d="M70,104.8c-.9,7.11-1.8,11.21,1.08,15.57A9.32,9.32,0,0,0,87.5,118.9c2.7-6,3.66-16.59-2.62-20.85A9.47,9.47,0,0,0,70,104.8Z" fill="#e67b62"/>
        <path id="Trazado_151931" data-name="Trazado 151931" d="M80.22,111.24c-.11.57.11,1.1.48,1.18s.76-.32.9-.91a.93.93,0,0,0-.48-1.18C80.75,110.25,80.33,110.67,80.22,111.24Z" fill="#091320"/>
        <path id="Trazado_151932" data-name="Trazado 151932" d="M86.89,112.51c-.11.56.11,1.1.48,1.17s.75-.32.9-.9a.918.918,0,0,0-.48-1.18C87.42,111.52,87,111.93,86.89,112.51Z" fill="#091320"/>
        <path id="Trazado_151933" data-name="Trazado 151933" d="M84.28,112.43a22.19,22.19,0,0,0,1.47,4.71,3.06,3.06,0,0,1-2.48,0Z" fill="#d54c38"/>
        <path id="Trazado_151934" data-name="Trazado 151934" d="M82.42,120.8a5,5,0,0,1-3.71-1.14.17.17,0,0,1,0-.24.16.16,0,0,1,.22,0h0a4.76,4.76,0,0,0,4.09,1,.15.15,0,0,1,.19.11h0a.18.18,0,0,1-.13.2A4.491,4.491,0,0,1,82.42,120.8Z" fill="#091320"/>
        <path id="Trazado_151935" data-name="Trazado 151935" d="M78.74,108.84a.25.25,0,0,1-.15-.06.34.34,0,0,1-.09-.46h0a3.3,3.3,0,0,1,2.71-1.42.33.33,0,0,1,.3.36h0a.34.34,0,0,1-.36.32A2.55,2.55,0,0,0,79,108.7a.31.31,0,0,1-.26.14Z" fill="#091320"/>
        <path id="Trazado_151936" data-name="Trazado 151936" d="M90,110.31a.34.34,0,0,1-.27-.17,2.79,2.79,0,0,0-2-1.45.35.35,0,0,1-.32-.37h0a.35.35,0,0,1,.36-.32h0a3.41,3.41,0,0,1,2.57,1.8.34.34,0,0,1-.11.47A.43.43,0,0,1,90,110.31Z" fill="#091320"/>
        <path id="Trazado_151937" data-name="Trazado 151937" d="M68.89,96.57s-9,1.6-4,4.92c0,0-5.28,3.9,1,4.83,0,0-1.88,5.18,4.26,3.26,0,0,5.42.84,2.75-7,0,0,8.28,2.12,10.92-1.16,0,0,9,6.29,10.41.48,1.08-4.48-4.41-4.63-4.41-4.63s2.18-3.72-.4-5.17-4.92.63-4.92.63,2-3.68-1.42-3.78c-2.9-.08-4.92,3-4.92,3S66.34,89.8,68.89,96.57Z" fill="#091320"/>
        <path id="Trazado_151938" data-name="Trazado 151938" d="M66,110.78a7.61,7.61,0,0,0,2.77,4.35c1.81,1.32,3.17-.28,3.07-2.54-.09-2-1.14-5.18-3.13-5.6S65.54,108.61,66,110.78Z" fill="#e67b62"/>
        <path id="Trazado_151939" data-name="Trazado 151939" d="M92.36,148.77l-1.6,17.76a2,2,0,0,1-1.27,1.7,72.226,72.226,0,0,1-7,2.46,80.849,80.849,0,0,1-8.27.9,2,2,0,0,0-1.85,1.68h0a2,2,0,0,0,1.66,2.33l26,4.34a2,2,0,0,0,2.32-1.6l5.23-26.53a2,2,0,0,0-1.55-2.36L94.81,147a2,2,0,0,0-2.45,1.77Z" fill="#091320"/>
        <g id="Grupo_90252" data-name="Grupo 90252">
          <path id="Trazado_151940" data-name="Trazado 151940" d="M78.49,178H86a2.14,2.14,0,0,0,1.15-.33l4-2.49a2.11,2.11,0,0,1,1.15-.33h1.6a1.881,1.881,0,0,0,.53-.07l2.15-.53a2.15,2.15,0,0,1,2.14.65h0a2.18,2.18,0,0,1,.37,2.37l-2.5,5.49a2.17,2.17,0,0,1-2,1.28H89.9a1.872,1.872,0,0,1-.34,0l-4.67-.72a2.1,2.1,0,0,0-.56,0l-5.85.6a2.18,2.18,0,0,1-2.38-2.49l.23-1.53a2.18,2.18,0,0,1,2.16-1.9Z" fill="#e67b62"/>
          <g id="Grupo_90251" data-name="Grupo 90251">
            <path id="Trazado_151941" data-name="Trazado 151941" d="M58.49,131.74c-1.75,0-9.1-.52-13.65,18.38s-4.55,33.08,4,35.35,25.81,3.85,25.81,0l2.83-.21a2,2,0,0,0,1.81-1.95v-4.89a2,2,0,0,0-2-1.95l-1.58.08s0-2.1-3.9-2.28-17,2-17.2-2.25S67.24,131.74,58.49,131.74Z" fill="#3e2ea6"/>
            <path id="Trazado_151942" data-name="Trazado 151942" d="M58.49,131.74c-1.75,0-9.1-.52-13.65,18.38s-4.55,33.08,4,35.35,25.81,3.85,25.81,0l2.83-.21a2,2,0,0,0,1.81-1.95v-4.89a2,2,0,0,0-2-1.95l-1.58.08s0-2.1-3.9-2.28-17,2-17.2-2.25S67.24,131.74,58.49,131.74Z" fill="#fff" opacity="0.7"/>
          </g>
        </g>
        <path id="Trazado_151943" data-name="Trazado 151943" d="M106.75,164.59l-2.59,1.8a1.45,1.45,0,0,0-.62,1l-.78,5.25L101.49,174a1.48,1.48,0,0,0,0,2.08l.28.28a1.49,1.49,0,0,0,1.41.37l2.54-.66a1.5,1.5,0,0,0,1-.8l2.71-5.73a1.52,1.52,0,0,0,.14-.63v-2.66a1.47,1.47,0,0,0-.55-1.15l-.51-.41A1.47,1.47,0,0,0,106.75,164.59Z" fill="#e67b62"/>
      </g>
    </g>
    <g id="Rectngulo_35495" data-name="Rectngulo 35495" transform="translate(1063 1222)" fill="#0f0140" stroke="#707070" stroke-width="1">
      <rect width="148" height="40" stroke="none"/>
      <rect x="0.5" y="0.5" width="147" height="39" fill="none"/>
    </g>
    <g id="Rectngulo_35496" data-name="Rectngulo 35496" transform="translate(394 1219)" fill="#0f0140" stroke="#707070" stroke-width="1">
      <rect width="148" height="40" stroke="none"/>
      <rect x="0.5" y="0.5" width="147" height="39" fill="none"/>
    </g>
    <path id="Trazado_152678" data-name="Trazado 152678" d="M9.328,3.625v7.734a3.628,3.628,0,0,1-1.012,2.633,4.077,4.077,0,0,1-2.723,1.148l-.4.016a4.258,4.258,0,0,1-2.977-1.008,3.6,3.6,0,0,1-1.125-2.773V3.625H2.578v7.7a2.6,2.6,0,0,0,.68,1.918A2.612,2.612,0,0,0,5.2,13.93a2.63,2.63,0,0,0,1.949-.68,2.6,2.6,0,0,0,.676-1.914V3.625Zm3.508,2.922.047,1.063a3.08,3.08,0,0,1,2.531-1.219q2.68,0,2.7,3.023V15H16.672V9.406a1.946,1.946,0,0,0-.418-1.352,1.675,1.675,0,0,0-1.277-.437,2.086,2.086,0,0,0-1.234.375,2.546,2.546,0,0,0-.828.984V15H11.469V6.547Zm14.813,7.43A2.082,2.082,0,0,0,29,13.508a1.649,1.649,0,0,0,.641-1.172h1.367a2.621,2.621,0,0,1-.5,1.383,3.293,3.293,0,0,1-1.23,1.047,3.55,3.55,0,0,1-1.629.391A3.482,3.482,0,0,1,24.9,14a4.59,4.59,0,0,1-1.02-3.152v-.242a5.089,5.089,0,0,1,.453-2.2,3.451,3.451,0,0,1,1.3-1.492,3.7,3.7,0,0,1,2-.531A3.39,3.39,0,0,1,30,7.242a3.043,3.043,0,0,1,1,2.211H29.641a1.992,1.992,0,0,0-.621-1.348,1.932,1.932,0,0,0-1.379-.527,2.023,2.023,0,0,0-1.707.793,3.724,3.724,0,0,0-.605,2.293v.273a3.65,3.65,0,0,0,.6,2.25A2.033,2.033,0,0,0,27.648,13.977Zm4.6-3.281a4.993,4.993,0,0,1,.488-2.234A3.643,3.643,0,0,1,34.1,6.93a3.7,3.7,0,0,1,1.988-.539,3.565,3.565,0,0,1,2.793,1.2,4.6,4.6,0,0,1,1.066,3.18v.1a5.036,5.036,0,0,1-.473,2.215,3.589,3.589,0,0,1-1.352,1.527,3.743,3.743,0,0,1-2.02.547,3.556,3.556,0,0,1-2.785-1.2A4.575,4.575,0,0,1,32.25,10.8Zm1.453.172a3.616,3.616,0,0,0,.652,2.258,2.211,2.211,0,0,0,3.5-.012A3.955,3.955,0,0,0,38.5,10.7a3.61,3.61,0,0,0-.66-2.254,2.1,2.1,0,0,0-1.754-.863,2.075,2.075,0,0,0-1.727.852A3.925,3.925,0,0,0,33.7,10.867Zm9.414-4.32.039.938a3.122,3.122,0,0,1,2.508-1.094A2.417,2.417,0,0,1,48.078,7.75a3.2,3.2,0,0,1,1.1-.984,3.242,3.242,0,0,1,1.6-.375q2.781,0,2.828,2.945V15H52.156V9.422a1.941,1.941,0,0,0-.414-1.355,1.823,1.823,0,0,0-1.391-.449,1.917,1.917,0,0,0-1.336.48A1.949,1.949,0,0,0,48.4,9.391V15H46.945V9.461a1.613,1.613,0,0,0-1.8-1.844A1.934,1.934,0,0,0,43.2,8.828V15H41.75V6.547Zm19.8,4.32a5.062,5.062,0,0,1-.883,3.109,2.829,2.829,0,0,1-2.391,1.18,3.1,3.1,0,0,1-2.422-.977v4.07H55.781V6.547H57.1l.07.938a2.977,2.977,0,0,1,2.453-1.094,2.882,2.882,0,0,1,2.41,1.148,5.117,5.117,0,0,1,.887,3.2ZM61.477,10.7a3.735,3.735,0,0,0-.609-2.258A1.963,1.963,0,0,0,59.2,7.617a2.125,2.125,0,0,0-1.969,1.164V12.82a2.129,2.129,0,0,0,1.984,1.156,1.954,1.954,0,0,0,1.652-.824A4.077,4.077,0,0,0,61.477,10.7Zm7.367-2.859a4.331,4.331,0,0,0-.711-.055A1.9,1.9,0,0,0,66.2,9v6H64.758V6.547h1.406l.023.977A2.251,2.251,0,0,1,68.2,6.391a1.477,1.477,0,0,1,.641.109ZM75.078,15a3.036,3.036,0,0,1-.2-.891,3.225,3.225,0,0,1-2.406,1.047,2.984,2.984,0,0,1-2.051-.707,2.288,2.288,0,0,1-.8-1.793,2.39,2.39,0,0,1,1-2.051,4.733,4.733,0,0,1,2.824-.73h1.406V9.211A1.623,1.623,0,0,0,74.4,8a1.821,1.821,0,0,0-1.336-.449,2.108,2.108,0,0,0-1.3.391,1.151,1.151,0,0,0-.523.945H69.789a2,2,0,0,1,.449-1.223,3.066,3.066,0,0,1,1.219-.934,4.1,4.1,0,0,1,1.691-.344,3.342,3.342,0,0,1,2.289.73A2.635,2.635,0,0,1,76.3,9.133v3.891a4.757,4.757,0,0,0,.3,1.852V15Zm-2.4-1.1a2.54,2.54,0,0,0,1.289-.352,2.127,2.127,0,0,0,.883-.914V10.9H73.719q-2.656,0-2.656,1.555a1.316,1.316,0,0,0,.453,1.063A1.742,1.742,0,0,0,72.68,13.9Zm5.531-3.2a4.952,4.952,0,0,1,.922-3.129A3.137,3.137,0,0,1,83.9,7.406V3h1.445V15H84.016l-.07-.906a2.943,2.943,0,0,1-2.414,1.063,2.887,2.887,0,0,1-2.395-1.2,5.008,5.008,0,0,1-.926-3.141Zm1.445.164a3.749,3.749,0,0,0,.594,2.25,1.92,1.92,0,0,0,1.641.813A2.108,2.108,0,0,0,83.9,12.7V8.813a2.125,2.125,0,0,0-1.992-1.2,1.929,1.929,0,0,0-1.656.82A4.128,4.128,0,0,0,79.656,10.867ZM87.2,10.7a4.993,4.993,0,0,1,.488-2.234A3.643,3.643,0,0,1,89.051,6.93a3.7,3.7,0,0,1,1.988-.539,3.565,3.565,0,0,1,2.793,1.2,4.6,4.6,0,0,1,1.066,3.18v.1a5.036,5.036,0,0,1-.473,2.215,3.589,3.589,0,0,1-1.352,1.527,3.743,3.743,0,0,1-2.02.547,3.556,3.556,0,0,1-2.785-1.2A4.575,4.575,0,0,1,87.2,10.8Zm1.453.172a3.616,3.616,0,0,0,.652,2.258,2.211,2.211,0,0,0,3.5-.012,3.955,3.955,0,0,0,.648-2.418,3.61,3.61,0,0,0-.66-2.254,2.1,2.1,0,0,0-1.754-.863,2.075,2.075,0,0,0-1.727.852A3.925,3.925,0,0,0,88.656,10.867ZM100.8,7.844a4.331,4.331,0,0,0-.711-.055A1.9,1.9,0,0,0,98.156,9v6H96.711V6.547h1.406l.023.977a2.251,2.251,0,0,1,2.016-1.133,1.477,1.477,0,0,1,.641.109Z" transform="translate(1085.906 1231)" fill="#fff"/>
    <path id="Trazado_152677" data-name="Trazado 152677" d="M9.328,3.625v7.734a3.628,3.628,0,0,1-1.012,2.633,4.077,4.077,0,0,1-2.723,1.148l-.4.016a4.258,4.258,0,0,1-2.977-1.008,3.6,3.6,0,0,1-1.125-2.773V3.625H2.578v7.7a2.6,2.6,0,0,0,.68,1.918A2.612,2.612,0,0,0,5.2,13.93a2.63,2.63,0,0,0,1.949-.68,2.6,2.6,0,0,0,.676-1.914V3.625Zm3.508,2.922.047,1.063a3.08,3.08,0,0,1,2.531-1.219q2.68,0,2.7,3.023V15H16.672V9.406a1.946,1.946,0,0,0-.418-1.352,1.675,1.675,0,0,0-1.277-.437,2.086,2.086,0,0,0-1.234.375,2.546,2.546,0,0,0-.828.984V15H11.469V6.547Zm14.211,6.492,2.094-6.492h1.477L27.586,15h-1.1L23.422,6.547H24.9Zm8.367,2.117a3.693,3.693,0,0,1-2.8-1.129,4.19,4.19,0,0,1-1.078-3.02v-.266A5.073,5.073,0,0,1,32.02,8.5a3.748,3.748,0,0,1,1.344-1.547,3.378,3.378,0,0,1,1.871-.559A3.166,3.166,0,0,1,37.8,7.477a4.7,4.7,0,0,1,.914,3.109v.6H32.984a3,3,0,0,0,.73,2.02,2.3,2.3,0,0,0,1.777.77,2.517,2.517,0,0,0,1.3-.312,3.259,3.259,0,0,0,.93-.828l.883.688A3.55,3.55,0,0,1,35.414,15.156Zm-.18-7.578a1.928,1.928,0,0,0-1.469.637A3.1,3.1,0,0,0,33.031,10h4.234V9.891a2.753,2.753,0,0,0-.594-1.707A1.815,1.815,0,0,0,35.234,7.578ZM41.75,6.547,41.8,7.609a3.08,3.08,0,0,1,2.531-1.219q2.68,0,2.7,3.023V15H45.586V9.406a1.946,1.946,0,0,0-.418-1.352,1.675,1.675,0,0,0-1.277-.437,2.086,2.086,0,0,0-1.234.375,2.546,2.546,0,0,0-.828.984V15H40.383V6.547ZM48.859,10.7a4.952,4.952,0,0,1,.922-3.129,3.137,3.137,0,0,1,4.766-.168V3h1.445V15H54.664l-.07-.906a2.943,2.943,0,0,1-2.414,1.063,2.887,2.887,0,0,1-2.395-1.2,5.008,5.008,0,0,1-.926-3.141Zm1.445.164a3.749,3.749,0,0,0,.594,2.25,1.92,1.92,0,0,0,1.641.813A2.108,2.108,0,0,0,54.547,12.7V8.813a2.125,2.125,0,0,0-1.992-1.2,1.929,1.929,0,0,0-1.656.82A4.128,4.128,0,0,0,50.3,10.867Zm11.438,4.289a3.693,3.693,0,0,1-2.8-1.129,4.19,4.19,0,0,1-1.078-3.02v-.266a5.073,5.073,0,0,1,.48-2.246,3.748,3.748,0,0,1,1.344-1.547,3.378,3.378,0,0,1,1.871-.559,3.166,3.166,0,0,1,2.563,1.086,4.7,4.7,0,0,1,.914,3.109v.6H59.313a3,3,0,0,0,.73,2.02,2.3,2.3,0,0,0,1.777.77,2.517,2.517,0,0,0,1.3-.312,3.259,3.259,0,0,0,.93-.828l.883.688A3.55,3.55,0,0,1,61.742,15.156Zm-.18-7.578a1.928,1.928,0,0,0-1.469.637A3.1,3.1,0,0,0,59.359,10h4.234V9.891A2.753,2.753,0,0,0,63,8.184,1.815,1.815,0,0,0,61.563,7.578Zm4.8,3.125a4.952,4.952,0,0,1,.922-3.129,3.137,3.137,0,0,1,4.766-.168V3h1.445V15H72.164l-.07-.906a2.943,2.943,0,0,1-2.414,1.063,2.887,2.887,0,0,1-2.395-1.2,5.008,5.008,0,0,1-.926-3.141Zm1.445.164a3.749,3.749,0,0,0,.594,2.25,1.92,1.92,0,0,0,1.641.813A2.108,2.108,0,0,0,72.047,12.7V8.813a2.125,2.125,0,0,0-1.992-1.2,1.929,1.929,0,0,0-1.656.82A4.128,4.128,0,0,0,67.8,10.867Zm7.547-.172a4.993,4.993,0,0,1,.488-2.234A3.643,3.643,0,0,1,77.2,6.93a3.7,3.7,0,0,1,1.988-.539,3.565,3.565,0,0,1,2.793,1.2,4.6,4.6,0,0,1,1.066,3.18v.1a5.036,5.036,0,0,1-.473,2.215,3.589,3.589,0,0,1-1.352,1.527,3.743,3.743,0,0,1-2.02.547,3.556,3.556,0,0,1-2.785-1.2A4.575,4.575,0,0,1,75.352,10.8Zm1.453.172a3.616,3.616,0,0,0,.652,2.258,2.211,2.211,0,0,0,3.5-.012A3.955,3.955,0,0,0,81.6,10.7a3.61,3.61,0,0,0-.66-2.254,2.1,2.1,0,0,0-1.754-.863,2.075,2.075,0,0,0-1.727.852A3.925,3.925,0,0,0,76.8,10.867ZM88.945,7.844a4.331,4.331,0,0,0-.711-.055A1.9,1.9,0,0,0,86.3,9v6H84.859V6.547h1.406l.023.977A2.251,2.251,0,0,1,88.3,6.391a1.477,1.477,0,0,1,.641.109Z" transform="translate(422.906 1230)" fill="#fff"/>
    <path id="Trazado_152679" data-name="Trazado 152679" d="M9.625,3.625v7.492A3.836,3.836,0,0,1,8.457,14.07a4.5,4.5,0,0,1-3.191,1.086A4.553,4.553,0,0,1,2.1,14.1a3.77,3.77,0,0,1-1.2-2.9V3.625H3.25v7.508a2.167,2.167,0,0,0,.535,1.629,2.054,2.054,0,0,0,1.48.512q1.977,0,2.008-2.078V3.625Zm3.852,2.922.07.977a2.951,2.951,0,0,1,2.43-1.133,2.453,2.453,0,0,1,2,.789,3.682,3.682,0,0,1,.672,2.359V15H16.391V9.581a1.47,1.47,0,0,0-.312-1.045,1.4,1.4,0,0,0-1.039-.325,1.553,1.553,0,0,0-1.43.814V15H11.352V6.547Zm18.484,4.3a5.119,5.119,0,0,1-.867,3.168,2.872,2.872,0,0,1-2.422,1.137,2.639,2.639,0,0,1-2.2-1.055l-.1.9H24.344V3H26.6V7.3a2.571,2.571,0,0,1,2.055-.914,2.9,2.9,0,0,1,2.426,1.137,5.126,5.126,0,0,1,.879,3.2ZM29.7,10.679A3.381,3.381,0,0,0,29.3,8.8a1.372,1.372,0,0,0-1.211-.592A1.489,1.489,0,0,0,26.6,9.1v3.346a1.509,1.509,0,0,0,1.5.893,1.4,1.4,0,0,0,1.438-1.081A5.6,5.6,0,0,0,29.7,10.679ZM35.734,15H33.469V6.547h2.266Zm-2.4-10.641a1.112,1.112,0,0,1,.34-.836,1.465,1.465,0,0,1,1.848,0,1.105,1.105,0,0,1,.344.836,1.108,1.108,0,0,1-.348.844,1.448,1.448,0,0,1-1.836,0A1.108,1.108,0,0,1,33.336,4.359Zm8.148,10.8a4.15,4.15,0,0,1-3.027-1.141,4.054,4.054,0,0,1-1.168-3.039v-.219a5.106,5.106,0,0,1,.492-2.277,3.612,3.612,0,0,1,1.395-1.547,3.914,3.914,0,0,1,2.059-.543,3.508,3.508,0,0,1,2.73,1.094,4.444,4.444,0,0,1,1,3.1v.922H39.578a2.1,2.1,0,0,0,.66,1.328,2,2,0,0,0,1.395.5,2.437,2.437,0,0,0,2.039-.945l1.109,1.242a3.389,3.389,0,0,1-1.375,1.121A4.511,4.511,0,0,1,41.484,15.156Zm-.258-6.945a1.411,1.411,0,0,0-1.09.455,2.357,2.357,0,0,0-.535,1.3h3.141V9.788a1.681,1.681,0,0,0-.406-1.165A1.456,1.456,0,0,0,41.227,8.211ZM48.32,6.547l.07.977a2.951,2.951,0,0,1,2.43-1.133,2.453,2.453,0,0,1,2,.789,3.682,3.682,0,0,1,.672,2.359V15H51.234V9.581a1.47,1.47,0,0,0-.312-1.045,1.4,1.4,0,0,0-1.039-.325,1.553,1.553,0,0,0-1.43.814V15H46.2V6.547ZM58.836,10.7a5.013,5.013,0,0,1,.484-2.242A3.546,3.546,0,0,1,60.715,6.93a4.069,4.069,0,0,1,2.113-.539,3.849,3.849,0,0,1,2.793,1.047,4.2,4.2,0,0,1,1.207,2.844l.016.578a4.418,4.418,0,0,1-1.086,3.121,4.209,4.209,0,0,1-5.832,0,4.5,4.5,0,0,1-1.09-3.187Zm2.258.16a3.16,3.16,0,0,0,.453,1.843,1.628,1.628,0,0,0,2.578.008,3.457,3.457,0,0,0,.461-2.015,3.128,3.128,0,0,0-.461-1.831,1.5,1.5,0,0,0-1.3-.649,1.474,1.474,0,0,0-1.281.646A3.516,3.516,0,0,0,61.094,10.856Zm15.7,1.808a.727.727,0,0,0-.41-.652,4.659,4.659,0,0,0-1.316-.426q-3.016-.633-3.016-2.562a2.323,2.323,0,0,1,.934-1.879,3.766,3.766,0,0,1,2.441-.754A4.053,4.053,0,0,1,78,7.148a2.388,2.388,0,0,1,.965,1.969H76.711a1.092,1.092,0,0,0-.312-.8A1.322,1.322,0,0,0,75.422,8a1.351,1.351,0,0,0-.883.258.814.814,0,0,0-.312.656.7.7,0,0,0,.355.605,3.657,3.657,0,0,0,1.2.4A9.8,9.8,0,0,1,77.2,10.3a2.336,2.336,0,0,1,1.789,2.273A2.2,2.2,0,0,1,78,14.441a4.28,4.28,0,0,1-2.562.715,4.47,4.47,0,0,1-1.887-.379,3.166,3.166,0,0,1-1.293-1.039,2.414,2.414,0,0,1-.469-1.426H73.93a1.179,1.179,0,0,0,.445.922,1.766,1.766,0,0,0,1.109.32,1.635,1.635,0,0,0,.98-.246A.766.766,0,0,0,76.8,12.664Zm7.539,2.492a4.15,4.15,0,0,1-3.027-1.141,4.054,4.054,0,0,1-1.168-3.039v-.219a5.106,5.106,0,0,1,.492-2.277,3.612,3.612,0,0,1,1.395-1.547,3.914,3.914,0,0,1,2.059-.543,3.508,3.508,0,0,1,2.73,1.094,4.444,4.444,0,0,1,1,3.1v.922H82.43a2.1,2.1,0,0,0,.66,1.328,2,2,0,0,0,1.395.5,2.437,2.437,0,0,0,2.039-.945l1.109,1.242a3.389,3.389,0,0,1-1.375,1.121A4.511,4.511,0,0,1,84.336,15.156Zm-.258-6.945a1.411,1.411,0,0,0-1.09.455,2.357,2.357,0,0,0-.535,1.3h3.141V9.788a1.681,1.681,0,0,0-.406-1.165A1.456,1.456,0,0,0,84.078,8.211Zm9.766.453a6.134,6.134,0,0,0-.812-.062,1.654,1.654,0,0,0-1.68.867V15H89.094V6.547h2.133l.063,1.008a2.092,2.092,0,0,1,1.883-1.164,2.366,2.366,0,0,1,.7.1Zm4.391,3.578,1.57-5.7h2.359L99.313,15H97.156L94.3,6.547h2.359Zm7.3,2.758h-2.266V6.547h2.266Zm-2.4-10.641a1.112,1.112,0,0,1,.34-.836,1.465,1.465,0,0,1,1.848,0,1.105,1.105,0,0,1,.344.836,1.108,1.108,0,0,1-.348.844,1.448,1.448,0,0,1-1.836,0A1.108,1.108,0,0,1,103.141,4.359Zm7.773,8.977a1.481,1.481,0,0,0,1.016-.344,1.2,1.2,0,0,0,.406-.914h2.117a2.9,2.9,0,0,1-.469,1.574,3.093,3.093,0,0,1-1.262,1.109,3.949,3.949,0,0,1-1.77.395A3.67,3.67,0,0,1,108.094,14a4.56,4.56,0,0,1-1.047-3.184v-.148a4.508,4.508,0,0,1,1.039-3.117,3.627,3.627,0,0,1,2.852-1.164,3.555,3.555,0,0,1,2.543.9,3.2,3.2,0,0,1,.973,2.4h-2.117a1.551,1.551,0,0,0-.406-1.072,1.51,1.51,0,0,0-2.223.163,3.333,3.333,0,0,0-.4,1.866v.235a3.375,3.375,0,0,0,.4,1.878A1.377,1.377,0,0,0,110.914,13.336ZM118.125,15h-2.266V6.547h2.266Zm-2.4-10.641a1.112,1.112,0,0,1,.34-.836,1.465,1.465,0,0,1,1.848,0,1.105,1.105,0,0,1,.344.836,1.108,1.108,0,0,1-.348.844,1.448,1.448,0,0,1-1.836,0A1.108,1.108,0,0,1,115.727,4.359Zm3.906,6.336a5.013,5.013,0,0,1,.484-2.242,3.546,3.546,0,0,1,1.395-1.523,4.069,4.069,0,0,1,2.113-.539,3.849,3.849,0,0,1,2.793,1.047,4.2,4.2,0,0,1,1.207,2.844l.016.578a4.418,4.418,0,0,1-1.086,3.121,4.209,4.209,0,0,1-5.832,0,4.5,4.5,0,0,1-1.09-3.187Zm2.258.16a3.16,3.16,0,0,0,.453,1.843,1.628,1.628,0,0,0,2.578.008,3.457,3.457,0,0,0,.461-2.015,3.128,3.128,0,0,0-.461-1.831,1.5,1.5,0,0,0-1.3-.649,1.474,1.474,0,0,0-1.281.646A3.516,3.516,0,0,0,121.891,10.856ZM5.766,39a2.507,2.507,0,0,1-.227-.758,2.732,2.732,0,0,1-2.133.914,3,3,0,0,1-2.059-.719,2.312,2.312,0,0,1-.816-1.812,2.389,2.389,0,0,1,1-2.062,4.915,4.915,0,0,1,2.879-.727H5.445v-.484a1.393,1.393,0,0,0-.3-.937,1.183,1.183,0,0,0-.949-.352,1.345,1.345,0,0,0-.895.273.929.929,0,0,0-.324.75H.719a2.268,2.268,0,0,1,.453-1.359,3,3,0,0,1,1.281-.98,4.669,4.669,0,0,1,1.859-.355,3.689,3.689,0,0,1,2.48.785,2.747,2.747,0,0,1,.918,2.207v3.664a4.041,4.041,0,0,0,.336,1.82V39ZM3.9,37.43a1.945,1.945,0,0,0,.922-.223,1.462,1.462,0,0,0,.625-.6V35.156H4.6q-1.7,0-1.8,1.172l-.008.133a.9.9,0,0,0,.3.7A1.153,1.153,0,0,0,3.9,37.43Zm9.18-2.734a5.013,5.013,0,0,1,.484-2.242,3.546,3.546,0,0,1,1.395-1.523,4.069,4.069,0,0,1,2.113-.539,3.849,3.849,0,0,1,2.793,1.047,4.2,4.2,0,0,1,1.207,2.844l.016.578A4.418,4.418,0,0,1,20,37.98a3.775,3.775,0,0,1-2.914,1.176,3.793,3.793,0,0,1-2.918-1.172,4.5,4.5,0,0,1-1.09-3.187Zm2.258.16a3.16,3.16,0,0,0,.453,1.843,1.628,1.628,0,0,0,2.578.008,3.457,3.457,0,0,0,.461-2.015,3.128,3.128,0,0,0-.461-1.831,1.5,1.5,0,0,0-1.3-.649,1.474,1.474,0,0,0-1.281.646A3.516,3.516,0,0,0,15.336,34.856ZM23.094,39V32.2H21.836V30.547h1.258v-.719a2.918,2.918,0,0,1,.816-2.207,3.162,3.162,0,0,1,2.285-.785,5.321,5.321,0,0,1,1.148.155l-.023,1.736a2.878,2.878,0,0,0-.687-.07q-1.273,0-1.273,1.205v.685h1.68V32.2h-1.68V39Zm9.867-6.336a6.134,6.134,0,0,0-.812-.062,1.654,1.654,0,0,0-1.68.867V39H28.211V30.547h2.133l.063,1.008a2.092,2.092,0,0,1,1.883-1.164,2.366,2.366,0,0,1,.7.1Zm4.828,6.492a4.15,4.15,0,0,1-3.027-1.141,4.054,4.054,0,0,1-1.168-3.039v-.219a5.106,5.106,0,0,1,.492-2.277,3.612,3.612,0,0,1,1.395-1.547,3.914,3.914,0,0,1,2.059-.543,3.508,3.508,0,0,1,2.73,1.094,4.444,4.444,0,0,1,1,3.1v.922H35.883a2.1,2.1,0,0,0,.66,1.328,2,2,0,0,0,1.395.5,2.437,2.437,0,0,0,2.039-.945l1.109,1.242a3.389,3.389,0,0,1-1.375,1.121A4.511,4.511,0,0,1,37.789,39.156Zm-.258-6.945a1.411,1.411,0,0,0-1.09.455,2.357,2.357,0,0,0-.535,1.3h3.141v-.181a1.681,1.681,0,0,0-.406-1.165A1.456,1.456,0,0,0,37.531,32.211Zm8.531,5.125a1.481,1.481,0,0,0,1.016-.344,1.2,1.2,0,0,0,.406-.914H49.6a2.9,2.9,0,0,1-.469,1.574,3.093,3.093,0,0,1-1.262,1.109,3.949,3.949,0,0,1-1.77.395A3.67,3.67,0,0,1,43.242,38,4.56,4.56,0,0,1,42.2,34.82v-.148a4.508,4.508,0,0,1,1.039-3.117,3.627,3.627,0,0,1,2.852-1.164,3.555,3.555,0,0,1,2.543.9,3.2,3.2,0,0,1,.973,2.4H47.484a1.551,1.551,0,0,0-.406-1.072,1.51,1.51,0,0,0-2.223.163,3.333,3.333,0,0,0-.4,1.866v.235a3.375,3.375,0,0,0,.4,1.878A1.377,1.377,0,0,0,46.063,37.336Zm8.719,1.82a4.15,4.15,0,0,1-3.027-1.141,4.054,4.054,0,0,1-1.168-3.039v-.219a5.106,5.106,0,0,1,.492-2.277,3.612,3.612,0,0,1,1.395-1.547,3.914,3.914,0,0,1,2.059-.543,3.508,3.508,0,0,1,2.73,1.094,4.444,4.444,0,0,1,1,3.1v.922H52.875a2.1,2.1,0,0,0,.66,1.328,2,2,0,0,0,1.395.5,2.437,2.437,0,0,0,2.039-.945l1.109,1.242A3.389,3.389,0,0,1,56.7,38.754,4.511,4.511,0,0,1,54.781,39.156Zm-.258-6.945a1.411,1.411,0,0,0-1.09.455,2.357,2.357,0,0,0-.535,1.3h3.141v-.181a1.681,1.681,0,0,0-.406-1.165A1.456,1.456,0,0,0,54.523,32.211Zm9.766.453a6.134,6.134,0,0,0-.812-.062,1.654,1.654,0,0,0-1.68.867V39H59.539V30.547h2.133l.063,1.008a2.092,2.092,0,0,1,1.883-1.164,2.366,2.366,0,0,1,.7.1Zm-.148,5.227a1.137,1.137,0,0,1,.363-.875,1.412,1.412,0,0,1,1.828,0,1.137,1.137,0,0,1,.363.875,1.121,1.121,0,0,1-.359.863,1.435,1.435,0,0,1-1.836,0A1.121,1.121,0,0,1,64.141,37.891Z" transform="translate(394 1273)" fill="#12263f"/>
  </g>
</svg>
