<svg xmlns="http://www.w3.org/2000/svg" width="549.048" height="553.654" viewBox="0 0 549.048 553.654">
  <g id="Grupo_107265" data-name="Grupo 107265" transform="translate(-43.105 -72.192)">
    <g id="Grupo_107242" data-name="Grupo 107242" transform="translate(111.414 72.192)">
      <path id="Trazado_149468" data-name="Trazado 149468" d="M95.887,108.594c0-20.1,16.854-36.4,37.643-36.4s37.645,16.3,37.645,36.4S154.321,145,133.53,145s-37.643-16.3-37.643-36.4" transform="translate(-95.887 -72.192)" fill="#5c62b7"/>
      <rect id="Rectángulo_35274" data-name="Rectángulo 35274" width="50.193" height="31.337" transform="translate(12.304 21.912)" fill="#dad6f7"/>
      <path id="Trazado_149470" data-name="Trazado 149470" d="M130.186,109.533l-24.791-20.41h50.193Z" transform="translate(-93.09 -67.211)" fill="#8a7cbf"/>
    </g>
    <g id="Grupo_107244" data-name="Grupo 107244" transform="translate(53.315 120.486)">
      <path id="Trazado_149471" data-name="Trazado 149471" d="M50.994,130.42c0-11.548,9.682-20.911,21.624-20.911s21.624,9.363,21.624,20.911-9.682,20.911-21.624,20.911-21.624-9.363-21.624-20.911" transform="translate(-50.994 -109.509)" fill="#5c55b5"/>
      <g id="Grupo_107243" data-name="Grupo 107243" transform="translate(7.157 8.659)">
        <path id="Trazado_149472" data-name="Trazado 149472" d="M85.129,122.2a19.449,19.449,0,0,0-28.091,0,1.724,1.724,0,0,0,.045,2.5,1.87,1.87,0,0,0,2.583-.045,15.716,15.716,0,0,1,22.833,0,1.869,1.869,0,0,0,2.583.045,1.728,1.728,0,0,0,.047-2.5" transform="translate(-56.524 -116.2)" fill="#fff"/>
        <path id="Trazado_149473" data-name="Trazado 149473" d="M70.128,121.249a13.634,13.634,0,0,0-9.871,4.321,1.725,1.725,0,0,0,.093,2.5,1.873,1.873,0,0,0,2.583-.092,9.7,9.7,0,0,1,14.39,0,1.873,1.873,0,0,0,2.583.092,1.727,1.727,0,0,0,.093-2.5,13.639,13.639,0,0,0-9.872-4.321" transform="translate(-55.57 -114.715)" fill="#fff"/>
        <path id="Trazado_149474" data-name="Trazado 149474" d="M69.254,126.6a8.037,8.037,0,0,0-6.081,2.82,1.729,1.729,0,0,0,.207,2.491,1.871,1.871,0,0,0,2.577-.2,4.329,4.329,0,0,1,6.6,0,1.871,1.871,0,0,0,2.575.2,1.728,1.728,0,0,0,.207-2.491,8.042,8.042,0,0,0-6.083-2.82" transform="translate(-54.696 -113.141)" fill="#fff"/>
        <path id="Trazado_149475" data-name="Trazado 149475" d="M68.265,132.267a2.092,2.092,0,1,0,2.163,2.09,2.128,2.128,0,0,0-2.163-2.09" transform="translate(-53.706 -111.474)" fill="#fff"/>
      </g>
    </g>
    <g id="Grupo_107245" data-name="Grupo 107245" transform="translate(92.357 168.918)">
      <path id="Trazado_149476" data-name="Trazado 149476" d="M81.162,183.57c0-20.234,16.964-36.638,37.888-36.638s37.888,16.4,37.888,36.638-16.963,36.639-37.888,36.639S81.162,203.8,81.162,183.57" transform="translate(-81.162 -146.932)" fill="#5c55b5"/>
      <path id="Trazado_149477" data-name="Trazado 149477" d="M129.021,203.65l-4.777-12.6a1.454,1.454,0,0,0-1.843-.827l-4.154,1.473a1.45,1.45,0,0,1-1.844-.826L109.171,171.8a1.376,1.376,0,0,1,.854-1.782l4.435-1.572a1.379,1.379,0,0,0,.855-1.783l-4.3-11.347a1.451,1.451,0,0,0-1.844-.827l-8.133,2.883A7.965,7.965,0,0,0,96.1,167.68l10.651,28.1,2.905,7.661a8.392,8.392,0,0,0,10.664,4.778l7.85-2.782a1.377,1.377,0,0,0,.855-1.783" transform="translate(-76.919 -144.736)" fill="#dad6f7"/>
    </g>
    <g id="Grupo_107257" data-name="Grupo 107257" transform="translate(107.582 129.852)">
      <path id="Trazado_149478" data-name="Trazado 149478" d="M228.36,117.887c7.535.852,27.212-.324,45.727,20.6s6.915,43.786-.447,50.9,7.808,26.53,7.361,54.139-42.827,39.041-76.286,36.453-56.655-14.667-55.54-42.491,9.816-25.668,10.485-63.63,27.658-60.61,68.7-55.973" transform="translate(-76.391 -116.586)" fill="#33434f"/>
      <path id="Trazado_149479" data-name="Trazado 149479" d="M268.215,242.541c-.669-8.2-3.932-11.567-19.546-14.614-13.4-2.614-14.961-3.73-33.04-3.882-10.937-.092-25.707.162-43.55,4.477S156.464,240.6,156.24,251.817s.669,189.6.669,189.6H270.891s-2.007-190.675-2.676-198.871" transform="translate(-74.312 -85.186)" fill="#fff"/>
      <path id="Trazado_149480" data-name="Trazado 149480" d="M264.446,435.74c-12.548-4.168-25.384-11.061-32.278-22.814-.008-.013-.006-.026-.013-.037-5.712-7.343-9.757-16.049-12.846-24.79-6.572-18.583-8.206-38.215-8.689-57.791-.5-20.273.33-41.086-4.219-60.981a133.517,133.517,0,0,0-9.288-27.1c-2.087-4.436-4.461-8.686-6.79-13-.732-1.354-1.457-2.722-2.248-4.042a155.6,155.6,0,0,0-16,2.993c-17.845,4.313-15.615,12.078-15.839,23.295s.669,189.6.669,189.6H270.891s-.013-1.22-.036-3.454C268.682,437.058,266.539,436.435,264.446,435.74Z" transform="translate(-74.312 -84.846)" fill="#ede4e6"/>
      <path id="Trazado_149481" data-name="Trazado 149481" d="M239.511,232.062c-6.336-1.242-8.776-1.465-12.841-2.011l.175-16.217-32.9-7.333-.553,23.1a160.149,160.149,0,0,0-17.491,2.073c9.939,26.052,42.2,36.516,46.6,36.516,4.461,0,17.175-19.412,17.844-27.608a24.435,24.435,0,0,0-.828-8.518" transform="translate(-68.518 -90.343)" fill="#f4cfa2"/>
      <path id="Trazado_149482" data-name="Trazado 149482" d="M222.971,230.094l-.314-.043.175-16.217-32.9-7.333-.386,16.107C197.281,230.391,212.07,232.137,222.971,230.094Z" transform="translate(-64.504 -90.343)" fill="#efac8e"/>
      <path id="Trazado_149483" data-name="Trazado 149483" d="M256.038,187.828c-1.085,9.559-7.04,16.347-13.965,15.613s-11.71-9.34-10.625-18.9,7.095-16.084,14.016-15.35,11.659,9.077,10.575,18.635" transform="translate(-52.223 -101.334)" fill="#ca4456"/>
      <path id="Trazado_149484" data-name="Trazado 149484" d="M244.563,138.748l-45.232-1.174a15.085,15.085,0,0,0-15.7,14.39l-1.478,53.294c-.743,20.118,13.441,36.807,38.738,38.074,18.464.924,36.58-10.73,37.023-34.227l1.532-55.174a15.019,15.019,0,0,0-14.882-15.183" transform="translate(-66.688 -110.621)" fill="#f4cfa2"/>
      <path id="Trazado_149485" data-name="Trazado 149485" d="M189.492,171a55.969,55.969,0,0,0,7.988-.085,62.729,62.729,0,0,0,16.688-4.015c4.636-1.817,9.686-3.769,13.47-7.117,2.643-2.34,4.5-6.268,7.989-7.5a14.935,14.935,0,0,1,10.047.487c5.94,2.252,10.663,5.98,13.255,11.466l.287-10.307a15.019,15.019,0,0,0-14.882-15.183L199.1,137.574a15.085,15.085,0,0,0-15.7,14.39l-.5,18.007A21.286,21.286,0,0,0,189.492,171Z" transform="translate(-66.459 -110.621)" fill="#efac8e"/>
      <g id="Grupo_107246" data-name="Grupo 107246" transform="translate(112.616 15.142)">
        <path id="Trazado_149486" data-name="Trazado 149486" d="M180.04,189.4s9.869-4.368,9.869-20.545c0,0,36.3,3.4,42.995-23.457,0,0,24.926,2.265,27.1,27.016.334,4.044,10.707-10.839,3.012-27.016s-47.985-21.738-66.582-12.456c-10.371,5.177-17.4,10.839-16.394,56.458" transform="translate(-179.944 -128.446)" fill="#33434f"/>
        <path id="Trazado_149487" data-name="Trazado 149487" d="M181.871,151.119c1.732,1.079,4.3.792,6.22.437,5.14-.95,8.47-3.927,12.817-6.56a.652.652,0,0,1,.95.731c-.392,1.185-2.1,5.684.115,6.2a6.983,6.983,0,0,0,4.3-.877,36,36,0,0,0,8.091-5.309.652.652,0,0,1,1.081.629c-.651,4.543,4.2,1.505,6.058.181a20.54,20.54,0,0,0,5.7-5.425.652.652,0,0,1,1.016-.131c2.326,2.6,9.793,5,7.979-1.1-.2-.677.61-1,1.081-.629,3.814,3.036,8.554,5.718,13.393,6.6,2.628.476,6.829.795,8.736-1.62a3.274,3.274,0,0,0,.727-2.345c-11.394-13.439-47.084-17.545-64.271-8.967C189.677,136.027,184.681,139.3,181.871,151.119Z" transform="translate(-179.378 -128.446)" fill="#384f5e"/>
      </g>
      <g id="Grupo_107252" data-name="Grupo 107252" transform="translate(131.862 62.633)">
        <g id="Grupo_107247" data-name="Grupo 107247" transform="translate(1.237 0.092)">
          <path id="Trazado_149488" data-name="Trazado 149488" d="M195.794,170.815c-.085-.054.076-.423.413-1a11.359,11.359,0,0,1,1.632-2.159,8.705,8.705,0,0,1,3.041-2.015,6.59,6.59,0,0,1,3.745-.268,6.139,6.139,0,0,1,3.439,2c.366.491.259.674.109.8s-.311.206-.8-.045a12.479,12.479,0,0,0-3.085-1.373,5.782,5.782,0,0,0-2.958.12,8.92,8.92,0,0,0-2.78,1.514c-1.566,1.292-2.551,2.566-2.754,2.427" transform="translate(-195.772 -165.213)" fill="#42221b"/>
          <path id="Trazado_149489" data-name="Trazado 149489" d="M199.58,180.006c0-3.454,1.347-6.255,3.012-6.255s3.012,2.8,3.012,6.255-1.349,6.255-3.012,6.255-3.012-2.8-3.012-6.255" transform="translate(-194.651 -162.702)" fill="#42221b"/>
        </g>
        <g id="Grupo_107248" data-name="Grupo 107248" transform="translate(42.79)">
          <path id="Trazado_149490" data-name="Trazado 149490" d="M238.989,168.086c-.171.177-1.2-.758-2.759-1.325a6.058,6.058,0,0,0-4.985.467c-1.4.751-2.042,1.346-2.467,1.55-.414.228-.573.151-.733.026s-.272-.285-.014-.727a6.367,6.367,0,0,1,2.521-2.1,6.984,6.984,0,0,1,3.015-.826,5.868,5.868,0,0,1,3.09.7c1.71.933,2.445,2.156,2.331,2.243" transform="translate(-227.88 -165.142)" fill="#42221b"/>
          <path id="Trazado_149491" data-name="Trazado 149491" d="M229.915,180.006c0-3.454,1.347-6.255,3.01-6.255s3.012,2.8,3.012,6.255-1.347,6.255-3.012,6.255-3.01-2.8-3.01-6.255" transform="translate(-227.281 -162.61)" fill="#42221b"/>
        </g>
        <path id="Trazado_149492" data-name="Trazado 149492" d="M224.327,191.55a7.094,7.094,0,0,0-.459-.774c-.654-.959-1.349-1.761-1.955-2.5a9.281,9.281,0,0,1-.756-.982,5.169,5.169,0,0,1-.377-.987c-.356-1.334-.484-2.235-.681-2.229-.172,0-.392.894-.256,2.4a4.924,4.924,0,0,0,.294,1.263,7.3,7.3,0,0,0,.782,1.258c.564.788,1.226,1.614,1.817,2.485a6.848,6.848,0,0,1,.383.628,1.786,1.786,0,0,1,.1.242c.005-.013.006,0,.006,0s-.2.29-.327.44c-.159.182-.314.362-.466.537l-1.707,1.873c-.975,1.079-1.536,1.8-1.409,1.93s.918-.349,2.075-1.27c.577-.462,1.246-1.028,1.954-1.717l.537-.549a3.29,3.29,0,0,0,.581-.793,1.109,1.109,0,0,0,.05-.756,2.563,2.563,0,0,0-.189-.5" transform="translate(-187.613 -159.571)" fill="#42221b"/>
        <g id="Grupo_107249" data-name="Grupo 107249" transform="translate(0 28.039)">
          <path id="Trazado_149493" data-name="Trazado 149493" d="M197.636,186.949c-.228-.2-.454-.311-1.224.524s-1.791,2.3-1.563,2.5,1.618-.95,2.386-1.785.628-1.038.4-1.235" transform="translate(-194.816 -186.808)" fill="#ce6f5f"/>
          <path id="Trazado_149494" data-name="Trazado 149494" d="M200.307,186.949c-.226-.2-.453-.311-1.223.524s-1.792,2.3-1.565,2.5,1.619-.95,2.388-1.785.628-1.038.4-1.235" transform="translate(-194.03 -186.808)" fill="#ce6f5f"/>
        </g>
        <g id="Grupo_107250" data-name="Grupo 107250" transform="translate(49.518 26.853)">
          <path id="Trazado_149495" data-name="Trazado 149495" d="M235.9,186.033c-.228-.2-.453-.311-1.223.522s-1.791,2.3-1.565,2.5,1.618-.951,2.388-1.785.628-1.041.4-1.235" transform="translate(-233.078 -185.892)" fill="#ce6f5f"/>
          <path id="Trazado_149496" data-name="Trazado 149496" d="M238.57,186.033c-.228-.2-.453-.311-1.223.522s-1.792,2.3-1.565,2.5,1.618-.951,2.388-1.785.628-1.041.4-1.235" transform="translate(-232.292 -185.892)" fill="#ce6f5f"/>
        </g>
        <g id="Grupo_107251" data-name="Grupo 107251" transform="translate(13.972 44.466)">
          <path id="Trazado_149497" data-name="Trazado 149497" d="M230.595,199.5H208.067a2.414,2.414,0,0,0-2.455,2.372,11.962,11.962,0,0,0,12.157,11.756H221a11.851,11.851,0,0,0,12.045-11.647v-.109a2.412,2.412,0,0,0-2.452-2.372" transform="translate(-205.612 -199.501)" fill="#a03242"/>
          <path id="Trazado_149498" data-name="Trazado 149498" d="M218.677,204.229l-3.122-.21a11.672,11.672,0,0,0-8.463,2.851,12.243,12.243,0,0,0,10.242,5.437h3.233a12.237,12.237,0,0,0,7.351-2.436,11.676,11.676,0,0,0-9.242-5.643" transform="translate(-205.176 -198.18)" fill="#cc505c"/>
          <path id="Trazado_149499" data-name="Trazado 149499" d="M222.05,204.138a69.753,69.753,0,0,0,10.91-.8,11.447,11.447,0,0,0,.087-1.358v-.107a2.412,2.412,0,0,0-2.452-2.372H208.067a2.414,2.414,0,0,0-2.455,2.372,11.406,11.406,0,0,0,.1,1.448,70.361,70.361,0,0,0,11.077.817Z" transform="translate(-205.612 -199.501)" fill="#fff"/>
        </g>
      </g>
      <path id="Trazado_149500" data-name="Trazado 149500" d="M202.8,210.081c.681-3.695,4.843-6.068,9.3-5.3s7.514,4.383,6.834,8.077-4.843,6.068-9.3,5.3-7.513-4.383-6.833-8.077" transform="translate(-60.632 -90.892)" fill="#7f8c8d"/>
      <path id="Trazado_149501" data-name="Trazado 149501" d="M217.614,216.575q-.07,0-.14,0c-26.608-1.782-36.5-20.554-36.9-21.352a1.913,1.913,0,0,1,.911-2.6,2.041,2.041,0,0,1,2.687.877c.371.717,9.352,17.58,33.584,19.2a1.941,1.941,0,0,1-.137,3.88" transform="translate(-67.205 -94.486)" fill="#7f8c8d"/>
      <path id="Trazado_149502" data-name="Trazado 149502" d="M237.757,229.209s7.919,1.294,16.451,13.967,43.1,90.592,53.811,106.122,79.63,86.276,79.63,86.276H337.238s-33.012-29.979-53.308-54.786S241.771,312.2,241.771,312.2Z" transform="translate(-50.322 -83.663)" fill="#a03242"/>
      <g id="Grupo_107256" data-name="Grupo 107256" transform="translate(92.064)">
        <path id="Trazado_149503" data-name="Trazado 149503" d="M180.5,193.432s-.558-14.883-.558-30.629c0-22,10.485-41.09,41.377-44.756,0,0-16.617-6.363-34.35,9.059-12.936,12.511-13.272,24.266-13.718,34.726s0,31.707,0,31.707Z" transform="translate(-161.418 -116.746)" fill="#7f2437"/>
        <g id="Grupo_107255" data-name="Grupo 107255" transform="translate(0 56.679)">
          <g id="Grupo_107253" data-name="Grupo 107253" transform="translate(11.639)">
            <path id="Trazado_149504" data-name="Trazado 149504" d="M173.248,178.842l7.249-.107s-.182-4.891-.339-12.025H173.08c.056,6.713.168,12.133.168,12.133" transform="translate(-173.05 -158.728)" fill="#fff"/>
            <path id="Trazado_149505" data-name="Trazado 149505" d="M173.062,164.586h7.025c-.025-1.3-.045-2.654-.065-4.044h-6.964c0,1.349,0,2.7,0,4.044" transform="translate(-173.057 -160.542)" fill="#ffd731"/>
            <path id="Trazado_149506" data-name="Trazado 149506" d="M173.061,163.667c.005,1.341.014,2.661.025,3.937h7.078c-.027-1.249-.053-2.565-.078-3.937Z" transform="translate(-173.056 -159.623)" fill="#ff9517"/>
          </g>
          <g id="Grupo_107254" data-name="Grupo 107254" transform="translate(0 12.539)">
            <path id="Trazado_149507" data-name="Trazado 149507" d="M164.368,191.4c-1.442-10.426,4.783-19.833,13.9-21.012s17.121,4.07,19.016,16.256c1.619,10.4.524,19.158-12.936,21.893-9,1.829-18.539-6.71-19.981-17.137" transform="translate(-164.035 -170.231)" fill="#7f2437"/>
            <path id="Trazado_149508" data-name="Trazado 149508" d="M164.269,189.973c-1.266-9.165,3.45-16.932,11.131-17.923s15.059,5.865,16.326,15.029-3.574,16.7-11.257,17.69-14.935-5.632-16.2-14.8" transform="translate(-164.064 -169.724)" fill="#ca4456"/>
            <path id="Trazado_149509" data-name="Trazado 149509" d="M176.527,183.205c-2.011-2.864-2.341-6.066-.7-7.421s4.667-.074,6.678,2.79,2.269,6,.63,7.361-4.593.132-6.6-2.731" transform="translate(-160.912 -168.757)" fill="#e5617e"/>
          </g>
        </g>
      </g>
      <path id="Trazado_149510" data-name="Trazado 149510" d="M220.187,225.386s12.032,36.385,12.924,66.15.669,149.476.669,149.476h28.328s-1.562-108.278-.892-111.513,11.821-14.021,5.13-38.394-10.707-28.686-12.045-35.59.336-21.88-10.484-24.993a175.985,175.985,0,0,0-23.63-5.137" transform="translate(-55.49 -84.788)" fill="#ca4456"/>
      <path id="Trazado_149511" data-name="Trazado 149511" d="M193.391,224.391s-27.645.971-39.356,15.045,3.345,51.281,3.012,69.238-5.521,132.167-5.521,132.167h57.047s2.007-113.4,1.84-138.8-17.022-77.65-17.022-77.65" transform="translate(-76.264 -85.08)" fill="#ca4456"/>
      <path id="Trazado_149512" data-name="Trazado 149512" d="M207.026,371.37c-6.638-.924-13.455-4.206-19.253-7.448-7.145-3.994-13.472-8.969-18.039-15.851-4.21-6.343-7.689-14.211-8.62-21.834-1.021-8.368-.67-17.025.008-25.415.318-3.936.828-8.152.126-12.075-.329-1.838-1.075-4.891-2.935-5.905-.836-.457-1.593.037-2.248.951a53.473,53.473,0,0,1,.538,7.736c-.335,17.957-5.521,132.167-5.521,132.167h57.047s.422-23.837.863-52.1C208.334,371.531,207.677,371.46,207.026,371.37Z" transform="translate(-75.819 -67.937)" fill="#7f2437"/>
      <path id="Trazado_149513" data-name="Trazado 149513" d="M183.889,289.844s-42.993,61.8-42.993,62.443,96.193,28.957,96.193,28.957l-9.368,26.53S123.5,388.524,104.426,379.951s-11.041-24.427-.167-43.355,36.8-60.179,50.69-80.562,23.587-25.236,34.963-27.986-9.535,2.265-6.023,61.8" transform="translate(-92.926 -84.174)" fill="#ca4456"/>
      <path id="Trazado_149514" data-name="Trazado 149514" d="M194.08,363.8a209.39,209.39,0,0,1-45.291-1.477c-15.434-2.256-34.291-6.888-44.8-19.469a24.385,24.385,0,0,1-5.8-19.136,37.825,37.825,0,0,1,.865-4.662c-7.624,14.722-10.448,26.838,5.364,33.947,19.072,8.574,123.294,27.825,123.294,27.825l9.368-26.53-3.971-1.169C221.369,360.019,207.547,362.808,194.08,363.8Z" transform="translate(-92.925 -57.232)" fill="#a03242"/>
      <path id="Trazado_149515" data-name="Trazado 149515" d="M123.263,342.217c6.844,3.92,15.421,3.757,23,5.089,9.807,1.725,19.414,4.511,29.2,6.356,8.4,1.583,16.728,2.878,25.062,4.853,5.311,1.259,10.947,2.684,16.53,2.9-25.39-7.5-84.921-25.125-84.921-25.634,0-.48,23.664-34.616,35.879-52.205-6.347,7.338-13.449,14.051-19.427,21.725-8.376,10.752-15.151,22.951-25.877,31.615.98.4,1.864.993,2.859,1.434a.648.648,0,0,1,.131,1.017A21.8,21.8,0,0,0,123.263,342.217Z" transform="translate(-84.165 -67.67)" fill="#cc505c"/>
      <path id="Trazado_149516" data-name="Trazado 149516" d="M192.035,360.189c3.546-16.137,15.835-16.932,30.223-18.334s18.4.54,26.321,4.1,13.607,6.687,12.938,9.6-2.231,5.177-6.246,3.883-14.611,4.637-14.052,8.3,8.253,7.765,6.022,11.648-8.253,3.235-13.272.324-7.249-3.99-9.591-2.7-14.5,2.588-22.864-.324-11.376-7.872-9.478-16.5" transform="translate(-63.932 -50.662)" fill="#f4cfa2"/>
      <path id="Trazado_149517" data-name="Trazado 149517" d="M235.2,374.06c-2.4-1.736-4.412-4.228-7.383-5.051-3.243-.9-6.486-.261-9.786-.188-4.154.092-8.57-.137-12.393-1.943-6.705-3.166-10.74-9.348-8.551-16.794a19.541,19.541,0,0,1,1.261-3.2c-2.929,2.564-5.121,6.256-6.316,11.7-1.9,8.628,1.114,13.589,9.478,16.5s20.522,1.618,22.864.324,4.572-.216,9.591,2.7c4.646,2.7,10.145,3.442,12.707.461C242.691,378.594,237.6,375.794,235.2,374.06Z" transform="translate(-63.932 -49.048)" fill="#efac8e"/>
      <path id="Trazado_149518" data-name="Trazado 149518" d="M229.53,348.5s12.714,6.04,17.955,8.952,7.7,5.931,5.241,9.6-14.5-1.079-24.536-6.04" transform="translate(-53.136 -48.572)" fill="#f4cfa2"/>
      <path id="Trazado_149519" data-name="Trazado 149519" d="M227.582,355.584s11.153,4.853,17.4,7.98,4.907,6.147,3.457,8.3-4.906,2.265-12.49-1.078-13.273-6.04-13.273-6.04" transform="translate(-54.758 -46.488)" fill="#f4cfa2"/>
    </g>
    <g id="Grupo_107258" data-name="Grupo 107258" transform="translate(79.977 380.171)">
      <path id="Trazado_149520" data-name="Trazado 149520" d="M97.466,390.775l-7.234-2.119,22.535-71.87L120,318.9Z" transform="translate(-66.114 -308.22)" fill="#37425b"/>
      <path id="Trazado_149521" data-name="Trazado 149521" d="M114.611,319.965l-7.233-2.12.345-1.06,7.234,2.119Z" transform="translate(-61.07 -308.22)" fill="#4e617f"/>
      <path id="Trazado_149522" data-name="Trazado 149522" d="M111.261,319.092l-3.618-1.059,2.833-2.739,2.832-2.739.785,3.8.785,3.8Z" transform="translate(-60.992 -309.464)" fill="#37425b"/>
      <path id="Trazado_149523" data-name="Trazado 149523" d="M107.036,387.994l-7.377,1.594L82.728,316.293l7.377-1.594Z" transform="translate(-68.321 -308.834)" fill="#4e617f"/>
      <path id="Trazado_149524" data-name="Trazado 149524" d="M90.343,315.786l-7.377,1.595-.238-1.088,7.377-1.594Z" transform="translate(-68.321 -308.834)" fill="#3f506d"/>
      <path id="Trazado_149525" data-name="Trazado 149525" d="M86.416,316.832l-3.688.8L83.8,313.9l1.075-3.731,2.614,2.935,2.614,2.933Z" transform="translate(-68.321 -310.167)" fill="#37425b"/>
      <path id="Trazado_149526" data-name="Trazado 149526" d="M99.528,317.667a.881.881,0,0,0-.821.946l4.909,53.707h0l1.355,1.385,1.359,1.386,1.087-1.594L108.5,371.9h0L103.6,318.2a.9.9,0,0,0-.98-.795Z" transform="translate(-63.622 -308.04)" fill="#ed6e18"/>
      <path id="Trazado_149527" data-name="Trazado 149527" d="M102.62,317.4l-3.088.265c-.5.043-.872.384-.837.765l1.4,15.363,4.888-.417-1.4-15.364a.826.826,0,0,0-.963-.612" transform="translate(-63.625 -308.04)" fill="#ff9517"/>
      <path id="Trazado_149528" data-name="Trazado 149528" d="M77.983,330.412a.471.471,0,0,0-.6-.3l-1.024.334a.471.471,0,1,0,.294.894l1.024-.336a.47.47,0,0,0,.3-.593" transform="translate(-70.289 -304.306)" fill="#242f3f"/>
      <path id="Trazado_149529" data-name="Trazado 149529" d="M72.416,320.655l5.148-1.637-.4-1.184-5.147,1.637Z" transform="translate(-71.473 -307.912)" fill="#242f3f"/>
      <path id="Trazado_149530" data-name="Trazado 149530" d="M78.825,334.515l-5.262-15.47a.709.709,0,0,0-.89-.436l-.59.186a.682.682,0,0,0-.452.865l5.262,15.469a.709.709,0,0,0,.89.436l.591-.188a.68.68,0,0,0,.45-.862" transform="translate(-71.596 -307.694)" fill="#2f3a4c"/>
      <path id="Trazado_149531" data-name="Trazado 149531" d="M73.324,312.39a1.134,1.134,0,0,0-.752,1.439l24.066,70.784h0l2.341,1.429,2.342,1.43,1.009-2.5,1.006-2.492h0L79.275,311.7a1.19,1.19,0,0,0-1.49-.727Z" transform="translate(-71.326 -309.947)" fill="#ffd731"/>
      <path id="Trazado_149532" data-name="Trazado 149532" d="M91.155,367.863h0Z" transform="translate(-65.842 -293.195)" fill="#a97c50"/>
      <path id="Trazado_149533" data-name="Trazado 149533" d="M96.334,366.217v0Z" transform="translate(-64.319 -293.68)" fill="#a97c50"/>
      <path id="Trazado_149534" data-name="Trazado 149534" d="M79.235,311.566a1.03,1.03,0,0,0-1.292-.632l-4.757,1.512a.984.984,0,0,0-.654,1.25l1.389,4.083,6.7-2.132Z" transform="translate(-71.336 -309.956)" fill="#cc505c"/>
      <path id="Trazado_149535" data-name="Trazado 149535" d="M91.155,368.346h0l6.7-2.131h0l-3.351,1.065Z" transform="translate(-65.843 -293.68)" fill="#a97c50"/>
      <path id="Trazado_149536" data-name="Trazado 149536" d="M80.3,314.565l-6.7,2.13.453,1.333,6.7-2.131Z" transform="translate(-71.008 -308.873)" fill="#2f3a4c"/>
      <path id="Trazado_149537" data-name="Trazado 149537" d="M74.76,320.126l6.7-2.13-.453-1.333-6.7,2.131Z" transform="translate(-70.798 -308.256)" fill="#242f3f"/>
      <path id="Trazado_149538" data-name="Trazado 149538" d="M95.851,312.122a2.211,2.211,0,0,0-2.247,2.173v73.48h0l1.693,2.064,1.694,2.067,1.693-2.067,1.691-2.064h0v-73.48a2.212,2.212,0,0,0-2.247-2.173Z" transform="translate(-65.122 -309.592)" fill="#ffd731"/>
      <path id="Trazado_149539" data-name="Trazado 149539" d="M98.984,312.122H95a1.374,1.374,0,0,0-1.4,1.351v3.938h6.775v-3.938a1.374,1.374,0,0,0-1.4-1.351" transform="translate(-65.122 -309.592)" fill="#cc505c"/>
      <rect id="Rectángulo_35275" data-name="Rectángulo 35275" width="6.775" height="1.402" transform="translate(28.483 7.819)" fill="#242f3f"/>
      <rect id="Rectángulo_35276" data-name="Rectángulo 35276" width="6.775" height="1.402" transform="translate(28.483 10.677)" fill="#242f3f"/>
      <path id="Trazado_149540" data-name="Trazado 149540" d="M116.082,334.855H79.613a1.686,1.686,0,0,0-1.715,1.658v48.855a1.687,1.687,0,0,0,1.715,1.659h36.47a1.687,1.687,0,0,0,1.715-1.659V336.513a1.686,1.686,0,0,0-1.715-1.658" transform="translate(-69.742 -302.905)" fill="#4b4aa3"/>
      <path id="Trazado_149541" data-name="Trazado 149541" d="M116.082,334.855H79.613a1.686,1.686,0,0,0-1.715,1.658v7.158h39.9v-7.158a1.686,1.686,0,0,0-1.715-1.658" transform="translate(-69.742 -302.905)" fill="#5c62b7"/>
    </g>
    <g id="Grupo_107263" data-name="Grupo 107263" transform="translate(209.753 251.078)">
      <g id="Grupo_107262" data-name="Grupo 107262" transform="translate(143.348)">
        <g id="Grupo_107260" data-name="Grupo 107260">
          <path id="Trazado_149542" data-name="Trazado 149542" d="M488.6,363.493,290.011,364.7a7.2,7.2,0,0,1-7.365-7.379L288.723,217.2a7.217,7.217,0,0,1,7.316-6.784H497.052a7.19,7.19,0,0,1,7.312,7.5l-8.505,138.914a7.22,7.22,0,0,1-7.264,6.662" transform="translate(-282.639 -210.417)" fill="#2f3a4c"/>
          <path id="Trazado_149543" data-name="Trazado 149543" d="M308.461,280.59c-.435-14.2-1.95-28.461-5.635-42.21-2.352-8.782-5.214-19.6-11.878-26.422a6.96,6.96,0,0,0-2.226,4.79l-6.077,140.119a7.2,7.2,0,0,0,7.365,7.379l11.158-.069C305.521,336.568,309.32,308.6,308.461,280.59Z" transform="translate(-282.639 -209.964)" fill="#242f3f"/>
          <path id="Trazado_149544" data-name="Trazado 149544" d="M502.286,215.667H303.318a7.376,7.376,0,0,0-7.485,6.919l-6.115,140.558,196.795-1.195a7.219,7.219,0,0,0,7.264-6.662l8.505-138.914a6.754,6.754,0,0,0,0-.705" transform="translate(-280.557 -208.873)" fill="#37425b"/>
          <path id="Trazado_149545" data-name="Trazado 149545" d="M438.01,222.323a40.346,40.346,0,0,0-6.345-.748c-3.239-.111-7.149-.008-9.92,2.08-1.527,1.152-3.286,3.576-2.555,5.734s2.784,3.155,4.41,4.39c5.337,4.052,6.785,11.057,6.743,17.757-.057,9.235-1.242,18.362,3.982,26.407,2.692,4.144,6.649,6.911,10.481,2.582,3.433-3.883,5.411-9.269,6.926-14.289,3.233-10.705,6.094-24.257-.3-34.339A22.3,22.3,0,0,0,438.01,222.323Z" transform="translate(-242.521 -207.144)" fill="#3d4b66"/>
          <path id="Trazado_149546" data-name="Trazado 149546" d="M439.185,316.161c-23.857,3.041-48.479,4.117-72.236-.329-21.21-3.969-42.151-12.75-56.656-29.256a85.45,85.45,0,0,1-16.528-28.83l-4.047,93.019,196.795-1.195a7.219,7.219,0,0,0,7.264-6.662l2.324-37.97A464.087,464.087,0,0,1,439.185,316.161Z" transform="translate(-280.557 -196.494)" fill="#2f3a4c"/>
          <path id="Trazado_149547" data-name="Trazado 149547" d="M355.3,267.477c0-11.079,9.286-20.06,20.743-20.06s20.744,8.98,20.744,20.06-9.287,20.06-20.744,20.06-20.743-8.98-20.743-20.06" transform="translate(-261.264 -199.533)" fill="#4e617f"/>
          <g id="Grupo_107259" data-name="Grupo 107259" transform="translate(200.737 25.16)">
            <path id="Trazado_149548" data-name="Trazado 149548" d="M440.3,243.764a1.971,1.971,0,0,1-1.935-2.009l.369-10.023a2.009,2.009,0,0,1,4.013.137l-.369,10.023a1.983,1.983,0,0,1-2.078,1.871" transform="translate(-437.567 -229.858)" fill="#4e617f"/>
            <path id="Trazado_149549" data-name="Trazado 149549" d="M439.683,262.009A1.968,1.968,0,0,1,437.749,260l.613-16.652a2.008,2.008,0,0,1,4.011.137l-.612,16.652a1.984,1.984,0,0,1-2.078,1.871" transform="translate(-437.748 -226.441)" fill="#4e617f"/>
          </g>
        </g>
        <g id="Grupo_107261" data-name="Grupo 107261" transform="translate(71.455 114.21)">
          <path id="Trazado_149550" data-name="Trazado 149550" d="M406.159,387.25H364.43L355.3,298.667h41.728Z" transform="translate(-332.719 -298.667)" fill="#2f3a4c"/>
          <path id="Trazado_149551" data-name="Trazado 149551" d="M358.347,309.594c1.149,5.606,2.379,11.217,4.068,16.69a107.512,107.512,0,0,0,12.861,28c5.734,8.558,13.2,16.042,23.309,19.053a50.878,50.878,0,0,0,6.058,1.38l-7.837-76.048H356.068C357.413,302.055,357.66,306.237,358.347,309.594Z" transform="translate(-332.494 -298.667)" fill="#37425b"/>
          <path id="Trazado_149552" data-name="Trazado 149552" d="M356.313,298.667l-4.444,5.081L361,392.332l4.444-5.081Z" transform="translate(-333.729 -298.667)" fill="#242f3f"/>
          <path id="Trazado_149553" data-name="Trazado 149553" d="M430.363,363.542H343.036a5.1,5.1,0,0,0-5.184,5.015v16.015h97.7V368.557a5.1,5.1,0,0,0-5.187-5.015" transform="translate(-337.852 -279.583)" fill="#242f3f"/>
          <path id="Trazado_149554" data-name="Trazado 149554" d="M424.081,368.334a1.835,1.835,0,0,1-1.834,1.834h-56.08a1.835,1.835,0,0,1-1.834-1.834h0a1.835,1.835,0,0,1,1.834-1.834h56.08a1.835,1.835,0,0,1,1.834,1.834Z" transform="translate(-330.062 -278.713)" fill="#2f3a4c"/>
        </g>
      </g>
      <path id="Trazado_149555" data-name="Trazado 149555" d="M368.943,366.292H177.06a5.1,5.1,0,0,0-5.186,5.015v16.015H374.129V371.307a5.1,5.1,0,0,0-5.186-5.015" transform="translate(-171.874 -164.564)" fill="#2f3a4c"/>
    </g>
    <g id="Grupo_107264" data-name="Grupo 107264" transform="translate(43.105 463.321)">
      <rect id="Rectángulo_35277" data-name="Rectángulo 35277" width="496.966" height="154.437" transform="translate(26.041 8.089)" fill="#afafaf"/>
      <rect id="Rectángulo_35278" data-name="Rectángulo 35278" width="496.966" height="14.668" transform="translate(26.041 8.089)" fill="#b0c0d2"/>
      <path id="Trazado_149556" data-name="Trazado 149556" d="M585.3,374.417H49.963a6.9,6.9,0,0,0-6.858,6.934v1.015a6.9,6.9,0,0,0,6.858,6.934H585.3a6.9,6.9,0,0,0,6.858-6.934v-1.015a6.9,6.9,0,0,0-6.858-6.934" transform="translate(-43.105 -374.417)" fill="#636363"/>
    </g>
  </g>
</svg>
