<svg xmlns="http://www.w3.org/2000/svg" width="123" height="123" viewBox="0 0 123 123">
  <g id="Grupo_107618" data-name="Grupo 107618" transform="translate(-320 -13160)">
    <g id="Elipse_5212" data-name="Elipse 5212" transform="translate(320 13160)" fill="#fff" stroke="#707070" stroke-width="1">
      <circle cx="61.5" cy="61.5" r="61.5" stroke="none"/>
      <circle cx="61.5" cy="61.5" r="61" fill="none"/>
    </g>
    <g id="Grupo_107469" data-name="Grupo 107469" transform="translate(233.681 12986.818)">
      <path id="Trazado_152421" data-name="Trazado 152421" d="M120.792,246.514H144.94v4.571H120.89v48.1h48.1V275.136h4.571v24.148a4.446,4.446,0,0,1-.341,1.709,4.48,4.48,0,0,1-4.132,2.765h-48.3a4.481,4.481,0,0,1-3.161-1.312,4.493,4.493,0,0,1-.971-1.453,4.446,4.446,0,0,1-.342-1.709v-48.3a4.481,4.481,0,0,1,4.473-4.473" transform="translate(0 -37.003)" fill="#3e2ea6"/>
      <path id="Trazado_152422" data-name="Trazado 152422" d="M268.672,212.259l-21.594,21.594L242.942,245.9a1.744,1.744,0,0,0,2.272,2.272l12.053-4.138,21.592-21.591-10.187-10.186m11.264,9.109,7.3-7.3a2.4,2.4,0,0,0,0-3.381l-6.806-6.806a2.4,2.4,0,0,0-3.381,0l-7.3,7.3Z" transform="translate(-108.054)" fill="#3e2ea6" fill-rule="evenodd"/>
    </g>
  </g>
</svg>
