<svg xmlns="http://www.w3.org/2000/svg" width="610" height="589" viewBox="0 0 610 589">
  <g id="Grupo_107468" data-name="Grupo 107468" transform="translate(-810 -9959)">
    <g id="freepik--Character--inject-3" transform="translate(730.008 9900.272)">
      <path id="Trazado_152263" data-name="Trazado 152263" d="M571.973,325.357,520.7,375.278l-47.241,90.147L420.339,567.367l-65.27-30.636-70.555-36.12L329.64,414.4l28.047-96.5c-19.822,13.143-56.677,31.05-100.64,21.706-47.7-10.11-24.8-189.944-24.8-189.944l52.419-1.348L289.936,275.1l59.2-26.163.092.214c3.569-1.532,6.694-3.064,8.348-3.906,32.765-17.876,54.272-20.036,89.427-7.491h0l50.718,16.85c13.036,6.127,61.089,29.794,74.247,70.754" transform="translate(52.321 33.616)" fill="#7e57c2"/>
      <path id="Trazado_152264" data-name="Trazado 152264" d="M347.545,204.24s-1.18.674-3.171,2.1a35.152,35.152,0,0,0-7.353,7.215,52.105,52.105,0,0,0-7.23,13.465,183.528,183.528,0,0,0-5.407,18.06l-9.007,33.133c-1.18,4.151-2.129,7.552-2.834,10-.322,1.118-.6,2.022-.8,2.711a4.236,4.236,0,0,1-.337.934,3.839,3.839,0,0,1,.184-.965c.169-.72.383-1.624.659-2.757.628-2.482,1.532-5.9,2.573-10.079,2.267-8.578,5.361-20.266,8.793-33.194a175.584,175.584,0,0,1,5.484-18.106,51.152,51.152,0,0,1,7.475-13.541,33.1,33.1,0,0,1,7.659-7.138,22.309,22.309,0,0,1,2.451-1.44A6.5,6.5,0,0,1,347.545,204.24Z" transform="translate(97.343 63.36)" fill="#263238"/>
      <g id="Grupo_107462" data-name="Grupo 107462" transform="translate(347.403 293.013)" opacity="0.3">
        <path id="Trazado_152265" data-name="Trazado 152265" d="M349.712,220.83c-14.659,39.689-41.022,61.87-78.352,81.753a137.485,137.485,0,0,0,61.563-22.548" transform="translate(-271.36 -220.83)"/>
      </g>
      <g id="Grupo_107463" data-name="Grupo 107463" transform="translate(472.46 264.766)" opacity="0.3">
        <path id="Trazado_152266" data-name="Trazado 152266" d="M353,202.39q9.313,149.168,18.627,298.32l-18.382,37.9Z" transform="translate(-353 -202.39)"/>
      </g>
      <path id="Trazado_152267" data-name="Trazado 152267" d="M393.965,276.856c-.214.092-2.083-4.6-4.7-10.248s-4.948-10.141-4.749-10.248a13.222,13.222,0,0,1,1.823,2.773c1.026,1.777,2.344,4.289,3.646,7.138s2.374,5.469,3.064,7.4A12.154,12.154,0,0,1,393.965,276.856Z" transform="translate(136.214 91.078)" fill="#fafafa"/>
      <path id="Trazado_152268" data-name="Trazado 152268" d="M424.982,256.05a85.724,85.724,0,0,1-9.957,6.679,89.824,89.824,0,0,1-10.386,6,93.649,93.649,0,0,1,9.972-6.679A90.573,90.573,0,0,1,424.982,256.05Z" transform="translate(146.923 90.913)" fill="#fafafa"/>
      <path id="Trazado_152269" data-name="Trazado 152269" d="M406.454,251.859a43.421,43.421,0,0,1-.827-8.134,43.6,43.6,0,0,1,0-8.2,40.572,40.572,0,0,1,.827,8.149A41.957,41.957,0,0,1,406.454,251.859Z" transform="translate(147.345 80)" fill="#fafafa"/>
      <path id="Trazado_152270" data-name="Trazado 152270" d="M438.363,247.422A92.785,92.785,0,0,1,423.75,238.4a46.829,46.829,0,0,1,7.521,4.167A45.987,45.987,0,0,1,438.363,247.422Z" transform="translate(157.086 81.526)" fill="#fafafa"/>
      <path id="Trazado_152271" data-name="Trazado 152271" d="M391.72,305.479a82.107,82.107,0,0,1,4.136-10.6,83.337,83.337,0,0,1,4.871-10.278,80.337,80.337,0,0,1-4.136,10.6A82.055,82.055,0,0,1,391.72,305.479Z" transform="translate(140.052 106.096)" fill="#fafafa"/>
      <path id="Trazado_152272" data-name="Trazado 152272" d="M381.971,315.191a36.433,36.433,0,0,1-3.738-6.587,36.975,36.975,0,0,1-3.064-6.954,36.937,36.937,0,0,1,3.753,6.587A35.759,35.759,0,0,1,381.971,315.191Z" transform="translate(131.251 115.163)" fill="#fafafa"/>
      <path id="Trazado_152273" data-name="Trazado 152273" d="M395.292,327.015a25.661,25.661,0,0,1-7.873,2.007,25.339,25.339,0,0,1-8.119.245c0-.23,3.6-.4,8.011-1.026S395.231,326.77,395.292,327.015Z" transform="translate(133.447 128.63)" fill="#fafafa"/>
      <path id="Trazado_152274" data-name="Trazado 152274" d="M402.73,313.992a40.689,40.689,0,0,1,2.727-7.429,39.152,39.152,0,0,1,3.447-7.123,39.939,39.939,0,0,1-2.711,7.429A37.414,37.414,0,0,1,402.73,313.992Z" transform="translate(145.907 113.988)" fill="#fafafa"/>
      <path id="Trazado_152275" data-name="Trazado 152275" d="M375.041,351.584c-.2.123-2.451-2.987-5.545-6.556s-5.852-6.25-5.683-6.418A41.785,41.785,0,0,1,375.041,351.584Z" transform="translate(125.207 134.819)" fill="#fafafa"/>
      <path id="Trazado_152276" data-name="Trazado 152276" d="M368.431,306.07a45.108,45.108,0,0,1-4,7.659,46.9,46.9,0,0,1-4.7,7.291,48.344,48.344,0,0,1,4.013-7.659A47.176,47.176,0,0,1,368.431,306.07Z" transform="translate(123.04 117.514)" fill="#fafafa"/>
      <path id="Trazado_152277" data-name="Trazado 152277" d="M375.366,293.521a49.82,49.82,0,0,1-8.563-1.807,48.211,48.211,0,0,1-8.364-2.573A48.215,48.215,0,0,1,367,290.948,47.216,47.216,0,0,1,375.366,293.521Z" transform="translate(122.354 108.511)" fill="#fafafa"/>
      <path id="Trazado_152278" data-name="Trazado 152278" d="M369.25,263a52.547,52.547,0,0,1,4.6,6.25,51.8,51.8,0,0,1,4.258,6.434,30.056,30.056,0,0,1-4.9-5.989A29.284,29.284,0,0,1,369.25,263Z" transform="translate(128.102 94.609)" fill="#fafafa"/>
      <path id="Trazado_152279" data-name="Trazado 152279" d="M363.861,261.55a67.758,67.758,0,0,1-11.121,9.681,33.762,33.762,0,0,1,5.3-5.147A34.809,34.809,0,0,1,363.861,261.55Z" transform="translate(119.322 93.838)" fill="#fafafa"/>
      <path id="Trazado_152280" data-name="Trazado 152280" d="M371.713,251.556a49.728,49.728,0,0,1-12.683-14.9c.2-.123,2.711,3.462,6.219,7.567S371.882,251.387,371.713,251.556Z" transform="translate(122.667 80.595)" fill="#fafafa"/>
      <path id="Trazado_152281" data-name="Trazado 152281" d="M398.937,241.71a51.974,51.974,0,0,1-8.593,3.064,51.1,51.1,0,0,1-8.823,2.267,54.582,54.582,0,0,1,8.593-3.064A51.7,51.7,0,0,1,398.937,241.71Z" transform="translate(134.628 83.287)" fill="#fafafa"/>
      <path id="Trazado_152282" data-name="Trazado 152282" d="M357.567,222.705c-.23,0-.123-3.508-.674-7.766s-1.532-7.659-1.256-7.659a28.306,28.306,0,0,1,1.93,15.471Z" transform="translate(120.837 64.977)" fill="#fafafa"/>
      <path id="Trazado_152283" data-name="Trazado 152283" d="M342.459,289.86a28.991,28.991,0,0,1-3.6,2.665c-2.267,1.532-5.361,3.814-8.67,6.418s-6.219,5.07-8.3,6.878a31.272,31.272,0,0,1-3.447,2.88,21.146,21.146,0,0,1,3.064-3.293,104.26,104.26,0,0,1,8.2-7.092,108.257,108.257,0,0,1,8.839-6.265A23.8,23.8,0,0,1,342.459,289.86Z" transform="translate(101.081 108.893)" fill="#fafafa"/>
      <path id="Trazado_152284" data-name="Trazado 152284" d="M337.29,287.727c-.2.107-2.772-3.891-6.342-8.563s-6.725-8.226-6.556-8.394a10.724,10.724,0,0,1,2.313,2.129,74.73,74.73,0,0,1,4.886,5.775c1.777,2.359,3.263,4.6,4.258,6.25A11.288,11.288,0,0,1,337.29,287.727Z" transform="translate(104.243 98.741)" fill="#fafafa"/>
      <path id="Trazado_152285" data-name="Trazado 152285" d="M344.112,250.23a92.484,92.484,0,0,1-15.012,8.287,46.772,46.772,0,0,1,7.322-4.488A45.522,45.522,0,0,1,344.112,250.23Z" transform="translate(106.75 87.818)" fill="#fafafa"/>
      <path id="Trazado_152286" data-name="Trazado 152286" d="M337.853,242.5a12.087,12.087,0,0,1-2.619-2.068,54.7,54.7,0,0,1-5.53-5.852,55.97,55.97,0,0,1-4.672-6.587,12.062,12.062,0,0,1-1.532-2.972c.214-.123,2.834,4.228,6.8,9.053S338.052,242.315,337.853,242.5Z" transform="translate(103.772 74.41)" fill="#fafafa"/>
      <path id="Trazado_152287" data-name="Trazado 152287" d="M343.25,240.671a33.924,33.924,0,0,1,2.819-6.694,33.562,33.562,0,0,1,3.538-6.357,32.849,32.849,0,0,1-2.819,6.694A32.671,32.671,0,0,1,343.25,240.671Z" transform="translate(114.275 75.794)" fill="#fafafa"/>
      <path id="Trazado_152288" data-name="Trazado 152288" d="M341.615,227.567c-.245,0,0-4.764-.889-10.508s-2.589-10.187-2.359-10.278a10.171,10.171,0,0,1,1.3,2.849,40.2,40.2,0,0,1,1.854,7.307,42.324,42.324,0,0,1,.475,7.521A9.789,9.789,0,0,1,341.615,227.567Z" transform="translate(111.667 64.711)" fill="#fafafa"/>
      <path id="Trazado_152289" data-name="Trazado 152289" d="M343.283,310.556a32.761,32.761,0,0,1,0-4.488c.107-2.757.184-6.572.077-10.723s-.383-8.011-.613-10.723a28.743,28.743,0,0,1-.276-4.473,22.986,22.986,0,0,1,.842,4.412,99.772,99.772,0,0,1,.843,10.815,98.644,98.644,0,0,1-.306,10.83A21.032,21.032,0,0,1,343.283,310.556Z" transform="translate(113.859 103.73)" fill="#fafafa"/>
      <path id="Trazado_152290" data-name="Trazado 152290" d="M346.583,328.129a66.465,66.465,0,0,0-6.786-5.469,67.52,67.52,0,0,0-7.8-3.86,22.257,22.257,0,0,1,14.613,9.329Z" transform="translate(108.292 124.284)" fill="#fafafa"/>
      <path id="Trazado_152291" data-name="Trazado 152291" d="M361.435,340.29a90.683,90.683,0,0,1-10.524,5.9,88.545,88.545,0,0,1-10.891,5.178,93.656,93.656,0,0,1,10.524-5.882A90.317,90.317,0,0,1,361.435,340.29Z" transform="translate(112.558 135.713)" fill="#fafafa"/>
      <path id="Trazado_152292" data-name="Trazado 152292" d="M323.979,354.129a96.09,96.09,0,0,1-7.751-9.85,98.739,98.739,0,0,1-7.108-10.34,99.678,99.678,0,0,1,7.751,9.865A101.46,101.46,0,0,1,323.979,354.129Z" transform="translate(96.125 132.336)" fill="#fafafa"/>
      <path id="Trazado_152293" data-name="Trazado 152293" d="M308.146,326.152a11.241,11.241,0,0,1-.352-3.14c-.077-1.945-.107-4.6,0-7.659s.414-5.652.674-7.659a11.9,11.9,0,0,1,.628-3.064c.23,0-.23,4.81-.505,10.723S308.3,326.152,308.146,326.152Z" transform="translate(95.383 116.748)" fill="#fafafa"/>
      <path id="Trazado_152294" data-name="Trazado 152294" d="M302.256,372.25a81.994,81.994,0,0,1-8.946-6.924,80.542,80.542,0,0,1-8.44-7.536,81.318,81.318,0,0,1,8.946,6.924A80.55,80.55,0,0,1,302.256,372.25Z" transform="translate(83.228 145.019)" fill="#fafafa"/>
      <path id="Trazado_152295" data-name="Trazado 152295" d="M303.548,374.084a90.96,90.96,0,0,1-.689-12.009,92.1,92.1,0,0,1,.123-12.025,90.958,90.958,0,0,1,.689,12.009A92.1,92.1,0,0,1,303.548,374.084Z" transform="translate(92.72 140.903)" fill="#fafafa"/>
      <path id="Trazado_152296" data-name="Trazado 152296" d="M329.338,397.845c0,.123-1.915-.628-4.994-1.624a71.61,71.61,0,0,0-24.846-3.385c-3.232.123-5.224.352-5.239.214a4.9,4.9,0,0,1,1.379-.322c.888-.169,2.206-.322,3.83-.46A60.137,60.137,0,0,1,324.5,395.7a33.489,33.489,0,0,1,3.569,1.532A4.6,4.6,0,0,1,329.338,397.845Z" transform="translate(88.222 163.265)" fill="#fafafa"/>
      <path id="Trazado_152297" data-name="Trazado 152297" d="M328.61,401.35a17.605,17.605,0,0,1,3.462,2.374,87.6,87.6,0,0,1,14.292,14.292,17.6,17.6,0,0,1,2.374,3.462,28.545,28.545,0,0,1-2.819-3.064c-1.685-1.945-4.075-4.6-6.847-7.368S333.65,405.9,331.7,404.2A28.365,28.365,0,0,1,328.61,401.35Z" transform="translate(106.49 168.185)" fill="#fafafa"/>
      <path id="Trazado_152298" data-name="Trazado 152298" d="M336.1,355.541a62.15,62.15,0,0,1-3.967-8.93,60.629,60.629,0,0,1-3.232-9.191,62.139,62.139,0,0,1,3.967,8.93A60.615,60.615,0,0,1,336.1,355.541Z" transform="translate(106.644 134.186)" fill="#fafafa"/>
      <path id="Trazado_152299" data-name="Trazado 152299" d="M300.2,247.9a11.923,11.923,0,0,1-2.344,2.558,51.861,51.861,0,0,1-6.556,5.177,50.651,50.651,0,0,1-7.322,4.075,12.255,12.255,0,0,1-3.263,1.18c-.092-.23,4.764-2.313,10.141-5.913S300.027,247.718,300.2,247.9Z" transform="translate(81.016 86.576)" fill="#fafafa"/>
      <path id="Trazado_152300" data-name="Trazado 152300" d="M296.049,242.033a58.626,58.626,0,0,1,.643-13.633A58.626,58.626,0,0,1,296.049,242.033Z" transform="translate(89.098 76.208)" fill="#fafafa"/>
      <path id="Trazado_152301" data-name="Trazado 152301" d="M281.469,248.678a45.89,45.89,0,0,1-7.95-3.2,46.718,46.718,0,0,1-7.659-3.937,47.291,47.291,0,0,1,7.95,3.2A46.708,46.708,0,0,1,281.469,248.678Z" transform="translate(73.119 83.196)" fill="#fafafa"/>
      <path id="Trazado_152302" data-name="Trazado 152302" d="M311.671,238.5a45.368,45.368,0,0,1,.26-8.471,43.54,43.54,0,0,1,1.042-8.41,46.04,46.04,0,0,1-.245,8.471A44.8,44.8,0,0,1,311.671,238.5Z" transform="translate(97.434 72.603)" fill="#fafafa"/>
      <path id="Trazado_152303" data-name="Trazado 152303" d="M271.082,270.785a28.808,28.808,0,0,1-8.731-3.83,28.014,28.014,0,0,1-7.491-5.913c.153-.184,3.416,2.558,7.889,5.239S271.174,270.556,271.082,270.785Z" transform="translate(67.269 93.564)" fill="#fafafa"/>
      <path id="Trazado_152304" data-name="Trazado 152304" d="M255.353,247.077a64.541,64.541,0,0,1-6.526,7.659,65.864,65.864,0,0,1-7.108,7.2A129.39,129.39,0,0,1,255.353,247Z" transform="translate(60.281 86.1)" fill="#fafafa"/>
      <path id="Trazado_152305" data-name="Trazado 152305" d="M253.86,232.2a22.441,22.441,0,0,1-7.154-4,23.153,23.153,0,0,1-5.836-5.729c.169-.168,2.742,2.42,6.326,5.086S253.967,232,253.86,232.2Z" transform="translate(59.829 73.052)" fill="#fafafa"/>
      <path id="Trazado_152306" data-name="Trazado 152306" d="M242.478,232.64a19.355,19.355,0,0,1-3.263,4.473,19.9,19.9,0,0,1-3.875,3.967A38.671,38.671,0,0,1,242.478,232.64Z" transform="translate(56.888 78.463)" fill="#fafafa"/>
      <path id="Trazado_152307" data-name="Trazado 152307" d="M264.371,198.8a62.722,62.722,0,0,1-5.989,7.935,60.564,60.564,0,0,1-6.6,7.445,63.4,63.4,0,0,1,5.989-7.95A62.668,62.668,0,0,1,264.371,198.8Z" transform="translate(65.631 60.467)" fill="#fafafa"/>
      <path id="Trazado_152308" data-name="Trazado 152308" d="M247.188,207.58a56.734,56.734,0,0,1-6.526-6.847,56.711,56.711,0,0,1-5.913-7.353,55.581,55.581,0,0,1,6.526,6.832A56.757,56.757,0,0,1,247.188,207.58Z" transform="translate(56.574 57.584)" fill="#fafafa"/>
      <path id="Trazado_152309" data-name="Trazado 152309" d="M254.391,186.11a45.633,45.633,0,0,1-4.6-7.261,47.961,47.961,0,0,1-3.875-7.659,46.2,46.2,0,0,1,4.6,7.276A47.618,47.618,0,0,1,254.391,186.11Z" transform="translate(62.514 45.784)" fill="#fafafa"/>
      <path id="Trazado_152310" data-name="Trazado 152310" d="M251,172.074c-.184-.153,2.114-3.064,3.937-7.184s2.482-7.751,2.727-7.659A23.606,23.606,0,0,1,251,172.12Z" transform="translate(65.212 38.359)" fill="#fafafa"/>
      <path id="Trazado_152311" data-name="Trazado 152311" d="M234.527,171.966a17.822,17.822,0,0,1,1.884-9.375,22.62,22.62,0,0,1,3.738-5.7,7.415,7.415,0,0,1,2.129-1.854,44.623,44.623,0,0,0-5.147,7.874A43.9,43.9,0,0,0,234.527,171.966Z" transform="translate(56.43 37.195)" fill="#fafafa"/>
      <path id="Trazado_152312" data-name="Trazado 152312" d="M378.9,159.4a97.224,97.224,0,0,1-.23-19.117,32.612,32.612,0,0,1,7.046-17.509c4.182-4.841,10.615-7.95,16.942-7.138,3.921.505,7.659,2.436,11.565,2.328,4.6-.138,8.532-2.956,12.683-4.841a33.23,33.23,0,0,1,20.894-2.19,19.919,19.919,0,0,1,9.88,4.994,11.06,11.06,0,0,1,3.2,10.232,52.779,52.779,0,0,1,13.786,1.21,17.813,17.813,0,0,1,11.014,7.659c2.282,4,2.129,9.559-1.149,12.791a8.824,8.824,0,0,1,9.742,6.648,11.368,11.368,0,0,1-4.6,11.4,21.249,21.249,0,0,1-14.322,2.88c-4.258-.812-9.191-2.007-12.607-4.6" transform="translate(132.917 13.322)" fill="#263238"/>
      <path id="Trazado_152313" data-name="Trazado 152313" d="M385.184,294.042h0a33.057,33.057,0,0,0,40.179-23.559c2.589-9.819,4.7-18.045,4.7-18.045s25.6,4.4,34.067-19.914,22.977-81.508,22.977-81.508h0a89.229,89.229,0,0,0-88.554-17.846l-4.6,1.532-32.52,118.455a33.056,33.056,0,0,0,23.016,40.691C384.7,293.916,384.94,293.981,385.184,294.042Z" transform="translate(123.305 22.974)" fill="#b78876"/>
      <path id="Trazado_152314" data-name="Trazado 152314" d="M415.881,215.943A59.754,59.754,0,0,1,387.19,196.29s1.624,20.021,26.638,26.041Z" transform="translate(137.643 59.132)" fill="#aa6550"/>
      <path id="Trazado_152315" data-name="Trazado 152315" d="M386.028,150.832c-.352-.322-15.058-10.554-20.1,6.265s12.867,18.382,13.036,17.938S386.028,150.832,386.028,150.832Z" transform="translate(125.862 33.162)" fill="#b78876"/>
      <path id="Trazado_152316" data-name="Trazado 152316" d="M374.078,165.259a5.19,5.19,0,0,1-.919.2,3.058,3.058,0,0,1-2.145-.643c-1.532-1.18-2.221-4.458-1.394-7.506a10.043,10.043,0,0,1,2.068-3.952,3.554,3.554,0,0,1,2.88-1.532,1.531,1.531,0,0,1,1.532,1.317c.092.536-.123.842,0,.9s.444-.184.505-.919a1.932,1.932,0,0,0-.337-1.241,2.281,2.281,0,0,0-1.532-.919,4.272,4.272,0,0,0-3.845,1.685,10.261,10.261,0,0,0-2.42,4.381c-.919,3.416-.138,7.108,2.083,8.548a3.294,3.294,0,0,0,2.819.352C373.97,165.658,374.169,165.321,374.078,165.259Z" transform="translate(127.487 35.018)" fill="#aa6550"/>
      <path id="Trazado_152317" data-name="Trazado 152317" d="M432.127,167.611a3.676,3.676,0,0,1-4.6,2.374,3.509,3.509,0,0,1-2.549-4.257l.021-.078a3.676,3.676,0,0,1,4.519-2.39,3.524,3.524,0,0,1,2.635,4.229C432.148,167.53,432.138,167.571,432.127,167.611Z" transform="translate(157.685 41.489)" fill="#263238"/>
      <path id="Trazado_152318" data-name="Trazado 152318" d="M437.32,166.758c-.582.306-2.558-2.512-6.3-3.768s-7.123-.291-7.368-.888c-.138-.26.582-.934,2.068-1.409a9.981,9.981,0,0,1,6.127.153,9.618,9.618,0,0,1,4.825,3.569C437.488,165.686,437.6,166.635,437.32,166.758Z" transform="translate(157.027 39.983)" fill="#263238"/>
      <path id="Trazado_152319" data-name="Trazado 152319" d="M408.1,159.557a3.676,3.676,0,0,1-4.519,2.39,3.509,3.509,0,0,1-2.549-4.257l.021-.078a3.661,3.661,0,0,1,4.519-2.39,3.509,3.509,0,0,1,2.549,4.257Z" transform="translate(144.948 37.212)" fill="#263238"/>
      <path id="Trazado_152320" data-name="Trazado 152320" d="M413.184,159.154c-.582.322-2.573-2.512-6.311-3.768s-7.108-.291-7.368-.888c-.122-.26.582-.934,2.083-1.394a10.049,10.049,0,0,1,6.127.138,9.743,9.743,0,0,1,4.841,3.569C413.337,158.081,413.459,159.031,413.184,159.154Z" transform="translate(144.185 35.946)" fill="#263238"/>
      <path id="Trazado_152321" data-name="Trazado 152321" d="M411.21,189.024c0-.214,2.512.153,6.434.934,1,.23,1.961.337,2.344-.26a5.2,5.2,0,0,0,.306-3.064c-.123-2.619-.245-5.361-.383-8.226-.444-11.657-.429-21.124,0-21.139s1.21,9.436,1.654,21.093c.092,2.864.168,5.606.245,8.226a5.775,5.775,0,0,1-.751,3.906,2.527,2.527,0,0,1-2.037.873,6.369,6.369,0,0,1-1.7-.322C413.508,189.989,411.149,189.224,411.21,189.024Z" transform="translate(150.417 38.381)" fill="#263238"/>
      <path id="Trazado_152322" data-name="Trazado 152322" d="M404.036,177.274c.613.169-.735,4.228,1.777,8.272s6.97,5.055,6.817,5.622c0,.276-1.241.475-3.064-.092a10.613,10.613,0,0,1-5.76-4.473,9.193,9.193,0,0,1-1.225-6.847C402.979,178.009,403.76,177.151,404.036,177.274Z" transform="translate(145.72 49.013)" fill="#263238"/>
      <path id="Trazado_152323" data-name="Trazado 152323" d="M437.46,162.2c-.934.628-3.217-1.118-6.3-2.206s-5.913-1.348-6.219-2.436c-.123-.521.582-1.241,1.991-1.654a9.668,9.668,0,0,1,10.095,3.738C437.827,160.881,437.888,161.877,437.46,162.2Z" transform="translate(157.714 37.511)" fill="#263238"/>
      <path id="Trazado_152324" data-name="Trazado 152324" d="M413.2,149.768c-.567.306-1.532-.2-2.619-.858a29.7,29.7,0,0,0-4.412-2.16,28.114,28.114,0,0,0-4.764-1.256c-1.3-.26-2.313-.46-2.543-1.072s.505-1.532,2.16-2.145a10.371,10.371,0,0,1,11.948,4.442C413.815,148.328,413.738,149.523,413.2,149.768Z" transform="translate(143.83 30.151)" fill="#263238"/>
      <path id="Trazado_152325" data-name="Trazado 152325" d="M477.4,160.881a60.276,60.276,0,0,1-34.895-13.71c-11-9.007-24.769-15.318-28.522-13.541s-7.322,14.4-20.465,15.318c0,0-4.687,24.586-14.215,21.445s5.132-39.475,5.132-39.475l26.424-6.219,27.067,1,24.31,5.514L483.271,143.3Z" transform="translate(131.739 21.06)" fill="#263238"/>
      <rect id="Rectángulo_35585" data-name="Rectángulo 35585" width="343.937" height="535.582" transform="translate(128.722 85.514)" fill="#fafafa"/>
      <path id="Trazado_152326" data-name="Trazado 152326" d="M472.66,621.08c0-3.293-.153-220.81-.368-535.582l.368.368H128.768l.414-.4c0,202.628,0,389.2-.092,535.582l-.322-.322,343.937.322-343.937.306h-.306v-.276c0-146.38,0-332.954-.092-535.582v-.4h344.7v.368C472.813,400.285,472.66,617.8,472.66,621.08Z" transform="translate(0 0)" fill="#263238"/>
      <path id="Trazado_152331" data-name="Trazado 152331" d="M182.928,127.155a66.368,66.368,0,0,1-10.187.4,66.161,66.161,0,0,1-10.171-.4,66.161,66.161,0,0,1,10.171-.4A66.368,66.368,0,0,1,182.928,127.155Z" transform="translate(18.188 22.128)" fill="#fafafa"/>
      <path id="Trazado_152332" data-name="Trazado 152332" d="M196.071,133.478c0,.214-7.491.4-16.743.4s-16.758-.184-16.758-.4,7.506-.4,16.758-.4S196.071,133.248,196.071,133.478Z" transform="translate(18.188 25.516)" fill="#fafafa"/>
      <path id="Trazado_152333" data-name="Trazado 152333" d="M199.088,138.758c0,.23-8.165.4-18.259.4s-18.259-.169-18.259-.4,8.18-.4,18.259-.4S199.088,138.544,199.088,138.758Z" transform="translate(18.188 28.324)" fill="#fafafa"/>
      <path id="Trazado_152334" data-name="Trazado 152334" d="M199.088,143.748c0,.214-8.165.4-18.259.4s-18.259-.184-18.259-.4,8.18-.4,18.259-.4S199.088,143.518,199.088,143.748Z" transform="translate(18.188 30.978)" fill="#fafafa"/>
      <path id="Trazado_152335" data-name="Trazado 152335" d="M199.088,148.728c0,.23-8.165.4-18.259.4s-18.259-.168-18.259-.4,8.18-.4,18.259-.4S199.088,148.514,199.088,148.728Z" transform="translate(18.188 33.626)" fill="#fafafa"/>
      <path id="Trazado_152336" data-name="Trazado 152336" d="M199.088,153.718c0,.214-8.165.4-18.259.4s-18.259-.184-18.259-.4,8.18-.4,18.259-.4S199.088,153.488,199.088,153.718Z" transform="translate(18.188 36.28)" fill="#fafafa"/>
      <path id="Trazado_152337" data-name="Trazado 152337" d="M204.015,137.295h-4.6V135.61h11.2v1.685h-4.6v11.856h-1.915Z" transform="translate(37.785 26.862)" fill="#263238"/>
      <path id="Trazado_152338" data-name="Trazado 152338" d="M217.9,147.466v1.685H208.08V135.61h9.543v1.685h-7.659v4.151h6.786V143.1h-6.786v4.366Z" transform="translate(42.391 26.862)" fill="#263238"/>
      <path id="Trazado_152339" data-name="Trazado 152339" d="M225.583,149.167,222.657,145a7.023,7.023,0,0,1-.842,0h-3.339v4.121H216.53V135.58h5.315c3.523,0,5.637,1.777,5.637,4.718a4.259,4.259,0,0,1-2.972,4.274l3.217,4.6Zm0-8.823c0-1.93-1.287-3.064-3.768-3.064h-3.339v6.127h3.278c2.482,0,3.768-1.057,3.768-3.064Z" transform="translate(46.884 26.846)" fill="#263238"/>
      <path id="Trazado_152340" data-name="Trazado 152340" d="M238.25,149.156v-9.88l-4.9,8.21h-.888l-4.886-8.149v9.8H225.72V135.6h1.532l5.637,9.513,5.561-9.513h1.532v13.541Z" transform="translate(51.772 26.856)" fill="#263238"/>
      <path id="Trazado_152341" data-name="Trazado 152341" d="M237,147.679l.7-1.532a6.936,6.936,0,0,0,4.473,1.532c2.344,0,3.339-.919,3.339-2.1,0-3.309-8.2-1.21-8.2-6.234,0-2.1,1.624-3.875,5.177-3.875a7.869,7.869,0,0,1,4.35,1.21l-.628,1.532a7,7,0,0,0-3.722-1.088c-2.3,0-3.278.965-3.278,2.145,0,3.293,8.2,1.225,8.2,6.127,0,2.068-1.67,3.845-5.239,3.845A8.056,8.056,0,0,1,237,147.679Z" transform="translate(57.771 26.787)" fill="#263238"/>
      <path id="Trazado_152342" data-name="Trazado 152342" d="M248.282,142.6a7.2,7.2,0,1,1,7.471,6.919q-.136,0-.271,0a6.878,6.878,0,0,1-7.192-6.548C248.283,142.845,248.28,142.721,248.282,142.6Zm12.438,0a5.254,5.254,0,1,0-5.3,5.208h.061a5.07,5.07,0,0,0,5.237-4.9C260.723,142.8,260.723,142.7,260.72,142.6Z" transform="translate(63.768 26.601)" fill="#263238"/>
      <path id="Trazado_152343" data-name="Trazado 152343" d="M261.53,137.295v4.718h6.786v1.67H261.53v5.469H259.6V135.61h9.543v1.685Z" transform="translate(69.789 26.862)" fill="#263238"/>
      <path id="Trazado_152344" data-name="Trazado 152344" d="M270.2,147.679l.72-1.532a6.929,6.929,0,0,0,4.458,1.532c2.344,0,3.355-.919,3.355-2.1,0-3.309-8.2-1.21-8.2-6.234,0-2.1,1.624-3.875,5.178-3.875a7.923,7.923,0,0,1,4.35,1.21l-.643,1.532a6.987,6.987,0,0,0-3.707-1.088c-2.3,0-3.293.965-3.293,2.145,0,3.293,8.2,1.225,8.2,6.127,0,2.068-1.654,3.845-5.239,3.845A8.085,8.085,0,0,1,270.2,147.679Z" transform="translate(75.427 26.787)" fill="#263238"/>
      <path id="Trazado_152345" data-name="Trazado 152345" d="M288.669,147.466v1.685H278.85V135.61h9.543v1.685h-7.659v4.151h6.786V143.1h-6.786v4.366Z" transform="translate(80.027 26.862)" fill="#263238"/>
      <path id="Trazado_152346" data-name="Trazado 152346" d="M296.348,149.167,293.437,145a8,8,0,0,1-.858,0H289.24v4.121h-1.93V135.58h5.269c3.523,0,5.652,1.777,5.652,4.718a4.258,4.258,0,0,1-2.987,4.274l3.217,4.6Zm0-8.823c0-1.93-1.287-3.064-3.768-3.064H289.3v6.127h3.278c2.42,0,3.707-1.057,3.707-3.064Z" transform="translate(84.526 26.846)" fill="#263238"/>
      <path id="Trazado_152347" data-name="Trazado 152347" d="M308.958,135.61l-5.928,13.541h-1.961L295.11,135.61h2.1l4.871,11.121,4.9-11.121Z" transform="translate(88.674 26.862)" fill="#263238"/>
      <path id="Trazado_152348" data-name="Trazado 152348" d="M305.28,135.61h1.93v13.541h-1.93Z" transform="translate(94.083 26.862)" fill="#263238"/>
      <path id="Trazado_152349" data-name="Trazado 152349" d="M308.47,142.407a6.848,6.848,0,0,1,6.763-6.931c.135,0,.271,0,.406.008a6.677,6.677,0,0,1,5.147,2.114l-1.256,1.21a4.993,4.993,0,0,0-3.814-1.532,5.208,5.208,0,1,0,3.814,8.777l1.256,1.21a6.711,6.711,0,0,1-5.162,2.129,6.847,6.847,0,0,1-7.147-6.533C308.469,142.708,308.467,142.558,308.47,142.407Z" transform="translate(95.778 26.79)" fill="#263238"/>
      <path id="Trazado_152350" data-name="Trazado 152350" d="M328.139,147.466v1.685H318.32V135.61h9.543v1.685H320.2v4.151h6.817V143.1h-6.786v4.366Z" transform="translate(101.017 26.862)" fill="#263238"/>
      <path id="Trazado_152351" data-name="Trazado 152351" d="M216.04,153.52l-3.615,10.723h-1.608l-2.972-8.548-2.956,8.609H203.25l-3.6-10.723h1.532l2.91,8.777,3.064-8.777h1.425l2.972,8.823,2.972-8.823Z" transform="translate(37.907 36.386)" fill="#e0e0e0"/>
      <path id="Trazado_152352" data-name="Trazado 152352" d="M218.645,159.837h-6.633a2.787,2.787,0,0,0,2.972,2.39,3.061,3.061,0,0,0,2.344-.98l.827.95a4.133,4.133,0,0,1-3.232,1.317,4.079,4.079,0,0,1-4.381-4.167,4,4,0,0,1,3.825-4.163c.089,0,.176,0,.265,0a3.953,3.953,0,0,1,4.052,3.849c0,.121,0,.242-.008.363S218.66,159.7,218.645,159.837Zm-6.633-1.057h5.239a2.635,2.635,0,0,0-5.239,0Z" transform="translate(43.698 37.269)" fill="#e0e0e0"/>
      <path id="Trazado_152353" data-name="Trazado 152353" d="M217.19,153.1h1.532v11.427H217.19Z" transform="translate(47.235 36.163)" fill="#e0e0e0"/>
      <path id="Trazado_152354" data-name="Trazado 152354" d="M219.5,159.349a4.091,4.091,0,0,1,4.006-4.173c.1,0,.21,0,.314.006a3.663,3.663,0,0,1,3.324,1.746l-1.134.72a2.527,2.527,0,0,0-2.206-1.164,2.88,2.88,0,0,0,0,5.744,2.527,2.527,0,0,0,2.206-1.164l1.134.7a3.663,3.663,0,0,1-3.324,1.746,4.09,4.09,0,0,1-4.314-3.852C219.5,159.559,219.5,159.453,219.5,159.349Z" transform="translate(48.464 37.267)" fill="#e0e0e0"/>
      <path id="Trazado_152355" data-name="Trazado 152355" d="M225.16,159.4a4.243,4.243,0,1,1,4.32,4.167h-.061a4.074,4.074,0,0,1-4.255-3.886C225.159,159.587,225.159,159.493,225.16,159.4Zm7,0a2.757,2.757,0,1,0-2.742,2.88,2.679,2.679,0,0,0,2.748-2.612,2.612,2.612,0,0,0-.006-.268Z" transform="translate(51.474 37.216)" fill="#e0e0e0"/>
      <path id="Trazado_152356" data-name="Trazado 152356" d="M245.655,158.738v4.687h-1.532v-4.519c0-1.608-.781-2.39-2.114-2.39a2.441,2.441,0,0,0-2.451,2.711v4.2h-1.532v-4.519c0-1.608-.781-2.39-2.114-2.39a2.441,2.441,0,0,0-2.451,2.711v4.2H231.93v-8.165h1.639v1.225a3.324,3.324,0,0,1,2.819-1.3,3.064,3.064,0,0,1,2.834,1.532,3.689,3.689,0,0,1,3.14-1.532,3.065,3.065,0,0,1,3.293,3.554Z" transform="translate(55.074 37.265)" fill="#e0e0e0"/>
      <path id="Trazado_152357" data-name="Trazado 152357" d="M250.33,159.837h-6.617a2.759,2.759,0,0,0,2.956,2.39,3.067,3.067,0,0,0,2.359-.98l.812.95a4.457,4.457,0,0,1-7.659-2.849,4.013,4.013,0,0,1,3.856-4.165c.083,0,.167,0,.25,0a3.935,3.935,0,0,1,4.036,3.834,3.456,3.456,0,0,1-.008.378A1.067,1.067,0,0,1,250.33,159.837Zm-6.617-1.057h5.239a2.635,2.635,0,0,0-5.239,0Z" transform="translate(60.524 37.269)" fill="#e0e0e0"/>
      <path id="Trazado_152358" data-name="Trazado 152358" d="M248.64,163.435a.98.98,0,0,1,.98-.98h.031a.98.98,0,0,1,0,1.961h0a.981.981,0,0,1-1.011-.95Zm.138-9.9h1.746l-.291,7.383h-1.18Z" transform="translate(63.961 36.397)" fill="#e0e0e0"/>
      <rect id="Rectángulo_35586" data-name="Rectángulo 35586" width="5.882" height="449.693" rx="1.33" transform="translate(446.741 118.478)" fill="#e0e0e0"/>
      <rect id="Rectángulo_35587" data-name="Rectángulo 35587" width="5.882" height="231.839" rx="1.33" transform="translate(446.741 118.478)" fill="#0f0140"/>
      <path id="Trazado_152359" data-name="Trazado 152359" d="M165.127,194.52v10.723H163.6v-9.375H161.16V194.52Z" transform="translate(17.438 58.191)" fill="#263238"/>
      <path id="Trazado_152360" data-name="Trazado 152360" d="M165.27,201.286a1.042,1.042,0,1,1,1.042,1.057,1.025,1.025,0,0,1-1.042-1.011Z" transform="translate(19.624 61.243)" fill="#263238"/>
      <path id="Trazado_152361" data-name="Trazado 152361" d="M173.537,195.868H169.83V194.52h8.93v1.348h-3.707V205.3h-1.532Z" transform="translate(22.049 58.191)" fill="#263238"/>
      <path id="Trazado_152362" data-name="Trazado 152362" d="M183.7,200.837h-6.633a2.773,2.773,0,0,0,2.956,2.39,3.061,3.061,0,0,0,2.359-1l.812.965a4.442,4.442,0,0,1-7.659-2.849,4,4,0,0,1,3.825-4.163c.089,0,.176,0,.265,0a3.953,3.953,0,0,1,4.052,3.851c0,.12,0,.241-.008.362A.855.855,0,0,1,183.7,200.837Zm-6.633-1.072h5.315a2.635,2.635,0,0,0-5.239,0Z" transform="translate(25.079 59.073)" fill="#263238"/>
      <path id="Trazado_152363" data-name="Trazado 152363" d="M186.622,196.189v1.44h-.337a2.436,2.436,0,0,0-2.59,2.27,2.464,2.464,0,0,0,.017.487v4.059H182.18v-8.165h1.409v1.379A3.064,3.064,0,0,1,186.622,196.189Z" transform="translate(28.617 59.064)" fill="#263238"/>
      <path id="Trazado_152364" data-name="Trazado 152364" d="M199.88,199.775v4.7h-1.532v-4.6c0-1.532-.766-2.374-2.114-2.374a2.422,2.422,0,0,0-2.436,2.711v4.2h-1.532v-4.6c0-1.532-.766-2.374-2.114-2.374a2.376,2.376,0,0,0-2.474,2.272,2.345,2.345,0,0,0,.023.44v4.2H186.17v-8.165h1.409v1.225a3.31,3.31,0,0,1,2.819-1.3,3.064,3.064,0,0,1,2.834,1.532,3.692,3.692,0,0,1,3.156-1.532,3.065,3.065,0,0,1,3.493,3.661Z" transform="translate(30.739 59.017)" fill="#263238"/>
      <path id="Trazado_152365" data-name="Trazado 152365" d="M169.3,313.246v1.333h-7.659v-1.042l4.381-4.243c1.149-1.1,1.363-1.777,1.363-2.466,0-1.1-.8-1.777-2.3-1.777a3.387,3.387,0,0,0-2.757,1.164l-1.057-.9a4.977,4.977,0,0,1,3.952-1.639c2.252,0,3.692,1.164,3.692,3.064a4.354,4.354,0,0,1-1.762,3.385l-3.309,3.186Z" transform="translate(17.497 116.235)" fill="#263238"/>
      <path id="Trazado_152366" data-name="Trazado 152366" d="M167.42,310.527a1.027,1.027,0,0,1,1-1.057h.046a1.057,1.057,0,0,1,0,2.114,1.041,1.041,0,0,1-1.042-1.042Z" transform="translate(20.767 119.322)" fill="#263238"/>
      <path id="Trazado_152367" data-name="Trazado 152367" d="M173,303.75h1.532V313.2h5.836v1.333H173Z" transform="translate(23.735 116.28)" fill="#263238"/>
      <path id="Trazado_152368" data-name="Trazado 152368" d="M178.67,304.145a.965.965,0,0,1,.965-.965h.031a.965.965,0,1,1-1,.965Zm.26,2.527h1.532v8.165H178.93Z" transform="translate(26.75 115.977)" fill="#263238"/>
      <path id="Trazado_152369" data-name="Trazado 152369" d="M181.15,309.579a4.089,4.089,0,0,1,4.007-4.171c.1,0,.2,0,.3,0a3.647,3.647,0,0,1,3.339,1.746l-1.134.72a2.527,2.527,0,0,0-2.206-1.164,2.88,2.88,0,0,0,0,5.744,2.546,2.546,0,0,0,2.206-1.18l1.134.7a3.661,3.661,0,0,1-3.339,1.762,4.089,4.089,0,0,1-4.3-3.869C181.15,309.778,181.149,309.678,181.15,309.579Z" transform="translate(28.069 117.161)" fill="#263238"/>
      <path id="Trazado_152370" data-name="Trazado 152370" d="M194.93,310.067h-6.617a2.773,2.773,0,0,0,2.956,2.39,3.061,3.061,0,0,0,2.359-1l.812.965a4.457,4.457,0,0,1-7.659-2.849,4.013,4.013,0,0,1,3.856-4.165c.084,0,.167,0,.25,0a3.935,3.935,0,0,1,4.036,3.834,3.472,3.472,0,0,1-.008.378A1.078,1.078,0,0,1,194.93,310.067Zm-6.617-1.072h5.239a2.635,2.635,0,0,0-5.239,0Z" transform="translate(31.062 117.163)" fill="#263238"/>
      <path id="Trazado_152371" data-name="Trazado 152371" d="M201.243,308.977v4.7h-1.532v-4.6a2.071,2.071,0,0,0-2.191-2.374,2.42,2.42,0,0,0-2.6,2.226,2.448,2.448,0,0,0,.011.486v4.2H193.4v-8.164h1.425v1.225a3.491,3.491,0,0,1,2.941-1.3,3.157,3.157,0,0,1,3.477,3.6Z" transform="translate(34.584 117.135)" fill="#263238"/>
      <path id="Trazado_152372" data-name="Trazado 152372" d="M199.85,309.579a4.076,4.076,0,0,1,3.975-4.173c.11,0,.219,0,.329.006a3.647,3.647,0,0,1,3.339,1.746l-1.134.72a2.542,2.542,0,0,0-2.221-1.164,2.88,2.88,0,0,0,0,5.744,2.558,2.558,0,0,0,2.221-1.18l1.134.7a3.661,3.661,0,0,1-3.339,1.762,4.089,4.089,0,0,1-4.3-3.869C199.85,309.778,199.849,309.678,199.85,309.579Z" transform="translate(38.013 117.161)" fill="#263238"/>
      <path id="Trazado_152373" data-name="Trazado 152373" d="M213.63,310.067h-6.617a2.772,2.772,0,0,0,2.956,2.39,3.061,3.061,0,0,0,2.359-1l.812.965a4.457,4.457,0,0,1-7.659-2.849,4.013,4.013,0,0,1,3.856-4.165c.083,0,.167,0,.25,0a3.935,3.935,0,0,1,4.036,3.834,3.472,3.472,0,0,1-.008.378A1.078,1.078,0,0,1,213.63,310.067Zm-6.617-1.072h5.239a2.635,2.635,0,0,0-5.239,0Z" transform="translate(41.007 117.163)" fill="#263238"/>
      <path id="Trazado_152374" data-name="Trazado 152374" d="M397.208,217.528c0,.23-52.863.4-118.057.4s-118.072-.168-118.072-.4,52.863-.4,118.072-.4S397.208,217.314,397.208,217.528Z" transform="translate(17.396 70.215)" fill="#263238"/>
      <path id="Trazado_152375" data-name="Trazado 152375" d="M397.208,229.2c0,.214-52.863.4-118.057.4s-118.072-.184-118.072-.4,52.863-.4,118.072-.4S397.208,228.968,397.208,229.2Z" transform="translate(17.396 76.421)" fill="#263238"/>
      <path id="Trazado_152376" data-name="Trazado 152376" d="M397.208,240.858c0,.23-52.863.4-118.057.4s-118.072-.169-118.072-.4,52.863-.4,118.072-.4S397.208,240.644,397.208,240.858Z" transform="translate(17.396 82.622)" fill="#263238"/>
      <path id="Trazado_152377" data-name="Trazado 152377" d="M397.208,252.528c0,.214-52.863.4-118.057.4s-118.072-.184-118.072-.4,52.863-.4,118.072-.4S397.208,252.3,397.208,252.528Z" transform="translate(17.396 88.828)" fill="#263238"/>
      <path id="Trazado_152378" data-name="Trazado 152378" d="M397.208,264.188c0,.23-52.863.4-118.057.4s-118.072-.168-118.072-.4,52.863-.4,118.072-.4S397.208,263.974,397.208,264.188Z" transform="translate(17.396 95.029)" fill="#263238"/>
      <path id="Trazado_152379" data-name="Trazado 152379" d="M397.208,275.858c0,.214-52.863.4-118.057.4s-118.072-.184-118.072-.4,52.863-.4,118.072-.4S397.208,275.629,397.208,275.858Z" transform="translate(17.396 101.235)" fill="#263238"/>
      <path id="Trazado_152380" data-name="Trazado 152380" d="M397.208,320.138c0,.215-52.863.4-118.057.4s-118.072-.184-118.072-.4,52.863-.4,118.072-.4S397.208,319.954,397.208,320.138Z" transform="translate(17.396 124.784)" fill="#263238"/>
      <path id="Trazado_152381" data-name="Trazado 152381" d="M397.208,330.138c0,.23-52.863.4-118.057.4s-118.072-.169-118.072-.4,52.863-.4,118.072-.4S397.208,329.924,397.208,330.138Z" transform="translate(17.396 130.102)" fill="#e0e0e0"/>
      <path id="Trazado_152382" data-name="Trazado 152382" d="M397.208,340.138c0,.214-52.863.4-118.057.4s-118.072-.184-118.072-.4,52.863-.4,118.072-.4S397.208,339.893,397.208,340.138Z" transform="translate(17.396 135.42)" fill="#ebebeb"/>
      <rect id="Rectángulo_35588" data-name="Rectángulo 35588" width="124.904" height="46.536" transform="translate(306.933 521.252)" fill="#05dbf2"/>
      <path id="Trazado_152383" data-name="Trazado 152383" d="M275.259,389.6h-6.127l-1.271,2.9h-1.7L271.4,380.93h1.624l5.254,11.565h-1.731Zm-.582-1.317-2.5-5.668-2.482,5.668Z" transform="translate(73.278 157.325)" fill="#fff"/>
      <path id="Trazado_152384" data-name="Trazado 152384" d="M274.45,387.17a4.382,4.382,0,0,1,4.3-4.462c.1,0,.2,0,.3,0a3.905,3.905,0,0,1,3.569,1.869l-1.21.766a2.724,2.724,0,0,0-2.374-1.256,3.064,3.064,0,1,0,0,6.127,2.727,2.727,0,0,0,2.374-1.256l1.21.75a3.921,3.921,0,0,1-3.569,1.884,4.382,4.382,0,0,1-4.591-4.16Q274.448,387.3,274.45,387.17Z" transform="translate(77.687 158.27)" fill="#fff"/>
      <path id="Trazado_152385" data-name="Trazado 152385" d="M280.52,387.17a4.381,4.381,0,0,1,4.3-4.462c.1,0,.2,0,.3,0a3.893,3.893,0,0,1,3.569,1.869l-1.21.766a2.724,2.724,0,0,0-2.374-1.256,3.064,3.064,0,1,0,0,6.127,2.728,2.728,0,0,0,2.374-1.256l1.21.751a3.9,3.9,0,0,1-3.569,1.884,4.382,4.382,0,0,1-4.591-4.16Q280.518,387.3,280.52,387.17Z" transform="translate(80.915 158.269)" fill="#fff"/>
      <path id="Trazado_152386" data-name="Trazado 152386" d="M295.292,387.734h-7.108a2.973,2.973,0,0,0,3.171,2.558,3.278,3.278,0,0,0,2.527-1.057l.873,1.026a4.43,4.43,0,0,1-3.462,1.409,4.381,4.381,0,0,1-4.692-4.046c-.011-.142-.014-.285-.011-.427a4.291,4.291,0,0,1,4.116-4.456c.094,0,.187,0,.28,0a4.212,4.212,0,0,1,4.343,4.078c0,.142,0,.283-.008.426C295.322,387.336,295.307,387.535,295.292,387.734Zm-7.108-1.149h5.606a2.819,2.819,0,0,0-5.606,0Z" transform="translate(84.142 158.287)" fill="#fff"/>
      <path id="Trazado_152387" data-name="Trazado 152387" d="M302.772,387.19a4.245,4.245,0,0,1-4,4.471c-.141.008-.283.008-.424,0a3.774,3.774,0,0,1-3.064-1.409v4.519H293.75V382.809h1.532V384.2a3.706,3.706,0,0,1,3.064-1.532,4.242,4.242,0,0,1,4.432,4.046A4.076,4.076,0,0,1,302.772,387.19Zm-1.608,0a2.956,2.956,0,1,0-2.956,3.064,2.9,2.9,0,0,0,2.961-2.828c0-.08,0-.158,0-.236Z" transform="translate(87.951 158.249)" fill="#fff"/>
      <path id="Trazado_152388" data-name="Trazado 152388" d="M306.454,391.666a3.072,3.072,0,0,1-1.93.613,2.5,2.5,0,0,1-2.77-2.191,2.459,2.459,0,0,1,0-.551v-4.81H300.22v-1.3h1.532V381.51h1.532v1.915H305.8v1.3h-2.512v4.749a1.287,1.287,0,0,0,1.014,1.512,1.272,1.272,0,0,0,.349.02,1.976,1.976,0,0,0,1.241-.414Z" transform="translate(91.392 157.634)" fill="#fff"/>
      <path id="Trazado_152389" data-name="Trazado 152389" d="M159.025,418.09s-.107,0-.306-.2l-.888-.689-3.722-2.864-.138-.107.169-.077c15.073-5.775,64.229-24.218,124.812-46.8l.214-.077.168.138,4.841,3.891.153.123V418.55h-.4l-89.3-.153-26.179-.107h-8.823a5.557,5.557,0,0,1-.6,0h9.513l26.209-.107,89.182-.153-.383.383V371.875l.153.306-4.841-3.906h.383c-60.6,22.548-109.831,40.777-125.011,46.261v-.169l3.615,2.987.888.735Z" transform="translate(13.614 150.066)" fill="#7e57c2"/>
      <rect id="Rectángulo_35589" data-name="Rectángulo 35589" width="124.904" height="46.536" transform="translate(167.783 517.729)" fill="#fff"/>
      <path id="Trazado_152390" data-name="Trazado 152390" d="M279.1,414.253V401.814c0-8.011-.092-19.607-.153-34.052l.276.276-124.9.123h0l.4-.4V414.3l-.383-.383,89.412.184,26.041.107h.184l-25.964.107-89.687.184h-.383V367.18h.414l124.9.123h.276v.276c0,14.506-.122,26.163-.153,34.221v11.55A1.511,1.511,0,0,1,279.1,414.253Z" transform="translate(13.598 150.013)" fill="#7e57c2"/>
      <path id="Trazado_152391" data-name="Trazado 152391" d="M176.45,380.575h4.871a5.806,5.806,0,0,1,.842,11.581,5.953,5.953,0,0,1-.842,0H176.45Zm4.779,10.141a4.366,4.366,0,1,0,.731-8.7,4.465,4.465,0,0,0-.731,0h-3.064v8.7Z" transform="translate(25.569 157.129)" fill="#7e57c2"/>
      <path id="Trazado_152392" data-name="Trazado 152392" d="M193.367,387.35h-7.108a2.971,2.971,0,0,0,3.186,2.558,3.232,3.232,0,0,0,2.527-1.057l.873,1.026a4.78,4.78,0,0,1-8.165-3.064,4.287,4.287,0,0,1,4.1-4.47c.1,0,.2-.006.3,0a4.229,4.229,0,0,1,4.344,4.108c0,.138,0,.274-.009.411C193.413,387.013,193.382,387.2,193.367,387.35Zm-7.108-1.134h5.622a2.834,2.834,0,0,0-5.622,0Z" transform="translate(29.945 158.075)" fill="#7e57c2"/>
      <path id="Trazado_152393" data-name="Trazado 152393" d="M191.28,386.825a4.382,4.382,0,0,1,4.283-4.477q.156,0,.312,0a3.905,3.905,0,0,1,3.569,1.869l-1.21.781a2.741,2.741,0,0,0-2.374-1.256,3.064,3.064,0,1,0,0,6.127,2.742,2.742,0,0,0,2.374-1.256l1.21.766a3.921,3.921,0,0,1-3.569,1.884,4.382,4.382,0,0,1-4.591-4.16C191.28,387.014,191.279,386.919,191.28,386.825Z" transform="translate(33.456 158.078)" fill="#7e57c2"/>
      <path id="Trazado_152394" data-name="Trazado 152394" d="M197.89,380.12h1.532v12.254H197.89Z" transform="translate(36.971 156.895)" fill="#7e57c2"/>
      <path id="Trazado_152395" data-name="Trazado 152395" d="M200.71,381a1.057,1.057,0,0,1,1.072-1.042h0A1.041,1.041,0,1,1,200.71,381Zm.291,2.711h1.532v8.762H201Z" transform="translate(38.471 156.809)" fill="#7e57c2"/>
      <path id="Trazado_152396" data-name="Trazado 152396" d="M212.18,386.14v5.04h-1.532v-4.795c0-1.716-.873-2.558-2.374-2.558a2.6,2.6,0,0,0-2.773,2.91v4.519H203.97v-8.762H205.5v1.317a3.753,3.753,0,0,1,3.156-1.409,3.4,3.4,0,0,1,3.537,3.258A3.347,3.347,0,0,1,212.18,386.14Z" transform="translate(40.205 158.105)" fill="#7e57c2"/>
      <path id="Trazado_152397" data-name="Trazado 152397" d="M219.452,387.35h-7.108a2.973,2.973,0,0,0,3.171,2.558,3.235,3.235,0,0,0,2.527-1.057l.873,1.026a4.78,4.78,0,0,1-8.165-3.064,4.287,4.287,0,0,1,4.1-4.47c.1,0,.2-.006.3,0a4.229,4.229,0,0,1,4.344,4.108c0,.138,0,.274-.009.411C219.483,387.013,219.467,387.2,219.452,387.35Zm-7.108-1.134h5.606a2.819,2.819,0,0,0-5.606,0Z" transform="translate(43.809 158.075)" fill="#7e57c2"/>
      <line id="Línea_155" data-name="Línea 155" x2="4.841" y2="4.657" transform="translate(292.703 563.5)" fill="none"/>
      <path id="Trazado_152398" data-name="Trazado 152398" d="M240.5,402.073c-.153.168-1.363-.751-2.7-2.037s-2.3-2.451-2.145-2.619,1.363.766,2.7,2.053S240.649,401.92,240.5,402.073Z" transform="translate(57.047 166.083)" fill="#7e57c2"/>
      <path id="Trazado_152399" data-name="Trazado 152399" d="M379.116,412.623l17.83-8.578-9.8-28.982-21.537-4.978c-2.007-.46-4.243-1-6.725-1.685a26.959,26.959,0,0,1-8.165-3.845,40.986,40.986,0,0,1-8.548-7.245c-2.037-2.773-6.357-1.731-6.357,1.348S341.25,369.5,350.916,375s-7.429,8.149-13.618,9.191-25.214,5.315-26.347,7.475c-1.654,3.156,1.532,5.576,7.659,4.366s24.953-3.6,25.443-.322v.092a13.447,13.447,0,0,0,.812,15.624c3.462,4.335,8.655,9.773,12.469,8.946C364.5,418.857,379.116,412.623,379.116,412.623Z" transform="translate(96.867 143.907)" fill="#b78876"/>
      <path id="Trazado_152400" data-name="Trazado 152400" d="M354.59,410.927,371.3,467.435l129.759-39.429a52.08,52.08,0,0,0,34.591-65.025q-.149-.492-.309-.98l-31.816-99-69.1,17.156,37.928,91.6Z" transform="translate(120.306 94.609)" fill="#7e57c2"/>
      <path id="Trazado_152401" data-name="Trazado 152401" d="M504.147,414.524l-.628.23-1.869.6-7.261,2.252-27.19,8.333L372.748,454.6l-.352.092-.123-.337c-5.775-17.279-11.381-36.273-17.861-55.789l-.122-.368.383-.138,3.263-1.072L472.454,358.95l-.184.414c-9.191-22.211-16.635-40.409-21.844-53.093-2.573-6.311-4.6-11.243-5.974-14.629-.659-1.67-1.179-2.956-1.532-3.845s-.49-1.317-.49-1.317.214.429.582,1.287l1.624,3.8c1.409,3.37,3.477,8.287,6.127,14.568,5.269,12.653,12.837,30.82,22.089,53l.122.306-.322.107L358.135,397.735l-3.263,1.088.245-.506c6.495,19.531,12.071,38.525,17.83,55.789l-.46-.245,94.528-28.369,27.3-8.134,7.291-2.129,1.9-.536Z" transform="translate(120.147 107.096)" fill="#263238"/>
      <path id="Trazado_152402" data-name="Trazado 152402" d="M455.729,350.475c-.123,0-.98-1.425-2.711-3.584a35.089,35.089,0,0,0-17.692-11.734c-2.665-.766-4.381-.98-4.366-1.118a3.432,3.432,0,0,1,1.225,0,22.608,22.608,0,0,1,3.278.551,31.77,31.77,0,0,1,10.049,4.381,31.377,31.377,0,0,1,7.95,7.552,21.95,21.95,0,0,1,1.777,2.819A3.41,3.41,0,0,1,455.729,350.475Z" transform="translate(160.92 132.359)" fill="#263238"/>
      <path id="Trazado_152403" data-name="Trazado 152403" d="M426.756,283.158a43.441,43.441,0,0,1-.4-8.379,43.441,43.441,0,0,1,.4-8.379A88.248,88.248,0,0,1,426.756,283.158Z" transform="translate(158.445 96.417)" fill="#fafafa"/>
      <path id="Trazado_152404" data-name="Trazado 152404" d="M445.3,283.863a44.841,44.841,0,0,1-2.819-8.027,45.168,45.168,0,0,1-2.053-8.257A90.513,90.513,0,0,1,445.3,283.863Z" transform="translate(165.957 97.045)" fill="#fafafa"/>
      <path id="Trazado_152405" data-name="Trazado 152405" d="M438.32,295.109a28.807,28.807,0,0,1-15.15-4.442c.107-.214,3.309,1.3,7.491,2.512S438.335,294.88,438.32,295.109Z" transform="translate(156.778 109.312)" fill="#fafafa"/>
      <path id="Trazado_152406" data-name="Trazado 152406" d="M452.3,307.51a40.6,40.6,0,0,1,.98-8,41.1,41.1,0,0,1,1.762-7.873,42.1,42.1,0,0,1-.98,8.011A40.357,40.357,0,0,1,452.3,307.51Z" transform="translate(172.269 109.84)" fill="#fafafa"/>
      <path id="Trazado_152407" data-name="Trazado 152407" d="M447.808,321a84.563,84.563,0,0,1-6.878-15.042A86.25,86.25,0,0,1,447.808,321Z" transform="translate(166.223 117.456)" fill="#fafafa"/>
      <path id="Trazado_152408" data-name="Trazado 152408" d="M447.525,330.223a38.9,38.9,0,0,1-7.276-3.064,38.211,38.211,0,0,1-6.908-3.8,41.583,41.583,0,0,1,7.261,3.064A38.831,38.831,0,0,1,447.525,330.223Z" transform="translate(162.186 126.709)" fill="#fafafa"/>
      <path id="Trazado_152409" data-name="Trazado 152409" d="M466.319,324.63a60.344,60.344,0,0,1-2.926,7.031,60.55,60.55,0,0,1-3.064,6.954A40.317,40.317,0,0,1,466.319,324.63Z" transform="translate(176.54 127.384)" fill="#fafafa"/>
      <path id="Trazado_152410" data-name="Trazado 152410" d="M458.81,359.652a91.856,91.856,0,0,1-1.7-17.2,48.794,48.794,0,0,1,1.241,8.563A47.527,47.527,0,0,1,458.81,359.652Z" transform="translate(174.827 136.861)" fill="#fafafa"/>
      <path id="Trazado_152411" data-name="Trazado 152411" d="M446.992,366.562a38.758,38.758,0,0,1-6.127-5.055,39.7,39.7,0,0,1-5.545-5.637,38.758,38.758,0,0,1,6.127,5.055A39.684,39.684,0,0,1,446.992,366.562Z" transform="translate(163.239 143.998)" fill="#fafafa"/>
      <path id="Trazado_152412" data-name="Trazado 152412" d="M420.018,365.48A88.851,88.851,0,0,1,410,379.144a43.693,43.693,0,0,1,4.687-7.062A45.325,45.325,0,0,1,420.018,365.48Z" transform="translate(149.774 149.109)" fill="#fafafa"/>
      <path id="Trazado_152413" data-name="Trazado 152413" d="M428.787,357.292a28.09,28.09,0,0,1-6.2-5.453,27.246,27.246,0,0,1-4.963-6.587c.184-.138,2.466,2.742,5.545,6.051S428.925,357.123,428.787,357.292Z" transform="translate(153.826 138.349)" fill="#fafafa"/>
      <path id="Trazado_152414" data-name="Trazado 152414" d="M409.191,356.237a11.979,11.979,0,0,1-6.127.751,12.255,12.255,0,0,1-5.943-1.624c.092-.23,2.681.6,5.989.827S409.191,356.007,409.191,356.237Z" transform="translate(142.924 143.708)" fill="#fafafa"/>
      <path id="Trazado_152415" data-name="Trazado 152415" d="M393.183,382.421a29.126,29.126,0,0,1-1.532-6.587,28.31,28.31,0,0,1-.751-6.725A57.732,57.732,0,0,1,393.183,382.421Z" transform="translate(139.616 151.039)" fill="#fafafa"/>
      <path id="Trazado_152416" data-name="Trazado 152416" d="M382.727,388.632A98.386,98.386,0,0,1,367.7,379.15a50.008,50.008,0,0,1,7.736,4.412A50.607,50.607,0,0,1,382.727,388.632Z" transform="translate(127.278 156.379)" fill="#fafafa"/>
      <path id="Trazado_152417" data-name="Trazado 152417" d="M385.952,358.72c.168.153-2.053,2.788-4.519,6.219s-4.3,6.357-4.5,6.25a25.043,25.043,0,0,1,3.845-6.725A24.5,24.5,0,0,1,385.952,358.72Z" transform="translate(132.187 145.514)" fill="#fafafa"/>
      <path id="Trazado_152418" data-name="Trazado 152418" d="M374.3,365.264a14.9,14.9,0,0,1-4.488-1.792,14.534,14.534,0,0,1-4.105-2.512,29.016,29.016,0,0,1,8.593,4.3Z" transform="translate(126.22 146.705)" fill="#fafafa"/>
      <g id="Grupo_107466" data-name="Grupo 107466" transform="translate(591.574 462.921)" opacity="0.2">
        <path id="Trazado_152419" data-name="Trazado 152419" d="M430.76,332.853c6.924.7,13.863,1.424,20.771,2.3a25.6,25.6,0,0,1,7.046,1.532A8.961,8.961,0,0,1,463.6,341.6a5.5,5.5,0,0,1-1.915,6.418,6.357,6.357,0,0,1-6.28-.276,33.474,33.474,0,0,1-5.178-4.059,28.9,28.9,0,0,0-10.631-5.56,18.221,18.221,0,0,1-5.086-1.777,4.41,4.41,0,0,1-2.206-4.6" transform="translate(-430.76 -331.75)"/>
      </g>
    </g>
    <rect id="Rectángulo_35590" data-name="Rectángulo 35590" width="610" height="589" transform="translate(810 9959)" fill="none"/>
  </g>
</svg>
