<svg xmlns="http://www.w3.org/2000/svg" width="85.622" height="82.644" viewBox="0 0 85.622 82.644">
  <g id="Grupo_107449" data-name="Grupo 107449" transform="translate(-815.464 -410.393)">
    <path id="Trazado_151954" data-name="Trazado 151954" d="M848.878,482.973h18.164c0-4.014,2.272-5.514,6.285-5.514V455.394c-3.009,4.108-8.563,6.834-14.766,6.834-6.6,0-12.329-3.081-15.341-7.633v22.864C847.234,477.459,848.878,478.958,848.878,482.973Zm9.4-14.852a3.92,3.92,0,1,1-3.922,3.92A3.92,3.92,0,0,1,858.275,468.12Zm24.965-37.766v62.682H833.31V430.354H838.2v57.638h40.143V430.354Zm-30.671,15.421a7.3,7.3,0,0,1,.534-.984,3.361,3.361,0,0,1,.521-.645l-2.234-1.237a10.444,10.444,0,0,0-1.285,2.356,9.309,9.309,0,0,0-.633,2.911h-2.452v1.265h2.452a8.287,8.287,0,0,0,.473,2.222,5.564,5.564,0,0,0,1.045,1.758,4.614,4.614,0,0,0,1.59,1.167,5.132,5.132,0,0,0,2.112.412,4.13,4.13,0,0,0,1.735-.329,3.56,3.56,0,0,0,1.25-.958,5.6,5.6,0,0,0,.91-1.59,20.116,20.116,0,0,0,.716-2.246c.032-.1.06-.2.085-.305a3.018,3.018,0,0,1,.085-.3H864.5a9.135,9.135,0,0,1-.343,1.689,10.861,10.861,0,0,1-.556,1.491,8.728,8.728,0,0,1-.656,1.19,4.258,4.258,0,0,1-.633.778l2.331,1.234a10.339,10.339,0,0,0,1.591-2.889,12.167,12.167,0,0,0,.693-3.323h2.6v-1.265h-2.551a9.068,9.068,0,0,0-.332-2.318,5.66,5.66,0,0,0-.908-1.894,4.3,4.3,0,0,0-1.517-1.275,4.865,4.865,0,0,0-2.2-.458,4.436,4.436,0,0,0-1.981.4,3.883,3.883,0,0,0-1.373,1.128,6.8,6.8,0,0,0-.945,1.786,21.605,21.605,0,0,0-.705,2.368l-.1.46H851.9a7.138,7.138,0,0,1,.232-1.373A7.892,7.892,0,0,1,852.569,445.775Zm8.133.22a1.8,1.8,0,0,1,1.613-.85,1.829,1.829,0,0,1,1.627.836,4.4,4.4,0,0,1,.584,2.392H859.72A9.052,9.052,0,0,1,860.7,446Zm-4.017,3.276a6.927,6.927,0,0,1-.9,2.172,1.754,1.754,0,0,1-1.531.714,2.1,2.1,0,0,1-1.662-.7,3.53,3.53,0,0,1-.693-2.184Zm16.642-7.81c-3.009-4.108-8.563-6.836-14.766-6.836-6.6,0-12.329,3.083-15.341,7.634V430.354h30.107ZM825.781,437.5V427.077a5.279,5.279,0,0,1,5.426-5.1h54.139a5.28,5.28,0,0,1,5.427,5.1V437.5c0,2.714-4.342,2.171-4.342,2.171V427.077c0-.363-.448-.764-1.085-.764H831.207c-.637,0-1.085.4-1.085.764v12.591S825.781,440.9,825.781,437.5Zm75.3-20.345v26.4a6.989,6.989,0,0,1-7.18,6.762h-7.441v-5.79h7.441c.821,0,1.393-.512,1.393-.973v-26.4c0-.457-.572-.97-1.393-.97H822.645c-.82,0-1.391.513-1.391.97v26.4c0,.461.572.973,1.391.973h7.477v5.79h-7.477a6.991,6.991,0,0,1-7.181-6.762v-26.4a6.989,6.989,0,0,1,7.181-6.758h71.261A6.986,6.986,0,0,1,901.086,417.151Z" fill="#ef6c00"/>
  </g>
</svg>
