<svg xmlns="http://www.w3.org/2000/svg" xmlns:xlink="http://www.w3.org/1999/xlink" width="188" height="188" viewBox="0 0 188 188">
  <defs>
    <linearGradient id="linear-gradient" x1="-1.63" y1="-0.437" x2="3.473" y2="1.808" gradientUnits="objectBoundingBox">
      <stop offset="0" stop-color="#a480de"/>
      <stop offset="0.091" stop-color="#a26cea"/>
      <stop offset="0.253" stop-color="#9f4cff"/>
      <stop offset="0.278" stop-color="#9845f4"/>
      <stop offset="0.373" stop-color="#8130d2"/>
      <stop offset="0.464" stop-color="#7122ba"/>
      <stop offset="0.547" stop-color="#6819ac"/>
      <stop offset="0.616" stop-color="#6516a7"/>
      <stop offset="0.678" stop-color="#6517ad"/>
      <stop offset="0.765" stop-color="#671cc0"/>
      <stop offset="0.868" stop-color="#6924de"/>
      <stop offset="0.884" stop-color="#6a26e4"/>
      <stop offset="0.892" stop-color="#6a2bdd"/>
      <stop offset="0.932" stop-color="#6c42c5"/>
      <stop offset="0.969" stop-color="#6d50b7"/>
      <stop offset="1" stop-color="#6e55b2"/>
    </linearGradient>
    <linearGradient id="linear-gradient-2" x1="-1.94" y1="-17.463" x2="5.102" y2="34.37" xlink:href="#linear-gradient"/>
    <linearGradient id="linear-gradient-3" x1="-1.737" y1="-24.591" x2="4.437" y2="44.665" xlink:href="#linear-gradient"/>
    <linearGradient id="linear-gradient-4" x1="-2.048" y1="-24.236" x2="5.024" y2="44.428" xlink:href="#linear-gradient"/>
    <linearGradient id="linear-gradient-5" x1="-1.87" y1="-25.314" x2="4.481" y2="43.865" xlink:href="#linear-gradient"/>
    <linearGradient id="linear-gradient-6" x1="-3.772" y1="-23.731" x2="8.439" y2="45.526" xlink:href="#linear-gradient"/>
    <linearGradient id="linear-gradient-11" x1="-3.772" y1="-23.731" x2="8.439" y2="45.525" xlink:href="#linear-gradient"/>
    <linearGradient id="linear-gradient-12" x1="-2.202" y1="-19.391" x2="4.84" y2="32.443" xlink:href="#linear-gradient"/>
    <linearGradient id="linear-gradient-13" x1="-1.966" y1="-27.167" x2="4.207" y2="42.089" xlink:href="#linear-gradient"/>
    <linearGradient id="linear-gradient-14" x1="-2.311" y1="-26.79" x2="4.761" y2="41.875" xlink:href="#linear-gradient"/>
    <linearGradient id="linear-gradient-15" x1="-12.261" y1="-30.594" x2="16.163" y2="38.662" xlink:href="#linear-gradient"/>
    <linearGradient id="linear-gradient-19" x1="-1.87" y1="-25.314" x2="4.481" y2="43.865" xlink:href="#linear-gradient"/>
    <linearGradient id="linear-gradient-20" x1="-3.772" y1="-23.731" x2="8.439" y2="45.526" xlink:href="#linear-gradient"/>
    <linearGradient id="linear-gradient-22" x1="-1.737" y1="-24.591" x2="4.437" y2="44.665" xlink:href="#linear-gradient"/>
    <linearGradient id="linear-gradient-23" x1="-2.048" y1="-24.236" x2="5.024" y2="44.429" xlink:href="#linear-gradient"/>
    <linearGradient id="linear-gradient-25" x1="-3.772" y1="-23.74" x2="8.439" y2="45.543" xlink:href="#linear-gradient"/>
    <linearGradient id="linear-gradient-26" x1="-2.128" y1="-28.978" x2="4.046" y2="40.279" xlink:href="#linear-gradient"/>
    <linearGradient id="linear-gradient-27" x1="-2.503" y1="-28.66" x2="4.569" y2="40.005" xlink:href="#linear-gradient"/>
    <linearGradient id="linear-gradient-28" x1="-2.283" y1="-29.809" x2="4.069" y2="39.37" xlink:href="#linear-gradient"/>
    <linearGradient id="linear-gradient-29" x1="-2.739" y1="-29.69" x2="4.683" y2="39.486" xlink:href="#linear-gradient"/>
    <linearGradient id="linear-gradient-30" x1="-2.082" y1="-28.47" x2="4.091" y2="40.786" xlink:href="#linear-gradient"/>
    <linearGradient id="linear-gradient-31" x1="-2.355" y1="-31.528" x2="3.818" y2="37.728" xlink:href="#linear-gradient"/>
    <linearGradient id="linear-gradient-32" x1="-2.762" y1="-31.176" x2="4.309" y2="37.488" xlink:href="#linear-gradient"/>
    <linearGradient id="linear-gradient-33" x1="-14.077" y1="-35.017" x2="14.347" y2="34.239" xlink:href="#linear-gradient"/>
    <linearGradient id="linear-gradient-34" x1="-2.311" y1="-31.037" x2="3.862" y2="38.219" xlink:href="#linear-gradient"/>
    <linearGradient id="linear-gradient-35" x1="-2.636" y1="-2.714" x2="3.207" y2="4.02" xlink:href="#linear-gradient"/>
  </defs>
  <g id="Grupo_107664" data-name="Grupo 107664" transform="translate(-293.822 -318.012)">
    <rect id="Rectángulo_35716" data-name="Rectángulo 35716" width="188" height="188" rx="19.863" transform="translate(293.822 318.012)" fill="#6de0f0"/>
    <g id="Grupo_107614" data-name="Grupo 107614" opacity="0.7">
      <path id="Trazado_152673" data-name="Trazado 152673" d="M324.081,428.461h-2.842a1.765,1.765,0,0,1-1.733-1.437l-.806-4.271a17.048,17.048,0,0,1-4.872-1.927.878.878,0,0,0-.949.043l-3.053,2.156a1.76,1.76,0,0,1-2.265-.193l-2.01-2.009a1.767,1.767,0,0,1-.209-2.243l2.13-3.12a.879.879,0,0,0,.035-.937,17.253,17.253,0,0,1-1.806-4.344.876.876,0,0,0-.7-.638l-3.676-.633a1.76,1.76,0,0,1-1.465-1.738v-2.842A1.765,1.765,0,0,1,301.3,402.6l4.27-.8a17.2,17.2,0,0,1,1.927-4.875.878.878,0,0,0-.043-.949l-2.155-3.051a1.76,1.76,0,0,1,.193-2.265l2.01-2.01a1.765,1.765,0,0,1,2.242-.209l3.59,2.451a17.138,17.138,0,0,1,4.685-2.059l.786-.861.611-3.548a1.76,1.76,0,0,1,1.739-1.465h2.841a1.765,1.765,0,0,1,1.734,1.437l.676,3.587.784.845a17.211,17.211,0,0,1,4.222,1.764.876.876,0,0,0,.948-.043l3.049-2.154a1.761,1.761,0,0,1,2.266.194l2.009,2.009a1.767,1.767,0,0,1,.21,2.242l-2.132,3.122a.881.881,0,0,0-.035.938,17.162,17.162,0,0,1,1.772,4.215l.862.786,3.55.611a1.76,1.76,0,0,1,1.464,1.739v2.841a1.765,1.765,0,0,1-1.437,1.734l-3.587.676-.846.786a17.063,17.063,0,0,1-1.764,4.218.878.878,0,0,0,.043.948l2.155,3.052a1.76,1.76,0,0,1-.193,2.265l-2.009,2.009a1.767,1.767,0,0,1-2.243.21l-3.122-2.132a.879.879,0,0,0-.937-.035,17.169,17.169,0,0,1-4.342,1.805.879.879,0,0,0-.638.7L325.819,427A1.76,1.76,0,0,1,324.081,428.461Zm-4.921-6.512.3.049.916,4.863a.883.883,0,0,0,.866.717h2.842a.878.878,0,0,0,.868-.731l.633-3.678a1.763,1.763,0,0,1,1.284-1.4,16.3,16.3,0,0,0,4.119-1.713,1.768,1.768,0,0,1,1.882.068l3.122,2.131a.882.882,0,0,0,1.12-.1l2.009-2.01a.879.879,0,0,0,.1-1.131l-2.155-3.051a1.765,1.765,0,0,1-.084-1.9,16.2,16.2,0,0,0,1.7-4.118l.032-.125,1.221-1.134,3.837-.724a.881.881,0,0,0,.718-.866v-2.841a.879.879,0,0,0-.731-.868l-3.8-.655-1.244-1.136-.033-.126a16.32,16.32,0,0,0-1.713-4.119,1.763,1.763,0,0,1,.067-1.883l2.131-3.122a.881.881,0,0,0-.105-1.12l-2.009-2.009a.879.879,0,0,0-1.131-.1l-3.049,2.154a1.764,1.764,0,0,1-1.9.084,16.3,16.3,0,0,0-4.124-1.7l-.124-.033-1.133-1.22-.723-3.837a.882.882,0,0,0-.866-.718h-2.841a.878.878,0,0,0-.868.732l-.655,3.8-1.135,1.244-.126.034a16.243,16.243,0,0,0-4.79,2.129l-.257.172-4.078-2.785a.883.883,0,0,0-1.12.105l-2.009,2.009a.879.879,0,0,0-.1,1.131l2.156,3.052a1.764,1.764,0,0,1,.084,1.9,16.322,16.322,0,0,0-1.884,4.877l-.034.3-4.878.919a.883.883,0,0,0-.718.866v2.842a.879.879,0,0,0,.732.868l3.676.633a1.762,1.762,0,0,1,1.4,1.284,16.348,16.348,0,0,0,1.714,4.121,1.766,1.766,0,0,1-.067,1.882l-2.131,3.12a.882.882,0,0,0,.1,1.12l2.009,2.009a.878.878,0,0,0,1.131.1l3.054-2.157a1.762,1.762,0,0,1,1.9-.083A16.182,16.182,0,0,0,319.16,421.949Zm3.481-5.344a10.95,10.95,0,0,1-7.73-3.194c-3.407-3.411-4.857-9.522-.415-15.487a1.73,1.73,0,0,1,.358-.357c5.968-4.423,12.07-2.968,15.47.437s4.848,9.51.416,15.476a1.735,1.735,0,0,1-.358.358h0A12.92,12.92,0,0,1,322.641,416.605Zm.121-20.9a12.66,12.66,0,0,0-7.382,2.572.863.863,0,0,0-.176.176c-2.974,3.993-4.024,9.974.332,14.334s10.327,3.31,14.319.343h0a.84.84,0,0,0,.176-.176c2.967-3.994,4.016-9.973-.332-14.325A9.588,9.588,0,0,0,322.762,395.7Z" fill="#fff"/>
    </g>
    <g id="Grupo_107615" data-name="Grupo 107615" opacity="0.7">
      <path id="Trazado_152674" data-name="Trazado 152674" d="M403.127,332.859a.705.705,0,0,0,.6-.779.678.678,0,0,0-.764-.6q-2.7.359-5.491.922a.7.7,0,0,0-.551.818.679.679,0,0,0,.8.545Q400.468,333.211,403.127,332.859Zm10.895-.585a.7.7,0,0,0,.719-.674.681.681,0,0,0-.658-.715q-2.736-.084-5.567.072a.706.706,0,0,0-.66.732.68.68,0,0,0,.716.657Q411.344,332.193,414.022,332.274Zm10.778,1.364a.7.7,0,0,0,.831-.524.684.684,0,0,0-.507-.832,55.025,55.025,0,0,0-5.479-.969.7.7,0,0,0-.776.605.681.681,0,0,0,.587.775A53.468,53.468,0,0,1,424.8,333.638Zm10.283,3.564a.7.7,0,0,0,.6-1.261,51.668,51.668,0,0,0-5.147-2.1.7.7,0,0,0-.88.433.688.688,0,0,0,.416.883A49.988,49.988,0,0,1,435.083,337.2Zm9.211,5.6a.688.688,0,0,0,.966-.144.7.7,0,0,0-.13-.972,55.1,55.1,0,0,0-4.592-3.128.7.7,0,0,0-.723,1.193Q442.106,341.152,444.294,342.806Zm8.073,7.332a.683.683,0,0,0,.973.024.7.7,0,0,0,.038-.983q-1.866-2.01-3.946-3.9a.685.685,0,0,0-.973.056.7.7,0,0,0,.042.982Q450.541,348.17,452.367,350.138Zm6.649,8.615a.68.68,0,0,0,.95.2.7.7,0,0,0,.214-.962q-1.48-2.343-3.194-4.561a.681.681,0,0,0-.966-.112.7.7,0,0,0-.125.977Q457.57,356.465,459.016,358.753Zm4.908,9.74a.679.679,0,0,0,.892.382.706.706,0,0,0,.391-.906q-1.016-2.616-2.27-5.107a.68.68,0,0,0-.925-.294.706.706,0,0,0-.3.939Q462.932,365.937,463.924,368.493Zm3.017,10.59a.679.679,0,0,0,.806.54.707.707,0,0,0,.547-.822q-.531-2.784-1.286-5.451a.678.678,0,0,0-.851-.466.705.705,0,0,0-.473.866Q466.422,376.357,466.941,379.083Zm1.183,10.863a.678.678,0,0,0,.711.661.7.7,0,0,0,.665-.727q-.1-2.85-.392-5.593a.679.679,0,0,0-.759-.6.706.706,0,0,0-.61.775Q468.03,387.148,468.124,389.946Z" fill="#fff"/>
      <path id="Trazado_152675" data-name="Trazado 152675" d="M404.763,325.575h0a.684.684,0,0,0-.973-.01l-7.248,7.081a.7.7,0,0,0-.023.983h0a.683.683,0,0,0,.973.009l7.249-7.08A.7.7,0,0,0,404.763,325.575Z" fill="#fff"/>
      <path id="Trazado_152676" data-name="Trazado 152676" d="M407.137,337.1h0a.687.687,0,0,0-.4-.891l-9.362-3.457a.7.7,0,0,0-.888.415h0a.688.688,0,0,0,.4.891l9.361,3.458A.7.7,0,0,0,407.137,337.1Z" fill="#fff"/>
    </g>
    <g id="Grupo_107617" data-name="Grupo 107617" opacity="0.9">
      <circle id="Elipse_5230" data-name="Elipse 5230" cx="10.391" cy="10.391" r="10.391" transform="translate(313.424 470.285) rotate(-7.27)" opacity="0.85" fill="url(#linear-gradient)"/>
      <g id="Grupo_107616" data-name="Grupo 107616">
        <path id="Trazado_152677" data-name="Trazado 152677" d="M324.841,484.176a.752.752,0,0,1-.475-.169l-4.553-3.732a.749.749,0,0,1,.949-1.158l3.948,3.235,5.247-7.027a.749.749,0,0,1,1.2.9l-5.716,7.654a.751.751,0,0,1-.509.3C324.9,484.174,324.871,484.176,324.841,484.176Z" fill="#fff"/>
      </g>
    </g>
    <g id="Grupo_107663" data-name="Grupo 107663">
      <g id="Grupo_107636" data-name="Grupo 107636">
        <rect id="Rectángulo_35717" data-name="Rectángulo 35717" width="82.345" height="108.045" rx="5.245" transform="translate(325.242 348.385)" fill="#fff"/>
        <g id="Grupo_107635" data-name="Grupo 107635" opacity="0.8">
          <g id="Grupo_107623" data-name="Grupo 107623">
            <g id="Grupo_107618" data-name="Grupo 107618">
              <rect id="Rectángulo_35718" data-name="Rectángulo 35718" width="51.649" height="3.495" rx="1.308" transform="translate(337.029 417.405)" fill="url(#linear-gradient-2)"/>
            </g>
            <g id="Grupo_107619" data-name="Grupo 107619">
              <rect id="Rectángulo_35719" data-name="Rectángulo 35719" width="58.916" height="2.616" rx="1.308" transform="translate(337.029 424.894)" fill="url(#linear-gradient-3)"/>
            </g>
            <g id="Grupo_107620" data-name="Grupo 107620">
              <rect id="Rectángulo_35720" data-name="Rectángulo 35720" width="51.433" height="2.639" rx="1.308" transform="translate(336.787 431.01)" fill="url(#linear-gradient-4)"/>
            </g>
            <g id="Grupo_107621" data-name="Grupo 107621">
              <rect id="Rectángulo_35721" data-name="Rectángulo 35721" width="57.267" height="2.619" rx="1.308" transform="translate(336.787 436.923)" fill="url(#linear-gradient-5)"/>
            </g>
            <g id="Grupo_107622" data-name="Grupo 107622">
              <path id="Trazado_152678" data-name="Trazado 152678" d="M363.529,445.912h-23.7c-1.681,0-3.045-.586-3.045-1.308h0c0-.722,1.364-1.308,3.045-1.308h23.7c1.681,0,3.044.586,3.044,1.308h0C366.573,445.326,365.21,445.912,363.529,445.912Z" fill="url(#linear-gradient-6)"/>
            </g>
          </g>
          <g id="Grupo_107629" data-name="Grupo 107629">
            <g id="Grupo_107624" data-name="Grupo 107624">
              <rect id="Rectángulo_35722" data-name="Rectángulo 35722" width="51.649" height="3.495" rx="1.308" transform="translate(337.132 364.63)" fill="url(#linear-gradient-2)"/>
            </g>
            <g id="Grupo_107625" data-name="Grupo 107625">
              <rect id="Rectángulo_35723" data-name="Rectángulo 35723" width="58.916" height="2.616" rx="1.308" transform="translate(337.132 372.119)" fill="url(#linear-gradient-3)"/>
            </g>
            <g id="Grupo_107626" data-name="Grupo 107626">
              <rect id="Rectángulo_35724" data-name="Rectángulo 35724" width="51.433" height="2.639" rx="1.308" transform="translate(336.891 378.234)" fill="url(#linear-gradient-4)"/>
            </g>
            <g id="Grupo_107627" data-name="Grupo 107627">
              <rect id="Rectángulo_35725" data-name="Rectángulo 35725" width="57.267" height="2.619" rx="1.308" transform="translate(336.891 384.148)" fill="url(#linear-gradient-5)"/>
            </g>
            <g id="Grupo_107628" data-name="Grupo 107628">
              <path id="Trazado_152679" data-name="Trazado 152679" d="M363.632,393.137h-23.7c-1.682,0-3.045-.586-3.045-1.308h0c0-.723,1.363-1.308,3.045-1.308h23.7c1.682,0,3.045.585,3.045,1.308h0C366.677,392.551,365.314,393.137,363.632,393.137Z" fill="url(#linear-gradient-11)"/>
            </g>
          </g>
          <g id="Grupo_107634" data-name="Grupo 107634">
            <g id="Grupo_107630" data-name="Grupo 107630">
              <rect id="Rectángulo_35726" data-name="Rectángulo 35726" width="51.649" height="3.495" rx="1.308" transform="translate(337.226 398.34)" fill="url(#linear-gradient-12)"/>
            </g>
            <g id="Grupo_107631" data-name="Grupo 107631">
              <rect id="Rectángulo_35727" data-name="Rectángulo 35727" width="58.916" height="2.616" rx="1.308" transform="translate(337.226 405.829)" fill="url(#linear-gradient-13)"/>
            </g>
            <g id="Grupo_107632" data-name="Grupo 107632">
              <rect id="Rectángulo_35728" data-name="Rectángulo 35728" width="51.433" height="2.639" rx="1.308" transform="translate(336.984 411.945)" fill="url(#linear-gradient-14)"/>
            </g>
            <g id="Grupo_107633" data-name="Grupo 107633">
              <path id="Trazado_152680" data-name="Trazado 152680" d="M387.809,421.34h-10.18a1.308,1.308,0,0,1-1.308-1.308h0a1.308,1.308,0,0,1,1.308-1.308h10.18a1.308,1.308,0,0,1,1.308,1.308h0A1.308,1.308,0,0,1,387.809,421.34Z" fill="url(#linear-gradient-15)"/>
            </g>
          </g>
        </g>
      </g>
      <g id="Grupo_107650" data-name="Grupo 107650">
        <rect id="Rectángulo_35729" data-name="Rectángulo 35729" width="82.345" height="108.045" rx="5.245" transform="translate(345.337 361.011)" fill="#fff"/>
        <g id="Grupo_107649" data-name="Grupo 107649" opacity="0.8">
          <g id="Grupo_107642" data-name="Grupo 107642">
            <g id="Grupo_107637" data-name="Grupo 107637">
              <rect id="Rectángulo_35730" data-name="Rectángulo 35730" width="51.649" height="3.495" rx="1.308" transform="translate(357.404 415.254)" fill="url(#linear-gradient-2)"/>
            </g>
            <g id="Grupo_107638" data-name="Grupo 107638">
              <rect id="Rectángulo_35731" data-name="Rectángulo 35731" width="58.916" height="2.616" rx="1.308" transform="translate(357.404 422.743)" fill="url(#linear-gradient-3)"/>
            </g>
            <g id="Grupo_107639" data-name="Grupo 107639">
              <rect id="Rectángulo_35732" data-name="Rectángulo 35732" width="51.433" height="2.639" rx="1.308" transform="translate(357.163 428.859)" fill="url(#linear-gradient-4)"/>
            </g>
            <g id="Grupo_107640" data-name="Grupo 107640">
              <rect id="Rectángulo_35733" data-name="Rectángulo 35733" width="57.267" height="2.619" rx="1.308" transform="translate(357.163 434.772)" fill="url(#linear-gradient-19)"/>
            </g>
            <g id="Grupo_107641" data-name="Grupo 107641">
              <path id="Trazado_152681" data-name="Trazado 152681" d="M383.9,443.761h-23.7c-1.681,0-3.044-.585-3.044-1.308h0c0-.722,1.363-1.308,3.044-1.308h23.7c1.681,0,3.044.586,3.044,1.308h0C386.948,443.176,385.585,443.761,383.9,443.761Z" fill="url(#linear-gradient-20)"/>
            </g>
          </g>
          <g id="Grupo_107648" data-name="Grupo 107648">
            <g id="Grupo_107643" data-name="Grupo 107643">
              <rect id="Rectángulo_35734" data-name="Rectángulo 35734" width="51.649" height="3.495" rx="1.308" transform="translate(357.228 377.256)" fill="url(#linear-gradient-2)"/>
            </g>
            <g id="Grupo_107644" data-name="Grupo 107644">
              <rect id="Rectángulo_35735" data-name="Rectángulo 35735" width="58.916" height="2.616" rx="1.308" transform="translate(357.228 384.745)" fill="url(#linear-gradient-22)"/>
            </g>
            <g id="Grupo_107645" data-name="Grupo 107645">
              <rect id="Rectángulo_35736" data-name="Rectángulo 35736" width="51.433" height="2.639" rx="1.308" transform="translate(356.987 390.86)" fill="url(#linear-gradient-23)"/>
            </g>
            <g id="Grupo_107646" data-name="Grupo 107646">
              <rect id="Rectángulo_35737" data-name="Rectángulo 35737" width="57.267" height="2.619" rx="1.308" transform="translate(356.987 396.773)" fill="url(#linear-gradient-5)"/>
            </g>
            <g id="Grupo_107647" data-name="Grupo 107647">
              <path id="Trazado_152682" data-name="Trazado 152682" d="M383.728,405.762h-23.7c-1.681,0-3.044-.585-3.044-1.307h0c0-.723,1.363-1.308,3.044-1.308h23.7c1.681,0,3.044.585,3.044,1.308h0C386.772,405.177,385.409,405.762,383.728,405.762Z" fill="url(#linear-gradient-25)"/>
            </g>
          </g>
        </g>
      </g>
      <g id="Grupo_107662" data-name="Grupo 107662">
        <rect id="Rectángulo_35738" data-name="Rectángulo 35738" width="82.345" height="108.045" rx="5.245" transform="translate(368.57 372.581)" fill="#fff"/>
        <g id="Grupo_107656" data-name="Grupo 107656">
          <g id="Grupo_107651" data-name="Grupo 107651">
            <rect id="Rectángulo_35739" data-name="Rectángulo 35739" width="58.916" height="2.616" rx="1.308" transform="translate(380.219 396.314)" fill="url(#linear-gradient-26)"/>
          </g>
          <g id="Grupo_107652" data-name="Grupo 107652">
            <rect id="Rectángulo_35740" data-name="Rectángulo 35740" width="51.433" height="2.639" rx="1.308" transform="translate(380.219 402.932)" fill="url(#linear-gradient-27)"/>
          </g>
          <g id="Grupo_107653" data-name="Grupo 107653">
            <rect id="Rectángulo_35741" data-name="Rectángulo 35741" width="57.267" height="2.619" rx="1.308" transform="translate(380.219 409.348)" fill="url(#linear-gradient-28)"/>
          </g>
          <g id="Grupo_107654" data-name="Grupo 107654">
            <path id="Trazado_152683" data-name="Trazado 152683" d="M428.1,418.716H381.338a1.224,1.224,0,0,1-1.119-1.308v0a1.225,1.225,0,0,1,1.119-1.308H428.1a1.225,1.225,0,0,1,1.119,1.308v0A1.224,1.224,0,0,1,428.1,418.716Z" fill="url(#linear-gradient-29)"/>
          </g>
          <g id="Grupo_107655" data-name="Grupo 107655">
            <rect id="Rectángulo_35742" data-name="Rectángulo 35742" width="58.916" height="2.616" rx="1.308" transform="translate(380.219 389.632)" fill="url(#linear-gradient-30)"/>
          </g>
        </g>
        <g id="Grupo_107661" data-name="Grupo 107661">
          <g id="Grupo_107657" data-name="Grupo 107657">
            <rect id="Rectángulo_35743" data-name="Rectángulo 35743" width="58.916" height="2.616" rx="1.308" transform="translate(380.312 429.689)" fill="url(#linear-gradient-31)"/>
          </g>
          <g id="Grupo_107658" data-name="Grupo 107658">
            <rect id="Rectángulo_35744" data-name="Rectángulo 35744" width="51.433" height="2.639" rx="1.308" transform="translate(380.312 436.14)" fill="url(#linear-gradient-32)"/>
          </g>
          <g id="Grupo_107659" data-name="Grupo 107659">
            <path id="Trazado_152684" data-name="Trazado 152684" d="M431.137,445.535h-10.18a1.308,1.308,0,0,1-1.308-1.308h0a1.308,1.308,0,0,1,1.308-1.308h10.18a1.308,1.308,0,0,1,1.308,1.308h0A1.308,1.308,0,0,1,431.137,445.535Z" fill="url(#linear-gradient-33)"/>
          </g>
          <g id="Grupo_107660" data-name="Grupo 107660">
            <rect id="Rectángulo_35745" data-name="Rectángulo 35745" width="58.916" height="2.616" rx="1.308" transform="translate(380.312 423.227)" fill="url(#linear-gradient-34)"/>
          </g>
        </g>
      </g>
      <path id="Trazado_152685" data-name="Trazado 152685" d="M389.221,475q4.794-1.9,9.472-4.005a98.724,98.724,0,0,0,9.064-4.653,41.107,41.107,0,0,0,4.155-2.787,16.91,16.91,0,0,0,3.4-3.349,6.667,6.667,0,0,0,.975-1.911,3.829,3.829,0,0,0,.08-1.909,4.919,4.919,0,0,0-.888-1.833,9.212,9.212,0,0,0-.732-.858l-.875-.881a26.562,26.562,0,0,0-3.827-3.116,16.672,16.672,0,0,0-4.4-2.113l-.292-.09-.3-.07-.594-.139a11.662,11.662,0,0,0-1.2-.159c-.2-.01-.4-.042-.607-.035l-.607,0c-.2.005-.4.032-.6.047-.1.01-.2.014-.3.029l-.3.052a8.828,8.828,0,0,0-1.179.282l-.569.212a2.2,2.2,0,0,0-.278.121l-.273.132a8.1,8.1,0,0,0-1.982,1.4,9.16,9.16,0,0,0-1.49,1.944,10.829,10.829,0,0,0-.939,2.287c-.093.4-.209.8-.263,1.217-.031.206-.074.409-.092.617l-.056.623c-.025.207-.023.416-.029.625s-.012.417-.01.626c.02.423.02.846.056,1.267s.057.844.108,1.264.1.839.16,1.257.149.832.221,1.248c.091.412.176.825.278,1.234.2.818.431,1.63.713,2.421.128.4.292.787.436,1.18.164.384.315.774.495,1.15a22.487,22.487,0,0,0,1.158,2.2,17.445,17.445,0,0,0,1.419,1.981,10.951,10.951,0,0,0,1.7,1.617,5.98,5.98,0,0,0,1.936,1.015,4.667,4.667,0,0,0,2.037.143,5.705,5.705,0,0,0,1.986-.721c.16-.086.313-.2.47-.3l.234-.153.259-.185,1.039-.749,2.076-1.518c.349-.255.7-.511,1.064-.768s.734-.514,1.185-.775c.126-.066.232-.13.377-.2l.214-.1c.086-.032.172-.062.258-.091a2.565,2.565,0,0,1,.679-.117,1.238,1.238,0,0,1,.209,0c.073.006.146.014.219.025a2.614,2.614,0,0,1,.43.119,2.936,2.936,0,0,1,.359.183,3.277,3.277,0,0,1,.275.2c.071.061.151.129.211.187l.169.172c.194.213.342.4.48.574.274.346.517.65.778.948s.538.6.787.828a2.9,2.9,0,0,0,.326.269c.034.022.065.036.024.014a.647.647,0,0,0-.137-.041.84.84,0,0,0-.147-.017,1.047,1.047,0,0,0-.216.015,1.111,1.111,0,0,0-.458.2.971.971,0,0,0-.224.227c-.067.1-.057.106-.051.076.02-.066.055-.245.087-.444s.071-.436.127-.7a4.516,4.516,0,0,1,.285-.9,2.913,2.913,0,0,1,.334-.565,2.379,2.379,0,0,1,.619-.568,2.3,2.3,0,0,1,.832-.315,2.613,2.613,0,0,1,.738-.017,3.694,3.694,0,0,1,1.03.286l.616.273,1.177.526c.791.353,1.582.714,2.412,1.152.2.108.423.233.624.352.15.084.3.173.45.242a4.609,4.609,0,0,0,.9.329,4.113,4.113,0,0,0,.941.111c.338,0,.717-.031,1.183-.063l.181-.011.045,0a1.3,1.3,0,0,0-.678.224,1.514,1.514,0,0,0-.646,1.174,1.258,1.258,0,0,0,.092.509.991.991,0,0,0,.067.143c.011.02.019.032.029.048l.012.018c0,.005.005.006,0,0a.712.712,0,0,0-.045-.057c-.1-.116-.246-.277-.391-.44a11.218,11.218,0,0,1-.938-1.152,4.534,4.534,0,0,1-.247-.4,2.968,2.968,0,0,1-.241-.58,2.134,2.134,0,0,1-.081-.454,1.874,1.874,0,0,1,.061-.636,1.8,1.8,0,0,1,.35-.672c.04-.046.081-.091.123-.134s.081-.074.123-.109.086-.069.125-.1.077-.05.117-.074a2.357,2.357,0,0,1,.758-.278,3.689,3.689,0,0,1,.529-.055,6.063,6.063,0,0,1,.837.037,12.231,12.231,0,0,1,1.418.248q.338.076.664.162l.327.086.162.044.083.023.107.032c.267.083.451.151.663.224l.607.213,1.2.416q1.2.408,2.414.776c.807.245,1.615.487,2.427.7.4.1.822.219,1.2.28l.578.113c.194.037.4.052.606.079a49.779,49.779,0,0,0,5.028.308c1.7.033,3.411.027,5.123,0,3.424-.054,6.859-.172,10.3-.3h0a.139.139,0,0,1,.03.276c-3.395.612-6.809,1.085-10.245,1.445-.858.1-1.72.165-2.581.247-.864.062-1.727.133-2.6.171a42.856,42.856,0,0,1-5.271.029c-.225-.017-.445-.02-.676-.05l-.694-.093c-.477-.055-.893-.147-1.328-.232q-1.291-.263-2.564-.586t-2.525-.7l-1.248-.374-.617-.189c-.2-.059-.42-.128-.565-.166l-.048-.012-.073-.017-.151-.034-.3-.066q-.3-.064-.594-.119c-.391-.071-.78-.129-1.126-.157a3.357,3.357,0,0,0-.449-.009.659.659,0,0,0-.111.014c.005,0,0,0,.028,0l.048-.018c.02-.009.039-.02.078-.04a.4.4,0,0,0,.048-.032c.017-.012.043-.029.063-.046a.755.755,0,0,0,.061-.056.815.815,0,0,0,.07-.074,1.082,1.082,0,0,0,.2-.389,1.056,1.056,0,0,0,.033-.182.9.9,0,0,0,0-.135.7.7,0,0,0-.021-.137c-.013-.044-.006-.023.014.009s.053.084.1.141a8.976,8.976,0,0,0,.717.82c.146.154.293.3.476.514l.073.087c.025.03.053.065.084.106l.05.068.058.083c.024.039.046.074.071.118a1.846,1.846,0,0,1,.1.215,1.486,1.486,0,0,1,.109.587,1.571,1.571,0,0,1-.68,1.24,1.449,1.449,0,0,1-.755.245l-.035,0-.14.011c-.391.031-.868.087-1.389.091a6.9,6.9,0,0,1-3.139-.7c-.239-.111-.461-.239-.685-.366-.169-.1-.323-.188-.5-.28-.689-.366-1.467-.709-2.239-1.068l-1.171-.536-.559-.255a.76.76,0,0,0-.079-.033c-.026-.011-.047-.017-.065-.023-.039-.013-.06-.015-.059-.017a.433.433,0,0,0,.1-.007.645.645,0,0,0,.231-.093.565.565,0,0,0,.148-.134c.021-.029.017-.032.007-.011a1.584,1.584,0,0,0-.1.321c-.038.158-.074.348-.116.569a6.754,6.754,0,0,1-.2.812,2.63,2.63,0,0,1-.317.661,1.9,1.9,0,0,1-.443.461,1.777,1.777,0,0,1-.749.323,1.844,1.844,0,0,1-.377.027,2.172,2.172,0,0,1-.307-.036,2.22,2.22,0,0,1-.443-.138,2.909,2.909,0,0,1-.534-.306,5.467,5.467,0,0,1-.659-.56c-.369-.364-.66-.7-.965-1.061s-.58-.73-.832-1.064c-.125-.166-.243-.316-.334-.424L414,472.3c-.016-.017-.02-.017-.028-.029s.009.009.015.007a.24.24,0,0,0,.075.033.54.54,0,0,0,.227.041c.059,0,.063-.01.046-.007a.24.24,0,0,1-.046.012l-.081.034c-.052.019-.132.065-.2.094-.3.16-.645.38-.989.608s-.7.468-1.048.71l-2.131,1.461-1.074.725-.271.181-.312.189c-.211.123-.41.257-.631.367a8.106,8.106,0,0,1-2.872.9,6.661,6.661,0,0,1-3.042-.37,8.142,8.142,0,0,1-2.528-1.506,12.792,12.792,0,0,1-1.886-2.07,19.09,19.09,0,0,1-1.418-2.317,24.264,24.264,0,0,1-1.072-2.447,32.852,32.852,0,0,1-1.949-10.294c-.02-.436-.006-.873-.011-1.309l.027-.661c.01-.221.014-.442.043-.661l.071-.66c.024-.22.074-.437.109-.655.061-.44.187-.867.29-1.3a12.838,12.838,0,0,1,1.008-2.473,10.861,10.861,0,0,1,1.6-2.164,9.5,9.5,0,0,1,2.149-1.646c.2-.1.394-.229.6-.316l.625-.273a11.9,11.9,0,0,1,1.3-.4l.331-.082c.111-.025.224-.038.336-.058.225-.033.45-.079.676-.1l.68-.052c.228-.023.454-.006.682-.01.457-.015.9.048,1.36.074l.673.1.337.05.332.072a18.271,18.271,0,0,1,5.045,1.914,26.027,26.027,0,0,1,4.38,3.1l.987.9a11.069,11.069,0,0,1,.977,1.069,7.027,7.027,0,0,1,1.387,2.746,6.155,6.155,0,0,1-.105,3.182,8.857,8.857,0,0,1-1.371,2.651,18.315,18.315,0,0,1-3.984,3.79c-.722.529-1.466,1.013-2.219,1.474s-1.516.9-2.292,1.308a69.969,69.969,0,0,1-9.571,4.138c-1.628.588-3.278,1.108-4.932,1.6s-3.325.932-5.015,1.3a.139.139,0,0,1-.081-.265Z" fill="url(#linear-gradient-35)"/>
    </g>
  </g>
</svg>
