<svg xmlns="http://www.w3.org/2000/svg" xmlns:xlink="http://www.w3.org/1999/xlink" width="182.012" height="182.012" viewBox="0 0 182.012 182.012">
  <defs>
    <linearGradient id="linear-gradient" x1="-0.593" y1="-0.312" x2="1.193" y2="1.015" gradientUnits="objectBoundingBox">
      <stop offset="0" stop-color="#a480de"/>
      <stop offset="0.091" stop-color="#a26cea"/>
      <stop offset="0.253" stop-color="#9f4cff"/>
      <stop offset="0.278" stop-color="#9845f4"/>
      <stop offset="0.373" stop-color="#8130d2"/>
      <stop offset="0.464" stop-color="#7122ba"/>
      <stop offset="0.547" stop-color="#6819ac"/>
      <stop offset="0.616" stop-color="#6516a7"/>
      <stop offset="0.678" stop-color="#6517ad"/>
      <stop offset="0.765" stop-color="#671cc0"/>
      <stop offset="0.868" stop-color="#6924de"/>
      <stop offset="0.884" stop-color="#6a26e4"/>
      <stop offset="0.892" stop-color="#6a2bdd"/>
      <stop offset="0.932" stop-color="#6c42c5"/>
      <stop offset="0.969" stop-color="#6d50b7"/>
      <stop offset="1" stop-color="#6e55b2"/>
    </linearGradient>
    <linearGradient id="linear-gradient-2" x1="-1.021" y1="-26.094" x2="2.656" y2="38.203" xlink:href="#linear-gradient"/>
    <linearGradient id="linear-gradient-3" x1="-1.259" y1="-26.125" x2="2.953" y2="37.623" xlink:href="#linear-gradient"/>
    <linearGradient id="linear-gradient-4" x1="-1.166" y1="-27.784" x2="2.617" y2="36.442" xlink:href="#linear-gradient"/>
    <linearGradient id="linear-gradient-5" x1="-1.461" y1="-27.987" x2="2.96" y2="36.235" xlink:href="#linear-gradient"/>
    <linearGradient id="linear-gradient-6" x1="-0.966" y1="-25.134" x2="2.711" y2="39.163" xlink:href="#linear-gradient"/>
    <linearGradient id="linear-gradient-7" x1="-1.296" y1="-30.91" x2="2.381" y2="33.388" xlink:href="#linear-gradient"/>
    <linearGradient id="linear-gradient-8" x1="-1.573" y1="-30.875" x2="2.639" y2="32.873" xlink:href="#linear-gradient"/>
    <linearGradient id="linear-gradient-9" x1="-9.065" y1="-35.829" x2="7.866" y2="28.475" xlink:href="#linear-gradient"/>
    <linearGradient id="linear-gradient-10" x1="-1.243" y1="-29.981" x2="2.434" y2="34.317" xlink:href="#linear-gradient"/>
    <linearGradient id="linear-gradient-11" x1="-1.359" y1="-2.438" x2="1.58" y2="2.84" xlink:href="#linear-gradient"/>
    <linearGradient id="linear-gradient-12" x1="-10.458" y1="-4.009" x2="-11.34" y2="-4.263" gradientUnits="objectBoundingBox">
      <stop offset="0" stop-color="#bec5d8"/>
      <stop offset="0.121" stop-color="#dee2eb"/>
      <stop offset="0.253" stop-color="#fff"/>
      <stop offset="0.286" stop-color="#e8eaef"/>
      <stop offset="0.361" stop-color="#bdc1d1"/>
      <stop offset="0.433" stop-color="#9ba1ba"/>
      <stop offset="0.501" stop-color="#838aa9"/>
      <stop offset="0.564" stop-color="#757c9f"/>
      <stop offset="0.616" stop-color="#70789c"/>
      <stop offset="0.672" stop-color="#767da2"/>
      <stop offset="0.751" stop-color="#888eb5"/>
      <stop offset="0.844" stop-color="#a5aad3"/>
      <stop offset="0.884" stop-color="#b4b8e3"/>
      <stop offset="0.887" stop-color="#b1b6e0"/>
      <stop offset="0.929" stop-color="#9ca1c8"/>
      <stop offset="0.968" stop-color="#8f94ba"/>
      <stop offset="1" stop-color="#8b90b5"/>
    </linearGradient>
    <linearGradient id="linear-gradient-13" x1="-2.054" y1="1.883" x2="-1.553" y2="2.749" gradientUnits="objectBoundingBox">
      <stop offset="0" stop-color="#68696c"/>
      <stop offset="0.035" stop-color="#6f7074"/>
      <stop offset="0.093" stop-color="#85858d"/>
      <stop offset="0.15" stop-color="#a1a0ac"/>
      <stop offset="0.172" stop-color="#afafba"/>
      <stop offset="0.199" stop-color="#bbbbc6"/>
      <stop offset="0.225" stop-color="#c0c0ca"/>
      <stop offset="0.261" stop-color="#ceced6"/>
      <stop offset="0.325" stop-color="#e3e3e7"/>
      <stop offset="0.389" stop-color="#efeff2"/>
      <stop offset="0.45" stop-color="#f4f4f6"/>
      <stop offset="0.452" stop-color="#f1f1f3"/>
      <stop offset="0.468" stop-color="#dcdce1"/>
      <stop offset="0.484" stop-color="#d0d0d6"/>
      <stop offset="0.5" stop-color="#ccccd3"/>
      <stop offset="0.55" stop-color="#dddee3"/>
      <stop offset="0.572" stop-color="#d7d8dd"/>
      <stop offset="0.601" stop-color="#c7c7ce"/>
      <stop offset="0.633" stop-color="#acacb5"/>
      <stop offset="0.65" stop-color="#9c9ca6"/>
      <stop offset="0.672" stop-color="#8f8f98"/>
      <stop offset="0.716" stop-color="#7c7c83"/>
      <stop offset="0.759" stop-color="#707077"/>
      <stop offset="0.8" stop-color="#6d6d73"/>
      <stop offset="0.847" stop-color="#69696e"/>
      <stop offset="0.896" stop-color="#605f62"/>
      <stop offset="0.921" stop-color="#5a5859"/>
      <stop offset="0.945" stop-color="#545254"/>
      <stop offset="1" stop-color="#525052"/>
    </linearGradient>
    <linearGradient id="linear-gradient-14" x1="-1.014" y1="-0.444" x2="-1.985" y2="-0.204" xlink:href="#linear-gradient-12"/>
    <linearGradient id="linear-gradient-15" x1="3.005" y1="3.543" x2="3.505" y2="4.409" gradientUnits="objectBoundingBox">
      <stop offset="0" stop-color="#525052"/>
      <stop offset="0.055" stop-color="#545254"/>
      <stop offset="0.079" stop-color="#5a5859"/>
      <stop offset="0.104" stop-color="#605f62"/>
      <stop offset="0.153" stop-color="#69696e"/>
      <stop offset="0.2" stop-color="#6d6d73"/>
      <stop offset="0.241" stop-color="#707077"/>
      <stop offset="0.284" stop-color="#7c7c83"/>
      <stop offset="0.328" stop-color="#8f8f98"/>
      <stop offset="0.35" stop-color="#9c9ca6"/>
      <stop offset="0.367" stop-color="#acacb5"/>
      <stop offset="0.399" stop-color="#c7c7ce"/>
      <stop offset="0.428" stop-color="#d7d8dd"/>
      <stop offset="0.45" stop-color="#dddee3"/>
      <stop offset="0.5" stop-color="#ccccd3"/>
      <stop offset="0.516" stop-color="#d0d0d6"/>
      <stop offset="0.532" stop-color="#dcdce1"/>
      <stop offset="0.548" stop-color="#f1f1f3"/>
      <stop offset="0.55" stop-color="#f4f4f6"/>
      <stop offset="0.611" stop-color="#efeff2"/>
      <stop offset="0.675" stop-color="#e3e3e7"/>
      <stop offset="0.739" stop-color="#ceced6"/>
      <stop offset="0.775" stop-color="#c0c0ca"/>
      <stop offset="0.801" stop-color="#bbbbc6"/>
      <stop offset="0.828" stop-color="#afafba"/>
      <stop offset="0.85" stop-color="#a1a0ac"/>
      <stop offset="0.907" stop-color="#85858d"/>
      <stop offset="0.965" stop-color="#6f7074"/>
      <stop offset="1" stop-color="#68696c"/>
    </linearGradient>
  </defs>
  <g id="Grupo_107762" data-name="Grupo 107762" transform="translate(-761.905 -319.966)">
    <g id="Grupo_107719" data-name="Grupo 107719">
      <rect id="Rectángulo_35764" data-name="Rectángulo 35764" width="182.012" height="182.012" rx="19.23" transform="translate(761.905 319.966)" fill="#6de0f0"/>
    </g>
    <g id="Grupo_107720" data-name="Grupo 107720" opacity="0.7">
      <path id="Trazado_152714" data-name="Trazado 152714" d="M851.665,473.551H848.65a1.874,1.874,0,0,1-1.84-1.526l-.855-4.532a18.1,18.1,0,0,1-5.17-2.045.935.935,0,0,0-1.007.045l-3.24,2.289a1.869,1.869,0,0,1-2.4-.205L832,465.444a1.871,1.871,0,0,1-.222-2.379l2.26-3.311a.934.934,0,0,0,.038-.995,18.233,18.233,0,0,1-1.917-4.61.93.93,0,0,0-.743-.676l-3.9-.672a1.868,1.868,0,0,1-1.555-1.845v-3.015a1.875,1.875,0,0,1,1.526-1.84l4.53-.854a18.282,18.282,0,0,1,2.046-5.173.931.931,0,0,0-.046-1.006l-2.287-3.239a1.868,1.868,0,0,1,.2-2.4l2.133-2.133a1.873,1.873,0,0,1,2.379-.222l3.81,2.6a18.191,18.191,0,0,1,4.972-2.185l.834-.914.648-3.765a1.868,1.868,0,0,1,1.845-1.554h3.015a1.874,1.874,0,0,1,1.84,1.525l.717,3.806.833.9a18.247,18.247,0,0,1,4.479,1.872.933.933,0,0,0,1.007-.046l3.236-2.286a1.868,1.868,0,0,1,2.4.206l2.133,2.132a1.874,1.874,0,0,1,.222,2.379l-2.262,3.313a.932.932,0,0,0-.037.995,18.215,18.215,0,0,1,1.88,4.474l.915.834,3.767.648a1.868,1.868,0,0,1,1.554,1.845v3.016a1.872,1.872,0,0,1-1.525,1.839l-3.807.718-.9.833a18.111,18.111,0,0,1-1.872,4.476.933.933,0,0,0,.046,1.007l2.287,3.238a1.869,1.869,0,0,1-.206,2.4l-2.132,2.132a1.872,1.872,0,0,1-2.379.222l-3.313-2.261a.934.934,0,0,0-.995-.038,18.253,18.253,0,0,1-4.608,1.916.929.929,0,0,0-.676.743l-.672,3.9A1.868,1.868,0,0,1,851.665,473.551Zm-5.222-6.911.315.052.973,5.16a.936.936,0,0,0,.919.761h3.015a.932.932,0,0,0,.921-.776l.672-3.9a1.871,1.871,0,0,1,1.362-1.491,17.3,17.3,0,0,0,4.372-1.817,1.874,1.874,0,0,1,2,.071l3.313,2.262a.934.934,0,0,0,1.188-.111l2.133-2.132a.934.934,0,0,0,.1-1.2l-2.287-3.238a1.874,1.874,0,0,1-.089-2.021,17.174,17.174,0,0,0,1.809-4.371l.034-.132,1.3-1.2,4.072-.768a.934.934,0,0,0,.762-.918v-3.016a.933.933,0,0,0-.776-.921l-4.037-.7-1.321-1.2-.035-.134a17.309,17.309,0,0,0-1.818-4.37,1.874,1.874,0,0,1,.071-2l2.262-3.313a.935.935,0,0,0-.111-1.188l-2.132-2.133a.935.935,0,0,0-1.2-.1l-3.236,2.286a1.872,1.872,0,0,1-2.02.089,17.31,17.31,0,0,0-4.376-1.809l-.132-.035-1.2-1.3-.767-4.071a.935.935,0,0,0-.919-.762h-3.015a.931.931,0,0,0-.921.776l-.7,4.035-1.2,1.321-.134.035a17.253,17.253,0,0,0-5.082,2.26l-.273.182-4.328-2.955a.936.936,0,0,0-1.188.111l-2.132,2.132a.934.934,0,0,0-.1,1.2l2.288,3.238a1.873,1.873,0,0,1,.089,2.021,17.3,17.3,0,0,0-2,5.175l-.036.323-5.177.976a.936.936,0,0,0-.761.919v3.015a.933.933,0,0,0,.776.922l3.9.671a1.868,1.868,0,0,1,1.49,1.363,17.358,17.358,0,0,0,1.819,4.373,1.874,1.874,0,0,1-.071,2l-2.261,3.312a.934.934,0,0,0,.111,1.188l2.132,2.132a.931.931,0,0,0,1.2.1l3.24-2.288a1.873,1.873,0,0,1,2.022-.089A17.161,17.161,0,0,0,846.443,466.64Zm3.7-5.671a11.62,11.62,0,0,1-8.2-3.39c-3.615-3.62-5.154-10.105-.44-16.434a1.82,1.82,0,0,1,.38-.379c6.333-4.693,12.808-3.149,16.416.463s5.145,10.093.442,16.424a1.845,1.845,0,0,1-.38.379h0A13.712,13.712,0,0,1,850.138,460.969Zm.128-22.18a13.433,13.433,0,0,0-7.834,2.73.887.887,0,0,0-.186.186c-3.156,4.237-4.271,10.584.351,15.212s10.959,3.512,15.2.363h0a.911.911,0,0,0,.186-.186c3.149-4.239,4.262-10.583-.352-15.2A10.175,10.175,0,0,0,850.266,438.789Z" fill="#fff"/>
    </g>
    <g id="Grupo_107721" data-name="Grupo 107721" opacity="0.7">
      <path id="Trazado_152715" data-name="Trazado 152715" d="M915.351,360.011a.7.7,0,0,0,.922-.039.549.549,0,0,0-.053-.831q-1.93-1.566-4.054-3.073a.7.7,0,0,0-.916.1.551.551,0,0,0,.115.826Q913.454,358.471,915.351,360.011Zm7.169,6.787a.706.706,0,0,0,.919.1.547.547,0,0,0,.095-.826q-1.638-1.833-3.5-3.594a.706.706,0,0,0-.924-.024.547.547,0,0,0-.017.831Q920.916,365,922.52,366.8Zm5.727,7.792a.7.7,0,0,0,.884.252.557.557,0,0,0,.27-.793,47.55,47.55,0,0,0-2.718-4.114.7.7,0,0,0-.906-.171.55.55,0,0,0-.181.813A46.231,46.231,0,0,1,928.247,374.59Zm3.875,8.69a.673.673,0,0,0,.807.413.576.576,0,0,0,.45-.722,42.351,42.351,0,0,0-1.715-4.527.684.684,0,0,0-.85-.334.565.565,0,0,0-.362.761A41.007,41.007,0,0,1,932.122,383.28ZM933.9,392.4a.643.643,0,0,0,.7.55.606.606,0,0,0,.6-.624,43.679,43.679,0,0,0-.652-4.733.657.657,0,0,0-.756-.485.59.59,0,0,0-.531.675A42.731,42.731,0,0,1,933.9,392.4Zm-.143,9.338a.614.614,0,0,0,.586.648.63.63,0,0,0,.714-.52q.255-2.334.295-4.743a.627.627,0,0,0-.643-.6.617.617,0,0,0-.663.572Q934,399.456,933.756,401.741Zm-1.928,9.121a.588.588,0,0,0,.446.732.66.66,0,0,0,.809-.394,46.36,46.36,0,0,0,1.223-4.617.6.6,0,0,0-.52-.692.646.646,0,0,0-.764.461A45.345,45.345,0,0,1,931.828,410.862Zm-3.8,8.609a.565.565,0,0,0,.285.794.685.685,0,0,0,.879-.247,46.791,46.791,0,0,0,2.179-4.317.575.575,0,0,0-.367-.766.673.673,0,0,0-.848.321A45.577,45.577,0,0,1,928.029,419.471Zm-5.568,7.845a.552.552,0,0,0,.12.826.7.7,0,0,0,.916-.1q1.627-1.891,3.032-3.864a.557.557,0,0,0-.2-.814.7.7,0,0,0-.9.171Q924.053,425.465,922.461,427.316Zm-6.9,6.8a.546.546,0,0,0-.023.831.705.705,0,0,0,.923.03q1.943-1.644,3.687-3.359a.549.549,0,0,0-.046-.831.7.7,0,0,0-.923.032Q917.47,432.5,915.562,434.117Z" fill="#fff"/>
      <path id="Trazado_152716" data-name="Trazado 152716" d="M921.483,357.036h0a.619.619,0,0,0-.6-.641l-9.471-.8a.63.63,0,0,0-.7.53h0a.619.619,0,0,0,.6.641l9.471.8A.63.63,0,0,0,921.483,357.036Z" fill="#fff"/>
      <path id="Trazado_152717" data-name="Trazado 152717" d="M914.856,364.984h0a.567.567,0,0,0,.378-.755l-3.378-8.029a.683.683,0,0,0-.843-.349h0a.566.566,0,0,0-.378.754l3.377,8.03A.684.684,0,0,0,914.856,364.984Z" fill="#fff"/>
    </g>
    <g id="Grupo_107725" data-name="Grupo 107725">
      <circle id="Elipse_5232" data-name="Elipse 5232" cx="9.747" cy="9.747" r="9.747" transform="matrix(0.991, -0.136, 0.136, 0.991, 772.553, 474.188)" opacity="0.9" fill="url(#linear-gradient)"/>
      <g id="Grupo_107724" data-name="Grupo 107724">
        <g id="Grupo_107722" data-name="Grupo 107722">
          <path id="Trazado_152718" data-name="Trazado 152718" d="M783.46,488.468a.434.434,0,0,1-.434-.434V477.067a.434.434,0,1,1,.868,0v10.967A.434.434,0,0,1,783.46,488.468Z" fill="#fff"/>
        </g>
        <g id="Grupo_107723" data-name="Grupo 107723">
          <path id="Trazado_152719" data-name="Trazado 152719" d="M788.944,482.984H777.977a.434.434,0,1,1,0-.868h10.967a.434.434,0,1,1,0,.868Z" fill="#fff"/>
        </g>
      </g>
    </g>
    <g id="Grupo_107741" data-name="Grupo 107741">
      <g id="Grupo_107726" data-name="Grupo 107726" style="mix-blend-mode: multiply;isolation: isolate">
        <rect id="Rectángulo_35765" data-name="Rectángulo 35765" width="60.042" height="90.634" transform="translate(825.365 352.222)" fill="#8a8a8a"/>
      </g>
      <g id="Grupo_107740" data-name="Grupo 107740">
        <rect id="Rectángulo_35766" data-name="Rectángulo 35766" width="77.242" height="101.349" rx="4.92" transform="translate(819.524 346.683)" fill="#fff"/>
        <g id="Grupo_107739" data-name="Grupo 107739" opacity="0.8">
          <g id="Grupo_107732" data-name="Grupo 107732">
            <g id="Grupo_107727" data-name="Grupo 107727">
              <rect id="Rectángulo_35767" data-name="Rectángulo 35767" width="48.448" height="3.279" rx="1.227" transform="translate(830.843 397.565)" fill="#a6a4f7"/>
            </g>
            <g id="Grupo_107728" data-name="Grupo 107728">
              <rect id="Rectángulo_35768" data-name="Rectángulo 35768" width="55.264" height="2.454" rx="1.227" transform="translate(830.843 404.59)" fill="#a6a4f7"/>
            </g>
            <g id="Grupo_107729" data-name="Grupo 107729">
              <rect id="Rectángulo_35769" data-name="Rectángulo 35769" width="48.246" height="2.475" rx="1.227" transform="translate(830.616 410.326)" fill="#a6a4f7"/>
            </g>
            <g id="Grupo_107730" data-name="Grupo 107730">
              <rect id="Rectángulo_35770" data-name="Rectángulo 35770" width="53.718" height="2.457" rx="1.227" transform="translate(830.616 415.873)" fill="#a6a4f7"/>
            </g>
            <g id="Grupo_107731" data-name="Grupo 107731">
              <path id="Trazado_152720" data-name="Trazado 152720" d="M855.7,424.3H833.472c-1.577,0-2.856-.549-2.856-1.227h0c0-.678,1.279-1.227,2.856-1.227H855.7c1.577,0,2.856.549,2.856,1.227h0C858.556,423.756,857.277,424.3,855.7,424.3Z" fill="#a6a4f7"/>
            </g>
          </g>
          <g id="Grupo_107738" data-name="Grupo 107738">
            <g id="Grupo_107733" data-name="Grupo 107733">
              <rect id="Rectángulo_35771" data-name="Rectángulo 35771" width="48.448" height="3.279" rx="1.227" transform="translate(830.677 361.921)" fill="#a6a4f7"/>
            </g>
            <g id="Grupo_107734" data-name="Grupo 107734">
              <rect id="Rectángulo_35772" data-name="Rectángulo 35772" width="55.264" height="2.454" rx="1.227" transform="translate(830.677 368.946)" fill="#a6a4f7"/>
            </g>
            <g id="Grupo_107735" data-name="Grupo 107735">
              <rect id="Rectángulo_35773" data-name="Rectángulo 35773" width="48.246" height="2.475" rx="1.227" transform="translate(830.451 374.683)" fill="#a6a4f7"/>
            </g>
            <g id="Grupo_107736" data-name="Grupo 107736">
              <rect id="Rectángulo_35774" data-name="Rectángulo 35774" width="53.718" height="2.457" rx="1.227" transform="translate(830.451 380.229)" fill="#a6a4f7"/>
            </g>
            <g id="Grupo_107737" data-name="Grupo 107737">
              <path id="Trazado_152721" data-name="Trazado 152721" d="M855.535,388.661H833.307c-1.577,0-2.856-.549-2.856-1.227h0c0-.677,1.279-1.227,2.856-1.227h22.228c1.577,0,2.855.55,2.855,1.227h0C858.39,388.112,857.112,388.661,855.535,388.661Z" fill="#a6a4f7"/>
            </g>
          </g>
        </g>
      </g>
    </g>
    <g id="Grupo_107755" data-name="Grupo 107755">
      <g id="Grupo_107742" data-name="Grupo 107742" style="mix-blend-mode: multiply;isolation: isolate">
        <rect id="Rectángulo_35775" data-name="Rectángulo 35775" width="58.647" height="85.934" transform="translate(796.731 335.902)" fill="#8a8a8a"/>
      </g>
      <g id="Grupo_107754" data-name="Grupo 107754">
        <rect id="Rectángulo_35776" data-name="Rectángulo 35776" width="73.54" height="96.492" rx="4.684" transform="translate(790.786 330.599)" fill="#fff"/>
        <g id="Grupo_107748" data-name="Grupo 107748">
          <g id="Grupo_107743" data-name="Grupo 107743">
            <rect id="Rectángulo_35777" data-name="Rectángulo 35777" width="52.616" height="2.336" rx="1.168" transform="translate(801.19 351.794)" fill="url(#linear-gradient-2)"/>
          </g>
          <g id="Grupo_107744" data-name="Grupo 107744">
            <rect id="Rectángulo_35778" data-name="Rectángulo 35778" width="45.933" height="2.356" rx="1.168" transform="translate(801.19 357.705)" fill="url(#linear-gradient-3)"/>
          </g>
          <g id="Grupo_107745" data-name="Grupo 107745">
            <rect id="Rectángulo_35779" data-name="Rectángulo 35779" width="51.144" height="2.339" rx="1.168" transform="translate(801.19 363.435)" fill="url(#linear-gradient-4)"/>
          </g>
          <g id="Grupo_107746" data-name="Grupo 107746">
            <path id="Trazado_152722" data-name="Trazado 152722" d="M843.95,371.8H802.189a1.093,1.093,0,0,1-1-1.168v0a1.093,1.093,0,0,1,1-1.168H843.95a1.094,1.094,0,0,1,1,1.168v0A1.094,1.094,0,0,1,843.95,371.8Z" fill="url(#linear-gradient-5)"/>
          </g>
          <g id="Grupo_107747" data-name="Grupo 107747">
            <rect id="Rectángulo_35780" data-name="Rectángulo 35780" width="52.616" height="2.336" rx="1.168" transform="translate(801.19 345.827)" fill="url(#linear-gradient-6)"/>
          </g>
        </g>
        <g id="Grupo_107753" data-name="Grupo 107753">
          <g id="Grupo_107749" data-name="Grupo 107749">
            <rect id="Rectángulo_35781" data-name="Rectángulo 35781" width="52.616" height="2.336" rx="1.168" transform="translate(801.273 381.601)" fill="url(#linear-gradient-7)"/>
          </g>
          <g id="Grupo_107750" data-name="Grupo 107750">
            <rect id="Rectángulo_35782" data-name="Rectángulo 35782" width="45.933" height="2.356" rx="1.168" transform="translate(801.273 387.362)" fill="url(#linear-gradient-8)"/>
          </g>
          <g id="Grupo_107751" data-name="Grupo 107751">
            <path id="Trazado_152723" data-name="Trazado 152723" d="M846.663,395.752h-9.092a1.168,1.168,0,0,1-1.168-1.168h0a1.168,1.168,0,0,1,1.168-1.168h9.092a1.168,1.168,0,0,1,1.168,1.168h0A1.168,1.168,0,0,1,846.663,395.752Z" fill="url(#linear-gradient-9)"/>
          </g>
          <g id="Grupo_107752" data-name="Grupo 107752">
            <rect id="Rectángulo_35783" data-name="Rectángulo 35783" width="52.616" height="2.336" rx="1.168" transform="translate(801.273 375.829)" fill="url(#linear-gradient-10)"/>
          </g>
        </g>
      </g>
      <path id="Trazado_152724" data-name="Trazado 152724" d="M809.229,422.07q4.281-1.7,8.459-3.577a88.1,88.1,0,0,0,8.1-4.155,37.112,37.112,0,0,0,3.711-2.489,15.122,15.122,0,0,0,3.035-2.992,5.972,5.972,0,0,0,.871-1.706,3.413,3.413,0,0,0,.071-1.7,4.381,4.381,0,0,0-.793-1.637,8.251,8.251,0,0,0-.653-.766l-.782-.787a23.673,23.673,0,0,0-3.418-2.783,14.86,14.86,0,0,0-3.931-1.886l-.261-.082-.264-.062-.531-.124a10.26,10.26,0,0,0-1.075-.141c-.18-.01-.362-.038-.542-.032l-.542,0c-.18.005-.359.029-.539.042-.09.009-.181.012-.27.026l-.267.046a7.826,7.826,0,0,0-1.053.252l-.507.19a1.885,1.885,0,0,0-.249.108l-.244.118a7.174,7.174,0,0,0-1.769,1.253,8.17,8.17,0,0,0-1.331,1.736,9.614,9.614,0,0,0-.838,2.043c-.083.361-.187.717-.236,1.087-.027.183-.066.365-.082.551l-.05.556c-.022.185-.021.372-.026.558s-.01.372-.009.559c.018.378.019.755.05,1.132s.052.753.1,1.128.089.75.143,1.123.133.743.2,1.114c.081.369.157.738.248,1.1.182.73.385,1.455.637,2.162.114.357.261.7.389,1.053.147.344.282.692.443,1.028a20.209,20.209,0,0,0,1.034,1.962,15.422,15.422,0,0,0,1.267,1.769,9.812,9.812,0,0,0,1.517,1.444,5.356,5.356,0,0,0,1.729.907,4.163,4.163,0,0,0,1.819.127,5.1,5.1,0,0,0,1.774-.644c.143-.077.279-.181.42-.268l.209-.137.231-.165.928-.669,1.854-1.356c.312-.228.625-.456.95-.686s.656-.459,1.058-.692c.113-.059.207-.116.337-.174l.192-.086c.076-.028.153-.055.23-.081a2.321,2.321,0,0,1,.606-.105,1.184,1.184,0,0,1,.186,0c.066.005.131.013.2.022a2.26,2.26,0,0,1,.384.107,2.6,2.6,0,0,1,.321.163,2.707,2.707,0,0,1,.246.176c.063.054.135.115.188.167l.151.154c.173.19.3.357.429.512.244.309.461.581.694.847s.481.532.7.74a2.475,2.475,0,0,0,.291.239c.03.02.058.033.02.013a.572.572,0,0,0-.121-.037.8.8,0,0,0-.132-.014.888.888,0,0,0-.193.013,1.01,1.01,0,0,0-.409.174.837.837,0,0,0-.2.2c-.06.09-.051.094-.046.068.017-.059.049-.22.078-.4s.063-.389.113-.622a3.938,3.938,0,0,1,.255-.808,2.542,2.542,0,0,1,.3-.5,2.108,2.108,0,0,1,.554-.508,2.028,2.028,0,0,1,.743-.281,2.351,2.351,0,0,1,.659-.016,3.325,3.325,0,0,1,.919.256l.55.244,1.052.469c.706.316,1.413.638,2.154,1.029.182.1.377.208.557.314.134.076.268.155.4.217a4.075,4.075,0,0,0,.8.293,3.71,3.71,0,0,0,.84.1c.3,0,.641-.028,1.057-.056l.161-.01.041,0a1.148,1.148,0,0,0-.606.2,1.354,1.354,0,0,0-.577,1.048,1.138,1.138,0,0,0,.082.455.98.98,0,0,0,.06.127.509.509,0,0,0,.026.044l.011.015c0,.005,0,.006,0,0a.567.567,0,0,0-.041-.051c-.087-.1-.22-.248-.349-.393a10.018,10.018,0,0,1-.837-1.029,3.9,3.9,0,0,1-.221-.362,2.621,2.621,0,0,1-.216-.518,2,2,0,0,1-.072-.405,1.674,1.674,0,0,1,0-.265,1.564,1.564,0,0,1,.054-.3,1.584,1.584,0,0,1,.313-.6c.035-.042.072-.082.11-.121s.071-.065.109-.1.077-.061.112-.086l.1-.065a2.084,2.084,0,0,1,.677-.248,3.157,3.157,0,0,1,.472-.05,5.631,5.631,0,0,1,.749.033,10.935,10.935,0,0,1,1.266.222c.2.045.4.094.593.144l.291.077.145.04.074.02.1.028c.238.075.4.135.592.2l.542.19,1.076.372q1.075.365,2.156.693c.721.219,1.442.434,2.168.624.36.092.734.2,1.069.25l.516.1c.173.033.361.046.541.07a44.23,44.23,0,0,0,4.49.275c1.519.03,3.046.024,4.575,0,3.059-.048,6.126-.154,9.2-.269h0a.124.124,0,0,1,.027.246c-3.032.547-6.081.969-9.149,1.29-.767.085-1.537.148-2.306.221-.771.055-1.542.118-2.318.152a37.851,37.851,0,0,1-4.707.026c-.2-.015-.4-.018-.6-.044l-.62-.083c-.426-.049-.8-.132-1.185-.207-.77-.157-1.533-.33-2.291-.524s-1.508-.4-2.254-.623l-1.115-.333-.551-.169c-.176-.053-.375-.114-.505-.148l-.043-.011-.065-.015-.134-.031-.268-.059c-.178-.038-.355-.074-.53-.1a10.1,10.1,0,0,0-1.006-.141,2.8,2.8,0,0,0-.4-.008.762.762,0,0,0-.1.012c.005,0,0,0,.026,0l.042-.016c.018-.008.035-.017.07-.036a.388.388,0,0,0,.042-.028.605.605,0,0,0,.056-.041c.02-.016.035-.031.055-.05a.657.657,0,0,0,.062-.067.947.947,0,0,0,.182-.347.991.991,0,0,0,.03-.162.827.827,0,0,0,0-.121.555.555,0,0,0-.019-.123c-.011-.039-.005-.02.013.009s.047.075.084.126a8.3,8.3,0,0,0,.642.732c.13.137.261.272.424.459l.066.078c.022.026.047.058.075.094l.044.061.052.074c.022.035.041.066.063.1a1.7,1.7,0,0,1,.092.193,1.339,1.339,0,0,1,.1.524,1.405,1.405,0,0,1-.607,1.108,1.3,1.3,0,0,1-.674.218l-.032,0-.125.009c-.349.028-.775.078-1.24.081a6.284,6.284,0,0,1-1.443-.148,6.2,6.2,0,0,1-1.36-.479c-.215-.1-.413-.214-.612-.327-.151-.088-.289-.167-.446-.25-.616-.327-1.31-.633-2-.954l-1.046-.478-.5-.228c-.026-.012-.05-.023-.07-.03l-.058-.02c-.035-.012-.054-.014-.053-.015a.415.415,0,0,0,.085-.007.582.582,0,0,0,.207-.083.488.488,0,0,0,.132-.12c.019-.026.015-.028.006-.009a1.382,1.382,0,0,0-.093.286c-.034.142-.066.311-.1.509a6.03,6.03,0,0,1-.174.724,2.323,2.323,0,0,1-.283.591,1.7,1.7,0,0,1-.4.412,1.6,1.6,0,0,1-1.005.312,1.893,1.893,0,0,1-.275-.031,2.057,2.057,0,0,1-.395-.124,2.628,2.628,0,0,1-.477-.273,4.984,4.984,0,0,1-.589-.5c-.329-.325-.59-.626-.862-.947s-.518-.652-.742-.95c-.112-.148-.217-.283-.3-.379l-.048-.054a.265.265,0,0,1-.025-.026c-.007-.008.008.008.014.006a.214.214,0,0,0,.066.03.48.48,0,0,0,.2.036c.053,0,.056-.009.041-.007a.2.2,0,0,1-.041.012l-.073.03c-.046.017-.118.058-.176.084-.267.143-.576.34-.884.543s-.621.418-.936.634l-1.9,1.3-.96.648-.242.162-.278.169c-.189.109-.366.23-.564.327a7.246,7.246,0,0,1-2.564.806,5.949,5.949,0,0,1-2.718-.331,7.285,7.285,0,0,1-2.257-1.344,11.491,11.491,0,0,1-1.685-1.849,17.243,17.243,0,0,1-1.266-2.069,21.724,21.724,0,0,1-.957-2.185,29.35,29.35,0,0,1-1.741-9.194c-.018-.389-.005-.779-.009-1.169l.024-.591c.009-.2.012-.394.038-.59l.064-.589c.02-.2.066-.39.1-.585.055-.392.168-.775.26-1.16a11.458,11.458,0,0,1,.9-2.209,9.759,9.759,0,0,1,1.424-1.933,8.468,8.468,0,0,1,1.92-1.469c.18-.092.351-.205.539-.282l.558-.244a10.567,10.567,0,0,1,1.165-.356l.3-.073c.1-.023.2-.034.3-.052.2-.03.4-.07.6-.09L821.2,396c.2-.02.406-.005.609-.009.408-.012.809.043,1.215.067l.6.087.3.045.3.065a16.357,16.357,0,0,1,4.506,1.708,23.372,23.372,0,0,1,3.911,2.764l.882.805a9.782,9.782,0,0,1,.873.954,6.289,6.289,0,0,1,1.238,2.452,5.492,5.492,0,0,1-.094,2.842,7.9,7.9,0,0,1-1.224,2.367,16.352,16.352,0,0,1-3.558,3.385c-.644.473-1.31.9-1.982,1.317s-1.354.8-2.046,1.168a62.544,62.544,0,0,1-8.548,3.7c-1.454.524-2.927.989-4.4,1.43s-2.969.833-4.479,1.16a.124.124,0,0,1-.072-.237Z" fill="url(#linear-gradient-11)"/>
    </g>
    <g id="Grupo_107761" data-name="Grupo 107761">
      <path id="Trazado_152725" data-name="Trazado 152725" d="M930.418,477.57a6.208,6.208,0,0,0-1.578-4.1,6.286,6.286,0,0,0-.89-1L880.91,428.6a3.572,3.572,0,0,0-4.968.092l-4.751,4.771a3.574,3.574,0,0,0-.118,4.919l43.159,47.688a6.671,6.671,0,0,0,5.784,2.026C924.926,487.8,930.52,482.45,930.418,477.57Z" fill="#662d91" opacity="0.9"/>
      <path id="Trazado_152726" data-name="Trazado 152726" d="M880.09,427.259l-9.847,9.794a1.443,1.443,0,0,0-.024,2.04l2.947,2.962.991,1a3.967,3.967,0,0,0,5.6.014l6.3-6.267a3.969,3.969,0,0,0,.015-5.6l-.992-1-2.946-2.962A1.443,1.443,0,0,0,880.09,427.259Z" fill="#999"/>
      <g id="Grupo_107756" data-name="Grupo 107756">
        <path id="Trazado_152727" data-name="Trazado 152727" d="M875.327,444.063a4.018,4.018,0,0,1-1.3-.871l-3.937-3.958a1.485,1.485,0,0,1-.434-1.075,1.543,1.543,0,0,1,.458-1.079l9.847-9.795a1.542,1.542,0,0,1,1.081-.452,1.487,1.487,0,0,1,1.073.439l3.937,3.959a4.046,4.046,0,0,1-.015,5.709l-6.3,6.267a4.009,4.009,0,0,1-2.25,1.127A4.069,4.069,0,0,1,875.327,444.063Zm6.248-16.966a1.349,1.349,0,0,0-.529-.1,1.373,1.373,0,0,0-.968.406l-9.847,9.794a1.379,1.379,0,0,0-.411.967,1.327,1.327,0,0,0,.387.959l3.938,3.959a3.887,3.887,0,0,0,5.481.014l6.3-6.268a3.885,3.885,0,0,0,.014-5.481L882,427.386A1.311,1.311,0,0,0,881.575,427.1Z" fill="url(#linear-gradient-12)"/>
      </g>
      <g id="Grupo_107760" data-name="Grupo 107760">
        <circle id="Elipse_5233" data-name="Elipse 5233" cx="55.81" cy="55.81" r="55.81" transform="translate(775.779 338.122)" opacity="0.15" fill="url(#linear-gradient-13)"/>
        <g id="Grupo_107759" data-name="Grupo 107759">
          <path id="Trazado_152728" data-name="Trazado 152728" d="M833.4,332.851a60.113,60.113,0,1,0,59.456,60.762A60.114,60.114,0,0,0,833.4,332.851Zm-1.279,117.723a57.617,57.617,0,1,1,58.24-56.988A57.617,57.617,0,0,1,832.119,450.574Z" fill="#e6e6e6"/>
          <path id="Trazado_152729" data-name="Trazado 152729" d="M833.371,335.346a57.617,57.617,0,1,0,56.988,58.24A57.617,57.617,0,0,0,833.371,335.346Zm-1.165,107.226A49.615,49.615,0,1,1,882.357,393.5,49.614,49.614,0,0,1,832.206,442.572Z" fill="#b3b3b3"/>
          <g id="Grupo_107757" data-name="Grupo 107757">
            <path id="Trazado_152730" data-name="Trazado 152730" d="M832.284,442.862A50.16,50.16,0,0,1,819.312,441a49.593,49.593,0,1,1,12.972,1.862Zm.918-99.394a49.483,49.483,0,1,0,23.813,92.6l.1.179-.1-.179a49.473,49.473,0,0,0-10.947-90.756A49.689,49.689,0,0,0,833.2,343.468Z" fill="url(#linear-gradient-14)"/>
          </g>
          <g id="Grupo_107758" data-name="Grupo 107758">
            <path id="Trazado_152731" data-name="Trazado 152731" d="M832.054,453.373a60.451,60.451,0,1,1,42.936-17.24A60.053,60.053,0,0,1,832.054,453.373Zm1.307-120.282a59.838,59.838,0,1,0,42.119,17.984A59.447,59.447,0,0,0,833.361,333.091Z" fill="#b3b3b3"/>
          </g>
        </g>
        <circle id="Elipse_5234" data-name="Elipse 5234" cx="46.223" cy="46.223" r="46.223" transform="translate(772.341 367.451) rotate(-22.194)" opacity="0.07" fill="url(#linear-gradient-15)"/>
      </g>
    </g>
  </g>
</svg>
