<svg xmlns="http://www.w3.org/2000/svg" width="101" height="101" viewBox="0 0 101 101">
  <g id="Grupo_107617" data-name="Grupo 107617" transform="translate(-327 -4798)">
    <circle id="Elipse_4837" data-name="Elipse 4837" cx="50.5" cy="50.5" r="50.5" transform="translate(327 4798)" fill="#3e2ea6"/>
    <g id="Grupo_107354" data-name="Grupo 107354" transform="translate(1233.317 7117.654)">
      <path id="Trazado_149787" data-name="Trazado 149787" d="M-860.619-2231.309v-8.767c-6.187-.278-12.187-1.939-15.7-3.97l2.774-10.8a32.639,32.639,0,0,0,15.329,4.06c5.263,0,8.864-2.03,8.864-5.721,0-3.511-2.955-5.729-9.789-8.038-9.879-3.323-16.623-7.939-16.623-16.895,0-8.128,5.729-14.5,15.607-16.435v-8.775h9.044v8.128a33.318,33.318,0,0,1,13.39,3.045l-2.676,10.436a30.6,30.6,0,0,0-13.3-3.143c-6,0-7.939,2.586-7.939,5.173,0,3.045,3.233,4.985,11.082,7.939,10.984,3.88,15.42,8.955,15.42,17.271,0,8.218-5.819,15.233-16.435,17.082v9.413Z" fill="#fff"/>
    </g>
  </g>
</svg>
