<svg xmlns="http://www.w3.org/2000/svg" width="323.366" height="328" viewBox="0 0 323.366 328">
  <g id="Grupo_107406" data-name="Grupo 107406" transform="translate(-67.198 -21.165)">
    <g id="Grupo_107372" data-name="Grupo 107372" transform="translate(127.308 101.461)">
      <path id="Trazado_149813" data-name="Trazado 149813" d="M333.838,212.089a98.851,98.851,0,1,1-98.86-98.86,98.8,98.8,0,0,1,98.86,98.86Z" transform="translate(-136.118 -113.229)" fill="#6262f4"/>
      <path id="Trazado_149814" data-name="Trazado 149814" d="M286.695,135.166c-.231,5.914-2.54,12.043-7.355,15.482-7.538,5.388-18.674,2.261-25.105-4.418-3.565-3.709-6.439-8.557-11.295-10.268-7.3-2.563-15.076,3.606-18.125,10.714-4.179,9.774-2.929,21.817-9.52,30.151a21.309,21.309,0,0,1-19.613,7.4A25.11,25.11,0,0,1,178.251,172.1c-3.5-5.922-4.649-12.926-7.284-19.278a27.854,27.854,0,0,0-4.759-7.8A98.888,98.888,0,0,1,285.644,125,40.95,40.95,0,0,1,286.695,135.166Z" transform="translate(-139.964 -113.229)" fill="#4848d8"/>
      <path id="Trazado_149815" data-name="Trazado 149815" d="M177.518,235.538a14.193,14.193,0,0,1,11.139-10.71c9.21-1.617,18.972,6.088,27.487,2.226,6.383-2.895,8.584-10.848,13.706-15.631,7.451-6.956,20.694-5.23,27.153,2.657s6.142,20.09.412,28.522c-4.752,6.994-12.381,11.4-18.5,17.237-3.794,3.618-7.048,7.829-11.248,10.965s-9.76,5.108-14.716,3.4c-6.008-2.067-9.043-8.52-12.412-13.908C194.095,249.993,174.108,251.3,177.518,235.538Z" transform="translate(-141.36 -125.224)" fill="#4848d8"/>
      <path id="Trazado_149816" data-name="Trazado 149816" d="M348.827,238.479a98.909,98.909,0,0,1-81.873,87.112c-.876-7.6-3.956-15.076-6.352-22.455-3.232-9.973-5.031-21.69.939-30.3,5.564-8.039,17.606-10.706,26.052-5.77,4.091,2.4,7.212,6.2,11.287,8.612s10.038,2.97,13-.74c2.093-2.611,1.9-6.384,1.059-9.624s-2.245-6.408-2.253-9.759a12.4,12.4,0,0,1,12.2-11.948c3.152.072,6.137,1.377,9.273,1.7C338.4,245.945,343.948,242.746,348.827,238.479Z" transform="translate(-151.649 -129.24)" fill="#4848d8"/>
      <path id="Trazado_149817" data-name="Trazado 149817" d="M316.24,196.674c-.843-3.391-.478-7.307,1.887-9.87,2.141-2.324,5.436-3.1,8.525-3.773q10.424-2.257,20.854-4.52a97.613,97.613,0,0,1,8.024,26c-5.819,3.981-12.346,6.814-19.359,6.615C327.359,210.866,318.381,205.223,316.24,196.674Z" transform="translate(-159.09 -121.574)" fill="#4848d8"/>
      <path id="Trazado_149818" data-name="Trazado 149818" d="M190.786,291.609c-1.759,2.261-4.9,2.794-7.681,3.486a38.109,38.109,0,0,0-10.777,4.553,99,99,0,0,1-33.455-99.728c7.983,1.7,14.956,8.5,16.038,16.684,1.051,7.959-2.753,15.665-4.21,23.553a41.042,41.042,0,0,0,3.916,26.243c2.643,5.094,6.694,9.839,12.178,11.55,3.582,1.122,7.434.859,11.192.907s7.737.526,10.714,2.826S193.094,288.639,190.786,291.609Z" transform="translate(-136.118 -124.311)" fill="#4848d8"/>
    </g>
    <g id="Grupo_107378" data-name="Grupo 107378" transform="translate(77.331 51.504)">
      <g id="Grupo_107376" data-name="Grupo 107376">
        <path id="Trazado_149819" data-name="Trazado 149819" d="M227.77,353.612c-.577,0-1.146,0-1.718-.008a.348.348,0,0,1,0-.7h0c.57.006,1.143.01,1.71.008q1.478,0,2.946-.031h.007a.348.348,0,0,1,.007.7Q229.256,353.61,227.77,353.612Zm-9.167-.271h-.021c-1.555-.093-3.124-.212-4.663-.354a.347.347,0,1,1,.064-.692c1.532.14,3.094.259,4.642.352a.347.347,0,0,1-.021.694Zm19.568-.1a.348.348,0,0,1-.024-.694c1.554-.111,3.114-.245,4.632-.4a.358.358,0,0,1,.382.311.349.349,0,0,1-.311.381c-1.526.155-3.092.29-4.654.4Zm-31.628-1.121a.32.32,0,0,1-.05,0c-1.54-.219-3.094-.467-4.617-.733a.348.348,0,1,1,.12-.685c1.516.265,3.063.51,4.6.729a.347.347,0,0,1-.048.692Zm43.667-.222a.348.348,0,0,1-.053-.693c.716-.108,1.429-.223,2.142-.343q1.223-.2,2.442-.43a.348.348,0,1,1,.127.685q-1.225.225-2.456.432-1.071.179-2.15.345A.371.371,0,0,1,250.209,351.9Zm-55.586-1.975a.331.331,0,0,1-.078-.009c-1.508-.343-3.036-.715-4.542-1.108a.348.348,0,0,1,.176-.673c1.5.391,3.019.761,4.52,1.1a.347.347,0,0,1-.076.686Zm67.475-.341a.348.348,0,0,1-.081-.686c1.486-.351,3-.737,4.506-1.145a.348.348,0,0,1,.183.672c-1.511.41-3.034.8-4.527,1.15A.363.363,0,0,1,262.1,349.584Zm-79.173-2.828a.34.34,0,0,1-.1-.017c-1.49-.47-2.982-.966-4.435-1.477a.347.347,0,1,1,.231-.655c1.445.507,2.93,1,4.413,1.47a.348.348,0,0,1-.1.679Zm90.832-.45a.348.348,0,0,1-.108-.679c1.465-.478,2.941-.986,4.384-1.507a.344.344,0,0,1,.445.208.348.348,0,0,1-.209.446c-1.45.524-2.932,1.034-4.4,1.514A.338.338,0,0,1,273.757,346.305Zm-102.23-3.668a.339.339,0,0,1-.132-.027c-1.447-.59-2.892-1.209-4.3-1.836a.348.348,0,0,1,.283-.636c1.4.625,2.837,1.24,4.278,1.829a.348.348,0,0,1-.133.67Zm113.558-.549a.348.348,0,0,1-.135-.668c1.422-.6,2.851-1.223,4.248-1.862a.348.348,0,0,1,.29.632c-1.405.643-2.841,1.272-4.268,1.871A.352.352,0,0,1,285.085,342.088ZM160.508,337.6a.338.338,0,0,1-.157-.038c-1.388-.7-2.779-1.44-4.132-2.181a.348.348,0,0,1,.334-.611c1.348.739,2.732,1.47,4.113,2.172a.348.348,0,0,1-.158.658Zm135.526-.643a.348.348,0,0,1-.16-.657c1.38-.718,2.754-1.459,4.084-2.2a.348.348,0,0,1,.341.607c-1.337.749-2.719,1.495-4.1,2.215A.352.352,0,0,1,296.034,336.955Zm-146.095-5.28a.351.351,0,0,1-.182-.051c-1.326-.816-2.651-1.661-3.94-2.511a.348.348,0,0,1,.383-.582c1.283.847,2.6,1.688,3.922,2.5a.348.348,0,0,1-.183.644Zm156.595-.732a.348.348,0,0,1-.185-.642c1.307-.821,2.617-1.673,3.893-2.533a.348.348,0,1,1,.387.577c-1.282.863-2.6,1.719-3.911,2.544A.347.347,0,0,1,306.534,330.943ZM139.888,324.91a.35.35,0,0,1-.206-.067c-1.252-.919-2.5-1.868-3.722-2.822a.347.347,0,1,1,.428-.547c1.212.948,2.459,1.893,3.706,2.808a.348.348,0,0,1-.206.629Zm176.625-.819a.347.347,0,0,1-.208-.625c1.229-.919,2.466-1.875,3.677-2.841a.347.347,0,0,1,.433.543c-1.216.97-2.459,1.93-3.693,2.854A.351.351,0,0,1,316.513,324.091ZM130.42,317.353a.35.35,0,0,1-.229-.085c-1.17-1.015-2.342-2.064-3.481-3.116a.348.348,0,0,1,.472-.511c1.134,1.047,2.3,2.091,3.465,3.1a.347.347,0,0,1-.228.61Zm195.485-.9a.348.348,0,0,1-.23-.609c1.147-1.012,2.3-2.065,3.435-3.13a.35.35,0,0,1,.492.016.347.347,0,0,1-.016.491c-1.138,1.07-2.3,2.128-3.452,3.145A.345.345,0,0,1,325.9,316.452Zm-204.309-7.4a.342.342,0,0,1-.248-.1c-1.088-1.11-2.17-2.249-3.217-3.387a.348.348,0,0,1,.511-.472c1.043,1.133,2.121,2.267,3.2,3.371a.348.348,0,0,1-.249.591Zm213.054-.975a.348.348,0,0,1-.251-.589c1.075-1.118,2.142-2.262,3.172-3.4a.348.348,0,0,1,.516.467c-1.034,1.143-2.106,2.293-3.186,3.415A.347.347,0,0,1,334.65,308.076Zm-221.175-8.012a.346.346,0,0,1-.267-.126c-.992-1.191-1.978-2.415-2.931-3.636a.348.348,0,0,1,.549-.427c.949,1.215,1.93,2.432,2.917,3.618a.349.349,0,0,1-.268.571Zm229.215-1.051a.343.343,0,0,1-.22-.078.347.347,0,0,1-.049-.489c.979-1.2,1.952-2.427,2.887-3.648a.348.348,0,0,1,.552.424c-.94,1.226-1.915,2.459-2.9,3.664A.347.347,0,0,1,342.691,299.014Zm-236.58-8.565a.347.347,0,0,1-.284-.147c-.9-1.277-1.782-2.576-2.626-3.86a.348.348,0,1,1,.581-.383c.841,1.279,1.72,2.572,2.614,3.843a.347.347,0,0,1-.085.485A.351.351,0,0,1,106.111,290.449Zm243.861-1.122a.34.34,0,0,1-.2-.062.348.348,0,0,1-.089-.484c.872-1.263,1.741-2.566,2.582-3.871a.348.348,0,0,1,.585.376c-.845,1.312-1.717,2.621-2.595,3.89A.348.348,0,0,1,349.971,289.327ZM99.553,280.268a.349.349,0,0,1-.3-.171c-.786-1.338-1.56-2.7-2.3-4.061a.348.348,0,1,1,.611-.333c.737,1.35,1.508,2.71,2.291,4.041a.348.348,0,0,1-.3.524Zm256.888-1.191a.341.341,0,0,1-.174-.046.349.349,0,0,1-.127-.475c.765-1.329,1.525-2.7,2.258-4.07a.348.348,0,0,1,.614.328c-.736,1.378-1.5,2.754-2.269,4.09A.346.346,0,0,1,356.441,279.077ZM93.847,269.587a.348.348,0,0,1-.314-.2c-.67-1.389-1.331-2.814-1.962-4.234a.348.348,0,1,1,.636-.283c.629,1.414,1.286,2.832,1.954,4.214a.349.349,0,0,1-.162.465A.346.346,0,0,1,93.847,269.587Zm268.209-1.259a.349.349,0,0,1-.314-.5c.662-1.408,1.308-2.836,1.919-4.244a.348.348,0,1,1,.638.277c-.612,1.414-1.261,2.848-1.928,4.263A.346.346,0,0,1,362.056,268.329ZM89.034,258.477a.347.347,0,0,1-.324-.222c-.556-1.442-1.1-2.916-1.608-4.38a.348.348,0,0,1,.657-.229c.508,1.457,1.047,2.924,1.6,4.359a.347.347,0,0,1-.2.449A.33.33,0,0,1,89.034,258.477Zm277.737-1.324a.354.354,0,0,1-.122-.022.349.349,0,0,1-.2-.448c.542-1.444,1.068-2.922,1.565-4.389a.348.348,0,1,1,.659.223c-.5,1.473-1.028,2.958-1.572,4.41A.349.349,0,0,1,366.771,257.153ZM85.151,247.013a.347.347,0,0,1-.334-.249c-.439-1.493-.856-3.006-1.242-4.5a.347.347,0,1,1,.672-.174c.385,1.482.8,2.987,1.237,4.473a.348.348,0,0,1-.235.432A.344.344,0,0,1,85.151,247.013Zm285.4-1.391a.363.363,0,0,1-.1-.013.348.348,0,0,1-.239-.43c.421-1.488.824-3,1.2-4.506a.353.353,0,0,1,.422-.254.349.349,0,0,1,.254.422c-.376,1.508-.781,3.032-1.205,4.527A.345.345,0,0,1,370.553,245.622ZM82.221,235.27a.347.347,0,0,1-.34-.276c-.313-1.518-.606-3.058-.87-4.58a.348.348,0,0,1,.686-.119c.263,1.514.554,3.048.866,4.558a.348.348,0,0,1-.27.411A.388.388,0,0,1,82.221,235.27Zm291.15-1.442a.356.356,0,0,1-.067-.006.347.347,0,0,1-.274-.408c.295-1.5.571-3.041.822-4.576a.348.348,0,1,1,.686.113c-.252,1.542-.53,3.089-.826,4.6A.349.349,0,0,1,373.371,233.828Zm-293.108-10.5a.347.347,0,0,1-.345-.305c-.188-1.534-.355-3.1-.495-4.644a.346.346,0,0,1,.315-.378.339.339,0,0,1,.378.314c.14,1.541.305,3.1.492,4.623a.348.348,0,0,1-.3.387Zm294.948-1.472-.038,0a.349.349,0,0,1-.307-.386q.065-.574.125-1.15.182-1.733.323-3.478a.341.341,0,0,1,.375-.318.347.347,0,0,1,.318.375q-.141,1.752-.324,3.494c-.039.386-.081.771-.125,1.156A.349.349,0,0,1,375.211,221.859Zm-295.93-10.6a.348.348,0,0,1-.346-.334c-.063-1.547-.1-3.115-.119-4.664a.348.348,0,0,1,.345-.351h0a.347.347,0,0,1,.348.344c.015,1.542.055,3.1.117,4.643a.349.349,0,0,1-.333.363Zm296.8-1.484h-.01a.349.349,0,0,1-.338-.358c.049-1.547.073-3.111.073-4.65v-.176a.348.348,0,1,1,.7,0v.176c0,1.546-.024,3.117-.072,4.671A.348.348,0,0,1,376.077,209.775Zm-296.8-10.626h-.014a.348.348,0,0,1-.334-.361c.061-1.554.148-3.123.257-4.664a.348.348,0,1,1,.694.049c-.109,1.534-.2,3.1-.256,4.643A.347.347,0,0,1,79.275,199.149Zm296.681-1.664a.35.35,0,0,1-.348-.331c-.077-1.537-.181-3.1-.308-4.639a.349.349,0,0,1,.319-.375.345.345,0,0,1,.375.318c.126,1.549.231,3.117.31,4.661a.349.349,0,0,1-.331.365ZM80.245,187.073l-.042,0a.348.348,0,0,1-.3-.387c.187-1.539.4-3.1.636-4.628a.348.348,0,1,1,.687.106c-.234,1.524-.447,3.074-.632,4.606A.349.349,0,0,1,80.245,187.073Zm294.606-1.651a.349.349,0,0,1-.345-.3c-.187-1.4-.4-2.821-.623-4.21l-.059-.361a.36.36,0,0,1,.287-.413.334.334,0,0,1,.4.274l.005.029.058.358c.228,1.4.439,2.821.627,4.231a.348.348,0,0,1-.3.391A.281.281,0,0,1,374.85,185.422ZM82.194,175.117a.336.336,0,0,1-.071-.008.348.348,0,0,1-.27-.411c.313-1.523.653-3.057,1.013-4.56a.347.347,0,1,1,.676.161c-.357,1.5-.7,3.023-1.007,4.539A.347.347,0,0,1,82.194,175.117Zm290.58-1.628a.349.349,0,0,1-.34-.274c-.33-1.52-.685-3.043-1.056-4.528a.348.348,0,1,1,.676-.168c.372,1.491.729,3.022,1.06,4.548a.348.348,0,0,1-.339.422ZM85.113,163.357a.343.343,0,0,1-.1-.014.347.347,0,0,1-.236-.432c.436-1.491.9-2.993,1.381-4.462a.348.348,0,1,1,.661.216c-.478,1.462-.94,2.956-1.375,4.441A.346.346,0,0,1,85.113,163.357Zm284.613-1.593a.347.347,0,0,1-.332-.247c-.451-1.479-.931-2.969-1.427-4.425a.348.348,0,0,1,.659-.223c.5,1.464.979,2.959,1.432,4.446a.348.348,0,0,1-.231.434A.369.369,0,0,1,369.726,161.764Zm-280.74-9.887a.33.33,0,0,1-.125-.024.348.348,0,0,1-.2-.449c.553-1.441,1.14-2.9,1.743-4.334a.348.348,0,1,1,.641.27c-.6,1.428-1.184,2.879-1.736,4.313A.346.346,0,0,1,88.986,151.878Zm276.735-1.545a.347.347,0,0,1-.323-.22c-.567-1.428-1.168-2.872-1.785-4.293a.348.348,0,0,1,.638-.277c.62,1.428,1.225,2.878,1.794,4.314a.348.348,0,0,1-.194.452A.356.356,0,0,1,365.721,150.333Zm-271.93-9.576a.34.34,0,0,1-.15-.035.348.348,0,0,1-.163-.464c.67-1.39,1.375-2.8,2.094-4.176a.348.348,0,1,1,.617.322c-.716,1.374-1.417,2.773-2.084,4.156A.349.349,0,0,1,93.791,140.756Zm267-1.488a.348.348,0,0,1-.312-.194c-.69-1.391-1.407-2.781-2.129-4.131a.348.348,0,0,1,.614-.328c.726,1.356,1.445,2.753,2.139,4.151a.348.348,0,0,1-.311.5Zm-261.3-9.2a.348.348,0,0,1-.3-.524c.785-1.337,1.6-2.679,2.428-3.99a.348.348,0,1,1,.589.372c-.822,1.3-1.635,2.64-2.417,3.971A.35.35,0,0,1,99.493,130.067Zm255.481-1.422a.347.347,0,0,1-.3-.169c-.8-1.329-1.628-2.657-2.46-3.945a.348.348,0,1,1,.584-.377c.835,1.293,1.666,2.627,2.472,3.963a.349.349,0,0,1-.3.528Zm-248.925-8.766a.347.347,0,0,1-.284-.548c.89-1.266,1.812-2.536,2.746-3.779a.348.348,0,1,1,.556.418c-.928,1.237-1.846,2.5-2.733,3.762A.347.347,0,0,1,106.049,119.879Zm242.26-1.347a.349.349,0,0,1-.283-.145c-.9-1.247-1.829-2.5-2.773-3.731a.349.349,0,0,1,.553-.425c.947,1.236,1.885,2.5,2.785,3.75a.348.348,0,0,1-.283.55Zm-234.9-8.273a.346.346,0,0,1-.267-.57c.991-1.191,2.015-2.384,3.042-3.545a.348.348,0,0,1,.522.461c-1.024,1.155-2.043,2.342-3.029,3.527A.345.345,0,0,1,113.412,110.259Zm227.433-1.267a.345.345,0,0,1-.265-.122c-1-1.181-2.037-2.357-3.067-3.495a.348.348,0,0,1,.516-.467c1.034,1.143,2.071,2.324,3.081,3.51a.348.348,0,0,1-.264.573Zm-219.317-7.726a.348.348,0,0,1-.249-.591c1.09-1.115,2.207-2.221,3.318-3.288a.348.348,0,1,1,.481.5c-1.106,1.061-2.216,2.162-3.3,3.272A.347.347,0,0,1,121.528,101.266Zm211.1-1.177a.343.343,0,0,1-.245-.1c-1.1-1.1-2.221-2.184-3.341-3.235a.348.348,0,0,1,.477-.508c1.123,1.056,2.254,2.15,3.354,3.251a.348.348,0,0,1-.245.594ZM130.342,92.957a.348.348,0,0,1-.229-.611c1.173-1.019,2.375-2.031,3.573-3.007a.348.348,0,0,1,.44.539c-1.192.972-2.389,1.979-3.556,2.993A.347.347,0,0,1,130.342,92.957Zm193.381-1.076a.349.349,0,0,1-.225-.083c-1.177-1-2.385-1.992-3.592-2.954a.348.348,0,0,1,.433-.544c1.212.966,2.427,1.965,3.608,2.967a.348.348,0,0,1-.224.614ZM139.8,85.391a.348.348,0,0,1-.207-.628c1.249-.918,2.528-1.829,3.805-2.707a.348.348,0,1,1,.393.573c-1.27.875-2.543,1.781-3.786,2.694A.348.348,0,0,1,139.8,85.391Zm174.375-.97a.341.341,0,0,1-.2-.065c-1.252-.9-2.538-1.791-3.82-2.652a.348.348,0,1,1,.388-.578c1.288.865,2.579,1.762,3.838,2.665a.348.348,0,0,1-.2.631Zm-164.334-5.8a.348.348,0,0,1-.182-.645c1.322-.815,2.671-1.619,4.011-2.387a.348.348,0,1,1,.346.6c-1.333.766-2.676,1.565-3.993,2.377A.347.347,0,0,1,149.843,78.619Zm154.214-.857a.344.344,0,0,1-.18-.051c-1.326-.8-2.68-1.581-4.023-2.332a.347.347,0,1,1,.338-.607c1.351.754,2.712,1.543,4.043,2.344a.348.348,0,0,1-.179.646ZM160.4,72.689a.348.348,0,0,1-.158-.658c1.384-.7,2.794-1.4,4.193-2.052a.348.348,0,0,1,.3.63c-1.391.653-2.8,1.341-4.173,2.042A.339.339,0,0,1,160.4,72.689Zm133.024-.741a.344.344,0,0,1-.154-.036c-1.39-.688-2.8-1.36-4.2-2a.347.347,0,0,1-.172-.461.351.351,0,0,1,.46-.172c1.4.641,2.823,1.316,4.22,2.007a.348.348,0,0,1-.154.659ZM171.411,67.642a.348.348,0,0,1-.133-.67c1.433-.587,2.9-1.159,4.345-1.7a.348.348,0,0,1,.244.652c-1.443.538-2.9,1.108-4.325,1.692A.338.338,0,0,1,171.411,67.642Zm110.947-.621A.348.348,0,0,1,282.23,67c-1.436-.57-2.9-1.122-4.35-1.646a.348.348,0,0,1,.236-.655c1.457.526,2.927,1.081,4.37,1.654a.348.348,0,0,1-.128.672Zm-99.564-3.505a.348.348,0,0,1-.1-.679c1.471-.467,2.975-.916,4.469-1.338a.348.348,0,0,1,.189.67c-1.487.42-2.984.867-4.448,1.331A.342.342,0,0,1,182.794,63.516Zm88.128-.5a.374.374,0,0,1-.1-.015c-1.484-.451-2.987-.883-4.469-1.283a.347.347,0,1,1,.181-.671c1.489.4,3,.835,4.492,1.288a.348.348,0,0,1-.1.68ZM194.476,60.34a.348.348,0,0,1-.078-.687c1.515-.346,3.05-.671,4.563-.966a.348.348,0,1,1,.133.683c-1.505.294-3.033.618-4.541.962A.4.4,0,0,1,194.476,60.34Zm64.719-.365a.355.355,0,0,1-.073-.008c-1.515-.328-3.048-.634-4.56-.912a.348.348,0,1,1,.125-.684c1.519.279,3.06.587,4.582.916a.348.348,0,0,1-.073.688Zm-52.818-1.844a.348.348,0,0,1-.049-.692c1.525-.22,3.081-.418,4.624-.59a.348.348,0,0,1,.077.692c-1.535.172-3.084.369-4.6.587A.475.475,0,0,1,206.376,58.131Zm40.881-.231a.271.271,0,0,1-.045,0c-1.525-.2-3.079-.38-4.619-.535a.348.348,0,0,1-.311-.381.337.337,0,0,1,.38-.311c1.548.155,3.109.337,4.641.538a.348.348,0,0,1-.045.693Zm-28.841-1a.348.348,0,0,1-.021-.7c1.546-.1,3.116-.167,4.666-.214a.342.342,0,0,1,.358.338.348.348,0,0,1-.338.358c-1.542.046-3.1.118-4.643.212Zm16.774-.094h-.017c-1.537-.077-3.1-.131-4.648-.16a.349.349,0,0,1-.342-.355.375.375,0,0,1,.354-.341c1.556.03,3.126.084,4.67.161a.348.348,0,0,1-.017.7Z" transform="translate(-78.816 -55.95)" fill="#18187c"/>
        <g id="Grupo_107373" data-name="Grupo 107373" transform="translate(15.749 70.99)">
          <path id="Trazado_149820" data-name="Trazado 149820" d="M97.22,150.222a.347.347,0,0,1-.308-.508,14.625,14.625,0,0,1,1.263-2,.348.348,0,0,1,.556.418,13.977,13.977,0,0,0-1.2,1.908A.346.346,0,0,1,97.22,150.222Z" transform="translate(-96.873 -138.652)" fill="#18187c"/>
          <path id="Trazado_149821" data-name="Trazado 149821" d="M363.131,276.655a.349.349,0,0,1-.346-.309,26.608,26.608,0,0,0-.923-4.48.349.349,0,0,1,.236-.432.353.353,0,0,1,.432.236,27.4,27.4,0,0,1,.947,4.6.349.349,0,0,1-.307.385Zm-3.7-11.428a.348.348,0,0,1-.31-.192c-.653-1.306-1.4-2.667-2.231-4.047a.348.348,0,0,1,.6-.358c.836,1.4,1.6,2.773,2.256,4.093a.348.348,0,0,1-.155.467A.343.343,0,0,1,359.431,265.227Zm-6.369-10.258a.349.349,0,0,1-.281-.142c-.884-1.21-1.832-2.448-2.817-3.68a.348.348,0,0,1,.544-.435c.991,1.241,1.945,2.487,2.835,3.7a.348.348,0,0,1-.281.553Zm-7.639-9.365a.347.347,0,0,1-.259-.115c-1.015-1.133-2.074-2.279-3.148-3.408a.348.348,0,0,1,.5-.481c1.079,1.135,2.142,2.287,3.162,3.425a.347.347,0,0,1-.259.579Zm-8.39-8.7a.345.345,0,0,1-.242-.1q-1.638-1.591-3.366-3.2a.348.348,0,0,1,.474-.509q1.735,1.612,3.377,3.209a.347.347,0,0,1-.242.6Zm-8.9-8.184a.346.346,0,0,1-.229-.086q-1.727-1.506-3.525-3.025a.347.347,0,0,1,.449-.53q1.8,1.52,3.533,3.032a.348.348,0,0,1-.228.61Zm-9.281-7.75a.347.347,0,0,1-.217-.076q-1.794-1.435-3.648-2.876a.348.348,0,1,1,.427-.549q1.856,1.443,3.655,2.881a.348.348,0,0,1-.217.62Zm-9.581-7.377a.348.348,0,0,1-.208-.068q-1.849-1.371-3.749-2.743a.348.348,0,0,1,.407-.564q1.9,1.375,3.757,2.748a.348.348,0,0,1-.208.627Zm-9.829-7.039a.355.355,0,0,1-.2-.061q-1.894-1.313-3.836-2.623a.348.348,0,0,1,.39-.577q1.943,1.312,3.843,2.628a.348.348,0,0,1-.2.633Zm-10.046-6.733a.353.353,0,0,1-.189-.056q-1.937-1.257-3.911-2.51a.348.348,0,1,1,.373-.587q1.977,1.253,3.916,2.514a.348.348,0,0,1-.189.639Zm-10.23-6.444a.35.35,0,0,1-.181-.051q-1.973-1.2-3.978-2.4a.348.348,0,1,1,.357-.6q2.008,1.2,3.984,2.406a.348.348,0,0,1-.181.645Zm-10.4-6.168a.35.35,0,0,1-.174-.046q-2-1.154-4.038-2.3a.347.347,0,1,1,.34-.605q2.037,1.146,4.046,2.3a.348.348,0,0,1-.174.649Zm-10.552-5.9a.345.345,0,0,1-.166-.043q-2.034-1.1-4.094-2.2a.348.348,0,1,1,.326-.614q2.062,1.094,4.1,2.2a.348.348,0,0,1-.166.654Zm-10.693-5.637a.346.346,0,0,1-.159-.038q-2.077-1.062-4.147-2.1a.348.348,0,1,1,.311-.622q2.074,1.035,4.153,2.1a.348.348,0,0,1-.159.658Zm-10.83-5.372a.344.344,0,0,1-.151-.035q-2.1-1.011-4.2-1.992a.348.348,0,1,1,.295-.63q2.1.982,4.2,1.995a.348.348,0,0,1-.15.662Zm-10.961-5.1a.347.347,0,0,1-.143-.031q-2.13-.958-4.246-1.884a.348.348,0,1,1,.279-.638q2.119.928,4.252,1.887a.348.348,0,0,1-.142.665Zm-11.089-4.812a.345.345,0,0,1-.134-.027q-2.157-.9-4.3-1.768a.348.348,0,1,1,.261-.645q2.143.867,4.3,1.771a.348.348,0,0,1-.134.669Zm-11.218-4.5a.347.347,0,0,1-.125-.024q-2.185-.839-4.346-1.641a.348.348,0,0,1,.242-.652q2.165.8,4.354,1.644a.348.348,0,0,1-.125.672Zm-11.348-4.161a.354.354,0,0,1-.115-.019q-2.212-.772-4.4-1.5a.348.348,0,1,1,.221-.659q2.187.731,4.4,1.505a.348.348,0,0,1-.114.676Zm-11.48-3.786a.349.349,0,0,1-.1-.015q-2.242-.695-4.447-1.343a.348.348,0,0,1,.2-.668q2.208.65,4.456,1.346a.348.348,0,0,1-.1.68Zm-11.616-3.352a.319.319,0,0,1-.09-.012q-2.272-.606-4.5-1.156a.348.348,0,0,1,.168-.676q2.229.552,4.508,1.16a.348.348,0,0,1-.089.684Zm-63.853-2.371a.348.348,0,0,1-.167-.653,27.376,27.376,0,0,1,4.318-1.865.348.348,0,1,1,.222.659,26.678,26.678,0,0,0-4.207,1.816A.348.348,0,0,1,105.124,142.217Zm52.1-.465a.351.351,0,0,1-.074-.008q-2.306-.5-4.548-.926a.348.348,0,0,1-.276-.407.343.343,0,0,1,.406-.276q2.25.432,4.564.929a.348.348,0,0,1-.072.688Zm-11.889-2.189a.352.352,0,0,1-.052,0c-1.552-.234-3.1-.445-4.6-.626a.347.347,0,0,1,.083-.69c1.505.181,3.059.393,4.617.629a.348.348,0,0,1-.051.692Zm-28.716-.869a.348.348,0,0,1-.05-.693c1.472-.216,3.036-.383,4.649-.495a.348.348,0,1,1,.048.694c-1.594.111-3.141.275-4.6.489C116.657,138.693,116.639,138.694,116.623,138.694Zm16.7-.454H133.3c-1.586-.1-3.143-.168-4.63-.2a.347.347,0,0,1-.34-.355.331.331,0,0,1,.355-.34c1.5.031,3.065.1,4.66.2a.348.348,0,0,1-.022.7Z" transform="translate(-97.883 -137.345)" fill="#18187c"/>
          <path id="Trazado_149822" data-name="Trazado 149822" d="M399.193,307.574a.347.347,0,0,1-.309-.508,13.855,13.855,0,0,0,.875-2.082.348.348,0,0,1,.661.215,14.468,14.468,0,0,1-.918,2.187A.347.347,0,0,1,399.193,307.574Z" transform="translate(-135.473 -158.744)" fill="#18187c"/>
        </g>
        <g id="Grupo_107374" data-name="Grupo 107374" transform="translate(9.297 91.134)">
          <path id="Trazado_149823" data-name="Trazado 149823" d="M407.216,163.35a.348.348,0,0,1-.339-.274,14.01,14.01,0,0,0-.655-2.16.348.348,0,0,1,.647-.256,14.68,14.68,0,0,1,.687,2.268.347.347,0,0,1-.266.413A.364.364,0,0,1,407.216,163.35Z" transform="translate(-129.962 -160.441)" fill="#18187c"/>
          <path id="Trazado_149824" data-name="Trazado 149824" d="M132,285.978a.348.348,0,0,1-.005-.7c1.5-.024,3.057-.073,4.637-.146a.354.354,0,0,1,.363.331.348.348,0,0,1-.331.364c-1.587.072-3.154.121-4.658.147Zm-7.438-.078h-.014c-1.592-.063-3.158-.16-4.656-.283a.348.348,0,0,1,.058-.693c1.488.124,3.044.219,4.626.282a.348.348,0,0,1-.014.7Zm19.508-.561a.348.348,0,0,1-.03-.694q2.276-.195,4.622-.448a.348.348,0,0,1,.075.692q-2.354.254-4.636.45Zm-31.526-.656a.349.349,0,0,1-.06-.005c-1.59-.278-3.128-.606-4.572-.974a.348.348,0,0,1,.172-.674c1.427.365,2.947.688,4.52.964a.348.348,0,0,1-.059.69Zm43.538-.708a.347.347,0,0,1-.048-.692q2.27-.318,4.594-.682a.342.342,0,0,1,.4.289.347.347,0,0,1-.29.4q-2.33.366-4.605.684A.313.313,0,0,1,156.084,283.974Zm11.933-1.934a.348.348,0,0,1-.062-.69q2.259-.415,4.561-.875a.348.348,0,0,1,.136.683q-2.306.459-4.572.877A.393.393,0,0,1,168.017,282.041Zm-67.04-.749a.344.344,0,0,1-.145-.031,27.413,27.413,0,0,1-4.1-2.3.348.348,0,1,1,.393-.573,26.7,26.7,0,0,0,4,2.241.348.348,0,0,1-.145.664Zm78.888-1.66a.348.348,0,0,1-.075-.687q2.248-.5,4.529-1.037a.348.348,0,0,1,.16.678q-2.285.538-4.538,1.039A.375.375,0,0,1,179.864,279.632Zm11.758-2.815a.348.348,0,0,1-.085-.686q2.232-.572,4.493-1.18a.348.348,0,0,1,.181.672q-2.265.608-4.5,1.182A.374.374,0,0,1,191.622,276.816Zm11.665-3.178a.348.348,0,0,1-.1-.682q2.217-.638,4.457-1.31a.348.348,0,1,1,.2.666q-2.242.672-4.465,1.313A.369.369,0,0,1,203.287,273.638Zm11.568-3.51a.348.348,0,0,1-.106-.679q2.2-.7,4.42-1.432a.348.348,0,0,1,.218.661q-2.221.731-4.427,1.434A.342.342,0,0,1,214.856,270.128Zm11.471-3.817a.347.347,0,0,1-.113-.676q2.185-.759,4.382-1.546a.347.347,0,1,1,.235.654q-2.2.789-4.389,1.549A.368.368,0,0,1,226.327,266.312ZM237.7,262.2a.348.348,0,0,1-.122-.674q2.169-.812,4.343-1.654a.348.348,0,0,1,.25.649q-2.178.843-4.349,1.657A.381.381,0,0,1,237.7,262.2Zm11.266-4.389a.348.348,0,0,1-.131-.671q2.164-.873,4.3-1.76a.348.348,0,1,1,.267.644q-2.14.887-4.307,1.762A.355.355,0,0,1,248.961,257.816Zm11.153-4.663a.348.348,0,0,1-.139-.666q2.14-.928,4.254-1.867a.347.347,0,1,1,.283.635q-2.115.941-4.261,1.87A.334.334,0,0,1,260.115,253.153Zm11.031-4.943a.348.348,0,0,1-.146-.664q2.119-.98,4.2-1.973a.348.348,0,1,1,.3.628q-2.089.994-4.213,1.977A.345.345,0,0,1,271.146,248.21Zm10.9-5.225a.348.348,0,0,1-.155-.659q2.1-1.039,4.151-2.087a.348.348,0,0,1,.316.619q-2.059,1.051-4.156,2.091A.351.351,0,0,1,282.044,242.985Zm10.749-5.53a.348.348,0,0,1-.163-.655q2.064-1.1,4.086-2.208a.348.348,0,0,1,.335.611q-2.027,1.111-4.095,2.212A.335.335,0,0,1,292.793,237.455Zm10.578-5.848a.348.348,0,0,1-.174-.649q2.032-1.168,4.015-2.339a.348.348,0,1,1,.353.6q-1.985,1.172-4.022,2.342A.336.336,0,0,1,303.371,231.607Zm10.381-6.194a.348.348,0,0,1-.184-.644q1.993-1.239,3.927-2.48a.348.348,0,1,1,.375.585q-1.938,1.243-3.934,2.485A.348.348,0,0,1,313.752,225.413Zm10.14-6.58a.348.348,0,0,1-.2-.636q1.945-1.321,3.821-2.641a.348.348,0,0,1,.4.569q-1.88,1.323-3.83,2.648A.346.346,0,0,1,323.892,218.833Zm9.842-7.022a.348.348,0,0,1-.209-.626q1.885-1.417,3.681-2.829a.348.348,0,1,1,.429.547q-1.8,1.417-3.691,2.839A.345.345,0,0,1,333.734,211.812Zm9.44-7.548a.348.348,0,0,1-.226-.612c1.2-1.025,2.372-2.056,3.485-3.063a.348.348,0,1,1,.467.515c-1.118,1.013-2.3,2.048-3.5,3.076A.344.344,0,0,1,343.174,204.264Zm8.87-8.211a.352.352,0,0,1-.245-.1.348.348,0,0,1,0-.492c1.116-1.132,2.187-2.265,3.184-3.367a.348.348,0,1,1,.516.467c-1,1.109-2.082,2.249-3.2,3.389A.35.35,0,0,1,352.044,196.053Zm7.943-9.1a.348.348,0,0,1-.278-.557c.962-1.278,1.851-2.555,2.64-3.792a.348.348,0,1,1,.587.374c-.8,1.253-1.7,2.544-2.671,3.837A.35.35,0,0,1,359.987,186.95Zm6.124-10.384a.348.348,0,0,1-.321-.48,26.643,26.643,0,0,0,1.384-4.37.348.348,0,0,1,.679.149,27.333,27.333,0,0,1-1.421,4.484A.347.347,0,0,1,366.11,176.566Z" transform="translate(-90.384 -161.848)" fill="#18187c"/>
          <path id="Trazado_149825" data-name="Trazado 149825" d="M90.849,288.284a.344.344,0,0,1-.3-.169,14.542,14.542,0,0,1-1.05-2.126.348.348,0,0,1,.647-.256,13.855,13.855,0,0,0,1,2.025.347.347,0,0,1-.119.476A.351.351,0,0,1,90.849,288.284Z" transform="translate(-89.476 -176.429)" fill="#18187c"/>
        </g>
        <g id="Grupo_107375" data-name="Grupo 107375" transform="translate(94.954 5.676)">
          <path id="Trazado_149826" data-name="Trazado 149826" d="M211.266,393.516a.366.366,0,0,1-.086-.011,14.668,14.668,0,0,1-2.242-.77.348.348,0,1,1,.278-.638,14.035,14.035,0,0,0,2.136.733.348.348,0,0,1-.085.686Z" transform="translate(-190.377 -104.592)" fill="#18187c"/>
          <path id="Trazado_149827" data-name="Trazado 149827" d="M200.475,346.367a.345.345,0,0,1-.259-.116,27.288,27.288,0,0,1-2.806-3.773.348.348,0,1,1,.59-.368,26.748,26.748,0,0,0,2.733,3.678.347.347,0,0,1-.259.579Zm-6.069-10.382a.349.349,0,0,1-.324-.219c-.548-1.382-1.069-2.865-1.549-4.411a.347.347,0,0,1,.229-.435.35.35,0,0,1,.435.229c.475,1.53.991,3,1.532,4.361a.348.348,0,0,1-.324.476ZM191,324.4a.346.346,0,0,1-.339-.275c-.315-1.469-.609-3.011-.874-4.582a.348.348,0,0,1,.284-.4.354.354,0,0,1,.4.285c.263,1.561.556,3.093.868,4.553a.348.348,0,0,1-.34.419Zm-1.894-11.936a.347.347,0,0,1-.345-.309l-.065-.583q-.213-1.987-.382-4.056a.347.347,0,0,1,.317-.375.342.342,0,0,1,.375.318q.169,2.059.382,4.039l.064.579a.349.349,0,0,1-.307.385Zm-.9-12.053a.348.348,0,0,1-.347-.333q-.1-2.288-.142-4.653a.348.348,0,0,1,.341-.355.358.358,0,0,1,.354.34q.047,2.359.141,4.639a.347.347,0,0,1-.332.362Zm-.172-12.084h0a.347.347,0,0,1-.344-.351q.026-2.3.093-4.655a.325.325,0,0,1,.358-.338.35.35,0,0,1,.338.358q-.068,2.35-.093,4.642A.349.349,0,0,1,188.035,288.329Zm.4-12.082h-.019a.347.347,0,0,1-.328-.366q.124-2.3.287-4.645a.347.347,0,0,1,.693.047q-.161,2.343-.286,4.636A.347.347,0,0,1,188.439,276.247Zm.884-12.057-.032,0a.348.348,0,0,1-.315-.378q.211-2.3.454-4.632a.357.357,0,0,1,.382-.31.348.348,0,0,1,.31.382q-.243,2.33-.453,4.623A.348.348,0,0,1,189.322,264.19Zm1.3-12.019-.044,0a.348.348,0,0,1-.3-.388q.285-2.292.6-4.615a.341.341,0,0,1,.392-.3.349.349,0,0,1,.3.392q-.317,2.317-.6,4.606A.348.348,0,0,1,190.621,252.171Zm1.672-11.973a.275.275,0,0,1-.053,0,.348.348,0,0,1-.291-.4q.353-2.284.735-4.594a.348.348,0,1,1,.686.113q-.381,2.305-.733,4.588A.349.349,0,0,1,192.293,240.2Zm2.011-11.919a.4.4,0,0,1-.064-.005.349.349,0,0,1-.279-.406q.416-2.275.86-4.574a.351.351,0,0,1,.407-.276.347.347,0,0,1,.276.407q-.443,2.295-.859,4.568A.347.347,0,0,1,194.3,228.278Zm2.33-11.864a.407.407,0,0,1-.072-.007.349.349,0,0,1-.269-.413q.476-2.266.978-4.55a.348.348,0,1,1,.679.151q-.5,2.278-.976,4.542A.349.349,0,0,1,196.634,216.414Zm2.631-11.8a.354.354,0,0,1-.08-.01.347.347,0,0,1-.259-.418q.532-2.257,1.09-4.524a.348.348,0,0,1,.676.167q-.557,2.265-1.089,4.517A.347.347,0,0,1,199.265,204.615Zm2.922-11.732a.344.344,0,0,1-.088-.011.349.349,0,0,1-.249-.425q.593-2.259,1.2-4.5a.348.348,0,0,1,.672.183q-.607,2.232-1.2,4.489A.349.349,0,0,1,202.187,192.883Zm3.21-11.657a.336.336,0,0,1-.1-.014.347.347,0,0,1-.238-.43q.649-2.246,1.313-4.465a.348.348,0,0,1,.667.2q-.665,2.215-1.312,4.458A.347.347,0,0,1,205.4,181.227Zm3.5-11.571a.342.342,0,0,1-.106-.017.348.348,0,0,1-.226-.437q.706-2.231,1.428-4.429a.348.348,0,1,1,.661.217q-.721,2.2-1.426,4.422A.349.349,0,0,1,208.9,169.655Zm3.8-11.476a.344.344,0,0,1-.113-.019.349.349,0,0,1-.215-.443q.767-2.212,1.547-4.389a.348.348,0,1,1,.655.235q-.78,2.173-1.545,4.382A.349.349,0,0,1,212.7,158.179Zm4.119-11.365a.361.361,0,0,1-.124-.023.348.348,0,0,1-.2-.448q.831-2.193,1.674-4.343a.348.348,0,0,1,.648.254q-.841,2.147-1.672,4.335A.346.346,0,0,1,216.821,146.814Zm4.458-11.237a.349.349,0,0,1-.321-.481q.9-2.168,1.812-4.287a.348.348,0,1,1,.638.276q-.909,2.114-1.809,4.278A.346.346,0,0,1,221.279,135.577Zm4.827-11.084a.341.341,0,0,1-.144-.031.348.348,0,0,1-.172-.461q.977-2.14,1.965-4.22a.348.348,0,0,1,.629.3q-.986,2.075-1.961,4.21A.349.349,0,0,1,226.105,124.494Zm5.239-10.894a.348.348,0,0,1-.31-.5q1.066-2.1,2.14-4.133a.348.348,0,1,1,.615.324q-1.071,2.025-2.135,4.124A.348.348,0,0,1,231.344,113.6Zm5.717-10.651a.341.341,0,0,1-.172-.046.347.347,0,0,1-.13-.474l.667-1.164q.839-1.452,1.68-2.857a.348.348,0,1,1,.6.357q-.839,1.4-1.674,2.849l-.666,1.161A.347.347,0,0,1,237.061,102.948Zm6.286-10.325a.347.347,0,0,1-.29-.538c.868-1.328,1.745-2.629,2.606-3.864a.348.348,0,1,1,.57.4c-.856,1.23-1.73,2.524-2.595,3.846A.347.347,0,0,1,243.347,92.624Zm7.014-9.842a.347.347,0,0,1-.274-.563c.982-1.253,1.975-2.467,2.953-3.609a.348.348,0,1,1,.529.452c-.972,1.135-1.959,2.341-2.935,3.586A.343.343,0,0,1,250.361,82.781Zm8.017-9.037a.344.344,0,0,1-.249-.1.348.348,0,0,1,.007-.492c1.163-1.134,2.33-2.19,3.465-3.139a.348.348,0,1,1,.446.535c-1.122.937-2.275,1.981-3.426,3.1A.344.344,0,0,1,258.378,73.744Zm9.516-7.4a.348.348,0,0,1-.172-.651,27.5,27.5,0,0,1,4.263-1.982.348.348,0,1,1,.234.655,26.764,26.764,0,0,0-4.153,1.933A.347.347,0,0,1,267.894,66.345Z" transform="translate(-187.687 -62.616)" fill="#18187c"/>
          <path id="Trazado_149828" data-name="Trazado 149828" d="M295.127,63.539a.376.376,0,0,1-.086-.01,13.761,13.761,0,0,0-2.226-.375.348.348,0,1,1,.059-.693,14.59,14.59,0,0,1,2.339.394.348.348,0,0,1-.086.685Z" transform="translate(-201.085 -62.458)" fill="#18187c"/>
        </g>
      </g>
      <g id="Grupo_107377" data-name="Grupo 107377" transform="translate(7.958 3.913)">
        <path id="Trazado_149829" data-name="Trazado 149829" d="M193.368,294.993a4.72,4.72,0,1,1-4.72-4.719A4.72,4.72,0,0,1,193.368,294.993Z" transform="translate(-100.21 -89.817)" fill="#ff9852"/>
        <circle id="Elipse_5065" data-name="Elipse 5065" cx="4.72" cy="4.72" r="4.72" transform="translate(222.622 144.576)" fill="#ffb265"/>
        <circle id="Elipse_5066" data-name="Elipse 5066" cx="4.72" cy="4.72" r="4.72" transform="translate(274.214 91.105)" fill="#ff9852"/>
        <path id="Trazado_149830" data-name="Trazado 149830" d="M106.712,142.44a4.72,4.72,0,1,1-4.719-4.72A4.72,4.72,0,0,1,106.712,142.44Z" transform="translate(-89.133 -70.316)" fill="#ff9852"/>
        <path id="Trazado_149831" data-name="Trazado 149831" d="M222.638,159.913a2.5,2.5,0,1,1-2.5-2.5A2.5,2.5,0,0,1,222.638,159.913Z" transform="translate(-104.52 -72.834)" fill="#ffb265"/>
        <circle id="Elipse_5067" data-name="Elipse 5067" cx="2.496" cy="2.496" r="2.496" transform="translate(271.618 205.774)" fill="#ff9852"/>
        <path id="Trazado_149832" data-name="Trazado 149832" d="M213.767,392.962a2.5,2.5,0,1,1-2.5-2.5A2.5,2.5,0,0,1,213.767,392.962Z" transform="translate(-103.386 -102.624)" fill="#ffb265"/>
        <path id="Trazado_149833" data-name="Trazado 149833" d="M92.931,288.572a2.5,2.5,0,1,1-2.5-2.5A2.5,2.5,0,0,1,92.931,288.572Z" transform="translate(-87.94 -89.28)" fill="#ffb265"/>
        <path id="Trazado_149834" data-name="Trazado 149834" d="M297.643,62.932a2.5,2.5,0,1,1-2.5-2.5A2.5,2.5,0,0,1,297.643,62.932Z" transform="translate(-114.108 -60.437)" fill="#ff9852"/>
      </g>
    </g>
    <g id="Grupo_107405" data-name="Grupo 107405" transform="translate(67.198 21.165)">
      <g id="Grupo_107380" data-name="Grupo 107380" transform="translate(40.952 192.732)">
        <circle id="Elipse_5068" data-name="Elipse 5068" cx="24.416" cy="24.416" r="24.416" fill="#18187c"/>
        <g id="Grupo_107379" data-name="Grupo 107379" transform="translate(13.64 18.2)">
          <path id="Trazado_149835" data-name="Trazado 149835" d="M145.718,284.733a12.065,12.065,0,0,1-5.894,1.325c-5.43,0-10.033-3.974-10.033-10.331,0-6.82,4.735-12.715,12.086-12.715a9.2,9.2,0,0,1,9.635,9.569c0,4.966-2.781,7.88-5.893,7.88-1.324,0-2.549-.894-2.45-2.914h-.133a5.2,5.2,0,0,1-4.669,2.914c-1.921,0-3.576-1.556-3.576-4.172a7.818,7.818,0,0,1,7.847-7.847,8.726,8.726,0,0,1,3.543.694l-1.125,5.994c-.5,2.516-.1,3.674.993,3.708,1.689.033,3.575-2.218,3.575-6.06,0-4.8-2.88-8.245-8.013-8.245-5.4,0-9.933,4.272-9.933,10.994,0,5.529,3.609,8.94,8.51,8.94a10.326,10.326,0,0,0,5-1.159Zm-1.821-14.3a5.72,5.72,0,0,0-1.655-.232c-2.914,0-5.265,2.748-5.265,5.96,0,1.457.728,2.517,2.186,2.517,1.921,0,3.675-2.451,4.04-4.5Z" transform="translate(-129.791 -263.012)" fill="#fff"/>
        </g>
      </g>
      <g id="Grupo_107381" data-name="Grupo 107381" transform="translate(220.04 255.633)">
        <path id="Trazado_149836" data-name="Trazado 149836" d="M343.406,340.472c-5.091,0-5.1,7.911,0,7.911S348.5,340.472,343.406,340.472Z" transform="translate(-322.057 -317.614)" fill="#4848d8"/>
        <path id="Trazado_149837" data-name="Trazado 149837" d="M354.19,332.534a16.891,16.891,0,0,0-25.4.464,3.252,3.252,0,0,0,0,4.475,3.191,3.191,0,0,0,4.475,0,14.306,14.306,0,0,1,1.83-1.84c.058-.045.136-.107.176-.135.226-.158.453-.311.686-.457q.56-.351,1.15-.648a10.4,10.4,0,0,1,2.018-.729,12.8,12.8,0,0,1,1.291-.271h0c.028,0,.072,0,.138-.007.275-.018.549-.039.824-.045.441-.01.879.011,1.32.037.081.005.2.017.263.022.177.027.354.058.529.093a12.737,12.737,0,0,1,2.438.732c.058.029.178.087.235.118.194.1.392.2.586.3a13.8,13.8,0,0,1,1.259.786c.036.024.254.189.335.248s.286.252.318.281c.37.331.715.684,1.05,1.049a3.164,3.164,0,0,0,4.475-4.475Z" transform="translate(-320.563 -315.893)" fill="#4848d8"/>
        <path id="Trazado_149838" data-name="Trazado 149838" d="M359.915,321.371a29.7,29.7,0,0,0-39.412.76c-3.046,2.717,1.443,7.18,4.476,4.475a23.674,23.674,0,0,1,30.461-.76,3.258,3.258,0,0,0,4.475,0A3.189,3.189,0,0,0,359.915,321.371Z" transform="translate(-319.487 -314.264)" fill="#4848d8"/>
      </g>
      <path id="Trazado_149839" data-name="Trazado 149839" d="M327.8,273.251l-38.052-19.164,11.257,41.091,7.314-13.287,10.245,12.519,5.009-4.1-10.245-12.519Z" transform="translate(-95.647 -50.939)" fill="#fffffe"/>
      <g id="Grupo_107382" data-name="Grupo 107382" transform="translate(79.508 56.706)">
        <rect id="Rectángulo_35452" data-name="Rectángulo 35452" width="56.871" height="35.132" transform="translate(8.525) rotate(14.043)" fill="#fffffe"/>
        <path id="Trazado_149840" data-name="Trazado 149840" d="M168.133,86.182l23.323,23.941L223.3,99.982,190.66,113.3Z" transform="translate(-159.608 -86.182)" fill="#6262f4"/>
      </g>
      <g id="Grupo_107385" data-name="Grupo 107385" transform="translate(30.071 124.578)">
        <path id="Trazado_149841" data-name="Trazado 149841" d="M104.3,184.685c-5.7,2.94-1.14,11.806,4.57,8.86S110.006,181.739,104.3,184.685Z" transform="translate(-101.676 -166.57)" fill="#4848d8"/>
        <g id="Grupo_107383" data-name="Grupo 107383" transform="translate(3.705)">
          <path id="Trazado_149842" data-name="Trazado 149842" d="M114.955,164.593c-5.7,2.941-1.14,11.807,4.571,8.86S120.666,161.648,114.955,164.593Z" transform="translate(-106.744 -164.002)" fill="#4848d8"/>
          <path id="Trazado_149843" data-name="Trazado 149843" d="M107.674,188.172a1.2,1.2,0,0,1-1.61-1.627l9.3-17.523a1.2,1.2,0,1,1,2.119,1.123l-9.3,17.523A1.189,1.189,0,0,1,107.674,188.172Z" transform="translate(-105.924 -164.562)" fill="#4848d8"/>
        </g>
        <g id="Grupo_107384" data-name="Grupo 107384" transform="translate(3.706 20.106)">
          <path id="Trazado_149844" data-name="Trazado 149844" d="M131.416,196.505c-5.7,2.941-10.28-5.914-4.57-8.86S137.127,193.56,131.416,196.505Z" transform="translate(-108.264 -187.055)" fill="#4848d8"/>
          <path id="Trazado_149845" data-name="Trazado 149845" d="M127.34,193.323a1.191,1.191,0,0,1-.7.123l-19.667-2.582a1.2,1.2,0,1,1,.312-2.377l19.668,2.582a1.2,1.2,0,0,1,.392,2.255Z" transform="translate(-105.925 -187.237)" fill="#4848d8"/>
        </g>
      </g>
      <g id="Grupo_107387" data-name="Grupo 107387" transform="translate(124.398 165.453)">
        <rect id="Rectángulo_35453" data-name="Rectángulo 35453" width="71.105" height="25.25" transform="matrix(0.987, -0.158, 0.158, 0.987, 0, 11.257)" fill="#18187c"/>
        <g id="Grupo_107386" data-name="Grupo 107386" transform="translate(15.807 10.073)">
          <path id="Trazado_149846" data-name="Trazado 149846" d="M232.47,240.153l-4.518-10.467,1.489-.239,2.18,5.313c.542,1.307,1.052,2.621,1.415,3.641l.032-.005c0-1.114.136-2.463.283-3.931l.575-5.738,1.473-.235,2.215,5.323c.515,1.246,1.014,2.5,1.361,3.618l.032-.005c.035-1.234.147-2.5.27-3.913l.558-5.735,1.441-.231-1.342,11.407-1.473.236-2.288-5.462a33.528,33.528,0,0,1-1.284-3.449l-.031.005a34.9,34.9,0,0,1-.27,3.7l-.644,5.932Z" transform="translate(-227.952 -223.073)" fill="#fffffe"/>
          <path id="Trazado_149847" data-name="Trazado 149847" d="M248.474,237.587l-4.519-10.468,1.49-.238,2.18,5.313c.542,1.307,1.051,2.621,1.414,3.641l.032-.005c0-1.114.137-2.462.283-3.931l.575-5.738,1.472-.236,2.216,5.324c.515,1.246,1.013,2.5,1.36,3.618l.033-.005c.034-1.235.147-2.5.269-3.912l.559-5.735,1.44-.231-1.342,11.407-1.473.236-2.287-5.462a33.2,33.2,0,0,1-1.284-3.448l-.032,0a34.7,34.7,0,0,1-.271,3.7l-.642,5.932Z" transform="translate(-229.998 -222.745)" fill="#fffffe"/>
          <path id="Trazado_149848" data-name="Trazado 149848" d="M264.477,235.021l-4.518-10.467,1.49-.239,2.18,5.312c.542,1.308,1.052,2.622,1.415,3.642l.032-.005c0-1.114.136-2.463.283-3.931l.574-5.738,1.474-.236,2.215,5.324c.515,1.246,1.014,2.5,1.361,3.618l.032-.005c.034-1.235.147-2.5.269-3.912l.559-5.735,1.441-.231-1.342,11.407-1.474.236-2.288-5.462a33.278,33.278,0,0,1-1.282-3.448l-.032,0a34.741,34.741,0,0,1-.271,3.7l-.643,5.932Z" transform="translate(-232.043 -222.417)" fill="#fffffe"/>
        </g>
      </g>
      <g id="Grupo_107388" data-name="Grupo 107388" transform="translate(279.194 270.571)">
        <path id="Trazado_149849" data-name="Trazado 149849" d="M405.163,367.174a17.949,17.949,0,1,1,2.871-.23A18.152,18.152,0,0,1,405.163,367.174Zm.048-33.165a15.272,15.272,0,0,0-8.961,27.645,15.272,15.272,0,0,0,24.031-14.79A15.3,15.3,0,0,0,405.211,334.008Z" transform="translate(-387.312 -331.392)" fill="#6262f4"/>
        <path id="Trazado_149850" data-name="Trazado 149850" d="M408.863,367.018c-2.06,0-4.151-1.666-5.949-4.765a35.178,35.178,0,0,1-3.858-11.731c-1.372-8.561-.175-18.087,4.748-18.878,2.253-.353,4.58,1.315,6.554,4.718a39.037,39.037,0,0,1,3.86,24.078c-.811,3.85-2.5,6.168-4.751,6.529A3.8,3.8,0,0,1,408.863,367.018Zm-4.458-32.8a1.2,1.2,0,0,0-.188.015c-2.086.335-4.077,6.538-2.578,15.88a32.533,32.533,0,0,0,3.537,10.831c1.334,2.3,2.814,3.629,3.878,3.446s2.057-1.888,2.6-4.485a36.506,36.506,0,0,0-3.564-22.226C406.84,335.511,405.448,334.214,404.405,334.214Z" transform="translate(-388.745 -331.418)" fill="#6262f4"/>
        <path id="Trazado_149851" data-name="Trazado 149851" d="M399.924,358.824c-6.3,0-11.768-1.6-12.359-5.278-.361-2.252,1.314-4.58,4.718-6.553a35.171,35.171,0,0,1,11.731-3.858c8.562-1.372,18.089-.175,18.878,4.748.361,2.252-1.314,4.579-4.718,6.553a35.179,35.179,0,0,1-11.73,3.858h0A41.72,41.72,0,0,1,399.924,358.824ZM410.656,345.2a39.46,39.46,0,0,0-6.229.523,32.552,32.552,0,0,0-10.832,3.537c-2.3,1.333-3.616,2.818-3.446,3.878.335,2.085,6.54,4.077,15.881,2.577a32.559,32.559,0,0,0,10.831-3.538c2.3-1.332,3.617-2.817,3.446-3.876C420.054,346.718,416.443,345.2,410.656,345.2Z" transform="translate(-387.338 -332.825)" fill="#6262f4"/>
      </g>
      <g id="Grupo_107389" data-name="Grupo 107389" transform="translate(0 261.008)">
        <path id="Trazado_149852" data-name="Trazado 149852" d="M118.908,336.964c.017-.3.045-.595.045-.9a15.631,15.631,0,0,0-30.4-5.118,6.839,6.839,0,0,0-11.385,5.118c0,.024,0,.046,0,.07a11.194,11.194,0,0,0,1.224,22.321h36.117a11.2,11.2,0,0,0,4.4-21.493Z" transform="translate(-67.198 -320.428)" fill="#fffffe"/>
        <path id="Trazado_149853" data-name="Trazado 149853" d="M106.558,347.336V335.842H95.065v11.493h-2.5l8.249,8.975,8.249-8.975Z" transform="translate(-70.44 -322.398)" fill="#ffb265"/>
      </g>
      <g id="Grupo_107391" data-name="Grupo 107391" transform="translate(12.833 27.237)">
        <path id="Trazado_149854" data-name="Trazado 149854" d="M195.938,213.66c-5.628-8.9-16.877-14.65-30.86-15.778-7.389-.6-14.93-.019-22.222.539-4.6.351-9.348.715-14.032.785-15,.216-26.571-3.151-34.4-10.029a37.816,37.816,0,0,1-10.894-17.5,26.842,26.842,0,0,1-1.145-12.9,16.877,16.877,0,0,1,2.521-6.259c-.256-.7-.474-1.375-.664-1.994A56.529,56.529,0,0,1,95.761,97.516l.652.578a55.64,55.64,0,0,0-11.34,52.179c.134.438.283.9.45,1.388a13.187,13.187,0,0,1,4.037-3.507c4.141-2.276,9.378-1.719,12.452,1.324a8.689,8.689,0,0,1,2.423,6.552,7.392,7.392,0,0,1-2.637,5.5c-3.444,2.774-8.492,1.7-11.5-.713a17.708,17.708,0,0,1-5.012-7.28,16.151,16.151,0,0,0-2.052,5.409,26,26,0,0,0,1.122,12.482A36.948,36.948,0,0,0,95,188.522c7.663,6.731,19.043,10.029,33.812,9.812,4.657-.069,9.4-.432,13.979-.782,7.326-.561,14.9-1.139,22.358-.539,14.26,1.151,25.752,7.049,31.527,16.182ZM85.879,152.642a17.433,17.433,0,0,0,4.972,7.491c2.738,2.2,7.312,3.2,10.4.713a6.525,6.525,0,0,0,2.313-4.861A7.8,7.8,0,0,0,101.4,150.1c-2.761-2.732-7.669-3.24-11.419-1.18A12.5,12.5,0,0,0,85.879,152.642Z" transform="translate(-81.911 -58.162)" fill="#18187c"/>
        <g id="Grupo_107390" data-name="Grupo 107390" transform="translate(7.614)">
          <path id="Trazado_149855" data-name="Trazado 149855" d="M101.415,61.392c8.929-10.114,20.332-11.473,27.4-5.229S135.958,73.89,127.03,84c-.611.692-3.163,3.525-5.057,5.566-.39.419-.75.8-1.059,1.13-.411.431-.736.765-.92.927-8.485,7.7-15.934,6.433-22.531,1.921a9.312,9.312,0,0,1-.977-.761,9.21,9.21,0,0,1-.876-.875c-5.29-5.981-7.475-13.221-.883-22.59.139-.2.429-.567.806-1.028.281-.352.623-.762,1-1.2C98.314,64.963,100.81,62.079,101.415,61.392Z" transform="translate(-90.641 -52.394)" fill="#6262f4"/>
          <rect id="Rectángulo_35454" data-name="Rectángulo 35454" width="20.189" height="1.525" transform="matrix(0.662, -0.75, 0.75, 0.662, 5.271, 39.888)" fill="#18187c"/>
          <rect id="Rectángulo_35455" data-name="Rectángulo 35455" width="4.607" height="8.219" rx="1.229" transform="translate(12.825 35.965) rotate(-138.562)" fill="#ffb265"/>
          <path id="Trazado_149856" data-name="Trazado 149856" d="M97.246,69.255A87.671,87.671,0,0,1,122.69,91.726c-.39.419-.75.8-1.059,1.13a86.051,86.051,0,0,0-25.38-22.405C96.532,70.1,96.874,69.689,97.246,69.255Z" transform="translate(-91.358 -54.549)" fill="#18187c"/>
        </g>
      </g>
      <g id="Grupo_107399" data-name="Grupo 107399" transform="translate(135.868)">
        <g id="Grupo_107398" data-name="Grupo 107398" transform="translate(113.174)">
          <g id="Grupo_107392" data-name="Grupo 107392">
            <rect id="Rectángulo_35456" data-name="Rectángulo 35456" width="35.942" height="20.244" transform="translate(14.315 0) rotate(45)" fill="#fffffe"/>
            <rect id="Rectángulo_35457" data-name="Rectángulo 35457" width="12.869" height="15.236" transform="translate(14.813 4.04) rotate(45)" fill="#ffb265"/>
            <rect id="Rectángulo_35458" data-name="Rectángulo 35458" width="12.869" height="15.236" transform="translate(26.318 15.545) rotate(45)" fill="#ffb265"/>
          </g>
          <g id="Grupo_107393" data-name="Grupo 107393" transform="translate(34.595 34.595)">
            <rect id="Rectángulo_35459" data-name="Rectángulo 35459" width="35.942" height="20.244" transform="translate(25.415 39.729) rotate(-135)" fill="#fffffe"/>
            <rect id="Rectángulo_35460" data-name="Rectángulo 35460" width="12.869" height="15.236" transform="translate(24.917 35.69) rotate(-135)" fill="#ffb265"/>
            <rect id="Rectángulo_35461" data-name="Rectángulo 35461" width="12.869" height="15.236" transform="translate(13.412 24.185) rotate(-135)" fill="#ffb265"/>
          </g>
          <g id="Grupo_107397" data-name="Grupo 107397" transform="translate(6.507 19.952)">
            <path id="Trazado_149857" data-name="Trazado 149857" d="M403.2,74.393c-3.988,3.988-10.208.171-16.4-6.02s-10.009-12.41-6.02-16.4,14.273-4.236,20.464,1.955S407.192,70.4,403.2,74.393Z" transform="translate(-362.623 -44.689)" fill="#18187c"/>
            <g id="Grupo_107396" data-name="Grupo 107396">
              <g id="Grupo_107394" data-name="Grupo 107394">
                <ellipse id="Elipse_5069" data-name="Elipse 5069" cx="11.977" cy="21.869" rx="11.977" ry="21.869" transform="translate(0 16.938) rotate(-45)" fill="#fffffe"/>
                <ellipse id="Elipse_5070" data-name="Elipse 5070" cx="10.214" cy="20.134" rx="10.214" ry="20.134" transform="matrix(0.707, -0.707, 0.707, 0.707, 2.474, 16.918)" fill="#6262f4"/>
              </g>
              <g id="Grupo_107395" data-name="Grupo 107395" transform="translate(9.055 22.281)">
                <circle id="Elipse_5071" data-name="Elipse 5071" cx="3.268" cy="3.268" r="3.268" transform="translate(0 9.993)" fill="#18187c"/>
                <path id="Trazado_149858" data-name="Trazado 149858" d="M373.8,82.407,385.138,70.03a1.361,1.361,0,1,1,2.007,1.838c-.026.03-.056.058-.084.085L374.683,83.292a.626.626,0,0,1-.884-.884Z" transform="translate(-370.974 -69.588)" fill="#18187c"/>
              </g>
            </g>
          </g>
        </g>
        <path id="Trazado_149859" data-name="Trazado 149859" d="M375.377,136.9c7.1-7.1-4.039-29.789-24.828-50.578s-43.475-31.928-50.578-24.828a7.93,7.93,0,0,0-2.125,5.074c-13.626-7.037-24.779-8.831-29.966-3.645-3.123,3.124-3.818,8.414-2.159,15.358-17.7-9.22-32.2-11.612-38.909-4.9-6.127,6.127-4.661,18.745,2.651,34.361.21-.036.42-.076.631-.111-7.263-15.384-8.77-27.778-2.79-33.758,2.514-2.513,6.158-3.706,10.681-3.706,7.353,0,17.03,3.156,27.939,8.923a64.928,64.928,0,0,0,4.766,12.28,139.632,139.632,0,0,0,14.966,23.223c.454.2.908.4,1.359.605a140.875,140.875,0,0,1-15.7-24.137,66.38,66.38,0,0,1-4.566-11.527c15.637,8.4,33.722,22.078,51.116,39.472s31.071,35.481,39.475,51.117a66.339,66.339,0,0,1-11.529-4.567,119.665,119.665,0,0,1-12.814-7.461c.222.406.449.809.665,1.218,8.89,5.769,17.177,9.752,24.079,11.56,9.344,17.653,11.866,32.085,5.258,38.693-3.726,3.726-10.02,4.624-18.316,2.768-.017.23-.027.461-.045.692a36.074,36.074,0,0,0,7.7.931c4.775,0,8.552-1.293,11.158-3.9,6.721-6.721,4.313-21.25-4.939-38.985a29.374,29.374,0,0,0,6.79.907c3.64,0,6.581-.963,8.607-2.99,5.19-5.191,3.389-16.357-3.66-30A7.84,7.84,0,0,0,375.377,136.9ZM300.464,61.984a7.89,7.89,0,0,1,5.793-2.009c9.845,0,27.377,10.415,43.8,26.838,20.519,20.518,31.656,42.766,24.828,49.594a7.436,7.436,0,0,1-4.913,1.968c-6.5-12.367-17.257-26.708-31.013-40.464S310.867,73.4,298.5,66.9A7.409,7.409,0,0,1,300.464,61.984Zm38,36.419c13.629,13.629,24.318,27.8,30.811,40-9.808.137-27.457-10.3-43.986-26.829-9.979-9.979-18.049-20.666-22.722-30.093-2.766-5.579-4.131-10.292-4.091-13.882C310.675,74.1,324.842,84.78,338.466,98.4ZM373.455,168.5c-3.038,3.039-8.311,3.623-15.286,1.839-8.4-15.859-22.2-34.209-39.814-51.822S282.391,87.1,266.532,78.7c-1.784-6.974-1.2-12.246,1.84-15.286,1.939-1.939,4.748-2.859,8.239-2.859,5.59,0,12.921,2.367,21.191,6.691-.133,3.77,1.251,8.713,4.143,14.549,4.706,9.493,12.822,20.245,22.853,30.276,16.539,16.538,34.279,26.968,44.418,26.968.13,0,.253-.01.381-.013C376.636,152.476,378.5,163.45,373.455,168.5Z" transform="translate(-222.979 -26.047)" fill="#fffffe"/>
      </g>
      <g id="Grupo_107403" data-name="Grupo 107403" transform="translate(182.684 82.998)">
        <g id="Grupo_107400" data-name="Grupo 107400" transform="translate(52.008 52.009)">
          <path id="Trazado_149860" data-name="Trazado 149860" d="M382.038,225.413a3.693,3.693,0,0,1-2.619-1.085l-42.046-42.046a3.7,3.7,0,0,1,5.237-5.238l42.047,42.046a3.7,3.7,0,0,1-2.619,6.322Z" transform="translate(-336.288 -175.96)" fill="#18187c"/>
          <path id="Trazado_149861" data-name="Trazado 149861" d="M384.519,229.952a5.75,5.75,0,0,1-4.075-1.687l-23.054-23.056a5.761,5.761,0,1,1,8.147-8.148l23.056,23.055a5.761,5.761,0,0,1-4.074,9.835Z" transform="translate(-338.769 -178.441)" fill="#ffb265"/>
        </g>
        <g id="Grupo_107402" data-name="Grupo 107402">
          <path id="Trazado_149862" data-name="Trazado 149862" d="M341.837,151.042a30.471,30.471,0,0,1-33.862,30.273,30.165,30.165,0,0,1-13.088-4.65,30.463,30.463,0,0,1,15.787-56.077c.231-.009.461-.009.692-.009a30.35,30.35,0,0,1,17.327,5.4,31.152,31.152,0,0,1,5.21,4.552A30.346,30.346,0,0,1,341.837,151.042Z" transform="translate(-277.2 -116.871)" fill="#6262f4" opacity="0.3"/>
          <g id="Grupo_107401" data-name="Grupo 107401" transform="translate(9.095 3.708)" opacity="0.5">
            <path id="Trazado_149863" data-name="Trazado 149863" d="M323.252,122.662l-27.575,54a30.459,30.459,0,0,1-8.593-8.329l24.38-47.748c.231-.009.461-.009.692-.009A30.466,30.466,0,0,1,323.252,122.662Z" transform="translate(-287.085 -120.579)" fill="#fff"/>
            <path id="Trazado_149864" data-name="Trazado 149864" d="M336.881,131.322l-25.927,50.785a30.024,30.024,0,0,1-6.75-1.538l27.467-53.8A31.153,31.153,0,0,1,336.881,131.322Z" transform="translate(-289.273 -121.37)" fill="#fff"/>
          </g>
          <path id="Trazado_149865" data-name="Trazado 149865" d="M310.827,184.668A34.17,34.17,0,1,1,345,150.5,34.208,34.208,0,0,1,310.827,184.668Zm0-60.932A26.762,26.762,0,1,0,337.588,150.5,26.792,26.792,0,0,0,310.827,123.736Z" transform="translate(-276.657 -116.328)" fill="#18187c"/>
        </g>
      </g>
      <g id="Grupo_107404" data-name="Grupo 107404" transform="translate(118.555 242.178)">
        <rect id="Rectángulo_35462" data-name="Rectángulo 35462" width="78.141" height="52.469" transform="translate(11.99 0) rotate(13.21)" fill="#fff"/>
        <rect id="Rectángulo_35463" data-name="Rectángulo 35463" width="69.602" height="44.691" transform="translate(15.258 4.762) rotate(13.21)" fill="#6262f4"/>
        <path id="Trazado_149866" data-name="Trazado 149866" d="M279.45,353.788,268.18,335.6l-14.617,9.059-15.774-25.45-25.414,15.751-3.462,14.748,67.76,15.9Z" transform="translate(-203.868 -301.442)" fill="#4848d8"/>
        <path id="Trazado_149867" data-name="Trazado 149867" d="M269.5,327.575a6.935,6.935,0,1,1-5.168-8.337A6.935,6.935,0,0,1,269.5,327.575Z" transform="translate(-209.863 -301.422)" fill="#ffb265"/>
      </g>
    </g>
  </g>
</svg>
