<svg xmlns="http://www.w3.org/2000/svg" width="502.397" height="312.021" viewBox="0 0 502.397 312.021">
  <g id="Grupo_107508" data-name="Grupo 107508" transform="translate(-583.229 -2024.302)">
    <rect id="Rectángulo_35633" data-name="Rectángulo 35633" width="370.463" height="216.923" rx="12.957" transform="translate(622.786 2028.867)" fill="#8781fd"/>
    <rect id="Rectángulo_35634" data-name="Rectángulo 35634" width="370.463" height="216.923" rx="12.957" transform="translate(617.935 2024.302)" fill="#e3e2ff"/>
    <path id="Trazado_152502" data-name="Trazado 152502" d="M1008.2,2036.7H637.737v-3.685a8.718,8.718,0,0,1,8.718-8.718H999.482a8.718,8.718,0,0,1,8.717,8.718Z" transform="translate(-19.802)" fill="#b4bbd7"/>
    <rect id="Rectángulo_35635" data-name="Rectángulo 35635" width="370.463" height="16.947" transform="translate(617.935 2036.705)" fill="#8781fd"/>
    <path id="Trazado_152503" data-name="Trazado 152503" d="M1052.956,2058.945H813.978a3.46,3.46,0,0,1-3.459-3.459h0a3.459,3.459,0,0,1,3.459-3.459h238.978a3.459,3.459,0,0,1,3.459,3.459h0A3.459,3.459,0,0,1,1052.956,2058.945Z" transform="translate(-82.569 -10.071)" fill="#fff"/>
    <path id="Trazado_152504" data-name="Trazado 152504" d="M733.659,2058.945h-71a3.46,3.46,0,0,1-3.459-3.459h0a3.459,3.459,0,0,1,3.459-3.459h71a3.459,3.459,0,0,1,3.459,3.459h0A3.459,3.459,0,0,1,733.659,2058.945Z" transform="translate(-27.597 -10.071)" fill="#fff"/>
    <g id="Grupo_107479" data-name="Grupo 107479" transform="translate(631.598 2028.272)">
      <g id="Grupo_107476" data-name="Grupo 107476" transform="translate(23.086)">
        <path id="Trazado_152505" data-name="Trazado 152505" d="M699.915,2032.769a2.232,2.232,0,1,1-2.232-2.232A2.232,2.232,0,0,1,699.915,2032.769Z" transform="translate(-695.452 -2030.537)" fill="#ffa368"/>
      </g>
      <g id="Grupo_107477" data-name="Grupo 107477" transform="translate(11.543)">
        <path id="Trazado_152506" data-name="Trazado 152506" d="M681.786,2032.769a2.232,2.232,0,1,1-2.232-2.232A2.232,2.232,0,0,1,681.786,2032.769Z" transform="translate(-677.323 -2030.537)" fill="#00affd"/>
      </g>
      <g id="Grupo_107478" data-name="Grupo 107478">
        <path id="Trazado_152507" data-name="Trazado 152507" d="M663.658,2032.769a2.231,2.231,0,1,1-2.231-2.232A2.232,2.232,0,0,1,663.658,2032.769Z" transform="translate(-659.195 -2030.537)" fill="#fc6473"/>
      </g>
    </g>
    <g id="Grupo_107481" data-name="Grupo 107481" transform="translate(583.229 2064.791)">
      <rect id="Rectángulo_35636" data-name="Rectángulo 35636" width="257.737" height="35.669" rx="8.306" transform="translate(5.276 5.019)" fill="#8781fd"/>
      <g id="Grupo_107480" data-name="Grupo 107480">
        <rect id="Rectángulo_35637" data-name="Rectángulo 35637" width="257.737" height="35.669" rx="8.306" fill="#fff"/>
        <rect id="Rectángulo_35638" data-name="Rectángulo 35638" width="170.524" height="3.098" rx="1.549" transform="translate(75.845 7.18)" fill="#e5e7f4"/>
        <rect id="Rectángulo_35639" data-name="Rectángulo 35639" width="170.524" height="3.098" rx="1.549" transform="translate(75.845 16.068)" fill="#e5e7f4"/>
        <rect id="Rectángulo_35640" data-name="Rectángulo 35640" width="147.128" height="2.857" rx="1.428" transform="translate(99.241 26.287)" fill="#e5e7f4"/>
        <rect id="Rectángulo_35641" data-name="Rectángulo 35641" width="22.479" height="22.479" rx="4.647" transform="translate(12.308 7.18)" fill="#e5e7f4"/>
        <rect id="Rectángulo_35642" data-name="Rectángulo 35642" width="12.272" height="12.272" rx="2.537" transform="translate(40.152 7.18)" fill="#00affd"/>
      </g>
    </g>
    <rect id="Rectángulo_35643" data-name="Rectángulo 35643" width="96.372" height="96.658" rx="9.032" transform="translate(631.598 2128.76)" fill="#fff"/>
    <rect id="Rectángulo_35644" data-name="Rectángulo 35644" width="96.372" height="96.658" rx="9.032" transform="translate(756.095 2128.76)" fill="#fff"/>
    <rect id="Rectángulo_35645" data-name="Rectángulo 35645" width="96.372" height="96.658" rx="9.032" transform="translate(878.096 2128.76)" fill="#fff"/>
    <g id="Grupo_107482" data-name="Grupo 107482" transform="translate(648.256 2205.059)">
      <path id="Trazado_152508" data-name="Trazado 152508" d="M746.863,2311.286H686.906a1.549,1.549,0,0,1-1.549-1.549h0a1.55,1.55,0,0,1,1.549-1.549h59.957a1.55,1.55,0,0,1,1.549,1.549h0A1.549,1.549,0,0,1,746.863,2311.286Z" transform="translate(-685.357 -2308.188)" fill="#cdcbfd"/>
      <path id="Trazado_152509" data-name="Trazado 152509" d="M719.522,2325.246H686.906a1.55,1.55,0,0,1-1.549-1.549h0a1.549,1.549,0,0,1,1.549-1.549h32.616a1.549,1.549,0,0,1,1.549,1.549h0A1.55,1.55,0,0,1,719.522,2325.246Z" transform="translate(-685.357 -2313.259)" fill="#cdcbfd"/>
    </g>
    <g id="Grupo_107483" data-name="Grupo 107483" transform="translate(772.754 2205.059)">
      <path id="Trazado_152510" data-name="Trazado 152510" d="M942.391,2311.286H882.434a1.549,1.549,0,0,1-1.549-1.549h0a1.549,1.549,0,0,1,1.549-1.549h59.957a1.549,1.549,0,0,1,1.549,1.549h0A1.549,1.549,0,0,1,942.391,2311.286Z" transform="translate(-880.885 -2308.188)" fill="#cdcbfd"/>
      <path id="Trazado_152511" data-name="Trazado 152511" d="M915.049,2325.246H882.434a1.549,1.549,0,0,1-1.549-1.549h0a1.549,1.549,0,0,1,1.549-1.549h32.615a1.549,1.549,0,0,1,1.549,1.549h0A1.549,1.549,0,0,1,915.049,2325.246Z" transform="translate(-880.885 -2313.259)" fill="#cdcbfd"/>
    </g>
    <g id="Grupo_107484" data-name="Grupo 107484" transform="translate(894.754 2205.059)">
      <path id="Trazado_152512" data-name="Trazado 152512" d="M1134,2311.286H1074.04a1.549,1.549,0,0,1-1.549-1.549h0a1.549,1.549,0,0,1,1.549-1.549H1134a1.549,1.549,0,0,1,1.549,1.549h0A1.549,1.549,0,0,1,1134,2311.286Z" transform="translate(-1072.491 -2308.188)" fill="#cdcbfd"/>
      <path id="Trazado_152513" data-name="Trazado 152513" d="M1106.656,2325.246H1074.04a1.549,1.549,0,0,1-1.549-1.549h0a1.549,1.549,0,0,1,1.549-1.549h32.616a1.549,1.549,0,0,1,1.549,1.549h0A1.549,1.549,0,0,1,1106.656,2325.246Z" transform="translate(-1072.491 -2313.259)" fill="#cdcbfd"/>
    </g>
    <g id="Grupo_107488" data-name="Grupo 107488" transform="translate(834.397 2117.667)">
      <g id="Grupo_107486" data-name="Grupo 107486" transform="translate(3.424 1.141)">
        <g id="Grupo_107485" data-name="Grupo 107485">
          <circle id="Elipse_5223" data-name="Elipse 5223" cx="12.499" cy="12.499" r="12.499" fill="#8781fd"/>
          <path id="Trazado_152514" data-name="Trazado 152514" d="M1004.563,2183.988c-3.186-2.266-5.964,1.8-5.964,1.8s-2.778-4.063-5.964-1.8c-3.633,2.584,1.471,11.683,5.964,13.562C1003.092,2195.671,1008.2,2186.572,1004.563,2183.988Z" transform="translate(-986.099 -2176.568)" fill="#8781fd"/>
        </g>
      </g>
      <g id="Grupo_107487" data-name="Grupo 107487" transform="translate(0)">
        <circle id="Elipse_5224" data-name="Elipse 5224" cx="12.499" cy="12.499" r="12.499" fill="#fff"/>
        <path id="Trazado_152515" data-name="Trazado 152515" d="M999.186,2182.2c-3.186-2.267-5.964,1.8-5.964,1.8s-2.778-4.064-5.964-1.8c-3.633,2.584,1.471,11.683,5.964,13.562C997.715,2193.879,1002.818,2184.78,999.186,2182.2Z" transform="translate(-980.722 -2174.775)" fill="#00affd"/>
      </g>
    </g>
    <g id="Grupo_107490" data-name="Grupo 107490" transform="translate(923.204 2064.791)">
      <rect id="Rectángulo_35646" data-name="Rectángulo 35646" width="49.791" height="49.791" rx="8.45" fill="#fff"/>
      <g id="Grupo_107489" data-name="Grupo 107489" transform="translate(8.197 8.676)">
        <path id="Trazado_152516" data-name="Trazado 152516" d="M1159.1,2124.5h-23.642l-5.41-16.977H1159.1Z" transform="translate(-1130.046 -2103.697)" fill="#cdcbfd"/>
        <path id="Trazado_152517" data-name="Trazado 152517" d="M1165.2,2131.375h-20.286v-1.4H1163.8v-28.455h5.961v1.4H1165.2Z" transform="translate(-1135.447 -2101.516)" fill="#cdcbfd"/>
        <path id="Trazado_152518" data-name="Trazado 152518" d="M1171.719,2148.021a2.1,2.1,0,1,0,2.1,2.1A2.1,2.1,0,0,0,1171.719,2148.021Zm0,2.972a.868.868,0,1,1,.869-.868A.869.869,0,0,1,1171.719,2150.993Z" transform="translate(-1144.42 -2118.41)" fill="#cdcbfd"/>
        <path id="Trazado_152519" data-name="Trazado 152519" d="M1149.809,2148.021a2.1,2.1,0,1,0,2.1,2.1A2.1,2.1,0,0,0,1149.809,2148.021Zm0,2.972a.868.868,0,1,1,.869-.868A.868.868,0,0,1,1149.809,2150.993Z" transform="translate(-1136.461 -2118.41)" fill="#cdcbfd"/>
      </g>
    </g>
    <rect id="Rectángulo_35647" data-name="Rectángulo 35647" width="49.791" height="49.791" rx="8.45" transform="translate(862.82 2064.791)" fill="#fff"/>
    <g id="Grupo_107493" data-name="Grupo 107493" transform="translate(1058.658 2165.824)">
      <g id="Grupo_107492" data-name="Grupo 107492" transform="translate(3.616)">
        <g id="Grupo_107491" data-name="Grupo 107491">
          <circle id="Elipse_5225" data-name="Elipse 5225" cx="11.676" cy="11.676" r="11.676" fill="#8781fd"/>
          <path id="Trazado_152520" data-name="Trazado 152520" d="M1355.659,2257.088c-2.976-2.117-5.571,1.678-5.571,1.678s-2.595-3.8-5.571-1.678c-3.393,2.413,1.374,10.913,5.571,12.668C1354.285,2268,1359.053,2259.5,1355.659,2257.088Z" transform="translate(-1338.412 -2250.156)" fill="#8781fd"/>
        </g>
      </g>
      <circle id="Elipse_5226" data-name="Elipse 5226" cx="11.676" cy="11.676" r="11.676" fill="#fff"/>
      <path id="Trazado_152521" data-name="Trazado 152521" d="M1341.3,2267.9l-4.829-4.763a1.093,1.093,0,1,1,1.535-1.557l3.112,3.07,7.273-8.984a1.093,1.093,0,0,1,1.7,1.376Z" transform="translate(-1332.176 -2249.727)" fill="#8781fd"/>
    </g>
    <g id="Grupo_107494" data-name="Grupo 107494" transform="translate(874.52 2072.887)">
      <rect id="Rectángulo_35648" data-name="Rectángulo 35648" width="4.98" height="16.048" transform="translate(0 16.807)" fill="#cdcbfd"/>
      <rect id="Rectángulo_35649" data-name="Rectángulo 35649" width="18.261" height="18.59" rx="3.873" transform="translate(6.502 15.009)" fill="#cdcbfd"/>
      <path id="Trazado_152522" data-name="Trazado 152522" d="M1078.208,2129.272h-2.674a.382.382,0,0,1-.382-.382v-4.33a.382.382,0,0,1,.382-.382h2.674a2.547,2.547,0,0,1,2.547,2.547h0A2.547,2.547,0,0,1,1078.208,2129.272Z" transform="translate(-1053.224 -2109.169)" fill="#cdcbfd"/>
      <path id="Trazado_152523" data-name="Trazado 152523" d="M1078.208,2137.271h-2.674a.382.382,0,0,1-.382-.382v-4.329a.382.382,0,0,1,.382-.382h2.674a2.546,2.546,0,0,1,2.547,2.546h0A2.546,2.546,0,0,1,1078.208,2137.271Z" transform="translate(-1053.224 -2112.075)" fill="#cdcbfd"/>
      <path id="Trazado_152524" data-name="Trazado 152524" d="M1077.538,2144.878h-2.468a.353.353,0,0,1-.353-.353v-4a.353.353,0,0,1,.353-.353h2.468a2.351,2.351,0,0,1,2.35,2.35h0A2.351,2.351,0,0,1,1077.538,2144.878Z" transform="translate(-1053.066 -2114.981)" fill="#cdcbfd"/>
      <path id="Trazado_152525" data-name="Trazado 152525" d="M1075,2150.73h-2.434a.348.348,0,0,1-.348-.348v-3.939a.348.348,0,0,1,.348-.347H1075a2.317,2.317,0,0,1,2.317,2.317h0A2.317,2.317,0,0,1,1075,2150.73Z" transform="translate(-1052.158 -2117.131)" fill="#cdcbfd"/>
      <path id="Trazado_152526" data-name="Trazado 152526" d="M1051.07,2117.414s.6-4.5,2.813-7.263,1.176-8.854,2.7-9.477,3.856,3.113,2.4,9.062.458,5.879.458,5.879l-2.377,3.874Z" transform="translate(-1044.476 -2100.606)" fill="#cdcbfd"/>
    </g>
    <g id="Grupo_107495" data-name="Grupo 107495" transform="translate(783.337 2137.021)">
      <rect id="Rectángulo_35650" data-name="Rectángulo 35650" width="18.188" height="27.831" transform="translate(21.471 30.59)" fill="#cdcbfd"/>
      <path id="Trazado_152527" data-name="Trazado 152527" d="M906.6,2281.016h0a9.1,9.1,0,0,1-9.094-9.094v-12.058H915.7v12.058A9.094,9.094,0,0,1,906.6,2281.016Z" transform="translate(-897.507 -2222.595)" fill="#cdcbfd"/>
      <rect id="Rectángulo_35651" data-name="Rectángulo 35651" width="13.575" height="14.843" transform="translate(23.778 14.778)" fill="#cdcbfd"/>
      <path id="Trazado_152528" data-name="Trazado 152528" d="M936.732,2215.322v-6.094a.561.561,0,0,1,.241-.461l9.967-6.938a.562.562,0,0,1,.883.461v13.032Z" transform="translate(-911.756 -2201.475)" fill="#cdcbfd"/>
      <path id="Trazado_152529" data-name="Trazado 152529" d="M943.224,2206.772c-3.037,2.1-5.93,3.172-6.462,2.4s1.5-3.094,4.536-5.191,5.93-3.172,6.463-2.4S946.261,2204.675,943.224,2206.772Z" transform="translate(-911.737 -2201.332)" fill="#e3e2ff"/>
    </g>
    <g id="Grupo_107497" data-name="Grupo 107497" transform="translate(899.892 2139.902)">
      <g id="Grupo_107496" data-name="Grupo 107496" transform="translate(0 0)">
        <path id="Trazado_152530" data-name="Trazado 152530" d="M1105.322,2254.175h-17.947l-6.815-43.5h31.577Z" transform="translate(-1080.56 -2207.605)" fill="#cdcbfd"/>
        <rect id="Rectángulo_35652" data-name="Rectángulo 35652" width="31.577" height="3.067" fill="#e3e2ff"/>
        <path id="Trazado_152531" data-name="Trazado 152531" d="M1105.8,2288.862h-11.248a3.463,3.463,0,0,1-3.463-3.463v-4.147h18.174v4.147A3.463,3.463,0,0,1,1105.8,2288.862Z" transform="translate(-1084.384 -2233.245)" fill="#cdcbfd"/>
        <rect id="Rectángulo_35653" data-name="Rectángulo 35653" width="15.069" height="9.39" transform="translate(8.254 14.501)" fill="#e3e2ff"/>
      </g>
      <rect id="Rectángulo_35654" data-name="Rectángulo 35654" width="22.869" height="12.189" transform="translate(28.775 43.428)" fill="#cdcbfd"/>
      <rect id="Rectángulo_35655" data-name="Rectángulo 35655" width="22.869" height="5.454" transform="translate(28.775 46.795)" fill="#e3e2ff"/>
      <rect id="Rectángulo_35656" data-name="Rectángulo 35656" width="25.14" height="6.095" transform="translate(27.639 36.346)" fill="#cdcbfd"/>
    </g>
    <g id="Grupo_107498" data-name="Grupo 107498" transform="translate(659.761 2138.097)">
      <rect id="Rectángulo_35657" data-name="Rectángulo 35657" width="20.461" height="37.334" rx="3.249" transform="translate(6.315 20.736)" fill="#cdcbfd"/>
      <path id="Trazado_152532" data-name="Trazado 152532" d="M732.977,2267.169h-16.61V2225.52a2.712,2.712,0,0,1,2.712-2.712h11.186a2.712,2.712,0,0,1,2.712,2.712Z" transform="translate(-708.127 -2210.209)" fill="#cdcbfd"/>
      <path id="Trazado_152533" data-name="Trazado 152533" d="M730.572,2247.381H725.16v-41.654a2.706,2.706,0,0,1,2.706-2.706h0a2.706,2.706,0,0,1,2.706,2.706Z" transform="translate(-711.321 -2203.021)" fill="#cdcbfd"/>
      <rect id="Rectángulo_35658" data-name="Rectángulo 35658" width="29.4" height="1.487" transform="translate(0 19.249)" fill="#fff"/>
      <rect id="Rectángulo_35659" data-name="Rectángulo 35659" width="14.511" height="15.688" transform="translate(9.289 31.559)" fill="#e3e2ff"/>
    </g>
    <g id="Grupo_107505" data-name="Grupo 107505" transform="translate(900.852 2080.39)">
      <path id="Trazado_152534" data-name="Trazado 152534" d="M1218.87,2177.172l8.835,29.431h-17.527l-1.494-34.463Z" transform="translate(-1128.065 -2134.095)" fill="#009fe6"/>
      <rect id="Rectángulo_35660" data-name="Rectángulo 35660" width="95.573" height="1.071" transform="translate(0 255.69) rotate(-76.948)" fill="#1d254c"/>
      <rect id="Rectángulo_35661" data-name="Rectángulo 35661" width="95.572" height="1.071" transform="translate(46.854 255.69) rotate(-76.948)" fill="#1d254c"/>
      <g id="Grupo_107500" data-name="Grupo 107500" transform="translate(33.135 41.063)">
        <rect id="Rectángulo_35662" data-name="Rectángulo 35662" width="47.992" height="86.317" rx="10.574" transform="translate(0 44.576) rotate(-68.25)" fill="#ffa368"/>
        <rect id="Rectángulo_35663" data-name="Rectángulo 35663" width="12.171" height="86.317" transform="translate(10.491 18.279) rotate(-68.25)" fill="#fc6473"/>
        <g id="Grupo_107499" data-name="Grupo 107499" transform="translate(10.598 31.445)">
          <path id="Trazado_152535" data-name="Trazado 152535" d="M1162.111,2235.261a7.423,7.423,0,1,0,9.645-4.145A7.423,7.423,0,0,0,1162.111,2235.261Z" transform="translate(-1154.686 -2227.835)" fill="#fc6473"/>
          <path id="Trazado_152536" data-name="Trazado 152536" d="M1151.282,2230.941a7.423,7.423,0,1,0,9.646-4.145A7.423,7.423,0,0,0,1151.282,2230.941Z" transform="translate(-1150.752 -2226.266)" fill="#8095fd"/>
        </g>
        <path id="Trazado_152537" data-name="Trazado 152537" d="M1198.582,2261.185l34.214,13.65a1.2,1.2,0,0,1,.669,1.556h0a1.2,1.2,0,0,1-1.556.668l-34.214-13.65a1.2,1.2,0,0,1-.669-1.555h0A1.2,1.2,0,0,1,1198.582,2261.185Z" transform="translate(-1156.934 -2207.475)" fill="#fc6473"/>
        <rect id="Rectángulo_35664" data-name="Rectángulo 35664" width="2.394" height="23.176" rx="1.197" transform="matrix(0.371, -0.929, 0.929, 0.371, 56.425, 56.768)" fill="#fc6473"/>
      </g>
      <g id="Grupo_107502" data-name="Grupo 107502" transform="translate(22.115 162.462)">
        <rect id="Rectángulo_35665" data-name="Rectángulo 35665" width="46.378" height="1.094" transform="translate(6.732 25.462)" fill="#1d254c"/>
        <rect id="Rectángulo_35666" data-name="Rectángulo 35666" width="46.378" height="1.094" transform="translate(12.864 50.081)" fill="#1d254c"/>
        <rect id="Rectángulo_35667" data-name="Rectángulo 35667" width="46.378" height="1.094" transform="translate(18.133 74.694)" fill="#1d254c"/>
        <g id="Grupo_107501" data-name="Grupo 107501">
          <rect id="Rectángulo_35668" data-name="Rectángulo 35668" width="1.094" height="95.516" transform="matrix(0.975, -0.223, 0.223, 0.975, 46.656, 0.244)" fill="#1d254c"/>
          <rect id="Rectángulo_35669" data-name="Rectángulo 35669" width="1.094" height="95.516" transform="translate(0 0.244) rotate(-12.894)" fill="#1d254c"/>
        </g>
      </g>
      <g id="Grupo_107503" data-name="Grupo 107503" transform="translate(46.369 0)">
        <path id="Trazado_152538" data-name="Trazado 152538" d="M1291.394,2327.089l4.732-1.715,2.595,5.9-4.335,2.617Z" transform="translate(-1204.48 -2189.761)" fill="#ffc8c7"/>
        <path id="Trazado_152539" data-name="Trazado 152539" d="M1200.533,2254.9v23.66s.108.712.319,1.966c1.149,6.863,5.344,29.915,11.427,40.492,1.68,2.914,3.5,4.883,5.441,5.306,10.266,2.231,43.525-18.3,43.525-18.3l-2.676-7.031s-32.588,10.157-33.257,10.38-1.34-22.543-2.009-34.6a76.014,76.014,0,0,0-5.582-23.213Z" transform="translate(-1171.473 -2163.672)" fill="#09005d"/>
        <path id="Trazado_152540" data-name="Trazado 152540" d="M1201.034,2294.308c1.149,6.863,5.344,29.915,11.427,40.492.453-8.55-3.128-19.575-1.607-26.422,1.875-8.437-1.875-16.875-1.875-16.875Z" transform="translate(-1171.655 -2177.457)" fill="#060042"/>
        <path id="Trazado_152541" data-name="Trazado 152541" d="M1298.826,2323.693s5.826-3.386,6.589-2.9,6.807,15.477,6.807,15.477.138,1.768-1.527,1.311-7.6-7.72-9.275-7.991Z" transform="translate(-1207.18 -2188.081)" fill="#1d1c2c"/>
        <path id="Trazado_152542" data-name="Trazado 152542" d="M1180.125,2427.036l-.335,5.022h-6.445l-.651-5.022Z" transform="translate(-1161.36 -2226.693)" fill="#ffc8c7"/>
        <path id="Trazado_152543" data-name="Trazado 152543" d="M1186.047,2153.922s1.506-8.872.669-9.877-2.427,1-4.854-5.189-1-16.657,3.85-18.163,12.388,2.427,13.476,11.467-.67,21.177-.67,21.177Z" transform="translate(-1164.268 -2115.292)" fill="#ffc8c7"/>
        <path id="Trazado_152544" data-name="Trazado 152544" d="M1198.776,2260.217s6.249,14.955-4.018,31.026-16.517,76.113-16.517,76.113h-7.366s-4.687-45.757-3.125-58.48,10.044-48.658,10.044-48.658Z" transform="translate(-1159.448 -2166.092)" fill="#09005d"/>
        <path id="Trazado_152545" data-name="Trazado 152545" d="M1168.787,2183.375c-3.906,8.887-3.081,11.977,1.1,21.854s-.561,24.818-.561,24.818c14.926,7.185,35.074-3.749,35.074-3.749s-6.744-9.184-6.717-18.9a25.814,25.814,0,0,1,.549-5.35c2.458-11.383,0-23.657,0-23.657s-6.582-9.321-11.6-8.149a22.679,22.679,0,0,1-4.687.575c-2.933.074-5.338.21-8.57.333-3.257.124-17.751,3.292-18.391,4.949C1153.576,2179.742,1168.926,2183.058,1168.787,2183.375Z" transform="translate(-1154.893 -2133.369)" fill="#00affd"/>
        <path id="Trazado_152546" data-name="Trazado 152546" d="M1197.379,2170.817c1.787,1.319.89,13.821,7.145,21.187a47.073,47.073,0,0,1,8.6,15.394,25.831,25.831,0,0,1,.549-5.35c2.458-11.383,0-23.657,0-23.657s-6.582-9.321-11.6-8.149A22.679,22.679,0,0,1,1197.379,2170.817Z" transform="translate(-1170.327 -2133.369)" fill="#009fe6"/>
        <path id="Trazado_152547" data-name="Trazado 152547" d="M1252.023,2156.74c1.832,7.079,1.925,17.634-13.922,19.643s-23.772-7.812-28.794-15.066-5.8-8.817-12.053-13.95-6.525-11.495-5.1-13.727,2.426-3.571,2.426-5.022-1.727-2.232-2.426-1.228-3.154-2.567-4.605-5.134-1.9-3.906,0-6.473,14.173-6.138,18.861,0,1.674,8.035,11.272,10.267,10.491,9.487,11.383,12.277,2.79,7.477,9.486,7.812C1243.685,2146.395,1250.377,2150.378,1252.023,2156.74Z" transform="translate(-1166.296 -2112.39)" fill="#09005d"/>
        <path id="Trazado_152548" data-name="Trazado 152548" d="M1173.648,2434.924s.754,6.7,0,7.2-16.907,0-16.907,0-1.674-.585-.586-1.925,10.128-3.85,11.048-5.273Z" transform="translate(-1155.217 -2229.559)" fill="#1d1c2c"/>
      </g>
      <g id="Grupo_107504" data-name="Grupo 107504" transform="translate(0.356 18.334)">
        <path id="Trazado_152549" data-name="Trazado 152549" d="M1148.76,2165.436l-25.2,2.942a6.078,6.078,0,0,1-4.048-.962l-21.214-13.986-3.947,5.141s20.394,17.587,23.983,19.3,30.346,1.708,34.745-.326S1158.353,2166.507,1148.76,2165.436Z" transform="translate(-1086.884 -2145.633)" fill="#00affd"/>
        <path id="Trazado_152550" data-name="Trazado 152550" d="M1094.036,2148.982s-1.99-2.775-3-3.865-3.608-3.611-3.811-3.042,1.69,3.228,2.033,3.844-1.729-.381-3.238-1.812-2.034-2.608-2.805-2.892c-1.207-.443-.319,4.071.658,6.213s6.546,6.272,6.546,6.272Z" transform="translate(-1082.627 -2141.184)" fill="#ffc8c7"/>
      </g>
      <path id="Trazado_152551" data-name="Trazado 152551" d="M1254.933,2148.146c-3.072,0-9.44-.946-11.643-8.448-2.73-9.3-8.028-10.815-13.223-11.573-.2-.029-.411-.057-.639-.087-2.891-.383-8.271-1.1-10.849-6.767l.779-.354c2.382,5.239,7.265,5.885,10.182,6.272.233.031.451.06.651.089,5.229.762,11.048,2.394,13.92,12.178,2.714,9.244,11.983,7.8,12.375,7.739l.143.844A11.676,11.676,0,0,1,1254.933,2148.146Z" transform="translate(-1131.659 -2115.487)" fill="#09005d"/>
    </g>
    <g id="Grupo_107507" data-name="Grupo 107507" transform="translate(648.372 2115)">
      <path id="Trazado_152552" data-name="Trazado 152552" d="M863.586,2199.954s10.455-11.859,11.23-12.149,1.645.1,1.307,1.114-3.727,5.373-3.291,6.147,2.323,2.808,2.323,4.647-6.728,4.211-6.728,4.211Z" transform="translate(-750.219 -2174.363)" fill="#ffc8c7"/>
      <path id="Trazado_152553" data-name="Trazado 152553" d="M835.938,2210.581s-14.583,21.968-20.061,26.937a5.484,5.484,0,0,1-1.174.868c-3.493,1.7-24.685-2.8-30.875-4.161-1.073-.237-1.694-.38-1.694-.38l-7.977-13.958,2.183-1.81s7.234,1.479,15.1,3.36,16.284,3.989,17.283,3.655,22.883-19.052,22.883-19.052Z" transform="translate(-717.731 -2181.021)" fill="#fc6473"/>
      <path id="Trazado_152554" data-name="Trazado 152554" d="M821.395,2250.874a5.478,5.478,0,0,1-1.174.868c-3.493,1.7-24.685-2.8-30.875-4.161v-4.775a34.962,34.962,0,0,1,14,3.759C809.735,2249.7,817.109,2249.345,821.395,2250.874Z" transform="translate(-723.249 -2194.378)" fill="#ed5665"/>
      <path id="Trazado_152555" data-name="Trazado 152555" d="M798.805,2489.481a68.323,68.323,0,0,0-1.007,8.056c-.092,3.113,0,6.592,0,6.592h5.859s.549-2.014,1.373-1.739,1.282,1.739,6.317,1.739h9.522s.824-1.648-2.563-3.479-9.7-3.113-9.888-10.528S798.805,2489.481,798.805,2489.481Z" transform="translate(-726.305 -2282.96)" fill="#070157"/>
      <path id="Trazado_152556" data-name="Trazado 152556" d="M799.239,2427.53H787.751s-2.6-19.369-4.671-34.806c-1.26-9.374-2.326-17.3-2.509-18.568-.478-3.349-11.488-26.566-11.488-26.566v-34.225l17.232,2.872s13.406,48.584,14.841,54.451S799.239,2427.53,799.239,2427.53Z" transform="translate(-715.888 -2220.01)" fill="#09005d"/>
      <path id="Trazado_152557" data-name="Trazado 152557" d="M787.341,2383.634c-1.228,10.411,2.043,14.5-4.258,20.532h0c-1.26-9.374-2.326-17.3-2.509-18.568-.478-3.349-11.488-26.566-11.488-26.566v-9.471l4.549-4.7s7.1,7.539,8.175,17.95S788.569,2373.223,787.341,2383.634Z" transform="translate(-715.888 -2231.451)" fill="#060042"/>
      <path id="Trazado_152558" data-name="Trazado 152558" d="M690.926,2226.305c.5,10.633,12.129,13.955,25.065,7.753s21.076-27.58,21.076-27.58l.444-34.306s-1.445-4.9-9.711-5.407-12.43,9.441-13.026,16.44c-.583,6.84-1.955,5.62-10.828,12.721s-1.432,14.846-7.407,18.808S690.769,2222.958,690.926,2226.305Z" transform="translate(-687.476 -2166.747)" fill="#ffa368"/>
      <path id="Trazado_152559" data-name="Trazado 152559" d="M695.01,2475.061a68.341,68.341,0,0,0-5.575,5.9c-1.914,2.456-3.9,5.316-3.9,5.316l4.726,3.464s1.634-1.3,2.136-.591.006,2.16,4.067,5.137l7.679,5.629s1.639-.842-.011-4.321-5.986-8.247-1.75-14.336S695.01,2475.061,695.01,2475.061Z" transform="translate(-685.538 -2278.75)" fill="#070157"/>
      <path id="Trazado_152560" data-name="Trazado 152560" d="M727.78,2320.132a128.874,128.874,0,0,0-5.026,32.55,252.081,252.081,0,0,1-1.436,26.327l-22.45,39.77,9.026,6.36s27.066-29.137,33.05-44.455,11.727-60.552,11.727-60.552Z" transform="translate(-690.38 -2222.468)" fill="#09005d"/>
      <path id="Trazado_152561" data-name="Trazado 152561" d="M776.761,2291.038c-2.976,0-14.985,1.5-23.36,2.247-1.217.1-2.359.2-3.385.266a26.915,26.915,0,0,1-14-2.872s4.847-16.694,5.447-19.745-1.5-10.411-6.344-18.848a35.03,35.03,0,0,1-3.188-7.3c-1.856-6.214-1.325-12.07,3.188-14.776,6.283-3.769,16.873-6.282,16.873-6.282,2.226-.582,12.386.538,14.18,2.513s6.462,14,6.821,21.181-1.436,9.334-2.513,13.821S776.761,2291.038,776.761,2291.038Z" transform="translate(-702.026 -2187.389)" fill="#fc6473"/>
      <path id="Trazado_152562" data-name="Trazado 152562" d="M755.115,2290.257c-2.531,4.689-.471,9.227-1.142,13.908-1.217.1-2.359.2-3.385.266a26.916,26.916,0,0,1-14-2.872s4.847-16.694,5.447-19.746-1.5-10.411-6.344-18.848a35.03,35.03,0,0,1-3.188-7.3l4.261-2.143s1.461,8.857,5.838,11.248,3.4,8.379,8.135,10.533S758.346,2284.276,755.115,2290.257Z" transform="translate(-702.599 -2198.269)" fill="#ed5665"/>
      <path id="Trazado_152563" data-name="Trazado 152563" d="M749.969,2224.836l15.641,13.158-1.047-15.766-6.774-3.022Z" transform="translate(-708.944 -2185.804)" fill="#ffc8c7"/>
      <path id="Trazado_152564" data-name="Trazado 152564" d="M763.978,2215.549,755,2219.006l-5.618-1.164-1.023-14.094.449-2.873s11.4-2.961,12.3,1.763l.075.4c.471,2.416,1.181,5.6,1.77,8.146.427,1.849.786,3.368.944,4.021C763.949,2215.427,763.978,2215.549,763.978,2215.549Z" transform="translate(-708.36 -2178.812)" fill="#ffc8c7"/>
      <path id="Trazado_152565" data-name="Trazado 152565" d="M763.912,2212.934c-6.481,1.709-12.906-5.478-12.906-5.478l11.136-2.667C762.613,2207.2,763.323,2210.385,763.912,2212.934Z" transform="translate(-709.321 -2180.566)" fill="#edb1b0"/>
      <path id="Trazado_152566" data-name="Trazado 152566" d="M755.064,2173.916s5.583,10.244,6.391,18.143c.667,6.521-6.848,8.34-13.982,3.69,0,0-6.081,2.2-7.883-1.207s3.07-4.671,3.835-4.656c0,0-3.077-11.881,2.62-16.1S754.247,2172.325,755.064,2173.916Z" transform="translate(-705.029 -2168.49)" fill="#ffc8c7"/>
      <path id="Trazado_152567" data-name="Trazado 152567" d="M741.8,2188.929a38.93,38.93,0,0,0,5.564-10.007c2.148-5.871,6.076-5.962,6.076-5.962a6.269,6.269,0,0,0-4.623-3.968c-3.684-.837-14.093,5.462-14.093,5.462l1.762,9.585Z" transform="translate(-703.406 -2167.535)" fill="#ffa368"/>
      <path id="Trazado_152568" data-name="Trazado 152568" d="M699.459,2208.874l-1.058-.2a.328.328,0,0,0-.006.059c0-.058-.032-.27-.059-.457-.283-1.926-1.145-7.784,3.385-11.677a23.092,23.092,0,0,1,5.716-3.366c3.386-1.561,6.31-2.91,7.578-7.6,1.994-7.367,6.173-13.383,8.018-13.844l.261,1.044c-1.178.295-5.238,5.684-7.24,13.082-1.4,5.173-4.687,6.688-8.167,8.293a22.229,22.229,0,0,0-5.464,3.2c-4.08,3.507-3.284,8.924-3.022,10.7A2.509,2.509,0,0,1,699.459,2208.874Z" transform="translate(-690.094 -2168.579)" fill="#ffa368"/>
      <path id="Trazado_152569" data-name="Trazado 152569" d="M704.709,2425.986l-.609-.38c.946-1.516,23.186-37.155,24.385-38.592.839-1.462,2.518-33.467,3.439-54.619l.718.031c-.39,8.937-2.392,53.591-3.605,55.047C727.869,2388.873,704.941,2425.615,704.709,2425.986Z" transform="translate(-692.281 -2226.922)" fill="#fff"/>
      <g id="Grupo_107506" data-name="Grupo 107506" transform="translate(23.331 102.941)">
        <path id="Trazado_152570" data-name="Trazado 152570" d="M746.623,2340.789l1.756-8.429a4.949,4.949,0,0,1,5.854-3.836,4.946,4.946,0,0,1,3.836,5.855l-1.756,8.428Zm8.639-11.43a4.5,4.5,0,0,0-6.442,3.093l-1.664,7.987,8.807,1.835,1.664-7.987A4.5,4.5,0,0,0,755.262,2329.36Z" transform="translate(-731.06 -2328.419)" fill="#00affd"/>
        <path id="Trazado_152571" data-name="Trazado 152571" d="M731.075,2336.262l-8.894,27.927,6.242,1.3,3.981-28.95Z" transform="translate(-722.18 -2331.269)" fill="#8980fd"/>
        <path id="Trazado_152572" data-name="Trazado 152572" d="M753.722,2370.383l-25.374-5.287,5.947-28.541,23.467,4.889Z" transform="translate(-724.421 -2331.375)" fill="#00affd"/>
      </g>
      <path id="Trazado_152573" data-name="Trazado 152573" d="M718.6,2242.468c-5.084,8.016-12.8,26.088-11.608,27.883s25.968,21.181,25.968,21.181l5.385-5.026S720.514,2267.6,720.275,2267s10.89-17.472,12.566-23.335-3.471-11.009-6.462-10.052S719.6,2240.891,718.6,2242.468Z" transform="translate(-693.287 -2190.995)" fill="#fc6473"/>
      <path id="Trazado_152574" data-name="Trazado 152574" d="M753.232,2316.749a29.879,29.879,0,0,1,3.769,6.223c.958,2.633,1.077,6.522-.478,6.941s-6.462-.239-6.761-1.017-1.915-7.12-1.915-7.12Z" transform="translate(-708.173 -2221.239)" fill="#ffc8c7"/>
    </g>
  </g>
</svg>
