<svg xmlns="http://www.w3.org/2000/svg" width="75" height="75" viewBox="0 0 75 75">
  <g id="Grupo_107587" data-name="Grupo 107587" transform="translate(-261.013 -265.811)">
    <g id="Grupo_107586" data-name="Grupo 107586" transform="translate(261.013 265.811)">
      <g id="Grupo_107573" data-name="Grupo 107573" transform="translate(0 38.286)">
        <g id="Grupo_107572" data-name="Grupo 107572">
          <g id="Grupo_107571" data-name="Grupo 107571">
            <path id="Trazado_152657" data-name="Trazado 152657" d="M335.147,307.862a5.548,5.548,0,0,0-5.548-3.6,12.291,12.291,0,0,0-3.01.419c-1.393.356-2.824.759-4.21,1.147l-.044.014a81.342,81.342,0,0,1-9.735,2.3.915.915,0,0,1-.116.009.785.785,0,0,1-.776-.663l-.026-.174c-.014-.1-.027-.2-.051-.305-.7-3.029-3.615-6.266-9.723-6.266a19.831,19.831,0,0,0-2.5.167,18.468,18.468,0,0,1-2.286.159,6.468,6.468,0,0,1-5.865-2.807,7.623,7.623,0,0,0-2.492-2.2,10.073,10.073,0,0,0-4.369-.869,25.017,25.017,0,0,0-9.169,2.109.8.8,0,0,1-.307.063.788.788,0,0,1-.786-.786v-6.7a1.609,1.609,0,0,0-1.607-1.607h-9.9a1.611,1.611,0,0,0-1.609,1.607v33.5a1.611,1.611,0,0,0,1.609,1.607h9.9a1.609,1.609,0,0,0,1.607-1.607v-4.664a.785.785,0,0,1,.786-.786.842.842,0,0,1,.242.037c6.537,2.112,22.319,7.019,27.656,7.019,5.7,0,26.073-7.4,31.909-11.134C335.3,313.484,337.05,312.364,335.147,307.862Zm-64.231,13.125a.785.785,0,0,1-.786.784h-5.117a.784.784,0,0,1-.784-.784V292.273a.785.785,0,0,1,.784-.786h5.117a.785.785,0,0,1,.786.786Zm61.439-9.453c-6.411,3.731-25.183,10.237-29.54,10.237-5.5,0-25.841-6.59-28.142-7.341a.788.788,0,0,1-.542-.747V301.876a.785.785,0,0,1,.411-.689,22.567,22.567,0,0,1,9.856-2.78,6.963,6.963,0,0,1,2.974.557,5.128,5.128,0,0,1,1.4,1.34l.026.031c1.393,1.667,3.3,3.949,8.38,3.949a21.114,21.114,0,0,0,2.635-.179,16.467,16.467,0,0,1,2.129-.145c2.582,0,4.546.706,5.681,2.04a3.98,3.98,0,0,1,.954,2.172.787.787,0,0,1-.5.808c-.307.116-.634.242-.975.373A20.21,20.21,0,0,1,301.327,311a2.49,2.49,0,0,1-.585-.063c-1.217-.3-4.774-1.214-10.582-2.71l-.007,0-3.687-.951-.021,0-.162-.043-.005.017a1.6,1.6,0,0,0-.794,3.075l-.005.019,3.84.992.029.009h0c3.9,1.007,9.09,2.342,10.619,2.721a5.465,5.465,0,0,0,1.319.147c2.18,0,4.832-1.026,6.966-1.853l.073-.029c.581-.225,1.13-.44,1.6-.6h0a1.455,1.455,0,0,1,.147-.07.737.737,0,0,1,.24-.056A65.132,65.132,0,0,0,323.2,308.94c1.553-.438,2.847-.8,4.185-1.142a9.161,9.161,0,0,1,2.216-.332,2.415,2.415,0,0,1,2.584,1.65,9.994,9.994,0,0,1,.539,1.565A.787.787,0,0,1,332.355,311.534Z" transform="translate(-261.013 -288.272)" fill="#ef6c00"/>
          </g>
        </g>
      </g>
      <g id="Grupo_107575" data-name="Grupo 107575" transform="translate(45.463 9.571)">
        <g id="Grupo_107574" data-name="Grupo 107574">
          <path id="Trazado_152658" data-name="Trazado 152658" d="M294.079,298.571a1.611,1.611,0,0,1-1.607-1.609v-.344a.786.786,0,0,0-.552-.75,6.453,6.453,0,0,1-4.13-3.8,1.612,1.612,0,0,1,1.5-2.177,1.617,1.617,0,0,1,1.505,1.04,3.6,3.6,0,0,0,5.5,1.144,2.83,2.83,0,0,0,.96-2.1c0-1.723-2.315-2.906-3.726-3.465l-.026-.012c-5.066-2-5.819-4.918-5.819-6.477a6,6,0,0,1,2.018-4.483,6.553,6.553,0,0,1,2.243-1.311.785.785,0,0,0,.523-.74v-.453a1.607,1.607,0,1,1,3.215,0v.341a.789.789,0,0,0,.552.752,6.433,6.433,0,0,1,4.13,3.8,1.608,1.608,0,0,1-.936,2.071,1.613,1.613,0,0,1-.566.1h0a1.615,1.615,0,0,1-1.505-1.038,3.6,3.6,0,0,0-5.5-1.142,2.822,2.822,0,0,0-.961,2.1c0,1.727,2.354,2.92,3.759,3.479l0,0,.026.01c5.037,1.991,5.789,4.9,5.789,6.467a6,6,0,0,1-2.015,4.48,6.577,6.577,0,0,1-2.248,1.314.785.785,0,0,0-.523.74v.452A1.611,1.611,0,0,1,294.079,298.571Z" transform="translate(-287.685 -271.426)" fill="#ef6c00"/>
        </g>
      </g>
      <g id="Grupo_107577" data-name="Grupo 107577" transform="translate(28.714)">
        <g id="Grupo_107576" data-name="Grupo 107576">
          <path id="Trazado_152659" data-name="Trazado 152659" d="M300.734,312.1a23.235,23.235,0,0,1-22.834-18.01,1.608,1.608,0,1,1,3.135-.721,19.929,19.929,0,0,0,.648,2.219A20.052,20.052,0,1,0,294,270.163a1.6,1.6,0,0,1-.532.092h0a1.61,1.61,0,0,1-.529-3.13,23.617,23.617,0,0,1,7.8-1.314,23.145,23.145,0,1,1,0,46.287Z" transform="translate(-277.859 -265.811)" fill="#ef6c00"/>
        </g>
      </g>
      <g id="Grupo_107579" data-name="Grupo 107579" transform="translate(28.715 2.393)">
        <g id="Grupo_107578" data-name="Grupo 107578">
          <path id="Trazado_152660" data-name="Trazado 152660" d="M279.466,272.823a1.609,1.609,0,0,1-1.607-1.607v-2.393a1.607,1.607,0,1,1,3.215,0v2.393A1.609,1.609,0,0,1,279.466,272.823Z" transform="translate(-277.859 -267.215)" fill="#ef6c00"/>
        </g>
      </g>
      <g id="Grupo_107581" data-name="Grupo 107581" transform="translate(28.715 14.357)">
        <g id="Grupo_107580" data-name="Grupo 107580">
          <path id="Trazado_152661" data-name="Trazado 152661" d="M279.466,279.842a1.609,1.609,0,0,1-1.607-1.607v-2.393a1.607,1.607,0,0,1,3.215,0v2.393A1.609,1.609,0,0,1,279.466,279.842Z" transform="translate(-277.859 -274.234)" fill="#ef6c00"/>
        </g>
      </g>
      <g id="Grupo_107583" data-name="Grupo 107583" transform="translate(33.501 9.571)">
        <g id="Grupo_107582" data-name="Grupo 107582">
          <path id="Trazado_152662" data-name="Trazado 152662" d="M282.274,274.642a1.608,1.608,0,0,1,0-3.216h2.392a1.608,1.608,0,1,1,0,3.216Z" transform="translate(-280.667 -271.426)" fill="#ef6c00"/>
        </g>
      </g>
      <g id="Grupo_107585" data-name="Grupo 107585" transform="translate(21.537 9.571)">
        <g id="Grupo_107584" data-name="Grupo 107584">
          <path id="Trazado_152663" data-name="Trazado 152663" d="M275.255,274.642a1.608,1.608,0,0,1,0-3.216h2.391a1.608,1.608,0,1,1,0,3.216Z" transform="translate(-273.648 -271.426)" fill="#ef6c00"/>
        </g>
      </g>
    </g>
  </g>
</svg>
