<svg xmlns="http://www.w3.org/2000/svg" width="411.438" height="441.028" viewBox="0 0 411.438 441.028">
  <path id="Sustracción_4" data-name="Sustracción 4" d="M8186.927,12140.026H8033.5c-.619-9.239-.932-18.639-.932-27.938a418.791,418.791,0,0,1,2.117-42.033c1.385-13.666,3.476-27.4,6.215-40.822,2.7-13.247,6.1-26.5,10.107-39.405,3.958-12.76,8.6-25.473,13.793-37.783a413.294,413.294,0,0,1,218.38-219.2c12.29-5.24,24.979-9.928,37.717-13.933,12.879-4.051,26.117-7.5,39.347-10.255,13.4-2.79,27.119-4.934,40.771-6.371A418.675,418.675,0,0,1,8443,11700v152.875a260.96,260.96,0,0,0-51.952,5.545,257.835,257.835,0,0,0-92.121,39.262,259.962,259.962,0,0,0-93.27,113.865,257.872,257.872,0,0,0-14.993,48.494,262.175,262.175,0,0,0-3.738,79.984Z" transform="translate(-8032.063 -11699.498)" fill="#f0ebff" stroke="rgba(0,0,0,0)" stroke-miterlimit="10" stroke-width="1" opacity="0.637"/>
</svg>
