<svg xmlns="http://www.w3.org/2000/svg" width="108" height="108" viewBox="0 0 108 108">
  <g id="Grupo_107624" data-name="Grupo 107624" transform="translate(-746 -1569)">
    <circle id="Elipse_5074" data-name="Elipse 5074" cx="54" cy="54" r="54" transform="translate(746 1569)" fill="#3e2ea6"/>
    <g id="Grupo_107427" data-name="Grupo 107427" transform="translate(142.558 972.989)">
      <g id="Grupo_107426" data-name="Grupo 107426" transform="translate(625.442 609.011)">
        <path id="Trazado_149891" data-name="Trazado 149891" d="M688.836,676.733l0-.069c-.034-.6-.808-14.8-2.438-17.931-1.453-2.786-4.795-5.044-10.841-7.315l0-.005-.015-.041-.041-.015c-1.025-.379-2.158-.775-3.462-1.207-.58-.19-1.153-.378-1.707-.552l-.069-.022-.041.056a1.549,1.549,0,0,1-.455.419l-.038.024-.008.045a12.035,12.035,0,0,1-.451,1.92,16.877,16.877,0,0,1-2.335,4.533,20.383,20.383,0,0,1-1.6,1.975c-.789-1.14-4.809-6.277-4.985-6.5l-.029-.04h-6.355l-.029.04c-.178.225-4.2,5.363-4.985,6.5a20.914,20.914,0,0,1-1.728-2.154,16.453,16.453,0,0,1-2.208-4.357,12.033,12.033,0,0,1-.471-2.04l-.005-.054-.05-.02a1.543,1.543,0,0,1-.442-.3l-.042-.04-.056.017c-.541.17-1.1.35-1.7.55-1.244.41-2.411.816-3.464,1.207l-.041.015-.015.043v0c-6.047,2.274-9.392,4.529-10.842,7.315-1.631,3.13-2.4,17.327-2.435,17.931l0,.069.063.026a30.559,30.559,0,0,0,3.983,1.3l-.005.059.079.019c6.263,1.594,15.757,2.552,26.046,2.635.1,0,.2,0,.295,0h2.471c.1,0,.2,0,.295,0,10.29-.083,19.785-1.042,26.045-2.635l.082-.019-.005-.059a30.8,30.8,0,0,0,3.985-1.3Zm-33.963-15.971L652,678.406c-.453.019-.931.028-1.43.028h0c-8.33,0-20.273-2.554-20.376-2.579-.824-.213-1.579-.434-2.249-.659.484-6.474,1.281-13.9,2.079-15.429,1.168-2.244,4.131-4.16,9.609-6.215a2.478,2.478,0,0,0,.364-.174c.732-.268,1.581-.563,2.666-.924a18.759,18.759,0,0,0,2.722,5.417,21.448,21.448,0,0,0,2.97,3.389l.73.637.056-.029a1.449,1.449,0,0,1,.613-.166l.054,0,.407-.73a30.91,30.91,0,0,1,2.191-3.222ZM686.33,675.2c-.659.22-1.415.442-2.246.659-.106.026-13.858,2.521-21.809,2.545L659.4,660.761l2.468-3.02c.612.8,1.082,1.474,1.37,1.908s.494.764.619.973c.069.115.121.2.153.262l.04.068.352.628.015.029.027.01a1.585,1.585,0,0,1,.5.369l.063.07.905-.788.01-.011a21.585,21.585,0,0,0,2.97-3.389,18.757,18.757,0,0,0,2.722-5.419c1.025.341,1.9.649,2.685.932a2.008,2.008,0,0,0,.345.169c5.477,2.054,8.436,3.971,9.61,6.215C685.05,661.293,685.846,668.722,686.33,675.2Z" transform="translate(-625.442 -597.779)" fill="#dad6f7"/>
        <path id="Trazado_149892" data-name="Trazado 149892" d="M633.328,644.107a4.242,4.242,0,0,0,3.482,3.03,13.853,13.853,0,0,0,1.332,1.908,14.115,14.115,0,0,0,4.94,3.76c.066.031.138.06.209.086.033.014.068.027.1.042a15.088,15.088,0,0,0,12.219,6.543,14.532,14.532,0,0,0,9.418-3.457,20.024,20.024,0,0,0,5.986-9.344h.033a4.1,4.1,0,0,0,2.413-.848c2.263-1.687,3.593-5.733,3.025-9.211a4.51,4.51,0,0,0-2.209-3.527,3.78,3.78,0,0,0-.713-.274v-4.032c0-.158,0-.318-.009-.476v-.013a22.4,22.4,0,0,0-3.242-8.767,15.192,15.192,0,0,0-7.845-6.042c-.069-.022-.142-.045-.209-.068-.171-.056-.352-.116-.535-.167a24.522,24.522,0,0,0-6.379-.83h-.04a25.6,25.6,0,0,0-5.21.512c-.049.012-.1.02-.151.032s-.1.02-.152.033c-.245.056-.483.116-.664.165a15.433,15.433,0,0,0-7.327,4.359,19.078,19.078,0,0,0-4.175,7.78v.01a21.625,21.625,0,0,0-.314,3.472v2.167l.052.028c.748.393,1.173,2.2,1.179,2.219a22.246,22.246,0,0,0,2.011,5.961l.055.094.087-.065a1.532,1.532,0,0,1,.619-.269l.087-.014-.006-.088a33.74,33.74,0,0,1,.424-9.006,11.472,11.472,0,0,1,.766-2.029,59.02,59.02,0,0,0,18.336-6.57,22.986,22.986,0,0,1,8.493,7.683,70,70,0,0,1,.08,9.9l0,.1h.1a1.5,1.5,0,0,1,.706.185l.083.047.047-.086a18.052,18.052,0,0,0,1.488-3.933,1.807,1.807,0,0,1,1.164.1,2.451,2.451,0,0,1,.936,1.784c.471,2.9-.7,5.925-2.083,6.93a2.367,2.367,0,0,1-1.356.383,1.91,1.91,0,0,1-1.156-.321l-.126-.1-.185.986a23.327,23.327,0,0,1-.772,2.356c-2.412,6.254-7.166,9.987-12.724,9.987a12.157,12.157,0,0,1-8.144-3.162,41.4,41.4,0,0,0,4.925.421,1.5,1.5,0,0,0,1.287.715H657.2a1.473,1.473,0,0,0,1.5-1.44v-.727a1.473,1.473,0,0,0-1.5-1.442h-3.519a1.492,1.492,0,0,0-1.359.836c-2.779-.1-6.506-.623-8.309-1.459a11.81,11.81,0,0,1-5.128-4.479,3.485,3.485,0,0,0,.8-2.255v-.008l-1.623-8.7a3.971,3.971,0,0,0-2.606-3.225c.4-7.846,3.5-20.909,19.765-20.909h.121c12.054.047,18.662,6.936,19.636,20.466v.014a.831.831,0,0,0,.844.816.844.844,0,0,0,.83-.678l.021.005v-.124a27.589,27.589,0,0,0-2.6-12.519,17.786,17.786,0,0,0-6.065-6.868,22.385,22.385,0,0,0-11.968-3.468c-.365,0-.631.011-.792.022-.208-.014-.548-.027-.983-.027-4.756,0-20.279,1.716-20.485,23.774a3.621,3.621,0,0,0-1.827,3.76Z" transform="translate(-623.655 -609.011)" fill="#dad6f7"/>
        <path id="Trazado_149893" data-name="Trazado 149893" d="M672.22,661.733a2.319,2.319,0,0,0-2.475-2.16l-10.951.518a2.329,2.329,0,0,0-2.261,2.388l.3,6.216a2.318,2.318,0,0,0,2.357,2.167q.061,0,.119,0l10.949-.518a2.331,2.331,0,0,0,2.261-2.39Zm-1.835,6.319a.216.216,0,0,1-.06.16.255.255,0,0,1-.168.075l-10.947.517-.013,0a.232.232,0,0,1-.239-.213l-.294-6.216a.215.215,0,0,1,.061-.161.241.241,0,0,1,.166-.074l10.949-.521h.013a.233.233,0,0,1,.236.213Z" transform="translate(-616.834 -595.012)" fill="#dad6f7"/>
      </g>
    </g>
  </g>
</svg>
