<svg xmlns="http://www.w3.org/2000/svg" width="454" height="353.249" viewBox="0 0 454 353.249">
  <g id="Grupo_107422" data-name="Grupo 107422" transform="translate(-821.5 -407.751)">
    <g id="freepik--Characters--inject-5" transform="translate(4966.592 945.034)">
      <path id="Trazado_144964" data-name="Trazado 144964" d="M-3922.09-322.284s3.37-1.73,6.34-1.08,13.75,7.68,13.75,7.68l8.69-1.62,5.16,24.56-33.94,14.06Z" fill="#ae7461"/>
      <path id="Trazado_144965" data-name="Trazado 144965" d="M-3947.09-313.744s7.77-1,10.58-2.39,9.52-7.36,10.92-7.25,6.5,1.08,6.5,1.08l-2.06,6.17s10.17,6.17,13.2,8.44,12.55,12.44,13,14.93-.32,5.41-1.51,6.38-5.52-1-5.52-1a5.379,5.379,0,0,1-1,4.43c-1.62,2.17-5.4,1.41-5.4,1.41s-.33,3.57-2.06,4.22-5.63-1.3-5.63-1.3-1.17,3-2.58,3.35-5.42-2-5.42-2-17.31-12.44-21.2-14.28-5.09-1.95-5.09-1.95Z" fill="#ffbe9d"/>
      <path id="Trazado_144966" data-name="Trazado 144966" d="M-3916.09-278.574c-.07,0-.12-.3-.3-.76a13.025,13.025,0,0,0-.88-1.73,10.619,10.619,0,0,1-1.33-2.46,6.185,6.185,0,0,1,1.79,2.2,6.763,6.763,0,0,1,.77,1.89C-3915.95-278.9-3916.03-278.564-3916.09-278.574Z" fill="#eb996e"/>
      <path id="Trazado_144967" data-name="Trazado 144967" d="M-3908.9-280.674a27.9,27.9,0,0,1-2.19-3.27c-1.18-1.8-2.45-3-2.36-3.12a7.665,7.665,0,0,1,2.8,2.83A10.677,10.677,0,0,1-3908.9-280.674Z" fill="#eb996e"/>
      <path id="Trazado_144968" data-name="Trazado 144968" d="M-3901.96-286.924c-.15,0-.63-1.83-1.83-3.85s-2.57-3.37-2.46-3.48a10.634,10.634,0,0,1,4.29,7.33Z" fill="#eb996e"/>
      <path id="Trazado_144969" data-name="Trazado 144969" d="M-3907.03-300.424a9.715,9.715,0,0,1,.26,5.84,12.7,12.7,0,0,1-.2-2.92A13.454,13.454,0,0,1-3907.03-300.424Z" fill="#eb996e"/>
      <path id="Trazado_144970" data-name="Trazado 144970" d="M-3932.21-310.164s2.7-8.65,3.67-9.74,10-3.46,10-3.46l2.81,7.25-2,2.12-4.33-.28S-3924.75-307.134-3932.21-310.164Z" fill="#ae7461"/>
      <path id="Trazado_144971" data-name="Trazado 144971" d="M-3948.81-293.044s-1.24.95,0,3.22,4.59.65,5.67,0c0,0-1.62,3.79.43,5a8.086,8.086,0,0,0,4.55.86s-.11,2.27,2.81,3.79,3.68,0,3.68,0,.32,3.78,3.67,4.11,4.54-.83,4.54-.83l-1.51-2.24s1.95-4,.44-5.69a5.221,5.221,0,0,0-4-1.52s.67-3.51-1.26-4.49a3.55,3.55,0,0,0-4.89,1.137,3.353,3.353,0,0,0-.23.433s-.22-3.85-3-3.76a6.259,6.259,0,0,0-4.33,1.81Z" fill="#ae7461"/>
      <path id="Trazado_144972" data-name="Trazado 144972" d="M-3934.92-289.284a8.228,8.228,0,0,1-1.29,2.89,8.371,8.371,0,0,1-1.89,2.52,11.34,11.34,0,0,1,1.44-2.79A11.562,11.562,0,0,1-3934.92-289.284Z" fill="#6f4439"/>
      <path id="Trazado_144973" data-name="Trazado 144973" d="M-3928.47-285.874a7.58,7.58,0,0,1-1.47,3,7.756,7.756,0,0,1-2.26,2.46q1.794-2.773,3.73-5.45Z" fill="#6f4439"/>
      <path id="Trazado_144974" data-name="Trazado 144974" d="M-3995.48-245.054h-16.41l-4.2,59.68h16.46c2.8-9.09,9.8-56.45,9.8-56.45Z" fill="#263238"/>
      <path id="Trazado_144975" data-name="Trazado 144975" d="M-4088.41-245.054s-10.51,24.63-9.46,34.6,6.95,25.08,6.95,25.08h81.28a188.291,188.291,0,0,0,4-20.64c1.76-12.32,6.48-39,6.48-39Z" fill="#263238"/>
      <path id="Trazado_144976" data-name="Trazado 144976" d="M-3981.01-482.744c-2.75-3.47-6.14-6.8-6.84-11.17-.65-4,1.11-8.4-.69-12-2.22-4.49-8.58-5.36-11.34-9.53-1.33-2-1.65-4.58-3-6.61-2.24-3.46-6.86-4.57-11-4.34s-8.08,1.51-12.21,1.65c-5.66.12-11.39-2-16.88-.65-6.06,1.49-10,6.6-14.11,11.53l-5.36,5.69a22.051,22.051,0,0,1-3.51,2.58c-2.2,1.27-4.68,2.1-6.6,3.77a9.945,9.945,0,0,0,0,14.41,10.69,10.69,0,0,0-7.7,10.12c0,2.51,1,4.91,1.58,7.34s1,5.12-.15,7.37-4.13,3.68-6.26,2.35a11.28,11.28,0,0,0,5.76,7.78,6.709,6.709,0,0,1-4.61,1.78c4.06,11,16.23,17.21,27.9,17.83s23.06-3.28,34.1-7.12l31.83-6.67c2.79-.5,4.1-3.8,4.19-6.64s-.48-5.81.66-8.41c1.55-3.56,5.86-5.28,7.48-8.82C-3975.97-474.564-3978.27-479.254-3981.01-482.744Z" fill="#263238"/>
      <path id="Trazado_144977" data-name="Trazado 144977" d="M-4056.75-457.574c-1.94-7.21-3.85-14.47-4.52-21.91s0-15.12,2.9-22c.45-1,4.18-8,5.3-7.81.8.12-1.61,6.65-1.24,7.37,3.54,6.86,4.18,14.93,3.16,22.59a100.991,100.991,0,0,1-5.6,21.74" fill="#263238"/>
      <path id="Trazado_144978" data-name="Trazado 144978" d="M-4056.02-486.064c.35-18.73,11.55-34.13,30.26-33.25l1.72.18a33.479,33.479,0,0,1,30,34.11c-.4,16.23-1,34.16-2.06,42.78-2.11,17.85-20.28,18.75-20.28,18.75l-.49,29.48-42.54-29.47Z" fill="#ffbe9d"/>
      <path id="Trazado_144979" data-name="Trazado 144979" d="M-4016.41-423.494a43.449,43.449,0,0,1-22.54-9.33s4.19,15.1,22.19,15.37Z" fill="#eb996e"/>
      <path id="Trazado_144980" data-name="Trazado 144980" d="M-4000.26-471.164a2.57,2.57,0,0,1-2.74,2.31,2.441,2.441,0,0,1-2.384-2.495c0-.029,0-.057,0-.085a2.569,2.569,0,0,1,2.73-2.32,2.47,2.47,0,0,1,2.392,2.546Z" fill="#263238"/>
      <path id="Trazado_144981" data-name="Trazado 144981" d="M-3998.67-478c-.35.3-2.13-1.34-4.88-1.62s-4.91.88-5.17.51c-.13-.16.26-.73,1.2-1.28a7.145,7.145,0,0,1,4.18-.82,6.707,6.707,0,0,1,3.84,1.71C-3998.72-478.744-3998.5-478.134-3998.67-478Z" fill="#263238"/>
      <path id="Trazado_144982" data-name="Trazado 144982" d="M-4025.09-471.164a2.56,2.56,0,0,1-2.73,2.31,2.45,2.45,0,0,1-2.393-2.506c0-.025,0-.049,0-.074a2.57,2.57,0,0,1,2.73-2.32,2.47,2.47,0,0,1,2.392,2.546Z" fill="#263238"/>
      <path id="Trazado_144983" data-name="Trazado 144983" d="M-4025.69-479.744c-.35.3-2.14-1.33-4.89-1.61s-4.9.88-5.16.51c-.13-.17.25-.73,1.2-1.28a7.056,7.056,0,0,1,4.18-.82,6.771,6.771,0,0,1,3.84,1.7C-4025.75-480.494-4025.52-479.864-4025.69-479.744Z" fill="#263238"/>
      <path id="Trazado_144984" data-name="Trazado 144984" d="M-4018.09-457.584c0-.16,1.74-.27,4.54-.34.71,0,1.39-.06,1.56-.53a3.622,3.622,0,0,0-.25-2.13q-.72-2.659-1.51-5.56c-2.08-7.91-3.51-14.38-3.19-14.46s2.27,6.26,4.34,14.17q.75,2.92,1.42,5.58a4,4,0,0,1,.08,2.79,1.77,1.77,0,0,1-1.26.91,4.626,4.626,0,0,1-1.21,0C-4016.34-457.254-4018.09-457.424-4018.09-457.584Z" fill="#263238"/>
      <path id="Trazado_144985" data-name="Trazado 144985" d="M-4026.35-456.534c.45,0,.14,3,2.47,5.38s5.54,2.4,5.52,2.82c0,.19-.77.5-2.12.4a7.507,7.507,0,0,1-4.62-2.18,6.539,6.539,0,0,1-1.88-4.5C-4026.96-455.874-4026.55-456.574-4026.35-456.534Z" fill="#263238"/>
      <path id="Trazado_144986" data-name="Trazado 144986" d="M-4024.67-490.894c-.35.72-3.05.08-6.32.13s-6,.65-6.32-.07c-.15-.34.37-1,1.5-1.6a11,11,0,0,1,9.63-.05C-4025.09-491.884-4024.51-491.234-4024.67-490.894Z" fill="#263238"/>
      <path id="Trazado_144987" data-name="Trazado 144987" d="M-3998.84-487.254c-.55.57-2.38-.28-4.65-.55s-4.24,0-4.62-.72c-.16-.34.21-.93,1.11-1.43a6.8,6.8,0,0,1,7.47,1C-3998.79-488.2-3998.6-487.534-3998.84-487.254Z" fill="#263238"/>
      <path id="Trazado_144988" data-name="Trazado 144988" d="M-4055.96-472.674c-.29-.16-11.9-4.93-12.8,7.33s11.6,10.6,11.67,10.29S-4055.96-472.674-4055.96-472.674Z" fill="#ffbe9d"/>
      <path id="Trazado_144989" data-name="Trazado 144989" d="M-4060.52-459.974c0-.05-.22.13-.59.27a2.161,2.161,0,0,1-1.6-.09c-1.26-.56-2.2-2.7-2.1-4.92a7.066,7.066,0,0,1,.82-3,2.48,2.48,0,0,1,1.73-1.52,1.08,1.08,0,0,1,1.21.68c.14.35.05.59.11.62s.28-.19.22-.7a1.385,1.385,0,0,0-.43-.81,1.642,1.642,0,0,0-1.16-.4,3,3,0,0,0-2.37,1.74,7.412,7.412,0,0,0-1,3.36c-.1,2.48,1,4.89,2.73,5.53a2.3,2.3,0,0,0,2-.18C-4060.56-459.684-4060.48-459.954-4060.52-459.974Z" fill="#eb996e"/>
      <path id="Trazado_144990" data-name="Trazado 144990" d="M-4000.7-505.854c2.06-1-3.49-7.78-8.22-10.31-7.16-3.82-18.29-6.6-25.21-5.11-8.34,1.79-15.4,5.43-20,12.61s-6.69,15.77-7,24.29c-.1,2.6,0,5.32,1.24,7.61,1.54,2.82,4.72,4.74,4.33,8.47a5.171,5.171,0,0,0,1,3.83c2.09,2.53,5,.46,6.39-1.7,3-4.64,3.67-10.35,4.26-15.84.42-3.9.84-7.89,0-11.72-.47-2.08-1.31-4.08-1.66-6.18a7.4,7.4,0,0,1,1.26-6.07,7.716,7.716,0,0,1,1.06-1,12.831,12.831,0,0,1,12.85-1.6c6.75,2.89,18.31,7.3,21.55,5.16,4.65-3.09,5.85-5.22,5.85-5.22Z" fill="#263238"/>
      <path id="Trazado_144991" data-name="Trazado 144991" d="M-4033.39-522.9c6.89-1.82,14.56-1.21,20.66,2.47,3.23,2,6.08,4.93,6.87,8.63s-1.05,8.06-4.64,9.26l-.25.14c-5.35,1.42-8.7.5-13.8-1.64-4.3-1.8-8-4.76-12.33-6.55a25,25,0,0,0-14.57-1.36C-4046.41-516.994-4040.27-521.084-4033.39-522.9Z" fill="#263238"/>
      <path id="Trazado_144992" data-name="Trazado 144992" d="M-4030.28-525.034a5.31,5.31,0,0,1,1.25.13,19.238,19.238,0,0,1,3.3.89,21.255,21.255,0,0,1,4.52,2.33,17.9,17.9,0,0,1,4.5,4.31,16.73,16.73,0,0,1,2.47,5.72,29.447,29.447,0,0,1,.76,5c.1,1.44.1,2.61.09,3.41a5.955,5.955,0,0,1-.09,1.25,5.64,5.64,0,0,1-.11-1.25c-.05-.8-.11-2-.26-3.38a33.722,33.722,0,0,0-.85-4.93,17.021,17.021,0,0,0-2.44-5.54,17.635,17.635,0,0,0-4.35-4.21,21.872,21.872,0,0,0-4.38-2.38A44.949,44.949,0,0,0-4030.28-525.034Z" fill="#455a64"/>
      <path id="Trazado_144993" data-name="Trazado 144993" d="M-4018.99-525.744a4.813,4.813,0,0,1,1.06.29,9.219,9.219,0,0,1,1.21.46l1.53.77a15.864,15.864,0,0,1,6.36,7.48,18.687,18.687,0,0,1,.9,2.7,18.107,18.107,0,0,1,.4,2.62,17.831,17.831,0,0,1,.05,2.39,16.8,16.8,0,0,1-.28,2.07,11.254,11.254,0,0,1-.46,1.66,7.533,7.533,0,0,1-.49,1.19,4.583,4.583,0,0,1-.57,1,21.929,21.929,0,0,0,1.16-3.87,19.157,19.157,0,0,0,.21-2,21.083,21.083,0,0,0-.09-2.33,20.393,20.393,0,0,0-.42-2.54,21.277,21.277,0,0,0-.89-2.61,16.255,16.255,0,0,0-6.07-7.37l-1.47-.83a11.02,11.02,0,0,0-1.16-.53A3.9,3.9,0,0,1-4018.99-525.744Z" fill="#455a64"/>
      <path id="Trazado_144994" data-name="Trazado 144994" d="M-4010.99-396.974c0,1.69,8.43,38.73,11.66,47.83s13.45,100.34,12.1,106.84-4.84,6.24-4.84,6.24-82.58-5.2-91.46-4.42-12.64.52-14.79-9.62.06-62.83-1.82-75.57-1.9-18.91-2.63-37.83c-.63-16.41,3.1-29.56,10.9-39.06s25.07-19.09,25.07-19.09l6.13-8.94,43.34,22.93,1-5.22,2.63,8.12Z" fill="#455a64"/>
      <g id="Grupo_88568" data-name="Grupo 88568" opacity="0.3">
        <path id="Trazado_144995" data-name="Trazado 144995" d="M-3992.36-284.064c-.73-1.84-3.07-2.31-5-2.52-18.37-2-37.48-6.63-50.9-19.33-5.24-5-9.38-11-13.37-17-8.72-13.18-16.91-26.7-25.1-40.22l-6.36,2.39c3.91,19.08,7.75,32.89,14.1,48.53s11.29,30.82,27.39,35.94c10.41,3.31,30.18.77,41.07-.08a64.331,64.331,0,0,0,13.44-2.1,9,9,0,0,0,3.66-1.86A3.61,3.61,0,0,0-3992.36-284.064Z"/>
      </g>
      <path id="Trazado_144996" data-name="Trazado 144996" d="M-4095.36-365.744c.47.85,37.22,79.35,53.63,82.58s67.41,4,77.36,2.09,19.69-3.63,19.69-3.63,7.21-17.12.63-31.7l-13.7.43s-38.09-2.06-43.47-3.53-10-6.51-14.87-6.24l-29-67.43s-18.83-17.49-32.28-12.11S-4099.31-372.744-4095.36-365.744Z" fill="#455a64"/>
      <path id="Trazado_144997" data-name="Trazado 144997" d="M-3956.69-281.964a5.881,5.881,0,0,1,.27-1.32c.22-.84.49-2.06.77-3.57s.55-3.33.73-5.36a56.941,56.941,0,0,0,.14-6.62,54.222,54.222,0,0,0-1.86-11.86c-.41-1.49-.78-2.68-1.07-3.5a7.922,7.922,0,0,1-.38-1.29,6.593,6.593,0,0,1,.57,1.22,35.511,35.511,0,0,1,1.23,3.46,48.254,48.254,0,0,1,2,11.95,53.563,53.563,0,0,1-.18,6.68,46.684,46.684,0,0,1-.85,5.39,33.919,33.919,0,0,1-.94,3.55A7.689,7.689,0,0,1-3956.69-281.964Z" fill="#263238"/>
      <path id="Trazado_144998" data-name="Trazado 144998" d="M-4045.09-393.154s.19.4.55,1.19l1.54,3.52,5.91,13.5c5.06,11.71,12.33,28.56,21.21,49.13l-.2-.12a12.528,12.528,0,0,1,6.43,2c2,1.1,3.93,2.38,6.05,3.35a20.244,20.244,0,0,0,6.9,1.6c2.41.29,4.87.5,7.37.72,10,.82,20.59,1.48,31.62,2.09h0l13.7-.44h.17l.07.15a35.272,35.272,0,0,1,2.68,15.72,51.442,51.442,0,0,1-3.36,16.19v.13h-.14l-8.71,1.61-9.54,1.76a64.318,64.318,0,0,1-9.54,1c-6.34.28-12.58.31-18.72.28s-12.16-.18-18.06-.4-11.66-.51-17.29-.94c-2.81-.2-5.58-.47-8.32-.77a58.5,58.5,0,0,1-8-1.34,14.154,14.154,0,0,1-3.49-2,30.8,30.8,0,0,1-3-2.6,63.435,63.435,0,0,1-5.09-5.74,211.507,211.507,0,0,1-15.44-23.22c-8.61-14.72-14.83-27.05-19.1-35.57-2.12-4.27-3.73-7.6-4.81-9.87s-1.61-3.47-1.61-3.47.16.29.44.87.72,1.44,1.27,2.56l4.89,9.82c4.33,8.49,10.59,20.79,19.24,35.47a211.207,211.207,0,0,0,15.38,23.11,62.5,62.5,0,0,0,5.06,5.69,29.736,29.736,0,0,0,2.92,2.56,13.541,13.541,0,0,0,3.38,1.94,58.857,58.857,0,0,0,7.95,1.3c2.72.3,5.49.56,8.3.76,5.61.42,11.38.72,17.27.93s11.92.35,18,.38,12.37,0,18.69-.29a64.6,64.6,0,0,0,9.47-1l9.53-1.76,8.72-1.61-.2.16a51.013,51.013,0,0,0,3.33-16,34.872,34.872,0,0,0-2.69-15.49l.24.15-13.7.43h0c-11-.63-21.62-1.29-31.63-2.13-2.5-.22-5-.44-7.38-.73-1.22-.14-2.42-.29-3.61-.52a13.339,13.339,0,0,1-3.42-1.13c-2.16-1-4.1-2.29-6.08-3.38a12.1,12.1,0,0,0-6.2-1.93h-.14l-.06-.13c-8.81-20.61-16-37.48-21-49.2l-5.75-13.53-1.49-3.54C-4044.9-392.744-4045.09-393.154-4045.09-393.154Z" fill="#263238"/>
      <path id="Trazado_144999" data-name="Trazado 144999" d="M-4048.9-398.454l-1.43-1.32a27.094,27.094,0,0,0-4.2-3.17,27.454,27.454,0,0,0-7.14-3.09,25.558,25.558,0,0,0-18.54,1.86,27,27,0,0,0-6.39,4.44,26.507,26.507,0,0,0-3.49,3.99,18.423,18.423,0,0,1-1.14,1.57,1.968,1.968,0,0,1,.23-.45c.17-.28.38-.72.74-1.24a24.374,24.374,0,0,1,3.41-4.09,26.18,26.18,0,0,1,32.51-3.25,23.483,23.483,0,0,1,4.15,3.34,14.323,14.323,0,0,1,1,1.06A1.881,1.881,0,0,1-4048.9-398.454Z" fill="#263238"/>
      <path id="Trazado_145000" data-name="Trazado 145000" d="M-4016.2-325.674a33.755,33.755,0,0,1-1.85,5.7,35.67,35.67,0,0,1-2.34,5.51,33.538,33.538,0,0,1,1.85-5.69A35.337,35.337,0,0,1-4016.2-325.674Z" fill="#263238"/>
      <path id="Trazado_145001" data-name="Trazado 145001" d="M-3949.62-312.744a.554.554,0,0,1,.38,0,1.428,1.428,0,0,1,.73.72,1.563,1.563,0,0,1,0,1.56,1.771,1.771,0,0,1-1.73.8,1.67,1.67,0,0,1-1.31-1.4,1.591,1.591,0,0,1,.5-1.47,1.3,1.3,0,0,1,1-.32c.24,0,.36.08.35.11a1.925,1.925,0,0,0-1.08.47,1.289,1.289,0,0,0-.28,1.12,1.251,1.251,0,0,0,.92,1,1.37,1.37,0,0,0,1.26-.56,1.233,1.233,0,0,0,.09-1.14C-3949.09-312.574-3949.64-312.674-3949.62-312.744Z" fill="#263238"/>
      <path id="Trazado_145002" data-name="Trazado 145002" d="M-4016.29-405.054a6.456,6.456,0,0,1-1-.51l-2.74-1.57.2-.08c-.54,2.73-1.07,6.75-2,11.57l-.07.32-.27-.17c-4-2.54-8.86-5.44-14-8.55-3.84-2.3-7.43-4.62-10.73-6.62s-6.37-3.72-8.92-5.15l-6.07-3.38-1.65-.92a6.144,6.144,0,0,1-.56-.35,2.546,2.546,0,0,1,.61.26l1.69.84c1.47.74,3.57,1.83,6.16,3.23s5.64,3.08,9,5l10.76,6.6c5.15,3.11,10,6,14,8.61l-.34.14c.95-4.78,1.54-8.81,2.16-11.53v-.18l.16.09,2.67,1.67A7.035,7.035,0,0,1-4016.29-405.054Z" fill="#263238"/>
      <g id="Grupo_88569" data-name="Grupo 88569" opacity="0.3">
        <path id="Trazado_145003" data-name="Trazado 145003" d="M-4057.98-417.234l22.62,16.86c5,3.71,10.07,7.48,16,9.37l-.35-15.74-2.31,11Z"/>
      </g>
      <path id="Trazado_145004" data-name="Trazado 145004" d="M-3825.09-495.964a8.109,8.109,0,0,1-9.121-6.953,8.109,8.109,0,0,1,5.381-8.747,8.44,8.44,0,0,1-.06-11.936,8.441,8.441,0,0,1,7.14-2.424,10.09,10.09,0,0,1,10.307-9.868,10.091,10.091,0,0,1,4.753,1.308,11.36,11.36,0,0,1,14-.55,8.071,8.071,0,0,1,9.528,6.283,8.069,8.069,0,0,1-2.148,7.277" fill="#263238"/>
      <path id="Trazado_145005" data-name="Trazado 145005" d="M-3826.22-494.8a34.411,34.411,0,0,1,33.64-32.33h1.78c19.23.73,29.35,17.47,28.09,36.66l1.14,68.5h0l-46.72,16.74-.41-24.67s-18.52-2.49-19.12-21C-3828.09-459.744-3827.22-478.164-3826.22-494.8Z" fill="#ae7461"/>
      <path id="Trazado_145006" data-name="Trazado 145006" d="M-3808.85-429.924a44.774,44.774,0,0,0,24-7.57s-5.42,13.4-23.87,12.11Z" fill="#6f4439"/>
      <path id="Trazado_145007" data-name="Trazado 145007" d="M-3821.03-478.114a2.64,2.64,0,0,0,2.59,2.61,2.52,2.52,0,0,0,2.666-2.364c0-.026,0-.051,0-.076a2.64,2.64,0,0,0-2.59-2.61,2.53,2.53,0,0,0-2.668,2.385Z" fill="#263238"/>
      <path id="Trazado_145008" data-name="Trazado 145008" d="M-3822.09-485.854c.33.34,2.3-1.18,5.13-1.23s4.95,1.32,5.25,1c.14-.16-.2-.77-1.12-1.41a7.259,7.259,0,0,0-4.21-1.21,7,7,0,0,0-4.08,1.41C-3821.95-486.634-3822.23-486-3822.09-485.854Z" fill="#263238"/>
      <path id="Trazado_145009" data-name="Trazado 145009" d="M-3795.19-478.114a2.63,2.63,0,0,0,2.6,2.6,2.52,2.52,0,0,0,2.667-2.364c0-.022,0-.044,0-.066a2.651,2.651,0,0,0-2.6-2.61,2.541,2.541,0,0,0-2.669,2.4Z" fill="#263238"/>
      <path id="Trazado_145010" data-name="Trazado 145010" d="M-3794.17-485.894c.33.34,2.3-1.18,5.13-1.23s5,1.32,5.25,1c.15-.16-.2-.77-1.12-1.41a7.243,7.243,0,0,0-4.18-1.21,7,7,0,0,0-4.08,1.41C-3794.09-486.674-3794.34-486.044-3794.17-485.894Z" fill="#263238"/>
      <path id="Trazado_145011" data-name="Trazado 145011" d="M-3804.04-464.654c0-.16-1.76-.43-4.62-.73-.73-.06-1.42-.19-1.55-.68a3.731,3.731,0,0,1,.44-2.16q.975-2.655,2-5.56c2.82-7.91,4.84-14.41,4.52-14.52s-2.86,6.21-5.68,14.12q-1,2.92-1.94,5.59a4.192,4.192,0,0,0-.31,2.85,1.808,1.808,0,0,0,1.21,1,4.759,4.759,0,0,0,1.23.14C-3805.83-464.464-3804.09-464.484-3804.04-464.654Z" fill="#263238"/>
      <path id="Trazado_145012" data-name="Trazado 145012" d="M-3795.23-495.534c.39.71,2.8-.12,5.79-.27s5.52.28,5.78-.47c.11-.36-.43-1-1.52-1.55a9.074,9.074,0,0,0-4.51-.85,8.663,8.663,0,0,0-4.31,1.42C-3794.98-496.574-3795.4-495.874-3795.23-495.534Z" fill="#263238"/>
      <path id="Trazado_145013" data-name="Trazado 145013" d="M-3822.61-495.894c.61.64,2.93-.08,5.75-.17s5.21.33,5.74-.36c.24-.33-.15-1-1.21-1.55a9.68,9.68,0,0,0-9.26.42C-3822.57-496.864-3822.88-496.194-3822.61-495.894Z" fill="#263238"/>
      <path id="Trazado_145014" data-name="Trazado 145014" d="M-3824.61-503.3s4.63-11.66,10.15-14.47c6.68-3.4,9.73,3.94,16.13,2s12.77-5.19,19.44-.35c7.31,5.29,4,9.18,4.62,17.36,2.48,33.17,8.74,42.43,10.14,26.76.16-1.72,4.89-3.18,5.44-10.43.73-9.41.85-20.81-1.38-27.43-1.88-5.58-5.16-9.4-11-13.56-9.2-6.56-21.65-6.45-30.08-5.43S-3825.68-517.744-3824.61-503.3Z" fill="#263238"/>
      <path id="Trazado_145015" data-name="Trazado 145015" d="M-3765.31-472.474a5,5,0,0,1,5.05-4.949c.087,0,.173,0,.26.009,3.45.26,7.32,2.13,7.24,9.25-.15,12.63-12.8,9.88-12.82,9.52S-3765.42-467.194-3765.31-472.474Z" fill="#ae7461"/>
      <path id="Trazado_145016" data-name="Trazado 145016" d="M-3762.77-463.364a5.129,5.129,0,0,0,.59.33,2.194,2.194,0,0,0,1.64,0c1.34-.47,2.49-2.58,2.57-4.85a7.173,7.173,0,0,0-.58-3.16,2.533,2.533,0,0,0-1.63-1.71,1.129,1.129,0,0,0-1.31.59c-.17.35-.09.61-.16.63s-.27-.22-.16-.74a1.4,1.4,0,0,1,.51-.78,1.6,1.6,0,0,1,1.22-.31,3.08,3.08,0,0,1,2.27,2,7.508,7.508,0,0,1,.72,3.53c-.11,2.54-1.44,4.91-3.27,5.42a2.379,2.379,0,0,1-2-.36C-3762.75-463.064-3762.82-463.344-3762.77-463.364Z" fill="#6f4439"/>
      <path id="Trazado_145017" data-name="Trazado 145017" d="M-3766.09-496.914a11.886,11.886,0,0,1-5.29,2.57c-2,.24-4.25-.85-4.63-2.8-.16-.88,0-1.9-.56-2.57s-2-.51-3-.38a8.05,8.05,0,0,1-8.48-5.6c-.9,1.42-3.09,1.4-4.52.52s-2.38-2.36-3.51-3.61-2.72-2.35-4.38-2.08c-.93.15-1.79.73-2.73.66-1.66-.11-2.51-2-2.79-3.67s-.52-3.56-1.94-4.42-3-.29-4.52,0-3.5-.06-3.92-1.54a3,3,0,0,1,.52-2.3,8.149,8.149,0,0,1,9.58-3.29,11.08,11.08,0,0,1,13.61-7.765,11.08,11.08,0,0,1,6.7,5.2,11.26,11.26,0,0,1,15.917.477,11.27,11.27,0,0,1,2.143,3.263,8.15,8.15,0,0,1,10.07,5.607,8.15,8.15,0,0,1-.64,6.053c2.29,1.25,4.28,3.47,4.38,6.08s-2.39,5.26-4.93,4.63a4.51,4.51,0,0,1-1.832,6.109,4.51,4.51,0,0,1-5.878-1.449" fill="#263238"/>
      <path id="Trazado_145018" data-name="Trazado 145018" d="M-3807.09-521.744a.562.562,0,0,0,0,.23,2.111,2.111,0,0,0,.09.67,7.876,7.876,0,0,0,1,2.41,9.047,9.047,0,0,0,2.86,2.93,8.4,8.4,0,0,0,5.2,1.37l-.22-.28a4.565,4.565,0,0,0,.32,3.48,12.82,12.82,0,0,0,2.23,3.06,9.167,9.167,0,0,0,1.44,1.42,4.328,4.328,0,0,0,2,.7,4.591,4.591,0,0,0,4-1.53l-.47-.13a9.48,9.48,0,0,0,4.15,6.47,6.894,6.894,0,0,0,4.17,1.27,12.285,12.285,0,0,0,4.06-1l-.34-.14a9.937,9.937,0,0,0,3.07,3.83,5.291,5.291,0,0,0,4.44,1.14,6.94,6.94,0,0,0,5.24-5.55l-.28.14a6.491,6.491,0,0,0,4.35.55,7.008,7.008,0,0,0,3-1.41,6.11,6.11,0,0,0,1.38-1.57,3.2,3.2,0,0,0,.31-.66,7.663,7.663,0,0,1-1.82,2.06,6.815,6.815,0,0,1-2.92,1.28,6.229,6.229,0,0,1-4.11-.59l-.24-.13v.27a6.561,6.561,0,0,1-5,5.14,4.809,4.809,0,0,1-4-1.05,9.384,9.384,0,0,1-2.88-3.64l-.1-.23-.24.09a11.792,11.792,0,0,1-3.89.93,6.315,6.315,0,0,1-3.85-1.18,9,9,0,0,1-3.92-6.09l-.09-.6-.39.47a4.112,4.112,0,0,1-3.56,1.36,3.893,3.893,0,0,1-1.78-.61,9,9,0,0,1-1.36-1.33,12.462,12.462,0,0,1-2.17-2.93,4.057,4.057,0,0,1-.34-3.14l.1-.31h-.32a8.161,8.161,0,0,1-5-1.23,9.058,9.058,0,0,1-2.84-2.77A9.822,9.822,0,0,1-3807.09-521.744Z" fill="#455a64"/>
      <path id="Trazado_145019" data-name="Trazado 145019" d="M-3794.26-463.674c-.45.05.07,3-2.1,5.59s-5.4,2.8-5.35,3.22c0,.19.81.45,2.15.25a7.554,7.554,0,0,0,4.5-2.52,6.585,6.585,0,0,0,1.57-4.61C-3793.6-463.044-3794.09-463.744-3794.26-463.674Z" fill="#263238"/>
      <path id="Trazado_145020" data-name="Trazado 145020" d="M-3897.38-320.064c1.6-.64,54.45-7,54.45-7l21.44-18.16-2,52.56-67.48,6.5Z" fill="#3e2ea6"/>
      <path id="Trazado_145021" data-name="Trazado 145021" d="M-3830.97-337.184c-.64.32-5.94,5-5.94,5l1.62,40.47Z" opacity="0.3" style="isolation: isolate"/>
      <path id="Trazado_145022" data-name="Trazado 145022" d="M-3740.93-242.014h-89.26s4.72,25.19,6.47,36.79a148.505,148.505,0,0,0,4.31,19.85h80.85s6-14.63,7.09-24S-3740.93-242.014-3740.93-242.014Z" fill="#263238"/>
      <path id="Trazado_145023" data-name="Trazado 145023" d="M-3836.84-238.974s-2.5,28.71,0,53.6h30.92V-208.3Z" fill="#263238"/>
      <path id="Trazado_145024" data-name="Trazado 145024" d="M-3819.66-379.744l9.62-21,1.19-13s18.45-11.6,27.2-16a190.638,190.638,0,0,1,20.56-8.35v12.28Z" fill="#ebebeb"/>
      <path id="Trazado_145025" data-name="Trazado 145025" d="M-3739.26-272.114s5.23-70.22,5.58-75.44c0,0,3.09-37.52-3.57-51.8s-21.57-26.85-21.57-26.85l-1.38-7.5-29.11,18.36-13.46,11.7a134.961,134.961,0,0,0-12.7,15.8c-3.82,5.29-8.07,12.09-10,20.64-.69,3.13-8.7,40.51-8.94,66.56,0,0-1.23,22.74-2.55,35.61-1.62,15.94-4.1,52.27-3.56,73.79l94.43-2.88c23.32-3.56,19.22-5.88,19.22-5.88Z" fill="#3e2ea6"/>
      <path id="Trazado_145026" data-name="Trazado 145026" d="M-3761.09-425.814l-.65.3-1.93.8c-.82.4-1.82.92-3,1.53a32.6,32.6,0,0,0-3.86,2.41,107.34,107.34,0,0,0-20.73,19.16l-.05.07h-.08l-9.06,1.67.2-.23c-.14,4.21-.29,8.62-.45,13.19v.1l-.08.08a124.994,124.994,0,0,0-13.31,14.6,57.745,57.745,0,0,0-4.56,6.89l-.5.89-.37.93a17.473,17.473,0,0,0-.69,1.88c-.4,1.28-.8,2.55-1.13,3.83-1.39,5.1-2.55,10.08-3.63,14.82-2.14,9.49-3.93,18.07-5.42,25.27-3,14.42-4.63,23.37-4.63,23.37a16.184,16.184,0,0,1,.21-1.64c.16-1.07.43-2.65.79-4.68.74-4.05,1.84-9.9,3.27-17.12s3.19-15.8,5.32-25.3c1.06-4.75,2.21-9.73,3.6-14.85.33-1.29.73-2.57,1.14-3.86a17.584,17.584,0,0,1,.69-1.92l.39-1,.5-.91a56.487,56.487,0,0,1,4.61-7,125.147,125.147,0,0,1,13.41-14.57l-.08.18c.16-4.57.32-9,.47-13.19v-.19h.19l9.06-1.64-.13.08a104.5,104.5,0,0,1,20.93-19.09c1.4-1,2.77-1.69,3.91-2.37a31.144,31.144,0,0,1,3-1.48l1.95-.75Z" fill="#263238"/>
      <path id="Trazado_145027" data-name="Trazado 145027" d="M-3792.79-370.324l1.14,93.69-14.27,91.26h37.61s17.1-69.29,21.08-83.85c3.86-14.14,9.66-85.31,10.17-88.8.2-1.37,4.28-26-7.73-37.55" fill="#3e2ea6"/>
      <path id="Trazado_145028" data-name="Trazado 145028" d="M-3744.79-395.574s.28.26.79.78a22.213,22.213,0,0,1,2.06,2.53,31.461,31.461,0,0,1,4.69,11.52,64.318,64.318,0,0,1,.72,19.77c-.57,3.83-.85,7.94-1.26,12.31s-.82,9-1.26,13.83c-.9,9.7-1.91,20.33-3.13,31.73-.63,5.69-1.28,11.59-2.09,17.65a144.641,144.641,0,0,1-3.31,18.57c-6.29,25-13.2,52.58-20.47,81.54v.2h-38.17v-.29c5.28-33.66,10.16-64.73,14.32-91.25h0c-.3-28.37-.55-51.79-.73-68.13-.07-8.16-.13-14.54-.17-18.91v-6.69s0,.57.06,1.69.05,2.8.09,5c.06,4.36.16,10.75.29,18.91.21,16.34.53,39.76.91,68.13h0c-4.14,26.53-9,57.6-14.23,91.27l-.25-.3h37.61l-.25.19,20.52-81.53a144.653,144.653,0,0,0,3.32-18.51c.81-6.05,1.47-11.95,2.11-17.64,1.24-11.39,2.27-22,3.2-31.71q.679-7.279,1.29-13.83c.43-4.35.73-8.51,1.3-12.32a64.8,64.8,0,0,0-.62-19.69,31.732,31.732,0,0,0-4.59-11.53,22.574,22.574,0,0,0-2-2.55A9.258,9.258,0,0,1-3744.79-395.574Z" fill="#263238"/>
      <path id="Trazado_145029" data-name="Trazado 145029" d="M-3772.89-267.414a15.251,15.251,0,0,1-2.91-.84c-1.77-.6-4.18-1.52-6.79-2.68s-4.91-2.33-6.54-3.24a14.982,14.982,0,0,1-2.58-1.59,20.016,20.016,0,0,1,2.75,1.27c1.67.82,4,1.93,6.58,3.09s5,2.12,6.71,2.81A21.308,21.308,0,0,1-3772.89-267.414Z" fill="#263238"/>
      <path id="Trazado_145030" data-name="Trazado 145030" d="M-3837.29-261.2a.878.878,0,0,1,0-.24v-.72c0-.67.08-1.59.15-2.76.15-2.43.37-5.88.64-10.13.58-8.55,1.4-20.36,2.56-33.38s2.48-24.81,3.57-33.31c.54-4.25,1-7.69,1.35-10.06.17-1.15.31-2.06.41-2.73.05-.28.09-.51.12-.7a.794.794,0,0,1,.06-.24v.24a3,3,0,0,1-.07.72c-.07.67-.18,1.58-.31,2.74-.29,2.42-.69,5.86-1.19,10.08-1,8.51-2.26,20.28-3.42,33.3s-2,24.83-2.7,33.37c-.34,4.24-.62,7.68-.81,10.12-.1,1.16-.19,2.08-.25,2.75a5.65,5.65,0,0,1-.07.71A.7.7,0,0,1-3837.29-261.2Z" fill="#263238"/>
      <path id="Trazado_145031" data-name="Trazado 145031" d="M-3761.09-407.394a47.63,47.63,0,0,0-3.54-7.46,49.267,49.267,0,0,0-5.19-6.43,8.322,8.322,0,0,1,1.91,1.54,25.209,25.209,0,0,1,3.72,4.61,24.828,24.828,0,0,1,2.54,5.35A8.462,8.462,0,0,1-3761.09-407.394Z" fill="#263238"/>
      <path id="Trazado_145032" data-name="Trazado 145032" d="M-3827.48-290.984a1.147,1.147,0,0,1,.09.68,2.767,2.767,0,0,1-.82,1.7,2.6,2.6,0,0,1-2.71.62,3,3,0,0,1-1.4-1,2.794,2.794,0,0,1-.56-1.76,3.648,3.648,0,0,1,.72-2.18,2.261,2.261,0,0,1,.88-.69c.36-.13.62-.2.92-.29h.07a3.064,3.064,0,0,1,1.81.52,2.316,2.316,0,0,1,.84,1.19,2.5,2.5,0,0,1,.16,1.22c-.07,0-.12-.44-.41-1.12a2.168,2.168,0,0,0-.8-1,2.837,2.837,0,0,0-1.6-.38h.07c-.27.1-.62.2-.87.3a1.863,1.863,0,0,0-.67.56,3.28,3.28,0,0,0-.6,1.87,2.39,2.39,0,0,0,1.6,2.3,2.23,2.23,0,0,0,2.3-.43,2.74,2.74,0,0,0,.87-1.46C-3827.5-290.744-3827.53-290.974-3827.48-290.984Z" fill="#263238"/>
      <path id="Trazado_145033" data-name="Trazado 145033" d="M-3828.88-257.854a1.145,1.145,0,0,1,.09.68,2.711,2.711,0,0,1-.82,1.7,2.59,2.59,0,0,1-2.71.62,3.087,3.087,0,0,1-1.4-1,2.793,2.793,0,0,1-.56-1.76,3.671,3.671,0,0,1,.72-2.18,2.26,2.26,0,0,1,.88-.69c.36-.13.62-.2.92-.29h.07a3.065,3.065,0,0,1,1.81.52,2.315,2.315,0,0,1,.84,1.19,2.5,2.5,0,0,1,.16,1.22c-.06,0-.12-.44-.41-1.12a2.089,2.089,0,0,0-.8-1,2.836,2.836,0,0,0-1.6-.38h.07c-.27.1-.62.2-.86.3a1.812,1.812,0,0,0-.68.56,3.278,3.278,0,0,0-.6,1.87,2.39,2.39,0,0,0,1.6,2.3,2.23,2.23,0,0,0,2.3-.43,2.741,2.741,0,0,0,.87-1.46C-3828.9-257.6-3828.93-257.844-3828.88-257.854Z" fill="#263238"/>
      <path id="Trazado_145034" data-name="Trazado 145034" d="M-3749.02-401.114c-.05.09-1.29-.71-3.49-1.55a24.17,24.17,0,0,0-4-1.13,26.124,26.124,0,0,0-5-.44,26.439,26.439,0,0,0-5,.58,24.218,24.218,0,0,0-3.92,1.24c-2.17.9-3.39,1.73-3.45,1.64a3.961,3.961,0,0,1,.83-.62,8.061,8.061,0,0,1,1-.63,15.671,15.671,0,0,1,1.43-.73,22.252,22.252,0,0,1,4-1.37,23.149,23.149,0,0,1,10.21-.14,22.8,22.8,0,0,1,4,1.26,14.361,14.361,0,0,1,1.45.69,7.593,7.593,0,0,1,1.06.6A4,4,0,0,1-3749.02-401.114Z" fill="#263238"/>
      <g id="Grupo_88570" data-name="Grupo 88570" opacity="0.3">
        <path id="Trazado_145035" data-name="Trazado 145035" d="M-3831.41-313.474c4.07-5.93,5.57-11.52,7.75-18.38,3.23-10.19,4.13-21.7,9.21-31.11,3-5.54,6.5-11.22,11.7-14.78s5.82-7.87,5.72-19.78c3.63,0,7.46-2.76,7.91-3.25a20.208,20.208,0,0,0,4.45-8.33c-2.54,2.77-6.78,7.35-6.78,7.35s-9.19,1.71-9.06,1.65c-.22,4.58-.23,8.61-.46,13.19,0,0-17.63,18.71-19,22.47S-3831.41-313.474-3831.41-313.474Z"/>
      </g>
      <g id="Grupo_88571" data-name="Grupo 88571" opacity="0.3">
        <path id="Trazado_145036" data-name="Trazado 145036" d="M-3765.95-196.684c22.35-42.29,29.29-97.9,28-150.87,0,0-6.41,64.39-8.58,75.44S-3765.95-196.684-3765.95-196.684Z"/>
      </g>
      <path id="Trazado_145037" data-name="Trazado 145037" d="M-3762.54-432.624a2.45,2.45,0,0,1-.5.39l-1.49,1-5.56,3.64-18.31,11.85-7.91,5h0l-2.52,2a20.5,20.5,0,0,0-2.26,1.93c-1.39,1.34-2.62,2.64-3.73,3.82l-.2.21-.11-.26-2.88-6.7c-.31-.75-.56-1.36-.76-1.83a2.843,2.843,0,0,1-.23-.65,3,3,0,0,1,.33.61c.22.45.5,1,.85,1.78l3,6.6-.31-.05c1.09-1.2,2.31-2.52,3.7-3.88a20.241,20.241,0,0,1,2.28-2l2.51-2h0l7.9-5.07,18.43-11.69,5.62-3.5,1.54-.92A3.234,3.234,0,0,1-3762.54-432.624Z" fill="#263238"/>
    </g>
    <line id="Línea_149" data-name="Línea 149" x2="454" transform="translate(821.5 759.5)" fill="none" stroke="#707070" stroke-width="3"/>
  </g>
</svg>
