<svg xmlns="http://www.w3.org/2000/svg" width="108" height="108" viewBox="0 0 108 108">
  <g id="Grupo_107625" data-name="Grupo 107625" transform="translate(-1158 -1569)">
    <circle id="Elipse_5075" data-name="Elipse 5075" cx="54" cy="54" r="54" transform="translate(1158 1569)" fill="#3e2ea6"/>
    <g id="Grupo_107434" data-name="Grupo 107434" transform="translate(-48.266 1173.389)">
      <g id="Grupo_107433" data-name="Grupo 107433" transform="translate(1219.266 420.611)">
        <g id="Grupo_107430" data-name="Grupo 107430" transform="translate(41.693 16.856)">
          <g id="Grupo_107428" data-name="Grupo 107428" transform="translate(0 16.104)">
            <path id="Trazado_149894" data-name="Trazado 149894" d="M1275.773,461.429a10.883,10.883,0,0,1-1.247.735,23.683,23.683,0,0,1-19.263,0,12.383,12.383,0,0,1-1.243-.735,3.241,3.241,0,0,0-1.2,2.314c-.052,1.116,1.014,2.582,3.247,3.705a22.079,22.079,0,0,0,17.663,0c2.235-1.124,3.3-2.589,3.256-3.705A3.206,3.206,0,0,0,1275.773,461.429Z" transform="translate(-1252.81 -443.657)" fill="#dad6f7"/>
            <path id="Trazado_149895" data-name="Trazado 149895" d="M1276.838,451.915l-.009-.017a2.829,2.829,0,0,0-.2-.426h-.005a2.829,2.829,0,0,0-.267-.413c-.007-.009-.011-.012-.011-.019h-.005a7.29,7.29,0,0,0-2.62-2.056,19.937,19.937,0,0,0-8.822-1.854c-.59,0-1.157.032-1.724.071-.094.006-.194.019-.293.031a18.712,18.712,0,0,0-6.823,1.752,7.428,7.428,0,0,0-2.6,2.035c-.043.053-.083.109-.122.167s-.1.138-.139.212a3.962,3.962,0,0,0-.2.377.484.484,0,0,0-.031.1,3.206,3.206,0,0,0-.1.329.519.519,0,0,0-.017.107,1.182,1.182,0,0,0-.035.379,1.455,1.455,0,0,0,.028.385c.011.035.017.082.027.128.016.075.046.16.071.244a3.39,3.39,0,0,0,.183.4c.005.019.025.035.027.052h0a6.553,6.553,0,0,0,2.775,2.427c.046.025.085.047.135.077.256.132.542.26.819.377.1.044.2.082.3.119.19.076.388.15.594.231.122.041.251.079.387.118.18.051.37.127.565.173.149.051.294.088.443.124.189.047.37.1.56.143.165.032.341.072.511.106s.352.066.539.1.378.066.569.088c.161.032.332.047.5.065.219.026.436.066.659.084a2.964,2.964,0,0,1,.326.027c.677.061,1.359.085,2.076.085a20.014,20.014,0,0,0,8.822-1.843,8.52,8.52,0,0,0,2.048-1.4h0a4.45,4.45,0,0,0,.419-.442c.093-.112.158-.223.24-.327a1.064,1.064,0,0,0,.087-.121,2.744,2.744,0,0,0,.145-.252.67.67,0,0,0,.078-.155l.007-.009s0-.006.009-.016c.021-.071.052-.138.075-.205s.051-.144.077-.216c.009-.06.03-.122.036-.185a1.755,1.755,0,0,0,.035-.388h0a2.713,2.713,0,0,0-.032-.387A2.4,2.4,0,0,0,1276.838,451.915Z" transform="translate(-1252.811 -447.13)" fill="#dad6f7"/>
            <path id="Trazado_149896" data-name="Trazado 149896" d="M1276.863,457.213a1.659,1.659,0,0,0-.088-.232,1.49,1.49,0,0,0-.142-.3,1.241,1.241,0,0,0-.1-.167,4.863,4.863,0,0,0-.757-.926c-.194.124-.387.254-.591.375h0c-.209.119-.428.245-.651.355-.317.169-.651.318-1,.464a2.274,2.274,0,0,0-.261.1c-.275.106-.552.215-.837.308a1.405,1.405,0,0,1-.18.068c-.324.1-.661.2-.994.3-.031.006-.07.011-.1.02-.372.1-.748.2-1.142.268a24.957,24.957,0,0,1-9.707.1v0a19.223,19.223,0,0,1-2.644-.654c-.019,0-.046-.011-.073-.012-.375-.132-.739-.256-1.094-.411-.045-.014-.091-.027-.129-.044-.387-.155-.751-.319-1.1-.5a12.613,12.613,0,0,1-1.243-.731,3.224,3.224,0,0,0-1.2,2.308,2.38,2.38,0,0,0,.06.529c.011.053.031.1.048.162a5.866,5.866,0,0,0,3.138,3.024,22.051,22.051,0,0,0,17.663,0,6.586,6.586,0,0,0,2.948-2.562.762.762,0,0,0,.062-.123,2.645,2.645,0,0,0,.106-.255c.022-.066.043-.133.07-.2.01-.062.031-.129.045-.2a2.761,2.761,0,0,0,.03-.377,2.318,2.318,0,0,0-.056-.472A1.315,1.315,0,0,0,1276.863,457.213Z" transform="translate(-1252.811 -445.075)" fill="#dad6f7"/>
          </g>
          <g id="Grupo_107429" data-name="Grupo 107429" transform="translate(16.64)">
            <path id="Trazado_149897" data-name="Trazado 149897" d="M1269.456,443.44a21.961,21.961,0,0,0,17.659,0c2.236-1.13,3.29-2.594,3.255-3.713.035-1.116-1.019-2.581-3.255-3.713a20.148,20.148,0,0,0-8.827-1.842h-.019a20.081,20.081,0,0,0-8.813,1.842c-2.233,1.131-3.289,2.6-3.256,3.713C1266.168,440.846,1267.223,442.31,1269.456,443.44Z" transform="translate(-1266.199 -434.173)" fill="#dad6f7"/>
            <path id="Trazado_149898" data-name="Trazado 149898" d="M1289.17,442.625c-.405.256-.816.51-1.248.733a23.749,23.749,0,0,1-19.275,0,13.678,13.678,0,0,1-1.239-.733,3.167,3.167,0,0,0-1.2,2.306,2.623,2.623,0,0,0,.621,1.658,18.21,18.21,0,0,1,4.446,1.52,9.933,9.933,0,0,1,2.778,2,23.23,23.23,0,0,0,4.236.378,19.954,19.954,0,0,0,8.827-1.846c.049-.024.1-.056.146-.081h0c2.133-1.117,3.148-2.535,3.113-3.63A3.218,3.218,0,0,0,1289.17,442.625Z" transform="translate(-1266.198 -432.12)" fill="#dad6f7"/>
            <path id="Trazado_149899" data-name="Trazado 149899" d="M1287.62,448.463a12.429,12.429,0,0,1-1.26.732,21.623,21.623,0,0,1-9.622,2.048,25.179,25.179,0,0,1-2.825-.153,4.929,4.929,0,0,1,.211,1.278c0,.092-.011.174-.017.265h-.014a5.352,5.352,0,0,1-1.5,3.326h0v0a23.076,23.076,0,0,0,4.149.368,19.987,19.987,0,0,0,8.827-1.849,1.032,1.032,0,0,1,.146-.077V454.4c2.129-1.117,3.144-2.526,3.109-3.622A3.241,3.241,0,0,0,1287.62,448.463Z" transform="translate(-1264.647 -430.702)" fill="#dad6f7"/>
            <path id="Trazado_149900" data-name="Trazado 149900" d="M1287.62,454.3a11.4,11.4,0,0,1-1.248.738,21.754,21.754,0,0,1-9.635,2.042,24.727,24.727,0,0,1-2.825-.149,4.956,4.956,0,0,1,.211,1.279,5.365,5.365,0,0,1-1.535,3.6,24.031,24.031,0,0,0,4.149.363,19.949,19.949,0,0,0,8.827-1.854c2.236-1.124,3.29-2.58,3.255-3.7A3.256,3.256,0,0,0,1287.62,454.3Z" transform="translate(-1264.647 -429.284)" fill="#dad6f7"/>
          </g>
        </g>
        <g id="Grupo_107432" data-name="Grupo 107432">
          <g id="Grupo_107431" data-name="Grupo 107431" transform="translate(42.113 14.111)">
            <path id="Trazado_149901" data-name="Trazado 149901" d="M1253.149,443.063a19.929,19.929,0,0,0,8.72-1.837c.049-.034.083-.052.137-.083,2.135-1.114,3.157-2.532,3.117-3.631.04-1.114-1.024-2.576-3.254-3.706a19.979,19.979,0,0,0-8.72-1.842Z" transform="translate(-1253.149 -431.964)" fill="#dad6f7"/>
            <path id="Trazado_149902" data-name="Trazado 149902" d="M1262.679,441.146a21.82,21.82,0,0,1-9.53,2.036v5.09c.536,0,1.068-.02,1.587-.06.1-.006.2-.017.3-.02.547-.05,1.075-.1,1.595-.18h.007a19.594,19.594,0,0,0,4.146-1.09c.007,0,.007-.01.015-.01a.161.161,0,0,0,.053-.025,10.114,10.114,0,0,0,1.015-.462c.049-.015.083-.048.137-.066,2.135-1.125,3.157-2.544,3.117-3.64a3.243,3.243,0,0,0-1.211-2.308A10.229,10.229,0,0,1,1262.679,441.146Z" transform="translate(-1253.149 -429.913)" fill="#dad6f7"/>
          </g>
          <path id="Trazado_149903" data-name="Trazado 149903" d="M1255,420.637l-31.27-.026a4.7,4.7,0,0,0-4.425,4.924l-.036,48.965a4.7,4.7,0,0,0,4.417,4.934l31.27.03a4.719,4.719,0,0,0,4.435-4.922l.031-48.969A4.708,4.708,0,0,0,1255,420.637Zm-28.282,53.919a3.761,3.761,0,1,1,3.353-3.739A3.562,3.562,0,0,1,1226.715,474.556Zm.007-8.593a3.765,3.765,0,1,1,3.353-3.739A3.566,3.566,0,0,1,1226.722,465.963Zm0-8.6a3.768,3.768,0,1,1,3.356-3.737A3.57,3.57,0,0,1,1226.727,457.366Zm8.192,17.2a3.761,3.761,0,1,1,3.358-3.739A3.568,3.568,0,0,1,1234.919,474.567Zm.006-8.6a3.764,3.764,0,1,1,3.354-3.742A3.567,3.567,0,0,1,1234.925,465.97Zm.007-8.6a3.764,3.764,0,1,1,3.358-3.74A3.567,3.567,0,0,1,1234.933,457.372Zm8.2,17.2a3.761,3.761,0,1,1,3.344-3.736A3.57,3.57,0,0,1,1243.137,474.575Zm0-8.6a3.764,3.764,0,1,1,3.351-3.74A3.561,3.561,0,0,1,1243.141,465.978Zm.009-8.6a3.763,3.763,0,1,1,3.35-3.737A3.564,3.564,0,0,1,1243.149,457.377Zm11.2,13.754a2.991,2.991,0,1,1-5.91,0l0-9.062a2.991,2.991,0,1,1,5.91,0Zm-2.989-13.748a3.765,3.765,0,1,1,3.351-3.741A3.556,3.556,0,0,1,1251.361,457.383ZM1255.3,441.8a3.3,3.3,0,0,1-3.1,3.45l-25.525-.029a3.294,3.294,0,0,1-3.095-3.454l.014-12.1a3.3,3.3,0,0,1,3.1-3.448l25.527.03a3.294,3.294,0,0,1,3.1,3.447Z" transform="translate(-1219.266 -420.611)" fill="#dad6f7"/>
        </g>
      </g>
    </g>
  </g>
</svg>
