<svg xmlns="http://www.w3.org/2000/svg" xmlns:xlink="http://www.w3.org/1999/xlink" width="610" height="363" viewBox="0 0 610 363">
  <defs>
    <clipPath id="clip-path">
      <rect id="Rectángulo_34316" data-name="Rectángulo 34316" width="162.432" height="317.76" rx="11.451" fill="none"/>
    </clipPath>
    <radialGradient id="radial-gradient" cx="0.999" cy="0.973" r="4.452" gradientTransform="translate(0.69 252.206) scale(0.31 0.219)" gradientUnits="objectBoundingBox">
      <stop offset="0" stop-color="#fff"/>
      <stop offset="0.441" stop-color="#fbfcfe"/>
      <stop offset="0.794" stop-color="#f1f3fd"/>
      <stop offset="1" stop-color="#e8ebfd"/>
    </radialGradient>
  </defs>
  <g id="Grupo_107421" data-name="Grupo 107421" transform="translate(-180 -13973)">
    <g id="Grupo_88546" data-name="Grupo 88546" transform="translate(6406.071 15757.52)">
      <g id="Grupo_88529" data-name="Grupo 88529" transform="translate(-6183.498 -1647.95)">
        <g id="Grupo_88526" data-name="Grupo 88526" transform="translate(47.052)">
          <path id="Trazado_145513" data-name="Trazado 145513" d="M-6090.461-1580.622a2.712,2.712,0,0,0,2.712-2.712v-27.84c0-11.572,8.833-20.987,19.689-20.987s19.689,9.415,19.689,20.987v27.84a2.712,2.712,0,0,0,2.712,2.712,2.713,2.713,0,0,0,2.713-2.712v-27.84c0-14.564-11.267-26.411-25.114-26.411s-25.113,11.847-25.113,26.411v27.84A2.712,2.712,0,0,0-6090.461-1580.622Z" transform="translate(6128.487 1637.584)" fill="#caceed"/>
          <rect id="Rectángulo_34302" data-name="Rectángulo 34302" width="125.562" height="160.46" transform="translate(0 42.466)" fill="#6880e2"/>
          <rect id="Rectángulo_34303" data-name="Rectángulo 34303" width="125.562" height="160.46" transform="translate(11.415 42.466)" fill="#90a0f0"/>
          <path id="Trazado_145514" data-name="Trazado 145514" d="M-6077.271-1580.622a2.712,2.712,0,0,0,2.712-2.712v-27.84c0-11.572,8.833-20.987,19.689-20.987s19.689,9.415,19.689,20.987v27.84a2.713,2.713,0,0,0,2.713,2.712,2.713,2.713,0,0,0,2.712-2.712v-27.84c0-14.564-11.267-26.411-25.114-26.411s-25.113,11.847-25.113,26.411v27.84A2.712,2.712,0,0,0-6077.271-1580.622Z" transform="translate(6127.496 1637.584)" fill="#7890b5"/>
        </g>
        <g id="Grupo_88527" data-name="Grupo 88527" transform="translate(11.11 72.551)">
          <path id="Trazado_145515" data-name="Trazado 145515" d="M-6145.27-1522.568a1.741,1.741,0,0,0,1.74-1.741v-17.874c0-7.428,5.671-13.473,12.641-13.473s12.641,6.045,12.641,13.473v17.874a1.741,1.741,0,0,0,1.742,1.741,1.741,1.741,0,0,0,1.74-1.741v-17.874c0-9.349-7.232-16.955-16.123-16.955s-16.123,7.606-16.123,16.955v17.874A1.741,1.741,0,0,0-6145.27-1522.568Z" transform="translate(6168.476 1559.137)" fill="#caceed"/>
          <rect id="Rectángulo_34304" data-name="Rectángulo 34304" width="80.61" height="103.014" transform="translate(0 27.263)" fill="#dfa518"/>
          <rect id="Rectángulo_34305" data-name="Rectángulo 34305" width="80.61" height="103.014" transform="translate(7.328 27.263)" fill="#ffec1d"/>
          <path id="Trazado_145516" data-name="Trazado 145516" d="M-6135.5-1522.568a1.741,1.741,0,0,0,1.741-1.741v-17.874c0-7.428,5.671-13.473,12.64-13.473s12.642,6.045,12.642,13.473v17.874a1.741,1.741,0,0,0,1.741,1.741,1.741,1.741,0,0,0,1.741-1.741v-17.874c0-9.349-7.233-16.955-16.124-16.955s-16.122,7.606-16.122,16.955v17.874A1.741,1.741,0,0,0-6135.5-1522.568Z" transform="translate(6167.742 1559.137)" fill="#7890b5"/>
        </g>
        <g id="Grupo_88528" data-name="Grupo 88528" transform="translate(0 167.623)">
          <path id="Trazado_145517" data-name="Trazado 145517" d="M-6175.062-1446.517a.421.421,0,0,0,.42-.421v-4.852a3.713,3.713,0,0,1,3.709-3.709,3.713,3.713,0,0,1,3.708,3.709v4.852a.421.421,0,0,0,.42.421.421.421,0,0,0,.421-.421v-4.852a4.556,4.556,0,0,0-4.55-4.55,4.556,4.556,0,0,0-4.55,4.55v4.852A.421.421,0,0,0-6175.062-1446.517Z" transform="translate(6181.725 1456.34)" fill="#caceed"/>
          <rect id="Rectángulo_34306" data-name="Rectángulo 34306" width="23.146" height="27.96" transform="translate(0 7.348)" fill="#caceed"/>
          <rect id="Rectángulo_34307" data-name="Rectángulo 34307" width="23.146" height="27.96" transform="translate(2.104 7.348)" fill="#fff"/>
          <path id="Trazado_145518" data-name="Trazado 145518" d="M-6172.256-1446.517a.421.421,0,0,0,.421-.421v-4.852a3.713,3.713,0,0,1,3.709-3.709,3.713,3.713,0,0,1,3.708,3.709v4.852a.421.421,0,0,0,.421.421.421.421,0,0,0,.421-.421v-4.852a4.556,4.556,0,0,0-4.55-4.55,4.556,4.556,0,0,0-4.55,4.55v4.852A.421.421,0,0,0-6172.256-1446.517Z" transform="translate(6181.514 1456.34)" fill="#7890b5"/>
        </g>
      </g>
      <g id="Grupo_88530" data-name="Grupo 88530" transform="translate(-5950.178 -1594.63)">
        <path id="Rectángulo_34308" data-name="Rectángulo 34308" d="M20.7,0H212.817a20.7,20.7,0,0,1,20.7,20.7V129.557a20.7,20.7,0,0,1-20.7,20.7H20.7A20.7,20.7,0,0,1,0,129.556V20.7A20.7,20.7,0,0,1,20.7,0Z" fill="#caceed"/>
        <rect id="Rectángulo_34309" data-name="Rectángulo 34309" width="233.513" height="44.661" transform="translate(0 20.257)" fill="#7890b5"/>
        <rect id="Rectángulo_34310" data-name="Rectángulo 34310" width="73.39" height="14.036" transform="translate(15.312 77.678)" fill="#e8ebfd"/>
        <rect id="Rectángulo_34311" data-name="Rectángulo 34311" width="206.238" height="36.367" transform="translate(15.312 102.879)" fill="#e8ebfd"/>
        <rect id="Rectángulo_34312" data-name="Rectángulo 34312" width="29.508" height="14.036" transform="translate(96.659 77.678)" fill="#e8ebfd"/>
        <rect id="Rectángulo_34313" data-name="Rectángulo 34313" width="68.586" height="14.036" transform="translate(155.197 77.678)" fill="#e8ebfd"/>
      </g>
      <g id="Grupo_88536" data-name="Grupo 88536" transform="translate(-6037.415 -1775.519)">
        <path id="Trazado_145519" data-name="Trazado 145519" d="M-5837.506-1444.592h-141.251a16.866,16.866,0,0,1-16.866-16.866V-1754.7a20.2,20.2,0,0,1,20.2-20.2h134.583a20.2,20.2,0,0,1,20.2,20.2v293.246A16.866,16.866,0,0,1-5837.506-1444.592Z" transform="translate(6022.125 1775.473)" fill="#276096"/>
        <rect id="Rectángulo_34314" data-name="Rectángulo 34314" width="162.432" height="317.76" rx="11.451" transform="translate(32.778 6.845)" fill="#fff"/>
        <path id="Trazado_145520" data-name="Trazado 145520" d="M-5988.837-1717.981v21a10.12,10.12,0,0,0,2.259-6.4c0,5.344,3.833,9.675,8.559,9.675s8.559-4.331,8.559-9.675c0,5.344,3.984,9.675,8.9,9.675s8.9-4.331,8.9-9.675c0,5.344,3.856,9.675,8.613,9.675,4.415,0,8.01-3.743,8.514-8.548.521,4.806,4.26,8.548,8.848,8.548,4.762,0,8.617-4.027,8.9-9.094.269,5.067,3.931,9.094,8.452,9.094,4.7,0,8.5-4.331,8.5-9.675,0,5.344,3.983,9.675,8.9,9.675s8.9-4.331,8.9-9.675c0,5.344,3.818,9.675,8.528,9.675s8.529-4.331,8.529-9.675c0,5.344,3.963,9.675,8.851,9.675s8.852-4.331,8.852-9.675c.059,5.344,3.884,9.675,8.6,9.675s8.544-4.331,8.544-9.675a9.937,9.937,0,0,0,3.729,7.866v-22.464Z" transform="translate(6021.615 1771.195)" fill="#caceed"/>
        <rect id="Rectángulo_34315" data-name="Rectángulo 34315" width="162.386" height="147.874" transform="translate(32.778 81.762)" fill="#e8ebfd"/>
        <g id="Grupo_88532" data-name="Grupo 88532" transform="translate(32.778 6.845)">
          <g id="Grupo_88531" data-name="Grupo 88531" clip-path="url(#clip-path)">
            <path id="Trazado_145521" data-name="Trazado 145521" d="M-5971.353-1636.566l3.932,3.643,5.9-7.6s-5.407-10.046-7.618-12.482-14.5-7.61-14.5-7.61a9.967,9.967,0,0,1-7.613,4.237,9.966,9.966,0,0,1-7.613-4.237s-12.288,5.175-14.5,7.61-7.618,12.482-7.618,12.482l5.9,7.6,3.931-3.643s4.424,6.261,1.72,21.7-11.549,60.229-11.549,60.229,11.059,6.834,22.855,6.834h13.75c11.8,0,22.855-6.834,22.855-6.834s-8.847-44.788-11.551-60.229S-5971.353-1636.566-5971.353-1636.566Z" transform="translate(5991.253 1760.039)" fill="#caceed"/>
            <path id="Trazado_145522" data-name="Trazado 145522" d="M-5799.618-1633.665l3.624,3.356,5.434-7s-4.982-9.258-7.02-11.5-13.36-7.013-13.36-7.013a9.181,9.181,0,0,1-7.015,3.9,9.186,9.186,0,0,1-7.016-3.9s-11.322,4.769-13.36,7.013-7.02,11.5-7.02,11.5l5.434,7,3.624-3.356s4.076,5.769,1.586,20-10.644,55.5-10.644,55.5,10.19,6.3,21.06,6.3h12.671c10.87,0,21.06-6.3,21.06-6.3s-8.152-41.271-10.643-55.5S-5799.618-1633.665-5799.618-1633.665Z" transform="translate(5978.053 1759.679)" fill="#caceed"/>
          </g>
        </g>
        <path id="Trazado_145523" data-name="Trazado 145523" d="M-5877.139-1678.207s-4.383,6.839-12.713,7.077c-8.331-.237-12.714-7.077-12.714-7.077s-20.52,8.644-24.215,12.711-12.721,20.846-12.721,20.846l9.849,12.693,6.567-6.084s7.387,10.456,2.873,36.242c-1.309,7.474-3.48,17.721-5.9,28.5a201.671,201.671,0,0,0,42.848,4.594,202.407,202.407,0,0,0,30.208-2.261c-2.633-11.627-5.027-22.823-6.43-30.835-4.515-25.786,2.874-36.242,2.874-36.242l6.566,6.084,9.851-12.693s-9.03-16.778-12.723-20.846S-5877.139-1678.207-5877.139-1678.207Z" transform="translate(6006.56 1770.491)" fill="#3e2ea6"/>
        <g id="Grupo_88533" data-name="Grupo 88533">
          <path id="Trazado_145524" data-name="Trazado 145524" d="M-5996.684-1699.965c4.889,0,8.851-4.332,8.851-9.676h-17.7C-6005.535-1704.3-6001.572-1699.965-5996.684-1699.965Z" transform="translate(6022.87 1770.568)" fill="#d3594c"/>
          <path id="Trazado_145525" data-name="Trazado 145525" d="M-5958.986-1699.965c4.915,0,8.894-4.332,8.894-9.676h-17.793C-5967.886-1704.3-5963.9-1699.965-5958.986-1699.965Z" transform="translate(6020.04 1770.568)" fill="#d3594c"/>
          <path id="Trazado_145526" data-name="Trazado 145526" d="M-5921.283-1699.965c4.945,0,8.955-4.332,8.955-9.676h-17.909C-5930.237-1704.3-5926.229-1699.965-5921.283-1699.965Z" transform="translate(6017.211 1770.568)" fill="#d3594c"/>
          <path id="Trazado_145527" data-name="Trazado 145527" d="M-5883.7-1699.965c4.913,0,8.9-4.332,8.9-9.676H-5892.6C-5892.6-1704.3-5888.616-1699.965-5883.7-1699.965Z" transform="translate(6014.382 1770.568)" fill="#d3594c"/>
          <path id="Trazado_145528" data-name="Trazado 145528" d="M-5846.068-1699.965c4.889,0,8.852-4.332,8.852-9.676h-17.7C-5854.918-1704.3-5850.955-1699.965-5846.068-1699.965Z" transform="translate(6011.551 1770.568)" fill="#d3594c"/>
          <path id="Trazado_145529" data-name="Trazado 145529" d="M-5808.386-1699.965c4.889,0,8.852-4.332,8.852-9.676h-17.7C-5817.237-1704.3-5813.274-1699.965-5808.386-1699.965Z" transform="translate(6008.718 1770.568)" fill="#d3594c"/>
          <path id="Trazado_145530" data-name="Trazado 145530" d="M-5798.093-1719.163l-26.539-48.357c-2.48-4.522-11.5-8-20.272-8h-130.763c-8.771,0-17.791,3.477-20.271,8l-26.539,48.357c-.113.206-1.907,4.571-1.8,5.665.488,4.829,4.169,8.583,8.638,8.583,4.8,0,8.692-4.332,8.692-9.676h17.7c0,5.344,3.832,9.676,8.559,9.676s8.559-4.332,8.559-9.676h17.793c0,5.344,3.862,9.676,8.618,9.676s8.614-4.332,8.614-9.676h17.6c0,5.344,3.808,9.676,8.5,9.676s8.506-4.332,8.506-9.676h17.788c0,5.344,3.819,9.676,8.529,9.676s8.529-4.332,8.529-9.676h17.762c0,5.344,3.825,9.676,8.544,9.676s8.544-4.332,8.544-9.676h17.731a9.542,9.542,0,0,0,9.4,9.676,9.507,9.507,0,0,0,9.344-8.583C-5796.2-1714.623-5797.98-1718.958-5798.093-1719.163Z" transform="translate(6024.278 1775.519)" fill="url(#radial-gradient)"/>
          <path id="Trazado_145531" data-name="Trazado 145531" d="M-5987.753-1714.592h-17.782l28.177-60.928h12.6Z" transform="translate(6022.87 1775.52)" fill="#ef6c00"/>
          <path id="Trazado_145532" data-name="Trazado 145532" d="M-5950.093-1714.592h-17.792l18.027-60.928h12.6Z" transform="translate(6020.04 1775.52)" fill="#ef6c00"/>
          <path id="Trazado_145533" data-name="Trazado 145533" d="M-5912.455-1714.592h-17.782l7.877-60.928h12.6Z" transform="translate(6017.211 1775.52)" fill="#ef6c00"/>
          <path id="Trazado_145534" data-name="Trazado 145534" d="M-5874.992-1714.592h-17.788l-2.267-60.928h12.6Z" transform="translate(6014.566 1775.52)" fill="#ef6c00"/>
          <path id="Trazado_145535" data-name="Trazado 145535" d="M-5838.168-1714.592h-17.782l-12.424-60.928h12.6Z" transform="translate(6012.562 1775.52)" fill="#ef6c00"/>
          <path id="Trazado_145536" data-name="Trazado 145536" d="M-5801.344-1714.592h-17.782l-22.574-60.928h12.6Z" transform="translate(6010.557 1775.52)" fill="#ef6c00"/>
        </g>
        <g id="Grupo_88534" data-name="Grupo 88534" transform="translate(96.267 236.304)">
          <path id="Trazado_145537" data-name="Trazado 145537" d="M-5902.186-1516.221a3.791,3.791,0,0,1,3.792-3.792,3.791,3.791,0,0,1,3.791,3.792,3.791,3.791,0,0,1-3.791,3.791A3.791,3.791,0,0,1-5902.186-1516.221Z" transform="translate(5918.836 1520.013)" fill="#caceed"/>
          <path id="Trazado_145538" data-name="Trazado 145538" d="M-5889.755-1516.121a2.558,2.558,0,0,1,2.559-2.558,2.558,2.558,0,0,1,2.558,2.558,2.557,2.557,0,0,1-2.558,2.557A2.558,2.558,0,0,1-5889.755-1516.121Z" transform="translate(5917.902 1519.913)" fill="#caceed"/>
          <path id="Trazado_145539" data-name="Trazado 145539" d="M-5880.221-1516.062a1.839,1.839,0,0,1,1.839-1.84,1.838,1.838,0,0,1,1.838,1.84,1.838,1.838,0,0,1-1.838,1.839A1.839,1.839,0,0,1-5880.221-1516.062Z" transform="translate(5917.185 1519.854)" fill="#caceed"/>
          <path id="Trazado_145540" data-name="Trazado 145540" d="M-5907.1-1516.121a2.558,2.558,0,0,0-2.558-2.558,2.557,2.557,0,0,0-2.558,2.558,2.557,2.557,0,0,0,2.558,2.557A2.558,2.558,0,0,0-5907.1-1516.121Z" transform="translate(5919.589 1519.913)" fill="#caceed"/>
          <path id="Trazado_145541" data-name="Trazado 145541" d="M-5916.512-1516.062a1.839,1.839,0,0,0-1.839-1.84,1.838,1.838,0,0,0-1.838,1.84,1.838,1.838,0,0,0,1.838,1.839A1.839,1.839,0,0,0-5916.512-1516.062Z" transform="translate(5920.189 1519.854)" fill="#caceed"/>
        </g>
        <path id="Trazado_145542" data-name="Trazado 145542" d="M-5880.225-1467.523h-41.94a17.336,17.336,0,0,1-17.286-17.285,17.336,17.336,0,0,1,17.286-17.285h41.94a17.336,17.336,0,0,1,17.285,17.284A17.337,17.337,0,0,1-5880.225-1467.523Z" transform="translate(6017.903 1754.97)" fill="#7890b5"/>
        <text id="_14.000" data-name="$14.000" transform="translate(84.343 259.211)" fill="#fff" font-size="18" font-family="Roboto-Regular, Roboto"><tspan x="0" y="17">$14.000</tspan></text>
      </g>
      <g id="Grupo_88537" data-name="Grupo 88537" transform="translate(-6199.071 -1445.471)">
        <path id="Trazado_145546" data-name="Trazado 145546" d="M-5712.278-1416.988h-485.479c-.726,0-1.314-.372-1.314-.831s.588-.832,1.314-.832h485.479c.726,0,1.314.373,1.314.832S-5711.552-1416.988-5712.278-1416.988Z" transform="translate(6199.071 1418.651)" fill="#7890b5"/>
        <path id="Trazado_145547" data-name="Trazado 145547" d="M-5624.155-1416.988h-40.565c-.286,0-.52-.372-.52-.831s.233-.832.52-.832h40.565c.286,0,.519.373.519.832S-5623.869-1416.988-5624.155-1416.988Z" transform="translate(6158.952 1418.651)" fill="#7890b5"/>
      </g>
      <g id="Grupo_88539" data-name="Grupo 88539" transform="translate(-5707.381 -1545.883)">
        <g id="Grupo_88538" data-name="Grupo 88538">
          <path id="Trazado_145548" data-name="Trazado 145548" d="M-5653.833-1445.538c5.645.557,10.989-1.158,10.984-7.658s-3.707-8.063-2.5-11.57,3.024-3.988,1.139-6.794-1.874-3.282-1.219-6.79a9.623,9.623,0,0,0-2.659-8.657c-2.039-2.025-.92-3-1.494-6.916s-2.631-4.467-4.373-7.318.54-5.677-1.872-7.377-6.365-2.612-6.873,2.189,2.213,10.139-1.073,12.864-5.135,4.651-2.146,9,5.217,4.682,3.865,8.484-3.238,3.556-1.891,8.2,3.579,3.96,2.724,7.331-.8,12.015,2.421,13.781S-5654.661-1445.619-5653.833-1445.538Z" transform="translate(5667.426 1525.927)" fill="#6a8e69"/>
          <path id="Trazado_145549" data-name="Trazado 145549" d="M-5654.939-1449.532c6.408,2.681,13.28,2.6,15.612-5.016s-1.44-10.772,1.229-14.444,4.974-3.581,3.776-7.545-1.013-4.516,1.014-8.387a11.784,11.784,0,0,0,0-11.09c-1.659-3.1,0-3.841.737-8.633s-1.474-6.175-2.488-10.139,2.673-6.452.46-9.309-6.513-5.345-8.833.093-1.054,12.664-5.881,14.674-7.684,3.6-5.748,9.762,4.424,7.358,1.474,11.323-5.069,3-5.16,8.921,2.764,5.923.553,9.562-5.254,13.778-2.121,17S-5655.879-1449.925-5654.939-1449.532Z" transform="translate(5666.993 1527.223)" fill="#80af7f"/>
          <path id="Trazado_145550" data-name="Trazado 145550" d="M-5654.223-1443.708l-.652-.345c.064-.125,6.653-12.727,10.286-32.827a114.777,114.777,0,0,0,1.428-21.711c-.031-9.531-.051-16.418,5.113-20.062l.424.6c-4.85,3.423-4.829,10.148-4.8,19.456a115.509,115.509,0,0,1-1.442,21.845C-5647.518-1456.527-5654.157-1443.834-5654.223-1443.708Z" transform="translate(5666.483 1526.579)" fill="#e6edff"/>
          <path id="Trazado_145551" data-name="Trazado 145551" d="M-5652.028-1445.031a.368.368,0,0,1-.31-.168c-.013-.019-1.278-1.985-2.743-4.732a35.857,35.857,0,0,1-2.522-7.186.368.368,0,0,1,.274-.443.364.364,0,0,1,.444.275,35.688,35.688,0,0,0,2.456,7.007c1.449,2.718,2.7,4.659,2.712,4.679a.37.37,0,0,1-.111.51A.368.368,0,0,1-5652.028-1445.031Z" transform="translate(5666.688 1521.988)" fill="#e6edff"/>
          <path id="Trazado_145552" data-name="Trazado 145552" d="M-5648.387-1455.215a.365.365,0,0,1-.31-.168c-.013-.018-1.278-1.985-2.744-4.731a35.8,35.8,0,0,1-2.521-7.187.369.369,0,0,1,.274-.443.364.364,0,0,1,.444.276,35.7,35.7,0,0,0,2.455,7.007c1.449,2.717,2.7,4.658,2.711,4.678a.369.369,0,0,1-.11.51A.362.362,0,0,1-5648.387-1455.215Z" transform="translate(5666.415 1522.754)" fill="#e6edff"/>
          <path id="Trazado_145553" data-name="Trazado 145553" d="M-5645.942-1464.882a.367.367,0,0,1-.31-.168c-.013-.019-1.279-1.985-2.744-4.732a35.921,35.921,0,0,1-2.522-7.186.369.369,0,0,1,.275-.443.362.362,0,0,1,.444.276,35.607,35.607,0,0,0,2.455,7.007c1.449,2.718,2.7,4.659,2.711,4.679a.369.369,0,0,1-.11.51A.371.371,0,0,1-5645.942-1464.882Z" transform="translate(5666.232 1523.48)" fill="#e6edff"/>
          <path id="Trazado_145554" data-name="Trazado 145554" d="M-5643.654-1475.329a.37.37,0,0,1-.312-.172c-.009-.017-1-1.585-2.138-3.778a29.331,29.331,0,0,1-1.967-5.747.37.37,0,0,1,.278-.442.37.37,0,0,1,.441.278,28.976,28.976,0,0,0,1.9,5.571c1.125,2.164,2.1,3.709,2.106,3.725a.367.367,0,0,1-.115.508A.359.359,0,0,1-5643.654-1475.329Z" transform="translate(5665.973 1524.085)" fill="#e6edff"/>
          <path id="Trazado_145555" data-name="Trazado 145555" d="M-5642.3-1489.42a.366.366,0,0,1-.312-.172c-.011-.015-1-1.584-2.137-3.777a28.92,28.92,0,0,1-1.967-5.746.368.368,0,0,1,.277-.442.37.37,0,0,1,.441.277,28.95,28.95,0,0,0,1.9,5.57c1.124,2.164,2.1,3.71,2.1,3.725a.368.368,0,0,1-.116.508A.369.369,0,0,1-5642.3-1489.42Z" transform="translate(5665.87 1525.144)" fill="#e6edff"/>
          <path id="Trazado_145556" data-name="Trazado 145556" d="M-5642.121-1501.048a.37.37,0,0,1-.329-.2c-.024-.049-.61-1.21-1.232-2.8a12.9,12.9,0,0,1-.681-3.851.368.368,0,0,1,.362-.375.37.37,0,0,1,.375.363,12.323,12.323,0,0,0,.63,3.594c.608,1.554,1.2,2.735,1.2,2.735a.369.369,0,0,1-.164.495A.354.354,0,0,1-5642.121-1501.048Z" transform="translate(5665.693 1525.799)" fill="#e6edff"/>
          <path id="Trazado_145557" data-name="Trazado 145557" d="M-5640.6-1512.934a.38.38,0,0,1-.366-.419c.009-.054.188-1.342.586-3a12.8,12.8,0,0,1,1.639-3.551.369.369,0,0,1,.511-.1.366.366,0,0,1,.1.511,12.421,12.421,0,0,0-1.533,3.311c-.388,1.626-.57,2.932-.57,2.932A.367.367,0,0,1-5640.6-1512.934Z" transform="translate(5665.438 1526.685)" fill="#e6edff"/>
          <path id="Trazado_145558" data-name="Trazado 145558" d="M-5649.91-1449.024a.371.371,0,0,1-.305-.161.371.371,0,0,1,.1-.512c.019-.012,1.924-1.318,4.312-3.263a35.72,35.72,0,0,0,4.978-5.51.369.369,0,0,1,.514-.081.366.366,0,0,1,.083.514,35.889,35.889,0,0,1-5.108,5.65c-2.413,1.965-4.343,3.287-4.362,3.3A.373.373,0,0,1-5649.91-1449.024Z" transform="translate(5666.138 1522.067)" fill="#e6edff"/>
          <path id="Trazado_145559" data-name="Trazado 145559" d="M-5646.354-1460.684a.365.365,0,0,1-.3-.16.369.369,0,0,1,.1-.512c.02-.013,1.922-1.318,4.312-3.263a35.731,35.731,0,0,0,4.976-5.51.371.371,0,0,1,.515-.082.368.368,0,0,1,.083.515,35.809,35.809,0,0,1-5.107,5.65c-2.415,1.965-4.343,3.286-4.363,3.3A.371.371,0,0,1-5646.354-1460.684Z" transform="translate(5665.87 1522.943)" fill="#e6edff"/>
          <path id="Trazado_145560" data-name="Trazado 145560" d="M-5644.162-1471.024a.371.371,0,0,1-.305-.16.371.371,0,0,1,.1-.512c.019-.013,1.924-1.319,4.311-3.263a35.646,35.646,0,0,0,4.978-5.511.372.372,0,0,1,.515-.081.368.368,0,0,1,.083.515,35.961,35.961,0,0,1-5.108,5.649c-2.413,1.966-4.344,3.288-4.363,3.3A.368.368,0,0,1-5644.162-1471.024Z" transform="translate(5665.706 1523.72)" fill="#e6edff"/>
          <path id="Trazado_145561" data-name="Trazado 145561" d="M-5641.746-1483.19a.367.367,0,0,1-.3-.157.367.367,0,0,1,.092-.513c.013-.01,1.508-1.059,3.382-2.619a28.85,28.85,0,0,0,3.91-4.4.369.369,0,0,1,.515-.084.366.366,0,0,1,.084.514,29.107,29.107,0,0,1-4.036,4.537c-1.9,1.581-3.418,2.646-3.434,2.656A.371.371,0,0,1-5641.746-1483.19Z" transform="translate(5665.524 1524.503)" fill="#e6edff"/>
          <path id="Trazado_145562" data-name="Trazado 145562" d="M-5641.534-1493.719a.365.365,0,0,1-.3-.157.368.368,0,0,1,.091-.513c.015-.01,1.51-1.059,3.383-2.619a28.848,28.848,0,0,0,3.912-4.4.367.367,0,0,1,.514-.085.367.367,0,0,1,.085.514,29.145,29.145,0,0,1-4.039,4.538c-1.9,1.58-3.417,2.645-3.434,2.655A.362.362,0,0,1-5641.534-1493.719Z" transform="translate(5665.508 1525.294)" fill="#e6edff"/>
          <path id="Trazado_145563" data-name="Trazado 145563" d="M-5641.382-1507.352a.369.369,0,0,1-.281-.13.366.366,0,0,1,.043-.519s1.005-.858,2.167-2.055a12.427,12.427,0,0,0,1.971-3.07.367.367,0,0,1,.484-.19.369.369,0,0,1,.19.486,12.832,12.832,0,0,1-2.116,3.287c-1.19,1.225-2.179,2.068-2.221,2.1A.369.369,0,0,1-5641.382-1507.352Z" transform="translate(5665.497 1526.18)" fill="#e6edff"/>
        </g>
        <path id="Trazado_145564" data-name="Trazado 145564" d="M-5644.4-1421.049h-12.2a3.177,3.177,0,0,1-2.985-2.675l-2.382-14.508c-.421-2.565.829-4.786,2.822-4.786h17.295c1.992,0,3.243,2.221,2.821,4.786l-2.382,14.508A3.177,3.177,0,0,1-5644.4-1421.049Z" transform="translate(5667.022 1520.895)" fill="#f4643c"/>
      </g>
      <g id="Grupo_88543" data-name="Grupo 88543" transform="translate(-6181.716 -1745.786)">
        <g id="Grupo_88540" data-name="Grupo 88540" transform="translate(14.372)">
          <path id="Trazado_145565" data-name="Trazado 145565" d="M-6164.276-1591.118a.49.49,0,0,1-.437-.269.49.49,0,0,1,.216-.658,15.048,15.048,0,0,0,5.065-4.2.489.489,0,0,1,.687-.083.489.489,0,0,1,.083.687,16.006,16.006,0,0,1-5.395,4.471A.491.491,0,0,1-6164.276-1591.118Zm8.425-10.361a.474.474,0,0,1-.159-.027.488.488,0,0,1-.3-.621,27.775,27.775,0,0,0,1.357-6.579.5.5,0,0,1,.53-.445.489.489,0,0,1,.445.53,28.771,28.771,0,0,1-1.407,6.812A.488.488,0,0,1-6155.851-1601.479Zm.774-13.964-.01-.082a59.755,59.755,0,0,0-1.25-6.593.487.487,0,0,1,.36-.59.485.485,0,0,1,.59.36,60.151,60.151,0,0,1,1.271,6.7l-.476.141Zm-3.038-13.274.471-.133-.483.088c-.611-2.152-1.242-4.378-1.78-6.588a.49.49,0,0,1,.361-.592.488.488,0,0,1,.591.361c.534,2.191,1.163,4.408,1.77,6.552Zm-2.6-12.986a.49.49,0,0,1-.484-.428l-.031-.252a43.848,43.848,0,0,1-.309-5.2q0-.734.024-1.467a.514.514,0,0,1,.5-.473.488.488,0,0,1,.474.5q-.024.717-.024,1.435a42.828,42.828,0,0,0,.3,5.08l.03.246a.489.489,0,0,1-.424.547C-6160.674-1641.705-6160.694-1641.7-6160.716-1641.7Zm.439-13.643a.428.428,0,0,1-.09-.009.488.488,0,0,1-.391-.571,45.956,45.956,0,0,1,1.787-6.686.491.491,0,0,1,.623-.3.49.49,0,0,1,.3.624,45.225,45.225,0,0,0-1.75,6.542A.488.488,0,0,1-6160.276-1655.347Zm4.51-12.888a.489.489,0,0,1-.229-.057.49.49,0,0,1-.2-.662,44.368,44.368,0,0,1,3.713-5.842.488.488,0,0,1,.684-.1.49.49,0,0,1,.1.686,43.394,43.394,0,0,0-3.63,5.712A.49.49,0,0,1-6155.767-1668.235Zm8.214-10.9a.488.488,0,0,1-.353-.15.49.49,0,0,1,.013-.692,45.132,45.132,0,0,1,5.344-4.4.489.489,0,0,1,.682.12.489.489,0,0,1-.119.682,44.3,44.3,0,0,0-5.228,4.3A.488.488,0,0,1-6147.553-1679.134Zm11.17-7.851a.49.49,0,0,1-.439-.272.489.489,0,0,1,.22-.656,45.848,45.848,0,0,1,6.411-2.606.49.49,0,0,1,.616.316.49.49,0,0,1-.317.616,44.912,44.912,0,0,0-6.273,2.551A.5.5,0,0,1-6136.383-1686.985Zm40.412-3.719a.513.513,0,0,1-.516-.489.467.467,0,0,1,.463-.489h.053a46.269,46.269,0,0,0,6.709-.439.487.487,0,0,1,.555.413.489.489,0,0,1-.414.555A47.167,47.167,0,0,1-6095.971-1690.7Zm-6.9-.274c-1.022-.068-2.014-.14-3.006-.213-1.287-.094-2.574-.189-3.862-.269a.489.489,0,0,1-.457-.519.483.483,0,0,1,.518-.458c1.291.08,2.583.175,3.872.269q1.486.109,2.968.212a.489.489,0,0,1,.456.521A.489.489,0,0,1-6102.869-1690.978Zm-20.511-.166a.489.489,0,0,1-.483-.413.49.49,0,0,1,.408-.56c1-.155,2.006-.276,3-.361,1.234-.105,2.508-.164,3.9-.179a.528.528,0,0,1,.495.485.489.489,0,0,1-.484.495c-1.362.015-2.613.071-3.823.174-.973.082-1.958.2-2.933.353A.514.514,0,0,1-6123.38-1691.143Zm40.812-1.7a.489.489,0,0,1-.456-.312.489.489,0,0,1,.28-.634q.417-.159.83-.337a27.585,27.585,0,0,0,5.075-2.839.49.49,0,0,1,.682.117.491.491,0,0,1-.118.683,28.582,28.582,0,0,1-5.256,2.94q-.428.183-.86.349A.478.478,0,0,1-6082.569-1692.847Zm11.161-7.727a.486.486,0,0,1-.338-.135.489.489,0,0,1-.018-.692,51.8,51.8,0,0,0,4.319-5.231.49.49,0,0,1,.685-.107.49.49,0,0,1,.106.684,52.76,52.76,0,0,1-4.4,5.329A.488.488,0,0,1-6071.408-1700.574Zm8.174-10.974a.492.492,0,0,1-.259-.074.491.491,0,0,1-.155-.675c1.167-1.866,2.291-3.758,3.536-5.861a.492.492,0,0,1,.67-.172.49.49,0,0,1,.172.672c-1.249,2.108-2.376,4-3.549,5.881A.488.488,0,0,1-6063.234-1711.548Zm7.073-11.749a.492.492,0,0,1-.257-.073.491.491,0,0,1-.159-.674c1.4-2.25,2.6-4.075,3.8-5.743a.488.488,0,0,1,.683-.111.49.49,0,0,1,.112.684c-1.187,1.649-2.382,3.456-3.766,5.687A.489.489,0,0,1-6056.161-1723.3Zm8.1-11.029a.486.486,0,0,1-.334-.131.491.491,0,0,1-.024-.693,34.68,34.68,0,0,1,5.187-4.6.489.489,0,0,1,.683.114.489.489,0,0,1-.114.682,33.726,33.726,0,0,0-5.041,4.471A.488.488,0,0,1-6048.058-1734.326Zm11.111-7.783a.488.488,0,0,1-.457-.313.49.49,0,0,1,.281-.633c.259-.1.521-.2.786-.288a.489.489,0,0,1,.623.3.49.49,0,0,1-.3.623q-.383.133-.758.277A.489.489,0,0,1-6036.947-1742.109Z" transform="translate(6164.766 1743.37)" fill="#caceed"/>
        </g>
        <g id="Grupo_88541" data-name="Grupo 88541" transform="translate(0 162.172)">
          <path id="Trazado_145566" data-name="Trazado 145566" d="M-6168.5-1537.885a.489.489,0,0,1-.328-.126c-1.406-1.27-3.237-2.966-4.929-4.828a.49.49,0,0,1,.033-.692.489.489,0,0,1,.691.033c1.662,1.83,3.471,3.505,4.859,4.759a.489.489,0,0,1,.036.692A.491.491,0,0,1-6168.5-1537.885Zm-8.973-10.283a.491.491,0,0,1-.426-.247,21.534,21.534,0,0,1-1.855-4.206,15.7,15.7,0,0,1-.542-2.363.489.489,0,0,1,.412-.556.486.486,0,0,1,.557.411,14.621,14.621,0,0,0,.508,2.215,20.526,20.526,0,0,0,1.771,4.014.489.489,0,0,1-.182.668A.492.492,0,0,1-6177.478-1548.168Zm-1.878-13.183a.51.51,0,0,1-.142-.021.489.489,0,0,1-.327-.61,12.085,12.085,0,0,1,3.794-5.927.488.488,0,0,1,.688.068.489.489,0,0,1-.067.689,11.111,11.111,0,0,0-3.477,5.452A.49.49,0,0,1-6179.355-1561.351Z" transform="translate(6180.306 1568.02)" fill="#caceed"/>
        </g>
        <g id="Grupo_88542" data-name="Grupo 88542" transform="translate(117.166 55.71)">
          <path id="Trazado_145567" data-name="Trazado 145567" d="M-6053.129-1650.549a.492.492,0,0,1-.489-.5,32.223,32.223,0,0,1,.9-6.886.491.491,0,0,1,.591-.361.489.489,0,0,1,.361.59,31.29,31.29,0,0,0-.873,6.677A.49.49,0,0,1-6053.129-1650.549Zm3.173-13.229a.478.478,0,0,1-.209-.047.491.491,0,0,1-.233-.653,33.569,33.569,0,0,1,3.615-5.926.488.488,0,0,1,.686-.092.488.488,0,0,1,.093.685,32.574,32.574,0,0,0-3.509,5.754A.487.487,0,0,1-6049.956-1663.778Zm8.271-10.8a.489.489,0,0,1-.375-.174.491.491,0,0,1,.059-.69,32.426,32.426,0,0,1,5.758-3.882.488.488,0,0,1,.661.2.488.488,0,0,1-.2.661,31.389,31.389,0,0,0-5.584,3.765A.489.489,0,0,1-6041.685-1674.578Zm12.016-6.379a.488.488,0,0,1-.47-.354.489.489,0,0,1,.334-.606,33.515,33.515,0,0,1,6.836-1.215.492.492,0,0,1,.522.453.488.488,0,0,1-.453.522,32.5,32.5,0,0,0-6.634,1.181A.5.5,0,0,1-6029.669-1680.957Z" transform="translate(6053.618 1683.133)" fill="#caceed"/>
        </g>
      </g>
      <g id="woman" transform="translate(-5891.782 -1641.288)">
        <path id="Trazado_145568" data-name="Trazado 145568" d="M-5790.22-1601.374a.631.631,0,0,1-.286-.072.309.309,0,0,1-.131-.417.309.309,0,0,1,.417-.131c.384.128,1.916-1.638,2.652-2.486a8.921,8.921,0,0,1,1.866-1.866.31.31,0,0,1,.412.145.31.31,0,0,1-.145.413,10.69,10.69,0,0,0-1.666,1.715C-5788.535-1602.424-5789.515-1601.361-5790.22-1601.374Z" transform="translate(5861.09 1628.577)" fill="#120610"/>
        <path id="Trazado_145569" data-name="Trazado 145569" d="M-5785.119-1450.88s2.766,14.895.4,20.417a20.289,20.289,0,0,1-6.779,8.38s7.538-2.607,10.068-4.089a64.958,64.958,0,0,0,5.168-4.241s-.438-12.234.285-19.354C-5775.932-1450.229-5785.119-1450.88-5785.119-1450.88Z" transform="translate(5861.152 1616.891)" fill="#ebae8f"/>
        <path id="Trazado_145570" data-name="Trazado 145570" d="M-5776.056-1429.627s-10.744,7.788-13.294,8.016l-4.792,1.4a10.783,10.783,0,0,0,6.608,1.776,9.46,9.46,0,0,0,5.75-3.475l2.3-.676-.71,3.437,4.829-1.25Z" transform="translate(5861.351 1615.293)" fill="#4e6c96"/>
        <path id="Trazado_145571" data-name="Trazado 145571" d="M-5812.6-1450.88s2.766,14.895.4,20.417a20.291,20.291,0,0,1-6.778,8.38s7.537-2.607,10.068-4.089a65.022,65.022,0,0,0,5.167-4.241s-.437-12.234.284-19.354C-5803.414-1450.229-5812.6-1450.88-5812.6-1450.88Z" transform="translate(5863.217 1616.891)" fill="#ebae8f"/>
        <path id="Trazado_145572" data-name="Trazado 145572" d="M-5803.539-1429.627s-10.743,7.788-13.294,8.016l-4.792,1.4a10.784,10.784,0,0,0,6.608,1.776,9.46,9.46,0,0,0,5.75-3.475l2.3-.676-.711,3.437,4.83-1.25Z" transform="translate(5863.416 1615.293)" fill="#4e6c96"/>
        <path id="Trazado_145573" data-name="Trazado 145573" d="M-5845.6-1592.611l-8.388-10.828s-1.217-5.744-2.348-7.142-.278,5.772-.278,5.772-7.463-6.68-8.228-7.239-2.219-1.926-1.933-.359,5.243,5.581,4.847,5.788a12.337,12.337,0,0,0-1.591,1.5c-.262.258-1.632.962-1.52,1.71.011.075.026.157.044.245a6.031,6.031,0,0,0,2.018,3.323,16.439,16.439,0,0,0,2.545,1.842,4.747,4.747,0,0,0,2.857.815l7.052,8.351Z" transform="translate(5866.812 1629.084)" fill="#ebae8f"/>
        <path id="Trazado_145574" data-name="Trazado 145574" d="M-5809.386-1553.521l29.757.165a233.187,233.187,0,0,1,2.166,23.466c.471,12.138-.259,25.818.33,30.792,1.2,10.11,1.671,42.442,1.671,42.442l-13,.292-8.635-65.308s-2.183,17.748-2.462,24.072-1.71,40.163-1.71,40.163l-13,.119s-.821-36.059-.959-44.141C-5815.489-1516.513-5809.386-1553.521-5809.386-1553.521Z" transform="translate(5862.937 1624.604)" fill="#232f54"/>
        <path id="Trazado_145575" data-name="Trazado 145575" d="M-5843.895-1593.433s-4.777,4.067-6.189,5.6c-.943,1.024-.13,2.924-.13,2.924s13.026,13.119,18.716,14.344,15.148-4.855,15.148-4.855-1.149-.868.381-5.51,5.548-17.169,5.548-17.169a31.8,31.8,0,0,0-8.782,5.853c-4.269,4.02-7.916,7.773-10.692,6.724S-5843.895-1593.433-5843.895-1593.433Z" transform="translate(5865.589 1627.954)" fill="#90a0f0"/>
        <path id="Trazado_145576" data-name="Trazado 145576" d="M-5848.966-1582.8a.7.7,0,0,1-.391-.43,5.18,5.18,0,0,1-1.339-2.792c-.191-1.671,3.791-3.491,3.959-3.568a.12.12,0,0,1,.127.018l3.054,2.622a.119.119,0,0,1,.041.083.118.118,0,0,1-.03.087,28.028,28.028,0,0,1-3.917,3.589,2.353,2.353,0,0,1-1.186.452A.8.8,0,0,1-5848.966-1582.8Zm2.26-6.542c-.527.248-3.914,1.9-3.756,3.293a5.024,5.024,0,0,0,1.294,2.673.119.119,0,0,1,.033.06.464.464,0,0,0,.259.3c.2.082.577.082,1.285-.374a27.14,27.14,0,0,0,3.787-3.459Z" transform="translate(5865.602 1627.316)" fill="#6880e2"/>
        <path id="Trazado_145577" data-name="Trazado 145577" d="M-5848.763-1584.32a.117.117,0,0,0,.069-.023l2.213-1.61a.118.118,0,0,0,.026-.166.12.12,0,0,0-.166-.027l-2.213,1.611a.119.119,0,0,0-.026.166A.118.118,0,0,0-5848.763-1584.32Z" transform="translate(5865.465 1627.058)" fill="#6880e2"/>
        <path id="Trazado_145578" data-name="Trazado 145578" d="M-5804.27-1600.332l-3.624,1.744s-6.684,13.857-5.749,20.941,2.768,12.95,3.048,16.61a40.256,40.256,0,0,0,.965,6.315l25.666-.317-1.608-9.58,4.748-1.543.431-9.258a45.7,45.7,0,0,1-3.8-11.064c.479-4.04,3.247-11.008,3.247-11.008l-12.212-3.225Z" transform="translate(5862.823 1628.151)" fill="#ffec1d"/>
        <path id="Trazado_145579" data-name="Trazado 145579" d="M-5778.354-1533.7a.308.308,0,0,1-.132-.033c-4.071-2.122-6.067-7.184-5.933-15.045a.3.3,0,0,1,.3-.291.3.3,0,0,1,.291.3c-.129,7.619,1.76,12.5,5.617,14.511a.3.3,0,0,1,.125.4A.293.293,0,0,1-5778.354-1533.7Z" transform="translate(5860.621 1624.27)" fill="#a59df9"/>
        <path id="Trazado_145580" data-name="Trazado 145580" d="M-5793.395-1571.131a7.327,7.327,0,0,0,.893-.052,21.452,21.452,0,0,0,4.639-1.455.119.119,0,0,0,.062-.156.118.118,0,0,0-.157-.061,21.69,21.69,0,0,1-4.573,1.436,16.229,16.229,0,0,1-4.529-.391c-.884-.145-1.886-.311-3.111-.486-4-.573-4.478-.046-4.532.066a.119.119,0,0,0,.054.158.119.119,0,0,0,.153-.042c.033-.035.537-.483,4.292.054,1.222.174,2.222.339,3.105.485A24.033,24.033,0,0,0-5793.395-1571.131Z" transform="translate(5862.145 1626.058)" fill="#dfa518"/>
        <path id="Trazado_145581" data-name="Trazado 145581" d="M-5790.31-1562.253l-6.989.042s-2.748-1.56-5.557-3.475-3.33-.993-3.113-.193,3.986,3.4,3.986,3.4a119.7,119.7,0,0,0-11.986-1.574c-3.388-.053-1.56,1.367-1.56,1.367l7.577,1.5a44.1,44.1,0,0,1-6.11.579c-3.2.06-3.068,1.03-2.367,1.4s9.3,1.054,9.3,1.054-3.484.685-4.7.723-3.913.837-2.269,1.309,7.781.534,7.781.534l-5.567,1.318s-.041.981,1.857,1.069a32.568,32.568,0,0,0,5.741-.716l7.925-.432,6.321,1.121Z" transform="translate(5863.057 1625.604)" fill="#ebae8f"/>
        <path id="Trazado_145582" data-name="Trazado 145582" d="M-5779.125-1597.227s-7.145,10.562-5.1,16.812c1.05,4.191,2.416,5.406,2.416,5.406l6.529,7.135-10.825,2s-1.235-1.489-2.482-.966c-.609.255-.745,2.537-.745,2.537a15.1,15.1,0,0,1,1.258,5.528,5.3,5.3,0,0,1-1.331,3.71,4.144,4.144,0,0,0,2.1.808c1-.046,1.477-1.045,2.116-1.073,5.776-.256,21.465-1.584,24.314-7.216,3.463-6.842-6.194-21.662-10.346-26.874C-5774.54-1595.635-5779.125-1597.227-5779.125-1597.227Z" transform="translate(5860.995 1627.889)" fill="#90a0f0"/>
        <path id="Trazado_145583" data-name="Trazado 145583" d="M-5792.7-1602.209l-2.732,1.388a1.04,1.04,0,0,0-.533,1.193l1.4,5.288a1.04,1.04,0,0,0,1.784.425l3.848-4.345a1.04,1.04,0,0,0-.071-1.452l-2.515-2.333A1.041,1.041,0,0,0-5792.7-1602.209Z" transform="translate(5861.491 1628.272)" fill="#8373eb"/>
        <path id="Trazado_145584" data-name="Trazado 145584" d="M-5797.985-1600.817l-1.7,7.121a.65.65,0,0,1-1.23.105l-3.085-7.17,2.923-2.035Z" transform="translate(5862.092 1628.307)" fill="#90a0f0"/>
        <path id="Trazado_145585" data-name="Trazado 145585" d="M-5800.637-1607.275a10.853,10.853,0,0,1-.229,3.331,2.976,2.976,0,0,0,2.255,3.534c2.949.57,6.063-1.482,6.063-1.482s-.081-1.623.071-4.212c.171-2.894.13-6.543.13-6.543Z" transform="translate(5861.86 1629.048)" fill="#ebae8f"/>
        <path id="Trazado_145586" data-name="Trazado 145586" d="M-5802.05-1626.422l-2.139,5.281-2.294,3.862,1.177,1.438c-.819,3.781-.756,6.526.975,7.494,4.311,2.41,11.338-2.813,11.338-2.813s3.151-3.132,2.2-5.261c-.656-1.47-3.9.7-3.9.7s1.442-1.949-1.316-5.448A32.7,32.7,0,0,0-5802.05-1626.422Z" transform="translate(5862.278 1630.083)" fill="#ebae8f"/>
        <g id="Grupo_88544" data-name="Grupo 88544" transform="translate(58.507)">
          <path id="Trazado_145587" data-name="Trazado 145587" d="M-5776.329-1597.6c-2.251,2.029-4.043.729-8.562-.206-4.535-.935-4.2,1.078-7.611,2.045-3.409.983-4.819-1.094-6.358-4.677-1.538-3.567,2.41-5.549,4.456-9.307s3.853-6.9,2.3-7.263c-1.078-.253-2.426,1.824-3.187,1.491-.523-.222-.064-1.823-1.586-4.424a7.442,7.442,0,0,0-3.694-3.2c-.222-.1-.426-.179-.65-.27-.33-.133-.666-.238-1-.364-.016,0-.032-.016-.047-.016-.159-.047-.3-.111-.461-.158-2.044-.745.223-2.283,1.444-3.948,1.236-1.649,6.96-3.187,10.766-2.141s6.548,6.247,7.261,10.655c.713,4.392,7.071,6.073,8.8,9.941C-5772.714-1605.574-5774.094-1599.628-5776.329-1597.6Z" transform="translate(5803.55 1630.381)" fill="#232f54"/>
          <path id="Trazado_145588" data-name="Trazado 145588" d="M-5784.624-1619.264l3.545.176a1.431,1.431,0,0,1,1.359,1.5,1.432,1.432,0,0,1-1.5,1.36l-3.544-.177a1.433,1.433,0,0,1-1.361-1.5A1.433,1.433,0,0,1-5784.624-1619.264Z" transform="translate(5802.241 1629.545)" fill="#d3e3ff"/>
          <path id="Trazado_145589" data-name="Trazado 145589" d="M-5787.635-1617.987a.317.317,0,0,1-.239.349,2.949,2.949,0,0,1-.633.031,3.633,3.633,0,0,1-1.491-.413,5.513,5.513,0,0,0-1.188-.38c-.363-.056-.714-.079-1.062-.111a6.035,6.035,0,0,1-3.171-.919c-.349-.254-.762-.587-1.206-.952-1.189-.983-2.632-2.172-3.758-2.22-.222-.1-.428-.175-.65-.27a.285.285,0,0,1,.238-.285c1.422-.284,3.156,1.173,4.534,2.33.428.349.841.682,1.175.92a5.415,5.415,0,0,0,2.885.808c.364.031.729.063,1.094.127a5.006,5.006,0,0,1,1.332.428,2.926,2.926,0,0,0,1.792.317A.315.315,0,0,1-5787.635-1617.987Z" transform="translate(5803.361 1629.84)" fill="#7890b5"/>
          <path id="Trazado_145590" data-name="Trazado 145590" d="M-5786.137-1619.83a.283.283,0,0,1-.072-.012,12.393,12.393,0,0,1-2.48-2.132c-.463-.445-.9-.865-1.092-1.017a9.762,9.762,0,0,0-2.733-1.291c-.37-.132-.72-.256-1.044-.389-.262-.106-.518-.219-.771-.33-1.33-.585-2.478-1.091-3.918-.437-.241.11-.492.218-.747.328a10.951,10.951,0,0,0-2.854,1.581.292.292,0,0,1-.411-.03.291.291,0,0,1,.029-.411,11.412,11.412,0,0,1,3-1.675c.251-.108.5-.214.737-.324,1.677-.763,3.058-.155,4.393.433.249.109.5.22.757.324.313.127.657.249,1.02.379a10.136,10.136,0,0,1,2.9,1.386c.209.168.635.576,1.129,1.05a20.831,20.831,0,0,0,2.248,2,.3.3,0,0,1,.183.367A.286.286,0,0,1-5786.137-1619.83Z" transform="translate(5803.459 1630.076)" fill="#7890b5"/>
          <path id="Trazado_145591" data-name="Trazado 145591" d="M-5787.987-1597.913a.283.283,0,0,1-.156-.053,1.655,1.655,0,0,1-.546-.905,1.654,1.654,0,0,0-.3-.612.78.78,0,0,0-.654-.2c-.658,0-1.246-.128-1.7-1.518-.686-2.11.684-4.349,1.785-6.148.21-.345.41-.67.585-.979a3.648,3.648,0,0,1,.5-.622,2.282,2.282,0,0,0,.538-.737c.285-.985.612-2.148.883-3.3a1.587,1.587,0,0,0,.01-.458c-.008-.107-.015-.217-.012-.333a.29.29,0,0,1,.3-.284.294.294,0,0,1,.284.3c0,.089,0,.182.011.28a2.1,2.1,0,0,1-.022.63c-.276,1.17-.605,2.342-.892,3.333a2.628,2.628,0,0,1-.67.971,3.2,3.2,0,0,0-.422.514c-.181.317-.382.646-.595.994-1.093,1.786-2.332,3.809-1.728,5.666.361,1.106.71,1.112,1.154,1.115a1.33,1.33,0,0,1,1.068.382,2.134,2.134,0,0,1,.427.829,1.207,1.207,0,0,0,.329.614.292.292,0,0,1,.071.405A.29.29,0,0,1-5787.987-1597.913Z" transform="translate(5802.646 1629.155)" fill="#7890b5"/>
          <path id="Trazado_145592" data-name="Trazado 145592" d="M-5777.723-1599.6a.292.292,0,0,1-.2-.09.291.291,0,0,1,.01-.411c1.956-1.863.849-5.94-.806-8.042a3.465,3.465,0,0,0-1.209-.694c-.684-.294-1.33-.572-1.522-1.075-.087-.229-.182-.462-.277-.7a6.62,6.62,0,0,1-.744-3.444.291.291,0,0,1,.331-.244.292.292,0,0,1,.244.331,6.2,6.2,0,0,0,.707,3.137c.1.239.194.474.283.708.1.274.691.525,1.208.747a3.73,3.73,0,0,1,1.438.868c1.753,2.228,3.029,6.652.749,8.824A.291.291,0,0,1-5777.723-1599.6Z" transform="translate(5801.969 1629.172)" fill="#7890b5"/>
        </g>
        <path id="Trazado_145593" data-name="Trazado 145593" d="M-5800.585-1606.382a9.914,9.914,0,0,0,2.947-.571c1.248-.505,2.5-1.122,2.517-1.128a.118.118,0,0,0,.055-.158.12.12,0,0,0-.159-.055c-.012.006-1.262.62-2.5,1.122a9.853,9.853,0,0,1-2.864.552.118.118,0,0,0-.114.122A.12.12,0,0,0-5800.585-1606.382Z" transform="translate(5861.844 1628.722)" fill="#120610"/>
        <path id="Trazado_145594" data-name="Trazado 145594" d="M-5784.132-1564.879c.039,0,7.291-1.285,7.291-1.285,1.24.192,4.1.58,4.376.136a.23.23,0,0,0-.025-.266c-.046-.067-.068-.12-.06-.15.02-.062.184-.126.316-.178.36-.139.9-.349.643-1.1a.8.8,0,0,0-.495-.516,3.143,3.143,0,0,0-2.062.462l-2.031-2.3a48.024,48.024,0,0,1-5.5-5.31c-1.241-1.712-1.942-4.275-2.345-8.57-.375-4.012,3.466-9.755,3.5-9.812a.119.119,0,0,0-.031-.166.121.121,0,0,0-.166.032c-.16.238-3.928,5.871-3.544,9.966.407,4.341,1.122,6.939,2.389,8.688a46.833,46.833,0,0,0,5.522,5.339l2.082,2.361a.119.119,0,0,0,.149.023c.013-.007,1.276-.735,1.946-.491a.57.57,0,0,1,.353.371c.174.5-.075.635-.505.8-.209.081-.405.157-.457.33a.406.406,0,0,0,.093.355c-.16.221-2.279.044-4.142-.243-.039,0-7.31,1.287-7.31,1.287a.121.121,0,0,0-.1.138A.119.119,0,0,0-5784.132-1564.879Z" transform="translate(5860.61 1627.643)" fill="#6880e2"/>
        <path id="Trazado_145595" data-name="Trazado 145595" d="M-5788.889-1552.081a.686.686,0,0,1-.494-.48c-.147-.59.528-1.362.739-1.585.559-.593.371-4.261-.055-5.579-.639-1.981-.772-3.461-.4-4.4a.884.884,0,0,1,.559-.542,2.991,2.991,0,0,1,2,.488,9.223,9.223,0,0,1,1.943,3.656c.555,2.163-.381,6.748-.816,7.784-.381.9-1.824.962-2.817.808A4.194,4.194,0,0,1-5788.889-1552.081Zm.426-12.359a.65.65,0,0,0-.412.406c-.355.883-.22,2.309.4,4.236.418,1.291.669,5.107,0,5.813a1.875,1.875,0,0,0-.683,1.365.459.459,0,0,0,.34.313c.883.3,2.8.382,3.183-.524.429-1.016,1.349-5.515.807-7.633a9.191,9.191,0,0,0-1.876-3.54A2.765,2.765,0,0,0-5788.463-1564.44Z" transform="translate(5860.995 1625.446)" fill="#6880e2"/>
        <path id="Trazado_145596" data-name="Trazado 145596" d="M-5786.384-1554.357a.118.118,0,0,0,.126-.068c.594-1.33.269-3.9.094-5.276-.027-.218-.051-.409-.067-.56a5.492,5.492,0,0,0-1.222-2.423.117.117,0,0,0-.167-.012.12.12,0,0,0-.013.168,5.324,5.324,0,0,1,1.166,2.292c.017.153.041.345.068.565.172,1.356.491,3.881-.076,5.151a.118.118,0,0,0,.06.156A.088.088,0,0,0-5786.384-1554.357Z" transform="translate(5860.864 1625.296)" fill="#6880e2"/>
        <path id="Trazado_145597" data-name="Trazado 145597" d="M-5799.829-1593.051a.121.121,0,0,0,.116-.088l1-3.773a.12.12,0,0,0-.084-.145.121.121,0,0,0-.146.084l-1,3.773a.119.119,0,0,0,.084.145A.118.118,0,0,0-5799.829-1593.051Z" transform="translate(5861.787 1627.876)" fill="#6880e2"/>
        <path id="Trazado_145598" data-name="Trazado 145598" d="M-5774.529-1460.145a.24.24,0,0,0,.237-.252c-.054-.871-1.312-21.382-2.066-24.723a92.267,92.267,0,0,1-1.232-9.952l1.132-.748a.235.235,0,0,0,.1-.236.237.237,0,0,0-.174-.191l-1.966-.515a1.839,1.839,0,0,0,.557-.382,1.741,1.741,0,0,0,.476-1.3c-.028-1.644-.4-31.485-.4-31.787a.223.223,0,0,0-.24-.234.236.236,0,0,0-.234.24c0,.3.373,30.143.4,31.789a1.287,1.287,0,0,1-.337.957,1.93,1.93,0,0,1-1.208.466.236.236,0,0,0-.235.207.236.236,0,0,0,.175.259l2.379.624-.806.532a.238.238,0,0,0-.105.215,95.873,95.873,0,0,0,1.253,10.161c.747,3.3,2.042,24.435,2.055,24.648A.236.236,0,0,0-5774.529-1460.145Z" transform="translate(5860.267 1622.872)" fill="#a59df9"/>
        <path id="Trazado_145599" data-name="Trazado 145599" d="M-5802.4-1460.147a.237.237,0,0,0,.237-.228c.008-.2.829-20.088.81-22.237-.018-2.035-.864-9.125-.994-10.2l1.418-1.218a.24.24,0,0,0,.079-.227.242.242,0,0,0-.158-.179l-2.653-.88,2.114-.4a.239.239,0,0,0,.19-.19c.009-.054,1-5.337,1.32-7.268s2.688-20.1,2.712-20.283a.237.237,0,0,0-.2-.265.242.242,0,0,0-.267.205c-.023.183-2.388,18.341-2.708,20.264-.29,1.738-1.122,6.2-1.291,7.1l-2.855.536a.237.237,0,0,0-.193.217.237.237,0,0,0,.162.241l3.126,1.037-1.2,1.029a.237.237,0,0,0-.082.208c.01.081.987,8.142,1.005,10.273s-.8,22.012-.809,22.213a.238.238,0,0,0,.228.247Z" transform="translate(5862.155 1622.365)" fill="#a59df9"/>
        <path id="Trazado_145600" data-name="Trazado 145600" d="M-5787.132-1454.469h13.667a.237.237,0,0,0,.237-.237.237.237,0,0,0-.237-.237h-13.667a.237.237,0,0,0-.237.237A.237.237,0,0,0-5787.132-1454.469Z" transform="translate(5860.842 1617.196)" fill="#a59df9"/>
        <path id="Trazado_145601" data-name="Trazado 145601" d="M-5814.344-1455.02H-5801a.237.237,0,0,0,.238-.237.237.237,0,0,0-.238-.238h-13.34a.238.238,0,0,0-.238.238A.237.237,0,0,0-5814.344-1455.02Z" transform="translate(5862.887 1617.237)" fill="#a59df9"/>
      </g>
      <g id="Grupo_88545" data-name="Grupo 88545" transform="translate(-6078.894 -1645.264)">
        <path id="Trazado_145602" data-name="Trazado 145602" d="M-6006.786-1566.069l-3.558,16.663,32.844-22.993a14.537,14.537,0,0,0,4.96-3.544,39.082,39.082,0,0,1,4.5-5.015c1.6-1.534,2.881-4.776.169-3.033s-3.652,3.1-4.585,2.644.375-2.864.85-4.479,4.205-4.862,5.6-7.163-.023-2.047-.023-2.047l-7.95,6.77-3.327,5.6-3.937,3.6Z" transform="translate(6064.71 1631.701)" fill="#ebae8f"/>
        <path id="Trazado_145603" data-name="Trazado 145603" d="M-6048-1438.209l.1,14.505s-4.945,1.171-6.067-.444c-.707-1.017-2.3-12.1-2.3-12.1Z" transform="translate(6068.162 1619.914)" fill="#ebae8f"/>
        <path id="Trazado_145604" data-name="Trazado 145604" d="M-6054.988-1425.866c-.642,0-2.668,3.986-1.96,6.051.417,1.211,2.521.668,5.3.767s5.087.946,6.985.745,7.827-1.291,7.827-1.291l-.329-1.581s-2.968.182-4.24-.571-6.579-4.2-6.579-4.2a11.253,11.253,0,0,1-2.75,2.041c-1.353.719-1.537.579-2.222.277C-6054.179-1424.162-6053.97-1425.863-6054.988-1425.866Z" transform="translate(6068.225 1618.992)" fill="#4e6c96"/>
        <path id="Trazado_145605" data-name="Trazado 145605" d="M-6012.2-1438.209l.1,14.505s-4.945,1.171-6.068-.444c-.707-1.017-2.3-12.1-2.3-12.1Z" transform="translate(6065.472 1619.914)" fill="#ebae8f"/>
        <path id="Trazado_145606" data-name="Trazado 145606" d="M-6019.192-1425.866c-.642,0-2.668,3.986-1.96,6.051.417,1.211,2.521.668,5.305.767s5.088.946,6.985.745,7.827-1.291,7.827-1.291l-.329-1.581s-2.968.182-4.239-.571-6.579-4.2-6.579-4.2a11.269,11.269,0,0,1-2.75,2.041c-1.353.719-1.537.579-2.222.277C-6018.383-1424.162-6018.174-1425.863-6019.192-1425.866Z" transform="translate(6065.534 1618.992)" fill="#4e6c96"/>
        <path id="Trazado_145607" data-name="Trazado 145607" d="M-6049.523-1534.032c-.359,2.383-3.54,20.653-3.719,31.163s-3.945,25.905-4.076,33.551-.169,28.675-.169,28.675l11.8-.754,14.042-66.68s4.771,19.2,5.618,25.59,2.334,40.666,2.334,40.666l10.528-.775s1.975-31.671,2.317-42.5-6.453-54.512-6.453-54.512S-6049.164-1536.417-6049.523-1534.032Z" transform="translate(6068.253 1627.535)" fill="#232f54"/>
        <path id="Trazado_145608" data-name="Trazado 145608" d="M-6028.274-1599.221l5.971-3.4s14.331,7.142,15.355,11.21,5.041,18.481,5.041,18.481-8.367,22.517-12.591,26.277-8.858,5.871-16.97,6.39-18.742,1.213-18.742,1.213-3.614.047-3.891-2.912a17.516,17.516,0,0,1,.195-5.033s-2.02,2.813-3.407.709a16.03,16.03,0,0,1-1.9-3.866s-7.532,2.411-8.844-1.463c-4.589-13.543,7.1-31.081,7.1-31.081s3.967-7.925,7.2-11.045,19.56-10.724,19.56-10.724Z" transform="translate(6069.129 1632.409)" fill="#fff"/>
        <path id="Trazado_145609" data-name="Trazado 145609" d="M-6024.719-1599.011c-3.327,1.323-.936,3.829-.936,3.829s-1.128,8.211-1.282,12.652c-.172,4.976-1.829,12.73,1.156,17.983,2.451,4.31,5.042,9.931,5.042,9.931l2.271-2.9s-3.744-5.339-4.654-8.018-1.7-5-1.577-14.078a105.587,105.587,0,0,1,1.151-14.995,3.309,3.309,0,0,0,1.409-1.948C-6021.734-1597.962-6023.842-1599.36-6024.719-1599.011Z" transform="translate(6066.003 1632.003)" fill="#caceed"/>
        <path id="Trazado_145610" data-name="Trazado 145610" d="M-6031.022-1613.952s1.434,6.188-.021,8.6,5.372,5.164,5.372,5.164l5.3-2.221-.865-5.8Z" transform="translate(6066.281 1633.122)" fill="#ebae8f"/>
        <path id="Trazado_145611" data-name="Trazado 145611" d="M-6028.3-1618.067s-1.6-4.137,2.1-6.321a75.5,75.5,0,0,1,7.773-3.913s2.7,3.322,2.93,5.123.325,14.839-4.368,15.145-10.381-5.056-10.381-5.056-3.258-4.745-1.824-6.005S-6028.3-1618.067-6028.3-1618.067Z" transform="translate(6066.371 1634.2)" fill="#ebae8f"/>
        <path id="Trazado_145612" data-name="Trazado 145612" d="M-6023.339-1572.832l24.079.41a1.73,1.73,0,0,1,1.7,1.759l-.292,17.087a1.727,1.727,0,0,1-1.757,1.7l-24.079-.41a1.729,1.729,0,0,1-1.7-1.757l.292-17.087A1.729,1.729,0,0,1-6023.339-1572.832Z" transform="translate(6065.841 1630.032)" fill="#7890b5"/>
        <path id="Trazado_145613" data-name="Trazado 145613" d="M-6047.043-1561.511s-7.742,5.37-3.177,11.375c3.509.264,17.2-5.507,17.2-5.507s1.4.207,4.3.308a47.647,47.647,0,0,0,7.812-.81s2.6-.832,1.194-1.349-6.359-.735-6.359-.735,7.57-.317,8.211-.9c.482-.437,2.161-1.482-.23-1.536s-7.36.007-7.36.007,7.936-1.17,9.126-2.1-1.192-.943-2.628-.891-7.49.518-7.49.518,6.13-1.422,7.236-2.225.128-1.368-2.807-.993a49.917,49.917,0,0,0-7.764,2.091,14.49,14.49,0,0,0,3.011-2.886c.724-1.217,1.469-2.891-.834-1.37s-7.293,4.446-7.293,4.446Z" transform="translate(6067.816 1629.753)" fill="#ebae8f"/>
        <path id="Trazado_145614" data-name="Trazado 145614" d="M-6028.565-1618.38c1.289-1.181-.408-4.655,1.667-5.863s8.129-4.4,8.129-4.4l2.849,4s1.47-.516.974-3.172a5.769,5.769,0,0,0-2.853-3.833s-.157-3.461-3.571-2.979a11.6,11.6,0,0,0-6.058,3.411s-2.767-2.588-5.072-.519-2.432,6.389-2.432,6.389-1.874-1.113-2.024,1.371a10.172,10.172,0,0,0,.419,3.954s-1.707-1.219-1.262,1.168,1.554,3.972,2.519,4.367,4.241,1.855,4.241,1.855l-.233-2.219s-1.673-3.434-.894-4.719S-6029.856-1617.2-6028.565-1618.38Z" transform="translate(6066.78 1634.68)" fill="#f4643c"/>
        <path id="Trazado_145615" data-name="Trazado 145615" d="M-6055.1-1543.543a2.979,2.979,0,0,1-1.418-.386c-2.15-1.2-2.029-4.2-1.749-6.353.639-4.911,1.611-9.9,5.771-12.251.594-.336,4.208-1.953,5.918-1.032a1.6,1.6,0,0,1,.839,1.381.946.946,0,0,1-.653,1.135c-5.122,2.126-5.526,4.732-5.182,9.79a5.352,5.352,0,0,0,.431,1.556,3.888,3.888,0,0,1,.309,2.833,5.286,5.286,0,0,1-2.948,3.08A3.514,3.514,0,0,1-6055.1-1543.543Zm7.275-19.692a10.9,10.9,0,0,0-4.372,1.23c-3.919,2.211-4.851,7.043-5.47,11.8-.257,1.976-.385,4.723,1.445,5.746a2.571,2.571,0,0,0,2.222.1,4.724,4.724,0,0,0,2.593-2.709,3.371,3.371,0,0,0-.3-2.42,5.878,5.878,0,0,1-.47-1.732c-.333-4.9-.126-8.046,5.554-10.392.26-.108.307-.128.28-.535a1,1,0,0,0-.521-.888A2.121,2.121,0,0,0-6047.83-1563.235Z" transform="translate(6068.324 1629.356)" fill="#caceed"/>
        <path id="Trazado_145616" data-name="Trazado 145616" d="M-6054.993-1545.562c-.316-.005-.616-.24-.893-.7-.6-.993-1.1-3.156-.534-4a.3.3,0,0,1,.421-.081.3.3,0,0,1,.082.42c-.347.516-.044,2.36.55,3.345.207.341.358.41.392.405s.185-.114.335-.561a12.95,12.95,0,0,0,.134-5.4c-.405-3.7-.823-7.53,4.454-9.362a.3.3,0,0,1,.385.187.3.3,0,0,1-.187.386c-4.822,1.673-4.447,5.1-4.051,8.724a13.4,13.4,0,0,1-.162,5.656c-.208.613-.484.929-.844.968A.631.631,0,0,1-6054.993-1545.562Z" transform="translate(6068.192 1629.18)" fill="#caceed"/>
        <path id="Trazado_145617" data-name="Trazado 145617" d="M-6046.79-1564.3a.309.309,0,0,1-.295-.342,11.556,11.556,0,0,1,1.7-4.288,12.841,12.841,0,0,0,1.412-3.094,9.759,9.759,0,0,0,.176-1.088c.138-1.082.294-2.308,1.022-2.869a.3.3,0,0,1,.425.056.3.3,0,0,1-.056.425c-.529.406-.674,1.547-.791,2.464a10.146,10.146,0,0,1-.191,1.163,13.491,13.491,0,0,1-1.472,3.241,11.112,11.112,0,0,0-1.625,4.068A.3.3,0,0,1-6046.79-1564.3Z" transform="translate(6067.472 1630.273)" fill="#caceed"/>
        <path id="Trazado_145618" data-name="Trazado 145618" d="M-6030.361-1536.652a.3.3,0,0,1-.268-.172.3.3,0,0,1,.143-.4c.433-.207.26-1.224.121-2.041a4.489,4.489,0,0,1-.1-1.685c.165-.61.333-1.212.5-1.806a35.5,35.5,0,0,0,1.7-9.259.3.3,0,0,1,.308-.3.3.3,0,0,1,.3.308,35.907,35.907,0,0,1-1.726,9.411c-.166.594-.333,1.192-.5,1.8a4.356,4.356,0,0,0,.111,1.426c.182,1.071.389,2.285-.457,2.689A.3.3,0,0,1-6030.361-1536.652Z" transform="translate(6066.237 1628.49)" fill="#caceed"/>
        <path id="Trazado_145619" data-name="Trazado 145619" d="M-6048.1-1536.393a.3.3,0,0,1-.3-.308.3.3,0,0,1,.308-.3c1.807.031,2.981-1.545,4.016-2.936.832-1.117,1.549-2.082,2.492-2.066a.3.3,0,0,1,.3.308.3.3,0,0,1-.308.3c-.632-.01-1.295.879-2,1.822C-6044.651-1538.14-6045.979-1536.356-6048.1-1536.393Z" transform="translate(6067.57 1627.715)" fill="#caceed"/>
        <path id="Trazado_145620" data-name="Trazado 145620" d="M-6024.929-1537.685a.3.3,0,0,1-.269-.172.3.3,0,0,1,.143-.4c.346-.166.759-.338,1.2-.52,1.652-.685,3.708-1.539,4.435-2.935a.3.3,0,0,1,.409-.128.3.3,0,0,1,.128.409c-.83,1.59-3,2.491-4.74,3.214-.431.179-.837.348-1.169.506A.294.294,0,0,1-6024.929-1537.685Z" transform="translate(6065.83 1627.705)" fill="#caceed"/>
        <path id="Trazado_145621" data-name="Trazado 145621" d="M-6047.675-1523.953a.3.3,0,0,1-.3-.308.3.3,0,0,1,.308-.3c4.479.076,4.729-7.039,4.743-7.85a.3.3,0,0,1,.308-.3.3.3,0,0,1,.3.308C-6042.384-1528.462-6043.828-1523.888-6047.675-1523.953Z" transform="translate(6067.539 1627.016)" fill="#7890b5"/>
        <path id="Trazado_145622" data-name="Trazado 145622" d="M-6054.891-1445.093a.3.3,0,0,1-.134-.033c-.684-.355-.562-1.879-.317-3.994.053-.455.1-.847.1-1.062a54.847,54.847,0,0,1,.608-6.294c.457-3.379.928-6.874.341-10.094-.633-3.47.046-6.974.7-10.364.1-.519.2-1.035.3-1.547a2.791,2.791,0,0,0,.013-.517,2.051,2.051,0,0,1,.2-1.19c.176-.254.583-.312,1.225-.356-.5-.258-1-.578-.839-1.026.182-.516.852-.63,1.5-.74a2.447,2.447,0,0,0,1.053-.32,5.068,5.068,0,0,0-1.3-.476c-.64-.178-.928-.264-1.051-.454a.639.639,0,0,1,.064-.7.548.548,0,0,0,.043-.076,31.333,31.333,0,0,0,.805-5.168c.1-1.058.212-2.152.392-3.271a59.087,59.087,0,0,0,.51-8.975,73.863,73.863,0,0,1,.3-7.462c.223-2.074.55-4.159.867-6.176a75.594,75.594,0,0,0,1.139-10.359.3.3,0,0,1,.308-.3.3.3,0,0,1,.3.309,76.173,76.173,0,0,1-1.146,10.442c-.316,2.009-.641,4.087-.863,6.147a72.87,72.87,0,0,0-.295,7.4,59.789,59.789,0,0,1-.519,9.067c-.177,1.1-.284,2.185-.388,3.235a31.656,31.656,0,0,1-.826,5.273.9.9,0,0,1-.106.222,1.625,1.625,0,0,0,.629.263c.949.263,1.582.466,1.733.882a.53.53,0,0,1-.074.492,2.2,2.2,0,0,1-1.475.6,2.357,2.357,0,0,0-1,.3,3.671,3.671,0,0,0,.782.459c.437.212.655.318.651.575-.006.367-.381.39-1,.428a3.816,3.816,0,0,0-.93.123,1.944,1.944,0,0,0-.077.811,3.256,3.256,0,0,1-.023.645c-.094.513-.2,1.03-.3,1.551-.645,3.334-1.312,6.783-.7,10.14.6,3.316.126,6.858-.337,10.283a54.57,54.57,0,0,0-.6,6.224c0,.243-.049.63-.1,1.12-.092.791-.371,3.2-.007,3.387a.3.3,0,0,1,.129.409A.3.3,0,0,1-6054.891-1445.093Z" transform="translate(6068.107 1626.516)" fill="#7890b5"/>
        <path id="Trazado_145623" data-name="Trazado 145623" d="M-6053.1-1437.913a13.552,13.552,0,0,1-3.8-.451.3.3,0,0,1-.184-.387.3.3,0,0,1,.386-.184c2.139.761,8.53.321,11.117,0a.3.3,0,0,1,.338.264.3.3,0,0,1-.264.338A61.633,61.633,0,0,1-6053.1-1437.913Z" transform="translate(6068.225 1619.97)" fill="#7890b5"/>
        <path id="Trazado_145624" data-name="Trazado 145624" d="M-6020.61-1438.833a.3.3,0,0,1-.295-.266.3.3,0,0,1,.263-.338c1.092-.133,2-.244,3.207-.344.279-.023.894-.026,1.672-.029,1.518,0,5.071-.017,5.476-.354a.3.3,0,0,1,.427.009.3.3,0,0,1-.009.429c-.444.425-2.333.51-5.891.522-.736,0-1.37.005-1.625.026-1.19.1-2.1.21-3.149.339Z" transform="translate(6065.505 1620.068)" fill="#7890b5"/>
        <path id="Trazado_145625" data-name="Trazado 145625" d="M-6029.879-1505.617a.3.3,0,0,1-.3-.308,4.974,4.974,0,0,1,.614-1.929,6.321,6.321,0,0,0,.5-1.269c.179-.818.424-1.663.66-2.48a19.412,19.412,0,0,0,.993-4.993.3.3,0,0,1,.309-.3.3.3,0,0,1,.3.308,19.947,19.947,0,0,1-1.018,5.152c-.245.843-.477,1.641-.65,2.438a6.8,6.8,0,0,1-.541,1.4,4.569,4.569,0,0,0-.558,1.681A.3.3,0,0,1-6029.879-1505.617Z" transform="translate(6066.201 1625.828)" fill="#7890b5"/>
        <path id="Trazado_145626" data-name="Trazado 145626" d="M-6019.65-1444.682a.305.305,0,0,1-.272-.177.3.3,0,0,1-.016-.21c.028-.263.119-2.058.13-2.694l.107-6.316a39.961,39.961,0,0,0-.458-5.7q-.05-.391-.1-.779a39.583,39.583,0,0,1-.161-5.682,36.193,36.193,0,0,0-.213-5.992,7.788,7.788,0,0,0-.224-.913c-.269-.94-.6-2.11.06-2.959a10.081,10.081,0,0,1,1.375-1.1l.4-.3a5.03,5.03,0,0,0-.878-.009,2.369,2.369,0,0,1-1.891-.419.37.37,0,0,1-.1-.4c.1-.248.368-.267.713-.292a1.941,1.941,0,0,0,.436-.059,3.019,3.019,0,0,1,.959-.173c.409-.036,1.027-.09,1.168-.276.011-.014.037-.047.019-.142-.081-.441-.322-.478-1.106-.375-.523.068-1.117.147-1.422-.327a1.887,1.887,0,0,1-.062-1.189,2.822,2.822,0,0,0,.045-.561c-.1-.837-.165-1.709-.225-2.553a27.519,27.519,0,0,0-.514-4.226c-1.243-5.356-2.384-10.187-3.76-15.079a17.23,17.23,0,0,0-1.035-2.463,11.168,11.168,0,0,1-1.444-4.365.3.3,0,0,1,.308-.3.3.3,0,0,1,.3.308,10.84,10.84,0,0,0,1.385,4.093,17.692,17.692,0,0,1,1.072,2.56c1.38,4.9,2.522,9.742,3.767,15.105a28.067,28.067,0,0,1,.528,4.321c.058.835.119,1.7.222,2.518a3.02,3.02,0,0,1-.046.72,2.155,2.155,0,0,0-.028.78c.1.151.472.1.833.055.632-.084,1.585-.209,1.781.866a.766.766,0,0,1-.133.619c-.3.4-.962.455-1.6.51a3.027,3.027,0,0,0-.749.117.8.8,0,0,1-.087.034c.2.006.418,0,.642-.013a2.743,2.743,0,0,1,1.674.26.307.307,0,0,1,.132.245c0,.2-.031.222-.943.892a14.208,14.208,0,0,0-1.255.982c-.472.608-.2,1.571.044,2.422a8.14,8.14,0,0,1,.241.99,36.6,36.6,0,0,1,.219,6.092,39.284,39.284,0,0,0,.157,5.6q.048.386.1.776a40.716,40.716,0,0,1,.462,5.785s-.145,7.39-.173,7.954c-.069,1.375-.069,1.375-.316,1.427A.271.271,0,0,1-6019.65-1444.682Z" transform="translate(6066.046 1625.362)" fill="#7890b5"/>
        <path id="Trazado_145627" data-name="Trazado 145627" d="M-6042.428-1471.794a8.833,8.833,0,0,1-1-.1,10.037,10.037,0,0,0-1.232-.111.3.3,0,0,1-.3-.308.3.3,0,0,1,.309-.3,10.685,10.685,0,0,1,1.3.117,3.9,3.9,0,0,0,2.585-.305,1.5,1.5,0,0,0,.642-1.224c-.013-.061-.043-.2-.388-.207a6.475,6.475,0,0,0-1.368.177c-1.107.22-2.363.471-3.525-.733a.3.3,0,0,1,.007-.428.3.3,0,0,1,.429.006c.933.966,1.877.778,2.972.56a7.051,7.051,0,0,1,1.5-.188.89.89,0,0,1,.968.683,2.039,2.039,0,0,1-.972,1.9A4.094,4.094,0,0,1-6042.428-1471.794Z" transform="translate(6067.352 1622.701)" fill="#7890b5"/>
        <path id="Trazado_145628" data-name="Trazado 145628" d="M-6014.325-1471.621a.3.3,0,0,1-.3-.308.3.3,0,0,1,.308-.3c.813.014,4.158-.891,4.455-1.816.067-.208-.075-.439-.421-.689a3.58,3.58,0,0,0-.647.409,2.133,2.133,0,0,1-1.062.54c-.217,0-.675-.038-1.16-.074s-1.153-.084-1.329-.08a.285.285,0,0,1-.093.013.3.3,0,0,1-.3-.308.315.315,0,0,1,.1-.221c.126-.114.133-.121,1.665-.007.456.034.926.068,1.126.072a2.793,2.793,0,0,0,.7-.425c.513-.37.956-.69,1.3-.446.775.536.807,1.058.7,1.4C-6009.749-1472.409-6013.676-1471.609-6014.325-1471.621Zm.06-2.6a.3.3,0,0,1-.031.13A.3.3,0,0,0-6014.265-1474.22Z" transform="translate(6065.051 1622.705)" fill="#7890b5"/>
      </g>
    </g>
    <rect id="Rectángulo_35482" data-name="Rectángulo 35482" width="610" height="363" transform="translate(180 13973)" fill="none"/>
  </g>
</svg>
