<svg xmlns="http://www.w3.org/2000/svg" width="108" height="108" viewBox="0 0 108 108">
  <g id="Grupo_107627" data-name="Grupo 107627" transform="translate(-1000 -2160)">
    <circle id="Elipse_5077" data-name="Elipse 5077" cx="54" cy="54" r="54" transform="translate(1000 2160)" fill="#3e2ea6"/>
    <g id="Grupo_107438" data-name="Grupo 107438" transform="translate(-894.851 1959.581)">
      <g id="Grupo_107437" data-name="Grupo 107437" transform="translate(1917.851 213.418)">
        <path id="Trazado_149909" data-name="Trazado 149909" d="M1923.46,241.12l-1.91,4.131a2.341,2.341,0,0,0,1.139,3.1l10.572,4.891-8.77-9.547A3.889,3.889,0,0,1,1923.46,241.12Z" transform="translate(-1917.094 -207.401)" fill="#dad6f7"/>
        <path id="Trazado_149910" data-name="Trazado 149910" d="M1923.311,243.991l14.612-13.429,12.924-11.877-10.925-5.053a2.34,2.34,0,0,0-3.1,1.137l-8.438,18.249Z" transform="translate(-1916.665 -213.419)" fill="#dad6f7"/>
        <path id="Trazado_149911" data-name="Trazado 149911" d="M1935.01,214.775l-12.9-.655a2.343,2.343,0,0,0-2.449,2.213l-1.019,20.079-.792,15.64a1.971,1.971,0,0,1,.3.214,3.9,3.9,0,0,1,.357-1.817l8.442-18.25Z" transform="translate(-1917.851 -213.267)" fill="#dad6f7"/>
        <path id="Trazado_149912" data-name="Trazado 149912" d="M1950.124,237.759a2.294,2.294,0,0,0-.668-1.55,2.077,2.077,0,0,0-1.333-.65,3.278,3.278,0,0,0-1.815.506l3.283,3.38A2.627,2.627,0,0,0,1950.124,237.759Z" transform="translate(-1911.669 -208.61)" fill="#dad6f7"/>
        <path id="Trazado_149913" data-name="Trazado 149913" d="M1930.651,240.455c.713,1.664,5.619,13.487,6.02,14.457l12.091,16.894a26.757,26.757,0,0,1,3.48,4.308,4.569,4.569,0,0,1,.246,1l18.848-4.688c.159-2.889.965-19.61-1.1-28.491-.211-.907-2.565-2.761-4.369-3.939l-9.183,8.439-.473,1.715-2.554,2.111-1.9.134-5.4-1.086-6.77-5.96c-1.905-3.171-4.945-7.85-5.741-8.326a2.4,2.4,0,0,0-3.262.354A3.257,3.257,0,0,0,1930.651,240.455Z" transform="translate(-1915.161 -208.39)" fill="#dad6f7"/>
        <path id="Trazado_149914" data-name="Trazado 149914" d="M1942.018,235.458a2.816,2.816,0,0,0,1.5-.225l-2.912-3a2.411,2.411,0,0,0-.287,1.427,2.034,2.034,0,0,0,.572,1.229A1.935,1.935,0,0,0,1942.018,235.458Z" transform="translate(-1912.973 -209.331)" fill="#dad6f7"/>
        <path id="Trazado_149915" data-name="Trazado 149915" d="M1971.9,267.215l-12.706,3.156-12.7,3.158,2.415,10.55,12.706-3.159,12.7-3.154Zm-19.556,12.647a2.12,2.12,0,1,1,2.119-2.12A2.12,2.12,0,0,1,1952.341,279.862Z" transform="translate(-1911.63 -201.732)" fill="#dad6f7"/>
        <path id="Trazado_149916" data-name="Trazado 149916" d="M1930.173,240.566a3.911,3.911,0,0,1,3.34-1.742,5.2,5.2,0,0,1,2.643.766c.563.336,1.43,1.175,3.918,5,1.083,1.663,2.071,3.28,2.4,3.827l6.08,5.318,4.217.85,4.791-4.4,14.8-13.605a2.339,2.339,0,0,0,.14-3.3l-14.467-15.744a2.337,2.337,0,0,0-3.292-.14L1939.941,231l-14.8,13.6a2.34,2.34,0,0,0-.14,3.3l11.062,12.042c-.5-1.205-5.3-12.761-6-14.4A5.174,5.174,0,0,1,1930.173,240.566Zm11.229-7.723,1.329-1.289.831.858a5.642,5.642,0,0,1,3.233-1.31,4.95,4.95,0,0,1,3.113,1.009l-2.038,2.534a2.5,2.5,0,0,0-2.448-.32l3.293,3.39a8.394,8.394,0,0,1,4.414-1.447,4.649,4.649,0,0,1,3.031,1.528,5.2,5.2,0,0,1,1.564,3.616,6.262,6.262,0,0,1-1.509,4.025l1.256,1.259-1.328,1.289-1.215-1.214a6.053,6.053,0,0,1-3.66,1.38,6.262,6.262,0,0,1-3.831-1.416l2.155-2.563a3.887,3.887,0,0,0,1.711.661,3.434,3.434,0,0,0,1.605-.142l-3.528-3.631a7.119,7.119,0,0,1-4.06,1.088,4.949,4.949,0,0,1-3.156-1.575,4.567,4.567,0,0,1-1.373-3.307,5.452,5.452,0,0,1,1.444-3.565Z" transform="translate(-1916.431 -212.687)" fill="#dad6f7"/>
      </g>
    </g>
  </g>
</svg>
