<svg xmlns="http://www.w3.org/2000/svg" width="48" height="48" viewBox="0 0 48 48">
  <g id="Grupo_106752" data-name="Grupo 106752" transform="translate(-1372 -7731)">
    <g id="Grupo_106749" data-name="Grupo 106749" transform="translate(392 -1172.137)">
      <g id="Grupo_58919" data-name="Grupo 58919" transform="translate(6210 17997.137)">
        <g id="Light_Button_Secondary_Icon" data-name="Light/Button/Secondary/Icon" transform="translate(-5230 -9094)">
          <rect id="Rectangle" width="48" height="48" rx="24" fill="#05dbf2"/>
        </g>
        <g id="Grupo_107474" data-name="Grupo 107474" transform="translate(-4855.146 -8658.489)">
          <path id="Trazado_152423" data-name="Trazado 152423" d="M-340.13-399.8a1.18,1.18,0,0,1-.837-.346l-6.443-6.443-6.3,6.3a1.184,1.184,0,0,1-1.674,0,1.184,1.184,0,0,1,0-1.674l7.134-7.134a1.184,1.184,0,0,1,1.674,0l7.28,7.28a1.184,1.184,0,0,1,0,1.674A1.181,1.181,0,0,1-340.13-399.8Z" transform="translate(-3.517 -5.4)" fill="#fff"/>
          <path id="Trazado_152424" data-name="Trazado 152424" d="M-339.553-393.928a1.184,1.184,0,0,1-1.183-1.183v-13.147a1.183,1.183,0,0,1,1.183-1.183,1.183,1.183,0,0,1,1.183,1.183v13.147A1.184,1.184,0,0,1-339.553-393.928Z" transform="translate(-11.412 -5.4)" fill="#fff"/>
          <path id="Trazado_152425" data-name="Trazado 152425" d="M-340.486-417.328h-20.737a1.184,1.184,0,0,1-1.183-1.183,1.184,1.184,0,0,1,1.183-1.183h20.737a1.184,1.184,0,0,1,1.183,1.183A1.184,1.184,0,0,1-340.486-417.328Z" fill="#fff"/>
        </g>
      </g>
    </g>
  </g>
</svg>
