<svg xmlns="http://www.w3.org/2000/svg" xmlns:xlink="http://www.w3.org/1999/xlink" width="184.742" height="184.742" viewBox="0 0 184.742 184.742">
  <defs>
    <linearGradient id="linear-gradient" x1="1.095" y1="1.022" x2="-0.011" y2="0.052" gradientUnits="objectBoundingBox">
      <stop offset="0" stop-color="#ff8943"/>
      <stop offset="1" stop-color="#ffc563"/>
    </linearGradient>
    <linearGradient id="linear-gradient-2" x1="1.08" y1="0.945" x2="-0.48" y2="-0.13" xlink:href="#linear-gradient"/>
    <linearGradient id="linear-gradient-3" x1="-34.894" y1="-27.09" x2="-7.318" y2="-5.36" gradientUnits="objectBoundingBox">
      <stop offset="0" stop-color="#ff8943"/>
      <stop offset="1" stop-color="#ffdda3"/>
    </linearGradient>
    <linearGradient id="linear-gradient-4" x1="1.161" y1="1.009" x2="0.135" y2="0.291" xlink:href="#linear-gradient"/>
  </defs>
  <g id="Grupo_107718" data-name="Grupo 107718" transform="translate(-541.08 -318.327)">
    <g id="Grupo_107665" data-name="Grupo 107665">
      <rect id="Rectángulo_35746" data-name="Rectángulo 35746" width="184.742" height="184.742" rx="19.519" transform="translate(541.08 318.327)" fill="#6de0f0"/>
    </g>
    <g id="Grupo_107666" data-name="Grupo 107666" opacity="0.7">
      <path id="Trazado_152686" data-name="Trazado 152686" d="M640.45,471.123h-2.706a1.679,1.679,0,0,1-1.65-1.368l-.767-4.067a16.226,16.226,0,0,1-4.639-1.834.833.833,0,0,0-.9.041l-2.907,2.053a1.678,1.678,0,0,1-2.157-.184l-1.913-1.913a1.681,1.681,0,0,1-.2-2.135l2.029-2.971a.837.837,0,0,0,.033-.892,16.391,16.391,0,0,1-1.719-4.136.837.837,0,0,0-.667-.608l-3.5-.6a1.676,1.676,0,0,1-1.4-1.655v-2.706a1.68,1.68,0,0,1,1.369-1.65l4.065-.767a16.357,16.357,0,0,1,1.835-4.641.837.837,0,0,0-.041-.9l-2.052-2.9a1.676,1.676,0,0,1,.184-2.157l1.913-1.913a1.681,1.681,0,0,1,2.135-.2l3.418,2.333a16.323,16.323,0,0,1,4.461-1.96l.748-.82.582-3.378a1.676,1.676,0,0,1,1.655-1.4h2.705a1.682,1.682,0,0,1,1.651,1.369l.644,3.415.746.8a16.381,16.381,0,0,1,4.02,1.68.837.837,0,0,0,.9-.041l2.9-2.051a1.675,1.675,0,0,1,2.156.184l1.914,1.913a1.682,1.682,0,0,1,.2,2.135l-2.029,2.972a.834.834,0,0,0-.033.893,16.4,16.4,0,0,1,1.687,4.014l.82.748,3.38.582a1.675,1.675,0,0,1,1.394,1.655v2.706a1.68,1.68,0,0,1-1.368,1.65l-3.415.644-.8.748a16.271,16.271,0,0,1-1.68,4.016.837.837,0,0,0,.041.9l2.052,2.9a1.678,1.678,0,0,1-.184,2.157l-1.914,1.913a1.68,1.68,0,0,1-2.134.2l-2.973-2.029a.836.836,0,0,0-.892-.033,16.379,16.379,0,0,1-4.134,1.718.833.833,0,0,0-.607.667l-.6,3.5A1.675,1.675,0,0,1,640.45,471.123Zm-4.685-6.2.282.047.873,4.629a.84.84,0,0,0,.824.684h2.706a.836.836,0,0,0,.826-.7l.6-3.5a1.677,1.677,0,0,1,1.222-1.337,15.533,15.533,0,0,0,3.923-1.631,1.682,1.682,0,0,1,1.791.064l2.973,2.03a.839.839,0,0,0,1.066-.1l1.913-1.913a.838.838,0,0,0,.092-1.077l-2.052-2.9a1.68,1.68,0,0,1-.08-1.813,15.413,15.413,0,0,0,1.623-3.922l.031-.119,1.162-1.079,3.654-.689a.841.841,0,0,0,.684-.824v-2.706a.838.838,0,0,0-.7-.827l-3.622-.623-1.185-1.081-.031-.12a15.584,15.584,0,0,0-1.631-3.922,1.68,1.68,0,0,1,.063-1.793l2.03-2.972a.84.84,0,0,0-.1-1.066l-1.913-1.913a.836.836,0,0,0-1.077-.092l-2.9,2.05a1.678,1.678,0,0,1-1.813.08,15.592,15.592,0,0,0-3.926-1.623l-.119-.031-1.078-1.161-.688-3.654a.841.841,0,0,0-.825-.683h-2.705a.836.836,0,0,0-.826.7l-.624,3.62-1.081,1.185-.12.031a15.506,15.506,0,0,0-4.56,2.028l-.245.163-3.882-2.651a.839.839,0,0,0-1.066.1l-1.913,1.913a.835.835,0,0,0-.092,1.077l2.052,2.9a1.68,1.68,0,0,1,.08,1.813,15.527,15.527,0,0,0-1.794,4.643l-.032.291-4.645.875a.839.839,0,0,0-.683.824v2.706a.836.836,0,0,0,.7.826l3.5.6a1.678,1.678,0,0,1,1.338,1.222,15.555,15.555,0,0,0,1.631,3.924,1.68,1.68,0,0,1-.064,1.792L623.3,462.19a.841.841,0,0,0,.1,1.066l1.914,1.913a.837.837,0,0,0,1.077.092l2.907-2.053a1.678,1.678,0,0,1,1.813-.08A15.389,15.389,0,0,0,635.765,464.923Zm3.314-5.088a10.426,10.426,0,0,1-7.36-3.041c-3.244-3.248-4.624-9.066-.4-14.745a1.64,1.64,0,0,1,.341-.34c5.682-4.211,11.492-2.825,14.729.416s4.616,9.054.4,14.735a1.64,1.64,0,0,1-.341.34h0A12.3,12.3,0,0,1,639.079,459.835Zm.116-19.9a12.049,12.049,0,0,0-7.029,2.449.826.826,0,0,0-.167.167c-2.832,3.8-3.832,9.5.315,13.648s9.832,3.152,13.634.326h0a.8.8,0,0,0,.167-.167c2.825-3.8,3.823-9.495-.316-13.639A9.132,9.132,0,0,0,639.2,439.935Z" fill="#fff"/>
    </g>
    <g id="Grupo_107667" data-name="Grupo 107667" opacity="0.7">
      <path id="Trazado_152687" data-name="Trazado 152687" d="M563.186,367.78a.671.671,0,0,0-.427-.836.646.646,0,0,0-.825.416q-.788,2.475-1.43,5.1a.672.672,0,0,0,.482.807.646.646,0,0,0,.794-.471Q562.413,370.214,563.186,367.78Zm3.909-9.625a.67.67,0,0,0-.289-.892.649.649,0,0,0-.883.277q-1.18,2.323-2.192,4.826a.67.67,0,0,0,.363.865.647.647,0,0,0,.855-.351Q565.94,360.429,567.095,358.155Zm5.541-8.734a.664.664,0,0,0-.115-.928.652.652,0,0,0-.922.1,52.106,52.106,0,0,0-3.054,4.328.668.668,0,0,0,.206.914.65.65,0,0,0,.906-.192A50.829,50.829,0,0,1,572.636,349.421Zm7.235-7.416a.664.664,0,0,0-.843-1.027,49.133,49.133,0,0,0-3.9,3.583.663.663,0,0,0,.017.934.655.655,0,0,0,.929,0A47.833,47.833,0,0,1,579.871,342.005Zm8.561-5.667a.654.654,0,0,0,.266-.89.663.663,0,0,0-.89-.283,52.717,52.717,0,0,0-4.555,2.69.664.664,0,0,0,.735,1.107A51.216,51.216,0,0,1,588.432,336.338Zm9.586-3.987a.649.649,0,0,0,.416-.828.668.668,0,0,0-.832-.431q-2.487.793-4.963,1.819a.653.653,0,0,0-.345.861.665.665,0,0,0,.863.361Q595.582,333.128,598.018,332.351Zm10.117-2.239a.647.647,0,0,0,.559-.737.67.67,0,0,0-.742-.574q-2.619.327-5.225.9a.649.649,0,0,0-.487.787.669.669,0,0,0,.791.5Q605.578,330.43,608.135,330.112Zm10.38-.284a.646.646,0,0,0,.691-.614.673.673,0,0,0-.622-.7q-2.667-.183-5.32-.112a.646.646,0,0,0-.628.678.671.671,0,0,0,.685.642Q615.911,329.647,618.515,329.828Zm10.347,1.69a.647.647,0,0,0,.792-.476.672.672,0,0,0-.487-.8q-2.614-.672-5.217-1.1a.644.644,0,0,0-.746.544.673.673,0,0,0,.554.759Q626.3,330.861,628.862,331.518Zm9.84,3.381a.646.646,0,0,0,.857-.345.67.67,0,0,0-.357-.867q-2.495-1.073-4.978-1.928a.646.646,0,0,0-.829.409.672.672,0,0,0,.421.839Q636.253,333.847,638.7,334.9Z" fill="#fff"/>
      <path id="Trazado_152688" data-name="Trazado 152688" d="M557.573,363.42h0a.651.651,0,0,0-.4.835l3.165,9.114a.666.666,0,0,0,.837.418h0a.651.651,0,0,0,.4-.835l-3.165-9.114A.666.666,0,0,0,557.573,363.42Z" fill="#fff"/>
      <path id="Trazado_152689" data-name="Trazado 152689" d="M568.468,366.044h0a.654.654,0,0,0-.929-.017l-6.771,6.665a.662.662,0,0,0,0,.934h0a.654.654,0,0,0,.928.017l6.772-6.665A.663.663,0,0,0,568.468,366.044Z" fill="#fff"/>
    </g>
    <g id="Grupo_107671" data-name="Grupo 107671">
      <circle id="Elipse_5231" data-name="Elipse 5231" cx="9.893" cy="9.893" r="9.893" transform="matrix(0.991, -0.137, 0.137, 0.991, 610.471, 348.8)" fill="url(#linear-gradient)"/>
      <g id="Grupo_107670" data-name="Grupo 107670">
        <g id="Grupo_107668" data-name="Grupo 107668">
          <path id="Trazado_152690" data-name="Trazado 152690" d="M621.8,363.517a.441.441,0,0,1-.441-.441V351.944a.44.44,0,1,1,.881,0v11.132A.441.441,0,0,1,621.8,363.517Z" fill="#fff"/>
        </g>
        <g id="Grupo_107669" data-name="Grupo 107669">
          <path id="Trazado_152691" data-name="Trazado 152691" d="M627.363,357.95H616.231a.441.441,0,1,1,0-.881h11.132a.441.441,0,0,1,0,.881Z" fill="#fff"/>
        </g>
      </g>
    </g>
    <g id="Grupo_107686" data-name="Grupo 107686">
      <g id="Grupo_107685" data-name="Grupo 107685">
        <rect id="Rectángulo_35747" data-name="Rectángulo 35747" width="78.4" height="102.869" rx="4.994" transform="translate(551.149 380.181)" fill="#fff"/>
        <g id="Grupo_107684" data-name="Grupo 107684" opacity="0.8">
          <g id="Grupo_107677" data-name="Grupo 107677">
            <g id="Grupo_107672" data-name="Grupo 107672">
              <rect id="Rectángulo_35748" data-name="Rectángulo 35748" width="49.175" height="3.328" rx="1.245" transform="translate(562.638 431.826)" fill="#a6a4f7"/>
            </g>
            <g id="Grupo_107673" data-name="Grupo 107673">
              <rect id="Rectángulo_35749" data-name="Rectángulo 35749" width="56.093" height="2.491" rx="1.245" transform="translate(562.638 438.956)" fill="#a6a4f7"/>
            </g>
            <g id="Grupo_107674" data-name="Grupo 107674">
              <rect id="Rectángulo_35750" data-name="Rectángulo 35750" width="48.969" height="2.512" rx="1.245" transform="translate(562.408 444.779)" fill="#a6a4f7"/>
            </g>
            <g id="Grupo_107675" data-name="Grupo 107675">
              <rect id="Rectángulo_35751" data-name="Rectángulo 35751" width="54.524" height="2.493" rx="1.245" transform="translate(562.408 450.409)" fill="#a6a4f7"/>
            </g>
            <g id="Grupo_107676" data-name="Grupo 107676">
              <path id="Trazado_152692" data-name="Trazado 152692" d="M587.868,458.968H565.307c-1.6,0-2.9-.558-2.9-1.246h0c0-.687,1.3-1.245,2.9-1.245h22.561c1.6,0,2.9.558,2.9,1.245h0C590.767,458.41,589.469,458.968,587.868,458.968Z" fill="#a6a4f7"/>
            </g>
          </g>
          <g id="Grupo_107683" data-name="Grupo 107683">
            <g id="Grupo_107678" data-name="Grupo 107678">
              <rect id="Rectángulo_35752" data-name="Rectángulo 35752" width="49.175" height="3.328" rx="1.245" transform="translate(562.47 395.648)" fill="#a6a4f7"/>
            </g>
            <g id="Grupo_107679" data-name="Grupo 107679">
              <rect id="Rectángulo_35753" data-name="Rectángulo 35753" width="56.093" height="2.491" rx="1.245" transform="translate(562.47 402.778)" fill="#a6a4f7"/>
            </g>
            <g id="Grupo_107680" data-name="Grupo 107680">
              <rect id="Rectángulo_35754" data-name="Rectángulo 35754" width="48.969" height="2.512" rx="1.245" transform="translate(562.24 408.601)" fill="#a6a4f7"/>
            </g>
            <g id="Grupo_107681" data-name="Grupo 107681">
              <rect id="Rectángulo_35755" data-name="Rectángulo 35755" width="54.524" height="2.493" rx="1.245" transform="translate(562.24 414.231)" fill="#a6a4f7"/>
            </g>
            <g id="Grupo_107682" data-name="Grupo 107682">
              <path id="Trazado_152693" data-name="Trazado 152693" d="M587.7,422.789H565.139c-1.6,0-2.9-.557-2.9-1.245h0c0-.688,1.3-1.245,2.9-1.245H587.7c1.6,0,2.9.557,2.9,1.245h0C590.6,422.232,589.3,422.789,587.7,422.789Z" fill="#a6a4f7"/>
            </g>
          </g>
        </g>
      </g>
    </g>
    <g id="Grupo_107703" data-name="Grupo 107703">
      <g id="Grupo_107696" data-name="Grupo 107696">
        <g id="Grupo_107694" data-name="Grupo 107694">
          <g id="Grupo_107687" data-name="Grupo 107687">
            <path id="Trazado_152694" data-name="Trazado 152694" d="M664.266,334.052h38.9l11.191,10.858v52.741a5.952,5.952,0,0,1-6.064,5.833H664.266a5.952,5.952,0,0,1-6.065-5.833V339.884A5.952,5.952,0,0,1,664.266,334.052Z" fill="url(#linear-gradient-2)"/>
            <path id="Trazado_152695" data-name="Trazado 152695" d="M703.161,334.052v6.927a4.012,4.012,0,0,0,4.088,3.931h7.1Z" fill="url(#linear-gradient-3)"/>
          </g>
          <g id="Grupo_107693" data-name="Grupo 107693">
            <g id="Grupo_107688" data-name="Grupo 107688">
              <path id="Trazado_152696" data-name="Trazado 152696" d="M699.9,362.058H667.959a.836.836,0,0,1-.852-.819v-.551a.836.836,0,0,1,.852-.819H699.9a.836.836,0,0,1,.852.819v.551A.836.836,0,0,1,699.9,362.058Z" fill="#fff"/>
            </g>
            <g id="Grupo_107689" data-name="Grupo 107689">
              <path id="Trazado_152697" data-name="Trazado 152697" d="M704.629,366.2h-36.67a.836.836,0,0,1-.852-.82h0a.836.836,0,0,1,.852-.819h36.67a.836.836,0,0,1,.852.819h0A.836.836,0,0,1,704.629,366.2Z" fill="#fff"/>
            </g>
            <g id="Grupo_107690" data-name="Grupo 107690">
              <path id="Trazado_152698" data-name="Trazado 152698" d="M699.6,370.044H667.8a.836.836,0,0,1-.852-.82v-.014a.836.836,0,0,1,.852-.819h31.8a.836.836,0,0,1,.852.819v.014A.836.836,0,0,1,699.6,370.044Z" fill="#fff"/>
            </g>
            <g id="Grupo_107691" data-name="Grupo 107691">
              <path id="Trazado_152699" data-name="Trazado 152699" d="M703.4,373.736H667.8a.836.836,0,0,1-.852-.82v0a.836.836,0,0,1,.852-.819h35.6a.836.836,0,0,1,.852.819v0A.836.836,0,0,1,703.4,373.736Z" fill="#fff"/>
            </g>
            <g id="Grupo_107692" data-name="Grupo 107692">
              <path id="Trazado_152700" data-name="Trazado 152700" d="M674.432,377.726H667.8a.836.836,0,0,1-.852-.819h0a.836.836,0,0,1,.852-.82h6.63a.836.836,0,0,1,.852.82h0A.836.836,0,0,1,674.432,377.726Z" fill="#fff"/>
            </g>
          </g>
        </g>
        <g id="Grupo_107695" data-name="Grupo 107695">
          <path id="Trazado_152701" data-name="Trazado 152701" d="M651.37,347.216h38.9l11.191,10.858v52.741a5.952,5.952,0,0,1-6.065,5.833H651.37a5.952,5.952,0,0,1-6.064-5.833V353.048A5.951,5.951,0,0,1,651.37,347.216Z" fill="url(#linear-gradient-4)"/>
          <path id="Trazado_152702" data-name="Trazado 152702" d="M690.266,347.216v6.927a4.011,4.011,0,0,0,4.087,3.931h7.1Z" fill="url(#linear-gradient-3)"/>
        </g>
      </g>
      <g id="Grupo_107702" data-name="Grupo 107702">
        <g id="Grupo_107697" data-name="Grupo 107697">
          <path id="Trazado_152703" data-name="Trazado 152703" d="M687,375.674H655.064a.84.84,0,0,1-.852-.828v-.557a.84.84,0,0,1,.852-.829H687a.84.84,0,0,1,.852.829v.557A.84.84,0,0,1,687,375.674Z" fill="#fff"/>
        </g>
        <g id="Grupo_107698" data-name="Grupo 107698">
          <path id="Trazado_152704" data-name="Trazado 152704" d="M691.734,379.86h-36.67a.84.84,0,0,1-.852-.828h0a.84.84,0,0,1,.852-.828h36.67a.84.84,0,0,1,.852.828h0A.84.84,0,0,1,691.734,379.86Z" fill="#fff"/>
        </g>
        <g id="Grupo_107699" data-name="Grupo 107699">
          <path id="Trazado_152705" data-name="Trazado 152705" d="M686.7,383.747h-31.8a.84.84,0,0,1-.851-.828V382.9a.84.84,0,0,1,.851-.828h31.8a.84.84,0,0,1,.852.828v.015A.84.84,0,0,1,686.7,383.747Z" fill="#fff"/>
        </g>
        <g id="Grupo_107700" data-name="Grupo 107700">
          <path id="Trazado_152706" data-name="Trazado 152706" d="M690.5,387.479h-35.6a.839.839,0,0,1-.851-.828v0a.84.84,0,0,1,.851-.828h35.6a.84.84,0,0,1,.852.828v0A.839.839,0,0,1,690.5,387.479Z" fill="#fff"/>
        </g>
        <g id="Grupo_107701" data-name="Grupo 107701">
          <path id="Trazado_152707" data-name="Trazado 152707" d="M661.537,391.514h-6.631a.84.84,0,0,1-.851-.829h0a.84.84,0,0,1,.851-.828h6.631a.841.841,0,0,1,.852.828h0A.841.841,0,0,1,661.537,391.514Z" fill="#fff"/>
        </g>
      </g>
    </g>
    <g id="Grupo_107716" data-name="Grupo 107716">
      <g id="Grupo_107715" data-name="Grupo 107715">
        <rect id="Rectángulo_35756" data-name="Rectángulo 35756" width="74.643" height="97.939" rx="4.754" transform="translate(564.472 391.902)" fill="#fff"/>
        <g id="Grupo_107709" data-name="Grupo 107709">
          <g id="Grupo_107704" data-name="Grupo 107704">
            <rect id="Rectángulo_35757" data-name="Rectángulo 35757" width="53.405" height="2.371" rx="1.186" transform="translate(575.031 413.416)" fill="#a6a4f7"/>
          </g>
          <g id="Grupo_107705" data-name="Grupo 107705">
            <rect id="Rectángulo_35758" data-name="Rectángulo 35758" width="46.622" height="2.392" rx="1.186" transform="translate(575.031 419.415)" fill="#a6a4f7"/>
          </g>
          <g id="Grupo_107706" data-name="Grupo 107706">
            <rect id="Rectángulo_35759" data-name="Rectángulo 35759" width="51.911" height="2.374" rx="1.186" transform="translate(575.031 425.231)" fill="#a6a4f7"/>
          </g>
          <g id="Grupo_107707" data-name="Grupo 107707">
            <path id="Trazado_152708" data-name="Trazado 152708" d="M618.434,433.723H576.046a1.111,1.111,0,0,1-1.015-1.186v0a1.111,1.111,0,0,1,1.015-1.185h42.388a1.11,1.11,0,0,1,1.014,1.185v0A1.11,1.11,0,0,1,618.434,433.723Z" fill="#a6a4f7"/>
          </g>
          <g id="Grupo_107708" data-name="Grupo 107708">
            <rect id="Rectángulo_35760" data-name="Rectángulo 35760" width="53.405" height="2.371" rx="1.186" transform="translate(575.031 407.359)" fill="#a6a4f7"/>
          </g>
        </g>
        <g id="Grupo_107714" data-name="Grupo 107714">
          <g id="Grupo_107710" data-name="Grupo 107710">
            <rect id="Rectángulo_35761" data-name="Rectángulo 35761" width="53.405" height="2.371" rx="1.186" transform="translate(575.116 443.67)" fill="#a6a4f7"/>
          </g>
          <g id="Grupo_107711" data-name="Grupo 107711">
            <rect id="Rectángulo_35762" data-name="Rectángulo 35762" width="46.622" height="2.392" rx="1.186" transform="translate(575.116 449.517)" fill="#a6a4f7"/>
          </g>
          <g id="Grupo_107712" data-name="Grupo 107712">
            <path id="Trazado_152709" data-name="Trazado 152709" d="M621.186,458.033h-9.227a1.186,1.186,0,0,1-1.186-1.185h0a1.186,1.186,0,0,1,1.186-1.186h9.227a1.186,1.186,0,0,1,1.186,1.186h0A1.186,1.186,0,0,1,621.186,458.033Z" fill="#a6a4f7"/>
          </g>
          <g id="Grupo_107713" data-name="Grupo 107713">
            <rect id="Rectángulo_35763" data-name="Rectángulo 35763" width="53.405" height="2.371" rx="1.186" transform="translate(575.116 437.812)" fill="#a6a4f7"/>
          </g>
        </g>
      </g>
      <path id="Trazado_152710" data-name="Trazado 152710" d="M583.191,484.746q4.347-1.722,8.586-3.631a89.321,89.321,0,0,0,8.216-4.217,37.7,37.7,0,0,0,3.767-2.526,15.34,15.34,0,0,0,3.081-3.037,6.035,6.035,0,0,0,.884-1.732,3.478,3.478,0,0,0,.073-1.73,4.462,4.462,0,0,0-.806-1.662,8.344,8.344,0,0,0-.663-.778l-.793-.8a24.14,24.14,0,0,0-3.469-2.825,15.114,15.114,0,0,0-3.991-1.915l-.265-.082-.268-.063-.538-.126a10.327,10.327,0,0,0-1.092-.144c-.183-.009-.367-.038-.549-.032l-.551,0c-.183,0-.364.029-.547.042-.091.01-.184.013-.274.027l-.271.047a8.019,8.019,0,0,0-1.068.256l-.515.192a1.955,1.955,0,0,0-.253.11l-.248.119a7.343,7.343,0,0,0-1.8,1.273,8.309,8.309,0,0,0-1.351,1.762,9.8,9.8,0,0,0-.85,2.073c-.085.367-.19.728-.239,1.1-.028.187-.067.371-.084.56l-.05.564c-.022.188-.021.377-.026.566s-.011.378-.01.568c.018.383.019.767.051,1.149s.052.765.1,1.145.09.761.145,1.14.135.754.2,1.131c.082.374.159.748.251,1.119.185.741.391,1.477.647,2.194.116.363.265.713.395,1.07.149.348.286.7.449,1.042a20.384,20.384,0,0,0,1.05,1.992,15.894,15.894,0,0,0,1.285,1.8,10.025,10.025,0,0,0,1.541,1.466,5.436,5.436,0,0,0,1.755.92,4.239,4.239,0,0,0,1.846.129,5.17,5.17,0,0,0,1.8-.654c.146-.078.284-.183.426-.272l.213-.139.235-.168.941-.679,1.882-1.376c.316-.231.634-.463.964-.7s.666-.466,1.074-.7c.115-.06.211-.118.343-.177l.194-.087c.077-.029.155-.057.233-.083a2.344,2.344,0,0,1,.616-.106,1.224,1.224,0,0,1,.189,0c.066.005.133.013.2.022a2.33,2.33,0,0,1,.39.109,2.614,2.614,0,0,1,.326.165,2.992,2.992,0,0,1,.249.179c.065.055.137.116.192.17l.152.155c.176.194.311.363.436.52.248.314.468.59.705.86s.488.54.714.751a2.546,2.546,0,0,0,.295.243c.03.021.059.033.021.013a.544.544,0,0,0-.123-.037.72.72,0,0,0-.134-.015.915.915,0,0,0-.2.013,1.02,1.02,0,0,0-.415.177.841.841,0,0,0-.2.207c-.061.091-.052.1-.047.069.018-.06.05-.223.079-.4s.064-.395.115-.631a4.022,4.022,0,0,1,.259-.821,2.526,2.526,0,0,1,.3-.511,2.115,2.115,0,0,1,.561-.515,2.083,2.083,0,0,1,.755-.286,2.378,2.378,0,0,1,.668-.016,3.417,3.417,0,0,1,.934.259l.558.249,1.067.476c.717.32,1.434.647,2.186,1.044.186.1.384.212.566.319.136.076.272.157.408.22a4.228,4.228,0,0,0,.814.3,3.707,3.707,0,0,0,.853.1c.307.005.65-.028,1.072-.056l.165-.01.041,0a1.182,1.182,0,0,0-.615.2,1.374,1.374,0,0,0-.586,1.064,1.158,1.158,0,0,0,.083.461.915.915,0,0,0,.061.13c.011.018.017.029.027.044l.01.015c0,.005.005.006,0,0s-.021-.028-.041-.052c-.088-.106-.223-.251-.354-.4a10.114,10.114,0,0,1-.85-1.044,4.029,4.029,0,0,1-.224-.367,2.625,2.625,0,0,1-.219-.526,1.992,1.992,0,0,1-.073-.411,1.65,1.65,0,0,1,.373-1.186c.036-.042.073-.083.111-.122s.073-.067.111-.1.078-.062.114-.087.07-.045.106-.066a2.11,2.11,0,0,1,.687-.252,3.241,3.241,0,0,1,.479-.05,5.472,5.472,0,0,1,.76.033,11.019,11.019,0,0,1,1.285.225c.2.046.4.1.6.147l.3.078.147.04.075.02.1.029c.242.076.409.137.6.2l.55.194,1.092.377q1.092.369,2.189.7c.732.221,1.464.44,2.2.633.366.093.745.2,1.085.254l.524.1c.175.034.366.047.549.071a44.958,44.958,0,0,0,4.558.28c1.541.029,3.091.024,4.643,0,3.1-.05,6.218-.157,9.335-.274h0a.126.126,0,0,1,.027.25c-3.077.555-6.172.984-9.286,1.309-.778.087-1.56.151-2.34.225-.783.056-1.565.12-2.353.154a38.606,38.606,0,0,1-4.778.027c-.2-.016-.4-.019-.613-.045l-.629-.084c-.432-.05-.81-.134-1.2-.211q-1.172-.238-2.325-.531t-2.289-.632l-1.131-.339-.559-.171c-.179-.054-.381-.116-.513-.151l-.043-.011-.066-.015-.137-.031-.271-.06c-.181-.039-.361-.075-.538-.107-.355-.065-.707-.118-1.021-.143a2.878,2.878,0,0,0-.407-.008.6.6,0,0,0-.1.013c.005,0,0,0,.026-.005l.043-.016.071-.037a.4.4,0,0,0,.043-.028c.016-.011.039-.027.057-.042s.035-.031.056-.051a.812.812,0,0,0,.063-.067.964.964,0,0,0,.184-.353.943.943,0,0,0,.031-.164,1.042,1.042,0,0,0,0-.123.652.652,0,0,0-.019-.125c-.012-.039-.006-.02.013.009s.047.076.085.128a8.213,8.213,0,0,0,.651.743c.132.14.266.277.431.466l.066.079c.023.027.049.059.077.1l.045.061.052.076c.022.035.042.067.065.106a1.864,1.864,0,0,1,.092.2,1.346,1.346,0,0,1,.1.532,1.426,1.426,0,0,1-.616,1.124,1.318,1.318,0,0,1-.685.222l-.031,0-.127.009c-.355.029-.787.079-1.26.083a6.461,6.461,0,0,1-1.463-.151,6.354,6.354,0,0,1-1.382-.486c-.217-.1-.418-.217-.62-.332-.154-.089-.294-.17-.453-.253-.625-.332-1.33-.643-2.03-.969l-1.061-.486-.507-.231a.758.758,0,0,0-.072-.03.514.514,0,0,0-.058-.02c-.036-.013-.055-.014-.054-.016a.319.319,0,0,0,.087-.006.609.609,0,0,0,.21-.085.523.523,0,0,0,.134-.121c.018-.027.015-.029.006-.01a1.4,1.4,0,0,0-.094.291c-.035.143-.067.315-.106.516a5.869,5.869,0,0,1-.176.735,2.39,2.39,0,0,1-.287.6,1.735,1.735,0,0,1-.4.418,1.606,1.606,0,0,1-.679.292,1.637,1.637,0,0,1-.342.025,1.932,1.932,0,0,1-.278-.032,2.006,2.006,0,0,1-.4-.126,2.623,2.623,0,0,1-.485-.277,4.958,4.958,0,0,1-.6-.508c-.335-.33-.6-.635-.875-.961s-.526-.662-.754-.965c-.113-.15-.22-.287-.3-.385l-.05-.055c-.014-.015-.018-.015-.025-.026s.008.009.014.006a.2.2,0,0,0,.067.03.484.484,0,0,0,.206.037c.054,0,.058-.009.042-.006a.184.184,0,0,1-.042.011l-.073.031c-.048.017-.12.059-.18.086-.271.144-.584.344-.9.551s-.631.424-.95.643l-1.931,1.324-.975.658-.245.164-.283.171c-.191.111-.371.233-.572.332a7.338,7.338,0,0,1-2.6.818,6.026,6.026,0,0,1-2.758-.336,7.361,7.361,0,0,1-2.291-1.365,11.565,11.565,0,0,1-1.71-1.876,17.345,17.345,0,0,1-1.285-2.1,21.81,21.81,0,0,1-.971-2.218,29.757,29.757,0,0,1-1.767-9.331c-.019-.395-.006-.792-.01-1.187l.024-.6c.009-.2.012-.4.039-.6l.065-.6c.021-.2.067-.4.1-.594.056-.4.17-.786.263-1.177a11.616,11.616,0,0,1,.914-2.241,9.848,9.848,0,0,1,1.446-1.962,8.538,8.538,0,0,1,1.948-1.492c.183-.094.356-.208.547-.287l.567-.247a10.818,10.818,0,0,1,1.182-.361l.3-.074c.1-.023.2-.035.3-.053.2-.03.408-.071.613-.091l.617-.048c.206-.02.411-.005.617-.009.414-.013.821.044,1.234.068l.609.088.306.046.3.065a16.549,16.549,0,0,1,4.574,1.735,23.658,23.658,0,0,1,3.97,2.8l.9.817a9.962,9.962,0,0,1,.886.968,6.382,6.382,0,0,1,1.257,2.489,5.57,5.57,0,0,1-.1,2.885,8.047,8.047,0,0,1-1.242,2.4,16.6,16.6,0,0,1-3.611,3.435c-.655.48-1.33.918-2.012,1.337s-1.375.815-2.077,1.185a63.491,63.491,0,0,1-8.676,3.751c-1.476.533-2.971,1-4.471,1.452s-3.014.845-4.546,1.178a.126.126,0,0,1-.151-.1.128.128,0,0,1,.077-.144Z" fill="#a6a4f7"/>
    </g>
    <g id="Grupo_107717" data-name="Grupo 107717" opacity="0.4">
      <path id="Trazado_152711" data-name="Trazado 152711" d="M709.144,481.512H691.862a.934.934,0,0,1-.934-.934h0a.934.934,0,0,1,.934-.934h17.282a.934.934,0,0,1,.934.934h0A.934.934,0,0,1,709.144,481.512Z" fill="#fff"/>
      <path id="Trazado_152712" data-name="Trazado 152712" d="M709.144,485.482H691.862a.934.934,0,0,1-.934-.934h0a.934.934,0,0,1,.934-.934h17.282a.934.934,0,0,1,.934.934h0A.934.934,0,0,1,709.144,485.482Z" fill="#fff"/>
      <path id="Trazado_152713" data-name="Trazado 152713" d="M709.144,489.452H691.862a.934.934,0,0,1-.934-.934h0a.934.934,0,0,1,.934-.934h17.282a.934.934,0,0,1,.934.934h0A.934.934,0,0,1,709.144,489.452Z" fill="#fff"/>
    </g>
  </g>
</svg>
