<svg xmlns="http://www.w3.org/2000/svg" xmlns:xlink="http://www.w3.org/1999/xlink" width="318" height="144" viewBox="0 0 318 144">
  <defs>
    <filter id="Rectángulo_35223" x="0" y="0" width="318" height="144" filterUnits="userSpaceOnUse">
      <feOffset dy="3" input="SourceAlpha"/>
      <feGaussianBlur stdDeviation="3" result="blur"/>
      <feFlood flood-opacity="0.161"/>
      <feComposite operator="in" in2="blur"/>
      <feComposite in="SourceGraphic"/>
    </filter>
  </defs>
  <g id="Grupo_107139" data-name="Grupo 107139" transform="translate(9.378 6)">
    <g transform="matrix(1, 0, 0, 1, -9.38, -6)" filter="url(#Rectángulo_35223)">
      <rect id="Rectángulo_35223-2" data-name="Rectángulo 35223" width="300" height="126" rx="22" transform="translate(9 6)" fill="#fff"/>
    </g>
    <path id="Sustracción_3" data-name="Sustracción 3" d="M107,126H22A21.982,21.982,0,0,1,0,104V22A21.981,21.981,0,0,1,22,0h85V126Z" transform="translate(-0.378)" fill="#3e2ea6"/>
    <path id="Trazado_152682" data-name="Trazado 152682" d="M53.7,15V3.625h3.5a5.315,5.315,0,0,1,2.684.676,4.712,4.712,0,0,1,1.848,1.922A5.928,5.928,0,0,1,62.4,9.055v.523a5.945,5.945,0,0,1-.652,2.82,4.672,4.672,0,0,1-1.84,1.914,5.355,5.355,0,0,1-2.68.688Zm2.344-9.477v7.594H57.18a2.545,2.545,0,0,0,2.1-.9,4.06,4.06,0,0,0,.742-2.57v-.6A4.124,4.124,0,0,0,59.3,6.418a2.537,2.537,0,0,0-2.1-.895Zm11.8,9.633a4.15,4.15,0,0,1-3.027-1.141,4.054,4.054,0,0,1-1.168-3.039v-.219a5.106,5.106,0,0,1,.492-2.277,3.612,3.612,0,0,1,1.395-1.547,3.914,3.914,0,0,1,2.059-.543,3.508,3.508,0,0,1,2.73,1.094,4.444,4.444,0,0,1,1,3.1v.922H65.938a2.1,2.1,0,0,0,.66,1.328,2,2,0,0,0,1.395.5,2.437,2.437,0,0,0,2.039-.945l1.109,1.242a3.389,3.389,0,0,1-1.375,1.121A4.511,4.511,0,0,1,67.844,15.156Zm-.258-6.945a1.411,1.411,0,0,0-1.09.455,2.357,2.357,0,0,0-.535,1.3H69.1V9.788A1.681,1.681,0,0,0,68.7,8.623,1.456,1.456,0,0,0,67.586,8.211Zm9.594,4.453a.727.727,0,0,0-.41-.652,4.659,4.659,0,0,0-1.316-.426q-3.016-.633-3.016-2.562a2.323,2.323,0,0,1,.934-1.879,3.766,3.766,0,0,1,2.441-.754,4.053,4.053,0,0,1,2.574.758,2.388,2.388,0,0,1,.965,1.969H77.094a1.092,1.092,0,0,0-.312-.8A1.322,1.322,0,0,0,75.8,8a1.351,1.351,0,0,0-.883.258.814.814,0,0,0-.312.656.7.7,0,0,0,.355.605,3.657,3.657,0,0,0,1.2.4,9.8,9.8,0,0,1,1.422.379,2.336,2.336,0,0,1,1.789,2.273,2.2,2.2,0,0,1-.992,1.871,4.28,4.28,0,0,1-2.562.715,4.47,4.47,0,0,1-1.887-.379,3.166,3.166,0,0,1-1.293-1.039,2.414,2.414,0,0,1-.469-1.426h2.141a1.179,1.179,0,0,0,.445.922,1.766,1.766,0,0,0,1.109.32,1.635,1.635,0,0,0,.98-.246A.766.766,0,0,0,77.18,12.664Zm7.164.672a1.481,1.481,0,0,0,1.016-.344,1.2,1.2,0,0,0,.406-.914h2.117a2.9,2.9,0,0,1-.469,1.574,3.093,3.093,0,0,1-1.262,1.109,3.949,3.949,0,0,1-1.77.395A3.67,3.67,0,0,1,81.523,14a4.56,4.56,0,0,1-1.047-3.184v-.148a4.508,4.508,0,0,1,1.039-3.117,3.627,3.627,0,0,1,2.852-1.164,3.555,3.555,0,0,1,2.543.9,3.2,3.2,0,0,1,.973,2.4H85.766a1.551,1.551,0,0,0-.406-1.072,1.51,1.51,0,0,0-2.223.163,3.333,3.333,0,0,0-.4,1.866v.235a3.375,3.375,0,0,0,.4,1.878A1.377,1.377,0,0,0,84.344,13.336Zm9.891.8a2.831,2.831,0,0,1-2.312,1.016,2.67,2.67,0,0,1-2.074-.781,3.335,3.335,0,0,1-.73-2.289V6.547h2.258v5.467q0,1.322,1.2,1.322a1.63,1.63,0,0,0,1.578-.8V6.547h2.266V15H94.3Zm7.781,1.016a4.15,4.15,0,0,1-3.027-1.141,4.054,4.054,0,0,1-1.168-3.039v-.219a5.106,5.106,0,0,1,.492-2.277,3.612,3.612,0,0,1,1.395-1.547,3.914,3.914,0,0,1,2.059-.543,3.508,3.508,0,0,1,2.73,1.094,4.444,4.444,0,0,1,1,3.1v.922h-5.383a2.1,2.1,0,0,0,.66,1.328,2,2,0,0,0,1.395.5,2.437,2.437,0,0,0,2.039-.945l1.109,1.242a3.389,3.389,0,0,1-1.375,1.121A4.511,4.511,0,0,1,102.016,15.156Zm-.258-6.945a1.411,1.411,0,0,0-1.09.455,2.357,2.357,0,0,0-.535,1.3h3.141V9.788a1.681,1.681,0,0,0-.406-1.165A1.456,1.456,0,0,0,101.758,8.211Zm7.094-1.664.07.977a2.951,2.951,0,0,1,2.43-1.133,2.453,2.453,0,0,1,2,.789,3.682,3.682,0,0,1,.672,2.359V15h-2.258V9.581a1.47,1.47,0,0,0-.312-1.045,1.4,1.4,0,0,0-1.039-.325,1.553,1.553,0,0,0-1.43.814V15h-2.258V6.547Zm9.586-2.078V6.547h1.445V8.2h-1.445v4.219a1.007,1.007,0,0,0,.18.672.9.9,0,0,0,.688.2,3.6,3.6,0,0,0,.664-.055v1.711a4.648,4.648,0,0,1-1.367.2,2.156,2.156,0,0,1-2.422-2.4V8.2h-1.234V6.547h1.234V4.469Zm2.117,6.227a5.013,5.013,0,0,1,.484-2.242,3.546,3.546,0,0,1,1.395-1.523,4.069,4.069,0,0,1,2.113-.539,3.849,3.849,0,0,1,2.793,1.047,4.2,4.2,0,0,1,1.207,2.844l.016.578a4.418,4.418,0,0,1-1.086,3.121,4.209,4.209,0,0,1-5.832,0,4.5,4.5,0,0,1-1.09-3.187Zm2.258.16a3.16,3.16,0,0,0,.453,1.843,1.628,1.628,0,0,0,2.578.008,3.457,3.457,0,0,0,.461-2.015,3.128,3.128,0,0,0-.461-1.831,1.5,1.5,0,0,0-1.3-.649,1.474,1.474,0,0,0-1.281.646A3.516,3.516,0,0,0,122.813,10.856Zm11.719,1.808a.727.727,0,0,0-.41-.652,4.659,4.659,0,0,0-1.316-.426q-3.016-.633-3.016-2.562a2.323,2.323,0,0,1,.934-1.879,3.766,3.766,0,0,1,2.441-.754,4.053,4.053,0,0,1,2.574.758,2.388,2.388,0,0,1,.965,1.969h-2.258a1.092,1.092,0,0,0-.312-.8A1.322,1.322,0,0,0,133.156,8a1.351,1.351,0,0,0-.883.258.814.814,0,0,0-.312.656.7.7,0,0,0,.355.605,3.657,3.657,0,0,0,1.2.4,9.8,9.8,0,0,1,1.422.379,2.336,2.336,0,0,1,1.789,2.273,2.205,2.205,0,0,1-.992,1.871,4.28,4.28,0,0,1-2.562.715,4.47,4.47,0,0,1-1.887-.379,3.166,3.166,0,0,1-1.293-1.039,2.414,2.414,0,0,1-.469-1.426h2.141a1.179,1.179,0,0,0,.445.922,1.766,1.766,0,0,0,1.109.32,1.635,1.635,0,0,0,.98-.246A.766.766,0,0,0,134.531,12.664ZM57.445,37.336a1.481,1.481,0,0,0,1.016-.344,1.2,1.2,0,0,0,.406-.914h2.117a2.9,2.9,0,0,1-.469,1.574,3.093,3.093,0,0,1-1.262,1.109,3.949,3.949,0,0,1-1.77.395A3.67,3.67,0,0,1,54.625,38a4.56,4.56,0,0,1-1.047-3.184v-.148a4.508,4.508,0,0,1,1.039-3.117,3.627,3.627,0,0,1,2.852-1.164,3.555,3.555,0,0,1,2.543.9,3.2,3.2,0,0,1,.973,2.4H58.867a1.551,1.551,0,0,0-.406-1.072,1.51,1.51,0,0,0-2.223.163,3.333,3.333,0,0,0-.4,1.866v.235a3.375,3.375,0,0,0,.4,1.878A1.377,1.377,0,0,0,57.445,37.336ZM61.922,34.7a5.013,5.013,0,0,1,.484-2.242A3.546,3.546,0,0,1,63.8,30.93a4.069,4.069,0,0,1,2.113-.539,3.849,3.849,0,0,1,2.793,1.047,4.2,4.2,0,0,1,1.207,2.844l.016.578a4.418,4.418,0,0,1-1.086,3.121,4.209,4.209,0,0,1-5.832,0,4.5,4.5,0,0,1-1.09-3.187Zm2.258.16a3.16,3.16,0,0,0,.453,1.843,1.628,1.628,0,0,0,2.578.008,3.457,3.457,0,0,0,.461-2.015,3.128,3.128,0,0,0-.461-1.831,1.5,1.5,0,0,0-1.3-.649,1.474,1.474,0,0,0-1.281.646A3.516,3.516,0,0,0,64.18,34.856Zm9.258-4.309.07.945a2.971,2.971,0,0,1,2.43-1.1A2.255,2.255,0,0,1,78.18,31.68a2.9,2.9,0,0,1,2.539-1.289,2.521,2.521,0,0,1,2.047.8,3.681,3.681,0,0,1,.672,2.41V39H81.172V33.6a1.616,1.616,0,0,0-.281-1.053,1.245,1.245,0,0,0-.992-.333,1.409,1.409,0,0,0-1.406.971L78.5,39H76.242V33.6a1.6,1.6,0,0,0-.289-1.065,1.257,1.257,0,0,0-.984-.329,1.463,1.463,0,0,0-1.391.8V39H71.32V30.547Zm15.625,8.609a4.15,4.15,0,0,1-3.027-1.141,4.054,4.054,0,0,1-1.168-3.039v-.219a5.106,5.106,0,0,1,.492-2.277,3.612,3.612,0,0,1,1.395-1.547,3.914,3.914,0,0,1,2.059-.543,3.508,3.508,0,0,1,2.73,1.094,4.444,4.444,0,0,1,1,3.1v.922H87.156a2.1,2.1,0,0,0,.66,1.328,2,2,0,0,0,1.395.5,2.437,2.437,0,0,0,2.039-.945l1.109,1.242a3.389,3.389,0,0,1-1.375,1.121A4.511,4.511,0,0,1,89.063,39.156ZM88.8,32.211a1.411,1.411,0,0,0-1.09.455,2.357,2.357,0,0,0-.535,1.3H90.32v-.181a1.681,1.681,0,0,0-.406-1.165A1.456,1.456,0,0,0,88.8,32.211Zm9.766.453a6.134,6.134,0,0,0-.812-.062,1.654,1.654,0,0,0-1.68.867V39H93.82V30.547h2.133l.063,1.008A2.092,2.092,0,0,1,97.9,30.391a2.366,2.366,0,0,1,.7.1Zm4.453,4.672a1.481,1.481,0,0,0,1.016-.344,1.2,1.2,0,0,0,.406-.914h2.117a2.9,2.9,0,0,1-.469,1.574,3.093,3.093,0,0,1-1.262,1.109,3.949,3.949,0,0,1-1.77.395A3.67,3.67,0,0,1,100.2,38a4.56,4.56,0,0,1-1.047-3.184v-.148a4.508,4.508,0,0,1,1.039-3.117,3.627,3.627,0,0,1,2.852-1.164,3.555,3.555,0,0,1,2.543.9,3.2,3.2,0,0,1,.973,2.4h-2.117a1.551,1.551,0,0,0-.406-1.072,1.51,1.51,0,0,0-2.223.163,3.333,3.333,0,0,0-.4,1.866v.235a3.375,3.375,0,0,0,.4,1.878A1.377,1.377,0,0,0,103.023,37.336ZM110.234,39h-2.266V30.547h2.266Zm-2.4-10.641a1.112,1.112,0,0,1,.34-.836,1.465,1.465,0,0,1,1.848,0,1.193,1.193,0,0,1,0,1.68,1.448,1.448,0,0,1-1.836,0A1.108,1.108,0,0,1,107.836,28.359ZM116.992,39a2.507,2.507,0,0,1-.227-.758,2.732,2.732,0,0,1-2.133.914,3,3,0,0,1-2.059-.719,2.312,2.312,0,0,1-.816-1.812,2.389,2.389,0,0,1,1-2.062,4.915,4.915,0,0,1,2.879-.727h1.039v-.484a1.393,1.393,0,0,0-.3-.937,1.183,1.183,0,0,0-.949-.352,1.345,1.345,0,0,0-.895.273.929.929,0,0,0-.324.75h-2.258a2.268,2.268,0,0,1,.453-1.359,3,3,0,0,1,1.281-.98,4.669,4.669,0,0,1,1.859-.355,3.689,3.689,0,0,1,2.48.785,2.747,2.747,0,0,1,.918,2.207v3.664a4.041,4.041,0,0,0,.336,1.82V39Zm-1.867-1.57a1.945,1.945,0,0,0,.922-.223,1.462,1.462,0,0,0,.625-.6V35.156h-.844q-1.7,0-1.8,1.172l-.008.133a.9.9,0,0,0,.3.7A1.153,1.153,0,0,0,115.125,37.43Zm7.93,1.57h-2.266V27h2.266Zm5.75.156a4.15,4.15,0,0,1-3.027-1.141,4.054,4.054,0,0,1-1.168-3.039v-.219a5.106,5.106,0,0,1,.492-2.277,3.612,3.612,0,0,1,1.395-1.547,3.914,3.914,0,0,1,2.059-.543,3.508,3.508,0,0,1,2.73,1.094,4.444,4.444,0,0,1,1,3.1v.922H126.9a2.1,2.1,0,0,0,.66,1.328,2,2,0,0,0,1.395.5,2.437,2.437,0,0,0,2.039-.945l1.109,1.242a3.389,3.389,0,0,1-1.375,1.121A4.511,4.511,0,0,1,128.8,39.156Zm-.258-6.945a1.411,1.411,0,0,0-1.09.455,2.357,2.357,0,0,0-.535,1.3h3.141v-.181a1.681,1.681,0,0,0-.406-1.165A1.456,1.456,0,0,0,128.547,32.211Zm9.594,4.453a.727.727,0,0,0-.41-.652,4.659,4.659,0,0,0-1.316-.426q-3.016-.633-3.016-2.562a2.323,2.323,0,0,1,.934-1.879,3.766,3.766,0,0,1,2.441-.754,4.053,4.053,0,0,1,2.574.758,2.388,2.388,0,0,1,.965,1.969h-2.258a1.092,1.092,0,0,0-.312-.8,1.322,1.322,0,0,0-.977-.316,1.351,1.351,0,0,0-.883.258.814.814,0,0,0-.312.656.7.7,0,0,0,.355.605,3.657,3.657,0,0,0,1.2.4,9.8,9.8,0,0,1,1.422.379,2.336,2.336,0,0,1,1.789,2.273,2.205,2.205,0,0,1-.992,1.871,4.28,4.28,0,0,1-2.562.715,4.47,4.47,0,0,1-1.887-.379,3.166,3.166,0,0,1-1.293-1.039,2.414,2.414,0,0,1-.469-1.426h2.141a1.179,1.179,0,0,0,.445.922,1.766,1.766,0,0,0,1.109.32,1.635,1.635,0,0,0,.98-.246A.766.766,0,0,0,138.141,36.664Z" transform="translate(104.622 51)" fill="#12263f"/>
    <g id="Grupo_107413" data-name="Grupo 107413" transform="translate(-1899.145 -586.131)">
      <g id="Grupo_107412" data-name="Grupo 107412" transform="translate(1911.582 608.424)">
        <g id="Grupo_107409" data-name="Grupo 107409" transform="translate(4.38)">
          <path id="Trazado_149871" data-name="Trazado 149871" d="M1946.51,668.006a1.515,1.515,0,0,0-1.51,1.516V678.4a1.511,1.511,0,1,0,3.022,0v-8.878A1.518,1.518,0,0,0,1946.51,668.006Z" transform="translate(-1908.632 -595.355)" fill="#dad6f7"/>
          <path id="Trazado_149872" data-name="Trazado 149872" d="M1946.51,608.424a1.512,1.512,0,0,0-1.51,1.512v8.881a1.511,1.511,0,1,0,3.022,0v-8.881A1.514,1.514,0,0,0,1946.51,608.424Z" transform="translate(-1908.632 -608.424)" fill="#dad6f7"/>
          <path id="Trazado_149873" data-name="Trazado 149873" d="M1930.6,613.8a1.521,1.521,0,0,0-1.31-.758,1.513,1.513,0,0,0-1.307,2.27l4.44,7.69a1.51,1.51,0,0,0,1.308.756h0a1.491,1.491,0,0,0,.755-.2,1.51,1.51,0,0,0,.552-2.063Z" transform="translate(-1912.409 -607.412)" fill="#dad6f7"/>
          <path id="Trazado_149874" data-name="Trazado 149874" d="M1961.4,665.126a1.513,1.513,0,0,0-1.312-.761,1.494,1.494,0,0,0-.751.2,1.513,1.513,0,0,0-.554,2.067l4.439,7.688a1.509,1.509,0,0,0,1.31.758,1.515,1.515,0,0,0,1.458-1.121,1.507,1.507,0,0,0-.152-1.146Z" transform="translate(-1905.654 -596.154)" fill="#dad6f7"/>
          <path id="Trazado_149875" data-name="Trazado 149875" d="M1979.177,659.982a1.51,1.51,0,0,0-.706-.918l-7.685-4.441a1.512,1.512,0,1,0-1.51,2.619l7.687,4.441a1.51,1.51,0,0,0,2.214-1.7Z" transform="translate(-1903.474 -598.335)" fill="#dad6f7"/>
          <path id="Trazado_149876" data-name="Trazado 149876" d="M1925.129,630.3l-7.687-4.441a1.534,1.534,0,0,0-.757-.2,1.513,1.513,0,0,0-1.458,1.9,1.5,1.5,0,0,0,.706.917l7.684,4.441a1.512,1.512,0,0,0,1.512-2.619Z" transform="translate(-1915.174 -604.645)" fill="#dad6f7"/>
          <path id="Trazado_149877" data-name="Trazado 149877" d="M1970.029,633.118a1.516,1.516,0,0,0,.756-.2l7.685-4.441a1.511,1.511,0,0,0-.755-2.822,1.523,1.523,0,0,0-.754.2l-7.687,4.44a1.512,1.512,0,0,0,.754,2.823Z" transform="translate(-1903.474 -604.645)" fill="#dad6f7"/>
          <path id="Trazado_149878" data-name="Trazado 149878" d="M1924.373,654.422a1.522,1.522,0,0,0-.756.2l-7.684,4.441a1.512,1.512,0,0,0,.752,2.822,1.521,1.521,0,0,0,.757-.2l7.687-4.441a1.512,1.512,0,0,0-.756-2.82Z" transform="translate(-1915.174 -598.335)" fill="#dad6f7"/>
          <path id="Trazado_149879" data-name="Trazado 149879" d="M1959.334,623.553a1.489,1.489,0,0,0,.751.2h0A1.519,1.519,0,0,0,1961.4,623l4.438-7.69a1.511,1.511,0,1,0-2.616-1.512l-4.439,7.69A1.512,1.512,0,0,0,1959.334,623.553Z" transform="translate(-1905.654 -607.412)" fill="#dad6f7"/>
          <path id="Trazado_149880" data-name="Trazado 149880" d="M1934.485,664.569a1.524,1.524,0,0,0-.755-.2,1.5,1.5,0,0,0-1.308.757l-4.44,7.69a1.513,1.513,0,0,0,.554,2.064,1.49,1.49,0,0,0,.753.2,1.515,1.515,0,0,0,1.31-.76l4.438-7.688A1.516,1.516,0,0,0,1934.485,664.569Z" transform="translate(-1912.409 -596.153)" fill="#dad6f7"/>
        </g>
        <g id="Grupo_107410" data-name="Grupo 107410" transform="translate(0 40.767)">
          <path id="Trazado_149881" data-name="Trazado 149881" d="M1920.978,643.37a14.75,14.75,0,0,1,.079-1.512h-7.963a1.512,1.512,0,1,0,0,3.024h7.963A14.785,14.785,0,0,1,1920.978,643.37Z" transform="translate(-1911.582 -641.858)" fill="#dad6f7"/>
          <path id="Trazado_149882" data-name="Trazado 149882" d="M1980.933,641.858h-7.121a14.446,14.446,0,0,1,0,3.024h7.121a1.512,1.512,0,1,0,0-3.024Z" transform="translate(-1897.932 -641.858)" fill="#dad6f7"/>
        </g>
        <g id="Grupo_107411" data-name="Grupo 107411" transform="translate(11.264 28.436)">
          <path id="Trazado_149883" data-name="Trazado 149883" d="M1950.627,642.267a2.428,2.428,0,0,0-1.887.86,4.364,4.364,0,0,0,0,4.942,2.5,2.5,0,0,0,3.769,0,3.644,3.644,0,0,0,.761-2.492,3.57,3.57,0,0,0-.761-2.45A2.416,2.416,0,0,0,1950.627,642.267Z" transform="translate(-1914.864 -629.437)" fill="#dad6f7"/>
          <path id="Trazado_149884" data-name="Trazado 149884" d="M1930.31,642.87a4.387,4.387,0,0,0,0-3.358,1.186,1.186,0,0,0-2.085,0,4.372,4.372,0,0,0,0,3.358,1.175,1.175,0,0,0,2.085,0Z" transform="translate(-1919.27 -630.178)" fill="#dad6f7"/>
          <path id="Trazado_149885" data-name="Trazado 149885" d="M1938.516,643.833a1.1,1.1,0,0,0-1.041.623,4.37,4.37,0,0,0,0,3.356,1.178,1.178,0,0,0,2.086,0,4.378,4.378,0,0,0,0-3.356A1.108,1.108,0,0,0,1938.516,643.833Z" transform="translate(-1917.241 -629.094)" fill="#dad6f7"/>
          <path id="Trazado_149886" data-name="Trazado 149886" d="M1971.056,631.745h-37.645c-6.953,0-12.591,6.888-12.591,13.843s5.638,13.842,12.591,13.842h37.645c6.952,0,12.59-6.884,12.59-13.842S1978.008,631.745,1971.056,631.745Zm-43.121,13.9a3.951,3.951,0,0,1-.692-1.328,5.388,5.388,0,0,1-.223-1.558,5.489,5.489,0,0,1,.223-1.566,3.92,3.92,0,0,1,.692-1.338,3.355,3.355,0,0,1,1.18-.935,4.227,4.227,0,0,1,3.385,0,3.491,3.491,0,0,1,1.191.935,3.765,3.765,0,0,1,.7,1.338,5.4,5.4,0,0,1,.227,1.566,5.3,5.3,0,0,1-.227,1.558,3.793,3.793,0,0,1-.7,1.328,3.5,3.5,0,0,1-1.191.935,4.188,4.188,0,0,1-3.385,0A3.368,3.368,0,0,1,1927.935,645.648Zm5.125,7.041a7.72,7.72,0,0,1-1.318.118,8.653,8.653,0,0,1-1.4-.118l9.507-13.925a7.993,7.993,0,0,1,1.378-.118,8.919,8.919,0,0,1,1.359.118Zm12.608-2.345a3.788,3.788,0,0,1-.7,1.329,3.412,3.412,0,0,1-1.191.934,3.72,3.72,0,0,1-1.685.357,3.763,3.763,0,0,1-1.7-.357,3.329,3.329,0,0,1-1.18-.934,3.916,3.916,0,0,1-.688-1.329,5.36,5.36,0,0,1-.227-1.555,5.506,5.506,0,0,1,.227-1.567,3.973,3.973,0,0,1,.688-1.339,3.445,3.445,0,0,1,1.18-.935,3.847,3.847,0,0,1,1.7-.354,3.8,3.8,0,0,1,1.685.354,3.533,3.533,0,0,1,1.191.935,3.842,3.842,0,0,1,.7,1.339,5.463,5.463,0,0,1,.227,1.567A5.319,5.319,0,0,1,1945.668,650.344Zm14.921,1.611a5.37,5.37,0,0,1-4,1.616,6.274,6.274,0,0,1-2.841-.673,4.618,4.618,0,0,1-2.057-1.975,6.588,6.588,0,0,1-.7-3.169,5.88,5.88,0,0,1,.7-2.768,4.841,4.841,0,0,1,1.995-2.042,5.92,5.92,0,0,1,2.883-.7,5.409,5.409,0,0,1,4.031,1.6,5.519,5.519,0,0,1,1.57,4.037A5.6,5.6,0,0,1,1960.589,651.954Zm9.141-11.484a5.845,5.845,0,0,0-1.317-.162,1.169,1.169,0,0,0-.893.293,1.672,1.672,0,0,0-.271,1.117v.765h2.143v2.257h-2.143v8.585h-2.865V644.74h-1.593v-2.257h1.593v-.816a5.489,5.489,0,0,1,.288-2.042,2.3,2.3,0,0,1,1.072-1.1,4.106,4.106,0,0,1,1.974-.424,7.959,7.959,0,0,1,2.4.367Zm7.332,0a5.791,5.791,0,0,0-1.316-.162,1.164,1.164,0,0,0-.891.293,1.669,1.669,0,0,0-.273,1.117v.765h2.142v2.257h-2.142v8.585h-2.865V644.74h-1.594v-2.257h1.594v-.816a5.485,5.485,0,0,1,.289-2.042,2.31,2.31,0,0,1,1.071-1.1,4.111,4.111,0,0,1,1.975-.424,7.98,7.98,0,0,1,2.4.367Z" transform="translate(-1920.82 -631.745)" fill="#dad6f7"/>
        </g>
      </g>
    </g>
  </g>
</svg>
