<svg xmlns="http://www.w3.org/2000/svg" width="608" height="491.542" viewBox="0 0 608 491.542">
  <g id="Grupo_107328" data-name="Grupo 107328" transform="translate(-172.712 8.317)">
    <g id="Grupo_107266" data-name="Grupo 107266" transform="translate(341.681 245.578)">
      <path id="Trazado_149557" data-name="Trazado 149557" d="M1350.323,1032.038l-11.841,140.79s-1.241,8.534,5.108,8.549c10.438.025,51.952,0,51.952,0s-7.856-1.776-7.76-5.773c.112-4.712,13.839-144.9,13.839-144.9Z" transform="translate(-1221.746 -955.364)" fill="#798ee8"/>
      <path id="Trazado_149558" data-name="Trazado 149558" d="M1409.964,1170.759c-2.053.006-42.244.074-52.408-.057-4.43-.055-5.207-3.938-5.243-6.452a12.555,12.555,0,0,1,.135-2.1l.308-3.659.785-9.327.693-8.24.891-10.589.75-8.937,8.413-100.041,51.3-1.331s-5.781,58.667-9.871,101.372c-.457,4.758-.891,9.321-1.293,13.579q-.2,2.04-.377,3.984c-.379,4.041-.726,7.751-1.027,11.027-.159,1.727-.306,3.331-.438,4.8-.522,5.759-.828,9.437-.832,10.136a5.887,5.887,0,0,0,.1,1.139C1402.689,1170.555,1409.193,1170.759,1409.964,1170.759Z" transform="translate(-1232.261 -947.304)" fill="#aec3ff"/>
      <path id="Trazado_149559" data-name="Trazado 149559" d="M878.655,723.208,907.5,839.061l3.949,15.866,13.433,53.961h249.568l-49.513-185.68Z" transform="translate(-874.658 -723.208)" fill="#aec3ff"/>
      <path id="Trazado_149560" data-name="Trazado 149560" d="M866.337,723.207l-4,1.333,44.908,188.378,5.315-4.03Z" transform="translate(-862.34 -723.207)" fill="#798ee8"/>
      <path id="Trazado_149561" data-name="Trazado 149561" d="M1045.627,1485.075h248.032l6.849-4.03H1050.941Z" transform="translate(-1000.719 -1295.364)" fill="#849def"/>
      <rect id="Rectángulo_35279" data-name="Rectángulo 35279" width="53.703" height="2.552" transform="translate(185.712 226.007) rotate(180)" fill="#aec3ff"/>
      <path id="Trazado_149562" data-name="Trazado 149562" d="M1408.107,1497.488l-.277,1.951-50.5,10.2.693-8.24.33-3.914Z" transform="translate(-1236.047 -1307.778)" fill="#8c9df4"/>
      <path id="Trazado_149563" data-name="Trazado 149563" d="M1409.969,1586.016c-2.053.006-42.244.074-52.408-.057-4.43-.055-5.207-3.938-5.243-6.452l50.266-9.457c-.522,5.759-.828,9.437-.832,10.136a5.906,5.906,0,0,0,.1,1.139C1402.693,1585.813,1409.2,1586.016,1409.969,1586.016Z" transform="translate(-1232.265 -1362.562)" fill="#8c9df4" opacity="0.5"/>
      <path id="Trazado_149564" data-name="Trazado 149564" d="M878.654,723.207h246.28l39.959,149.229H915.8Z" transform="translate(-874.657 -723.207)" fill="#8c9df4"/>
      <path id="Trazado_149565" data-name="Trazado 149565" d="M1184.709,890.6H954.116l-8.24-32.826-3.188-12.7-1.3-5.179-8.47-33.735-.437-1.756L928,786.574l-2-7.979-1.708-6.807-1.4-5.55-2.611-10.4h227.271l2.868,10.4,1.53,5.55,1.876,6.807,2.2,7.979,14.492,52.563v0l1.226,4.454.572,2.067,10,36.288Z" transform="translate(-906.088 -747.842)" fill="#505aba"/>
    </g>
    <g id="Grupo_107269" data-name="Grupo 107269" transform="translate(463.282 339.114)">
      <path id="Trazado_149566" data-name="Trazado 149566" d="M1407.023,1113.641a4.541,4.541,0,0,0-.6-.96h0l0,0a4.619,4.619,0,0,0-.588-.6l-.888-.9-.234.172c-4.543-2.224-13.926.134-23.417,6.33-11.471,7.489-18.835,17.8-16.711,23.281l-.323.239,1.276,1.271q.091.1.188.188l.036.036.011.008a5.221,5.221,0,0,0,1.1.768l.006,0h0c4.485,2.35,13.968.011,23.563-6.254C1402.126,1129.6,1409.55,1119.037,1407.023,1113.641Z" transform="translate(-1362.849 -1109.169)" fill="#ffa412"/>
      <path id="Trazado_149567" data-name="Trazado 149567" d="M1375.718,1112.114c11.685-7.629,23.207-9.439,25.733-4.043s-4.9,15.955-16.583,23.583-23.207,9.439-25.734,4.043S1364.033,1119.743,1375.718,1112.114Z" transform="translate(-1358.642 -1104.964)" fill="#ffb93e"/>
      <g id="Grupo_107267" data-name="Grupo 107267" transform="translate(2.696 1.965)">
        <path id="Trazado_149568" data-name="Trazado 149568" d="M1375.635,1142.559a9.321,9.321,0,0,1-2.572-.325,4.452,4.452,0,0,1-3.005-2.4c-1.054-2.3-.078-5.709,2.748-9.605a46.034,46.034,0,0,1,11.866-10.871h0c7.512-4.919,15.153-7.3,19.465-6.053a4.452,4.452,0,0,1,3.005,2.4c1.054,2.3.078,5.709-2.748,9.605a46.029,46.029,0,0,1-11.867,10.871C1386.34,1140.232,1380.065,1142.559,1375.635,1142.559Zm25.958-28.717c-4.237,0-10.461,2.313-16.451,6.235a45.157,45.157,0,0,0-11.642,10.657c-2.6,3.583-3.569,6.77-2.663,8.745a3.635,3.635,0,0,0,2.464,1.931,8.389,8.389,0,0,0,2.307.289c4.237,0,10.461-2.313,16.451-6.236a45.154,45.154,0,0,0,11.642-10.657c2.6-3.583,3.569-6.77,2.663-8.745a3.633,3.633,0,0,0-2.464-1.931A8.377,8.377,0,0,0,1401.593,1113.842Z" transform="translate(-1369.644 -1112.982)" fill="#ffa412"/>
      </g>
      <g id="Grupo_107268" data-name="Grupo 107268" transform="translate(9.338 9.174)">
        <path id="Trazado_149569" data-name="Trazado 149569" d="M1404.36,1152.935a6.2,6.2,0,0,0,.963-.521,4.59,4.59,0,0,0,.78-.662,6.154,6.154,0,0,0,.677-.87,11.52,11.52,0,0,0,.64-1.138q.565-1.119,1.158-2.09a12.675,12.675,0,0,1,1.328-1.8,10.711,10.711,0,0,1,1.677-1.523,11.539,11.539,0,0,1,2.206-1.249,8.078,8.078,0,0,1,1.972-.617,3.4,3.4,0,0,1,1.5.052,1.812,1.812,0,0,1,.977.677,2.3,2.3,0,0,1,.388,1.273l2.757-1.211-.144,1.484-2.8,1.228a6.317,6.317,0,0,1-.771,1.725,9.1,9.1,0,0,1-1.343,1.647,12.527,12.527,0,0,1-1.865,1.49,15.671,15.671,0,0,1-2.349,1.267l.26-2.681a7.888,7.888,0,0,0,2.357-1.475,2.63,2.63,0,0,0,.886-1.566,1,1,0,0,0-.1-.643.651.651,0,0,0-.428-.287,1.63,1.63,0,0,0-.687.027,4.705,4.705,0,0,0-.88.3,5.761,5.761,0,0,0-.872.472,4.28,4.28,0,0,0-.746.634,6.138,6.138,0,0,0-.677.875q-.327.5-.689,1.2-.589,1.121-1.189,2.09a12.923,12.923,0,0,1-1.34,1.8,10.883,10.883,0,0,1-1.683,1.526,11.475,11.475,0,0,1-2.192,1.243,8.134,8.134,0,0,1-2.01.63,3.313,3.313,0,0,1-1.487-.062,1.711,1.711,0,0,1-.944-.7,2.515,2.515,0,0,1-.368-1.29l-2.563,1.126.143-1.475,2.551-1.12a7.469,7.469,0,0,1,.646-1.71,8.521,8.521,0,0,1,1.238-1.765,11.791,11.791,0,0,1,1.922-1.7,14.74,14.74,0,0,1,2.686-1.5l-.26,2.681a9.011,9.011,0,0,0-1.543.842,5.749,5.749,0,0,0-1.024.889,3.321,3.321,0,0,0-.578.88,2.759,2.759,0,0,0-.221.812,1.232,1.232,0,0,0,.093.692.7.7,0,0,0,.411.348,1.381,1.381,0,0,0,.67.026A3.777,3.777,0,0,0,1404.36,1152.935Z" transform="translate(-1396.755 -1142.407)" fill="#ffa412"/>
      </g>
    </g>
    <g id="Grupo_107272" data-name="Grupo 107272" transform="translate(544.477 439.095)">
      <path id="Trazado_149570" data-name="Trazado 149570" d="M1738.205,1522.394a4.455,4.455,0,0,0-.518-.978h0l0,0a4.534,4.534,0,0,0-.528-.623l-.8-.94-.24.151c-4.256-2.5-13.555-.888-23.239,4.445-11.7,6.446-19.62,15.937-17.955,21.423l-.332.209,1.148,1.33c.055.067.111.133.17.2l.032.037.01.009a5.117,5.117,0,0,0,1.017.828l.006,0h0c4.191,2.614,13.586,1.031,23.376-4.361C1732.276,1537.554,1740.269,1527.827,1738.205,1522.394Z" transform="translate(-1693.476 -1517.424)" fill="#ffa412"/>
      <path id="Trazado_149571" data-name="Trazado 149571" d="M1708.21,1518.621c11.923-6.566,23.261-7.485,25.325-2.052s-5.93,15.161-17.853,21.727-23.262,7.485-25.325,2.052S1696.287,1525.187,1708.21,1518.621Z" transform="translate(-1690.032 -1513.026)" fill="#ffb93e"/>
      <g id="Grupo_107270" data-name="Grupo 107270" transform="translate(2.739 1.795)">
        <path id="Trazado_149572" data-name="Trazado 149572" d="M1706.706,1547.265a9.1,9.1,0,0,1-2.478-.5,4.341,4.341,0,0,1-2.748-2.551c-.857-2.312.341-5.558,3.375-9.142a44.9,44.9,0,0,1,12.336-9.706h0c7.666-4.235,15.271-5.988,19.375-4.465a4.344,4.344,0,0,1,2.748,2.551c.857,2.312-.342,5.558-3.375,9.142a44.891,44.891,0,0,1-12.336,9.706C1717.288,1545.784,1711.015,1547.588,1706.706,1547.265Zm27.347-26.034c-4.121-.31-10.344,1.485-16.457,4.862a44.057,44.057,0,0,0-12.1,9.514c-2.789,3.3-3.966,6.324-3.229,8.311a3.546,3.546,0,0,0,2.255,2.058,8.193,8.193,0,0,0,2.223.45c4.121.31,10.344-1.485,16.457-4.862a44.054,44.054,0,0,0,12.1-9.515c2.789-3.294,3.966-6.324,3.229-8.311a3.544,3.544,0,0,0-2.255-2.058A8.16,8.16,0,0,0,1734.053,1521.23Z" transform="translate(-1701.211 -1520.355)" fill="#ffa412"/>
      </g>
      <g id="Grupo_107271" data-name="Grupo 107271" transform="translate(9.56 8.426)">
        <path id="Trazado_149573" data-name="Trazado 149573" d="M1736.622,1556.784a6.082,6.082,0,0,0,.975-.436,4.449,4.449,0,0,0,.806-.587,6.029,6.029,0,0,0,.722-.8,11.224,11.224,0,0,0,.706-1.061q.631-1.046,1.28-1.948a12.363,12.363,0,0,1,1.423-1.654,10.436,10.436,0,0,1,1.742-1.358,11.225,11.225,0,0,1,2.236-1.053,7.889,7.889,0,0,1,1.963-.457,3.317,3.317,0,0,1,1.455.16,1.765,1.765,0,0,1,.9.729,2.245,2.245,0,0,1,.285,1.266l2.77-.976-.248,1.433-2.808.99a6.176,6.176,0,0,1-.876,1.621,8.842,8.842,0,0,1-1.427,1.5,12.217,12.217,0,0,1-1.923,1.313,15.356,15.356,0,0,1-2.377,1.061l.448-2.589a7.705,7.705,0,0,0,2.4-1.263,2.564,2.564,0,0,0,.976-1.459.98.98,0,0,0-.055-.632.635.635,0,0,0-.4-.311,1.593,1.593,0,0,0-.671-.024,4.6,4.6,0,0,0-.878.225,5.629,5.629,0,0,0-.882.395,4.171,4.171,0,0,0-.772.563,5.991,5.991,0,0,0-.722.8q-.354.466-.758,1.113-.656,1.047-1.309,1.946a12.638,12.638,0,0,1-1.435,1.654,10.623,10.623,0,0,1-1.749,1.361,11.187,11.187,0,0,1-2.224,1.049,7.907,7.907,0,0,1-2,.465,3.226,3.226,0,0,1-1.441-.169,1.668,1.668,0,0,1-.867-.75,2.451,2.451,0,0,1-.264-1.282l-2.576.908.247-1.424,2.563-.9a7.277,7.277,0,0,1,.754-1.616,8.305,8.305,0,0,1,1.333-1.626,11.52,11.52,0,0,1,1.993-1.51,14.386,14.386,0,0,1,2.722-1.262l-.449,2.589a8.792,8.792,0,0,0-1.562.706,5.612,5.612,0,0,0-1.061.79,3.246,3.246,0,0,0-.627.814,2.7,2.7,0,0,0-.274.774,1.2,1.2,0,0,0,.04.68.686.686,0,0,0,.374.369,1.347,1.347,0,0,0,.65.073A3.648,3.648,0,0,0,1736.622,1556.784Z" transform="translate(-1729.051 -1547.417)" fill="#ffa412"/>
      </g>
    </g>
    <g id="Grupo_107275" data-name="Grupo 107275" transform="translate(500.542 372.15)">
      <path id="Trazado_149574" data-name="Trazado 149574" d="M1511.212,1248.559a4.612,4.612,0,0,1,.611-.969h0l0,0a4.7,4.7,0,0,1,.594-.6l.9-.909.236.174c4.587-2.246,14.061.135,23.644,6.391,11.582,7.561,19.017,17.973,16.873,23.507l.327.241-1.288,1.284q-.092.1-.19.189l-.036.036-.011.008a5.279,5.279,0,0,1-1.114.775l-.007,0h0c-4.529,2.373-14.1.01-23.791-6.314C1516.157,1264.668,1508.661,1254.007,1511.212,1248.559Z" transform="translate(-1510.714 -1244.043)" fill="#ffa412"/>
      <path id="Trazado_149575" data-name="Trazado 149575" d="M1542.819,1247.017c-11.8-7.7-23.432-9.531-25.983-4.083s4.945,16.11,16.744,23.813,23.431,9.531,25.983,4.082S1554.617,1254.72,1542.819,1247.017Z" transform="translate(-1514.96 -1239.797)" fill="#ffb93e"/>
      <g id="Grupo_107273" data-name="Grupo 107273" transform="translate(4.1 1.984)">
        <path id="Trazado_149576" data-name="Trazado 149576" d="M1542.621,1271.318a46.465,46.465,0,0,1-11.981-10.976c-2.853-3.934-3.839-7.379-2.775-9.7a4.5,4.5,0,0,1,3.035-2.42c4.354-1.254,12.068,1.145,19.653,6.112h0a46.471,46.471,0,0,1,11.982,10.976c2.854,3.934,3.839,7.379,2.775,9.7a4.5,4.5,0,0,1-3.034,2.421,9.4,9.4,0,0,1-2.6.328C1555.2,1277.758,1548.869,1275.409,1542.621,1271.318Zm-11.482-22.263a3.67,3.67,0,0,0-2.488,1.949c-.915,1.994.066,5.212,2.689,8.829a45.6,45.6,0,0,0,11.755,10.76c6.048,3.96,12.332,6.3,16.61,6.3a8.474,8.474,0,0,0,2.329-.291,3.672,3.672,0,0,0,2.488-1.95c.914-1.994-.066-5.212-2.689-8.829a45.606,45.606,0,0,0-11.755-10.76c-6.048-3.96-12.332-6.3-16.61-6.3A8.455,8.455,0,0,0,1531.139,1249.055Z" transform="translate(-1527.447 -1247.894)" fill="#ffa412"/>
      </g>
      <g id="Grupo_107274" data-name="Grupo 107274" transform="translate(10.807 9.263)">
        <path id="Trazado_149577" data-name="Trazado 149577" d="M1572.886,1288.513a1.393,1.393,0,0,0,.676-.026.708.708,0,0,0,.414-.352,1.24,1.24,0,0,0,.094-.7,2.794,2.794,0,0,0-.223-.819,3.357,3.357,0,0,0-.584-.889,5.8,5.8,0,0,0-1.034-.9,9.076,9.076,0,0,0-1.558-.851l-.262-2.707a14.887,14.887,0,0,1,2.712,1.515,11.92,11.92,0,0,1,1.94,1.713,8.588,8.588,0,0,1,1.25,1.783,7.5,7.5,0,0,1,.653,1.726l2.575,1.132.145,1.489-2.589-1.137a2.539,2.539,0,0,1-.372,1.3,1.725,1.725,0,0,1-.953.707,3.342,3.342,0,0,1-1.5.063,8.192,8.192,0,0,1-2.029-.636,11.6,11.6,0,0,1-2.214-1.255,11,11,0,0,1-1.7-1.54,13.061,13.061,0,0,1-1.353-1.819q-.606-.979-1.2-2.11-.366-.7-.7-1.207a6.14,6.14,0,0,0-.683-.883,4.319,4.319,0,0,0-.753-.641,5.788,5.788,0,0,0-.88-.476,4.771,4.771,0,0,0-.888-.3,1.644,1.644,0,0,0-.694-.027.656.656,0,0,0-.432.29,1.013,1.013,0,0,0-.106.649,2.654,2.654,0,0,0,.894,1.581,7.958,7.958,0,0,0,2.38,1.489l.262,2.707a15.853,15.853,0,0,1-2.372-1.28,12.649,12.649,0,0,1-1.883-1.5,9.181,9.181,0,0,1-1.357-1.663,6.388,6.388,0,0,1-.779-1.742l-2.822-1.24-.146-1.5,2.784,1.223a2.324,2.324,0,0,1,.392-1.285,1.828,1.828,0,0,1,.986-.683,3.43,3.43,0,0,1,1.514-.052,8.143,8.143,0,0,1,1.991.623,11.655,11.655,0,0,1,2.227,1.261,10.789,10.789,0,0,1,1.693,1.538,12.774,12.774,0,0,1,1.341,1.818q.6.981,1.169,2.11a11.585,11.585,0,0,0,.647,1.15,6.215,6.215,0,0,0,.683.879,4.648,4.648,0,0,0,.787.669,6.288,6.288,0,0,0,.973.526A3.789,3.789,0,0,0,1572.886,1288.513Z" transform="translate(-1554.82 -1277.604)" fill="#ffa412"/>
      </g>
    </g>
    <g id="Grupo_107304" data-name="Grupo 107304" transform="translate(348.504 366.673)">
      <g id="Grupo_107300" data-name="Grupo 107300" transform="translate(53.116)">
        <g id="Grupo_107298" data-name="Grupo 107298" transform="translate(0 40.166)">
          <g id="Grupo_107277" data-name="Grupo 107277" transform="translate(6.792 58.821)">
            <path id="Trazado_149578" data-name="Trazado 149578" d="M1201.317,1622.74v3.351a1.142,1.142,0,0,1-.264.72,1.536,1.536,0,0,1-.721.483,1.48,1.48,0,0,1-.282.067,1.754,1.754,0,0,1-.272.02h-63.541a1.488,1.488,0,0,1-1.522-1.1,1.266,1.266,0,0,1-.014-.128c0-.022,0-.044,0-.065v-3.351c0-.022,0-.044,0-.066a1.258,1.258,0,0,1,.014-.127,1.488,1.488,0,0,1,1.522-1.1h63.541a1.8,1.8,0,0,1,.272.02,1.7,1.7,0,0,1,.282.068,1.534,1.534,0,0,1,.721.482A1.143,1.143,0,0,1,1201.317,1622.74Z" transform="translate(-1134.699 -1621.449)" fill="#ffb93e"/>
            <path id="Trazado_149579" data-name="Trazado 149579" d="M1170.115,1627.38h-34.042a1.363,1.363,0,0,1-1.321-.956,1.116,1.116,0,0,1-.037-.142,1.266,1.266,0,0,1-.014-.128c0-.022,0-.044,0-.065v-3.351c0-.022,0-.044,0-.066a1.258,1.258,0,0,1,.014-.127,1.109,1.109,0,0,1,.037-.142,1.363,1.363,0,0,1,1.321-.956h29.862A10.393,10.393,0,0,0,1170.115,1627.38Z" transform="translate(-1134.699 -1621.449)" fill="#ffa412"/>
            <g id="Grupo_107276" data-name="Grupo 107276" transform="translate(23.348)">
              <rect id="Rectángulo_35280" data-name="Rectángulo 35280" width="0.722" height="5.932" transform="translate(34.816 0)" fill="#ffa412"/>
              <rect id="Rectángulo_35281" data-name="Rectángulo 35281" width="0.722" height="5.932" transform="translate(32.371 0)" fill="#ffa412"/>
              <rect id="Rectángulo_35282" data-name="Rectángulo 35282" width="0.722" height="5.932" transform="translate(29.44 0)" fill="#ffa412"/>
              <rect id="Rectángulo_35283" data-name="Rectángulo 35283" width="0.722" height="5.932" transform="translate(24.946 0)" fill="#ffa412"/>
              <rect id="Rectángulo_35284" data-name="Rectángulo 35284" width="0.722" height="5.932" transform="translate(20.195 0)" fill="#ffa412"/>
              <rect id="Rectángulo_35285" data-name="Rectángulo 35285" width="0.722" height="5.932" transform="translate(12.911 0)" fill="#ffa412"/>
              <rect id="Rectángulo_35286" data-name="Rectángulo 35286" width="0.722" height="5.932" transform="translate(6.09 0)" fill="#ffa412"/>
              <rect id="Rectángulo_35287" data-name="Rectángulo 35287" width="0.722" height="5.932" transform="translate(0 0)" fill="#ffa412"/>
              <rect id="Rectángulo_35288" data-name="Rectángulo 35288" width="0.722" height="5.932" transform="translate(37.143 0)" fill="#ffa412"/>
              <rect id="Rectángulo_35289" data-name="Rectángulo 35289" width="0.722" height="5.932" transform="translate(38.68 0)" fill="#ffa412"/>
              <rect id="Rectángulo_35290" data-name="Rectángulo 35290" width="0.722" height="5.932" transform="translate(40.165 0)" fill="#ffa412"/>
              <path id="Trazado_149580" data-name="Trazado 149580" d="M1399.2,1621.47v5.89a1.765,1.765,0,0,1-.271.021h-.451v-5.932h.451A1.765,1.765,0,0,1,1399.2,1621.47Z" transform="translate(-1357.195 -1621.449)" fill="#ffa412"/>
              <path id="Trazado_149581" data-name="Trazado 149581" d="M1403.294,1622.287v4.792a1.53,1.53,0,0,1-.722.483V1621.8A1.533,1.533,0,0,1,1403.294,1622.287Z" transform="translate(-1360.287 -1621.717)" fill="#ffa412"/>
            </g>
          </g>
          <g id="Grupo_107279" data-name="Grupo 107279" transform="translate(0 52.888)">
            <path id="Trazado_149582" data-name="Trazado 149582" d="M1173.593,1598.527v3.349a1.151,1.151,0,0,1-.262.723,1.565,1.565,0,0,1-.145.153,1.593,1.593,0,0,1-.578.329,1.556,1.556,0,0,1-.282.065,1.692,1.692,0,0,1-.27.022h-63.543a1.488,1.488,0,0,1-1.52-1.1c-.006-.042-.012-.083-.014-.125,0-.021,0-.044,0-.067v-3.349c0-.022,0-.046,0-.067,0-.042.008-.083.014-.125a1.488,1.488,0,0,1,1.52-1.1h63.543a1.19,1.19,0,0,1,.121.006.353.353,0,0,1,.044,0,.006.006,0,0,1,.008,0,.274.274,0,0,1,.058.006l.039.006a1.62,1.62,0,0,1,.282.065c.054.018.105.038.155.059h0l.1.048.056.032a.505.505,0,0,1,.051.032,1.151,1.151,0,0,1,.187.137c.02.016.036.034.054.05s.021.02.031.03a.122.122,0,0,1,.016.018l.014.014a.573.573,0,0,1,.057.065A1.146,1.146,0,0,1,1173.593,1598.527Z" transform="translate(-1106.977 -1597.235)" fill="#ffb93e"/>
            <path id="Trazado_149583" data-name="Trazado 149583" d="M1142.391,1603.168h-34.043a1.362,1.362,0,0,1-1.319-.958,1.149,1.149,0,0,1-.037-.142c-.006-.042-.012-.083-.014-.125,0-.021,0-.044,0-.067v-3.349c0-.022,0-.046,0-.067,0-.042.008-.083.014-.125a1.16,1.16,0,0,1,.037-.142,1.362,1.362,0,0,1,1.319-.958h29.862c.012.05.026.1.042.147A10.373,10.373,0,0,0,1142.391,1603.168Z" transform="translate(-1106.977 -1597.235)" fill="#ffa412"/>
            <g id="Grupo_107278" data-name="Grupo 107278" transform="translate(23.346 0)">
              <rect id="Rectángulo_35291" data-name="Rectángulo 35291" width="0.722" height="5.932" transform="translate(34.816 0)" fill="#ffa412"/>
              <rect id="Rectángulo_35292" data-name="Rectángulo 35292" width="0.722" height="5.932" transform="translate(32.372 0)" fill="#ffa412"/>
              <rect id="Rectángulo_35293" data-name="Rectángulo 35293" width="0.722" height="5.932" transform="translate(29.44 0)" fill="#ffa412"/>
              <rect id="Rectángulo_35294" data-name="Rectángulo 35294" width="0.722" height="5.932" transform="translate(24.947 0)" fill="#ffa412"/>
              <rect id="Rectángulo_35295" data-name="Rectángulo 35295" width="0.722" height="5.932" transform="translate(20.195 0)" fill="#ffa412"/>
              <rect id="Rectángulo_35296" data-name="Rectángulo 35296" width="0.722" height="5.932" transform="translate(12.911 0)" fill="#ffa412"/>
              <rect id="Rectángulo_35297" data-name="Rectángulo 35297" width="0.722" height="5.932" transform="translate(6.09 0)" fill="#ffa412"/>
              <rect id="Rectángulo_35298" data-name="Rectángulo 35298" width="0.722" height="5.932" transform="translate(0 0)" fill="#ffa412"/>
              <rect id="Rectángulo_35299" data-name="Rectángulo 35299" width="0.722" height="5.932" transform="translate(37.143 0)" fill="#ffa412"/>
              <rect id="Rectángulo_35300" data-name="Rectángulo 35300" width="0.722" height="5.932" transform="translate(38.68 0)" fill="#ffa412"/>
              <rect id="Rectángulo_35301" data-name="Rectángulo 35301" width="0.722" height="5.932" transform="translate(40.165 0)" fill="#ffa412"/>
              <path id="Trazado_149584" data-name="Trazado 149584" d="M1371.47,1597.257v5.891a1.765,1.765,0,0,1-.271.021h-.451v-5.932h.451A1.829,1.829,0,0,1,1371.47,1597.257Z" transform="translate(-1329.466 -1597.236)" fill="#ffa412"/>
              <path id="Trazado_149585" data-name="Trazado 149585" d="M1375.566,1598.076v4.792a1.532,1.532,0,0,1-.721.483v-5.758A1.527,1.527,0,0,1,1375.566,1598.076Z" transform="translate(-1332.559 -1597.505)" fill="#ffa412"/>
            </g>
          </g>
          <g id="Grupo_107281" data-name="Grupo 107281" transform="translate(3.283 47.103)">
            <path id="Trazado_149586" data-name="Trazado 149586" d="M1186.993,1574.917v3.35a1.144,1.144,0,0,1-.264.721,1.521,1.521,0,0,1-.721.482,1.868,1.868,0,0,1-.282.068,2.027,2.027,0,0,1-.27.02h-63.544a1.769,1.769,0,0,1-.708-.147,1.341,1.341,0,0,1-.81-.937c-.006-.028-.008-.055-.012-.083a.5.5,0,0,1,0-.057c0-.022,0-.044,0-.065v-3.35c0-.022,0-.044,0-.066a.857.857,0,0,1,.014-.125,1.486,1.486,0,0,1,1.52-1.1h63.544a1.716,1.716,0,0,1,.27.02,1.611,1.611,0,0,1,.282.066,1.536,1.536,0,0,1,.721.484A1.144,1.144,0,0,1,1186.993,1574.917Z" transform="translate(-1120.377 -1573.626)" fill="#ffb93e"/>
            <path id="Trazado_149587" data-name="Trazado 149587" d="M1155.791,1579.558h-34.043a1.423,1.423,0,0,1-.631-.147,1.3,1.3,0,0,1-.723-.937c-.006-.028-.008-.055-.012-.083a.5.5,0,0,1,0-.057c0-.022,0-.044,0-.065v-3.35c0-.022,0-.044,0-.066a.857.857,0,0,1,.014-.125,1.117,1.117,0,0,1,.036-.138,1.359,1.359,0,0,1,1.32-.962h29.862a10.411,10.411,0,0,0,3.972,5.784C1155.65,1579.461,1155.719,1579.51,1155.791,1579.558Z" transform="translate(-1120.377 -1573.626)" fill="#ffa412"/>
            <g id="Grupo_107280" data-name="Grupo 107280" transform="translate(23.346)">
              <rect id="Rectángulo_35302" data-name="Rectángulo 35302" width="0.722" height="5.932" transform="translate(34.816 0)" fill="#ffa412"/>
              <rect id="Rectángulo_35303" data-name="Rectángulo 35303" width="0.722" height="5.932" transform="translate(32.372 0)" fill="#ffa412"/>
              <rect id="Rectángulo_35304" data-name="Rectángulo 35304" width="0.722" height="5.932" transform="translate(29.44 0)" fill="#ffa412"/>
              <rect id="Rectángulo_35305" data-name="Rectángulo 35305" width="0.722" height="5.932" transform="translate(24.947 0)" fill="#ffa412"/>
              <rect id="Rectángulo_35306" data-name="Rectángulo 35306" width="0.722" height="5.932" transform="translate(20.195 0)" fill="#ffa412"/>
              <rect id="Rectángulo_35307" data-name="Rectángulo 35307" width="0.722" height="5.932" transform="translate(12.911 0)" fill="#ffa412"/>
              <rect id="Rectángulo_35308" data-name="Rectángulo 35308" width="0.722" height="5.932" transform="translate(6.09 0)" fill="#ffa412"/>
              <rect id="Rectángulo_35309" data-name="Rectángulo 35309" width="0.722" height="5.932" transform="translate(0 0)" fill="#ffa412"/>
              <rect id="Rectángulo_35310" data-name="Rectángulo 35310" width="0.722" height="5.932" transform="translate(37.143 0)" fill="#ffa412"/>
              <rect id="Rectángulo_35311" data-name="Rectángulo 35311" width="0.722" height="5.932" transform="translate(38.681 0)" fill="#ffa412"/>
              <rect id="Rectángulo_35312" data-name="Rectángulo 35312" width="0.722" height="5.932" transform="translate(40.165 0)" fill="#ffa412"/>
              <path id="Trazado_149588" data-name="Trazado 149588" d="M1384.87,1573.644v5.891a1.8,1.8,0,0,1-.271.021h-.451v-5.932h.451A1.771,1.771,0,0,1,1384.87,1573.644Z" transform="translate(-1342.866 -1573.623)" fill="#ffa412"/>
              <path id="Trazado_149589" data-name="Trazado 149589" d="M1388.966,1574.461v4.792a1.528,1.528,0,0,1-.722.483v-5.758A1.534,1.534,0,0,1,1388.966,1574.461Z" transform="translate(-1345.958 -1573.891)" fill="#ffa412"/>
            </g>
          </g>
          <g id="Grupo_107283" data-name="Grupo 107283" transform="translate(4.805 41.171)">
            <path id="Trazado_149590" data-name="Trazado 149590" d="M1193.206,1550.7v3.349a1.14,1.14,0,0,1-.264.721c-.022.027-.046.054-.07.079a1.486,1.486,0,0,1-.439.319,1.814,1.814,0,0,1-.212.085,1.652,1.652,0,0,1-.282.065c-.044.006-.087.012-.133.016s-.093.006-.139.006h-63.541a1.489,1.489,0,0,1-1.523-1.1c-.006-.042-.012-.083-.014-.125v-3.484a1.418,1.418,0,0,1,1.354-1.215c.06-.006.121-.01.183-.01h63.541c.046,0,.093,0,.139.006s.089.008.133.016a1.663,1.663,0,0,1,.282.065,1.534,1.534,0,0,1,.721.482A1.145,1.145,0,0,1,1193.206,1550.7Z" transform="translate(-1126.59 -1549.411)" fill="#ffb93e"/>
            <path id="Trazado_149591" data-name="Trazado 149591" d="M1162,1555.344h-34.042a1.364,1.364,0,0,1-1.321-.958,1.072,1.072,0,0,1-.037-.142c-.006-.042-.012-.083-.014-.125v-3.484a1.335,1.335,0,0,1,1.209-1.215,1.486,1.486,0,0,1,.163-.01h29.862s0,.006,0,.01A10.4,10.4,0,0,0,1162,1555.344Z" transform="translate(-1126.59 -1549.411)" fill="#ffa412"/>
            <g id="Grupo_107282" data-name="Grupo 107282" transform="translate(23.346)">
              <rect id="Rectángulo_35313" data-name="Rectángulo 35313" width="0.722" height="5.932" transform="translate(34.816 0.001)" fill="#ffa412"/>
              <rect id="Rectángulo_35314" data-name="Rectángulo 35314" width="0.722" height="5.932" transform="translate(32.372 0.001)" fill="#ffa412"/>
              <rect id="Rectángulo_35315" data-name="Rectángulo 35315" width="0.722" height="5.932" transform="translate(29.44 0.001)" fill="#ffa412"/>
              <rect id="Rectángulo_35316" data-name="Rectángulo 35316" width="0.722" height="5.932" transform="translate(24.946 0.001)" fill="#ffa412"/>
              <rect id="Rectángulo_35317" data-name="Rectángulo 35317" width="0.722" height="5.932" transform="translate(20.195 0.001)" fill="#ffa412"/>
              <rect id="Rectángulo_35318" data-name="Rectángulo 35318" width="0.722" height="5.932" transform="translate(12.911 0.001)" fill="#ffa412"/>
              <rect id="Rectángulo_35319" data-name="Rectángulo 35319" width="0.722" height="5.932" transform="translate(6.09 0.001)" fill="#ffa412"/>
              <rect id="Rectángulo_35320" data-name="Rectángulo 35320" width="0.722" height="5.932" transform="translate(0 0.001)" fill="#ffa412"/>
              <rect id="Rectángulo_35321" data-name="Rectángulo 35321" width="0.722" height="5.932" transform="translate(37.143 0.001)" fill="#ffa412"/>
              <rect id="Rectángulo_35322" data-name="Rectángulo 35322" width="0.722" height="5.932" transform="translate(38.68 0.001)" fill="#ffa412"/>
              <rect id="Rectángulo_35323" data-name="Rectángulo 35323" width="0.722" height="5.932" transform="translate(40.165 0.001)" fill="#ffa412"/>
              <path id="Trazado_149592" data-name="Trazado 149592" d="M1391.082,1549.432v5.891a1.756,1.756,0,0,1-.271.021h-.451v-5.932h.451A1.756,1.756,0,0,1,1391.082,1549.432Z" transform="translate(-1349.078 -1549.411)" fill="#ffa412"/>
              <path id="Trazado_149593" data-name="Trazado 149593" d="M1395.178,1550.25v4.792a1.531,1.531,0,0,1-.722.483v-5.758A1.532,1.532,0,0,1,1395.178,1550.25Z" transform="translate(-1352.171 -1549.679)" fill="#ffa412"/>
            </g>
          </g>
          <g id="Grupo_107285" data-name="Grupo 107285" transform="translate(0.133 35.248)">
            <path id="Trazado_149594" data-name="Trazado 149594" d="M1174.136,1526.529v3.349a1.133,1.133,0,0,1-.262.72,1.517,1.517,0,0,1-.722.485,1.654,1.654,0,0,1-.28.065.675.675,0,0,1-.089.012h-.012a.348.348,0,0,1-.047,0l-.042,0-.082,0h-63.541a1.453,1.453,0,0,1-1.537-1.225c0-.022,0-.044,0-.067v-3.349c0-.022,0-.046,0-.068a.488.488,0,0,1,0-.053,1.392,1.392,0,0,1,1.153-1.13.384.384,0,0,1,.046-.01,1.831,1.831,0,0,1,.334-.031H1172.6c.048,0,.091,0,.137.006l.058.006h.006c.024,0,.048.006.071.01a1.643,1.643,0,0,1,.28.066,1.513,1.513,0,0,1,.722.484A1.134,1.134,0,0,1,1174.136,1526.529Z" transform="translate(-1107.52 -1525.237)" fill="#ffb93e"/>
            <path id="Trazado_149595" data-name="Trazado 149595" d="M1142.934,1531.17h-34.041a1.345,1.345,0,0,1-1.372-1.225c0-.022,0-.044,0-.067v-3.349c0-.022,0-.046,0-.068a.488.488,0,0,1,0-.053,1.324,1.324,0,0,1,1.066-1.138.269.269,0,0,1,.057-.012,1.438,1.438,0,0,1,.244-.022h29.86c0,.016.008.028.012.043a10.4,10.4,0,0,0,4.155,5.879S1142.93,1531.166,1142.934,1531.17Z" transform="translate(-1107.52 -1525.237)" fill="#ffa412"/>
            <g id="Grupo_107284" data-name="Grupo 107284" transform="translate(23.347 0)">
              <rect id="Rectángulo_35324" data-name="Rectángulo 35324" width="0.722" height="5.932" transform="translate(34.816 0)" fill="#ffa412"/>
              <rect id="Rectángulo_35325" data-name="Rectángulo 35325" width="0.722" height="5.932" transform="translate(32.372 0)" fill="#ffa412"/>
              <rect id="Rectángulo_35326" data-name="Rectángulo 35326" width="0.722" height="5.932" transform="translate(29.44 0)" fill="#ffa412"/>
              <rect id="Rectángulo_35327" data-name="Rectángulo 35327" width="0.722" height="5.932" transform="translate(24.946 0)" fill="#ffa412"/>
              <rect id="Rectángulo_35328" data-name="Rectángulo 35328" width="0.722" height="5.932" transform="translate(20.195 0)" fill="#ffa412"/>
              <rect id="Rectángulo_35329" data-name="Rectángulo 35329" width="0.722" height="5.932" transform="translate(12.911 0)" fill="#ffa412"/>
              <rect id="Rectángulo_35330" data-name="Rectángulo 35330" width="0.722" height="5.932" transform="translate(6.09 0)" fill="#ffa412"/>
              <rect id="Rectángulo_35331" data-name="Rectángulo 35331" width="0.722" height="5.932" transform="translate(0 0)" fill="#ffa412"/>
              <rect id="Rectángulo_35332" data-name="Rectángulo 35332" width="0.722" height="5.932" transform="translate(37.143 0)" fill="#ffa412"/>
              <rect id="Rectángulo_35333" data-name="Rectángulo 35333" width="0.722" height="5.932" transform="translate(38.68 0)" fill="#ffa412"/>
              <rect id="Rectángulo_35334" data-name="Rectángulo 35334" width="0.722" height="5.932" transform="translate(40.165 0)" fill="#ffa412"/>
              <path id="Trazado_149596" data-name="Trazado 149596" d="M1372.015,1525.259v5.891a1.779,1.779,0,0,1-.271.021h-.451v-5.932h.451A1.827,1.827,0,0,1,1372.015,1525.259Z" transform="translate(-1330.011 -1525.238)" fill="#ffa412"/>
              <path id="Trazado_149597" data-name="Trazado 149597" d="M1376.111,1526.078v4.792a1.531,1.531,0,0,1-.721.483v-5.758A1.529,1.529,0,0,1,1376.111,1526.078Z" transform="translate(-1333.104 -1525.507)" fill="#ffa412"/>
            </g>
          </g>
          <g id="Grupo_107287" data-name="Grupo 107287" transform="translate(0 29.358)">
            <path id="Trazado_149598" data-name="Trazado 149598" d="M1173.593,1502.491v3.349a1.147,1.147,0,0,1-.262.72,1.79,1.79,0,0,1-.145.155,1.591,1.591,0,0,1-.578.329,1.752,1.752,0,0,1-.219.056h-.006a.584.584,0,0,1-.058.01,1.706,1.706,0,0,1-.27.022h-63.543a1.671,1.671,0,0,1-.2-.012c-.026,0-.051-.006-.075-.01a1.429,1.429,0,0,1-1.249-1.092,1.066,1.066,0,0,1-.012-.111c0-.024,0-.046,0-.067v-3.349c0-.024,0-.046,0-.068,0-.042.008-.084.014-.125a1.488,1.488,0,0,1,1.52-1.1h63.543c.04,0,.081,0,.121,0l.016,0h.036l.058.008a.128.128,0,0,1,.039.006,1.631,1.631,0,0,1,.282.066c.054.018.105.038.155.06h0a1.538,1.538,0,0,1,.508.357c.02.022.04.043.057.065A1.153,1.153,0,0,1,1173.593,1502.491Z" transform="translate(-1106.977 -1501.199)" fill="#ffb93e"/>
            <path id="Trazado_149599" data-name="Trazado 149599" d="M1142.391,1507.132h-34.043l-.079,0-.087-.008a1.343,1.343,0,0,1-1.191-1.1,1.066,1.066,0,0,1-.012-.111c0-.024,0-.046,0-.067v-3.349c0-.024,0-.046,0-.068,0-.042.008-.084.014-.125a1.149,1.149,0,0,1,.037-.142,1.362,1.362,0,0,1,1.319-.958h29.862c.012.05.026.1.042.147a10.377,10.377,0,0,0,4.077,5.742C1142.349,1507.1,1142.371,1507.116,1142.391,1507.132Z" transform="translate(-1106.977 -1501.199)" fill="#ffa412"/>
            <g id="Grupo_107286" data-name="Grupo 107286" transform="translate(23.346 0.001)">
              <rect id="Rectángulo_35335" data-name="Rectángulo 35335" width="0.722" height="5.932" transform="translate(34.816 0)" fill="#ffa412"/>
              <rect id="Rectángulo_35336" data-name="Rectángulo 35336" width="0.722" height="5.932" transform="translate(32.372 0)" fill="#ffa412"/>
              <rect id="Rectángulo_35337" data-name="Rectángulo 35337" width="0.722" height="5.932" transform="translate(29.44 0)" fill="#ffa412"/>
              <rect id="Rectángulo_35338" data-name="Rectángulo 35338" width="0.722" height="5.932" transform="translate(24.947 0)" fill="#ffa412"/>
              <rect id="Rectángulo_35339" data-name="Rectángulo 35339" width="0.722" height="5.932" transform="translate(20.195 0)" fill="#ffa412"/>
              <rect id="Rectángulo_35340" data-name="Rectángulo 35340" width="0.722" height="5.932" transform="translate(12.911 0)" fill="#ffa412"/>
              <rect id="Rectángulo_35341" data-name="Rectángulo 35341" width="0.722" height="5.932" transform="translate(6.09 0)" fill="#ffa412"/>
              <rect id="Rectángulo_35342" data-name="Rectángulo 35342" width="0.722" height="5.932" transform="translate(0 0)" fill="#ffa412"/>
              <rect id="Rectángulo_35343" data-name="Rectángulo 35343" width="0.722" height="5.932" transform="translate(37.143 0)" fill="#ffa412"/>
              <rect id="Rectángulo_35344" data-name="Rectángulo 35344" width="0.722" height="5.932" transform="translate(38.68 0)" fill="#ffa412"/>
              <rect id="Rectángulo_35345" data-name="Rectángulo 35345" width="0.722" height="5.932" transform="translate(40.165 0)" fill="#ffa412"/>
              <path id="Trazado_149600" data-name="Trazado 149600" d="M1371.47,1501.222v5.891a1.781,1.781,0,0,1-.271.021h-.451V1501.2h.451A1.75,1.75,0,0,1,1371.47,1501.222Z" transform="translate(-1329.466 -1501.201)" fill="#ffa412"/>
              <path id="Trazado_149601" data-name="Trazado 149601" d="M1375.566,1502.039v4.791a1.532,1.532,0,0,1-.721.484v-5.758A1.536,1.536,0,0,1,1375.566,1502.039Z" transform="translate(-1332.559 -1501.469)" fill="#ffa412"/>
            </g>
          </g>
          <g id="Grupo_107289" data-name="Grupo 107289" transform="translate(3.283 23.572)">
            <path id="Trazado_149602" data-name="Trazado 149602" d="M1186.993,1478.876v3.349a1.146,1.146,0,0,1-.264.723,1.525,1.525,0,0,1-.721.482,1.6,1.6,0,0,1-.282.066,1.7,1.7,0,0,1-.27.022h-63.544a1.765,1.765,0,0,1-.708-.147,1.34,1.34,0,0,1-.81-.937c-.006-.027-.008-.055-.012-.083a.535.535,0,0,1,0-.057c0-.022,0-.044,0-.068v-3.349c0-.022,0-.045,0-.067a.9.9,0,0,1,.014-.125,1.488,1.488,0,0,1,1.52-1.1h63.544a1.731,1.731,0,0,1,.27.022,1.611,1.611,0,0,1,.282.065,1.509,1.509,0,0,1,.721.484A1.14,1.14,0,0,1,1186.993,1478.876Z" transform="translate(-1120.377 -1477.584)" fill="#ffb93e"/>
            <path id="Trazado_149603" data-name="Trazado 149603" d="M1155.791,1483.517h-34.043a1.42,1.42,0,0,1-.631-.147,1.3,1.3,0,0,1-.723-.937c-.006-.027-.008-.055-.012-.083a.535.535,0,0,1,0-.057c0-.022,0-.044,0-.068v-3.349c0-.022,0-.045,0-.067a.9.9,0,0,1,.014-.125,1.131,1.131,0,0,1,.036-.137,1.36,1.36,0,0,1,1.32-.962h29.862a10.406,10.406,0,0,0,3.972,5.786C1155.65,1483.42,1155.719,1483.468,1155.791,1483.517Z" transform="translate(-1120.377 -1477.584)" fill="#ffa412"/>
            <g id="Grupo_107288" data-name="Grupo 107288" transform="translate(23.346 0.001)">
              <rect id="Rectángulo_35346" data-name="Rectángulo 35346" width="0.722" height="5.932" transform="translate(34.816)" fill="#ffa412"/>
              <rect id="Rectángulo_35347" data-name="Rectángulo 35347" width="0.722" height="5.932" transform="translate(32.372)" fill="#ffa412"/>
              <rect id="Rectángulo_35348" data-name="Rectángulo 35348" width="0.722" height="5.932" transform="translate(29.44)" fill="#ffa412"/>
              <rect id="Rectángulo_35349" data-name="Rectángulo 35349" width="0.722" height="5.932" transform="translate(24.947)" fill="#ffa412"/>
              <rect id="Rectángulo_35350" data-name="Rectángulo 35350" width="0.722" height="5.932" transform="translate(20.195)" fill="#ffa412"/>
              <rect id="Rectángulo_35351" data-name="Rectángulo 35351" width="0.722" height="5.932" transform="translate(12.911)" fill="#ffa412"/>
              <rect id="Rectángulo_35352" data-name="Rectángulo 35352" width="0.722" height="5.932" transform="translate(6.09)" fill="#ffa412"/>
              <rect id="Rectángulo_35353" data-name="Rectángulo 35353" width="0.722" height="5.932" fill="#ffa412"/>
              <rect id="Rectángulo_35354" data-name="Rectángulo 35354" width="0.722" height="5.932" transform="translate(37.143)" fill="#ffa412"/>
              <rect id="Rectángulo_35355" data-name="Rectángulo 35355" width="0.722" height="5.932" transform="translate(38.681)" fill="#ffa412"/>
              <rect id="Rectángulo_35356" data-name="Rectángulo 35356" width="0.722" height="5.932" transform="translate(40.165)" fill="#ffa412"/>
              <path id="Trazado_149604" data-name="Trazado 149604" d="M1384.87,1477.608v5.891a1.8,1.8,0,0,1-.271.021h-.451v-5.932h.451A1.771,1.771,0,0,1,1384.87,1477.608Z" transform="translate(-1342.866 -1477.588)" fill="#ffa412"/>
              <path id="Trazado_149605" data-name="Trazado 149605" d="M1388.966,1478.425v4.792a1.533,1.533,0,0,1-.722.483v-5.758A1.537,1.537,0,0,1,1388.966,1478.425Z" transform="translate(-1345.958 -1477.855)" fill="#ffa412"/>
            </g>
          </g>
          <g id="Grupo_107291" data-name="Grupo 107291" transform="translate(8.476 17.641)">
            <path id="Trazado_149606" data-name="Trazado 149606" d="M1208.186,1454.667v3.351a1.146,1.146,0,0,1-.262.719l0,0c-.022.028-.046.053-.07.079a1.452,1.452,0,0,1-.34.266,1.531,1.531,0,0,1-.2.1,0,0,0,0,0,0,0c-.034.014-.07.028-.107.04a1.644,1.644,0,0,1-.282.066,1.709,1.709,0,0,1-.27.02h-63.543a1.486,1.486,0,0,1-1.52-1.1.91.91,0,0,1-.014-.127c0-.022,0-.044,0-.065v-3.351c0-.022,0-.044,0-.066a1.417,1.417,0,0,1,1.354-1.215,1.378,1.378,0,0,1,.18-.01h63.543a2,2,0,0,1,.27.02,1.838,1.838,0,0,1,.282.068,1.558,1.558,0,0,1,.651.4c.024.026.048.052.07.079l0,0A1.146,1.146,0,0,1,1208.186,1454.667Z" transform="translate(-1141.57 -1453.376)" fill="#ffb93e"/>
            <path id="Trazado_149607" data-name="Trazado 149607" d="M1176.984,1459.307h-34.042a1.359,1.359,0,0,1-1.32-.96,1.089,1.089,0,0,1-.036-.138.91.91,0,0,1-.014-.127c0-.022,0-.044,0-.065v-3.351c0-.022,0-.044,0-.066a1.332,1.332,0,0,1,1.207-1.215,1.125,1.125,0,0,1,.163-.01H1172.8s0,.006,0,.01A10.391,10.391,0,0,0,1176.984,1459.307Z" transform="translate(-1141.57 -1453.376)" fill="#ffa412"/>
            <g id="Grupo_107290" data-name="Grupo 107290" transform="translate(23.346)">
              <rect id="Rectángulo_35357" data-name="Rectángulo 35357" width="0.722" height="5.932" transform="translate(34.816 0)" fill="#ffa412"/>
              <rect id="Rectángulo_35358" data-name="Rectángulo 35358" width="0.722" height="5.932" transform="translate(32.372 0)" fill="#ffa412"/>
              <rect id="Rectángulo_35359" data-name="Rectángulo 35359" width="0.722" height="5.932" transform="translate(29.44 0)" fill="#ffa412"/>
              <rect id="Rectángulo_35360" data-name="Rectángulo 35360" width="0.722" height="5.932" transform="translate(24.947 0)" fill="#ffa412"/>
              <rect id="Rectángulo_35361" data-name="Rectángulo 35361" width="0.722" height="5.932" transform="translate(20.195 0)" fill="#ffa412"/>
              <rect id="Rectángulo_35362" data-name="Rectángulo 35362" width="0.722" height="5.932" transform="translate(12.911 0)" fill="#ffa412"/>
              <rect id="Rectángulo_35363" data-name="Rectángulo 35363" width="0.722" height="5.932" transform="translate(6.09 0)" fill="#ffa412"/>
              <rect id="Rectángulo_35364" data-name="Rectángulo 35364" width="0.722" height="5.932" transform="translate(0 0)" fill="#ffa412"/>
              <rect id="Rectángulo_35365" data-name="Rectángulo 35365" width="0.722" height="5.932" transform="translate(37.143 0)" fill="#ffa412"/>
              <rect id="Rectángulo_35366" data-name="Rectángulo 35366" width="0.722" height="5.932" transform="translate(38.681 0)" fill="#ffa412"/>
              <rect id="Rectángulo_35367" data-name="Rectángulo 35367" width="0.722" height="5.932" transform="translate(40.165 0)" fill="#ffa412"/>
              <path id="Trazado_149608" data-name="Trazado 149608" d="M1406.064,1453.4v5.891a1.752,1.752,0,0,1-.271.021h-.451v-5.932h.451A1.783,1.783,0,0,1,1406.064,1453.4Z" transform="translate(-1364.06 -1453.375)" fill="#ffa412"/>
              <path id="Trazado_149609" data-name="Trazado 149609" d="M1410.16,1454.214v4.792a1.531,1.531,0,0,1-.721.483v-5.758A1.527,1.527,0,0,1,1410.16,1454.214Z" transform="translate(-1367.153 -1453.644)" fill="#ffa412"/>
            </g>
          </g>
          <g id="Grupo_107293" data-name="Grupo 107293" transform="translate(0.133 11.718)">
            <path id="Trazado_149610" data-name="Trazado 149610" d="M1174.136,1430.494v3.349a1.135,1.135,0,0,1-.262.721,1.516,1.516,0,0,1-.722.484,1.6,1.6,0,0,1-.28.066l-.089.012h-.012a.489.489,0,0,1-.059.006l-.036,0-.075,0h-63.541a1.616,1.616,0,0,1-1.308-.615,1.138,1.138,0,0,1-.228-.609c0-.024,0-.046,0-.067v-3.349c0-.024,0-.046,0-.068a1.364,1.364,0,0,1,1.09-1.167,1.747,1.747,0,0,1,.447-.057H1172.6l.082,0a.273.273,0,0,1,.039,0,1.234,1.234,0,0,1,.151.016,1.631,1.631,0,0,1,.28.065.934.934,0,0,1,.131.05h0a1.5,1.5,0,0,1,.445.28.035.035,0,0,1,.006.008l.018.016a1.235,1.235,0,0,1,.121.129A1.14,1.14,0,0,1,1174.136,1430.494Z" transform="translate(-1107.52 -1429.201)" fill="#ffb93e"/>
            <path id="Trazado_149611" data-name="Trazado 149611" d="M1142.934,1435.134h-34.041a1.4,1.4,0,0,1-1.147-.586,1.22,1.22,0,0,1-.224-.639c0-.024,0-.046,0-.067v-3.349c0-.024,0-.046,0-.068a1.324,1.324,0,0,1,1.094-1.2,1.42,1.42,0,0,1,.278-.028h29.86c.012.046.026.091.04.137a10.375,10.375,0,0,0,4.127,5.786A.07.07,0,0,1,1142.934,1435.134Z" transform="translate(-1107.52 -1429.201)" fill="#ffa412"/>
            <g id="Grupo_107292" data-name="Grupo 107292" transform="translate(23.347 0)">
              <rect id="Rectángulo_35368" data-name="Rectángulo 35368" width="0.722" height="5.932" transform="translate(34.816 0)" fill="#ffa412"/>
              <rect id="Rectángulo_35369" data-name="Rectángulo 35369" width="0.722" height="5.932" transform="translate(32.372 0)" fill="#ffa412"/>
              <rect id="Rectángulo_35370" data-name="Rectángulo 35370" width="0.722" height="5.932" transform="translate(29.44 0)" fill="#ffa412"/>
              <rect id="Rectángulo_35371" data-name="Rectángulo 35371" width="0.722" height="5.932" transform="translate(24.946 0)" fill="#ffa412"/>
              <rect id="Rectángulo_35372" data-name="Rectángulo 35372" width="0.722" height="5.932" transform="translate(20.195 0)" fill="#ffa412"/>
              <rect id="Rectángulo_35373" data-name="Rectángulo 35373" width="0.722" height="5.932" transform="translate(12.911 0)" fill="#ffa412"/>
              <rect id="Rectángulo_35374" data-name="Rectángulo 35374" width="0.722" height="5.932" transform="translate(6.09 0)" fill="#ffa412"/>
              <rect id="Rectángulo_35375" data-name="Rectángulo 35375" width="0.722" height="5.932" transform="translate(0 0)" fill="#ffa412"/>
              <rect id="Rectángulo_35376" data-name="Rectángulo 35376" width="0.722" height="5.932" transform="translate(37.143 0)" fill="#ffa412"/>
              <rect id="Rectángulo_35377" data-name="Rectángulo 35377" width="0.722" height="5.932" transform="translate(38.68 0)" fill="#ffa412"/>
              <rect id="Rectángulo_35378" data-name="Rectángulo 35378" width="0.722" height="5.932" transform="translate(40.165 0)" fill="#ffa412"/>
              <path id="Trazado_149612" data-name="Trazado 149612" d="M1372.015,1429.224v5.891a1.8,1.8,0,0,1-.271.021h-.451V1429.2h.451A1.764,1.764,0,0,1,1372.015,1429.224Z" transform="translate(-1330.011 -1429.203)" fill="#ffa412"/>
              <path id="Trazado_149613" data-name="Trazado 149613" d="M1376.111,1430.041v4.791a1.533,1.533,0,0,1-.721.483v-5.758A1.533,1.533,0,0,1,1376.111,1430.041Z" transform="translate(-1333.104 -1429.471)" fill="#ffa412"/>
            </g>
          </g>
          <g id="Grupo_107295" data-name="Grupo 107295" transform="translate(4.805 5.923)">
            <path id="Trazado_149614" data-name="Trazado 149614" d="M1193.2,1406.843v3.35a1.143,1.143,0,0,1-.264.721,1.534,1.534,0,0,1-.721.483,1.708,1.708,0,0,1-.281.066,1.8,1.8,0,0,1-.271.021h-63.542a1.76,1.76,0,0,1-.687-.137,1.32,1.32,0,0,1-.845-1.035c0-.017,0-.035,0-.053s0-.044,0-.067v-3.35c0-.022,0-.044,0-.066a1.416,1.416,0,0,1,1.354-1.215,1.649,1.649,0,0,1,.182-.009h63.542a1.753,1.753,0,0,1,.271.021,1.637,1.637,0,0,1,.281.066,1.53,1.53,0,0,1,.721.483A1.142,1.142,0,0,1,1193.2,1406.843Z" transform="translate(-1126.587 -1405.552)" fill="#ffb93e"/>
            <path id="Trazado_149615" data-name="Trazado 149615" d="M1162,1411.484h-34.042a1.424,1.424,0,0,1-.613-.137,1.3,1.3,0,0,1-.754-1.035c0-.017,0-.035,0-.053s0-.044,0-.067v-3.35c0-.022,0-.044,0-.066a1.332,1.332,0,0,1,1.208-1.215,1.31,1.31,0,0,1,.162-.009h29.861l0,.009a10.41,10.41,0,0,0,3.982,5.786C1161.869,1411.393,1161.935,1411.439,1162,1411.484Z" transform="translate(-1126.587 -1405.552)" fill="#ffa412"/>
            <g id="Grupo_107294" data-name="Grupo 107294" transform="translate(23.346)">
              <rect id="Rectángulo_35379" data-name="Rectángulo 35379" width="0.722" height="5.932" transform="translate(34.816 0)" fill="#ffa412"/>
              <rect id="Rectángulo_35380" data-name="Rectángulo 35380" width="0.722" height="5.932" transform="translate(32.372 0)" fill="#ffa412"/>
              <rect id="Rectángulo_35381" data-name="Rectángulo 35381" width="0.722" height="5.932" transform="translate(29.44 0)" fill="#ffa412"/>
              <rect id="Rectángulo_35382" data-name="Rectángulo 35382" width="0.722" height="5.932" transform="translate(24.946 0)" fill="#ffa412"/>
              <rect id="Rectángulo_35383" data-name="Rectángulo 35383" width="0.722" height="5.932" transform="translate(20.195 0)" fill="#ffa412"/>
              <rect id="Rectángulo_35384" data-name="Rectángulo 35384" width="0.722" height="5.932" transform="translate(12.911 0)" fill="#ffa412"/>
              <rect id="Rectángulo_35385" data-name="Rectángulo 35385" width="0.722" height="5.932" transform="translate(6.09 0)" fill="#ffa412"/>
              <rect id="Rectángulo_35386" data-name="Rectángulo 35386" width="0.722" height="5.932" transform="translate(0 0)" fill="#ffa412"/>
              <rect id="Rectángulo_35387" data-name="Rectángulo 35387" width="0.722" height="5.932" transform="translate(37.143 0)" fill="#ffa412"/>
              <rect id="Rectángulo_35388" data-name="Rectángulo 35388" width="0.722" height="5.932" transform="translate(38.68 0)" fill="#ffa412"/>
              <rect id="Rectángulo_35389" data-name="Rectángulo 35389" width="0.722" height="5.932" transform="translate(40.165 0)" fill="#ffa412"/>
              <path id="Trazado_149616" data-name="Trazado 149616" d="M1391.082,1405.572v5.891a1.786,1.786,0,0,1-.271.021h-.451v-5.932h.451A1.756,1.756,0,0,1,1391.082,1405.572Z" transform="translate(-1349.078 -1405.551)" fill="#ffa412"/>
              <path id="Trazado_149617" data-name="Trazado 149617" d="M1395.178,1406.388v4.792a1.528,1.528,0,0,1-.722.483v-5.758A1.534,1.534,0,0,1,1395.178,1406.388Z" transform="translate(-1352.171 -1405.818)" fill="#ffa412"/>
            </g>
          </g>
          <g id="Grupo_107297" data-name="Grupo 107297" transform="translate(6.793)">
            <path id="Trazado_149618" data-name="Trazado 149618" d="M1201.32,1382.669v3.35a1.143,1.143,0,0,1-.263.721,1.532,1.532,0,0,1-.722.483,1.688,1.688,0,0,1-.281.067l-.089.012-.05,0-.05,0-.081,0H1136.24a1.451,1.451,0,0,1-1.536-1.225c0-.022,0-.044,0-.067v-3.35c0-.022,0-.044,0-.066a1.451,1.451,0,0,1,1.536-1.225h63.542a1.749,1.749,0,0,1,.271.021,1.675,1.675,0,0,1,.281.066,1.533,1.533,0,0,1,.722.483A1.142,1.142,0,0,1,1201.32,1382.669Z" transform="translate(-1134.703 -1381.378)" fill="#ffb93e"/>
            <path id="Trazado_149619" data-name="Trazado 149619" d="M1170.117,1387.31h-34.042a1.344,1.344,0,0,1-1.371-1.225c0-.022,0-.044,0-.067v-3.35c0-.022,0-.044,0-.066a1.344,1.344,0,0,1,1.371-1.225h29.861a10.4,10.4,0,0,0,4.167,5.923Z" transform="translate(-1134.703 -1381.378)" fill="#ffa412"/>
            <g id="Grupo_107296" data-name="Grupo 107296" transform="translate(23.347)">
              <rect id="Rectángulo_35390" data-name="Rectángulo 35390" width="0.722" height="5.932" transform="translate(34.816 0)" fill="#ffa412"/>
              <rect id="Rectángulo_35391" data-name="Rectángulo 35391" width="0.722" height="5.932" transform="translate(32.372 0)" fill="#ffa412"/>
              <rect id="Rectángulo_35392" data-name="Rectángulo 35392" width="0.722" height="5.932" transform="translate(29.44 0)" fill="#ffa412"/>
              <rect id="Rectángulo_35393" data-name="Rectángulo 35393" width="0.722" height="5.932" transform="translate(24.946 0)" fill="#ffa412"/>
              <rect id="Rectángulo_35394" data-name="Rectángulo 35394" width="0.722" height="5.932" transform="translate(20.195 0)" fill="#ffa412"/>
              <rect id="Rectángulo_35395" data-name="Rectángulo 35395" width="0.722" height="5.932" transform="translate(12.911 0)" fill="#ffa412"/>
              <rect id="Rectángulo_35396" data-name="Rectángulo 35396" width="0.722" height="5.932" transform="translate(6.09 0)" fill="#ffa412"/>
              <rect id="Rectángulo_35397" data-name="Rectángulo 35397" width="0.722" height="5.932" transform="translate(0 0)" fill="#ffa412"/>
              <rect id="Rectángulo_35398" data-name="Rectángulo 35398" width="0.722" height="5.932" transform="translate(37.143 0)" fill="#ffa412"/>
              <rect id="Rectángulo_35399" data-name="Rectángulo 35399" width="0.722" height="5.932" transform="translate(38.68 0)" fill="#ffa412"/>
              <rect id="Rectángulo_35400" data-name="Rectángulo 35400" width="0.722" height="5.932" transform="translate(40.165 0)" fill="#ffa412"/>
              <path id="Trazado_149620" data-name="Trazado 149620" d="M1399.2,1381.4v5.891a1.755,1.755,0,0,1-.271.021h-.451v-5.932h.451A1.786,1.786,0,0,1,1399.2,1381.4Z" transform="translate(-1357.195 -1381.377)" fill="#ffa412"/>
              <path id="Trazado_149621" data-name="Trazado 149621" d="M1403.294,1382.216v4.792a1.533,1.533,0,0,1-.722.483v-5.758A1.532,1.532,0,0,1,1403.294,1382.216Z" transform="translate(-1360.287 -1381.646)" fill="#ffa412"/>
            </g>
          </g>
        </g>
        <g id="Grupo_107299" data-name="Grupo 107299" transform="translate(9.758)">
          <path id="Trazado_149622" data-name="Trazado 149622" d="M1276.075,1223.8s-3.337,4.7-6.4,4.764-7.715-2.178-7.715-2.178-2.81-6.261-.9-8.711a4.091,4.091,0,0,1,3.909.642,5.988,5.988,0,0,1,1.034.991,3.283,3.283,0,0,0,1.607,1.089c2.183.664,4.775-.9,5.744.61a10.258,10.258,0,0,0,1.688,2A7.7,7.7,0,0,0,1276.075,1223.8Z" transform="translate(-1232.565 -1217.443)" fill="#ffeddc"/>
          <path id="Trazado_149623" data-name="Trazado 149623" d="M1146.8,1291.979s11.8-28.584,33.03-29.128c0,0,19.6,2.178,20.689,29.128Z" transform="translate(-1146.805 -1251.725)" fill="#ffeddc"/>
          <path id="Trazado_149624" data-name="Trazado 149624" d="M1257.742,1255.014s8.511,1.892,11.137.781c0,0,.4-3.559-3.187-3.06a7.52,7.52,0,0,1-4.991-1.316C1259.371,1250.742,1257.389,1253.525,1257.742,1255.014Z" transform="translate(-1230.53 -1243.016)" fill="#db6a1d"/>
          <path id="Trazado_149625" data-name="Trazado 149625" d="M1281.273,1226.785c-.545.408-2.216-5.755-2.216-5.755a5.994,5.994,0,0,1,1.034.991,3.285,3.285,0,0,0,1.607,1.089C1281.7,1223.29,1281.8,1226.388,1281.273,1226.785Z" transform="translate(-1246.653 -1220.151)" fill="#e5c1a1"/>
          <path id="Trazado_149626" data-name="Trazado 149626" d="M1305.844,1234.006c-.12.071-4.056,2.428-4.589,2.428s2.9-4.426,2.9-4.426A10.25,10.25,0,0,0,1305.844,1234.006Z" transform="translate(-1263.368 -1228.439)" fill="#e5c1a1"/>
          <path id="Trazado_149627" data-name="Trazado 149627" d="M1193.826,1309.99c-.218-.187,8.348-12.613,10.708-12.7s7.66,2.722,11.5,3.085,7.558-.726,8.284,1.542,2.723,10.311,1.5,11.6S1198.536,1314.014,1193.826,1309.99Z" transform="translate(-1182.302 -1277.722)" fill="#f9ddbf"/>
        </g>
      </g>
      <path id="Trazado_149628" data-name="Trazado 149628" d="M1136.327,1429.69c0,.016,0,.03,0,.044a28.424,28.424,0,0,1-.953,5.879s0,.006,0,.01c-.076.278-.155.556-.241.832a29.011,29.011,0,0,1-2.094,5.091,29.508,29.508,0,0,1-3.992,5.784c-.042.05-.085.1-.129.147a30.6,30.6,0,0,1-6.981,5.786q-.846.516-1.735.983c-.4.21-.8.409-1.209.6-.387.224-.8.417-1.181.653a16.489,16.489,0,0,1-4.038,1.661v-2.608c0-.022,0-.044,0-.066a1.218,1.218,0,0,1,.014-.127,1.115,1.115,0,0,1,.037-.142,1.363,1.363,0,0,1,1.321-.956h-6.795a1.362,1.362,0,0,1-1.319-.958,1.151,1.151,0,0,1-.037-.142c-.006-.042-.012-.084-.014-.125,0-.021,0-.044,0-.067v-3.349c0-.022,0-.046,0-.068,0-.042.008-.083.014-.125a1.143,1.143,0,0,1,.037-.142,1.362,1.362,0,0,1,1.319-.958H1111a1.3,1.3,0,0,1-.723-.937c-.006-.028-.008-.055-.012-.083a.524.524,0,0,1,0-.058c0-.022,0-.044,0-.065v-3.351c0-.022,0-.043,0-.065a.857.857,0,0,1,.014-.125,1.11,1.11,0,0,1,.036-.138,1.358,1.358,0,0,1,1.32-.961h1.523a1.364,1.364,0,0,1-1.321-.958,1.116,1.116,0,0,1-.037-.142c-.006-.042-.011-.083-.014-.125v-3.484a1.335,1.335,0,0,1,1.209-1.215h-4.508a1.345,1.345,0,0,1-1.372-1.225c0-.022,0-.044,0-.067v-3.349c0-.022,0-.046,0-.068a.494.494,0,0,1,0-.053,1.325,1.325,0,0,1,1.066-1.138,1.343,1.343,0,0,1-1.191-1.1,1.063,1.063,0,0,1-.012-.111c0-.024,0-.046,0-.067v-3.349c0-.024,0-.046,0-.068,0-.042.008-.083.014-.125a1.143,1.143,0,0,1,.037-.142,1.362,1.362,0,0,1,1.319-.958H1111a1.3,1.3,0,0,1-.723-.937c-.006-.027-.008-.055-.012-.083a.573.573,0,0,1,0-.057c0-.022,0-.044,0-.068v-3.349c0-.021,0-.045,0-.067a.893.893,0,0,1,.014-.125,1.122,1.122,0,0,1,.036-.138,1.36,1.36,0,0,1,1.32-.962h5.193a1.359,1.359,0,0,1-1.32-.96,1.116,1.116,0,0,1-.036-.138.935.935,0,0,1-.014-.127c0-.022,0-.044,0-.065v-3.351c0-.022,0-.044,0-.066a1.332,1.332,0,0,1,1.207-1.215h-8.178a1.4,1.4,0,0,1-1.147-.586l0-.03.862-5.26,0-.03,1.227-7.505a32.785,32.785,0,0,1,4.21.848l.242.065.016.006q1.206.337,2.38.764a.075.075,0,0,1,.022.008,31.465,31.465,0,0,1,9.865,5.786c.052.044.1.089.153.137a29.728,29.728,0,0,1,4.137,4.456q.372.488.72.994c.077.111.155.222.229.336a.011.011,0,0,1,.006.01q.562.831,1.068,1.705a29.161,29.161,0,0,1,2.011,4.216,28.181,28.181,0,0,1,1.541,5.786c.01.05.016.1.024.147A28.31,28.31,0,0,1,1136.327,1429.69Z" transform="translate(-1053.861 -1354.277)" fill="#e2810e" opacity="0.5"/>
      <g id="Grupo_107303" data-name="Grupo 107303" transform="translate(0 28.152)">
        <circle id="Elipse_5053" data-name="Elipse 5053" cx="31.255" cy="31.255" r="31.255" transform="translate(0 44.201) rotate(-45)" fill="#e2810e"/>
        <path id="Trazado_149629" data-name="Trazado 149629" d="M980.781,1448.478q-.578.352-1.174.682c-.135.074-.269.148-.4.218-.308.164-.616.322-.927.476a31.255,31.255,0,0,1-28.846-55.438q.6-.331,1.21-.633.591-.294,1.191-.561a31.209,31.209,0,0,1,9.381-2.522,31.26,31.26,0,0,1,19.568,57.778Z" transform="translate(-922.706 -1376.271)" fill="#ffb93e"/>
        <g id="Grupo_107301" data-name="Grupo 107301" transform="translate(13.974 17.84)">
          <path id="Trazado_149630" data-name="Trazado 149630" d="M975.28,1461.172a28.124,28.124,0,0,1-7.822-1.116,27.838,27.838,0,1,1,7.822,1.116Zm-.085-55.262A27.246,27.246,0,1,0,999.1,1420,27.083,27.083,0,0,0,975.194,1405.91Z" transform="translate(-947.222 -1405.155)" fill="#ffa412"/>
        </g>
        <g id="Grupo_107302" data-name="Grupo 107302" transform="translate(28.868 25.288)">
          <path id="Trazado_149631" data-name="Trazado 149631" d="M1034.907,1458.824c-.061-.154-.127-.3-.194-.449a8.2,8.2,0,0,0-1.9-2.708,8.478,8.478,0,0,0-2.984-1.756,14.3,14.3,0,0,0-3.791-.712q-2.093-.128-4.554-.059a22,22,0,0,1-2.6-.053,6.521,6.521,0,0,1-1.83-.4,3.207,3.207,0,0,1-1.222-.828,4.356,4.356,0,0,1-.777-1.281,4.751,4.751,0,0,1-.353-1.5,3.223,3.223,0,0,1,.222-1.413,3.452,3.452,0,0,1,.872-1.235,5.086,5.086,0,0,1,1.594-.97,4.024,4.024,0,0,1,3.414.032,5.794,5.794,0,0,1,2.581,3.231l6.367-2.585a11.9,11.9,0,0,0-2.084-3.457,8.931,8.931,0,0,0-6.242-3.079,11.787,11.787,0,0,0-3.843.393l-1.8-4.441-3.525,1.431,1.778,4.379a13.213,13.213,0,0,0-3.236,2.3,9.891,9.891,0,0,0-2.039,2.843,7.917,7.917,0,0,0-.749,3.212,9.41,9.41,0,0,0,2.77,6.6,8.334,8.334,0,0,0,2.98,1.746,14.118,14.118,0,0,0,3.794.688,44.78,44.78,0,0,0,4.566,0,16.839,16.839,0,0,1,2.483.017,6.479,6.479,0,0,1,1.82.4,3.443,3.443,0,0,1,1.275.865,4.691,4.691,0,0,1,.857,1.416,3.918,3.918,0,0,1,.3,1.509,3.219,3.219,0,0,1-.34,1.438,4.057,4.057,0,0,1-1.011,1.269,6.127,6.127,0,0,1-1.71,1,7.356,7.356,0,0,1-1.869.485,4.265,4.265,0,0,1-1.885-.189,4.377,4.377,0,0,1-1.721-1.113,6.76,6.76,0,0,1-1.393-2.259l-6.366,2.585a10.985,10.985,0,0,0,2.5,3.893,9.037,9.037,0,0,0,3.3,2.058,10.089,10.089,0,0,0,3.748.54,15.9,15.9,0,0,0,3.861-.638l1.644,4.052,3.5-1.422-1.653-4.071a14.237,14.237,0,0,0,3.269-2.282,9.645,9.645,0,0,0,1.973-2.576c.038-.074.076-.149.112-.224a7.826,7.826,0,0,0,.768-3.2A8.6,8.6,0,0,0,1034.907,1458.824Z" transform="translate(-1008.01 -1435.551)" fill="#ffa412"/>
        </g>
      </g>
    </g>
    <g id="Grupo_107305" data-name="Grupo 107305" transform="translate(220.801 290.883)">
      <path id="Trazado_149632" data-name="Trazado 149632" d="M638.636,1036.036s-.529-5.26,2.221-5.079,3.479,1.441,3.172,2.452-2.982,4.355-2.982,4.355Z" transform="translate(-572.536 -1000.856)" fill="#ffb27d"/>
      <path id="Trazado_149633" data-name="Trazado 149633" d="M463.836,1059.677a44.915,44.915,0,0,0,9.593,7.707c.62.392,1.269.787,1.953,1.184a72.549,72.549,0,0,0,8.97,4.414c.379.156.825.328,1.325.507,3.924,1.417,11.144,3.427,15.619,3.606.389.015.759.015,1.1,0,6.81-.275,7.64-26.706,7.64-26.706s-.759-2.645-4.257-1.978c0,0-5.313,14.927-7.217,16.144-1.691,1.082-11.413-13.655-19.781-14.686C473.15,1049.177,463.836,1059.677,463.836,1059.677Z" transform="translate(-440.595 -1013.956)" fill="#739af0"/>
      <path id="Trazado_149634" data-name="Trazado 149634" d="M538.192,1613.137s-.5,5.818.727,6.424l15.74-.032s0-1.816-2.528-2.22-6.969-1.884-7.721-5.181S538.192,1613.137,538.192,1613.137Z" transform="translate(-496.656 -1438.697)" fill="#132642"/>
      <path id="Trazado_149635" data-name="Trazado 149635" d="M524,1277.2c-.078,3.805-.261,7.729-.619,11.256-1.7,16.736-2.3,36.957-2.542,40.855-.423,6.767-1.76,17.579-1.76,17.579s-2.652,2.517-7.82,1.316a175.985,175.985,0,0,1-5.239-31.969c-.015-.269-.03-.539-.043-.81-.111-2.168-.227-4.646-.345-7.319-.788-17.9-1.643-44.5-1.643-44.5l19.752-4.638S524.2,1267.719,524,1277.2Z" transform="translate(-470.912 -1173.012)" fill="#2a4e96"/>
      <path id="Trazado_149636" data-name="Trazado 149636" d="M524,1277.2c-5.006,8.636-14.547,24.548-18.369,30.909-.788-17.9-1.643-44.5-1.643-44.5l19.752-4.638S524.2,1267.719,524,1277.2Z" transform="translate(-470.912 -1173.012)" fill="#233862"/>
      <path id="Trazado_149637" data-name="Trazado 149637" d="M550.912,1130.772c3.924,1.417,11.144,3.427,15.619,3.606-.685-.128-5.667-1.115-7.509-3.34-1.979-2.391-5.311-8.886-7.961-6.236C549.813,1126.051,550.18,1128.517,550.912,1130.772Z" transform="translate(-505.83 -1071.24)" fill="#6385db"/>
      <path id="Trazado_149638" data-name="Trazado 149638" d="M414.3,1320.976s-1.226,4.807-1.025,5.876a21.014,21.014,0,0,0,2.144,5.584c.746.9.777-3.9,1.273-4.656s.227,1.792.625,2,1.061-1.928,1.356-2.686-1.061-3.394-1.186-5.285S414.3,1320.976,414.3,1320.976Z" transform="translate(-402.402 -1219.597)" fill="#ffb27d"/>
      <path id="Trazado_149639" data-name="Trazado 149639" d="M371.307,1589.356s-2.8,2.556-2.255,4.373,3.075,3.028,3.416,5.248,1.708,3.431,2.938,3.431h5.864s.905-1.562-1.281-2.033-3.011-3.08-2.874-5.5a42.67,42.67,0,0,0-.205-5.651l-4.646-1.076Z" transform="translate(-368.981 -1421.528)" fill="#132642"/>
      <path id="Trazado_149640" data-name="Trazado 149640" d="M425.866,1261.038s-18.49,39.561-28.329,56.92-12.914,22.2-12.914,22.2-5.637-2.22-6.15-3.734c0,0,3.763-33.511,10.352-41.68,3.723-4.616,8.1-18.469,8.3-23.313s4.525-16.406,4.525-16.406Z" transform="translate(-376.147 -1170.029)" fill="#2a4e96"/>
      <path id="Trazado_149641" data-name="Trazado 149641" d="M469.768,1104.379a32.044,32.044,0,0,1-16.251,8.437c-4.49.859-13.6,1.69-15.865-1.507-.531-.75-.536-1.861-.418-3.6.3-4.51,1.439-13.228-3.683-30.747a29.876,29.876,0,0,1-.984-4.683c-1.118-8.963-1-15.729,6.78-19.344,11.651-5.416,16.434-.96,16.434-.96s6.2,2.9,9.029,11.335C470.472,1080.194,469.768,1104.379,469.768,1104.379Z" transform="translate(-416.604 -1015.428)" fill="#739af0"/>
      <path id="Trazado_149642" data-name="Trazado 149642" d="M489.618,1019.248a8.65,8.65,0,0,0,8.7.57c.253-.126.222-1.867.158-3.576-.063-1.678-.221-3.323-.221-3.323l-4.146-2.722-3.956-2.6C490.63,1016.526,488.731,1018.615,489.618,1019.248Z" transform="translate(-459.88 -983.226)" fill="#ffb27d"/>
      <path id="Trazado_149643" data-name="Trazado 149643" d="M495.393,1019.282a12.739,12.739,0,0,0,7.627,4.955c-.063-1.678-.242-3.525-.242-3.525l-4.125-2.52Z" transform="translate(-464.42 -991.222)" fill="#ed985f"/>
      <path id="Trazado_149644" data-name="Trazado 149644" d="M495.016,974.944s-10.03,3.743-12.262-2.437-5.03-9.859,1.28-12.51,8.412-.739,9.667,1.142S497.567,973.811,495.016,974.944Z" transform="translate(-452.924 -946.301)" fill="#ffb27d"/>
      <path id="Trazado_149645" data-name="Trazado 149645" d="M462.643,948.144c-.116-.089-.35-.133-.838-.064a2,2,0,0,1,.852-.432,2.476,2.476,0,0,1,1.19-2.468,1.478,1.478,0,0,0-.5,1.184c1.068-1.639,3.738-3.207,11.806-4.149,10.632-1.242,8.506,6.143,7.309,7.209s-5.042-.45-7.528.249-2.245,4.443-3,5.113-.6-.282-1.858-.577-.994,1.647-.412,2.83-.686,3.144-.686,3.144l-1.952-1.415c-1.952-1.415-4.918-8.457-4.5-10.167C462.568,948.45,462.6,948.3,462.643,948.144Z" transform="translate(-439.062 -933.753)" fill="#2c3a64"/>
      <path id="Trazado_149646" data-name="Trazado 149646" d="M438.8,1174.588c.3-4.51,1.439-13.228-3.683-30.747a29.894,29.894,0,0,1-.984-4.683h0c3.8-1.255,10.738,1.536,10.738,1.536S446.5,1163.852,438.8,1174.588Z" transform="translate(-418.171 -1082.304)" fill="#6385db"/>
      <path id="Trazado_149647" data-name="Trazado 149647" d="M411,1065.99s-4.682,1.7-7.668,14.1c-1.973,8.19-5.606,20.229-6.015,24.011s4.153,25.931,4.153,25.931a2.969,2.969,0,0,0,2.22.154,3.664,3.664,0,0,0,2.211-1.322s1.091-14.762.809-21.732c-.117-2.9,13.405-21.207,20.7-23.566C430.278,1082.637,411,1065.99,411,1065.99Z" transform="translate(-390.354 -1027.309)" fill="#739af0"/>
      <path id="Trazado_149648" data-name="Trazado 149648" d="M620.164,931.869a155.746,155.746,0,0,0-29.148,2.49l-1.632-4.111-1.789-4.5s15.676-6.749,25.1-16.147Z" transform="translate(-534.032 -909.233)" fill="#aec3ff"/>
      <path id="Trazado_149649" data-name="Trazado 149649" d="M689.164,908.261l7.769,22.934h0a2.068,2.068,0,0,0,1.361-2.674l-6.838-19.269a1.7,1.7,0,0,0-2.293-.991Z" transform="translate(-610.715 -908.116)" fill="#f99746"/>
      <path id="Trazado_149650" data-name="Trazado 149650" d="M640.33,1011.831h0a2.809,2.809,0,0,1-3.3-2.2l-2.675-13.385a2.809,2.809,0,0,1,2.2-3.3h0a2.809,2.809,0,0,1,3.3,2.2l2.675,13.385A2.809,2.809,0,0,1,640.33,1011.831Z" transform="translate(-569.297 -972.126)" fill="#f99746"/>
      <path id="Trazado_149651" data-name="Trazado 149651" d="M625.675,992.389a155.747,155.747,0,0,0-29.148,2.49l-1.631-4.111C609.569,987.772,625.675,992.389,625.675,992.389Z" transform="translate(-539.544 -969.754)" fill="#739af0"/>
      <path id="Trazado_149652" data-name="Trazado 149652" d="M588.47,976.09l-4.228.744c.065,0-3.928.777-5.236-2.761a2.886,2.886,0,0,1-.251-.764c-1.017-4.41,1.4-5.223,1.4-5.223l5.441-2.12,1.729,6.119v.021Z" transform="translate(-527.169 -951.791)" fill="#f99746"/>
      <path id="Trazado_149653" data-name="Trazado 149653" d="M590.012,994.944l-4.228.744c.065,0-3.928.777-5.236-2.761,2.392-1.74,8.324-1.989,8.324-1.989v.021Z" transform="translate(-528.71 -970.645)" fill="#ed7d2b"/>
      <path id="Trazado_149654" data-name="Trazado 149654" d="M652.073,1016.907s-2.069.824-1.69,1.735,3.01,2.164,3.425,1.445S653.375,1016.139,652.073,1016.907Z" transform="translate(-581.401 -990.163)" fill="#ffb27d"/>
      <path id="Trazado_149655" data-name="Trazado 149655" d="M637.167,1033.268a29.059,29.059,0,0,1-.415-3.089c-.024-.972-.139-1.766.09-1.793s.395.151.488.464.452,2.252.452,2.252l-.18,1.871Z" transform="translate(-571.107 -998.916)" fill="#ffb27d"/>
    </g>
    <g id="Grupo_107308" data-name="Grupo 107308" transform="translate(500.542 99.575)">
      <g id="Grupo_107306" data-name="Grupo 107306">
        <path id="Trazado_149656" data-name="Trazado 149656" d="M1501.645,475.105a17.337,17.337,0,1,1,17.337,17.337A17.336,17.336,0,0,1,1501.645,475.105Z" transform="translate(-1501.645 -457.769)" fill="#aec3ff"/>
      </g>
      <g id="Grupo_107307" data-name="Grupo 107307" transform="translate(7.599 4.817)">
        <path id="Trazado_149657" data-name="Trazado 149657" d="M1549.692,482.992a5.564,5.564,0,1,1,5.565,5.565A5.564,5.564,0,0,1,1549.692,482.992Z" transform="translate(-1545.519 -477.428)" fill="#739af0"/>
        <path id="Trazado_149658" data-name="Trazado 149658" d="M1542.4,522.849a9.737,9.737,0,0,0-9.738,9.738h19.475A9.737,9.737,0,0,0,1542.4,522.849Z" transform="translate(-1532.66 -511.72)" fill="#739af0"/>
      </g>
    </g>
    <g id="Grupo_107311" data-name="Grupo 107311" transform="translate(482.058 55.683)">
      <g id="Grupo_107309" data-name="Grupo 107309" transform="translate(0 -64)">
        <circle id="Elipse_5054" data-name="Elipse 5054" cx="30.025" cy="30.025" r="30.025" transform="translate(0 42.462) rotate(-45)" fill="#aec3ff"/>
      </g>
      <g id="Grupo_107310" data-name="Grupo 107310" transform="translate(25.597 -43.221)">
        <path id="Trazado_149659" data-name="Trazado 149659" d="M1539.734,185.017a9.637,9.637,0,1,1,9.637,9.637A9.637,9.637,0,0,1,1539.734,185.017Z" transform="translate(-1532.506 -175.38)" fill="#739af0"/>
        <path id="Trazado_149660" data-name="Trazado 149660" d="M1527.1,254.043a16.865,16.865,0,0,0-16.865,16.864h33.729A16.865,16.865,0,0,0,1527.1,254.043Z" transform="translate(-1510.235 -234.769)" fill="#739af0"/>
      </g>
    </g>
    <g id="Grupo_107314" data-name="Grupo 107314" transform="translate(561.003 80.856)">
      <g id="Grupo_107312" data-name="Grupo 107312">
        <circle id="Elipse_5055" data-name="Elipse 5055" cx="18.719" cy="18.719" r="18.719" fill="#aec3ff"/>
      </g>
      <g id="Grupo_107313" data-name="Grupo 107313" transform="translate(6.991 4.258)">
        <path id="Trazado_149661" data-name="Trazado 149661" d="M1730,372.421a6.008,6.008,0,1,1,6.009,6.008A6.009,6.009,0,0,1,1730,372.421Z" transform="translate(-1725.491 -366.413)" fill="#739af0"/>
        <path id="Trazado_149662" data-name="Trazado 149662" d="M1722.12,415.456a10.514,10.514,0,0,0-10.515,10.514h21.028A10.514,10.514,0,0,0,1722.12,415.456Z" transform="translate(-1711.606 -403.44)" fill="#739af0"/>
      </g>
    </g>
    <g id="Grupo_107319" data-name="Grupo 107319" transform="translate(606.829 334.196)">
      <g id="Grupo_107317" data-name="Grupo 107317" transform="translate(0 79.02)">
        <path id="Trazado_149663" data-name="Trazado 149663" d="M1958.594,1461.8q.542.331,1.1.64.19.105.38.205.434.231.869.447a29.34,29.34,0,0,0,27.079-52.041q-.564-.311-1.137-.594-.555-.277-1.118-.527a29.315,29.315,0,0,0-8.807-2.368,29.345,29.345,0,0,0-18.369,54.238Z" transform="translate(-1944.515 -1407.404)" fill="#ffb93e"/>
        <g id="Grupo_107315" data-name="Grupo 107315" transform="translate(2.512 2.983)">
          <path id="Trazado_149664" data-name="Trazado 149664" d="M1968.558,1469.6a26.682,26.682,0,1,1,12.83,3.309A26.7,26.7,0,0,1,1968.558,1469.6Zm-9.193-35.521a25.21,25.21,0,1,0,22.11-13.03A25.227,25.227,0,0,0,1959.365,1434.081Z" transform="translate(-1954.767 -1419.58)" fill="#ffa412"/>
        </g>
        <g id="Grupo_107316" data-name="Grupo 107316" transform="translate(15.603 10.356)">
          <path id="Trazado_149665" data-name="Trazado 149665" d="M2008.2,1474.79a7.349,7.349,0,0,0,.72,3c.034.071.069.141.1.211a9.061,9.061,0,0,0,1.853,2.418,13.339,13.339,0,0,0,3.068,2.142l-1.552,3.822,3.288,1.335,1.543-3.8a14.922,14.922,0,0,0,3.625.6,9.47,9.47,0,0,0,3.518-.507,8.492,8.492,0,0,0,3.1-1.931,10.323,10.323,0,0,0,2.351-3.654l-5.976-2.427a6.348,6.348,0,0,1-1.307,2.121,4.114,4.114,0,0,1-1.616,1.045,4,4,0,0,1-1.77.177,6.9,6.9,0,0,1-1.754-.455,5.745,5.745,0,0,1-1.6-.942,3.808,3.808,0,0,1-.949-1.192,3.025,3.025,0,0,1-.319-1.349,3.682,3.682,0,0,1,.286-1.417,4.4,4.4,0,0,1,.8-1.329,3.235,3.235,0,0,1,1.2-.812,6.1,6.1,0,0,1,1.708-.38,15.913,15.913,0,0,1,2.332-.015,41.935,41.935,0,0,0,4.286,0,13.229,13.229,0,0,0,3.562-.646,7.826,7.826,0,0,0,2.8-1.639,8.834,8.834,0,0,0,2.6-6.194,7.433,7.433,0,0,0-.7-3.016,9.284,9.284,0,0,0-1.915-2.669,12.4,12.4,0,0,0-3.037-2.161l1.669-4.111-3.309-1.343-1.693,4.169a11.066,11.066,0,0,0-3.607-.369,8.38,8.38,0,0,0-5.859,2.891,11.179,11.179,0,0,0-1.957,3.245l5.978,2.427a5.438,5.438,0,0,1,2.423-3.033,3.778,3.778,0,0,1,3.205-.03,4.779,4.779,0,0,1,1.5.911,3.248,3.248,0,0,1,.818,1.159,3.025,3.025,0,0,1,.209,1.327,4.459,4.459,0,0,1-.332,1.41,4.089,4.089,0,0,1-.729,1.2,3.012,3.012,0,0,1-1.147.777,6.108,6.108,0,0,1-1.718.376,20.589,20.589,0,0,1-2.441.05q-2.31-.065-4.275.055a13.4,13.4,0,0,0-3.559.669,7.954,7.954,0,0,0-2.8,1.648,7.712,7.712,0,0,0-1.78,2.542c-.062.138-.124.277-.182.422A8.075,8.075,0,0,0,2008.2,1474.79Z" transform="translate(-2008.196 -1449.67)" fill="#ffa412"/>
        </g>
      </g>
      <g id="Grupo_107318" data-name="Grupo 107318" transform="translate(31.678)">
        <path id="Trazado_149666" data-name="Trazado 149666" d="M2130.125,1105.306c-.089-.36,7.814,3.572,8.216,4.017,3.707,4.112,2.65,9.478.529,9.529-1.36.033-1.1,2.295-1.1,2.295l-15.155-6.411S2124.442,1104.1,2130.125,1105.306Z" transform="translate(-2110.658 -1100.232)" fill="#2c3a64"/>
        <path id="Trazado_149667" data-name="Trazado 149667" d="M2145.609,1090.8s-.542-5.9,6.055-5.9a7.742,7.742,0,0,0-3.033,1.626s4.208-2.47,8.786,1.326,1.734,13.314,3.126,15.121,6.814,2.169,6.152,8.012-17.208,13.163-16.145,18c0,0-6.484-9.531-1.847-13.881a8.59,8.59,0,0,0-2.49,4.659s-.614-4.94,2.53-6.52c2.781-1.4,5.06-6.512,4.819-7.426S2145.609,1090.8,2145.609,1090.8Z" transform="translate(-2128.008 -1084.893)" fill="#2c3a64"/>
        <path id="Trazado_149668" data-name="Trazado 149668" d="M2119.121,1207.851a5.857,5.857,0,0,1,10.374-2.417,5.307,5.307,0,0,1,1.044,2.573c.686,5.56-8.2,28.206-9.477,30.257-2.318,3.733-15.966,16.53-15.966,16.53l-2.515-1.524s9.681-16.389,11.18-17.922C2115.494,1233.575,2117.19,1217.152,2119.121,1207.851Z" transform="translate(-2095.531 -1174.172)" fill="#ed985f"/>
        <path id="Trazado_149669" data-name="Trazado 149669" d="M2084.328,1400.782s-3.671-2.41-5.061-2.255-5.412,1.313-5.461,1.9,4.482.96,4.786,1.284,3.381,2.377,4.5,1.733S2084.328,1400.782,2084.328,1400.782Z" transform="translate(-2073.806 -1321.676)" fill="#ed985f"/>
        <path id="Trazado_149670" data-name="Trazado 149670" d="M2221.265,1374.975l3.279-.482a38.772,38.772,0,0,0,12.669-25.114,29.211,29.211,0,0,0,.078-5.056.882.882,0,0,1,.115-.558s0,0,0-.005c.353-.541,1.232-1.9,2.421-3.824,1.172-1.9,3.178-5.489,5.386-9.518,3.976-7.256,8.6-15.933,10.193-18.7,5.059-8.809,2.62-14.732,2.62-14.732s-14.114-1.4-17.982-4.779l-1.393,2.147s-3.058,13.538-2.914,13.6l-.459,1.406a235.563,235.563,0,0,0-6.7,24.341,40.259,40.259,0,0,0-1.059,10.516,18.4,18.4,0,0,1-.249,3.852C2225.906,1357.788,2221.265,1374.975,2221.265,1374.975Z" transform="translate(-2185.135 -1241.414)" fill="#2b478b"/>
        <path id="Trazado_149671" data-name="Trazado 149671" d="M2193.188,1623.483h13.682a7.513,7.513,0,0,0-.387-3.667c-.685-1.518-1.661-1.567-.125-3.946-.869.9-3.665,1.265-5.642,1-.242.393-1.562,3.029-2.372,3.611C2197.45,1621.123,2193.463,1620.894,2193.188,1623.483Z" transform="translate(-2163.938 -1485.773)" fill="#1a2d4c"/>
        <path id="Trazado_149672" data-name="Trazado 149672" d="M2278.48,1309.363c1.2,6.592,4.018,17.563,9.933,21.054,3.976-7.256,8.606-15.933,10.193-18.7,5.059-8.809,2.621-14.732,2.621-14.732s-14.114-1.4-17.982-4.779l-1.393,2.147s-3.057,13.538-2.913,13.6Q2278.713,1308.647,2278.48,1309.363Z" transform="translate(-2228.332 -1241.414)" fill="#233862"/>
        <path id="Trazado_149673" data-name="Trazado 149673" d="M2167.378,1209.949a14.642,14.642,0,0,0-2.818,4.421s3.086,8.862,10.3,9.974C2174.859,1224.344,2169.152,1209.946,2167.378,1209.949Z" transform="translate(-2142.324 -1179.308)" fill="#ed7d2b"/>
        <path id="Trazado_149674" data-name="Trazado 149674" d="M2317.5,1289.207l-.046-2.559c5.1.643,17.58-6.093,17.58-6.093s5.334,3.548,6.064,13.68c.357,4.945,2.611,25.859,2.861,32.1.091,2.263.121,3.879.131,4.524,0,0,0,0,0,.006a.888.888,0,0,0,.217.527,29.244,29.244,0,0,1,2.763,4.235c7.78,14.475,3.712,34.144,3.712,34.144l-1.807-.459s-6.579-20.39-10.878-29.21a18.443,18.443,0,0,0-1.947-3.333,40.2,40.2,0,0,1-5-9.311,243.423,243.423,0,0,1-8.459-25.35C2322.537,1302.14,2317.5,1289.207,2317.5,1289.207Z" transform="translate(-2257.759 -1232.615)" fill="#2b478b"/>
        <path id="Trazado_149675" data-name="Trazado 149675" d="M2168.572,1185.63c8.335-1.913,3.01-13.625,2.527-13.419-1.155-.235-3.692-2.263-5.96-6.224l-.307.266-5.119,4.488s1.183,1.746,2.178,3.456c.778,1.339,1.439,2.658,1.334,3.11C2162.813,1177.631,2166.348,1186.141,2168.572,1185.63Z" transform="translate(-2138.665 -1146.118)" fill="#ffb27d"/>
        <path id="Trazado_149676" data-name="Trazado 149676" d="M2159.713,1171.566s1.184,1.744,2.178,3.456c3.183-1.962,3.187-5.9,2.941-7.944Z" transform="translate(-2138.665 -1146.941)" fill="#ed985f"/>
        <path id="Trazado_149677" data-name="Trazado 149677" d="M2133.415,1145.617s7.728-4.3,4.976-9.072-3.608-8.54-8.659-6-4.951,4.913-4.42,6.729S2131.334,1146.613,2133.415,1145.617Z" transform="translate(-2112.509 -1118.744)" fill="#ffb27d"/>
        <path id="Trazado_149678" data-name="Trazado 149678" d="M2120.58,1132.5c.354-2.119,1.43-2.321,2.18-2.179a6.181,6.181,0,0,1,7.517-2.878,10.523,10.523,0,0,0,6.091,3.658s-.9,1.669-4.592,2.7a6.315,6.315,0,0,1-3.645-.291,20.628,20.628,0,0,0,5.244,1.977c-4.869.446-9.5-4.006-9.983-4.482a6.932,6.932,0,0,0-.383,3.19c.321,1.435,1.594,4.034.817,4.37C2123.827,1138.57,2120.048,1135.681,2120.58,1132.5Z" transform="translate(-2109.081 -1116.753)" fill="#2c3a64"/>
        <path id="Trazado_149679" data-name="Trazado 149679" d="M2409.069,1623.179h13.683a7.518,7.518,0,0,0-.387-3.667c-.685-1.518-1.757-2.208-1.5-4.045a4.926,4.926,0,0,1-4.264,1.631,15.019,15.019,0,0,1-2.374,3.078C2413.332,1620.818,2409.344,1620.59,2409.069,1623.179Z" transform="translate(-2326.925 -1485.469)" fill="#1a2d4c"/>
        <path id="Trazado_149680" data-name="Trazado 149680" d="M2177.995,1207.126a33.275,33.275,0,0,0,6.76,1.225c3.6.392,7.312.661,9.258,1.438a2.09,2.09,0,0,1,1.333,1.079c.844,2.537,4.56,6.45,4.56,6.45,23.825-1.084,26.441-11.05,26.441-11.05-16.03-18.639-43.171-24.035-43.171-24.035s-1.939-.822-6.821,3.058c-3.258,2.59-2.829,3.584-2.829,3.584S2172.814,1205.319,2177.995,1207.126Z" transform="translate(-2149.068 -1158.329)" fill="#f99746"/>
        <path id="Trazado_149681" data-name="Trazado 149681" d="M2219.455,1229.33c3.6.393,7.312.661,9.258,1.438a37.945,37.945,0,0,0-4.812-20.821S2220.243,1224.833,2219.455,1229.33Z" transform="translate(-2183.769 -1179.307)" fill="#ed7d2b"/>
        <path id="Trazado_149682" data-name="Trazado 149682" d="M2143.571,1200.565s9.017.891,9.74,6.75-8.645,29.724-9.987,31.885c-2.443,3.934-16.824,17.419-16.824,17.419l-2.651-1.607s10.2-17.27,11.781-18.886C2138.11,1233.588,2140.518,1202.594,2143.571,1200.565Z" transform="translate(-2111.588 -1172.224)" fill="#ffb27d"/>
        <path id="Trazado_149683" data-name="Trazado 149683" d="M2200.689,1206.512c-.024.133-8.322,2.711-13.662,0,0,0-1.143-12.321,5.233-11.653s10.151,2.677,10.311,5.729A10.784,10.784,0,0,1,2200.689,1206.512Z" transform="translate(-2159.226 -1167.896)" fill="#f99746"/>
        <path id="Trazado_149684" data-name="Trazado 149684" d="M2106.177,1412.958s-3.235-2.97-4.632-3.041-5.552.423-5.7,1,4.269,1.67,4.517,2.038,2.953,2.891,4.158,2.435S2106.177,1412.958,2106.177,1412.958Z" transform="translate(-2090.446 -1330.276)" fill="#ffb27d"/>
      </g>
    </g>
    <g id="Grupo_107320" data-name="Grupo 107320" transform="translate(285.026 269.293)">
      <path id="Trazado_149685" data-name="Trazado 149685" d="M846.1,1024.217h0a2.776,2.776,0,0,0,2.526-1.756l64.916-199.438a1.311,1.311,0,0,0-1.376-1.778h0A2.775,2.775,0,0,0,909.641,823l-64.916,199.438A1.311,1.311,0,0,0,846.1,1024.217Z" transform="translate(-792.324 -820.939)" fill="#233862"/>
      <path id="Trazado_149686" data-name="Trazado 149686" d="M632.57,1022.97h0a2.776,2.776,0,0,0,2.526-1.756l64.916-199.438A1.311,1.311,0,0,0,698.637,820h0a2.775,2.775,0,0,0-2.526,1.755l-64.916,199.438A1.311,1.311,0,0,0,632.57,1022.97Z" transform="translate(-631.111 -819.998)" fill="#233862"/>
      <path id="Trazado_149687" data-name="Trazado 149687" d="M862.74,930.4l52.537.307a2.629,2.629,0,0,0,2.385-1.657h0a1.24,1.24,0,0,0-1.3-1.679l-52.537-.307a2.629,2.629,0,0,0-2.384,1.658h0A1.24,1.24,0,0,0,862.74,930.4Z" transform="translate(-804.948 -900.828)" fill="#233862"/>
      <path id="Trazado_149688" data-name="Trazado 149688" d="M816.48,1072.516l52.537.307a2.63,2.63,0,0,0,2.384-1.657h0a1.24,1.24,0,0,0-1.3-1.679l-52.537-.307a2.629,2.629,0,0,0-2.385,1.657h0A1.24,1.24,0,0,0,816.48,1072.516Z" transform="translate(-770.022 -1008.127)" fill="#233862"/>
      <path id="Trazado_149689" data-name="Trazado 149689" d="M771.928,1209.393l52.537.307a2.63,2.63,0,0,0,2.385-1.657h0a1.24,1.24,0,0,0-1.3-1.679l-52.537-.307a2.63,2.63,0,0,0-2.384,1.657h0A1.24,1.24,0,0,0,771.928,1209.393Z" transform="translate(-736.386 -1111.467)" fill="#233862"/>
      <path id="Trazado_149690" data-name="Trazado 149690" d="M721.771,1363.487l52.537.307a2.629,2.629,0,0,0,2.384-1.657h0a1.24,1.24,0,0,0-1.3-1.679l-52.537-.307a2.63,2.63,0,0,0-2.385,1.657h0A1.241,1.241,0,0,0,721.771,1363.487Z" transform="translate(-698.518 -1227.806)" fill="#233862"/>
      <path id="Trazado_149691" data-name="Trazado 149691" d="M669.274,1524.774l52.537.307a2.629,2.629,0,0,0,2.385-1.658h0a1.24,1.24,0,0,0-1.3-1.679l-52.537-.307a2.628,2.628,0,0,0-2.385,1.657h0A1.24,1.24,0,0,0,669.274,1524.774Z" transform="translate(-658.884 -1349.575)" fill="#233862"/>
    </g>
    <rect id="Rectángulo_35401" data-name="Rectángulo 35401" width="608" height="1.752" rx="0.876" transform="translate(172.712 471.507)" fill="#233862"/>
    <g id="Grupo_107326" data-name="Grupo 107326" transform="translate(339.121 118.294)">
      <g id="Grupo_107323" data-name="Grupo 107323" transform="translate(90.846 23.553)">
        <g id="Grupo_107321" data-name="Grupo 107321">
          <path id="Trazado_149692" data-name="Trazado 149692" d="M1193.906,474.768a26.319,26.319,0,1,1,31.778,19.378A26.318,26.318,0,0,1,1193.906,474.768Z" transform="translate(-1193.159 -442.243)" fill="#aec3ff"/>
        </g>
        <g id="Grupo_107322" data-name="Grupo 107322" transform="translate(14.524 7.614)">
          <path id="Trazado_149693" data-name="Trazado 149693" d="M1256.2,483.756a8.447,8.447,0,1,1,10.2,6.22A8.447,8.447,0,0,1,1256.2,483.756Z" transform="translate(-1255.1 -473.318)" fill="#739af0"/>
          <path id="Trazado_149694" data-name="Trazado 149694" d="M1263.74,540.015a14.782,14.782,0,0,0-10.884,17.849l28.733-6.964A14.782,14.782,0,0,0,1263.74,540.015Z" transform="translate(-1252.436 -523.356)" fill="#739af0"/>
        </g>
      </g>
      <g id="Grupo_107325" data-name="Grupo 107325" transform="translate(0 0)">
        <path id="Trazado_149695" data-name="Trazado 149695" d="M859.321,665.108a27.358,27.358,0,0,0-1.221,4.2c-.14.946.169,3.308-1.146,3.575-1.408.286-2.067-4.217-1.91-4.963.173-.819.678-3.649,1.593-3.853S859.321,665.108,859.321,665.108Z" transform="translate(-847.024 -586.149)" fill="#ffb27d"/>
        <path id="Trazado_149696" data-name="Trazado 149696" d="M867.914,669.656a15.523,15.523,0,0,1,.549,2.592c0,.7.418,2.769,0,2.9-.549.167-1.494-2.363-1.494-2.363Z" transform="translate(-856.044 -590.384)" fill="#ffb27d"/>
        <path id="Trazado_149697" data-name="Trazado 149697" d="M1188.844,575.483c-1.485.925-1.054.372-3.118,1.716s-4.594,1.689-6.1.746l-.92-.153-1.106-.186-.252-3.335s.678-.08,1.525-.2c.257-.037.532-.08.805-.127.527-.374,1.452-1.267,2.135-1.656l.22.942a9.946,9.946,0,0,1,5.719-.185,2.171,2.171,0,0,1,1.431.942A.96.96,0,0,1,1188.844,575.483Z" transform="translate(-1090.372 -516.868)" fill="#ffb27d"/>
        <path id="Trazado_149698" data-name="Trazado 149698" d="M970.09,432.048s4.778,5.669,10.862,3.3a18.431,18.431,0,0,0,1.328-5.5c0-.287.006-.566.01-.83.033-2.628.121-4.1.121-4.1h-.006c-.277-.116-9.3-3.821-9.294-3.513C973.266,428.507,970.09,432.048,970.09,432.048Z" transform="translate(-933.899 -402.939)" fill="#ffb27d"/>
        <path id="Trazado_149699" data-name="Trazado 149699" d="M986.1,428.168a14.114,14.114,0,0,0,8.273,5.922c.033-2.628.121-4.1.121-4.1h-.006C994.239,429.919,985.842,427.692,986.1,428.168Z" transform="translate(-945.983 -408.013)" fill="#ed975d"/>
        <path id="Trazado_149700" data-name="Trazado 149700" d="M987.8,383.14s-10.149,2.386-11.538-3.957-3.634-10.308,2.787-12.1,8.215.352,9.193,2.357S990.4,382.355,987.8,383.14Z" transform="translate(-937.396 -361.439)" fill="#ffb27d"/>
        <path id="Trazado_149701" data-name="Trazado 149701" d="M960.669,365.586c-.138.089-2.323.76-6.458-7.479a7.175,7.175,0,0,1,.422-6.563c1.513-2.472,6.879-4.416,11.338-5.262s5.529,1.663,6.578,4.184c1.1,2.647,4.285,4.826,4.285,4.826-3.845,2.148-8.475-.924-10.079-.419s-2.171,3.034-2.291,3.844-.305,1.484-2.322.76-.912,2.859-.589,3.544C961.552,363.02,961.826,364.844,960.669,365.586Z" transform="translate(-921.458 -346.114)" fill="#a9453d"/>
        <g id="Grupo_107324" data-name="Grupo 107324" transform="translate(0 77.92)">
          <path id="Trazado_149702" data-name="Trazado 149702" d="M835.258,1022.7h-6.145c-1.288,0-2.72-1.29-3.078-3.652s-3.007-3.651-3.58-5.585,2.363-4.655,2.363-4.655l.491-.631.511-.657,4.868,1.145s.12,1.159.2,2.635a33.616,33.616,0,0,1,.02,3.379c-.143,2.578.722,5.354,3.012,5.855S835.258,1022.7,835.258,1022.7Z" transform="translate(-822.38 -923.384)" fill="#a9453d"/>
          <path id="Trazado_149703" data-name="Trazado 149703" d="M992.219,1042.844H978.774a1.489,1.489,0,0,1-.346-.1c-1.088-.545-.747-4.709-.616-6,.025-.239.043-.378.043-.378s5.728-4.582,6.516-1.073c.025.109.054.217.084.323v0c.995,3.282,5.5,3.339,8.065,3.755.062.01.121.022.18.036A1.748,1.748,0,0,1,992.219,1042.844Z" transform="translate(-939.612 -943.359)" fill="#a9453d"/>
          <path id="Trazado_149704" data-name="Trazado 149704" d="M962.024,683.175s-.87,10.854-1.893,23.9c-1.39,17.723-3.061,39.493-3.227,43.618-.285,7.161-1.432,18.616-1.432,18.616s-2.72,2.722-8.163,1.575a187.416,187.416,0,0,1-6.236-33.655l-.064-.855c-1.289-17.613-3.293-54.7-3.293-54.7Z" transform="translate(-909.458 -677.376)" fill="#f99746"/>
          <path id="Trazado_149705" data-name="Trazado 149705" d="M962.024,683.175s-.87,10.854-1.893,23.9L941.074,737.23l-.064-.855c-1.289-17.613-3.293-54.7-3.293-54.7Z" transform="translate(-909.458 -677.376)" fill="#ed7d2b"/>
          <path id="Trazado_149706" data-name="Trazado 149706" d="M879.065,671.226s-15.68,39.308-25.991,57.781-13.533,23.628-13.533,23.628-5.907-2.363-6.444-3.974c0,0,3.942-35.662,10.847-44.356,3.9-4.913,8.484-19.654,8.7-24.809s1.4-15.358,1.4-15.358Z" transform="translate(-830.472 -664.138)" fill="#f99746"/>
        </g>
        <path id="Trazado_149707" data-name="Trazado 149707" d="M860.659,517.453c1.735.557,2.014.431,2.014.431s8.448-15.38,9.3-16.787,17.936-17.247,17.936-17.247l-4.389-16.367S866.1,492.638,864,496.248c-3.467,5.965-5.5,19.818-5.5,19.818A5.082,5.082,0,0,0,860.659,517.453Z" transform="translate(-849.65 -437.745)" fill="#4662bc"/>
        <path id="Trazado_149708" data-name="Trazado 149708" d="M946.985,479c-.061,3.361-.256,7.139-.519,10.977q-.025.341-.049.683c-.168,2.378-.351,4.76-.561,7.085-.084.931-.174,1.852-.267,2.757l-.014.122c-.007.339-.049.706-.086,1.041-.856,8.7-1.754,15.58-1.92,15.686a.974.974,0,0,1-.668.17c-2.283-.286-9.093.231-14.669-.982a42.278,42.278,0,0,1-13.049-5.411c-.57-.337-1.868-1.229-1.763-1.9.1-.733.3-1.792.539-3.123a169.011,169.011,0,0,0,2.8-21.914q.145-2.6.421-5.137a77.961,77.961,0,0,1,2.274-12.268c1.912-6.884,4.721-12.155,8.245-14.217.46-.258,2.938,1.319,5.214,2.779a10.049,10.049,0,0,0,6.466,1.532l1.894,2.095a21.151,21.151,0,0,1,5.4,11.261c.05.373.093.769.129,1.19A73.98,73.98,0,0,1,946.985,479Z" transform="translate(-891.109 -426.468)" fill="#6980e2"/>
        <path id="Trazado_149709" data-name="Trazado 149709" d="M1002.318,525.279c-.061,3.361-.256,7.139-.519,10.977q-.025.341-.049.683c-13.038-8.161-15.047-23.095-15.047-23.095a35.66,35.66,0,0,1,15.437,3.865A74,74,0,0,1,1002.318,525.279Z" transform="translate(-946.442 -472.748)" fill="#4662bc"/>
        <path id="Trazado_149710" data-name="Trazado 149710" d="M1017.9,504.34c.134-1.934-.867-2.256-.867-2.256s-19.659-3.562-21.33-4.088-15.961-15.391-15.961-15.391-5.477-6.177-9.962-4.813c-3.9,1.185-5.42,4.226-5.939,7.122a8.53,8.53,0,0,0,3.961,8.757c6.708,4.115,20.139,12.222,23.3,13.15,7.04,2.064,25.955.166,25.955.166A6.1,6.1,0,0,0,1017.9,504.34Z" transform="translate(-929.084 -445.381)" fill="#6980e2"/>
      </g>
    </g>
    <g id="Grupo_107327" data-name="Grupo 107327" transform="translate(439.52 190.553)">
      <path id="Trazado_149711" data-name="Trazado 149711" d="M1256.257,658.017l32,74.824h52.18l33.474-74.824Z" transform="translate(-1250.349 -653.854)" fill="#f99746"/>
      <path id="Trazado_149712" data-name="Trazado 149712" d="M1356.2,648.9H1236.084a3.938,3.938,0,0,1-3.938-3.938h0a3.938,3.938,0,0,1,3.938-3.938H1356.2a3.939,3.939,0,0,1,3.938,3.938h0A3.938,3.938,0,0,1,1356.2,648.9Z" transform="translate(-1232.146 -641.028)" fill="#f78248"/>
      <path id="Rectángulo_35402" data-name="Rectángulo 35402" d="M0,0H51.986a0,0,0,0,1,0,0V3.545a22,22,0,0,1-22,22H22a22,22,0,0,1-22-22V0A0,0,0,0,1,0,0Z" transform="translate(37.904 78.987)" fill="#f78248"/>
    </g>
    <path id="Trazado_149713" data-name="Trazado 149713" d="M1633.019,1083.413l4.94-2.678a1.245,1.245,0,0,1,1.3.08q.732.516,1.516.977a20.888,20.888,0,0,0,2.976,1.459,1.228,1.228,0,0,1,.788,1.14l.066,5.872a1.207,1.207,0,0,0,1.125,1.2l5.354.4a1.193,1.193,0,0,0,1.259-.967l.987-5.317a1.2,1.2,0,0,1,1.048-.984,21.71,21.71,0,0,0,6.568-1.926,1.237,1.237,0,0,1,1.47.331l2.091,2.54a1.249,1.249,0,0,0,1.632.249l4.447-2.94a1.1,1.1,0,0,0,.242-.206,1.2,1.2,0,0,0,.16-1.385l-2-3.693-.488-.9a21.4,21.4,0,0,0,1.721-2.5,21.775,21.775,0,0,0,1.723-3.667,1.2,1.2,0,0,1,1.119-.8l4.73-.048a1.241,1.241,0,0,0,1.225-1.15l.31-4.093.086-1.173a1.258,1.258,0,0,0-1.022-1.334l-4.443-.828a1.2,1.2,0,0,1-.987-1.007,21.545,21.545,0,0,0-1.177-4.456,3.8,3.8,0,0,0-.135-.364.66.66,0,0,1-.041-.124,1.226,1.226,0,0,1,.407-1.3l4.116-3.4a.911.911,0,0,0,.129-.123,1.246,1.246,0,0,0,.117-1.5l-2.924-4.438a1.24,1.24,0,0,0-1.624-.407l-5.151,2.8a1.2,1.2,0,0,1-1.352-.133,21.929,21.929,0,0,0-2.737-1.9q-.777-.457-1.575-.841a1.263,1.263,0,0,1-.712-1.123l-.065-5.644a1.205,1.205,0,0,0-1.115-1.189l-5.3-.392a1.26,1.26,0,0,0-1.337,1.028l-.782,4.207a1.238,1.238,0,0,1-1.144,1.013,21.638,21.638,0,0,0-6.533,1.371,1.23,1.23,0,0,1-1.4-.368l-3.067-3.711a1.272,1.272,0,0,0-1.673-.252l-4.423,2.911a1.217,1.217,0,0,0-.4,1.6l.115.217,2.321,4.289a1.244,1.244,0,0,1-.154,1.411l0,0a21.6,21.6,0,0,0-2.218,3.106c-.351.6-.665,1.2-.957,1.82a1.218,1.218,0,0,1-1.1.714l-4.8.049a1.263,1.263,0,0,0-1.248,1.166l-.393,5.275a1.356,1.356,0,0,0,.045.432,1.256,1.256,0,0,0,.962.879l3.551.652a1.254,1.254,0,0,1,.937.8,1.327,1.327,0,0,1,.07.34,21.579,21.579,0,0,0,2.158,8.255,1.209,1.209,0,0,1-.318,1.471l-3.335,2.754a1.235,1.235,0,0,0-.246,1.627l.067.1,2.846,4.328A1.258,1.258,0,0,0,1633.019,1083.413Zm27.168-28.1a14.435,14.435,0,0,1,1.67,2.106,11.341,11.341,0,0,1,1.551,5.985c-.013.191-.031.38-.05.568-1.26,11.452-15.293,14.955-21.773,5.231a11.77,11.77,0,0,1-1.616-5.113,7.709,7.709,0,0,1,0-1.138,13.348,13.348,0,0,1,1.095-4.4A11.64,11.64,0,0,1,1660.188,1055.312Z" transform="translate(-1096.18 -713.415)" fill="#dfebfd"/>
    <path id="Trazado_149714" data-name="Trazado 149714" d="M1651.182,903.269l2.753-1.567a.7.7,0,0,1,.732.03q.418.282.866.533a11.751,11.751,0,0,0,1.695.787.693.693,0,0,1,.457.633l.106,3.308a.68.68,0,0,0,.648.661l3.022.165a.672.672,0,0,0,.7-.559l.494-3.008a.676.676,0,0,1,.579-.567,12.224,12.224,0,0,0,3.679-1.163.7.7,0,0,1,.833.17l1.208,1.407a.7.7,0,0,0,.922.121l2.472-1.709a.626.626,0,0,0,.134-.119.676.676,0,0,0,.074-.782l-1.168-2.058-.286-.5a12.057,12.057,0,0,0,.941-1.43,12.332,12.332,0,0,0,.928-2.087.674.674,0,0,1,.62-.464l2.666-.083a.7.7,0,0,0,.677-.663l.126-2.31.035-.662a.708.708,0,0,0-.592-.74l-2.513-.415a.674.674,0,0,1-.568-.556,12.176,12.176,0,0,0-.716-2.5c-.023-.072-.051-.136-.08-.2a.349.349,0,0,1-.025-.07.69.69,0,0,1,.214-.735l2.28-1.967a.49.49,0,0,0,.071-.071.7.7,0,0,0,.048-.849l-1.7-2.467a.7.7,0,0,0-.92-.21l-2.87,1.635a.675.675,0,0,1-.763-.059,12.378,12.378,0,0,0-1.565-1.04q-.443-.248-.9-.456a.713.713,0,0,1-.415-.625l-.1-3.18a.68.68,0,0,0-.642-.657l-2.99-.159a.71.71,0,0,0-.741.595l-.392,2.38a.7.7,0,0,1-.633.584,12.223,12.223,0,0,0-3.666.849.693.693,0,0,1-.792-.191l-1.772-2.055a.717.717,0,0,0-.946-.122l-2.458,1.693a.685.685,0,0,0-.207.906l.067.121,1.358,2.39a.7.7,0,0,1-.07.8l0,0a12.15,12.15,0,0,0-1.214,1.776c-.191.341-.36.685-.518,1.037a.687.687,0,0,1-.609.415l-2.706.083a.711.711,0,0,0-.689.671l-.16,2.978a.763.763,0,0,0,.03.243.708.708,0,0,0,.553.484l2.009.326a.707.707,0,0,1,.537.44.76.76,0,0,1,.044.191,12.16,12.16,0,0,0,1.313,4.627.684.684,0,0,1-.079.748.7.7,0,0,1-.083.084l-1.847,1.592a.7.7,0,0,0-.119.92l.039.057,1.655,2.406A.709.709,0,0,0,1651.182,903.269Zm14.982-16.155a8.168,8.168,0,0,1,.966,1.168,6.4,6.4,0,0,1,.944,3.355c-.005.108-.013.214-.021.321a6.609,6.609,0,0,1-13.18.341,4.3,4.3,0,0,1-.013-.641,7.513,7.513,0,0,1,.565-2.492A6.561,6.561,0,0,1,1666.164,887.115Z" transform="translate(-1112.461 -593.009)" fill="#aec3ff" opacity="0.5"/>
    <path id="Trazado_149715" data-name="Trazado 149715" d="M1142.438,935.013l4.8-2.6a1.209,1.209,0,0,1,1.26.078q.711.5,1.473.95a20.257,20.257,0,0,0,2.892,1.418,1.194,1.194,0,0,1,.766,1.107l.064,5.706a1.173,1.173,0,0,0,1.093,1.161l5.2.392a1.159,1.159,0,0,0,1.223-.939l.959-5.166a1.163,1.163,0,0,1,1.018-.956,21.1,21.1,0,0,0,6.382-1.872,1.2,1.2,0,0,1,1.428.322l2.032,2.467a1.213,1.213,0,0,0,1.585.242l4.321-2.856a1.059,1.059,0,0,0,.235-.2,1.164,1.164,0,0,0,.156-1.346l-1.939-3.588-.474-.873a20.867,20.867,0,0,0,1.672-2.431,21.15,21.15,0,0,0,1.675-3.563,1.164,1.164,0,0,1,1.087-.778l4.6-.047a1.205,1.205,0,0,0,1.19-1.118l.3-3.977.083-1.14a1.222,1.222,0,0,0-.993-1.3l-4.317-.8a1.162,1.162,0,0,1-.958-.979,20.917,20.917,0,0,0-1.144-4.329,3.685,3.685,0,0,0-.131-.353.666.666,0,0,1-.04-.12,1.191,1.191,0,0,1,.4-1.26l4-3.308a.834.834,0,0,0,.126-.119,1.21,1.21,0,0,0,.113-1.461l-2.841-4.312a1.2,1.2,0,0,0-1.578-.4l-5.006,2.716a1.165,1.165,0,0,1-1.313-.13,21.258,21.258,0,0,0-2.659-1.848q-.754-.444-1.531-.817a1.227,1.227,0,0,1-.692-1.091l-.064-5.484a1.171,1.171,0,0,0-1.083-1.155l-5.146-.381a1.224,1.224,0,0,0-1.3,1l-.76,4.087a1.2,1.2,0,0,1-1.111.985,21.032,21.032,0,0,0-6.348,1.332,1.2,1.2,0,0,1-1.359-.357l-2.98-3.606a1.236,1.236,0,0,0-1.625-.244l-4.3,2.828a1.182,1.182,0,0,0-.389,1.554l.111.211,2.255,4.167a1.206,1.206,0,0,1-.15,1.37l0,.005a20.942,20.942,0,0,0-2.156,3.018c-.341.58-.646,1.168-.93,1.768a1.185,1.185,0,0,1-1.065.694l-4.666.047a1.226,1.226,0,0,0-1.213,1.132l-.382,5.125a1.325,1.325,0,0,0,.043.419,1.22,1.22,0,0,0,.935.854l3.45.633a1.22,1.22,0,0,1,.911.778,1.323,1.323,0,0,1,.068.331,20.961,20.961,0,0,0,2.1,8.021,1.174,1.174,0,0,1-.309,1.429l-3.24,2.676a1.2,1.2,0,0,0-.239,1.581l.065.1,2.765,4.205A1.222,1.222,0,0,0,1142.438,935.013Zm26.4-27.3a13.982,13.982,0,0,1,1.623,2.047,11.025,11.025,0,0,1,1.507,5.815c-.013.186-.031.369-.049.552-1.224,11.127-14.859,14.53-21.155,5.083a11.432,11.432,0,0,1-1.571-4.967,7.493,7.493,0,0,1,0-1.106,12.969,12.969,0,0,1,1.064-4.275A11.309,11.309,0,0,1,1168.835,907.71Z" transform="translate(-725.977 -602.401)" fill="#aec3ff" opacity="0.5"/>
  </g>
</svg>
