<svg xmlns="http://www.w3.org/2000/svg" width="602.924" height="340.205" viewBox="0 0 602.924 340.205">
  <g id="Grupo_107353" data-name="Grupo 107353" transform="translate(1774.733 2827.53)">
    <g id="Grupo_107335" data-name="Grupo 107335" transform="translate(-1649.893 -2827.53)">
      <rect id="Rectángulo_35403" data-name="Rectángulo 35403" width="237.382" height="334.769" rx="49.308" fill="#8a7cbf"/>
      <rect id="Rectángulo_35404" data-name="Rectángulo 35404" width="83.667" height="14.045" transform="translate(76.858 14.73)" fill="#d3dfff"/>
      <rect id="Rectángulo_35405" data-name="Rectángulo 35405" width="190.024" height="42.143" transform="translate(23.679 50.185)" fill="#dadada"/>
      <rect id="Rectángulo_35406" data-name="Rectángulo 35406" width="173.393" height="30.614" transform="translate(31.995 55.95)" fill="#fff"/>
      <g id="Grupo_107329" data-name="Grupo 107329" transform="translate(144.217 111.876)">
        <rect id="Rectángulo_35407" data-name="Rectángulo 35407" width="26.944" height="17.018" rx="8.509" fill="#3e2ea6"/>
        <rect id="Rectángulo_35408" data-name="Rectángulo 35408" width="26.944" height="17.018" rx="8.509" transform="translate(42.543)" fill="#3e2ea6"/>
      </g>
      <g id="Grupo_107330" data-name="Grupo 107330" transform="translate(24.981 149.458)">
        <rect id="Rectángulo_35409" data-name="Rectángulo 35409" width="32.614" height="22.218" rx="11.109" transform="translate(156.102)" fill="#3e2ea6"/>
        <rect id="Rectángulo_35410" data-name="Rectángulo 35410" width="32.614" height="22.218" rx="11.109" transform="translate(104.068)" fill="#3e2ea6"/>
        <rect id="Rectángulo_35411" data-name="Rectángulo 35411" width="32.614" height="22.218" rx="11.109" transform="translate(52.034)" fill="#3e2ea6"/>
        <rect id="Rectángulo_35412" data-name="Rectángulo 35412" width="32.614" height="22.218" rx="11.109" fill="#3e2ea6"/>
      </g>
      <g id="Grupo_107331" data-name="Grupo 107331" transform="translate(24.981 189.641)">
        <rect id="Rectángulo_35413" data-name="Rectángulo 35413" width="32.614" height="22.218" rx="11.109" transform="translate(156.102)" fill="#3e2ea6"/>
        <rect id="Rectángulo_35414" data-name="Rectángulo 35414" width="32.614" height="22.218" rx="11.109" transform="translate(104.068)" fill="#d3dfff"/>
        <rect id="Rectángulo_35415" data-name="Rectángulo 35415" width="32.614" height="22.218" rx="11.109" transform="translate(52.034)" fill="#d3dfff"/>
        <rect id="Rectángulo_35416" data-name="Rectángulo 35416" width="32.614" height="22.218" rx="11.109" fill="#d3dfff"/>
      </g>
      <g id="Grupo_107332" data-name="Grupo 107332" transform="translate(24.981 229.823)">
        <rect id="Rectángulo_35417" data-name="Rectángulo 35417" width="32.614" height="22.218" rx="11.109" transform="translate(156.102)" fill="#1f3c88"/>
        <rect id="Rectángulo_35418" data-name="Rectángulo 35418" width="32.614" height="22.218" rx="11.109" transform="translate(104.068)" fill="#d3dfff"/>
        <rect id="Rectángulo_35419" data-name="Rectángulo 35419" width="32.614" height="22.218" rx="11.109" transform="translate(52.034)" fill="#d3dfff"/>
        <rect id="Rectángulo_35420" data-name="Rectángulo 35420" width="32.614" height="22.218" rx="11.109" fill="#d3dfff"/>
      </g>
      <g id="Grupo_107333" data-name="Grupo 107333" transform="translate(24.981 271.423)">
        <rect id="Rectángulo_35421" data-name="Rectángulo 35421" width="32.614" height="22.218" rx="11.109" transform="translate(156.102)" fill="#fbc343"/>
        <rect id="Rectángulo_35422" data-name="Rectángulo 35422" width="32.614" height="22.218" rx="11.109" transform="translate(104.068)" fill="#d3dfff"/>
        <rect id="Rectángulo_35423" data-name="Rectángulo 35423" width="32.614" height="22.218" rx="11.109" transform="translate(52.034)" fill="#d3dfff"/>
        <rect id="Rectángulo_35424" data-name="Rectángulo 35424" width="32.614" height="22.218" rx="11.109" fill="#d3dfff"/>
      </g>
      <g id="Grupo_107334" data-name="Grupo 107334" transform="translate(166.184 62.408)">
        <path id="Trazado_149716" data-name="Trazado 149716" d="M-1030.177-2652.386a9.682,9.682,0,0,0,1.872-.08,6.453,6.453,0,0,0,3.584-1.661,7.517,7.517,0,0,0,2.266-4.56h-.077a5.034,5.034,0,0,1-4.033,1.845,4.963,4.963,0,0,1-5.061-5.246,5.874,5.874,0,0,1,5.851-6.089c3.5,0,5.666,2.847,5.666,7.222,0,3.77-1.264,6.406-2.951,8.041a8.574,8.574,0,0,1-4.981,2.293,10.841,10.841,0,0,1-2.136.132Zm.843-9.859c0,2.134,1.292,3.637,3.295,3.637a3.831,3.831,0,0,0,3.374-1.792,1.518,1.518,0,0,0,.21-.844c0-2.926-1.08-5.166-3.505-5.166C-1027.937-2666.41-1029.334-2664.67-1029.334-2662.244Z" transform="translate(1031.626 2668.176)" fill="#3a6bea"/>
        <path id="Trazado_149717" data-name="Trazado 149717" d="M-995.629-2652.386a9.679,9.679,0,0,0,1.871-.08,6.454,6.454,0,0,0,3.585-1.661,7.518,7.518,0,0,0,2.266-4.56h-.078a5.033,5.033,0,0,1-4.033,1.845,4.963,4.963,0,0,1-5.061-5.246,5.874,5.874,0,0,1,5.851-6.089c3.5,0,5.666,2.847,5.666,7.222,0,3.77-1.264,6.406-2.951,8.041a8.573,8.573,0,0,1-4.981,2.293,10.843,10.843,0,0,1-2.136.132Zm.843-9.859c0,2.134,1.292,3.637,3.295,3.637a3.831,3.831,0,0,0,3.374-1.792,1.521,1.521,0,0,0,.21-.844c0-2.926-1.08-5.166-3.505-5.166C-993.388-2666.41-994.786-2664.67-994.786-2662.244Z" transform="translate(1010.608 2668.176)" fill="#3a6bea"/>
      </g>
    </g>
    <g id="Grupo_107340" data-name="Grupo 107340" transform="translate(-1536.897 -2700.999)">
      <g id="Grupo_107336" data-name="Grupo 107336" transform="translate(186.762 113.942)">
        <rect id="Rectángulo_35425" data-name="Rectángulo 35425" width="129.514" height="95.005" fill="#fbc343"/>
        <rect id="Rectángulo_35426" data-name="Rectángulo 35426" width="34.507" height="1.417" transform="translate(95.012 21.507)" fill="#e49b31"/>
        <rect id="Rectángulo_35427" data-name="Rectángulo 35427" width="60.032" height="1.417" transform="translate(69.486 73.508)" fill="#e49b31"/>
        <path id="Trazado_149718" data-name="Trazado 149718" d="M-625.988-2179.069a108.978,108.978,0,0,1-4.992,32.6,38.883,38.883,0,0,1-37.1,27.258h-22.477v-94.281h58.992A109.136,109.136,0,0,1-625.988-2179.069Z" transform="translate(690.554 2213.493)" fill="#e49b31"/>
      </g>
      <g id="Grupo_107337" data-name="Grupo 107337" transform="translate(0 162.927)">
        <path id="Rectángulo_35428" data-name="Rectángulo 35428" d="M11.5,0h96.642a11.5,11.5,0,0,1,11.5,11.5v0a11.5,11.5,0,0,1-11.5,11.5H11.5A11.5,11.5,0,0,1,0,11.5v0A11.5,11.5,0,0,1,11.5,0Z" transform="translate(13.231 23.017)" fill="#fbc343"/>
        <path id="Trazado_149719" data-name="Trazado 149719" d="M-1047.793-2081.984v10.14a6.443,6.443,0,0,1-6.438,6.438H-1161a6.434,6.434,0,0,1-6.438-6.438v-10.14a6.443,6.443,0,0,1,6.438-6.438h106.768A6.452,6.452,0,0,1-1047.793-2081.984Z" transform="translate(1167.437 2088.422)" fill="#fbc343"/>
        <path id="Trazado_149720" data-name="Trazado 149720" d="M-977.925-2058.966v10.125a6.434,6.434,0,0,1-6.438,6.439h-76.563c-5.289-6.524-8.523-14.934-10.466-23a113.282,113.282,0,0,1-2.949-23.017h76.747a6.452,6.452,0,0,1,6.438,6.438v10.14a6.443,6.443,0,0,1-6.438,6.438h13.231A6.434,6.434,0,0,1-977.925-2058.966Z" transform="translate(1110.8 2088.422)" fill="#e49b31"/>
      </g>
      <g id="Grupo_107339" data-name="Grupo 107339" transform="translate(47.095)">
        <path id="Trazado_149721" data-name="Trazado 149721" d="M-823.805-2500.708l-8.622,26.478-.638,1.957-4,12.3-.029.085-12.89-.284-49.463-1.12-3.616-10.353-.61-1.73-9.572-27.328C-883.549-2490.426-859.073-2512.9-823.805-2500.708Z" transform="translate(965.699 2504.442)" fill="#fbc343"/>
        <path id="Trazado_149722" data-name="Trazado 149722" d="M-817.249-2422.314l-4,12.3-12.919-.2-49.463-1.12-3.616-10.353C-870.243-2421.988-840.988-2422.385-817.249-2422.314Z" transform="translate(949.883 2454.483)" fill="#e49b31"/>
        <path id="Trazado_149723" data-name="Trazado 149723" d="M-859.287-2254.627a38.875,38.875,0,0,1-14.081,19.713,38.8,38.8,0,0,1-23.016,7.545h-112.029a36.019,36.019,0,0,1-34.715-26.449,112.992,112.992,0,0,1-4.027-27.314c-.014-.88-.028-1.759-.028-2.638q0-1.559.043-3.115c.914-33.05,17.063-63.833,42.984-84.356l26.8-21.219,61.332,1.418,33.714,32.262a74.331,74.331,0,0,1,12.357,15.231,108.594,108.594,0,0,1,9.844,21.19A109,109,0,0,1-859.287-2254.627Z" transform="translate(1047.184 2436.317)" fill="#fbc343"/>
        <g id="Grupo_107338" data-name="Grupo 107338" transform="translate(66.917 77.46)">
          <path id="Trazado_149724" data-name="Trazado 149724" d="M-855.094-2204.792v-11.852c-8.365-.376-16.476-2.622-21.222-5.367l3.751-14.607a44.124,44.124,0,0,0,20.724,5.489c7.115,0,11.984-2.744,11.984-7.735,0-4.747-3.995-7.746-13.234-10.866-13.356-4.493-22.473-10.734-22.473-22.84,0-10.988,7.745-19.6,21.1-22.22v-11.863h12.228v10.988c8.365.376,13.986,2.124,18.1,4.116l-3.618,14.109c-3.242-1.372-8.985-4.249-17.98-4.249-8.111,0-10.733,3.5-10.733,6.994,0,4.116,4.37,6.739,14.982,10.734,14.849,5.245,20.846,12.106,20.846,23.349,0,11.11-7.867,20.594-22.219,23.094v12.726Z" transform="translate(876.317 2306.654)" fill="#fff"/>
        </g>
        <rect id="Rectángulo_35429" data-name="Rectángulo 35429" width="99.808" height="15.826" rx="7.913" transform="translate(48.025 39.479)" fill="#ed7545"/>
        <path id="Trazado_149725" data-name="Trazado 149725" d="M-859.244-2145.731a38.876,38.876,0,0,1-14.081,19.713,38.8,38.8,0,0,1-23.016,7.545H-1008.37a36.019,36.019,0,0,1-34.715-26.449,112.987,112.987,0,0,1-4.028-27.314c18.534,17.671,40.373,40.773,91.424,41.482,63.394.88,90.715-28.832,95.621-82.709A109,109,0,0,1-859.244-2145.731Z" transform="translate(1047.14 2327.42)" fill="#e49b31" opacity="0.4"/>
      </g>
    </g>
    <g id="Grupo_107346" data-name="Grupo 107346" transform="translate(-1774.733 -2721.442)">
      <g id="Grupo_107343" data-name="Grupo 107343" transform="translate(0 109.075)">
        <g id="Grupo_107341" data-name="Grupo 107341">
          <path id="Trazado_149726" data-name="Trazado 149726" d="M-1737.036-2027.616l-11.345-4.255-26.353,23.164h31.186Z" transform="translate(1774.733 2128.313)" fill="#102048"/>
          <path id="Trazado_149727" data-name="Trazado 149727" d="M-1688.59-2021.007h25.053l-2.836,17.964-28.728.946Z" transform="translate(1726.287 2121.703)" fill="#f9b384"/>
          <path id="Trazado_149728" data-name="Trazado 149728" d="M-1569.472-2278.127l-.922,6.282-.553,3.787-3.97,27.215-1.518,10.4-1.347,9.275-3.531,24.166-2.453,16.763a25.661,25.661,0,0,1-25.4,21.953H-1664.6l.071-.709,1.8-18.437.255-2.6,38.643-7.446,5.19-37.7a78.409,78.409,0,0,1-.822-28.917,70,70,0,0,1,2.24-10.325l17.244-4.949Z" transform="translate(1707.73 2278.127)" fill="#1f3c88"/>
          <path id="Trazado_149729" data-name="Trazado 149729" d="M-1499.608-2070.992l-2.453,16.763a25.662,25.662,0,0,1-25.4,21.953h-2.836C-1504.9-2036.821-1509.86-2069.262-1499.608-2070.992Z" transform="translate(1626.025 2152.113)" fill="#102048"/>
          <rect id="Rectángulo_35430" data-name="Rectángulo 35430" width="10.297" height="1.419" transform="translate(17.951 119.231) rotate(-58.13)" fill="#fff"/>
        </g>
        <path id="Trazado_149730" data-name="Trazado 149730" d="M-1468.811-2182.925l-2.865,19.67c-7.984-2.283-18.511-13.7-18.511-13.7Z" transform="translate(1601.624 2220.209)" fill="#102048"/>
        <g id="Grupo_107342" data-name="Grupo 107342" transform="translate(90.509 1.239)">
          <path id="Trazado_149731" data-name="Trazado 149731" d="M-1344.007-2071.6s-13.472,6.913-37.58,2.482l20.031-13.3Z" transform="translate(1445.046 2157.824)" fill="#102048"/>
          <path id="Trazado_149732" data-name="Trazado 149732" d="M-1338.752-2056.753l-21.541.482-.127-4.652-.341-12.75,19.144,1.418.908,4.921Z" transform="translate(1432.376 2152.504)" fill="#f9b384"/>
          <path id="Trazado_149733" data-name="Trazado 149733" d="M-1340.709-2067.333l-19.711,6.41-.341-12.75,19.144,1.418Z" transform="translate(1432.376 2152.504)" fill="#e28b6d"/>
          <path id="Trazado_149734" data-name="Trazado 149734" d="M-1313.6-2007.669l-23.753-19.146-.674-3.641-21.549.476.6,22.311Z" transform="translate(1431.655 2126.213)" fill="#102048"/>
          <rect id="Rectángulo_35431" data-name="Rectángulo 35431" width="10.034" height="1.419" transform="translate(93.346 110.081) rotate(-31.983)" fill="#fff"/>
          <path id="Trazado_149735" data-name="Trazado 149735" d="M-1543.625-2262.489l77.08-12.241a18.891,18.891,0,0,1,10.634,1.395h0a18.89,18.89,0,0,1,11.208,16.68l2.116,67.913s-21.98-4.609-37.579,2.482l-1.418-46.446c-9.424,4.291-25.75,5.2-42.295,3.545Z" transform="translate(1543.625 2274.963)" fill="#1f3c88"/>
          <path id="Trazado_149736" data-name="Trazado 149736" d="M-1390.4-2189.493h-1.418c0-11.752.284-21.506.534-30.113.609-20.958.944-32.5-4.394-37.388-4.321-3.954-12.954-3.831-25.482-2.349-13.425,1.564-18.778-12.728-18.83-12.873l1.333-.484c.2.549,5.022,13.429,17.331,11.948,13.259-1.565,21.864-1.626,26.6,2.712,5.818,5.324,5.5,16.4,4.855,38.476C-1390.114-2210.968-1390.4-2201.224-1390.4-2189.493Z" transform="translate(1480.575 2273.586)" fill="#3a6bea"/>
          <path id="Trazado_149737" data-name="Trazado 149737" d="M-1382.3-2078.009l-.5-1.325c.18-.068,18.16-6.759,38-1.8l-.344,1.376C-1364.538-2084.61-1382.124-2078.076-1382.3-2078.009Z" transform="translate(1445.786 2158.156)" fill="#3a6bea"/>
        </g>
        <path id="Trazado_149738" data-name="Trazado 149738" d="M-1645.642-2008.109c-2.208-4.419,1.209-22.718,1.356-23.5l1.393.264c-.973,5.161-3.137,19.282-1.48,22.6Z" transform="translate(1696.649 2128.15)" fill="#3a6bea"/>
        <path id="Trazado_149739" data-name="Trazado 149739" d="M-1507.025-2257.595a51.784,51.784,0,0,1-17.726,19.386,22.7,22.7,0,0,1-11.94,3.858,13.929,13.929,0,0,1-12.649-7.247,69.986,69.986,0,0,1,2.24-10.325l17.244-4.949,17.4-.553Z" transform="translate(1637.611 2265.635)" fill="#102048"/>
      </g>
      <g id="Grupo_107344" data-name="Grupo 107344" transform="translate(107.639 12.782)">
        <path id="Trazado_149740" data-name="Trazado 149740" d="M-1476.637-2435.9v16.413h16.072v-14.2Z" transform="translate(1485.742 2470.407)" fill="#ed7545"/>
        <path id="Trazado_149741" data-name="Trazado 149741" d="M-1460.566-2456.16h-16.072v7.933l16.072,2.217Z" transform="translate(1485.742 2482.729)" fill="#f9b384"/>
        <path id="Trazado_149742" data-name="Trazado 149742" d="M-1464.538-2451.528c.354,0,3.877,5.526,11.333,7.9l-.106-8.613Z" transform="translate(1478.381 2480.343)" fill="#102048"/>
        <path id="Trazado_149743" data-name="Trazado 149743" d="M-1460.878-2508.64s8.864,23.873-2.6,25.409-13.236-3.664-13.236-3.664l-3.545-12.645,7.918-10.637Z" transform="translate(1487.945 2515.592)" fill="#f9b384"/>
        <circle id="Elipse_5056" data-name="Elipse 5056" cx="2.482" cy="2.482" r="2.482" transform="matrix(0.019, -1, 1, 0.019, 27.495, 20.851)" fill="#f9b384"/>
        <path id="Trazado_149744" data-name="Trazado 149744" d="M-1484.873-2505.706s.591-12.764,12.054-11.345c0,0-7.714-9.909-17.879-6.066a14.561,14.561,0,0,0-9.121,12.376c-.653,7.1,3.495,15.2,9.286,16.617a110.812,110.812,0,0,1,5.07-9.928Z" transform="translate(1499.886 2524.004)" fill="#102048"/>
        <ellipse id="Elipse_5057" data-name="Elipse 5057" cx="3.486" cy="4.077" rx="3.486" ry="4.077" transform="translate(9.711 16.976) rotate(-25.174)" fill="#f9b384"/>
        <circle id="Elipse_5058" data-name="Elipse 5058" cx="3.25" cy="3.25" r="3.25" transform="matrix(0.014, -1, 1, 0.014, 19.883, 23.037)" fill="#eb5d60" opacity="0.4"/>
        <path id="Trazado_149745" data-name="Trazado 149745" d="M-1465.264-2476.873a.355.355,0,0,1-.354-.353,2.441,2.441,0,0,0-2.235-2.368.356.356,0,0,1-.3-.4.364.364,0,0,1,.4-.3,3.177,3.177,0,0,1,2.845,3.07.354.354,0,0,1-.353.354Z" transform="translate(1480.584 2497.415)" fill="#102048"/>
      </g>
      <g id="Grupo_107345" data-name="Grupo 107345" transform="translate(72.063 0)">
        <path id="Trazado_149746" data-name="Trazado 149746" d="M-1323.651-2495.691s12.4.945,19.144,8.863l-15.351,3.782Z" transform="translate(1428.246 2519.561)" fill="#ba5c36"/>
        <path id="Trazado_149747" data-name="Trazado 149747" d="M-1302.054-2539.564c.057,1.135-3.063,6.793-5.36,10.807-1.347,2.311-2.4,4.07-2.4,4.07l-8.267,2.411-5.9-8.892-.283-.439s.085-.383.241-1.064v-.014c.014-.014.014-.042.029-.085.992-4.213,4.509-18.565,6.537-19.047,1.787-.411.737,7.446.737,7.446s4.41-12.778,7.02-12.253c2.085.411-2,12.665-2,12.665s1.461-1.532,2.936-1.05a2.614,2.614,0,0,1,1.773,2,2.045,2.045,0,0,1,2.1-.113c1.05.638.95,2.624.95,2.624S-1302.167-2541.337-1302.054-2539.564Z" transform="translate(1428.617 2556.641)" fill="#f9b384"/>
        <path id="Trazado_149748" data-name="Trazado 149748" d="M-1549.8-2408.709l-5.616,21.954-8.707,34.037c-5.913,2.624-12.153,3.588-17.1,2.766-5.743-.95-9.756-4.3-9.487-10.211C-1590-2376.119-1549.8-2408.709-1549.8-2408.709Z" transform="translate(1590.726 2466.644)" fill="#ed7545"/>
        <path id="Trazado_149749" data-name="Trazado 149749" d="M-1536.121-2392.788l-4.538,15.719-8.707,34.037c-5.913,2.624-12.153,3.588-17.1,2.766C-1553.848-2376.479-1536.121-2392.788-1536.121-2392.788Z" transform="translate(1575.969 2456.958)" fill="#ba5c36"/>
        <path id="Trazado_149750" data-name="Trazado 149750" d="M-1488.577-2359.817c-11.7.794-48.57,31.285-57.433,11.615,0,0,1.234-73.378,39.111-72.016a15.981,15.981,0,0,1,14.62,11.1,74.61,74.61,0,0,1,2.524,11.516,153.055,153.055,0,0,1,1.447,18.323C-1488.152-2373.6-1488.223-2367.149-1488.577-2359.817Z" transform="translate(1563.522 2473.657)" fill="#ed7545"/>
        <path id="Trazado_149751" data-name="Trazado 149751" d="M-1417.264-2344.107c-5.857-3.787-11.969-15.2-11.969-15.2l10.522-3.12A153.113,153.113,0,0,1-1417.264-2344.107Z" transform="translate(1492.479 2438.489)" fill="#ba5c36"/>
        <path id="Trazado_149752" data-name="Trazado 149752" d="M-1307.04-2491.677c-1.347,2.311-2.4,4.07-2.4,4.07l-8.267,2.411-5.9-8.892-.043-1.5v-.1h.029Z" transform="translate(1428.243 2519.561)" fill="#e28b6d"/>
        <path id="Trazado_149753" data-name="Trazado 149753" d="M-1446.136-2466.121s18.189,1.276,29.179,3.4l18.79-32.973a42.816,42.816,0,0,0,19.144,8.863l-16.445,38.749a22.261,22.261,0,0,1-19.206,12.407l-28.163.963Z" transform="translate(1502.762 2519.561)" fill="#ed7545"/>
        <path id="Trazado_149754" data-name="Trazado 149754" d="M-1436.136-2416.779a.512.512,0,0,1-.1-.009c-.346-.064-34.693-6.363-40.545-1.189a.533.533,0,0,1-.751-.047.532.532,0,0,1,.047-.75c6.238-5.514,40.01.673,41.444.94a.532.532,0,0,1,.426.62A.532.532,0,0,1-1436.136-2416.779Z" transform="translate(1521.942 2474.154)" fill="#ba5c36"/>
      </g>
    </g>
    <g id="Grupo_107352" data-name="Grupo 107352" transform="translate(-1292.24 -2799.956)">
      <g id="Grupo_107347" data-name="Grupo 107347" transform="translate(14.783 118.098)">
        <path id="Trazado_149755" data-name="Trazado 149755" d="M-467.988-2053.649l2.363,30.255h-39.352l19.853-13.709-.355-18.909Z" transform="translate(504.977 2212.491)" fill="#102048"/>
        <path id="Trazado_149756" data-name="Trazado 149756" d="M-289.908-2082.87l10.636,25.882-26.944,22.691,3.9-25.528-5.318-17.018Z" transform="translate(384.919 2228.83)" fill="#102048"/>
        <path id="Trazado_149757" data-name="Trazado 149757" d="M-447.467-2455.568a29.481,29.481,0,0,0-.993,3.772c-.525,2.624-.978,5.971-1.361,9.914-1.248,12.877-1.773,32.008-1.914,52.331-.3,45.765,1.432,97.557,1.432,97.557l-7.2-.113-17.726-.27-6.268-.1a823.5,823.5,0,0,1-5.36-155.036c.043-.738.1-1.418.128-2.056.3-3.914.5-6,.5-6Z" transform="translate(494.859 2455.568)" fill="#1f3c88"/>
        <path id="Trazado_149758" data-name="Trazado 149758" d="M-356.794-2298.465l-3.6.893-18.889,4.723-11.543,2.893s-13.671-50.729-24.59-95.188c-5.247-21.443-9.87-41.426-12-53.551a77.987,77.987,0,0,1-1.234-9.63l16.506.936,20.846,1.191s.51,2.993,1.5,8.368C-385.823-2416.4-374.18-2357.065-356.794-2298.465Z" transform="translate(458.541 2451.162)" fill="#1f3c88"/>
        <path id="Trazado_149759" data-name="Trazado 149759" d="M-429.621-2442.237a179.048,179.048,0,0,1-23.711.354c-4.977-.255-9.643-.7-13.911-1.22a177.3,177.3,0,0,1-23.129-4.41c-2.425-.652-3.744-1.078-3.744-1.078l3.871-.978,23.881-6h15.386a29.477,29.477,0,0,0-.993,3.772l20.846,1.191S-430.614-2447.612-429.621-2442.237Z" transform="translate(498.369 2455.568)" fill="#102048"/>
        <path id="Trazado_149760" data-name="Trazado 149760" d="M-421.3-2330.147c-1.147-4.809-6.565-27.581-7.271-31.437l-10.959-4.109.5-1.329,11.8,4.427v.491c.081,1.051,4.415,19.494,7.307,31.627Z" transform="translate(465.162 2401.699)" fill="#3a6bea"/>
        <path id="Trazado_149761" data-name="Trazado 149761" d="M-477.421-2224.017a24.909,24.909,0,0,1-8.616-1.354l.526-1.317a27.277,27.277,0,0,0,14.018.673l.272,1.391A32.473,32.473,0,0,1-477.421-2224.017Z" transform="translate(493.454 2316.324)" fill="#3a6bea"/>
        <path id="Trazado_149762" data-name="Trazado 149762" d="M-368.975-2227.461a36.984,36.984,0,0,1-6.288-.555l.264-1.394c.1.019,9.687,1.794,14.115-1.3l.813,1.161C-362.43-2227.9-365.928-2227.461-368.975-2227.461Z" transform="translate(426.063 2318.772)" fill="#3a6bea"/>
        <rect id="Rectángulo_35432" data-name="Rectángulo 35432" width="1.418" height="6.997" transform="translate(19.421 175.95) rotate(-52.544)" fill="#fff"/>
        <rect id="Rectángulo_35433" data-name="Rectángulo 35433" width="1.417" height="8.163" transform="translate(82.337 169.663) rotate(-67.896)" fill="#fff"/>
      </g>
      <g id="Grupo_107350" data-name="Grupo 107350" transform="translate(0 40.464)">
        <path id="Trazado_149763" data-name="Trazado 149763" d="M-484.446-2653.517s-24.344,3.073-30.489,30.491l7.327,32.619-3.309,21.746s33.089,3.309,67.123-2.364l-10.34-55.428Z" transform="translate(525.818 2653.627)" fill="#ed7545"/>
        <path id="Trazado_149764" data-name="Trazado 149764" d="M-402.624-2521.055s-7.327-5.378,2.245-28.955l6.382,23.223Z" transform="translate(459.122 2590.657)" fill="#6e3620"/>
        <path id="Rectángulo_35434" data-name="Rectángulo 35434" d="M1.891,0h0A1.891,1.891,0,0,1,3.782,1.891V32.38a0,0,0,0,1,0,0H0a0,0,0,0,1,0,0V1.891A1.891,1.891,0,0,1,1.891,0Z" transform="translate(54.796 21.473) rotate(62.102)" fill="#102048"/>
        <path id="Trazado_149765" data-name="Trazado 149765" d="M-430.249-2551.183l-.723-.4-9.4-5.077-15.755-8.523c-.284-1.9-.071-3.517,1.064-4.623l-.78-.312a4.155,4.155,0,0,1-2.467-3.063l-.029-.17a7.157,7.157,0,0,1-.085-3.361l.369-.482a12.651,12.651,0,0,1,2.524-2.766l-2.014.114s-4.963,1.362-2.652-1.83c1.588-2.212,5.148-4.084,7.175-5.02a2.227,2.227,0,0,1,2.538.454c6.821,7.077,18.818,15.557,18.818,15.557l.128,1.73,1.163,15.927Z" transform="translate(492.892 2613.104)" fill="#f9b384"/>
        <g id="Grupo_107348" data-name="Grupo 107348" transform="translate(33.628 31.775)">
          <path id="Trazado_149766" data-name="Trazado 149766" d="M-446.434-2569.618l-4.292-2.1a2.336,2.336,0,0,0-1.437-.2l-4.571.8-.122-.7,4.572-.794a3.05,3.05,0,0,1,1.872.265l4.292,2.1Z" transform="translate(456.856 2572.663)" fill="#e28b6d"/>
          <path id="Trazado_149767" data-name="Trazado 149767" d="M-445.94-2558.966l-5.148-1.972a2,2,0,0,0-.716-.132h-2.931v-.708h2.931a2.715,2.715,0,0,1,.97.178l5.148,1.973Z" transform="translate(455.566 2566.041)" fill="#e28b6d"/>
          <path id="Trazado_149768" data-name="Trazado 149768" d="M-446.255-2548.43l-4.674-1.766a2.486,2.486,0,0,0-1.162-.145l-1.915.218-.081-.705,1.916-.218a3.222,3.222,0,0,1,1.493.187l4.674,1.765Z" transform="translate(455.171 2559.524)" fill="#e28b6d"/>
        </g>
        <path id="Trazado_149769" data-name="Trazado 149769" d="M-398.627-2530.581l-.6,1.446-9.4-5.077,6.225-15.8,2.609,3.5Z" transform="translate(461.142 2590.657)" fill="#e28b6d"/>
        <path id="Trazado_149770" data-name="Trazado 149770" d="M-398.46-2480.3s14.063,13.354,25.526,13l-3.31-15.718Z" transform="translate(454.958 2549.901)" fill="#ba5c36"/>
        <path id="Trazado_149771" data-name="Trazado 149771" d="M-437.084-2653.689a37.2,37.2,0,0,1,4.619-.081c28.387.971,50.131,25.4,48.746,53.768-.573,11.729-3.619,23.371-13.422,23.6l-24.816-7.8c2.34-8.777,4.088-17.881,2.245-28.955l11.522,5.5Z" transform="translate(478.456 2653.799)" fill="#ed7545"/>
        <path id="Trazado_149772" data-name="Trazado 149772" d="M-492.872-2548.249l-34.686.851-.95-2.936L-532-2561.055l-10.1-31.016,34.686-.851Z" transform="translate(542.341 2616.763)" fill="#d3dfff"/>
        <path id="Trazado_149773" data-name="Trazado 149773" d="M-508.953-2521.04s-.057,9.587-3.871,14.437l-3.489-10.722Z" transform="translate(526.656 2573.032)" fill="#1f3c88" opacity="0.3"/>
        <g id="Grupo_107349" data-name="Grupo 107349" transform="translate(0 38.602)">
          <path id="Trazado_149774" data-name="Trazado 149774" d="M-541.843-2542.59a32.974,32.974,0,0,1,5.273-9.721c.7-.935,2.212-3.233,3.667-2.884,2.954.709,0,5.909,0,5.909s2.836-4.254,3.9-2.127-.473,4.491-.473,4.491,4.491-2.955,2.836,2.954c0,0,3.663-.472,1.418,3.545-1.6,2.868-2.64,6.065-4.648,8.7-2.022,2.655-5.823,4.143-8.979,2.63-3.712-1.779-4.187-6.526-3.729-10.141A19.706,19.706,0,0,1-541.843-2542.59Z" transform="translate(542.723 2555.231)" fill="#f9b384"/>
          <path id="Trazado_149775" data-name="Trazado 149775" d="M-524.766-2538.283a.364.364,0,0,1-.143-.03.355.355,0,0,1-.18-.468l3.368-7.623a.354.354,0,0,1,.467-.181.354.354,0,0,1,.181.468l-3.368,7.623A.354.354,0,0,1-524.766-2538.283Z" transform="translate(532.014 2549.99)" fill="#e28b6d"/>
          <path id="Trazado_149776" data-name="Trazado 149776" d="M-515.94-2529.8a.351.351,0,0,1-.15-.034.356.356,0,0,1-.172-.472l3.191-6.824a.357.357,0,0,1,.471-.172.355.355,0,0,1,.172.472l-3.191,6.824A.355.355,0,0,1-515.94-2529.8Z" transform="translate(526.645 2544.343)" fill="#e28b6d"/>
          <path id="Trazado_149777" data-name="Trazado 149777" d="M-509.151-2521.437a.353.353,0,0,1-.165-.041.355.355,0,0,1-.149-.479l2.748-5.229a.357.357,0,0,1,.479-.149.355.355,0,0,1,.148.479l-2.748,5.229A.355.355,0,0,1-509.151-2521.437Z" transform="translate(522.514 2538.285)" fill="#e28b6d"/>
        </g>
        <path id="Trazado_149778" data-name="Trazado 149778" d="M-501.91-2591.625h-12.408l-2.127-4.254h12.408Z" transform="translate(526.737 2618.562)" fill="#102048"/>
        <path id="Trazado_149779" data-name="Trazado 149779" d="M-447.793-2622.684a10.869,10.869,0,0,1-6.135-1.848.533.533,0,0,1-.1-.745.533.533,0,0,1,.745-.1c.2.154,5.016,3.735,11.456-.151a.532.532,0,0,1,.73.18.533.533,0,0,1-.181.73A12.485,12.485,0,0,1-447.793-2622.684Z" transform="translate(488.828 2636.646)" fill="#ba5c36"/>
        <path id="Trazado_149780" data-name="Trazado 149780" d="M-399.285-2521.549a.573.573,0,0,1-.151-.021.535.535,0,0,1-.36-.662c5.1-17.267,2.271-28.557,2.241-28.669l-.207-.794,21.961,3.681a.532.532,0,0,1,.437.612.535.535,0,0,1-.612.437l-20.383-3.416c.545,2.888,2,13.5-2.416,28.452A.532.532,0,0,1-399.285-2521.549Z" transform="translate(455.784 2591.683)" fill="#ba5c36"/>
        <path id="Trazado_149781" data-name="Trazado 149781" d="M-369.814-2581.59h-.032a.532.532,0,0,1-.5-.563,41.465,41.465,0,0,0-7.354-23.307.533.533,0,0,1,.142-.738.533.533,0,0,1,.739.143,42.563,42.563,0,0,1,7.535,23.967A.532.532,0,0,1-369.814-2581.59Z" transform="translate(442.383 2624.896)" fill="#ba5c36"/>
      </g>
      <g id="Grupo_107351" data-name="Grupo 107351" transform="translate(23.017 0)">
        <path id="Trazado_149782" data-name="Trazado 149782" d="M-436.082-2686.848v13.687a7.845,7.845,0,0,1-7.689,7.994,7.845,7.845,0,0,1-7.69-7.994v-13.687Z" transform="translate(464.186 2714.369)" fill="#f9b384"/>
        <path id="Trazado_149783" data-name="Trazado 149783" d="M-443.35-2683.91s-.8,8.456-8.111,10.9v-12.013Z" transform="translate(464.186 2713.257)" fill="#102048"/>
        <path id="Trazado_149784" data-name="Trazado 149784" d="M-466.844-2734.77s-2.386,19.2,5.1,21.475,14.316-4.338,14.316-4.338l-1.41-15.835-11.062-6.507Z" transform="translate(473.764 2746.691)" fill="#f9b384"/>
        <path id="Trazado_149785" data-name="Trazado 149785" d="M-434.457-2707.891l-14.762.979c-1.868-2.057-2.925-4.947-3.616-8.211-.623,3.359-.13,6.15,1.517,8.353l-4,.269c-3.545-5.3-6.523-17.047-3.006-27.087l.411-2.368s-2.524-7.645-6.183-7.97c0,0-12.55,8.466-18.137-.979-4.169-7.035-.652-16.281,9.374-9.459,0,0,24.093-11.3,24.036,11.87a14.7,14.7,0,0,0,4.623,11.02,8.312,8.312,0,0,0,.837.723C-437.96-2726.469-432.131-2717.932-434.457-2707.891Z" transform="translate(483.952 2757.121)" fill="#102048"/>
        <ellipse id="Elipse_5059" data-name="Elipse 5059" cx="4.208" cy="3.6" rx="4.208" ry="3.6" transform="translate(21.653 24.172) rotate(-72.145)" fill="#f9b384"/>
        <path id="Trazado_149786" data-name="Trazado 149786" d="M-418.323-2704.526a.354.354,0,0,1-.354-.354,2.948,2.948,0,0,1,2.64-2.954h.018a.355.355,0,0,1,.354.336.355.355,0,0,1-.336.372,2.221,2.221,0,0,0-1.967,2.246A.354.354,0,0,1-418.323-2704.526Z" transform="translate(444.241 2727.137)" fill="#102048"/>
      </g>
    </g>
  </g>
</svg>
